<?xml version="1.0" encoding="UTF-8" standalone="no"?>
<svg width="1420px" height="1328px" viewBox="0 0 1420 1328" version="1.1" xmlns="http://www.w3.org/2000/svg" xmlns:xlink="http://www.w3.org/1999/xlink">
    <!-- Generator: Sketch 49.1 (51147) - http://www.bohemiancoding.com/sketch -->
    <title>Bradleys Blitz-B</title>
    <desc>Created with Sketch.</desc>
    <defs></defs>
    <g id="Page-1" stroke="none" stroke-width="1" fill="none" fill-rule="evenodd">
        <g id="Bradleys-Blitz-B">
            <path d="M982.135,1326.74 C961.027,1326.74 955.849,1314.28 954.782,1305.75 C951.844,1306.77 945.157,1308.73 937.268,1308.73 C926.005,1308.73 911.034,1304.62 903.063,1285.24 C901.022,1285.86 896.521,1286.98 890.935,1286.98 C878.095,1286.98 861.431,1281.19 854.527,1253.78 C847.855,1253.49 809.933,1250.38 801.184,1217.58 L759,1216.36 L696.707,1306.61 L79.271,678.761 L283.161,647.54 C269.625,640.556 226.602,617.868 222.722,609.678 C221.719,607.56 222.786,604.205 237.261,594.084 C245.567,588.275 257.454,580.851 272.592,572.018 C298.338,556.995 324.951,542.896 325.217,542.755 L325.952,542.367 L346.498,558.806 L387.2,541.89 C384.781,539.224 375.814,532.031 346.536,526.541 L342.864,525.852 L399.386,497.262 C396.23,494.172 383.69,485.256 344.148,485.256 C339.706,485.256 334.998,485.37 330.155,485.593 L326.406,485.767 L329.284,483.358 C329.729,482.984 340.479,474.076 364.25,461.884 C385.924,450.77 422.896,434.799 476.332,421.556 C472.019,413.166 450.315,369.8 444.226,335.457 C439.682,336.88 424.805,341.076 407.334,341.076 C382.295,341.076 362.669,332.912 348.998,316.81 C334.04,299.191 327.933,278.873 330.845,256.42 C333.304,237.458 341.421,220.386 348.836,205.873 C364.02,176.156 360.557,152.553 337.258,126.954 L335.746,125.292 L337.951,124.859 C338.195,124.811 344.018,123.688 352.553,123.688 C368.209,123.688 396.531,127.701 410.299,154.583 C423.865,181.068 419.301,198.84 415.968,211.816 C414.323,218.221 413.024,223.28 414.207,227.717 C416.033,234.564 421.6,241.879 431.75,241.879 C440.221,241.879 450.519,236.766 461.531,227.092 C469.38,220.197 475.382,213.137 481.186,206.311 C496.419,188.394 509.575,172.921 547.748,171.52 C554.328,171.279 560.909,171.157 567.306,171.157 C590.766,171.157 609.144,172.764 625.359,174.183 C636.693,175.175 647.398,176.112 657.856,176.284 C658.166,176.289 658.478,176.291 658.786,176.291 C675,176.291 690.153,169.172 697.388,158.156 C701.536,151.841 702.378,145.035 699.761,138.99 C697.54,133.862 693.903,128.313 690.051,122.438 C680.602,108.026 668.841,90.089 672.305,68.263 C677.111,37.982 734.352,6.735 736.786,5.421 L740.37,3.484 L738.515,7.111 C738.314,7.505 718.576,46.728 734.615,69.641 C738.66,75.419 743.84,81.39 749.325,87.711 C766.26,107.229 787.337,131.521 790.732,168.86 C792.757,191.14 786.88,211.86 773.264,230.445 C759.867,248.731 742.968,259.455 733.386,264.497 C734.903,267.61 738.553,276.684 737.771,290.624 C736.912,305.905 730.278,330.115 703.844,359.471 C706.312,359.433 710.239,359.391 715.287,359.391 C754.329,359.391 849.858,361.818 893.58,384.298 L896.243,385.667 L830.44,407.868 C829.829,408.42 828.65,409.753 828.974,410.77 C829.177,411.404 830.596,413.521 840.365,414.151 C859.867,415.41 870.191,416.685 870.293,416.698 L874.997,417.286 L870.626,419.122 C864.337,421.764 855.596,426.871 855.852,429.955 C855.964,431.297 858.266,432.597 862.169,433.518 C864.108,433.976 865.985,434.199 867.908,434.199 C875.63,434.199 883.069,430.529 893.364,425.45 C905.294,419.564 921.633,411.502 946.696,405.515 C966.249,400.843 983.773,398.474 998.778,398.474 C1013.46,398.474 1020.17,400.784 1020.45,400.881 L1020.91,401.042 L1021.14,401.46 C1021.49,402.097 1056.03,465.096 1047.61,519.947 L1293.48,479.074 L1096.35,745.972 C1097.08,749.167 1100.13,764.404 1096.48,783.986 C1105.45,785.214 1155.92,793.765 1181.18,832.889 C1199.22,860.852 1200.65,897.898 1185.42,942.998 L1085.49,1233.6 C1085.9,1236.15 1087.88,1251.75 1078.16,1270.28 C1060.88,1303.26 1020.24,1318.88 989.2,1326.19 C989.019,1326.22 986.176,1326.73 982.135,1326.74" id="Fill-1" fill="#040605"></path>
            <path d="M743.358,0.43 L736.185,4.306 C733.728,5.633 675.958,37.173 671.054,68.065 C667.513,90.374 679.423,108.538 688.993,123.133 C692.813,128.96 696.422,134.465 698.599,139.493 C701.041,145.133 700.235,151.514 696.329,157.461 C689.322,168.13 674.585,175.025 658.786,175.025 C658.485,175.025 658.18,175.022 657.876,175.017 C647.463,174.846 636.78,173.912 625.468,172.921 C609.227,171.5 590.82,169.89 567.306,169.89 C560.894,169.89 554.298,170.013 547.703,170.254 C508.97,171.676 495.648,187.346 480.221,205.492 C474.447,212.284 468.476,219.307 460.696,226.141 C449.918,235.609 439.909,240.613 431.749,240.613 C419.879,240.613 416.257,230.493 415.431,227.391 C414.332,223.274 415.595,218.357 417.195,212.131 C420.578,198.959 425.211,180.918 411.426,154.005 C397.351,126.525 368.499,122.421 352.554,122.421 C343.896,122.422 337.955,123.568 337.706,123.617 L333.296,124.482 L336.322,127.806 C359.206,152.952 362.613,176.126 347.708,205.296 C340.246,219.905 332.075,237.094 329.589,256.257 C326.629,279.078 332.834,299.726 348.034,317.629 C355.665,326.619 365.298,333.256 376.666,337.36 C385.827,340.666 396.145,342.342 407.333,342.342 C423.69,342.342 437.492,338.81 443.237,337.092 C449.434,370.132 468.87,409.745 474.471,420.715 C421.751,433.911 385.195,449.721 363.673,460.758 C339.776,473.012 328.921,482.009 328.47,482.386 L322.714,487.205 L330.213,486.858 C335.039,486.635 339.728,486.523 344.146,486.523 C378.996,486.524 392.51,493.463 397.124,496.988 L338.959,526.408 L346.302,527.785 C371.369,532.485 381.265,538.394 384.919,541.467 L346.704,557.35 L327.391,541.897 L326.093,540.859 L324.624,541.636 C324.358,541.777 297.722,555.887 271.954,570.924 C256.786,579.775 244.87,587.217 236.535,593.045 C222.09,603.147 220.103,607.106 221.578,610.22 C222.875,612.96 227.847,618.435 255.909,634.267 C264.699,639.226 273.377,643.847 279.154,646.872 L81.526,677.135 L76.633,677.884 L694.73,1306.41 L696.879,1308.59 L698.62,1306.07 L759.651,1217.64 L800.214,1218.82 C804.451,1233.53 815.162,1244.42 831.306,1250.4 C840.878,1253.94 849.707,1254.8 853.536,1255.01 C856.736,1267.09 862.189,1276.03 869.764,1281.61 C875.741,1286.02 882.863,1288.25 890.935,1288.25 C895.817,1288.25 899.911,1287.41 902.331,1286.76 C910.667,1305.89 925.82,1309.99 937.268,1309.99 C944.22,1309.99 950.273,1308.5 953.748,1307.42 C956.024,1320.55 966.198,1328 982.136,1328 C986.291,1328 989.244,1327.47 989.368,1327.45 L989.428,1327.43 L989.49,1327.42 C1014.43,1321.55 1035.06,1313.01 1050.8,1302.02 C1063.51,1293.15 1073.1,1282.67 1079.28,1270.87 C1088.82,1252.68 1087.29,1237.18 1086.78,1233.72 L1186.61,943.416 C1201.98,897.918 1200.51,860.505 1182.24,832.203 C1174.16,819.679 1158.2,802.349 1128.09,790.906 C1114.51,785.749 1103.01,783.649 1097.96,782.906 C1101.11,764.715 1098.6,750.414 1097.71,746.26 L1292.64,482.339 L1296.36,477.312 L1290.19,478.337 L1049.11,518.414 C1051.34,501.995 1051.01,475.914 1039.01,440.18 C1031.33,417.302 1022.61,401.507 1022.25,400.846 L1021.78,400.007 L1020.88,399.688 C1020.59,399.587 1013.68,397.208 998.776,397.208 C983.672,397.208 966.05,399.588 946.401,404.283 C921.201,410.304 904.787,418.402 892.803,424.314 C882.662,429.318 875.335,432.932 867.908,432.932 C866.084,432.932 864.303,432.721 862.46,432.286 C858.147,431.267 857.134,430.087 857.115,429.849 C856.981,428.238 863.197,423.614 871.116,420.291 L879.863,416.619 L870.45,415.442 C870.347,415.429 859.986,414.148 840.447,412.887 C831.219,412.292 830.187,410.4 830.179,410.381 C830.171,410.118 830.648,409.441 831.106,408.979 L899.484,385.91 L894.16,383.172 C850.19,360.565 754.42,358.125 715.286,358.125 C711.878,358.125 708.979,358.144 706.694,358.167 C731.787,329.501 738.186,305.803 739.035,290.694 C739.754,277.893 736.782,269.048 735.034,265.052 C744.867,259.743 761.219,249.027 774.286,231.193 C788.09,212.352 794.047,191.342 791.994,168.746 C788.562,131 767.336,106.537 750.282,86.882 C744.819,80.586 739.659,74.639 735.653,68.915 C720.035,46.604 739.445,8.075 739.643,7.688 L743.358,0.43 Z M737.389,6.534 C737.389,6.534 716.905,46.549 733.578,70.367 C750.25,94.186 785.025,120.068 789.471,168.975 C793.917,217.881 758.349,250.331 731.672,263.959 C731.672,263.959 754.813,302.598 700.923,360.792 C700.923,360.792 706.279,360.657 715.286,360.657 C751.937,360.657 849.154,362.879 893.001,385.424 L829.803,406.747 C829.803,406.747 820.594,414.144 840.284,415.415 C859.973,416.685 870.136,417.955 870.136,417.955 C870.136,417.955 841.554,429.952 861.879,434.75 C863.945,435.239 865.939,435.465 867.908,435.465 C885.31,435.465 900.77,417.789 946.99,406.747 C969.953,401.259 986.973,399.741 998.776,399.741 C1013.42,399.741 1020.03,402.077 1020.03,402.077 C1020.03,402.077 1055.56,466.033 1046.07,521.485 L1290.61,480.835 L1094.98,745.695 C1094.98,745.695 1099.43,762.843 1094.98,785.074 C1094.98,785.074 1232.81,798.73 1184.22,942.592 L1084.18,1233.49 C1084.18,1233.49 1096.89,1299.55 988.91,1324.95 C988.91,1324.95 986.109,1325.47 982.136,1325.47 C972.866,1325.47 957.215,1322.67 955.881,1303.99 C955.881,1303.99 947.56,1307.46 937.268,1307.46 C925.536,1307.46 911.243,1302.96 903.799,1283.67 C903.799,1283.67 898.312,1285.72 890.935,1285.72 C879.028,1285.72 862.194,1280.39 855.527,1252.55 C855.527,1252.55 811.067,1252.55 802.174,1216.34 L758.349,1215.07 L696.536,1304.63 L81.91,679.638 L287.223,648.199 C287.223,648.199 228.154,618.187 223.867,609.136 C219.579,600.085 325.809,543.875 325.809,543.875 L346.292,560.263 L389.165,542.445 C389.165,542.445 384.878,532.442 346.769,525.296 L401.392,497.667 C401.392,497.667 393.476,483.992 344.146,483.991 C339.791,483.99 335.12,484.096 330.096,484.329 C330.096,484.329 373.349,448.125 478.198,422.401 C478.198,422.401 451.585,372.224 445.226,333.797 C445.226,333.797 428.292,339.809 407.333,339.809 C388.317,339.809 365.987,334.864 349.964,315.991 C316.282,276.316 336.01,233.76 349.964,206.449 C363.918,179.137 363.918,154.366 338.195,126.102 C338.195,126.102 344.042,124.954 352.553,124.954 C369.17,124.954 395.942,129.328 409.172,155.161 C429.18,194.222 409.172,213.753 412.984,228.044 C415.139,236.127 421.462,243.145 431.749,243.145 C439.649,243.145 449.884,239.009 462.367,228.044 C491.108,202.796 495.871,174.691 547.795,172.786 C554.682,172.533 561.17,172.422 567.305,172.422 C607.431,172.422 632.631,177.136 657.835,177.549 C658.153,177.554 658.471,177.557 658.786,177.557 C687.37,177.557 708.674,156.391 700.923,138.487 C693.086,120.385 668.792,98.473 673.556,68.461 C678.32,38.451 737.389,6.534 737.389,6.534 Z" id="Fill-2" fill="#FFFFFE"></path>
            <path d="M954.612,501.478 C889.826,573.885 704.043,652.009 704.043,652.009 C846.522,633.163 960.892,558.292 1002.46,527.836 C976.141,506.458 954.612,501.478 954.612,501.478" id="Fill-3" fill="#2A2D4B"></path>
            <path d="M1002.46,527.836 C960.892,558.292 846.522,633.163 704.043,652.009 C811.702,658.678 928.887,597.704 971.76,585.318 C1014.63,572.932 1046.07,577.696 1046.07,577.696 C1031.84,555.181 1016.48,539.223 1002.46,527.836" id="Fill-4" fill="#2F5189"></path>
            <path d="M939.961,434.75 L899.353,447.172 C845.999,519.58 757.396,551.972 757.396,551.972 C820.276,509.099 835.52,472.896 835.52,472.896 L641.085,560.263 C654.899,566.429 677.657,577.449 678.319,583.413 C678.859,588.264 674.824,613.241 671.216,634.02 C693.936,625.304 729.388,610.206 781.32,584.484 C891.982,506.301 928.341,459.085 939.961,434.75" id="Fill-5" fill="#686872"></path>
            <path d="M678.319,583.413 C677.657,577.449 654.899,566.429 641.085,560.263 L619.25,570.075 L644.021,576.744 C648.785,603.42 637.352,645.34 637.352,645.34 C637.352,645.34 647.151,643.253 671.216,634.02 C674.824,613.241 678.859,588.264 678.319,583.413" id="Fill-6" fill="#484C41"></path>
            <path d="M939.961,434.75 C928.341,459.085 891.982,506.301 781.32,584.484 C792.013,579.187 803.386,573.453 815.512,567.216 C948.895,498.62 980.335,422.401 980.335,422.401 L939.961,434.75" id="Fill-7" fill="#FFFFFE"></path>
            <path d="M322.733,581.681 C319.98,580.07 317.251,578.485 314.376,576.744 L270.074,602.801 C270.074,602.801 348.373,661.003 454.357,666.669 C372.803,645.171 301.514,602.801 301.514,602.801 L322.733,581.681" id="Fill-8" fill="#FFFFFE"></path>
            <path d="M493.49,666.3 C493.49,666.3 472.53,627.905 476.817,590.176 C476.817,590.176 469.671,576.267 373.921,579.125 C373.921,579.125 399.169,611.422 415.842,621.951 C415.842,621.951 384.747,617.973 322.733,581.681 L301.514,602.801 C301.514,602.801 372.803,645.171 454.357,666.669 C467.041,667.347 480.098,667.319 493.49,666.3" id="Fill-9" fill="#686872"></path>
            <path d="M374.08,150.873 C374.08,150.873 401.392,158.812 401.392,188.029 C401.392,217.247 378.527,241.382 398.216,259.167 C417.906,276.951 442.042,250.91 462.367,255.991 C462.367,255.991 454.11,274.411 451.569,292.83 C449.029,311.25 448.394,315.695 448.394,315.695 C448.394,315.695 440.772,309.343 438.867,295.371 C438.867,295.371 429.339,318.871 396.311,315.695 C363.283,312.519 339.782,281.397 354.391,245.193 C368.999,208.99 387.737,196.127 374.08,150.873" id="Fill-10" fill="#FFFFFE"></path>
            <path d="M688.482,182.948 L670.062,208.99 C670.062,208.99 720.874,188.029 721.51,153.731 C722.145,119.433 700.143,111.176 696.536,85.134 C692.928,59.093 715.793,45.755 715.793,45.755 C715.793,45.755 699.942,74.972 721.523,92.121 C743.105,109.27 778.038,147.379 767.876,191.205 C756.386,240.754 711.983,249.639 679.589,240.112 L696.536,256.625 C696.536,256.625 652.278,268.037 635.764,233.431 C619.25,198.827 651.007,195.651 651.007,195.651 C651.007,195.651 677.684,192.475 688.482,182.948" id="Fill-11" fill="#FFFFFE"></path>
            <path d="M485.342,463.236 L483.009,457.652 C442.234,450.487 401.392,472.261 401.392,472.261 C422.906,477.366 460.728,505.603 489.06,528.739 C485.403,509.935 485.075,481.685 485.342,463.236" id="Fill-12" fill="#2F5189"></path>
            <path d="M485.342,463.236 C485.075,481.685 485.403,509.935 489.06,528.739 C510.079,545.903 525.882,560.263 525.882,560.263 L485.342,463.236" id="Fill-13" fill="#2A2D4B"></path>
            <path d="M446.806,503.442 C443.691,502.008 438.051,502.497 431.692,503.86 L419.176,520.056 L501.129,569.086 L515.878,576.744 C515.878,576.744 457.286,508.265 446.806,503.442" id="Fill-14" fill="#2A2D4B"></path>
            <path d="M419.176,520.056 L431.692,503.86 C416.656,507.082 397.501,515.292 397.501,515.292 L501.129,569.086 L419.176,520.056" id="Fill-15" fill="#2F5189"></path>
            <path d="M714.999,410.968 C729.29,388.103 720.24,388.58 727.385,388.103 C732.339,387.772 773.915,386.297 798.96,385.424 C746.2,379.542 712.496,382.172 704.043,386.198 C694.039,390.96 575.901,539.656 575.901,539.656 C575.901,539.656 590.695,529.29 621.247,507.701 C654.195,476.229 705.446,426.254 714.999,410.968" id="Fill-16" fill="#2A2D4B"></path>
            <path d="M829.803,389.532 C818.877,387.834 808.636,386.502 798.96,385.424 C773.915,386.297 732.339,387.772 727.385,388.103 C720.24,388.58 729.29,388.103 714.999,410.968 C705.446,426.254 654.195,476.229 621.247,507.701 C637.705,496.071 658.662,481.238 684.512,462.892 C758.349,410.492 829.803,389.532 829.803,389.532" id="Fill-17" fill="#2F5189"></path>
            <path d="M810.273,438.597 C810.273,438.597 682.765,483.375 598.925,552.608 C598.925,552.608 699.28,460.51 765.335,431.928 C765.335,431.928 784.707,421.13 810.273,438.597" id="Fill-18" fill="#2A2D4B"></path>
            <path d="M174.642,709.173 L287.382,824.136 L301.514,802.541 C301.514,802.541 265.469,770.148 286.112,726.958 L284.524,717.113 C284.524,717.113 278.49,718.701 274.996,713.937 C271.503,709.173 274.679,704.41 279.125,701.869 L277.538,691.707 L174.642,709.173" id="Fill-19" fill="#313234"></path>
            <path d="M710.078,691.707 C657.359,691.707 670.698,684.72 652.278,703.775 C640.081,716.392 605.964,742.868 584.25,759.362 C600.258,761.78 636.9,765.674 672.922,757.921 C698.003,752.523 717.841,745.161 734.631,736.856 C756.179,714.829 770.416,690.456 770.416,690.456 C770.416,690.456 762.794,691.707 710.078,691.707" id="Fill-20" fill="#C2A783"></path>
            <path d="M678.369,676.78 C648.882,676.78 648.785,677.733 631.003,698.058 C613.222,718.382 575.901,757.921 575.901,757.921 C575.901,757.921 578.947,758.561 584.25,759.362 C605.964,742.868 640.081,716.392 652.278,703.775 C670.698,684.72 657.359,691.707 710.078,691.707 C762.794,691.707 770.416,690.456 770.416,690.456 C770.416,690.456 756.179,714.829 734.631,736.856 C749.945,729.281 762.73,720.924 774.545,712.525 C799.316,694.917 803.127,667.129 803.127,667.129 C803.127,667.129 707.854,676.78 678.369,676.78" id="Fill-21" fill="#746659"></path>
            <path d="M477.713,798.165 C471.145,798.687 466.813,799.047 466.813,799.047 C466.813,799.047 465.86,800.635 476.658,822.866 C487.455,845.096 521.436,842.555 539.856,843.927 C547.318,844.483 551.572,844.25 554.238,843.534 C543.749,841.349 511.377,834.51 499.205,830.805 C489.151,827.745 481.504,809.341 477.713,798.165" id="Fill-22" fill="#746659"></path>
            <path d="M562.086,809.209 C562.086,802.223 559.545,793.966 543.666,793.966 C531.988,793.966 495.979,796.709 477.713,798.165 C481.504,809.341 489.151,827.745 499.205,830.805 C511.377,834.51 543.749,841.349 554.238,843.534 C558.152,842.482 558.609,840.376 560.498,838.11 C563.674,834.298 562.086,816.197 562.086,809.209" id="Fill-23" fill="#C2A783"></path>
            <path d="M362.215,737.762 L394.881,737.762 C394.881,737.762 408.697,767.725 411.554,782.275 C414.413,796.825 415.842,813.275 399.169,819.103 C382.496,824.93 368.205,799.365 365.347,789.52 C365.347,789.52 357.248,798.253 379.638,826.835 C402.027,855.417 363.918,831.291 354.391,810.723 C344.864,790.155 339.553,756.348 362.215,737.762" id="Fill-24" fill="#746659"></path>
            <path d="M314.852,833.504 C314.852,833.504 325.332,839.221 321.045,851.13 C316.758,863.04 303.896,847.795 314.852,833.504" id="Fill-25" fill="#C2A783"></path>
            <path d="M328.667,868.755 C328.667,868.755 367.729,906.398 373.446,915.682 C379.162,924.966 385.83,906.522 385.83,906.522 C385.83,906.522 396.788,869.217 369.634,855.411 C342.482,841.603 331.525,859.705 328.667,868.755" id="Fill-26" fill="#C2A783"></path>
            <path d="M816.148,777.467 C816.148,777.467 805.299,800.168 800.878,810.723 C796.457,821.278 790.523,830.17 790.523,830.17 C790.523,830.17 785.223,804.352 790.523,795.348 C795.823,786.344 816.148,777.467 816.148,777.467" id="Fill-27" fill="#C2A783"></path>
            <path d="M451.887,689.236 C433.793,684.293 387.712,673.108 322.076,667.129 C322.076,667.129 318.905,671.499 316.253,685.331 C339.527,690.442 397.763,700.62 451.887,689.236" id="Fill-28" fill="#2A2D4B"></path>
            <path d="M316.253,685.331 C315.288,690.362 314.39,696.612 313.741,704.41 C313.741,704.41 439.459,716.462 460.461,691.707 C460.461,691.707 457.452,690.755 451.887,689.236 C397.763,700.62 339.527,690.442 316.253,685.331" id="Fill-29" fill="#2F5189"></path>
            <path d="M922.218,638.353 C922.218,638.353 898.4,674.557 875.058,678.368 C851.716,682.179 833.297,673.922 829.803,663.759 L922.218,638.353" id="Fill-30" fill="#C2A783"></path>
            <path d="M1043.53,638.114 C1048.61,622.474 1043.53,607.866 1043.53,607.866 C1043.53,607.866 1019.4,600.244 956.517,617.393 C956.517,617.393 962.09,623.757 969.674,631.555 L1018.13,622.474 C1018.13,622.474 1018.55,652.003 1002.46,658.834 C1018.13,665.666 1038.45,653.753 1043.53,638.114" id="Fill-31" fill="#746659"></path>
            <path d="M1018.13,622.474 L969.674,631.555 C979.794,641.96 993.507,654.93 1002.46,658.834 C1018.55,652.003 1018.13,622.474 1018.13,622.474" id="Fill-32" fill="#C2A783"></path>
            <path d="M1013.68,679.315 C1013.68,679.315 1051.15,727.392 1053.7,782.275 C1053.7,782.275 1079.74,723.453 1013.68,679.315" id="Fill-33" fill="#746659"></path>
            <path d="M956.517,672.652 C956.517,672.652 948.26,668.83 952.705,679.315 C957.152,689.8 978.703,695.482 988.57,762.508 C988.57,762.508 971.125,745.059 962.233,724.099 C953.341,703.139 930.475,683.45 908.88,687.895 C887.286,692.341 861.878,718.382 859.338,770.465 C856.797,822.548 891.731,855.429 891.731,855.429 C891.731,855.429 890.49,849.491 903.431,839.147 C895.049,823.378 880.247,790.841 883.474,762.508 C887.92,723.464 913.961,719.653 929.205,735.532 C942.287,749.159 960.485,776.828 969.004,806.879 C984.587,801.237 1003.26,795.222 1025.75,788.885 C1025.75,788.885 1021.63,674.193 956.517,672.652" id="Fill-34" fill="#746659"></path>
            <path d="M883.474,762.508 C880.247,790.841 895.049,823.378 903.431,839.147 C913.72,830.922 933.017,819.909 969.004,806.879 C960.485,776.828 942.287,749.159 929.205,735.532 C913.961,719.653 887.92,723.464 883.474,762.508" id="Fill-35" fill="#C2A783"></path>
            <path d="M933.016,924.703 L913.644,1090.27 L1031.78,1077.88 C1031.78,1077.88 1038.52,1070.4 1048.23,1056.34 L1064.37,892.119 C1032.55,888.112 986.727,891.898 933.016,924.703" id="Fill-36" fill="#5D5C6B"></path>
            <path d="M1064.37,892.119 L1048.23,1056.34 C1066.73,1029.56 1096.19,978.456 1111.81,906.522 C1111.81,906.522 1094.26,895.882 1064.37,892.119" id="Fill-37" fill="#4B4853"></path>
            <path d="M956.517,855.429 C987.467,837.556 1001.69,832.171 1008.23,831.188 C1003.08,829.545 994.231,827.811 981.723,828.943 C926.093,847.375 881.517,884.264 875.058,898.447 C868.909,911.95 872.636,922.4 874.792,926.665 C888.337,909.286 915.572,879.074 956.517,855.429" id="Fill-38" fill="#FFFFFE"></path>
            <path d="M1137.54,830.17 C1137.54,830.17 1126.09,824.334 1103.24,820.475 L1103.24,863.454 C1103.54,863.573 1103.92,863.672 1104.19,863.797 C1119.43,870.749 1151.83,903.615 1151.83,903.615 L1158.5,855.429 L1137.54,830.17" id="Fill-39" fill="#4B4853"></path>
            <path d="M1025.75,819.102 C1010.64,820.719 995.843,824.265 981.723,828.943 C994.231,827.811 1003.08,829.545 1008.23,831.188 C1014.59,830.232 1013.68,833.438 1013.68,833.438 C1013.68,833.438 1011.85,832.341 1008.23,831.188 C1001.69,832.171 987.467,837.556 956.517,855.429 C915.572,879.074 888.337,909.286 874.792,926.665 C875.475,928.015 876.011,928.778 876.011,928.778 L897.448,928.778 C951.753,874.949 967.95,868.279 1001.15,863.797 C1033.76,859.397 1086.89,856.959 1103.24,863.454 L1103.24,820.475 C1084.83,817.367 1059.05,815.539 1025.75,819.102" id="Fill-40" fill="#5D5C6B"></path>
            <path d="M799.634,743.154 C796.406,736.699 757.789,757.653 736.815,769.648 C737.996,778.65 738.595,795.62 731.923,817.221 L795.188,762.508 C795.188,762.508 804.079,752.046 799.634,743.154" id="Fill-41" fill="#746659"></path>
            <path d="M736.815,769.648 C728.897,774.176 723.415,777.467 723.415,777.467 C723.415,777.467 697.373,822.23 695.468,848.749 L731.923,817.221 C738.595,795.62 737.996,778.65 736.815,769.648" id="Fill-42" fill="#C2A783"></path>
            <path d="M1055.6,679.315 C1055.6,679.315 1072.11,692.341 1075.93,700.598 L1189.62,546.891 L1087.36,560.865 C1087.36,560.865 1116.58,587.542 1111.49,611.042 C1111.49,611.042 1100.06,604.49 1090.53,606.178 C1081.01,607.866 1081.64,612.947 1082.28,628.191 C1082.91,643.435 1055.6,679.315 1055.6,679.315" id="Fill-43" fill="#313234"></path>
            <path d="M539.856,707.343 C532.234,675.343 529.058,631.367 529.058,631.367 L551.288,612.312 L551.288,599.609 C534.774,616.758 515.878,622.474 515.878,622.474 C522.566,671.677 539.856,707.343 539.856,707.343" id="Fill-44" fill="#FFFFFE"></path>
            <path d="M551.53,567.124 L551.46,573.749 C571.162,595.851 602.736,606.178 602.736,606.178 C594.803,669.064 569.616,707.343 569.616,707.343 C584.767,675.343 587.943,621.707 587.943,621.707 C558.541,612.045 551.288,599.609 551.288,599.609 L551.288,612.312 L529.058,631.367 C529.058,631.367 532.234,675.343 539.856,707.343 C543.234,721.529 547.36,729.921 550.909,734.887 C555.757,739.456 558.911,741.946 558.911,741.946 C627.507,681.668 616.465,594.528 616.465,594.528 C571.761,581.189 551.933,552.608 551.933,552.608 C551.849,552.697 551.763,552.775 551.679,552.863 L551.53,567.124" id="Fill-45" fill="#2F5189"></path>
            <path d="M551.53,567.124 L551.679,552.863 C521.884,584.418 485.868,595.798 485.868,595.798 C487.125,632.089 498.71,662.43 512.29,685.893 C494.129,635.09 493.49,602.801 493.49,602.801 C524.401,589.506 544.102,573.69 551.53,567.124" id="Fill-46" fill="#FFFFFE"></path>
            <path d="M501.129,606.178 C524.971,596.826 551.288,573.568 551.288,573.568 C551.343,573.63 551.405,573.687 551.46,573.749 L551.53,567.124 C544.102,573.69 524.401,589.506 493.49,602.801 C493.49,602.801 494.129,635.09 512.29,685.893 C525.976,709.539 541.687,726.2 550.909,734.887 C547.36,729.921 543.234,721.529 539.856,707.343 C506.828,668.356 501.129,606.178 501.129,606.178" id="Fill-47" fill="#2F5189"></path>
            <path d="M336.765,734.887 L313.741,734.887 C313.741,734.887 285.318,771.831 331.525,819.102 C331.525,819.102 303.896,752.979 336.765,734.887" id="Fill-48" fill="#C2A783"></path>
            <path d="M451.569,741.946 C451.569,741.946 472.847,731.721 489.912,722.829 C499.781,717.686 503.346,710.752 504.612,705.807 L432.197,734.887 C428.704,745.04 430.609,777.134 479.516,782.279 C491.511,783.541 501.764,782.789 510.443,780.959 C501.874,780.603 492.622,779.365 483.644,776.5 C453.792,766.972 451.569,741.946 451.569,741.946" id="Fill-49" fill="#746659"></path>
            <path d="M548.747,759.362 L506.51,705.044 L504.612,705.807 C503.346,710.752 499.781,717.686 489.912,722.829 C472.847,731.721 451.569,741.946 451.569,741.946 C451.569,741.946 453.792,766.972 483.644,776.5 C492.622,779.365 501.874,780.603 510.443,780.959 C537.148,775.331 548.747,759.362 548.747,759.362" id="Fill-50" fill="#C2A783"></path>
            <path d="M663.012,786.488 C641.173,787.468 613.719,789.363 600.433,790.87 C577.329,793.49 576.695,803.017 576.695,803.017 L578.997,841.365 C578.997,841.365 579.523,848.109 620.879,834.928 C653.982,812.956 661.864,796.132 663.012,786.488" id="Fill-51" fill="#C2A783"></path>
            <path d="M694.198,786.344 C692.242,785.535 679.152,785.763 663.012,786.488 C661.864,796.132 653.982,812.956 620.879,834.928 C624.635,833.732 628.603,832.431 633.065,830.884 C686.656,812.306 698.803,788.25 694.198,786.344" id="Fill-52" fill="#746659"></path>
            <path d="M485.868,861.927 C485.868,861.927 520.165,899.402 557.64,898.449 C557.64,898.449 564.309,900.99 564.309,891.462 C564.309,881.935 562.483,872.725 562.483,872.725 C562.483,872.725 556.052,848.589 485.868,861.927" id="Fill-53" fill="#C2A783"></path>
            <path d="M579.87,863.515 L579.87,888.604 C579.87,888.604 578.917,900.672 595.432,895.273 C611.946,889.875 677.049,858.117 689.434,825.724 C689.434,825.724 693.88,820.96 670.062,830.17 C646.244,839.379 579.87,853.036 579.87,863.515" id="Fill-54" fill="#C2A783"></path>
            <path d="M582.093,927.031 L582.093,915.774 C582.093,915.774 582.093,910.497 610.358,898.756 C638.622,887.016 672.286,876.218 673.873,888.921 C675.461,901.625 643.355,920.313 620.879,925.76 C598.608,931.16 585.269,932.43 582.093,927.031" id="Fill-55" fill="#C2A783"></path>
            <path d="M500.159,912.105 C500.159,912.105 516.355,906.842 532.551,906.854 C548.747,906.865 563.198,914.487 564.309,920.679 C565.42,926.873 554.305,930.683 532.234,927.348 C510.163,924.014 488.088,915.137 500.159,912.105" id="Fill-56" fill="#C2A783"></path>
            <path d="M760.889,820.475 C752.359,821.923 746.575,827.043 741.617,833.975 C744.404,845.412 743.831,867.109 718.64,898.516 C728.869,891.446 739.834,882.749 748.822,872.963 C772.957,846.684 780.579,817.13 760.889,820.475" id="Fill-57" fill="#746659"></path>
            <path d="M741.617,833.975 C735.131,843.042 730.065,855.214 722.145,866.374 C708.171,886.063 669.62,926.836 686.259,917.719 C686.259,917.719 701.399,910.435 718.64,898.516 C743.831,867.109 744.404,845.412 741.617,833.975" id="Fill-58" fill="#C2A783"></path>
            <path d="M431.076,934.97 L405.362,934.97 C405.362,934.97 393.453,903.303 399.169,876.502 C404.885,849.701 413.633,832.442 420.129,839.934 C431.076,852.559 426.798,864.945 423.94,871.137 C421.081,877.331 408.22,890.668 420.606,912.105 C420.606,912.105 427.731,897.337 431.076,893.527 C434.42,889.715 434.42,876.377 433.944,873.996 C433.467,871.614 446.329,891.622 437.754,910.676 C429.18,929.73 431.076,934.97 431.076,934.97" id="Fill-59" fill="#746659"></path>
            <path d="M537.315,520.056 C537.315,520.056 532.736,410.334 511.525,361.426 L508.246,361.426 C502.782,366.349 496.615,371.276 493.49,371.588 C487.138,372.224 504.288,380.798 537.315,520.056" id="Fill-60" fill="#6F6F71"></path>
            <path d="M493.49,371.588 C496.615,371.276 502.782,366.349 508.246,361.426 L482.692,361.426 C482.692,361.426 474.973,359.521 478.198,369.683 C481.421,379.846 523.977,510.37 537.315,520.056 C504.288,380.798 487.138,372.224 493.49,371.588" id="Fill-61" fill="#FFFFFE"></path>
            <path d="M565.262,196.921 C536.044,183.584 499.841,205.178 499.841,236.936 C499.841,244.801 499.177,253.015 498.182,260.925 C509.552,199.562 565.262,196.921 565.262,196.921" id="Fill-62" fill="#FFFFFE"></path>
            <path d="M477.411,315.99 C475.621,312.951 482.692,253.45 482.692,253.45 C462.367,322.046 471.894,327.128 471.894,327.128 C485.868,343.006 529.058,344.912 529.058,344.912 C482.216,330.78 479.199,319.03 477.411,315.99" id="Fill-63" fill="#FFFFFE"></path>
            <path d="M619.25,404.617 C610.993,438.28 588.127,460.823 588.127,460.823 L602.736,396.36 C602.736,396.36 596.384,398.901 641.085,369.683 C685.786,340.466 682.13,283.937 682.13,283.937 C593.208,263.613 614.804,195.651 614.804,195.651 C559.252,199.71 552.559,294.735 552.559,294.735 C532.234,257.896 565.262,196.921 565.262,196.921 C565.262,196.921 509.552,199.562 498.182,260.925 C495.16,284.956 489.06,306.167 489.06,306.167 L482.692,253.45 C482.692,253.45 475.621,312.951 477.411,315.99 C479.199,319.03 482.216,330.78 529.058,344.912 L637.669,278.221 L602.736,315.99 L641.085,325.222 C627.799,328.337 616.003,331.773 605.542,335.279 L627.348,340.943 C627.348,340.943 588.762,348.565 560.181,370 C560.181,370 572.884,469.72 555.735,520.056 C572.248,511.005 634.494,445.902 654.819,413.508 C675.143,381.116 674.508,372.224 674.508,372.224 C651.008,387.467 619.25,404.617 619.25,404.617" id="Fill-64" fill="#6F6F71"></path>
            <path d="M560.181,370 C588.762,348.565 627.348,340.943 627.348,340.943 L605.542,335.279 C562.681,349.645 543.032,365.237 543.032,365.237 C553.829,404.617 555.735,520.056 555.735,520.056 C572.884,469.72 560.181,370 560.181,370" id="Fill-65" fill="#FFFFFE"></path>
            <path d="M959.401,1217.41 C959.401,1217.41 953.859,1234.28 976.725,1242.54 C999.59,1250.79 1003.4,1245.71 1011.02,1257.78 C1018.64,1269.85 1046.59,1270.53 1051.67,1229.88 L959.401,1217.41" id="Fill-66" fill="#5D5C6B"></path>
            <path d="M1021.03,1281.76 C1021.03,1281.76 1029.13,1285.09 1021.03,1291.76 C1012.93,1298.43 1006.74,1301.29 1002.93,1302.72 C999.114,1304.15 1003.4,1310.81 992.921,1311.29 C982.441,1311.77 972.913,1313.67 971.485,1308.43 C970.056,1303.19 969.579,1294.14 977.677,1294.62 C985.776,1295.09 997.64,1293.67 997.64,1293.67 C997.64,1293.67 1015.31,1275.56 1021.03,1281.76" id="Fill-67" fill="#5D5C6B"></path>
            <path d="M984.713,1273.5 C981.938,1275.97 978.057,1279.16 975.295,1280.47 C970.532,1282.71 961.131,1283.19 959.401,1286.04 C958.488,1287.55 955.01,1289.32 951.646,1290.66 C948.631,1291.86 941.466,1291.89 938.552,1290.62 C933.178,1288.29 926.978,1284.45 930.994,1281.52 C937.187,1276.99 949.095,1276.99 949.095,1276.99 C949.095,1276.99 959.815,1265.26 966.838,1263.07 C972.379,1261.35 979.168,1258.9 985.559,1262.95 C991.132,1266.48 986.726,1271.72 984.713,1273.5" id="Fill-68" fill="#5D5C6B"></path>
            <path d="M929.708,1230.75 C929.708,1230.75 939.818,1222.21 946.117,1237.38 C948.404,1242.89 943.059,1247.61 937.646,1250.75 C932.233,1253.88 927.724,1256.52 922.912,1259.31 C918.101,1262.1 914.984,1267.56 897.502,1269.97 C888.533,1271.21 875.911,1267.79 881.63,1255.57 C887.349,1243.36 906.816,1246.94 906.816,1246.94 L929.708,1230.75" id="Fill-69" fill="#5D5C6B"></path>
            <path d="M877.668,1229.44 C900.87,1218.92 895.998,1202.21 895.998,1202.21 C883.025,1176.05 833.941,1213.62 833.941,1213.62 C833.941,1213.62 842.263,1245.49 877.668,1229.44" id="Fill-70" fill="#5D5C6B"></path>
            <path d="M1122.61,918.517 L1058.76,1007.98 C1257.65,1026.03 1262.09,1043.7 1262.09,1043.7 L1419.3,1236.44 L1417.03,1236.8 C1393.64,1229.92 1307.9,1205.19 1252.54,1196.07 L1383.3,1242.25 L1306.16,1257.05 C663.012,1144.52 126.583,1258.93 126.583,1258.93 L37.19,1247.07 L171.366,1199.69 C106.775,1210.33 0.75,1242.24 0.75,1242.24 L144.453,1048.86 C250.431,1014.49 362.215,1012.73 362.215,1012.73 L276.711,927.581 C407.895,879.701 841.981,877.387 1122.61,918.517" id="Fill-71" fill="#040605"></path>
            <path d="M1122.61,918.517 L1058.76,1007.98 C1257.65,1026.03 1262.09,1043.7 1262.09,1043.7 L1419.3,1236.44 L1417.03,1236.8 C1393.64,1229.92 1307.9,1205.19 1252.54,1196.07 L1383.3,1242.25 L1306.16,1257.05 C663.012,1144.52 126.583,1258.93 126.583,1258.93 L37.19,1247.07 L171.366,1199.69 C106.775,1210.33 0.75,1242.24 0.75,1242.24 L144.453,1048.86 C250.431,1014.49 362.215,1012.73 362.215,1012.73 L276.711,927.581 C407.895,879.701 841.981,877.387 1122.61,918.517 Z" id="Stroke-72" stroke="#8A8B8A" stroke-width="1.5" stroke-linecap="round" stroke-linejoin="round"></path>
            <path d="M326.658,1063.89 C330.263,1063.53 332.067,1063.36 335.675,1063.01 C342.144,1062.38 347.143,1063.18 350.684,1065.38 C354.221,1067.59 355.348,1070.49 354.025,1074.07 C350.777,1082.39 349.144,1086.55 345.862,1094.87 C344.612,1098.08 341.431,1101.12 336.297,1104.02 C331.16,1106.91 325.41,1108.92 319.079,1110.03 C314.212,1110.51 311.781,1110.75 306.918,1111.25 C314.906,1092.29 318.853,1082.82 326.658,1063.89 Z M336.083,1133.44 C331.165,1145.4 328.687,1151.39 323.693,1163.36 C322.073,1166.97 318.271,1170.33 312.268,1173.43 C306.257,1176.54 299.745,1178.45 292.773,1179.15 C286.345,1179.8 283.133,1180.13 276.711,1180.8 C286.701,1158.15 291.628,1146.83 301.348,1124.22 C308.126,1123.52 311.517,1123.19 318.301,1122.52 C324.554,1121.91 329.4,1122.72 332.859,1124.93 C336.315,1127.14 337.404,1129.98 336.083,1133.44 Z M391.638,1053.98 C383.3,1049.03 371.864,1047.19 357.176,1048.54 C323.438,1051.66 306.606,1053.4 273.046,1057.26 C270.825,1062.46 269.711,1065.06 267.479,1070.26 C272.727,1069.65 275.353,1069.35 280.607,1068.76 C270.788,1090.99 263.005,1108.47 255.41,1125.29 C245.222,1147.84 235.373,1169.18 221.417,1199.11 C254.725,1195.2 271.426,1193.42 304.9,1190.18 C320.978,1188.62 335.992,1184.45 349.706,1177.63 C363.426,1170.81 371.694,1163.36 374.683,1155.18 C378.07,1146.27 379.752,1141.82 383.098,1132.91 C386.777,1123.06 382.388,1115.89 370.4,1111.41 C369.623,1111.12 368.917,1110.8 368.077,1110.54 C382.679,1103.22 391.487,1095.39 394.683,1086.94 C396.648,1081.65 397.626,1079 399.577,1073.71 C402.692,1065.52 399.973,1058.94 391.638,1053.98 Z" id="Fill-74" fill="#FFFFFE"></path>
            <path d="M326.658,1063.89 C330.263,1063.53 332.067,1063.36 335.675,1063.01 C342.144,1062.38 347.143,1063.18 350.684,1065.38 C354.221,1067.59 355.348,1070.49 354.025,1074.07 C350.777,1082.39 349.144,1086.55 345.862,1094.87 C344.612,1098.08 341.431,1101.12 336.297,1104.02 C331.16,1106.91 325.41,1108.92 319.079,1110.03 C314.212,1110.51 311.781,1110.75 306.918,1111.25 C314.906,1092.29 318.853,1082.82 326.658,1063.89 Z M336.083,1133.44 C331.165,1145.4 328.687,1151.39 323.693,1163.36 C322.073,1166.97 318.271,1170.33 312.268,1173.43 C306.257,1176.54 299.745,1178.45 292.773,1179.15 C286.345,1179.8 283.133,1180.13 276.711,1180.8 C286.701,1158.15 291.628,1146.83 301.348,1124.22 C308.126,1123.52 311.517,1123.19 318.301,1122.52 C324.554,1121.91 329.4,1122.72 332.859,1124.93 C336.315,1127.14 337.404,1129.98 336.083,1133.44 Z M391.638,1053.98 C383.3,1049.03 371.864,1047.19 357.176,1048.54 C323.438,1051.66 306.606,1053.4 273.046,1057.26 C270.825,1062.46 269.711,1065.06 267.479,1070.26 C272.727,1069.65 275.353,1069.35 280.607,1068.76 C270.788,1090.99 263.005,1108.47 255.41,1125.29 C245.222,1147.84 235.373,1169.18 221.417,1199.11 C254.725,1195.2 271.426,1193.42 304.9,1190.18 C320.978,1188.62 335.992,1184.45 349.706,1177.63 C363.426,1170.81 371.694,1163.36 374.683,1155.18 C378.07,1146.27 379.752,1141.82 383.098,1132.91 C386.777,1123.06 382.388,1115.89 370.4,1111.41 C369.623,1111.12 368.917,1110.8 368.077,1110.54 C382.679,1103.22 391.487,1095.39 394.683,1086.94 C396.648,1081.65 397.626,1079 399.577,1073.71 C402.692,1065.52 399.973,1058.94 391.638,1053.98 Z" id="Stroke-75" stroke="#FFFFFE" stroke-width="2.083"></path>
            <path d="M699.515,1032.23 C695.228,1057.42 691.828,1076.87 688.346,1095.82 C684.172,1118.53 679.884,1140.52 673.813,1170.75 C694.235,1170.56 704.449,1170.53 724.872,1170.59 C729.958,1140.49 733.533,1118.58 736.966,1095.95 C739.843,1077 742.622,1057.55 746.104,1032.35 C727.469,1032.19 718.151,1032.17 699.515,1032.23" id="Fill-76" fill="#FFFFFE"></path>
            <path d="M699.515,1032.23 C695.228,1057.42 691.828,1076.87 688.346,1095.82 C684.172,1118.53 679.884,1140.52 673.813,1170.75 C694.235,1170.56 704.449,1170.53 724.872,1170.59 C729.958,1140.49 733.533,1118.58 736.966,1095.95 C739.843,1077 742.622,1057.55 746.104,1032.35 C727.469,1032.19 718.151,1032.17 699.515,1032.23 Z" id="Stroke-77" stroke="#FFFFFE" stroke-width="2.083"></path>
            <path d="M824.564,1046.36 C838.019,1046.74 844.745,1046.96 858.19,1047.46 C856.884,1067.59 855.782,1083.67 854.627,1098.96 C852.911,1121.72 851.077,1142.74 848.277,1172.7 C868.677,1173.35 878.873,1173.73 899.253,1174.62 C900.974,1144.86 902.058,1123.94 902.968,1101.36 C903.589,1085.94 904.129,1069.76 904.734,1049.45 C918.164,1050.11 924.877,1050.46 938.294,1051.23 C938.366,1046.3 938.398,1043.84 938.455,1038.91 C893.425,1036.3 870.859,1035.32 825.697,1034.02 C825.25,1038.96 825.024,1041.43 824.564,1046.36" id="Fill-78" fill="#FFFFFE"></path>
            <path d="M824.564,1046.36 C838.019,1046.74 844.745,1046.96 858.19,1047.46 C856.884,1067.59 855.782,1083.67 854.627,1098.96 C852.911,1121.72 851.077,1142.74 848.277,1172.7 C868.677,1173.35 878.873,1173.73 899.253,1174.62 C900.974,1144.86 902.058,1123.94 902.968,1101.36 C903.589,1085.94 904.129,1069.76 904.734,1049.45 C918.164,1050.11 924.877,1050.46 938.294,1051.23 C938.366,1046.3 938.398,1043.84 938.455,1038.91 C893.425,1036.3 870.859,1035.32 825.697,1034.02 C825.25,1038.96 825.024,1041.43 824.564,1046.36 Z" id="Stroke-79" stroke="#FFFFFE" stroke-width="2.083"></path>
            <path d="M520.905,1155.43 C527.358,1133.23 532.252,1116.18 536.909,1099.52 C542.332,1080.11 547.434,1061.25 554.286,1035.45 C530.691,1036.41 518.901,1036.98 495.345,1038.3 C493.752,1043.4 492.954,1045.95 491.346,1051.05 C496.518,1050.76 499.104,1050.62 504.278,1050.34 C498.075,1070.94 493.298,1086.61 488.475,1102.08 C483.22,1118.93 477.909,1135.54 470.632,1158.02 C468.638,1164.49 471.003,1169.18 477.829,1172.1 C484.653,1175.03 494.302,1176.16 506.716,1175.56 C538.639,1174.02 554.619,1173.39 586.595,1172.44 C587.76,1167.39 588.339,1164.86 589.491,1159.8 C566.831,1160.46 555.506,1160.86 532.871,1161.83 C523.566,1162.23 519.584,1160.11 520.905,1155.43" id="Fill-80" fill="#FFFFFE"></path>
            <path d="M520.905,1155.43 C527.358,1133.23 532.252,1116.18 536.909,1099.52 C542.332,1080.11 547.434,1061.25 554.286,1035.45 C530.691,1036.41 518.901,1036.98 495.345,1038.3 C493.752,1043.4 492.954,1045.95 491.346,1051.05 C496.518,1050.76 499.104,1050.62 504.278,1050.34 C498.075,1070.94 493.298,1086.61 488.475,1102.08 C483.22,1118.93 477.909,1135.54 470.632,1158.02 C468.638,1164.49 471.003,1169.18 477.829,1172.1 C484.653,1175.03 494.302,1176.16 506.716,1175.56 C538.639,1174.02 554.619,1173.39 586.595,1172.44 C587.76,1167.39 588.339,1164.86 589.491,1159.8 C566.831,1160.46 555.506,1160.86 532.871,1161.83 C523.566,1162.23 519.584,1160.11 520.905,1155.43 Z" id="Stroke-81" stroke="#FFFFFE" stroke-width="2.083"></path>
            <path d="M1019.56,1181.57 C1085.01,1186.29 1117.65,1189.28 1182.56,1196.53 C1181.97,1191.52 1181.67,1189.01 1181.06,1184 C1142.01,1179.62 1122.42,1177.65 1083.16,1174.19 C1099.06,1153.34 1110.99,1137.19 1121.81,1121.58 C1135.16,1102.32 1146.81,1083.89 1162.07,1058.44 C1111,1052.45 1085.34,1049.89 1033.87,1045.62 C1034.14,1050.56 1034.27,1053.02 1034.53,1057.95 C1062.65,1060.27 1076.69,1061.55 1104.69,1064.38 C1091.75,1084.39 1081.22,1100.11 1070.42,1115.29 C1056.07,1135.45 1041.22,1154.63 1019.56,1181.57" id="Fill-82" fill="#FFFFFE"></path>
            <path d="M1019.56,1181.57 C1085.01,1186.29 1117.65,1189.28 1182.56,1196.53 C1181.97,1191.52 1181.67,1189.01 1181.06,1184 C1142.01,1179.62 1122.42,1177.65 1083.16,1174.19 C1099.06,1153.34 1110.99,1137.19 1121.81,1121.58 C1135.16,1102.32 1146.81,1083.89 1162.07,1058.44 C1111,1052.45 1085.34,1049.89 1033.87,1045.62 C1034.14,1050.56 1034.27,1053.02 1034.53,1057.95 C1062.65,1060.27 1076.69,1061.55 1104.69,1064.38 C1091.75,1084.39 1081.22,1100.11 1070.42,1115.29 C1056.07,1135.45 1041.22,1154.63 1019.56,1181.57 Z" id="Stroke-83" stroke="#FFFFFE" stroke-width="2.083"></path>
            <path d="M354.025,1074.07 C350.777,1082.39 349.144,1086.55 345.862,1094.87 C344.612,1098.08 341.431,1101.12 336.297,1104.02 C331.16,1106.91 325.41,1108.92 319.079,1110.03 C314.212,1110.51 311.781,1110.75 306.918,1111.25 C314.906,1092.29 318.853,1082.82 326.658,1063.89 C330.263,1063.53 332.067,1063.36 335.675,1063.01 C342.144,1062.38 347.143,1063.18 350.684,1065.38 C354.221,1067.59 355.348,1070.49 354.025,1074.07 Z M368.077,1110.54 C382.679,1103.22 391.487,1095.39 394.683,1086.94 C396.648,1081.65 397.626,1079 399.577,1073.71 C402.692,1065.52 399.973,1058.94 391.638,1053.98 C383.3,1049.03 371.864,1047.19 357.176,1048.54 C323.438,1051.66 306.606,1053.4 273.046,1057.26 C270.825,1062.46 269.711,1065.06 267.479,1070.26 C272.727,1069.65 275.353,1069.35 280.607,1068.76 C270.788,1090.99 263.005,1108.47 255.41,1125.29 C291.987,1120.01 330.394,1115.36 370.4,1111.41 C369.623,1111.12 368.917,1110.8 368.077,1110.54 Z" id="Fill-84" fill="#FFFFFE"></path>
            <path d="M554.286,1035.45 C530.691,1036.41 518.901,1036.98 495.345,1038.3 C493.752,1043.4 492.954,1045.95 491.346,1051.05 C496.518,1050.76 499.104,1050.62 504.278,1050.34 C498.075,1070.94 493.298,1086.61 488.475,1102.08 C504.438,1101.11 520.595,1100.27 536.909,1099.52 C542.332,1080.11 547.434,1061.25 554.286,1035.45" id="Fill-85" fill="#FFFFFE"></path>
            <path d="M736.966,1095.95 C739.843,1077 742.622,1057.55 746.104,1032.35 C727.469,1032.19 718.151,1032.17 699.515,1032.23 C695.228,1057.42 691.828,1076.87 688.346,1095.82 C692.891,1095.8 697.427,1095.77 701.989,1095.77 C713.711,1095.77 725.361,1095.85 736.966,1095.95" id="Fill-86" fill="#FFFFFE"></path>
            <path d="M904.734,1049.45 C918.164,1050.11 924.877,1050.46 938.294,1051.23 C938.366,1046.3 938.398,1043.84 938.455,1038.91 C893.425,1036.3 870.859,1035.32 825.697,1034.02 C825.25,1038.96 825.024,1041.43 824.564,1046.36 C838.019,1046.74 844.745,1046.96 858.19,1047.46 C856.884,1067.59 855.782,1083.67 854.627,1098.96 C870.913,1099.65 887.022,1100.46 902.968,1101.36 C903.589,1085.94 904.129,1069.76 904.734,1049.45" id="Fill-87" fill="#FFFFFE"></path>
            <path d="M1162.07,1058.44 C1111,1052.45 1085.34,1049.89 1033.87,1045.62 C1034.14,1050.56 1034.27,1053.02 1034.53,1057.95 C1062.65,1060.27 1076.69,1061.55 1104.69,1064.38 C1091.75,1084.39 1081.22,1100.11 1070.42,1115.29 C1087.9,1117.25 1105.03,1119.35 1121.81,1121.58 C1135.16,1102.32 1146.81,1083.89 1162.07,1058.44" id="Fill-88" fill="#FFFFFE"></path>
            <path d="M318.301,1122.52 C324.554,1121.91 329.4,1122.72 332.859,1124.93 C336.315,1127.14 337.404,1129.98 336.083,1133.44 C331.165,1145.4 328.687,1151.39 323.693,1163.36 C322.073,1166.97 318.271,1170.33 312.268,1173.43 C306.257,1176.54 299.745,1178.45 292.773,1179.15 C286.345,1179.8 283.133,1180.13 276.711,1180.8 C286.701,1158.15 291.628,1146.83 301.348,1124.22 C308.126,1123.52 311.517,1123.19 318.301,1122.52 Z M304.9,1190.18 C320.978,1188.62 335.992,1184.45 349.706,1177.63 C363.426,1170.81 371.694,1163.36 374.683,1155.18 C378.07,1146.27 379.752,1141.82 383.098,1132.91 C386.777,1123.06 382.388,1115.89 370.4,1111.41 C330.394,1115.36 291.987,1120.01 255.41,1125.29 C245.222,1147.84 235.373,1169.18 221.417,1199.11 C254.725,1195.2 271.426,1193.42 304.9,1190.18 Z" id="Fill-89" fill="#A6A4AF"></path>
            <path d="M477.829,1172.1 C484.653,1175.03 494.302,1176.16 506.716,1175.56 C538.639,1174.02 554.619,1173.39 586.595,1172.44 C587.76,1167.39 588.339,1164.86 589.491,1159.8 C566.831,1160.46 555.506,1160.86 532.871,1161.83 C523.566,1162.23 519.584,1160.11 520.905,1155.43 C527.358,1133.23 532.252,1116.18 536.909,1099.52 C520.595,1100.27 504.438,1101.11 488.475,1102.08 C483.22,1118.93 477.909,1135.54 470.632,1158.02 C468.638,1164.49 471.003,1169.18 477.829,1172.1" id="Fill-90" fill="#A6A4AF"></path>
            <path d="M724.872,1170.59 C729.958,1140.49 733.533,1118.58 736.966,1095.95 C725.361,1095.85 713.711,1095.77 701.989,1095.77 C697.427,1095.77 692.891,1095.8 688.346,1095.82 C684.172,1118.53 679.884,1140.52 673.813,1170.75 C694.235,1170.56 704.449,1170.53 724.872,1170.59" id="Fill-91" fill="#A6A4AF"></path>
            <path d="M899.253,1174.62 C900.974,1144.86 902.058,1123.94 902.968,1101.36 C887.022,1100.46 870.913,1099.65 854.627,1098.96 C852.911,1121.72 851.077,1142.74 848.277,1172.7 C868.677,1173.35 878.873,1173.73 899.253,1174.62" id="Fill-92" fill="#A6A4AF"></path>
            <path d="M1182.56,1196.53 C1181.97,1191.52 1181.67,1189.01 1181.06,1184 C1142.01,1179.62 1122.42,1177.65 1083.16,1174.19 C1099.06,1153.34 1110.99,1137.19 1121.81,1121.58 C1105.03,1119.35 1087.9,1117.25 1070.42,1115.29 C1056.07,1135.45 1041.22,1154.63 1019.56,1181.57 C1085.01,1186.29 1117.65,1189.28 1182.56,1196.53" id="Fill-93" fill="#A6A4AF"></path>
            <path d="M423.597,993.37 C427.85,992.688 432.104,992.02 436.36,991.368 C439.528,990.882 441.758,989.883 443.049,988.364 C444.336,986.844 444.866,985.272 444.624,983.642 C444.383,982.015 443.439,980.625 441.786,979.47 C440.132,978.319 437.369,978.033 433.503,978.626 C429.512,979.241 425.522,979.868 421.533,980.507 C422.221,984.795 422.909,989.083 423.597,993.37 Z M419.119,965.467 C423.225,964.808 427.332,964.163 431.443,963.532 C434.533,963.057 436.621,962.088 437.702,960.616 C438.783,959.145 439.216,957.68 438.999,956.225 C438.414,952.278 435.131,950.742 429.161,951.659 C425.173,952.272 421.188,952.899 417.204,953.539 C417.842,957.514 418.48,961.491 419.119,965.467 Z M402.219,1013.14 C398.117,989.592 394.014,966.047 389.912,942.501 C404.772,939.913 419.656,937.502 434.56,935.272 C443.853,933.882 450.91,934.825 455.681,938.014 C460.456,941.208 463.153,945.248 463.808,950.104 C464.287,953.644 463.492,957.009 461.447,960.206 C459.396,963.403 456.045,965.875 451.381,967.635 C462.903,968.258 469.23,973.055 470.402,981.866 C471.108,987.144 469.779,992.115 466.46,996.792 C463.136,1001.48 455.159,1004.68 442.502,1006.59 C429.056,1008.62 415.628,1010.8 402.219,1013.14 Z" id="Fill-94" fill="#FFFFFE"></path>
            <path d="M423.597,993.37 C427.85,992.688 432.104,992.02 436.36,991.368 C439.528,990.882 441.758,989.883 443.049,988.364 C444.336,986.844 444.866,985.272 444.624,983.642 C444.383,982.015 443.439,980.625 441.786,979.47 C440.132,978.319 437.369,978.033 433.503,978.626 C429.512,979.241 425.522,979.868 421.533,980.507 C422.221,984.795 422.909,989.083 423.597,993.37 Z M419.119,965.467 C423.225,964.808 427.332,964.163 431.443,963.532 C434.533,963.057 436.621,962.088 437.702,960.616 C438.783,959.145 439.216,957.68 438.999,956.225 C438.414,952.278 435.131,950.742 429.161,951.659 C425.173,952.272 421.188,952.899 417.204,953.539 C417.842,957.514 418.48,961.491 419.119,965.467 Z M402.219,1013.14 C398.117,989.592 394.014,966.047 389.912,942.501 C404.772,939.913 419.656,937.502 434.56,935.272 C443.853,933.882 450.91,934.825 455.681,938.014 C460.456,941.208 463.153,945.248 463.808,950.104 C464.287,953.644 463.492,957.009 461.447,960.206 C459.396,963.403 456.045,965.875 451.381,967.635 C462.903,968.258 469.23,973.055 470.402,981.866 C471.108,987.144 469.779,992.115 466.46,996.792 C463.136,1001.48 455.159,1004.68 442.502,1006.59 C429.056,1008.62 415.628,1010.8 402.219,1013.14 Z" id="Stroke-95" stroke="#8B8E8D"></path>
            <path d="M505.164,955.19 C508.969,954.76 512.774,954.342 516.579,953.936 C519.937,953.579 522.579,952.724 524.506,951.365 C526.432,950.006 527.286,948.215 527.062,945.984 C526.606,941.422 522.923,939.477 516.025,940.208 C511.89,940.647 507.757,941.1 503.625,941.567 C504.138,946.108 504.652,950.649 505.164,955.19 Z M559.6,992.759 C549.936,993.583 540.278,994.484 530.623,995.463 C525.558,986.791 520.431,978.138 515.243,969.506 C512.456,969.809 509.671,970.117 506.887,970.432 C507.913,979.514 508.94,988.596 509.965,997.678 C501.266,998.661 492.572,999.708 483.883,1000.82 C480.856,977.109 477.829,953.401 474.802,929.693 C490.17,927.731 505.558,925.959 520.959,924.376 C531.156,923.33 539.27,924.523 545.241,927.869 C551.214,931.218 554.446,936.073 554.983,942.384 C555.334,946.503 554.62,950.227 552.854,953.561 C551.088,956.899 547.217,960.038 541.268,963.022 C547.466,972.904 553.577,982.817 559.6,992.759 Z" id="Fill-96" fill="#FFFFFE"></path>
            <path d="M505.164,955.19 C508.969,954.76 512.774,954.342 516.579,953.936 C519.937,953.579 522.579,952.724 524.506,951.365 C526.432,950.006 527.286,948.215 527.062,945.984 C526.606,941.422 522.923,939.477 516.025,940.208 C511.89,940.647 507.757,941.1 503.625,941.567 C504.138,946.108 504.652,950.649 505.164,955.19 Z M559.6,992.759 C549.936,993.583 540.278,994.484 530.623,995.463 C525.558,986.791 520.431,978.138 515.243,969.506 C512.456,969.809 509.671,970.117 506.887,970.432 C507.913,979.514 508.94,988.596 509.965,997.678 C501.266,998.661 492.572,999.708 483.883,1000.82 C480.856,977.109 477.829,953.401 474.802,929.693 C490.17,927.731 505.558,925.959 520.959,924.376 C531.156,923.33 539.27,924.523 545.241,927.869 C551.214,931.218 554.446,936.073 554.983,942.384 C555.334,946.503 554.62,950.227 552.854,953.561 C551.088,956.899 547.217,960.038 541.268,963.022 C547.466,972.904 553.577,982.817 559.6,992.759 Z" id="Stroke-97" stroke="#8B8E8D"></path>
            <path d="M593.832,960.319 C598.507,960.015 603.183,959.728 607.859,959.459 C605.122,952.671 602.36,945.89 599.57,939.114 C597.631,946.179 595.718,953.249 593.832,960.319 Z M618.993,988.676 C617.138,984.057 615.272,979.44 613.392,974.827 C605.713,975.249 598.037,975.718 590.364,976.238 C588.96,981.053 587.57,985.871 586.194,990.689 C579.111,991.188 572.031,991.729 564.953,992.311 C571.762,967.77 578.921,943.264 586.431,918.801 C596.022,918.153 605.616,917.577 615.213,917.075 C625.737,940.458 635.91,963.927 645.732,987.476 C636.817,987.811 627.904,988.21 618.993,988.676 Z" id="Fill-98" fill="#FFFFFE"></path>
            <path d="M593.832,960.319 C598.507,960.015 603.183,959.728 607.859,959.459 C605.122,952.671 602.36,945.89 599.57,939.114 C597.631,946.179 595.718,953.249 593.832,960.319 Z M618.993,988.676 C617.138,984.057 615.272,979.44 613.392,974.827 C605.713,975.249 598.037,975.718 590.364,976.238 C588.96,981.053 587.57,985.871 586.194,990.689 C579.111,991.188 572.031,991.729 564.953,992.311 C571.762,967.77 578.921,943.264 586.431,918.801 C596.022,918.153 605.616,917.577 615.213,917.075 C625.737,940.458 635.91,963.927 645.732,987.476 C636.817,987.811 627.904,988.21 618.993,988.676 Z" id="Stroke-99" stroke="#8B8E8D"></path>
            <path d="M679.507,970.028 C681.801,969.985 684.096,969.947 686.39,969.913 C690.767,969.847 694.437,968.041 697.426,964.475 C700.411,960.913 701.901,956.089 701.863,949.996 C701.829,944.779 700.447,940.286 697.693,936.527 C694.936,932.769 690.969,930.917 685.809,930.993 C683.466,931.028 681.122,931.067 678.78,931.111 C679.022,944.084 679.265,957.055 679.507,970.028 Z M653.599,987.199 C652.807,963.311 652.015,939.424 651.223,915.537 C662.668,915.157 674.117,914.882 685.566,914.711 C700.489,914.491 711.691,918.062 719.04,925.224 C726.396,932.391 729.969,940.701 729.886,950.081 C729.789,960.798 725.821,969.465 718.11,976.148 C710.389,982.837 700.484,986.21 688.264,986.38 C676.707,986.542 665.152,986.815 653.599,987.199 Z" id="Fill-100" fill="#FFFFFE"></path>
            <path d="M679.507,970.028 C681.801,969.985 684.096,969.947 686.39,969.913 C690.767,969.847 694.437,968.041 697.426,964.475 C700.411,960.913 701.901,956.089 701.863,949.996 C701.829,944.779 700.447,940.286 697.693,936.527 C694.936,932.769 690.969,930.917 685.809,930.993 C683.466,931.028 681.122,931.067 678.78,931.111 C679.022,944.084 679.265,957.055 679.507,970.028 Z M653.599,987.199 C652.807,963.311 652.015,939.424 651.223,915.537 C662.668,915.157 674.117,914.882 685.566,914.711 C700.489,914.491 711.691,918.062 719.04,925.224 C726.396,932.391 729.969,940.701 729.886,950.081 C729.789,960.798 725.821,969.465 718.11,976.148 C710.389,982.837 700.484,986.21 688.264,986.38 C676.707,986.542 665.152,986.815 653.599,987.199 Z" id="Stroke-101" stroke="#8B8E8D"></path>
            <path d="M801.36,970.702 C801.079,976.56 800.799,982.419 800.518,988.278 C780.571,987.323 760.611,986.698 740.647,986.401 C741.001,962.503 741.356,938.606 741.71,914.709 C750.796,914.843 759.881,915.043 768.965,915.309 C768.437,933.336 767.91,951.364 767.381,969.39 C778.71,969.722 790.036,970.159 801.36,970.702" id="Fill-102" fill="#FFFFFE"></path>
            <path d="M801.36,970.702 C801.079,976.56 800.799,982.419 800.518,988.278 C780.571,987.323 760.611,986.698 740.647,986.401 C741.001,962.503 741.356,938.606 741.71,914.709 C750.796,914.843 759.881,915.043 768.965,915.309 C768.437,933.336 767.91,951.364 767.381,969.39 C778.71,969.722 790.036,970.159 801.36,970.702 Z" id="Stroke-103" stroke="#8B8E8D"></path>
            <path d="M875.311,976.217 C874.807,981.903 874.304,987.588 873.8,993.274 C852.438,991.383 831.05,989.871 809.647,988.738 C810.911,964.871 812.173,941.004 813.436,917.137 C835.685,918.315 857.917,919.886 880.124,921.853 C879.638,927.347 879.151,932.84 878.664,938.334 C865.462,937.166 852.25,936.137 839.031,935.25 C838.798,938.709 838.566,942.167 838.333,945.626 C848.961,946.34 859.584,947.145 870.202,948.042 C869.755,953.329 869.309,958.615 868.862,963.902 C858.336,963.013 847.804,962.214 837.267,961.507 C837.005,965.403 836.745,969.298 836.483,973.195 C849.433,974.064 862.376,975.072 875.311,976.217" id="Fill-104" fill="#FFFFFE"></path>
            <path d="M875.311,976.217 C874.807,981.903 874.304,987.588 873.8,993.274 C852.438,991.383 831.05,989.871 809.647,988.738 C810.911,964.871 812.173,941.004 813.436,917.137 C835.685,918.315 857.917,919.886 880.124,921.853 C879.638,927.347 879.151,932.84 878.664,938.334 C865.462,937.166 852.25,936.137 839.031,935.25 C838.798,938.709 838.566,942.167 838.333,945.626 C848.961,946.34 859.584,947.145 870.202,948.042 C869.755,953.329 869.309,958.615 868.862,963.902 C858.336,963.013 847.804,962.214 837.267,961.507 C837.005,965.403 836.745,969.298 836.483,973.195 C849.433,974.064 862.376,975.072 875.311,976.217 Z" id="Stroke-105" stroke="#8B8E8D"></path>
            <path d="M964.257,931.209 C953.223,943.633 942.385,956.154 931.742,968.764 C930.546,978.814 929.35,988.864 928.155,998.914 C919.708,997.908 911.257,996.963 902.801,996.077 C903.856,986.011 904.91,975.947 905.964,965.881 C897.699,951.16 889.209,936.493 880.497,921.885 C890.411,922.765 900.32,923.724 910.222,924.761 C914.569,933.137 918.849,941.529 923.063,949.933 C928.836,942.658 934.671,935.409 940.565,928.187 C948.467,929.144 956.365,930.152 964.257,931.209" id="Fill-106" fill="#FFFFFE"></path>
            <path d="M964.257,931.209 C953.223,943.633 942.385,956.154 931.742,968.764 C930.546,978.814 929.35,988.864 928.155,998.914 C919.708,997.908 911.257,996.963 902.801,996.077 C903.856,986.011 904.91,975.947 905.964,965.881 C897.699,951.16 889.209,936.493 880.497,921.885 C890.411,922.765 900.32,923.724 910.222,924.761 C914.569,933.137 918.849,941.529 923.063,949.933 C928.836,942.658 934.671,935.409 940.565,928.187 C948.467,929.144 956.365,930.152 964.257,931.209 Z" id="Stroke-107" stroke="#8B8E8D"></path>
            <path d="M951.941,980.975 C960.256,980.828 968.581,980.737 976.918,980.704 C978.148,986.722 982.987,990.335 991.455,991.633 C998.043,992.647 1001.57,991.727 1002.03,988.82 C1002.27,987.3 1001.7,985.995 1000.31,984.904 C998.909,983.816 996.29,982.632 992.451,981.374 C977.751,976.69 968.472,972.25 964.694,967.8 C960.913,963.36 959.348,958.542 960.041,953.334 C960.933,946.635 964.8,941.469 971.707,937.9 C978.608,934.33 988.016,933.395 999.852,935.208 C1017.8,937.967 1028.68,945.806 1032.37,958.341 C1024.68,958.877 1017,959.461 1009.35,960.093 C1007.82,954.991 1003.52,951.871 996.48,950.793 C990.63,949.901 987.491,950.951 987.057,953.891 C986.862,955.21 987.37,956.327 988.58,957.25 C989.786,958.174 992.236,959.247 995.911,960.481 C1006.04,963.872 1013.14,966.667 1017.27,968.763 C1021.39,970.861 1024.62,973.831 1026.95,977.663 C1029.28,981.494 1030.04,985.676 1029.25,990.198 C1028,997.344 1023.49,1002.52 1015.79,1005.79 C1008.08,1009.05 998.631,1009.78 987.347,1008.06 C966.737,1004.93 954.976,996.079 951.941,980.975" id="Fill-108" fill="#FFFFFE"></path>
            <path d="M951.941,980.975 C960.256,980.828 968.581,980.737 976.918,980.704 C978.148,986.722 982.987,990.335 991.455,991.633 C998.043,992.647 1001.57,991.727 1002.03,988.82 C1002.27,987.3 1001.7,985.995 1000.31,984.904 C998.909,983.816 996.29,982.632 992.451,981.374 C977.751,976.69 968.472,972.25 964.694,967.8 C960.913,963.36 959.348,958.542 960.041,953.334 C960.933,946.635 964.8,941.469 971.707,937.9 C978.608,934.33 988.016,933.395 999.852,935.208 C1017.8,937.967 1028.68,945.806 1032.37,958.341 C1024.68,958.877 1017,959.461 1009.35,960.093 C1007.82,954.991 1003.52,951.871 996.48,950.793 C990.63,949.901 987.491,950.951 987.057,953.891 C986.862,955.21 987.37,956.327 988.58,957.25 C989.786,958.174 992.236,959.247 995.911,960.481 C1006.04,963.872 1013.14,966.667 1017.27,968.763 C1021.39,970.861 1024.62,973.831 1026.95,977.663 C1029.28,981.494 1030.04,985.676 1029.25,990.198 C1028,997.344 1023.49,1002.52 1015.79,1005.79 C1008.08,1009.05 998.631,1009.78 987.347,1008.06 C966.737,1004.93 954.976,996.079 951.941,980.975 Z" id="Stroke-109" stroke="#8B8E8D"></path>
        </g>
    </g>
</svg>