<?xml version="1.0" encoding="utf-8"?>
<!-- Generator: Adobe Illustrator 22.0.0, SVG Export Plug-In . SVG Version: 6.00 Build 0)  -->
<svg version="1.1" id="Layer_1" xmlns="http://www.w3.org/2000/svg" xmlns:xlink="http://www.w3.org/1999/xlink" x="0px" y="0px"
	 viewBox="0 0 818.1 630.5" style="enable-background:new 0 0 818.1 630.5;" xml:space="preserve">
<style type="text/css">
	.st0{fill:#010101;}
	.st1{fill:#C8942C;}
	.st2{fill:#FCC32F;}
	.st3{fill:#FEFEFE;}
	.st4{fill:#F9F8F5;}
	.st5{fill:#ED1C24;}
	.st6{fill:#FFFFFF;}
</style>
<g>
	<g>
		<g>
			<path class="st0" d="M453.6,601.6c-2.7,0-5.3,0-8,0l-2.8,0c-11.2-0.1-23.3-0.7-37.1-2.1c-25.8-2.5-50.7-6.3-74.2-11.5
				c-1.3-0.3-2.6-0.6-3.9-0.8c-1.5-0.3-3-0.6-4.5-1c-2.7,6.4-7.5,7.7-11.1,7.7c-1,0-2.1-0.1-3.3-0.3c-27.9-5.2-55.1-11.9-80.8-19.9
				c-42.8-13.3-79.3-28.8-111.5-47.4c-25.1-14.5-44.1-29.1-59.9-45.9c-18-19.1-29.2-38.9-34.2-60.4c-4.6-19.6-3.4-40,3.5-60.7
				c6-18,15.9-35.8,30.4-54.4c8.2-10.6,17.7-21,29.1-32.1c0.6-7.2,1.2-14.5,1.8-21.5c0.3-3.4,0.6-6.8,0.9-10.1
				c0.2-2.3,0.3-3.9,0.5-5.3c0.1-1.5,0.3-2.8,0.4-4.4l-0.1,0.1l0.9-11l-1-3.2l1.3-0.9l2.2-28.7l2.2-1.6
				c77.4-58.4,184.9-102.2,319.7-130.2c133.1-27.6,249-30.6,292.7-30.6c32.1,0,69.9,1.6,79.3,6.3l0.5,0.2l0.4,0.3
				c11,7.9,8.3,23.8,5,32l-0.1,0.4l-13.5,23.8c-0.2,0.5-0.5,0.9-0.7,1.4l-9.9,16l-20.9,33.9l5.8,0c4.5,0,9,0,13.4,0l0.1,0
				c6.4,0,9.6,3.3,11.2,6.1c1.6,2.9,2.7,7.5-1.3,13.1c-21.2,29.8-42.5,59.7-63.7,89.5c-11.8,16.5-23.5,33.1-35.3,49.6l-24.8,34.9
				c-6.4,9-13,18.4-19.6,27.5c3.1,6.1,4.1,12.9,3,20.3c10.5,2.3,19.1,6.4,26,12.3c9.6,8.2,15.3,18.7,17,31.3
				c2.6,19-1.9,37.2-13.9,55.8c-13.8,21.4-32.9,35.3-56.7,41.2c-5.6,1.4-11.2,2.2-16.6,2.4c-0.1,0-0.3,0.1-0.7,0.4
				c-3.5,2-6.9,4-10.4,6c-8.2,4.7-16.7,9.5-24.9,14.6c-4.2,2.6-8.7,3.9-14.1,3.9c-1.4,0-2.9-0.1-4.6-0.2c-4.4-0.4-8.8-0.6-13.2-0.6
				c-4.3,0-8.6,0.2-12.9,0.6c-9.1,0.8-16.3,2.4-22.7,5c-2.6,1.1-5.1,2.4-7.2,4.1c-4.8,3.6-5.8,8-3.2,13.4c1.5,3.2,3.8,6.1,6.8,8.9
				c5.2,4.8,5.1,9.6,4.1,12.8c-0.9,2.8-3.5,7.6-11.1,8.3C469.1,601.5,460.7,601.6,453.6,601.6z M389.8,565.3
				c6.2,0.9,12.5,1.6,18.6,2.3l2.4,0.3c5.4,0.6,11,1.3,16.4,1.6c1.4,0.1,2.8,0.2,4.2,0.3c2.9,0.2,5.6,0.4,8.4,0.4c0.3,0,0.7,0,1,0
				c0-5.6,0-11.2,0-16.6c0-0.5,0-1.1,0-1.6c-14.8,7.5-31.1,12-48.5,13.3C391.5,565.2,390.6,565.2,389.8,565.3z M263.6,532
				c1.6,0,2.8,0.6,3.2,0.8c23.4,11,48.7,17.8,71.2,23c-6.8-3.3-12.9-7.4-18.4-12.4c-15.4-14.1-23.4-32.6-24.4-56.5
				c-0.3-7.9,0.2-16,1.6-24.8c1.2-7.3,2.5-13.5,4.3-19.5l4.3-14.6l11.2,22.5l0.1,1l0,0.3c0.1,0.4,0.1,0.9,0.2,1.5
				c1.1,19.4,5.7,37.6,13.6,54.3c5.1,10.8,11.2,19.1,18.7,25.3c8.5,7.1,19.2,8.5,29.4,8.9c1.1,0,2.3,0.1,3.4,0.1
				c11.5,0,23.4-2.4,37.4-7.6c5.4-2,10.8-4.2,16.1-6.4c7.8-3.2,15.9-6.5,24.1-9.2c10.1-3.3,20.1-5.3,30.1-6.2
				c-4.6-0.8-9.3-1.1-13.9-1.1c-9.2,0-18.7,1.5-28.2,4.3c-8.4,2.5-16.8,5.9-24.9,9.2c-3.4,1.3-6.8,2.7-10.3,4.1
				c-8.1,3.1-16.2,6-25.3,6.2c-0.3,0-0.6,0-0.9,0c-15.4,0-25.3-8.8-27.2-24.3c-0.9-7.4-0.5-14.9,1.2-22.9
				c3.9-18.2,11.2-32.2,22.2-43c8-7.8,17-11.8,26.8-11.8c3.8,0,7.7,0.6,11.6,1.8l3.6,1.1c5.6,1.7,11.5,3.4,17.2,5.5
				c21.9,8,39.3,18.2,53.4,31.2c4,3.7,7.7,7.7,11.3,11.5c2.3,2.5,4.7,5,7,7.4c6.1,6.2,12.3,9.1,19.3,9.4c1.5,0.1,3,0.1,4.6,0.1
				c6,0,12.3-0.4,19.4-1.2c7-0.8,12.8-3,17.8-6.9c3.9-3,8.3-4.4,11.6-5.2c7.7-1.9,15.5-2.4,22.9-2.5c0.7,0,1.1-0.2,1.4-0.4
				c8.6-5.1,15.1-12.3,19.9-22.4c-0.8,0.1-1.6,0.2-2.5,0.3c-4,0.5-8.2,1.1-12.3,1.6c-0.8,1.5-1.7,3-2.5,4.3c-0.7,1.2-1.4,2.3-2,3.5
				c-1.2,2.2-3.6,4.8-8.3,4.8h-0.1c-3.9,0-7.9,0-11.8,0l-10.6,0c-0.2,1.2-0.7,2.8-2,4.1c-1.4,1.5-3.4,2.2-5.8,2.2l-0.2,0
				c-3.1,0-6.3-0.1-10-0.1c-3.6,0-7.3,0-10.9,0H551c-2.4,0-4.7-0.6-7-1.7c-9.2-4.6-15.9-17-14.9-27.5c0.9-9.2,5.3-16.9,13.5-23.4
				c10.5-8.3,22.7-12,33.3-14.8c0.8-0.2,1.6-0.3,2.3-0.3c1.6,0,3.9,0.4,6.1,2.5l8.4,7.6l-10.9,2.7c-5.6,1.4-11.6,3.1-17.1,6
				c-5.4,2.8-9.1,5.9-11.6,9.5c1.2-1.1,2.6-2.2,4-3.1c6.9-4.7,14.7-8.2,23.9-10.7c4.6-1.2,9.2-2,13.1-2.6c0.7-0.1,1.3-0.2,1.9-0.2
				c2.8,0,4.6,1.3,5.6,2.3c1.5,1.6,2.1,3.8,1.9,6.4c0,0.4-0.1,0.9-0.1,1.4c1.4-2.9,2.5-5.8,3.3-8.5c1.1-4.2,4.2-6.6,8.6-6.7l1.1,0
				c1,0,1.9,0,2.9,0c1.8,0,4.3,0.1,6.9,0.6c7.7,1.4,11.5,5.6,13.3,9.8c2.1-3.2,1.6-5.4,0.8-7.2c-1.1-2.5-3.2-4.6-6.1-6.2
				c-5.3-2.9-9.7-4.7-13.9-5.9c-8.4-2.3-17-3.9-25.5-4.8c-0.6-0.1-1.2-0.1-1.8-0.2c-2.5-0.2-5.4-0.5-8.4-1.5l-5.2-1.8l1.4-5.3
				c0.6-2.3,2-3.7,2.7-4.4l0.2-0.2c1-1,2-2,3-3c2.2-2.2,4.3-4.2,5.8-6.5c1.8-2.9,3-5.1,2.9-7.3c0-2.1-1.1-4.3-3.3-6.7
				c-3.3-3.6-7.4-6.4-11.8-9.4c-1.4-1-2.8-1.9-4.2-2.9c-7.4-5.3-13.6-10.7-19-16.4c-2.2-2.3-4.6-5.5-4.3-9.6c0.4-4.1,3.4-6.9,6-8.9
				c1.1-0.8,1.7-1.6,1.9-2.4c1.3-5-0.4-10-4.6-13.8c-6-5.3-13.5-8.1-22.2-8.3c-0.3,0-0.6,0-0.8,0c-2.6,0-5.4,0.3-8.3,0.9
				c-7.8,1.5-12.4,4.1-15.5,8.6c-2,3-4.7,3.4-6.2,3.4c-1.6,0-2.9-0.5-4-1.1c-16.7-8.2-35.2-14.4-56.8-18.9c-5.2-1.1-10.7-2-16.9-2.9
				l-2.2-0.3c-3.7-0.5-7.4-1.1-11.1-1.5c-3.9-0.4-7.9-0.7-11.9-0.9l-1.1-0.1c-1.7-0.1-3.4-0.2-5.1-0.3c-4.8-0.3-9.9-0.7-14.7-0.8
				c-2,0-4.1,0-6.1,0c-13.3,0-26.4,0.7-39.2,2.1c-9.5,1-17.5,2-25.3,3.5c-12.9,2.5-24.4,5.2-35.3,8.4c-12.9,3.7-25.7,8.5-38.1,14.1
				c-0.2,0.1-0.4,0.2-0.7,0.3l34.1,7.9l-21.2,6.6c-5.1,1.6-9.8,3.7-14.4,6.6c-0.5,0.3-1,0.6-1.5,0.9c-2.6,1.7-5.9,3.9-10.4,4.1
				c-1.9,0.1-3.9,0.7-5.5,1.1c-24.3,7.8-45.8,21.5-63.9,40.6c-0.2,0.2-0.4,0.4-0.6,0.7c8.1-1.3,16-2.6,24-3.9
				c0.6-0.1,1.2-0.2,1.9-0.2c2.9,0,4.5,1.5,5.2,2.5c2,2.6,1.4,5.5,1.1,6.5c-0.8,3.4-1.5,7-2.2,10.5c-0.3,1.4-0.6,2.8-0.9,4.2
				l-0.2,1.1l40.6-3.6l-9.3,11.1c-0.2,0.3-0.4,0.5-0.5,0.6c-0.3,0.4-0.7,0.8-1.2,1.3l-5.9,5.1c-2.9,2.5-5.8,5-8.7,7.5
				c-1.7,1.4-3.7,2.2-6.1,2.2h-0.1c-4.5-0.1-8.5-0.4-12.2-0.9c-10.7-1.7-21.6-5.1-33.1-10.4c-14.1-6.5-26-13.9-36.3-22.7
				c5.2,12.2,12.3,23.4,19.4,33.8c1,1.5,2,3,3.1,4.5c0.7,1,1.4,1.9,2.1,2.9l13.3,18.5l-19.5-8.1c-9.1-3.8-17.3-8.8-24.4-15
				c-22.4-19.5-32.2-43.9-29-72.5c0.2-2.1,0.5-4.1,0.9-6.2c-3.6,9.2-5.7,18.1-6.1,26.9c-0.6,11.6,1.8,23.1,7.3,34.1
				c6.9,13.8,17.5,26.1,33.3,38.6c1.6,1.3,3.2,2.5,4.8,3.7l2.3,1.8l19.4,14.8l-24-4.2c-6.7-1.2-13.2-3.6-19.9-7.5
				c8.6,8.8,18.9,17.2,31.4,25.6c42.4,28.5,89.5,49.1,140,61.5l-6.8-9.5l4.4-3.6C260.8,532.3,262.5,532,263.6,532z M394.1,477.3
				c-3.4,3.3-5.7,7.4-7.1,12.5c-1.4,5.2-1.1,9.5,0.9,13.3c1.6-1.4,3-3.2,4.5-5.4c0.2-0.3,0.5-1,0.7-1.5c0.9-2.1,2.3-5.6,6.2-7.1
				c1.4-0.6,3-0.8,4.8-0.8c1.3,0,2.6,0.2,3.7,0.3c0.7,0.1,1.3,0.2,1.9,0.2c0.2,0,0.4,0,0.7,0c3,0,6.8,1.8,7.5,6.9
				c0.2,1.3,0.6,2.4,1.4,3.6c0.8-0.7,1.5-1.7,2-2.8c2.5-7.1,7.7-8.1,10.6-8.1c0.8,0,1.5,0.1,2.4,0.2c0.2,0,0.6,0,0.9-0.1
				c0.6-0.1,1.3-0.1,2.1-0.1c3.2,0,5.1,1.4,6.2,2.5c1.4,1.5,1.9,3.2,2.1,4.8c4-0.4,7.9-0.8,11.8-1.2c1.6-0.2,3.2-0.3,4.8-0.5
				c-10.6-6-23-9-37.6-9.2l0,0c-0.2,0-0.7,0.1-1.1,0.1c-0.7,0.1-1.6,0.2-2.5,0.2c-2.2,0-4-0.6-5.5-1.9c-1.9-1.7-2.6-3.8-2.7-5.7
				c-2.5,0-4.9,0-7.4,0C401.5,477.4,397.8,477.4,394.1,477.3z M436,470.4c2,0,4,0,6,0c3.8,0,6.9,0,9.8-0.1c0.4,0,0.7,0,1.1,0
				c0.7,0,1.5,0,2.3,0.1c-12.1-7.1-26.1-12.4-42.4-16c-0.5-0.1-0.8-0.1-1-0.1c-0.2,0-0.5,0-1.2,0.9c-1.3,1.6-2.7,3.2-4,4.8
				c6-0.3,12.2-0.7,18.8-1.1c0.2,0,0.4,0,0.6,0c2.2,0,5.2,0.7,7.5,4.2C434.7,464.6,435.9,467.2,436,470.4z M122.3,245.9
				c1.3,0,3.6,0.3,5.4,2.3c2.2,2.4,1.9,5.3,1.8,6.3c-0.7,7.1-1.3,14.4-1.9,21.4c-0.2,2.9-0.5,5.7-0.8,8.6c-0.8,9-4.1,45.9-4.1,45.9
				l-1.1,12.1l10.1-3.2c19-5.9,38.7-12,58.1-18c1.8-19.2,3.6-36.8,5.4-53.9c-2.3-1.5-3.1-3.5-3.3-5c-0.5-3.9,2.4-6.3,3.4-7.1
				c0.2-0.2,0.4-0.4,0.7-0.5c0.4-0.3,0.8-0.7,1.1-0.9c1.1-9.2,2.3-18.2,3.7-28.4l-78.4,10.8c0,2.2,0,4.3,0,6.3
				C122.4,243.8,122.3,244.8,122.3,245.9z M587.3,326.5c1,0.1,1.9,0.1,2.9,0.2c1.9,0.1,3.6,0.3,5.4,0.3c2.7,0,4.7-0.4,6.5-1.2
				c3.8-1.7,7.8-2.9,11.5-3.9c0.5-0.1,0.8-0.3,1.4-1.1c12.3-17.4,24.7-34.9,37-52.3l18.3-25.9c-18.7-1.3-37.4-2.6-56.1-3.9
				c-1.2-0.1-4.5-0.3-6.2-3.5c-0.8-1.5-1.4-3.9,0.4-7c5.8-10.1,11.5-20.3,16.9-29.8c2-3.5,4.8-4.2,6.8-4.2c0.3,0,0.6,0,0.9,0
				c4.9,0.5,9.9,1,14.9,1.5l12.6,1.3l-9.5,24.5c1.7,0.1,3.3,0.2,5,0.4c9.7,0.7,19.8,1.5,29.7,2.3c5.2-7.9,25.4-38.8,30.4-46.3
				l-7.1-0.3c-13.2-0.5-26.4-1.1-39.6-1.6c-9.6-0.4-19.1-0.7-28.7-1.1c-9.7-0.4-19.5-0.8-29.2-1.1c-4.7,3.5-9.4,7-13.4,9.9
				c-0.3,0.2-0.6,0.5-1.1,1.3c-8.9,15-17.9,30-26.9,45.1l-11.3,19c-0.4,0.7-0.9,1.4-1.3,2.2l1.3,0.2c14.9,1.8,30.3,3.7,45.4,5.5
				c1.2,0.1,4.9,0.6,6.5,4.2c1.6,3.6-0.6,6.6-1.3,7.6c-7.6,10.5-14.9,20.8-21.7,30.4c-0.7,1-2,2.9-4.2,4.3
				c1.7,4.9,2.9,10.1,3.5,15.6l0,0.3l0,0.3c0,0.8,0,1.7,0.1,2.5C587.2,323.4,587.3,325,587.3,326.5z M227.7,227.3
				c1.3,0.3,2.8,0.9,4,2.4c2.2,2.6,1.6,5.7,1.4,6.7c-1.9,10.7-3.8,21.6-5.7,32.1l-4.2,24.2l13.2-6.1l0.2-0.1
				c0.3-0.1,0.6-0.2,0.9-0.3c0.1,0,0.3-0.1,0.4-0.2c1.6-7.6,3.5-15.1,5.4-22.4l0.4-1.7c0.3-4.9,3.7-7,6.6-7.2c0.2,0,0.6-0.1,1-0.2
				c0.9-0.2,2-0.4,3.3-0.4c1.3,0,2.6,0.2,3.8,0.7l4.9,1.8l-4.6,21.8l18.5-5.5c0.2-0.1,0.5-0.1,0.7-0.2c1.2-6.7,2.4-13.4,3.5-20
				c0.4-2.3,0.8-4.5,1.2-6.8c-0.4-0.7-0.7-1.5-0.8-2.1c-0.7-3.4,1.4-5.6,2.1-6.4l0.1-0.1c0.6-0.8,1.2-1.5,1.6-2.2
				c4-6.2,6.5-13.6,7.8-22.4l-64.4,8.9C228.6,222.8,227.9,226.6,227.7,227.3z M555.9,277c4.4,1.6,8.4,3.7,12.1,6.2
				c0.6-1.4,1.2-2.9,1.8-4.5C565.4,278.1,560.8,277.6,555.9,277z M476.3,269.5c7.4,2.2,15.2,4.7,23.9,7.6l70.1-102.6l-32.2,4.4
				c-4.3,6.8-8.7,13.7-12.9,20.4l-2.7,4.3c-1.8,3.8-5.1,4.3-6.4,4.3l-6.5,0.1l0.4-6.5l0.1-0.8c0-0.7,0.1-1.3,0.1-2l0.4-4.1
				c0.3-4,0.7-7.9,1-11.9l-33.6,4.6c-11,18.9-22,37.7-33,56.6l-7.5,12.9c-0.9,1.6-1.8,3.1-2.7,4.7c0.8,0.1,1.6,0.2,2.4,0.4
				c4.3,0.6,8.6,1.3,12.8,1.9l4.6,0.7c3.1-5.5,6.2-11,9.3-16.5l7-12.3l9,6l-1.4,11.1C477.7,258.3,477,263.9,476.3,269.5z
				 M322.6,208.8c-6.1,17.9-12.1,35.8-18.2,53.6l-1.6,4.8c6.9-1.4,14-2.7,21.3-3.8l19-57.5L322.6,208.8z M364.2,213.8
				c-5.9,15.3-11.8,30.6-17.7,45.9l0,0.1c-0.1,0.3-0.2,0.6-0.4,0.9c6.5-0.7,13.1-1.2,19.9-1.6l21.2-59.2l-18.6,2.6L364.2,213.8z
				 M413.6,259.2L413.6,259.2l32-67.4l-26.2,3.6c-6.7,13.2-13.5,26.4-20.3,39.5c0,0-9.6,18.8-12.1,23.6L413.6,259.2z"/>
			<path class="st1" d="M706.8,31.4c42.3,0,70.4,2.6,76.7,5.6c10.1,7.3,2.9,24.9,2.9,24.9L773,85.6c-0.1,0.3-0.3,0.6-0.5,1
				c-3.2,5.1-6.3,10.2-9.5,15.3l-0.4,0.7l-26.5,43c5.6,0,11.1,0,16.5,0c4.5,0,9,0,13.4,0c0,0,0.1,0,0.1,0c2.6,0,4.7,0.7,6,3.1
				c1.4,2.5,0.6,4.6-0.9,6.7c-21.2,29.8-42.5,59.7-63.7,89.5c-18.6,26.1-37.1,52.2-55.7,78.4c-8.3,11.7-16.6,23.4-24.9,35
				c-0.9,1.3-1,2.2-0.2,3.7c3.5,6.1,4.1,12.7,2.8,19.6c-0.7,3.8-0.8,3.9,3.1,4.7c9.3,1.8,17.9,5.1,25.2,11.4
				c8.5,7.3,13.5,16.5,15,27.5c2.6,18.9-2.8,36-13,51.7c-12.7,19.7-30.2,32.9-53.1,38.7c-5.1,1.3-10.2,2-15.5,2.2
				c-1.3,0-2.3,0.6-3.4,1.2c-11.8,6.9-23.8,13.4-35.4,20.7c-3.6,2.3-7.1,3-10.9,3c-1.3,0-2.6-0.1-4-0.2c-4.6-0.4-9.2-0.7-13.8-0.7
				c-4.5,0-9,0.2-13.4,0.6c-8.4,0.8-16.5,2.3-24.4,5.4c-3.1,1.2-5.9,2.8-8.6,4.9c-7,5.4-8.8,12.8-5,20.8c2,4.1,4.8,7.6,8.1,10.7
				c2,1.8,3.3,3.9,2.4,6.6c-0.9,2.8-3,3.9-5.9,4.1c-7.8,0.7-15.7,0.9-23.5,0.9c-3.6,0-7.2,0-10.8,0c-12.2-0.1-24.4-0.9-36.6-2
				c-24.7-2.4-49.2-6-73.5-11.4c-4-0.9-8-1.7-12-2.6c-0.3-0.1-0.6-0.1-0.8-0.1c-0.7,0-1,0.3-1.2,1.3c-0.2,0.9-0.6,1.7-0.9,2.5
				c-1.2,3.3-2.9,4.8-5.8,4.8c-0.7,0-1.4-0.1-2.2-0.2c-27.1-5.1-53.8-11.6-80.1-19.7c-38.3-11.9-75.4-26.7-110.3-46.9
				c-21.4-12.4-41.5-26.7-58.5-44.8c-15.6-16.5-27.5-35.2-32.7-57.7c-4.5-19.5-2.9-38.6,3.3-57.4c6.5-19.4,17-36.6,29.5-52.6
				c8.8-11.3,18.5-21.7,28.7-31.6c1.1-1,1.5-2.1,1.6-3.6c0.9-10.6,1.8-21.1,2.7-31.7c0.5-6.2,0.7-7.3,1.2-13.5
				c0.1-1.7,0.5-8.3,0.5-8.3c0,0,0,0,0,0s0,0,0,0L98,191c0,0,0,0,0,0c0,0,0,0,0,0c0,0,0,0,0,0c0,0,0,0,0,0c0,0,0,0,0,0c0,0,0,0,0,0
				c0,0,0,0,0,0c0,0,0,0,0,0c0,0,0,0,0,0c0,0,0,0,0,0c0,0,0,0,0,0c0,0,0,0,0,0c0,0,0,0,0,0s0,0,0,0c0,0,0,0,0,0c0,0,0,0,0,0
				c0,0,0,0,0,0c0,0,0,0,0,0c0,0,0,0,0,0c0,0,0,0,0,0c0,0,0,0,0,0c0,0,0,0,0,0c0,0,0,0,0,0c0,0,0,0,0,0c0,0,0,0,0,0c0,0,0,0,0,0
				C272.2,59.6,567,31.4,706.8,31.4 M577.6,299.2c-1.5,0-2.7-1-4-2c1.1,1.9,2.2,3.8,3.4,5.7c2.1,5.4,3.4,10.9,4.1,16.6
				c0.1,2.8,0.2,5.6,0.2,8.4c-0.1,4.2-0.2,4.3,3.9,4.4c3.4,0.1,6.9,0.6,10.3,0.6c3,0,6-0.4,9-1.7c3.4-1.5,7.1-2.6,10.7-3.7
				c2.1-0.6,3.4-1.7,4.7-3.5c15.6-22.2,31.3-44.3,47-66.4c4.7-6.7,9.5-13.4,14.2-20.1c-1-0.6-2-0.5-2.9-0.5
				c-21.2-1.5-42.4-3-63.6-4.4c-1.2-0.1-1.8-0.1-1-1.6c5.7-9.9,11.3-19.9,16.9-29.8c0.4-0.7,0.8-1.2,1.6-1.2c0.1,0,0.2,0,0.3,0
				c6.5,0.7,13,1.3,19.7,2c-3.2,8.3-6.4,16.4-9.5,24.5c0.7,0.1,1.2,0.2,1.6,0.3c14.2,1.1,28.4,2.1,42.6,3.2c0.1,0,0.3,0,0.4,0
				c1.7,0,2.3-1,3.1-2.2c11.8-18,23.7-36,35.5-54.1c0.3-0.5,1-0.9,0.5-1.7c-18.9-0.8-37.8-1.5-56.7-2.3c-19.5-0.8-38.9-1.5-58.4-2.3
				c-0.1,0-0.2,0-0.3,0c-0.8,0-1.6,0.1-2.3,0.7c-4.6,3.5-9.3,6.9-14,10.4c-1.1,0.8-2,1.8-2.7,3c-12.7,21.4-25.5,42.7-38.2,64
				c-1.9,3.3-3.9,6.5-5.9,9.9c1.3,0.2,2.2,0.4,3.2,0.5c17.5,2.1,35,4.3,52.5,6.4c2,0.2,2.2,0.6,1,2.3c-7.3,10.1-14.5,20.3-21.7,30.5
				c-1.1,1.6-2.3,2.9-4.2,3.5C578.3,299.1,578,299.2,577.6,299.2 M516,201.9c0.1-0.9,0.1-1.8,0.2-2.7c0.7-7.9,1.4-15.7,2.1-23.6
				l-44,6.1c-14,24-28,48-42,72c-2.4,4.1-4.8,8.3-7.3,12.6c1.9,0.2,3.4,0.3,4.9,0.4c2.1,0.3,4.3,0.6,6.4,0.9
				c5.9,0.9,11.8,1.8,17.7,2.7c1.3,0.4,2.1,0.7,2.8,0.7c1,0,1.4-0.7,2.5-2.7c4.6-8.1,9.1-16.2,13.7-24.3c0.2,0.1,0.3,0.2,0.5,0.3
				c-1.1,8.6-2.2,17.3-3.3,25.9c-0.5,3.8-0.4,3.8,3.4,4.5c8.5,2.5,17,5.2,25.4,8.1c1.4,0.7,2.3,1.1,2.9,1.1c0.9,0,1.4-0.7,2.6-2.5
				c24.1-35.2,48.1-70.4,72.2-105.6c1.7-2.5,3.4-5.1,5.3-8c-2.8,0-5.6,0-8.3,0l-39,5.4c-5.7,9.1-11.5,18.2-17.3,27.3
				C516.9,201.2,516.9,201.9,516,201.9 M379.6,264.6c0.7,0,1.4-0.1,2.2-0.2c10.4,0.3,20.8,0.5,31.3,0.8c1.3,0.2,2.2,0.4,2.9,0.4
				c1.4,0,1.7-0.7,2.8-3c12.4-26.1,24.8-52.2,37.1-78.3l-40.3,5.6c-8.8,17.1-17.6,34.3-26.4,51.4c-4,7.7-7.9,15.4-11.9,23.2
				C378.1,264.6,378.8,264.6,379.6,264.6 M396.1,192.5l-31.9,4.4c-0.2,0.5-0.4,0.9-0.5,1.4c-7.6,19.7-15.2,39.4-22.8,59.2
				c-0.3,0.8-0.4,1.7-1.6,1.7c0,0-0.1,0-0.1,0c-1,0-2,0-3,0c-1.4,0-2.9,0-4.5,0c6.7-20.3,13.4-40.3,20-60.5l-33.7,4.7
				c-7.9,23.2-15.8,46.4-23.6,69.7c-0.2,0.6-0.7,1.3-0.2,2.1c1.3-0.3,2.7-0.6,4-0.9c0.2,0,0.3,0,0.5,0c0.1,0,0.2,0,0.2,0
				c22.2-4.9,44.8-7.7,67.5-9.2c0.4,0,0.7,0,1,0c2.9,0,3-0.3,4.2-3.6c7.8-21.8,15.6-43.6,23.4-65.4
				C395.3,194.9,395.7,193.7,396.1,192.5 M223.8,233.1c0.4,0,0.9,0,1.5,0c0.1,0,0.2,0,0.3,0c1.6,0,2.1,0.4,1.7,2.2
				c-2.6,14.1-5,28.2-7.5,42.3c-1.5,8.5-3,17.1-4.6,26.1c1.7-1.1,3.1-1.9,4.4-2.7c6.4-2.9,12.8-5.9,19.1-8.8
				c2.1-0.8,4.3-1.2,4.9-4.3c1.7-8.3,3.9-16.6,6-24.8c0.2-0.8-0.2-2.2,1.2-2.3c1.2-0.1,2.5-0.5,3.8-0.5c0.6,0,1.1,0.1,1.7,0.3
				c-1.9,8.9-3.8,17.8-5.7,26.9c1.5-0.4,3.1-0.7,4.4-1.6c8-2.4,15.9-4.7,23.9-7.1c1.5-0.6,3.8,0.2,4.2-2c1.9-10.6,3.7-21.2,5.6-31.8
				c0.1-0.5,0.3-1.1-0.2-1.3c-1.9-0.9-0.6-1.6,0-2.4c0.7-0.9,1.4-1.8,2-2.7c5.5-8.6,8.1-18.2,9.1-28.2c0.2-1.5,0.3-2.9,0.3-4.4
				l-76.2,10.5c-0.7,4-1.6,7.9-2.4,11.9C220.6,232.5,220.5,233.1,223.8,233.1 M120.3,251.9c0.4,0,0.8,0,1.3,0c0.1,0,0.1,0,0.2,0
				c1.5,0,2,0.3,1.8,2.1c-1,10-1.8,20-2.7,30.1c-1.4,15.3-2.7,30.6-4.1,45.9c-0.6,6.9-1.2,13.8-1.9,21c0.8-0.2,1.3-0.4,1.8-0.5
				c25.2-7.8,50.5-15.7,75.8-23.5c2.4-0.7,3.2-1.9,3.4-4.2c1.8-18.3,3.6-36.7,5.5-55c0.2-2.2,0.1-3.9-2.1-4.9
				c-2.1-0.9-1.3-1.7,0-2.8c1.7-1.4,3.5-2.5,3.8-5.2c1.5-12.1,3.1-24.2,4.8-36.3l-91.4,12.6c-0.2,0.5-0.2,1.2-0.2,1.9
				c0.3,4.5,0.1,9,0.1,13.5C116.3,251.4,116.3,251.9,120.3,251.9 M535.5,279c0.3,0,0.6,0,0.9,0c11.4,1,22.1,4,31.2,11.4
				c1.9,2.1,3.8,4.1,5.7,6.2c-2.4-3.5-1.6-6.9,0-10.5c1.6-3.4,2.7-7.1,4.1-10.5c0.8-1.8,0.2-2-1.5-2.2c-12.4-1.4-24.8-3-37.1-4.5
				c-1.1-0.1-2-0.3-2.6-0.3c-1.6,0-1.7,0.7-2.4,3.6c-0.2,1-0.5,2-0.7,3C532.4,278.7,532.3,279,535.5,279 M215.5,318.4
				c2.8,0,5.4-0.4,7.9-0.6c7.3,1.7,14.6,3.4,22.3,5.2c-5.8,1.8-11,4.2-15.8,7.2c-2.8,1.7-5.4,4-8.9,4.1c-2.4,0.1-4.8,0.7-7.1,1.4
				c-25.8,8.3-47.8,22.6-66.4,42.2c-3.6,3.8-6.7,8-9.2,12.9c12.8-2.1,25.4-4.1,37.9-6.1c0.4-0.1,0.7-0.1,0.9-0.1
				c0.6,0,0.8,0.3,0.5,1.6c-1.1,4.9-2.1,9.9-3.1,14.8c-3.1,3.4-7.1,5.9-10.3,9.8c14.3-1.3,28.2-2.5,42.7-3.8c-0.7,0.8-0.8,1-1,1.2
				c-4.9,4.2-9.8,8.4-14.7,12.6c-0.6,0.6-1.3,0.7-2.2,0.7c0,0,0,0-0.1,0c-3.8,0-7.5-0.3-11.3-0.9c-11-1.7-21.5-5.3-31.5-10
				c-14.1-6.5-27.2-14.6-38.7-25.2c-4.8-4.4-9.1-9.2-11.7-15.9c-0.5,7,1.1,13.1,3.2,19c5.4,15.2,13.8,28.8,22.8,42.1
				c1,1.5,2.1,3,3.2,4.6c1,1.4,2,2.9,3.1,4.3c-8.4-3.5-16-8.1-22.8-14c-20.5-17.8-30-40.1-27-67.3c1.8-16.4,8.4-30.6,20.7-41.8
				c2.3-2.1,3.8-4.1,3.9-7.4c0.1-4.8,0.6-9.6,1-15c-2.4,3-4.4,5.6-6.5,8.1c-9.8,12.1-19,24.5-25.9,38.6
				c-5.8,11.8-9.6,24.2-10.3,37.3c-0.7,13,2.1,25.4,7.9,37c8.2,16.5,20.7,29.4,35,40.6c2.4,1.9,4.8,3.7,7.2,5.5
				c-9.4-1.6-17.5-6-25.1-11.5c-7.6-5.5-14.3-11.9-20.6-18.9c-0.1,0.5-0.1,0.8,0,1.1c2.7,10.6,8.9,19.2,16,27.1
				c10.8,12.1,23.4,22.1,36.8,31.1c44.5,29.9,92.8,50.7,144.9,63.1c3.9,0.9,7.8,1.9,12.2,2.3c-4.3-6-8.4-11.6-12.4-17.3
				c0.3-0.2,0.5-0.3,0.7-0.3c0.2,0,0.4,0.1,0.6,0.2c25.9,12.1,53.3,19.3,81.1,25.3c13.2,2.9,26.4,5.2,39.7,7.2
				c7.9,1.2,15.9,2.1,23.9,3c6,0.7,12,1.4,18,1.7c4.3,0.2,8.6,0.7,12.9,0.7c1.6,0,3.1-0.1,4.7-0.2c1.7-0.2,2.4-0.7,2.4-2.6
				c-0.1-9.8,0-19.7-0.1-29.5c0-0.6,0.3-1.3-0.4-1.8c-0.3,0.1-0.6,0.2-0.8,0.4c-16.5,10-34.6,15.4-53.7,16.8c-3,0.2-6,0.3-9,0.3
				c-7.9,0-15.8-0.8-23.6-2.7c-13.3-3.1-25.4-8.6-35.5-17.9c-15.3-14-21.6-32.1-22.5-52.3c-0.3-7.9,0.3-15.8,1.5-23.6
				c1-6.2,2.2-12.3,4.1-18.7c1.5,2.9,2.7,5.5,4,8c0.1,0.5,0.2,1,0.2,1.4c1.1,19.7,5.7,38.6,14.1,56.5c4.9,10.4,11.3,19.8,20.3,27.3
				c9.6,8,21.1,9.8,33,10.3c1.2,0.1,2.5,0.1,3.7,0.1c13.6,0,26.7-3.2,39.4-7.9c13.4-5,26.4-11.1,40-15.5c12.5-4.1,25.2-6.3,38.1-6.3
				c5.2,0,10.4,0.4,15.7,1.1c4.6,0.6,9.2,1.6,14.3,2.6c-0.7-0.5-0.9-0.7-1.2-0.9c-16.9-10.2-34.3-15.5-52.5-15.5
				c-9.8,0-19.7,1.5-29.9,4.6c-12.2,3.7-23.8,8.8-35.6,13.4c-7.5,2.9-15.1,5.6-23.3,5.8c-0.3,0-0.5,0-0.8,0
				c-12.4,0-19.7-6.6-21.2-19c-0.9-7-0.4-14,1.1-20.9c3.3-15.1,9.2-29,20.5-40c6.7-6.5,14.1-10.1,22.6-10.1c3.2,0,6.5,0.5,9.9,1.5
				c6.8,2.1,13.7,4,20.4,6.5c18.9,6.9,36.4,16.1,51.3,30c6.4,5.9,12,12.6,18.1,18.7c6.5,6.5,14,10.8,23.4,11.1
				c1.6,0.1,3.2,0.1,4.7,0.1c6.7,0,13.4-0.5,20.1-1.2c7.7-0.9,14.7-3.4,20.8-8.1c2.8-2.1,6-3.3,9.4-4.1c7.1-1.8,14.3-2.2,21.5-2.4
				c1.6,0,3-0.4,4.3-1.2c13-7.6,20.7-19.2,25.6-33c0.2-0.5,0.8-1.1,0.1-1.8c-4,0.6-8.1,1.2-12.1,1.7c-4.1,0.6-8.3,1.1-12.5,1.6
				c-1.9,0.2-3.2,0.9-4.1,2.7c-1.4,2.8-3.2,5.4-4.7,8.1c-0.7,1.3-1.6,1.7-3,1.7c0,0,0,0-0.1,0c-3.9,0-7.9,0-11.8,0
				c-4.1,0-8.2,0-12.3,0c-4.2,0-4.3,0-4.2,4.1c0,1.6-0.3,2.2-2,2.2c0,0-0.1,0-0.1,0c-3.4-0.1-6.8-0.1-10.1-0.1c-3.6,0-7.3,0-10.9,0
				c0,0,0,0-0.1,0c-1.6,0-3-0.4-4.3-1.1c-7.1-3.5-12.4-13.7-11.7-21.6c0.8-8.2,5-14.3,11.2-19.2c9.2-7.2,20-10.8,31.1-13.7
				c0.3-0.1,0.5-0.1,0.8-0.1c0.8,0,1.5,0.3,2.1,0.9c-6.4,1.6-12.6,3.4-18.4,6.5c-8,4.3-14.6,9.8-17.3,19c-1.7,5.8-0.8,11.1,3.2,15.8
				c0.2-0.5,0.4-0.8,0.5-1.1c0.1-0.3,0.2-0.6,0.3-0.9c2.1-6.8,6.1-12.1,11.9-16.2c6.7-4.7,14.2-7.7,22-9.8c4.1-1.1,8.3-1.8,12.5-2.5
				c0.3-0.1,0.7-0.1,0.9-0.1c1.1,0,1.7,0.5,1.5,2.2c-0.3,3.7-0.6,7.4-1.3,11.1c-0.6,3.2-1.6,6.2-2.1,9.6c5-1.9,8.3-5.4,10.9-9.5
				c3.2-5.1,5.9-10.5,7.5-16.3c0.4-1.6,1.2-2.2,3-2.3c1.3,0,2.6-0.1,3.8-0.1c1.9,0,3.9,0.1,5.8,0.4c5.1,1,8.7,3.5,9.8,9.2
				c0.4,2-0.3,4.3,1,6.2c2.7-1.2,4.7-3.3,6.5-5.4c4-4.6,6.1-9.8,3.4-15.8c-1.8-4-4.9-7-8.7-9c-4.8-2.6-9.8-5-15.2-6.4
				c-8.7-2.3-17.5-4-26.4-5c-2.9-0.3-6-0.4-8.9-1.4c0.2-0.9,0.9-1.4,1.4-1.9c3.2-3.4,6.9-6.4,9.5-10.4c2.1-3.3,4-6.7,3.9-10.7
				c-0.1-4.1-2.1-7.6-4.9-10.6c-4.9-5.4-11.1-9-16.9-13.2c-6.5-4.7-12.7-9.8-18.2-15.6c-3.9-4.1-3.5-6.2,1-9.5
				c1.9-1.5,3.5-3.3,4.1-5.7c1.8-7-0.3-14.4-6.4-19.8c-7.3-6.5-16.2-9.6-26-9.8c-0.3,0-0.6,0-1,0c-3.2,0-6.4,0.4-9.5,1
				c-7.7,1.5-14.6,4.3-19.3,11.1c-0.4,0.6-0.8,0.8-1.2,0.8c-0.4,0-0.8-0.2-1.3-0.4c-18.5-9.1-38.1-15.2-58.2-19.4
				c-5.7-1.2-11.5-2.2-17.3-3c-4.5-0.6-9-1.3-13.5-1.8c-4.4-0.5-8.8-0.8-13.2-1c-6.7-0.4-13.4-1-20.1-1.1c-2.1,0-4.1,0-6.2,0
				c-13.3,0-26.6,0.7-39.8,2.1c-8.6,0.9-17.3,2-25.8,3.6c-12,2.3-24,5.1-35.8,8.5c-13.3,3.9-26.3,8.7-38.9,14.4
				c-6.4,2.9-12.6,6.1-19,9.9C214.4,318.4,215,318.4,215.5,318.4 M398.9,466.2c1.1,0,2.3,0,3.4-0.1c7.9-0.4,15.7-0.9,23.6-1.3
				c0.1,0,0.2,0,0.2,0c1.2,0,1.9,0.5,2.5,1.5c2.2,3.4,1.8,6.6-0.7,10c4.8,0,9.5,0,14.1,0c3.3,0,6.6,0,9.9-0.1c0.3,0,0.6,0,0.9,0
				c3.2,0,6.1,0.5,8.5,3c0.7,0.7,1.7,1.2,2.6,1.8c5,3.1,10.4,5.2,16.8,5.5c-2.3-5.8-6.2-9.9-10.6-13.3
				c-16.6-12.9-35.7-20.3-56.1-24.7c-0.8-0.2-1.5-0.3-2.2-0.3c-2.3,0-4.1,0.9-5.9,3.1c-3.8,4.8-8.1,9.2-12.2,13.7
				c-0.3,0.3-0.8,0.6-0.6,1C395.1,466.2,397,466.2,398.9,466.2 M405.3,471.4c-3.9,0-7.8,0-11.8-0.1c0,0,0,0,0,0
				c-1.4,0-2.4,0.6-3.3,1.5c-4.5,4.3-7.3,9.5-8.9,15.5c-2,7.4-1.4,14.5,3.5,20.9c0.7,0.9,1.4,1.3,2.1,1.3c0.5,0,1.1-0.2,1.7-0.5
				c3.8-2.1,6.4-5.3,8.8-8.8c1.5-2.2,1.9-5.6,4.1-6.5c0.8-0.3,1.6-0.4,2.6-0.4c1.8,0,3.7,0.4,5.6,0.5c0,0,0.1,0,0.1,0
				c0,0,0.1,0,0.1,0c0.2,0,0.3,0,0.4,0c0.9,0,1.4,0.5,1.5,1.7c0.5,3.7,2.4,6.8,5.2,9.3c0.5,0.5,1,0.7,1.5,0.7c0.4,0,0.8-0.1,1.2-0.4
				c3.3-1.7,5.9-4.3,7-7.7c1-2.9,2.5-4.1,5-4.1c0.5,0,1,0,1.6,0.1c0.2,0,0.5,0.1,0.8,0.1c1,0,2.1-0.2,3-0.2c0.7,0,1.3,0.1,1.8,0.6
				c0.9,1,0.4,3.5,0.3,5.3c-0.1,1.3,0.2,1.9,1.4,1.9c0.2,0,0.4,0,0.6,0c7.8-0.9,15.7-1.6,23.6-2.4c4.1-0.4,8.2-0.9,12.7-1.3
				c-2.2-2.6-4.4-4.5-6.9-6.2c-13.9-9.6-29.5-13.3-46.1-13.5c0,0-0.1,0-0.1,0c-1.1,0-2.4,0.3-3.5,0.3c-0.6,0-1.2-0.1-1.5-0.4
				c-1.2-1.1-0.4-3.5-0.4-5.3c0-1.5-0.4-1.9-1.8-1.9c0,0-0.1,0-0.1,0C413.1,471.4,409.2,471.4,405.3,471.4 M95.7,219.9
				C95.7,219.9,95.7,219.9,95.7,219.9C95.7,219.9,95.7,219.9,95.7,219.9 M706.8,19.4c-43.9,0-160.3,3-294,30.8
				c-62.1,12.9-119.4,29.5-170.3,49.3c-59.1,23-110.2,50.6-151.8,82l-4.3,3.3l-0.4,5l-0.1,0.5l0,0.4l0,0l0,0l-1.7,22.5l-0.1,0.1
				l-0.4,6l-1.8,23.8c-0.2,2.6-0.5,5.3-0.7,7.9c-0.6,6.4-1.1,12.9-1.7,19.4c-10.9,10.6-20,20.8-28,31.1
				c-14.9,19.1-25.2,37.5-31.4,56.2c-7.2,21.8-8.5,43.3-3.6,63.9c5.3,22.6,16.9,43.2,35.6,63.1c16.2,17.2,35.6,32.1,61.2,46.9
				c32.6,18.9,69.5,34.6,112.7,48c25.9,8,53.3,14.8,81.5,20.1c1.6,0.3,3,0.4,4.4,0.4c3,0,9.4-0.8,14-7c0.1,0,0.2,0,0.3,0.1
				c1.3,0.3,2.6,0.6,3.9,0.8c23.7,5.2,48.9,9.1,74.9,11.6c14,1.3,26.3,2,37.7,2.1l2.8,0c2.7,0,5.4,0,8,0c7.2,0,15.8-0.1,24.6-0.9
				c8.1-0.7,14-5.3,16.3-12.5c1.2-4,2.2-11.7-5.8-19c-2.4-2.3-4.2-4.6-5.4-7.1c-1.4-2.8-1.1-4.1,1.5-6.1c1.7-1.3,3.6-2.4,5.8-3.3
				c5.8-2.4,12.5-3.8,21-4.6c4.1-0.4,8.2-0.6,12.3-0.6c4.2,0,8.4,0.2,12.6,0.6c1.9,0.2,3.6,0.3,5.1,0.3c6.5,0,12.1-1.6,17.3-4.8
				c8-5,16.5-9.8,24.6-14.5c3.2-1.8,6.5-3.7,9.8-5.6c5.4-0.3,10.9-1.1,16.4-2.5c25.3-6.3,45.6-21.1,60.3-43.8
				c12.6-19.5,17.6-39.7,14.8-59.9c-2-14.1-8.4-25.9-19.1-35c-6.5-5.6-14.3-9.6-23.5-12.3c0.1-5.3-0.7-10.3-2.6-15
				c6-8.3,12-16.8,17.8-25l4.3-6c7.2-10.2,14.5-20.4,21.7-30.5c11.3-15.9,22.7-31.9,34-47.8c21.2-29.9,42.5-59.7,63.7-89.5
				c6.1-8.6,3.6-16,1.6-19.6c-1.9-3.4-6.6-9.2-16.4-9.2l-0.2,0c-2.6,0-5.3,0-8.4,0l15.3-24.7l0.4-0.7l3.2-5.2
				c2.1-3.4,4.2-6.7,6.2-10.1c0.3-0.6,0.7-1.1,0.9-1.7l13.2-23.3l0.4-0.7l0.3-0.7c4-9.8,6.9-29-7-39.1l-0.8-0.6l-0.9-0.5
				c-3.3-1.6-9.5-3.6-29.2-5.2C745.3,20,727.1,19.4,706.8,19.4L706.8,19.4z M602.1,188.2c3.4-2.5,7.3-5.4,11.3-8.4
				c9,0.4,18,0.7,27.1,1.1c9.6,0.4,19.1,0.7,28.7,1.1c12,0.5,24,1,36.1,1.5c-3.1,4.7-6.1,9.3-9.2,14c-4.5,6.8-9,13.7-13.5,20.5
				c-7.7-0.6-15.5-1.2-23.1-1.8l1.9-4.8l1.8-4.7l5.7-14.7l-15.7-1.6l-4.9-0.5c-5.1-0.5-9.8-1-14.7-1.5c-0.5-0.1-1-0.1-1.5-0.1
				c-2.4,0-8.3,0.7-12,7.3c-5.3,9.5-11,19.6-16.9,29.7c-3.3,5.8-1.7,10.5-0.5,12.8c1.5,2.8,4.6,6.2,11.1,6.7
				c15.5,1.1,31,2.1,45.5,3.2c-0.7,1-1.4,2-2.1,3l-10.1,14.3c-11.9,16.8-24.2,34.2-36.3,51.3c-3.6,1-7.3,2.2-11,3.8
				c-1,0.5-2.3,0.7-4.1,0.7c-0.7,0-1.5,0-2.3-0.1c0-0.5,0-1.1,0-1.6l0-0.6l-0.1-0.6c-0.5-4.4-1.4-8.8-2.6-12.9
				c1.1-1.1,1.8-2.2,2.2-2.8c6.4-9.1,14.1-19.9,21.7-30.4c4.3-5.9,3.1-11,2-13.6c-1.3-3.1-4.4-6.9-11.3-7.7
				c-12.5-1.5-25.1-3-37.5-4.5l8.2-13.7C584.5,217.7,593.3,203,602.1,188.2L602.1,188.2z M541.7,184.5l16-2.2
				c-9.8,14.4-19.6,28.7-29.5,43.1c-10.2,14.8-20.3,29.7-30.5,44.5c-5.2-1.8-10.2-3.3-14.9-4.8c0.5-3.9,1-7.9,1.5-11.7
				c0.3-2.5,0.6-5,0.9-7.5l0.9-7.3l-6.1-4.1l-0.5-0.3l-10.8-7.2l-6.4,11.3l-3.9,6.9c-2.4,4.3-4.8,8.5-7.2,12.8l-0.6-0.1
				c-2.1-0.3-4.3-0.6-6.4-1l6-10.3c10.3-17.6,20.9-35.8,31.4-53.7l23.3-3.2c-0.1,1.4-0.2,2.8-0.4,4.3l-0.4,4.3
				c-0.1,0.7-0.1,1.4-0.1,2.2l0,0.8l-0.8,13l13-0.2c5-0.1,9.3-2.8,11.6-7.3l2.6-4.1C534.1,196.6,537.9,190.6,541.7,184.5
				L541.7,184.5z M423.4,200.9l12.1-1.7l-7.8,16.4l-17.8,37.5l-12.2-0.3l-0.9,0c1-2,2.1-4,3.1-6l4.5-8.7
				C410.6,225.9,417,213.3,423.4,200.9L423.4,200.9z M372.9,207.9l5.3-0.7c-2.3,6.4-4.6,12.7-6.8,19.1l-9.7,27.1
				c-2.2,0.2-4.3,0.3-6.5,0.5c5-12.8,9.9-25.7,14.9-38.5L372.9,207.9L372.9,207.9z M327,214.2l7.2-1l-7.9,24l-6,18.2l-0.9,2.7
				c-2.6,0.4-5.2,0.9-7.7,1.3C316.8,244.5,321.9,229.3,327,214.2L327,214.2z M237,226.6l48.7-6.7c-1.3,4.5-3,8.5-5.3,12.1
				c-0.3,0.4-0.7,0.9-1.1,1.5c-3.9,4.3-4.1,8.6-3.5,11.5c0.1,0.5,0.2,1.1,0.5,1.7c-0.3,1.7-0.6,3.3-0.9,5
				c-0.9,5.4-1.9,10.9-2.8,16.3l-5.9,1.8l1.4-6.9l2.1-10.2l-9.8-3.6c-1.9-0.7-3.8-1-5.8-1c-1.8,0-3.4,0.3-4.4,0.5
				c-0.2,0-0.3,0.1-0.5,0.1c-5.3,0.5-11.2,4.5-12,12.2l-0.3,1.2c-1.6,6.4-3.3,12.9-4.7,19.5l-1.6,0.7l0.5-2.7
				c0.6-3.4,1.2-6.7,1.8-10.1c1.8-10.5,3.8-21.4,5.7-32.1C240,232.4,238.6,228.9,237,226.6L237,226.6z M129,241.6l64.8-9
				c-0.8,6.3-1.6,12.3-2.4,18.3c-5.3,4.4-5.8,9.2-5.4,12.5c0.2,1.4,0.8,4,3,6.5c-1.6,15-3.1,30.4-4.7,47
				c-18.1,5.6-36.5,11.3-54.2,16.8c-0.6,0.2-1.1,0.3-1.7,0.5c0.1-1.1,0.2-2.1,0.3-3.2l1.7-19c0.8-9,1.6-18,2.4-27
				c0.3-2.9,0.5-5.7,0.7-8.6c0.6-7,1.2-14.3,1.9-21.3c0.5-5.4-1.5-8.9-3.3-10.9C131.2,243.1,130.2,242.2,129,241.6L129,241.6z
				 M254.1,312.6c6.9-2.6,13.9-5,21-7c10.7-3.1,22-5.8,34.7-8.2c7.6-1.5,15.4-2.4,24.8-3.5c12.5-1.4,25.5-2.1,38.5-2.1c2,0,4,0,6,0
				c4.7,0.1,9.4,0.4,14.4,0.8c1.7,0.1,3.4,0.2,5.1,0.3l1.1,0.1c4,0.3,7.9,0.5,11.6,0.9c3.6,0.4,7.1,0.9,10.9,1.5l2.3,0.3
				c6.1,0.9,11.5,1.8,16.6,2.9c21,4.4,39.1,10.4,55.3,18.4c0.9,0.5,3.4,1.7,6.6,1.7c4.5,0,8.5-2.2,11.1-6c2.1-3.1,5.5-4.9,11.7-6.1
				c2.6-0.5,5-0.8,7.2-0.8c0.2,0,0.5,0,0.7,0c7.4,0.2,13.4,2.4,18.4,6.8c1.6,1.4,3.4,3.8,2.9,6.9c-2.2,1.6-7.7,5.9-8.3,13.1
				c-0.6,7.3,4.3,12.5,5.9,14.2c5.7,6,12.2,11.6,19.9,17.1c1.5,1,2.9,2,4.3,3c4.1,2.8,7.9,5.4,10.7,8.5c1.3,1.4,1.8,2.4,1.8,2.8
				c0,0.2-0.1,1-2,4c-1.1,1.7-2.9,3.5-4.9,5.5c-1,1-2,2-3.1,3.1l-0.1,0.1c-0.9,0.9-3.3,3.2-4.3,7.1l-2.8,10.7l3.6,1.3
				c-0.5,0.1-0.9,0.2-1.4,0.3c-12,3.2-24.6,7.4-35.4,15.9c-9.4,7.5-14.7,16.7-15.7,27.5c-1.2,13,6.8,27.7,18.2,33.4
				c3.1,1.6,6.4,2.4,9.7,2.4l0.1,0c3.4,0,7.1,0,10.8,0c2.6,0,5.1,0,7.4,0c-3.8,2.6-8.3,4.2-13.5,4.7c-6.8,0.8-13,1.1-18.7,1.1
				c-1.5,0-2.9,0-4.3-0.1c-5.4-0.2-10.3-2.6-15.3-7.6c-2.3-2.3-4.5-4.7-6.9-7.2c-3.7-3.9-7.4-8-11.6-11.8
				c-14.6-13.6-32.7-24.2-55.4-32.4c-5.9-2.1-11.8-3.9-17.5-5.6c-1.2-0.4-2.4-0.7-3.6-1.1c-4.5-1.4-9-2-13.4-2
				c-11.4,0-21.8,4.5-31,13.5c-11.9,11.6-19.7,26.7-23.9,46c-1.8,8.5-2.3,16.9-1.3,24.9c1.2,9.6,5.1,17.1,11.1,22.2
				c-4.1-1.1-7.8-2.9-11.1-5.6c-6.8-5.6-12.4-13.2-17.1-23.2c-7.5-16-11.9-33.5-13-52c-0.1-0.9-0.2-1.6-0.2-2.1l0-0.2l-0.3-2
				l-0.9-1.8l-4-8l-13.6-27.2l-8.7,29.1c-1.9,6.2-3.3,12.7-4.5,20.2c-1.5,9.2-2,17.7-1.6,26c1,22.7,7.9,40.9,21.1,55.4
				c-13.7-4-27.6-8.9-40.9-15.1c-0.8-0.4-2.9-1.4-5.9-1.4c-3,0-5.8,1-8.2,2.9l-8.9,7.1l0.4,0.5c-43.8-12.5-84.7-31.4-122-56.4
				c-2.9-2-5.7-3.9-8.4-5.9l40.6,7l-38.7-29.7c-0.8-0.6-1.5-1.2-2.3-1.8c-1.7-1.3-3.2-2.4-4.8-3.7c-3.3-2.6-6.3-5.1-9.1-7.7
				c6.4,4.8,13.5,8.9,21.1,12l39,16.2l-24.7-34.3l-1-1.3c-0.7-1-1.4-1.9-2.1-2.9c-0.9-1.3-2-2.8-3-4.3c-2.4-3.6-4.8-7.2-7.1-11
				c5.2,3.1,10.7,5.9,16.6,8.6c12,5.5,23.4,9.1,34.7,10.9c4,0.6,8.2,1,13,1l0.2,0c4.7,0,8-2,10-3.6c2.9-2.5,5.8-4.9,8.6-7.4
				c2-1.7,4-3.4,6-5.2c1-0.9,1.6-1.7,2-2.1c0.1-0.1,0.2-0.3,0.4-0.5l18.5-22.2l-28.8,2.6l-18.2,1.6c0.5-2.7,1.1-5.2,1.7-7.8
				c1.3-5.6-0.5-9.3-2.3-11.6c-2.4-3-6-4.7-9.9-4.7c-1.1,0-2,0.1-2.9,0.3c-1.6,0.3-3.2,0.5-4.8,0.8c14.3-12,30.4-20.9,48.1-26.6
				c1.1-0.3,2.7-0.8,3.9-0.9c6.2-0.2,10.6-3.1,13.5-5.1c0.4-0.3,0.9-0.6,1.3-0.8c4.2-2.6,8.5-4.5,13-6l42.5-13.1L254.1,312.6
				L254.1,312.6z M596.7,421.4l-8.4-7.6c0,0,0,0,0,0c1.4,0.2,2.8,0.3,4,0.4c0.6,0,1.2,0.1,1.7,0.2c5.4,0.6,10.9,1.5,16.3,2.6
				c-3.3,1.1-5.9,3.2-7.7,6.1C600.8,422.1,598.8,421.5,596.7,421.4L596.7,421.4z M396.4,483.8c0.1-0.1,0.2-0.3,0.3-0.4
				c0.2,0,0.5,0,0.7,0c-0.1,0-0.2,0.1-0.4,0.1C396.8,483.6,396.6,483.7,396.4,483.8L396.4,483.8z M428.9,563.5c2-0.7,4-1.5,5.9-2.3
				c0,0.9,0,1.8,0,2.7c-1-0.1-1.9-0.1-2.9-0.2C430.9,563.7,429.9,563.6,428.9,563.5L428.9,563.5z"/>
		</g>
		<path class="st1" d="M220.9,334.3c3.5-0.1,6.1-2.4,8.9-4.1c4.8-3,10-5.4,15.8-7.2c-7.7-1.8-15-3.5-22.3-5.2
			c0.7-0.3,1.4-0.7,2.1-0.9c17.2-4.8,34.5-9.4,51.9-13.4c11.8-2.7,23.6-5.4,35.5-7.6c7.6-1.4,15.3-2.8,22.9-4
			c6.9-1.1,13.8-2,20.7-2.8c4.1-0.5,8.3-0.7,12.4-1c10.7-0.9,21.4-1.1,32.1,0.8c-6.8,2.1-13.6,4.2-20.2,7
			c-6.5,2.8-12.8,6.2-17.4,11.5c-6.5,7.5-10.6,16.5-11,26.8c-0.4,11.3,3,21.2,9.9,30c2.2,2.8,4.9,5.2,7.9,8.1c-11.5,0-22.5,0-34,0
			c1.8,1.4,3,2.5,4.3,3.5c-3.7-0.4-4.4-0.1-6.1,2.9c-1.9,3.5-3.2,7.2-4.1,11c-2.9,13.3-3.8,26.8-3.9,40.4c0,4.5,0,9,0,13.5
			c0,0.5,0.3,1.3-0.3,1.6c-0.8,0.4-1.1-0.4-1.5-0.8c-3.2-3-6.3-6-9.5-9c-1.9-1.8-2-1.8-2.7,0.7c-1.5,5.3-1.5,10.8-1.5,16.2
			c-1.3-2.6-2.6-5.1-4-8c-1.9,6.4-3.2,12.5-4.1,18.7c-1.2,7.8-1.8,15.7-1.5,23.6c0.9,20.3,7.1,38.3,22.5,52.3
			c10.2,9.3,22.3,14.8,35.5,17.9c10.7,2.5,21.7,3.1,32.6,2.3c19.2-1.4,37.2-6.8,53.7-16.8c0.3-0.2,0.6-0.3,0.8-0.4
			c0.7,0.6,0.4,1.2,0.4,1.8c0,9.8,0,19.7,0.1,29.5c0,1.9-0.7,2.5-2.4,2.6c-5.9,0.5-11.7-0.2-17.6-0.5c-6-0.3-12-1-18-1.7
			c-8-0.9-15.9-1.8-23.9-3c-13.3-2-26.6-4.3-39.7-7.2c-27.8-6-55.2-13.2-81.1-25.3c-0.4-0.2-0.7-0.4-1.3,0.1
			c4,5.6,8.1,11.3,12.4,17.3c-4.4-0.4-8.3-1.4-12.2-2.3c-52.1-12.4-100.5-33.2-144.9-63.1c-13.4-9-26-19.1-36.8-31.1
			c-7.1-8-13.4-16.5-16-27.1c-0.1-0.3-0.1-0.6,0-1.1c6.3,7,13,13.4,20.6,18.9c7.6,5.5,15.7,9.8,25.1,11.5c-2.4-1.8-4.8-3.7-7.2-5.5
			c-14.3-11.3-26.8-24.1-35-40.6c-5.8-11.7-8.6-24-7.9-37c0.7-13.2,4.5-25.5,10.3-37.3c6.9-14.1,16.1-26.5,25.9-38.6
			c2.1-2.5,4.1-5.1,6.5-8.1c-0.4,5.4-0.9,10.2-1,15c-0.1,3.3-1.6,5.3-3.9,7.4c-12.2,11.3-18.8,25.5-20.7,41.8
			c-3,27.2,6.5,49.5,27,67.3c6.8,5.9,14.4,10.5,22.8,14c-1-1.4-2.1-2.8-3.1-4.3c-1.1-1.5-2.1-3-3.2-4.6c-9-13.3-17.3-26.9-22.8-42.1
			c-2.1-5.9-3.7-12-3.2-19c2.6,6.7,6.9,11.5,11.7,15.9c11.5,10.6,24.6,18.7,38.7,25.2c10.1,4.6,20.5,8.2,31.5,10
			c3.7,0.6,7.5,0.8,11.3,0.9c0.8,0,1.6-0.2,2.2-0.7c4.9-4.2,9.8-8.4,14.7-12.6c0.2-0.2,0.4-0.4,1-1.2c-14.5,1.3-28.4,2.5-42.7,3.8
			c3.3-3.9,7.3-6.4,10.3-9.8c0.3-0.1,0.7-0.1,0.9-0.3c4.9-4.1,9.9-7.9,15.1-11.6c10-7.2,20.3-13.8,31.5-19c3.8-1.7,7.7-3.2,11.5-5
			c-14.4,1.8-28.7,3.6-43.7,5.5c9.7-14.2,20.6-26.2,34-36.5C222.5,334.3,221.7,334.3,220.9,334.3z M140.8,446.2c0,0.2-0.1,0.4,0,0.5
			c0.2,0.3,0.4,0.7,0.7,1c4.4,6.1,10,11.1,16.1,15.5c20.6,14.8,44.1,22.7,68.5,28.2c1.2,0.3,1.2-0.2,1.2-1.1c0-6.9,0-13.7,0-20.6
			c0-1-0.3-1.4-1.4-1.5c-14.3-1.5-28.4-3.7-42.5-6.8C168.7,458.1,153.8,454.9,140.8,446.2z M153.3,480.2
			c24.5,21.7,54.3,30.6,86.3,35.8c-4.1-7.1-7.8-13.6-11.5-20.2c-0.4-0.7-1-0.9-1.8-1c-4.9-0.4-9.7-0.8-14.6-1.3
			c-14-1.6-27.8-4.3-41.4-8.1C164.5,483.8,159,481.8,153.3,480.2z"/>
		<path class="st2" d="M310.9,452.4c0-5.5,0-10.9,1.5-16.2c0.7-2.5,0.8-2.6,2.7-0.7c3.1,3,6.3,6,9.5,9c0.4,0.4,0.8,1.2,1.5,0.8
			c0.6-0.3,0.3-1,0.3-1.6c0-4.5,0-9,0-13.5c0.1-13.6,1-27.1,3.9-40.4c0.9-3.8,2.2-7.6,4.1-11c1.6-3,2.4-3.4,6.1-2.9
			c5.8,1.3,11.6,2.4,17.4,3.9c24.5,6.6,47.2,16.8,67.2,32.6c4.5,3.5,8.7,7.4,12.9,11.7c0.4-1.8-0.2-3-0.8-4.2c-0.9-2-2-4-3.1-6
			c-5.3-9.6-4-18.7,2.4-27.3c4.9-6.7,11.3-11.9,17.9-16.8c2.2-1.6,4.5-3.1,7.2-5c-2.4,0-4.1,0-5.9,0c-11.3,0.3-21.4,3.6-29.4,11.9
			c-2.5,2.6-4.9,5.3-7.5,7.9c-3.2,3.3-6.9,4.1-11.2,2.6c-3.1-1.1-6-2.8-8.6-4.7c-1.9-1.4-3.6-2.6-6.2-3.3c-8.2-2-14.4-7.1-18.2-14.7
			c-6.6-13-5.5-26,0.5-38.8c5.2-11.2,13.1-19.6,25.4-23.1c7.5-2.1,15.1-2.3,22.7-1.1c10.4,1.6,20.1,5.1,28.2,12.1
			c4.5,3.8,7.9,8.3,8.8,14.3c0.2,1.2,0.5,2.3,1.2,3.4c4.2,7,5.7,14.5,4.3,22.5c-0.1,0.7-0.5,1.6,0.5,2.1c0.9,0.5,1.8,0.5,2.8,0
			c1.4-0.8,2-2.3,2.5-3.7c1-2.8,1.1-5.7,1.5-8.5c0.7-0.8,0.4-1.7,0.4-2.6c0-2.8,0-5.6,0-8.5c0-3,0.2-3.1,3-1.8c3,1.4,5.8,3.1,8.5,5
			c10.1,6.9,16.4,16.3,18.3,28.5c0.2,1.4-0.1,2.2-1.6,2.7c-1.9,0.7-3.8,1.7-5.6,2.7c-6,3.5-9,10.5-7.8,17.3
			c1.6,9.2,6.8,16.4,12.8,23.1c5.5,6.1,12,11.2,18.7,15.9c0.8,0.5,1.3,0.8,2.1,0.3c3.5-0.2,7,0.3,10.5-0.7c10.4-3,20.9-5.8,31.4-8.7
			c3.6-1,7-2.6,10.7-2.7c6.7-0.2,13.4,0.2,20,1.1c3.5,0.5,7.1,1.2,10.7,3.1c-7.9,1.5-15.4,3-22.9,4.5c-0.7,0.1-1.4,0.3-2.1-0.1
			c-0.8-0.7-1.8-1.1-2.9-0.8c-11.1,3-21.9,6.5-31.1,13.7c-6.2,4.9-10.5,11-11.2,19.2c-0.7,7.9,4.6,18.1,11.7,21.6
			c1.4,0.7,2.8,1.1,4.4,1.1c7-0.1,14-0.1,21,0c1.8,0,2.1-0.5,2.1-2.2c-0.1-4.1,0-4.1,4.2-4.1c8.1,0,16.1,0,24.2,0
			c1.5,0,2.3-0.4,3.1-1.7c1.5-2.8,3.3-5.3,4.7-8.1c0.9-1.8,2.2-2.5,4.1-2.7c4.2-0.5,8.3-1,12.5-1.6c4.1-0.6,8.1-1.2,12.1-1.7
			c0.7,0.7,0.1,1.3-0.1,1.8c-4.9,13.8-12.6,25.5-25.6,33c-1.4,0.8-2.7,1.2-4.3,1.2c-7.2,0.2-14.5,0.6-21.5,2.4
			c-3.4,0.8-6.7,2-9.4,4.1c-6.2,4.8-13.1,7.3-20.8,8.1c-8.3,0.9-16.5,1.4-24.8,1.1c-9.3-0.3-16.9-4.6-23.4-11.1
			c-6.1-6.2-11.8-12.8-18.1-18.7c-14.9-13.8-32.4-23.1-51.3-30c-6.7-2.4-13.6-4.4-20.4-6.5c-12.7-3.8-23.4-0.4-32.5,8.5
			c-11.3,11-17.2,24.8-20.5,40c-1.5,6.9-2,13.8-1.1,20.9c1.6,12.7,9.1,19.3,22,19c8.2-0.2,15.8-2.9,23.3-5.8
			c11.8-4.6,23.5-9.7,35.6-13.4c29.2-8.8,56.6-4.8,82.5,10.9c0.3,0.2,0.5,0.4,1.2,0.9c-5.1-1-9.7-1.9-14.3-2.6
			c-18.4-2.5-36.2-0.5-53.8,5.2c-13.6,4.4-26.6,10.6-40,15.5c-13.9,5.1-28.2,8.5-43.1,7.9c-11.9-0.5-23.4-2.3-33-10.3
			c-9-7.5-15.3-16.9-20.3-27.3c-8.5-17.9-13-36.8-14.1-56.5C311,453.4,310.9,452.9,310.9,452.4z M464.5,390.9
			c-4.1,3.5-7.9,7.3-10.9,11.8c-4.7,7-7.2,14.6-5.5,23.1c2.4,12,11,18.5,23.8,18.6c14.8,0.1,29.6,0.2,44.5,0.2c2,0,4.1,0,6.1,0
			C500.7,429.3,483.2,409.5,464.5,390.9z M417.7,326.4c-7.4,0-13.5,3.7-16.7,10.2c-4.9,9.9-3.4,19.6,1.3,28.9c3.6,7.1,9.1,8,15.1,3
			c4.6-3.8,7.7-8.6,10-14c0.4-0.9,0.6-1.7,1.9-1.8c3.1-0.2,6.2-0.7,9.4-0.9c4.2-0.3,4.8-1.1,3.7-5.2c-0.2-0.9-0.6-1.9-1-2.7
			c-3.8-6.9-9.1-12.2-16.2-15.6C422.6,327,419.9,326.3,417.7,326.4z"/>
		<path class="st2" d="M581.1,319.6c-0.7-5.7-2-11.3-4.1-16.6c3.3,0,6-1.2,7.9-3.9c8.9-12.4,17.6-24.8,26.5-37.2c1-1.4,1-1.9-1-2.1
			c-17.9-2.1-35.8-4.4-53.7-6.6c-2.8-0.3-2.8-0.4-1.4-2.8c11.5-19.2,23-38.4,34.4-57.7c3.4-5.8,7.1-11.1,12.8-15.4
			c5.8-4.4,11.5-6.5,18.6-5.4c0.9,0.1,1.8,0.2,2.6,0.2c16.2,0.7,32.5,1.3,48.7,1.9c15.1,0.6,30.3,1.2,45.4,1.7
			c1.8,0.1,2.1,0.4,1.1,2c-10.4,15.8-20.9,31.6-31.2,47.4c-0.7,1.1-1.6,1.4-2.8,1.3c-11.7-0.9-23.4-1.9-35.1-2.7
			c-1.7-0.1-1.9-0.5-1.3-2c1.9-4.7,3.7-9.4,5.6-14.2c1.1-2.8,2.1-5.5,3.3-8.5c-8.2-0.8-16.1-1.5-24-2.6c-3.3-0.5-5.3,0.4-6.4,3.5
			c-0.5,1.3-1.3,2.4-2,3.6c-5.8,10.2-11.5,20.3-17.3,30.5c-0.6,1-1.4,2,0.8,2.1c14.1,0.9,28.3,1.9,42.4,2.9c7.1,0.5,14.3,1,21.4,1.5
			c1.9,0.1,1.8,0.7,0.9,2c-1.3,1.7-2.4,3.4-3.6,5.1c-17.5,24.7-35,49.4-52.6,74.1c-0.7,1-1.3,1.9-2.6,2.3c-4.9,1.5-9.8,3.2-14.7,4.8
			c-0.8,0.2-1.6,0.5-2.3,0.4c-4.7-0.2-9.5-0.6-14.2-0.7c-1.6-0.1-2.4-0.5-2.2-2.2C581,324.1,581,321.8,581.1,319.6z"/>
		<path class="st3" d="M580.2,422.7c0.7,0.4,1.4,0.2,2.1,0.1c7.5-1.4,15-2.9,22.9-4.5c-3.6-1.9-7.1-2.7-10.7-3.1
			c-6.6-0.9-13.3-1.3-20-1.1c-3.7,0.1-7.2,1.8-10.7,2.7c-10.5,2.8-21,5.7-31.4,8.7c-3.5,1-7,0.5-10.5,0.7c0.2-0.4-1.4-0.3-0.2-1.2
			c5.5-4.5,11.8-7.4,18.5-9.6c10.6-3.5,21.5-5.2,32.6-5.7c1,0,2.1,0.1,3-0.6c-0.2-0.3-0.3-0.6-0.5-0.9c-5.4-9.1-1.9-18.1,8.3-20.9
			c1.9-0.5,1.2-1.3,0.8-2.3c-3.6-8.6-9-16.1-15.2-22.9c-7-7.8-15-14.6-23.7-20.4c-6-4-12.2-7.8-18.9-10.8c-0.9-0.4-1.8-0.6-1.3-2
			c2.7-7.6,6-15,11.7-20.9c1.2-1.3,1.2-1.2,1.7-3.6c-6.2,0.8-12.3,1.8-18.3,3.7c-5.7,1.8-11.2,4-15.2,8.8c-0.7,0.8-1.6,0.5-2.4,0.2
			c-7.1-2.6-14.2-5.2-21.4-7.8c-9.7-3.5-19.3-7.4-29.3-10l0,0c0-0.4-0.2-0.3-0.5-0.2c-6.8-2.1-13.6-4.5-20.5-6.3
			c-6.1-1.6-12.1-3.7-18.5-3.7c-3.9,0-7.9-0.1-11.8-0.1c-10.6-1.9-21.3-1.8-32.1-0.8c-4.1,0.4-8.3,0.6-12.4,1
			c-6.9,0.8-13.8,1.7-20.7,2.8c-7.7,1.2-15.3,2.6-22.9,4c-11.9,2.2-23.7,4.9-35.5,7.6c-17.4,4-34.7,8.6-51.9,13.4
			c-0.7,0.2-1.4,0.6-2.1,0.9c-3,0.3-6,0.8-9.5,0.6c6.4-3.8,12.6-7,19-9.9c12.6-5.7,25.6-10.6,38.9-14.4c11.8-3.4,23.8-6.2,35.8-8.5
			c8.5-1.6,17.1-2.7,25.8-3.6c15.3-1.7,30.6-2.3,46-2.1c6.7,0.1,13.4,0.7,20.1,1.1c4.4,0.3,8.9,0.5,13.2,1c4.5,0.5,9,1.2,13.5,1.8
			c5.8,0.8,11.6,1.8,17.3,3c20.1,4.2,39.7,10.2,58.2,19.4c1,0.5,1.8,0.8,2.6-0.4c4.6-6.8,11.6-9.6,19.3-11.1c3.5-0.7,7-1.1,10.5-1
			c9.8,0.2,18.7,3.3,26,9.8c6.1,5.4,8.3,12.8,6.4,19.8c-0.6,2.4-2.2,4.2-4.1,5.7c-4.5,3.4-4.8,5.4-1,9.5
			c5.5,5.8,11.7,10.9,18.2,15.6c5.8,4.2,12,7.8,16.9,13.2c2.8,3,4.8,6.5,4.9,10.6c0.1,3.9-1.8,7.4-3.9,10.7c-2.6,4-6.3,7-9.5,10.4
			c-0.5,0.6-1.2,1.1-1.4,1.9c2.9,1,5.9,1.1,8.9,1.4c9,1,17.8,2.6,26.4,5c5.4,1.4,10.4,3.8,15.2,6.4c3.8,2.1,6.9,5,8.7,9
			c2.7,6,0.6,11.2-3.4,15.8c-1.8,2.1-3.8,4.2-6.5,5.4c-1.3-1.9-0.6-4.1-1-6.2c-1.1-5.7-4.7-8.3-9.8-9.2c-3.2-0.6-6.4-0.4-9.6-0.4
			c-1.7,0-2.5,0.6-3,2.3c-1.6,5.8-4.3,11.2-7.5,16.3c-2.6,4.1-5.9,7.7-10.9,9.5c0.5-3.4,1.5-6.4,2.1-9.6c0.7-3.7,1-7.4,1.3-11.1
			c0.2-2.1-0.7-2.4-2.5-2.1c-4.2,0.7-8.4,1.4-12.5,2.5c-7.9,2.1-15.3,5.2-22,9.8c-5.9,4.1-9.8,9.4-11.9,16.2
			c-0.1,0.3-0.1,0.6-0.3,0.9c-0.1,0.3-0.3,0.6-0.5,1.1c-4-4.8-4.9-10-3.2-15.8c2.7-9.2,9.2-14.7,17.3-19
			C567.6,426.1,573.9,424.2,580.2,422.7z"/>
		<path class="st2" d="M453.9,270.4c-5.9-0.9-11.8-1.8-17.7-2.7c-2.1-0.3-4.3-0.6-6.4-0.9c-0.9-1.3,0.4-2,0.8-2.9
			c9.3-16,18.7-32,28-48c8-13.8,16.1-27.5,24.2-41.3c0.5-0.8,0.6-1.8,2.2-1.7c9.1,0.4,18.2,0.6,27.3,0.8c1.6,0,2.5,0.3,2.3,2.3
			c-1.1,11.7-2.2,23.4-3.2,35.1c-0.2,1.9-0.3,3.8-0.4,5.7c1-0.8,1.7-1.8,2.3-2.7c8.6-13.5,17.1-26.9,25.7-40.4c0.8-1.2,1.5-2,3.2-2
			c10.3,0.1,20.6,0,30.9,0.1c0.5,0,1.1-0.3,1.5,0.5c-0.4,0.6-0.8,1.3-1.3,2c-8.2,12-16.5,24.1-24.7,36.1
			c-16.5,24.2-33.1,48.4-49.6,72.6c-8.4-2.9-16.8-5.6-25.4-8.1c0-0.5-0.1-1,0-1.4c1.4-10.6,2.7-21.2,4.1-31.8
			c0.7-5.6,1.4-11.2,2.1-16.8c-1.9,2.4-3.3,5-4.7,7.6C468,245.1,460.9,257.8,453.9,270.4z"/>
		<path class="st2" d="M238.8,292.1c-6.4,2.9-12.8,5.9-19.1,8.8c3.9-22.3,7.8-44.7,11.7-67c0.8-4.6,0.9-4.6-3.8-4.6
			c-1.8,0-2.4-0.3-1.9-2.3c0.8-3.4,1.5-6.8,2-10.2c0.2-1.6,0.9-2.3,2.5-2.6c21-4.9,41.9-10,62.9-15c2.8-0.7,2.9-0.6,3.1,2.3
			c0.5,7.5-0.7,14.8-2.9,21.9c-2.1,6.8-4.7,13.5-10.4,18.2c-1.7,1.4-1,1.8,0.3,2.6c0.9,0.6,1.9,0.9,1.6,2.5
			c-2,10.6-3.8,21.2-5.7,31.8c-8,2.4-15.9,4.7-23.9,7.1c1.9-9.3,3.8-18.6,5.8-27.9c0.3-1.4,0-1.7-1.3-1.6c-3.6,0.3-7.2,0.5-10.8,0.7
			c-0.9,0-1.4,0.4-1.7,1.4C244.3,269.6,241.5,280.8,238.8,292.1z M259.8,237c1.8,0.7,2.2-0.5,2.7-2c0.6-2.1,1.3-4.1,1.9-6.2
			c1.6-5,1.6-4.9-3.7-4c-1.5,0.2-2,0.7-2.1,2.2c-0.1,2.7-0.4,5.4-0.7,8.1C257.7,236.6,257.9,237.5,259.8,237z"/>
		<path class="st2" d="M366.3,265c-22.7,1.4-45.2,4.2-67.5,9.2c-0.2,0.1-0.5,0-0.7,0c1.5-4.7,3-9.3,4.6-14
			c6.8-20.1,13.8-40,20.2-60.2c1.7-5.3,3.9-7.9,9.7-7.9c5.9,0,11.8-1.2,17.9-1.8c-1.7,5.3-3.4,10.2-5,15.2
			c-6.1,18.4-12.2,36.8-18.3,55.2c-0.6,1.8-0.4,2.4,1.7,2.4c3.8-0.1,7.6-0.2,11.4,0c2,0.1,2.8-0.7,3.4-2.4
			c9.4-24.4,18.8-48.8,28.1-73.3c0.9-2.3,1.9-3.2,4.5-3.2c5.5,0.1,11.1-0.2,16.6-0.6c2.2-0.2,2.3,0.3,1.6,2.1
			c-5.8,16.2-11.6,32.4-17.4,48.6C373.6,244.5,370,254.8,366.3,265z"/>
		<path class="st4" d="M581.1,319.6c-0.1,2.2-0.1,4.5-0.3,6.7c-0.1,1.7,0.6,2.2,2.2,2.2c4.7,0.2,9.5,0.5,14.2,0.7
			c0.8,0,1.6-0.2,2.3-0.4c4.9-1.6,9.8-3.3,14.7-4.8c1.3-0.4,1.9-1.4,2.6-2.3c17.5-24.7,35-49.4,52.6-74.1c1.2-1.7,2.4-3.5,3.6-5.1
			c0.9-1.3,1-1.9-0.9-2c-7.2-0.4-14.3-1-21.4-1.5c-14.1-1-28.3-2-42.4-2.9c-2.2-0.1-1.4-1.1-0.8-2.1c5.8-10.2,11.5-20.3,17.3-30.5
			c0.7-1.2,1.5-2.3,2-3.6c1.1-3.1,3.1-4,6.4-3.5c7.9,1.1,15.8,1.7,24,2.6c-1.1,2.9-2.2,5.7-3.3,8.5c-1.8,4.7-3.6,9.5-5.6,14.2
			c-0.6,1.5-0.4,1.9,1.3,2c11.7,0.8,23.4,1.8,35.1,2.7c1.2,0.1,2.1-0.1,2.8-1.3c10.4-15.8,20.8-31.6,31.2-47.4c1-1.6,0.7-1.9-1.1-2
			c-15.1-0.5-30.3-1.1-45.4-1.7c-16.2-0.6-32.5-1.3-48.7-1.9c-0.9,0-1.8-0.1-2.6-0.2c-7.1-1.1-12.8,1-18.6,5.4
			c-5.6,4.3-9.3,9.6-12.8,15.4c-11.4,19.3-22.9,38.5-34.4,57.7c-1.4,2.4-1.4,2.4,1.4,2.8c17.9,2.2,35.8,4.5,53.7,6.6
			c1.9,0.2,2,0.6,1,2.1c-8.8,12.4-17.6,24.8-26.5,37.2c-1.9,2.6-4.6,3.9-7.9,3.9c-1.1-1.9-2.2-3.8-3.4-5.7c1.6,1.2,3,2.5,5.1,1.8
			c1.9-0.6,3-1.9,4.2-3.5c7.2-10.2,14.4-20.4,21.7-30.5c1.2-1.7,1-2.1-1-2.3c-17.5-2.1-35-4.2-52.5-6.4c-1-0.1-1.9-0.3-3.2-0.5
			c2-3.4,3.9-6.7,5.9-9.9c12.7-21.3,25.5-42.7,38.2-64c0.7-1.2,1.6-2.2,2.7-3c4.7-3.4,9.4-6.9,14-10.4c0.9-0.7,1.7-0.8,2.7-0.7
			c19.5,0.8,38.9,1.5,58.4,2.3c18.9,0.7,37.8,1.5,56.7,2.3c0.5,0.8-0.2,1.2-0.5,1.7c-11.8,18-23.7,36.1-35.5,54.1
			c-0.8,1.3-1.5,2.4-3.5,2.2c-14.2-1.2-28.4-2.2-42.6-3.2c-0.5,0-0.9-0.1-1.6-0.3c3.2-8.1,6.3-16.2,9.5-24.5
			c-6.7-0.7-13.2-1.3-19.7-2c-1-0.1-1.4,0.4-1.8,1.1c-5.6,9.9-11.2,19.9-16.9,29.8c-0.8,1.5-0.2,1.5,1,1.6
			c21.2,1.5,42.4,2.9,63.6,4.4c0.9,0.1,1.9,0,2.9,0.5c-4.8,6.7-9.5,13.4-14.2,20.1c-15.7,22.1-31.4,44.3-47,66.4
			c-1.2,1.7-2.6,2.9-4.7,3.5c-3.6,1-7.3,2.1-10.7,3.7c-6.3,2.8-12.8,1.3-19.3,1.1c-4.1-0.1-4-0.3-3.9-4.4
			C581.4,325.2,581.2,322.4,581.1,319.6z"/>
		<path class="st2" d="M413,265.2c-10.4-0.3-20.8-0.5-31.3-0.8c0.3-0.7,0.6-1.5,0.9-2.2c7.4-14.4,14.7-28.8,22.1-43.2
			c6.5-12.6,12.9-25.2,19.4-37.8c0.5-1,1-1.7,2.3-1.8c8.5-0.6,17-1.3,25.5-2c3-0.2,3-0.2,1.7,2.5c-11.3,23.8-22.5,47.6-33.8,71.3
			C417.7,256,415.8,260.8,413,265.2z"/>
		<path class="st2" d="M220.9,334.3c0.8,0,1.6,0,2.9,0c-13.4,10.4-24.3,22.3-34,36.5c15-1.9,29.4-3.7,43.7-5.5
			c-3.8,1.8-7.7,3.2-11.5,5c-11.2,5.1-21.5,11.8-31.5,19c-5.2,3.7-10.2,7.5-15.1,11.6c-0.2,0.2-0.6,0.2-0.9,0.3
			c1-5,1.9-9.9,3.1-14.8c0.4-1.7-0.1-1.7-1.5-1.4c-12.5,2.1-25,4.1-37.9,6.1c2.5-5,5.6-9.1,9.2-12.9c18.6-19.7,40.6-33.9,66.4-42.2
			C216.2,335,218.5,334.4,220.9,334.3z"/>
		<path class="st3" d="M477.3,498.3c-4.4,0.5-8.5,0.9-12.7,1.3c-7.9,0.8-15.7,1.5-23.6,2.4c-1.7,0.2-2-0.3-2-1.9
			c0.1-1.8,0.6-4.3-0.3-5.3c-1.1-1.2-3.7-0.1-5.5-0.4c-3.4-0.5-5.3,0.5-6.5,4c-1.2,3.4-3.7,6-7,7.7c-1.1,0.6-1.9,0.5-2.8-0.4
			c-2.8-2.5-4.7-5.5-5.2-9.3c-0.2-1.4-0.7-1.8-1.9-1.7c-0.1,0-0.2,0-0.2,0c-2.7-0.1-5.8-1-8.1-0.1c-2.3,0.9-2.6,4.3-4.1,6.5
			c-2.4,3.5-5,6.7-8.8,8.8c-1.6,0.8-2.7,0.7-3.9-0.8c-4.9-6.4-5.4-13.4-3.5-20.9c1.6-5.9,4.4-11.2,8.9-15.5c1-0.9,1.9-1.5,3.4-1.5
			c7.8,0.1,15.6,0.1,23.5,0c1.5,0,2,0.3,1.9,1.9c-0.1,1.8-0.8,4.3,0.4,5.3c1,0.9,3.4,0.1,5.1,0.1c16.6,0.2,32.2,3.9,46.1,13.5
			C472.9,493.8,475.1,495.7,477.3,498.3z"/>
		<path class="st4" d="M114.9,350.9c0.6-7.2,1.2-14.1,1.9-21c1.4-15.3,2.7-30.6,4.1-45.9c0.9-10,1.7-20,2.7-30.1
			c0.2-1.8-0.3-2.1-2-2.1c-5.3,0.1-5.3,0-5.3-5.2c0-4.5,0.2-9-0.1-13.5c-0.2-2.6,0.9-3.6,3.1-4.4c18.2-6.8,36.4-13.8,54.6-20.6
			c7.4-2.8,14.9-5.6,22.3-8.5c1.4-0.5,2.3-0.4,3.5,0.5c2.7,2,5.5,3.9,8.4,5.7c1,0.7,1.3,1.4,1.1,2.6c-2.1,15.5-4.2,30.9-6.2,46.4
			c-0.3,2.7-2.2,3.8-3.8,5.2c-1.3,1.1-2,1.9,0,2.8c2.2,1,2.4,2.6,2.1,4.9c-1.9,18.3-3.8,36.7-5.5,55c-0.2,2.4-0.9,3.5-3.4,4.2
			c-25.3,7.7-50.5,15.6-75.8,23.5C116.2,350.5,115.7,350.7,114.9,350.9z M191.5,261.9c2.1-1.9,4.1-3.7,6.1-5.3
			c1.1-0.9,1.6-1.8,1.8-3.2c1.6-12.5,3.2-24.9,5-37.3c1.1-7.7,1.2-7.7-5.3-11.8c-1-0.7-2-0.8-3.2-0.4c-24.7,9.4-49.4,18.7-74.1,28
			c-1.3,0.5-1.6,1.2-1.6,2.5c0.1,2.9,0,5.8,0,8.7c0,4.9,0,5.1,4.9,4.9c2.2-0.1,2.8,0.6,2.5,2.7c-0.9,9.3-1.7,18.6-2.5,27.9
			c-0.8,9.5-1.7,18.9-2.5,28.4c-1.1,11.9-2.2,23.7-3.2,35.6c-0.3,3-0.2,3,2.6,2.2c11.5-3.6,23.1-7.1,34.6-10.7
			c11.1-3.4,22.1-6.9,33.2-10.3c1.1-0.3,2-0.5,2.2-2.1c1.7-17.1,3.4-34.3,5.3-51.4c0.3-3-0.2-5.1-3.1-6.4
			C193.3,263.4,192.5,262.6,191.5,261.9z"/>
		<path class="st4" d="M498.9,283c16.5-24.2,33.1-48.4,49.6-72.6c8.2-12,16.5-24.1,24.7-36.1c0.5-0.7,0.9-1.3,1.3-2
			c-0.4-0.8-1-0.5-1.5-0.5c-10.3,0-20.6,0-30.9-0.1c-1.7,0-2.4,0.8-3.2,2c-8.5,13.5-17.1,26.9-25.7,40.4c-0.6,0.9-1.2,1.9-2.3,2.7
			c0.1-1.9,0.2-3.8,0.4-5.7c1.1-11.7,2.1-23.4,3.2-35.1c0.2-2-0.7-2.3-2.3-2.3c-9.1-0.2-18.2-0.4-27.3-0.8c-1.5-0.1-1.7,0.9-2.2,1.7
			c-8.1,13.7-16.1,27.5-24.2,41.3c-9.3,16-18.7,32-28,48c-0.5,0.8-1.7,1.6-0.8,2.9c-1.5-0.1-3-0.3-4.9-0.4c2.5-4.4,4.9-8.5,7.3-12.6
			c16-27.4,32.1-54.8,48-82.3c1.1-1.8,2.1-2.5,4.3-2.4c10.8,0.5,21.6,0.7,32.3,1c1.5,0,1.9,0.4,1.7,2c-0.9,9.1-1.6,18.1-2.4,27.2
			c-0.1,0.9-0.1,1.8-0.2,2.7c0.9,0,1-0.8,1.3-1.2c6.4-10.1,12.9-20.2,19.2-30.4c1.1-1.8,2.4-2.4,4.4-2.4c13.5,0.1,27,0,41,0
			c-1.9,2.9-3.6,5.4-5.3,8c-24.1,35.2-48.1,70.4-72.2,105.6C502.3,284.7,502.3,284.7,498.9,283z"/>
		<path class="st4" d="M366.3,265c3.6-10.2,7.2-20.5,10.9-30.7c5.8-16.2,11.6-32.4,17.4-48.6c0.6-1.8,0.6-2.3-1.6-2.1
			c-5.5,0.5-11.1,0.7-16.6,0.6c-2.6,0-3.6,0.9-4.5,3.2c-9.3,24.4-18.8,48.8-28.1,73.3c-0.7,1.8-1.5,2.5-3.4,2.4
			c-3.8-0.2-7.6-0.1-11.4,0c-2,0.1-2.3-0.6-1.7-2.4c6.1-18.4,12.2-36.8,18.3-55.2c1.6-5,3.3-9.9,5-15.2c-6.1,0.7-12,1.8-17.9,1.8
			c-5.8,0-8,2.6-9.7,7.9c-6.4,20.2-13.4,40.1-20.2,60.2c-1.6,4.6-3.1,9.3-4.6,14c-1.3,0.3-2.6,0.6-4,0.9c-0.5-0.8,0-1.5,0.2-2.1
			c9.2-27.1,18.4-54.2,27.6-81.3c0.5-1.5,1.1-2.1,2.8-2.3c10.3-1.1,20.6-2.4,31.3-3.6c-8.1,24.5-16.1,48.8-24.3,73.4
			c2.7,0,5.1-0.1,7.5,0c1.3,0,1.4-0.9,1.7-1.7c7.6-19.7,15.2-39.4,22.8-59.2c2.1-5.3,4.1-10.6,6.2-16c0.3-0.8,0.5-1.6,1.7-1.7
			c9.6-0.4,19.2-0.8,29.2-1.2c-2,5.7-4,11.2-5.9,16.6c-7.8,21.8-15.6,43.6-23.4,65.4C370.2,265.1,370.2,265.1,366.3,265z"/>
		<path class="st5" d="M480.8,486.6c-6.4-0.3-11.7-2.4-16.8-5.5c-0.9-0.6-1.9-1-2.6-1.8c-2.6-2.8-5.8-3.1-9.4-3
			c-7.9,0.2-15.7,0.1-24,0.1c2.5-3.4,2.9-6.7,0.7-10c-0.7-1-1.5-1.6-2.8-1.5c-7.8,0.5-15.7,1-23.6,1.3c-3,0.1-6,0-9.1,0
			c-0.1-0.4,0.3-0.7,0.6-1c4.1-4.6,8.3-9,12.2-13.7c2.3-2.9,4.8-3.6,8.1-2.9c20.4,4.5,39.4,11.9,56.1,24.7
			C474.6,476.7,478.5,480.8,480.8,486.6z"/>
		<path class="st4" d="M279,278.7c1.9-10.6,3.7-21.2,5.7-31.8c0.3-1.6-0.7-2-1.6-2.5c-1.3-0.8-1.9-1.2-0.3-2.6
			c5.7-4.7,8.3-11.4,10.4-18.2c2.2-7.1,3.4-14.4,2.9-21.9c-0.2-2.9-0.3-3-3.1-2.3c-21,5-41.9,10-62.9,15c-1.6,0.4-2.2,1-2.5,2.6
			c-0.5,3.4-1.1,6.8-2,10.2c-0.5,2,0.2,2.3,1.9,2.3c4.7-0.1,4.6,0,3.8,4.6c-3.9,22.3-7.8,44.7-11.7,67c-1.3,0.8-2.7,1.7-4.4,2.7
			c1.6-9,3.1-17.5,4.6-26.1c2.5-14.1,4.9-28.2,7.5-42.3c0.4-1.9-0.2-2.2-2-2.2c-4.8,0.1-4.8,0-3.9-4.8c1-5,2.1-10.1,3-15.1
			c0.3-1.5,1.2-1.7,2.3-2c19.3-4.6,38.6-9.2,58-13.8c3.7-0.9,7.4-1.7,11-2.7c1.4-0.4,2.1-0.2,2.7,1.3c2.1,4.6,1.8,9.5,1.3,14.2
			c-1.1,10-3.6,19.6-9.1,28.2c-0.6,0.9-1.3,1.8-2,2.7c-0.6,0.8-1.9,1.5,0,2.4c0.5,0.2,0.3,0.8,0.2,1.3c-1.8,10.6-3.6,21.2-5.6,31.8
			C282.8,278.9,280.5,278.1,279,278.7z"/>
		<path class="st4" d="M413,265.2c2.8-4.4,4.6-9.2,6.9-13.9c11.3-23.7,22.5-47.5,33.8-71.3c1.3-2.6,1.3-2.7-1.7-2.5
			c-8.5,0.6-17,1.4-25.5,2c-1.3,0.1-1.8,0.8-2.3,1.8c-6.5,12.6-12.9,25.2-19.4,37.8c-7.4,14.4-14.8,28.8-22.1,43.2
			c-0.4,0.7-0.6,1.5-0.9,2.2c-1.4,0.3-2.8,0.2-4.5,0.1c4-7.8,8-15.5,11.9-23.2c10.7-20.8,21.4-41.6,32-62.4c1-2,2.1-3,4.5-3.1
			c11.7-0.8,23.4-1.8,35.6-2.8c-1.3,2.7-2.5,5.2-3.6,7.6c-13,27.4-25.9,54.7-38.9,82.1C417.1,266,417.1,266,413,265.2z"/>
		<path class="st4" d="M453.9,270.4c7-12.7,14.1-25.3,21.1-38c1.4-2.6,2.9-5.1,4.7-7.6c-0.7,5.6-1.4,11.2-2.1,16.8
			c-1.4,10.6-2.7,21.2-4.1,31.8c-0.1,0.5,0,1,0,1.4c-3.8-0.7-3.9-0.7-3.4-4.5c1.1-8.7,2.2-17.3,3.3-25.9c0-0.4,0.4-0.8-0.2-1.1
			c-0.1,0.3-0.2,0.5-0.4,0.8c-4.6,8.1-9.2,16.2-13.7,24.3C457.4,271.6,457.4,271.6,453.9,270.4z"/>
		<path class="st2" d="M567.6,290.4c-9.1-7.4-19.8-10.4-31.2-11.4c0-1.8,0.7-3.5,0.9-5.2c0.2-1.2,0.8-1.3,1.9-1.1
			c1.9,0.3,3.8,0.5,5.7,0.7c8.7,1.1,17.4,2.2,26.1,3.3c1,0.1,2,0,1.3,1.6C570.7,282.3,569.2,286.3,567.6,290.4z"/>
		<path class="st4" d="M238.8,292.1c2.8-11.2,5.5-22.5,8.2-33.7c0.2-1,0.7-1.3,1.7-1.4c3.6-0.2,7.2-0.4,10.8-0.7
			c1.3-0.1,1.6,0.2,1.3,1.6c-2,9.3-3.8,18.6-5.8,27.9c-1.3,0.9-2.8,1.1-4.4,1.6c1.9-9.1,3.8-18,5.7-26.9c-1.9-0.7-3.7,0.1-5.5,0.2
			c-1.4,0.1-1,1.5-1.2,2.3c-2.1,8.2-4.2,16.5-6,24.8C243.1,290.9,240.9,291.3,238.8,292.1z"/>
		<path class="st4" d="M567.6,290.4c1.6-4,3.1-8.1,4.8-12.1c0.7-1.6-0.4-1.5-1.3-1.6c-8.7-1.1-17.4-2.2-26.1-3.3
			c-1.9-0.2-3.8-0.4-5.7-0.7c-1-0.2-1.7-0.1-1.9,1.1c-0.2,1.7-0.9,3.4-0.9,5.2c-4.1,0-4.1,0-3.2-3.8c0.2-1,0.5-2,0.7-3
			c0.9-3.9,0.8-3.8,4.9-3.3c12.4,1.6,24.7,3.1,37.1,4.5c1.7,0.2,2.3,0.4,1.5,2.2c-1.5,3.5-2.6,7.1-4.1,10.5c-1.6,3.6-2.4,6.9,0,10.5
			C571.4,294.5,569.5,292.4,567.6,290.4z"/>
		<path class="st0" d="M401,289c3.9,0,7.9,0.1,11.8,0.1c6.4,0,12.4,2,18.5,3.7c6.9,1.9,13.7,4.2,20.5,6.3c0.1,0.3,0.2,0.5,0.5,0.2
			c0,0,0,0,0,0c0,0.9,0.9,1.3,1.4,1.8c5.2,5,10.1,10.1,14.2,16.1c3.5,4.9,5.6,10.2,5.2,16.4c-0.2,3.3,0,6.6,0,9.9
			c-0.4,2.9-0.6,5.8-1.5,8.5c-0.5,1.4-1,2.9-2.5,3.7c-0.9,0.5-1.8,0.5-2.8,0c-1-0.5-0.6-1.4-0.5-2.1c1.4-8-0.1-15.5-4.3-22.5
			c-0.6-1.1-1-2.1-1.2-3.4c-0.9-6-4.4-10.5-8.8-14.3c-8.1-6.9-17.8-10.5-28.2-12.1c-7.6-1.2-15.2-0.9-22.7,1.1
			c-12.3,3.4-20.2,11.9-25.4,23.1c-5.9,12.8-7.1,25.9-0.5,38.8c3.8,7.5,10,12.7,18.2,14.7c2.5,0.6,4.3,1.8,6.2,3.3
			c2.6,2,5.5,3.6,8.6,4.7c4.3,1.6,8.1,0.7,11.2-2.6c2.5-2.6,4.9-5.3,7.5-7.9c8.1-8.3,18.1-11.5,29.4-11.9c1.8-0.1,3.5,0,5.9,0
			c-2.7,1.9-5,3.4-7.2,5c-6.7,4.8-13,10.1-17.9,16.8c-6.4,8.6-7.7,17.7-2.4,27.3c1.1,2,2.1,4,3.1,6c0.5,1.2,1.2,2.4,0.8,4.2
			c-4.2-4.3-8.4-8.1-12.9-11.7c-20-15.8-42.8-25.9-67.2-32.6c-5.7-1.6-11.6-2.7-17.4-3.9c-1.3-1-2.5-2.1-4.3-3.5c11.5,0,22.5,0,34,0
			c-3-2.9-5.7-5.2-7.9-8.1c-6.9-8.8-10.4-18.7-9.9-30c0.4-10.3,4.5-19.3,11-26.8c4.5-5.2,10.9-8.7,17.4-11.5
			C387.4,293.2,394.2,291.2,401,289z"/>
		<path class="st0" d="M140.8,446.2c12.9,8.7,27.8,12,42.7,15.2c14,3.1,28.2,5.3,42.5,6.8c1,0.1,1.4,0.5,1.4,1.5
			c0,6.9,0,13.7,0,20.6c0,0.8-0.1,1.3-1.2,1.1c-24.4-5.5-47.9-13.4-68.5-28.2c-6.1-4.4-11.7-9.4-16.1-15.5c-0.2-0.3-0.5-0.6-0.7-1
			C140.7,446.5,140.8,446.4,140.8,446.2z"/>
		<path class="st0" d="M153.3,480.2c5.7,1.6,11.2,3.6,16.9,5.2c13.6,3.8,27.4,6.5,41.4,8.1c4.9,0.6,9.7,1,14.6,1.3
			c0.8,0.1,1.3,0.2,1.8,1c3.7,6.6,7.5,13.1,11.5,20.2C207.6,510.8,177.8,501.9,153.3,480.2z"/>
		<path class="st1" d="M473.1,343.5c0-3.3-0.2-6.6,0-9.9c0.5-6.2-1.7-11.5-5.2-16.4c-4.1-5.9-9.1-11.1-14.2-16.1
			c-0.5-0.5-1.4-0.9-1.4-1.8c10,2.6,19.6,6.5,29.3,10c7.1,2.6,14.2,5.2,21.4,7.8c0.8,0.3,1.7,0.6,2.4-0.2c3.9-4.9,9.5-7,15.2-8.8
			c6-1.9,12.1-2.9,18.3-3.7c-0.5,2.4-0.5,2.4-1.7,3.6c-5.7,6-9,13.3-11.7,20.9c-0.5,1.4,0.4,1.6,1.3,2c6.6,3,12.8,6.8,18.9,10.8
			c8.7,5.8,16.7,12.6,23.7,20.4c6.2,6.9,11.6,14.3,15.2,22.9c0.4,1.1,1.1,1.8-0.8,2.3c-10.2,2.7-13.8,11.7-8.3,20.9
			c0.2,0.3,0.3,0.5,0.5,0.9c-1,0.6-2,0.5-3,0.6c-11.1,0.5-22.1,2.2-32.6,5.7c-6.6,2.2-13,5.1-18.5,9.6c-1.2,1,0.4,0.8,0.2,1.2
			c-0.8,0.5-1.4,0.2-2.1-0.3c-6.7-4.7-13.2-9.8-18.7-15.9c-6-6.7-11.2-13.9-12.8-23.1c-1.2-6.8,1.8-13.7,7.8-17.3
			c1.8-1.1,3.7-2,5.6-2.7c1.5-0.5,1.8-1.3,1.6-2.7c-1.9-12.2-8.2-21.6-18.3-28.5c-2.7-1.9-5.5-3.6-8.5-5c-2.8-1.3-3-1.2-3,1.8
			c0,2.8,0,5.6,0,8.5C473.5,341.8,473.7,342.7,473.1,343.5z"/>
		<path class="st0" d="M464.5,390.9c18.7,18.6,36.2,38.4,58,53.7c-2,0-4,0-6.1,0c-14.8-0.1-29.6-0.2-44.5-0.2
			c-12.9-0.1-21.4-6.6-23.8-18.6c-1.7-8.4,0.9-16.1,5.5-23.1C456.6,398.3,460.4,394.4,464.5,390.9z M504,436.5
			c-0.2-0.4-0.3-0.5-0.3-0.6c-8.2-6.6-16.4-13.2-24.6-19.8c-3.5-2.8-3.6-2.9-7.3-0.1c-3.7,2.8-5.8,6.5-4.9,11.3
			c0.9,4.6,4,7.2,8.3,8.5c2.2,0.6,4.6,1,6.9,1.3C489.3,437.7,496.5,437.5,504,436.5z"/>
		<path class="st0" d="M417.7,326.4c2.2-0.1,4.9,0.6,7.5,1.8c7.1,3.4,12.5,8.7,16.2,15.6c0.5,0.8,0.8,1.8,1,2.7
			c1.1,4.1,0.4,4.9-3.7,5.2c-3.1,0.3-6.2,0.7-9.4,0.9c-1.3,0.1-1.5,0.9-1.9,1.8c-2.3,5.4-5.4,10.2-10,14c-6.1,5.1-11.6,4.1-15.1-3
			c-4.7-9.4-6.3-19.1-1.3-28.9C404.2,330.2,410.3,326.4,417.7,326.4z"/>
		<path class="st1" d="M452.3,299.4c-0.3,0.2-0.4,0.1-0.5-0.2C452.1,299,452.3,299,452.3,299.4z"/>
		<path class="st3" d="M259.8,237c-1.9,0.5-2.2-0.4-2-1.9c0.3-2.7,0.6-5.4,0.7-8.1c0.1-1.5,0.6-2,2.1-2.2c5.3-0.9,5.3-1,3.7,4
			c-0.6,2.1-1.3,4.1-1.9,6.2C262.1,236.4,261.6,237.7,259.8,237z"/>
		<path class="st2" d="M191.5,261.9c1,0.7,1.8,1.4,2.7,1.9c2.8,1.3,3.4,3.4,3.1,6.4c-1.9,17.1-3.6,34.3-5.3,51.4
			c-0.2,1.6-1.1,1.7-2.2,2.1c-11.1,3.4-22.1,6.9-33.2,10.3c-11.5,3.6-23.1,7.2-34.6,10.7c-2.8,0.9-2.9,0.8-2.6-2.2
			c1-11.9,2.1-23.7,3.2-35.6c0.9-9.5,1.7-18.9,2.5-28.4c0.8-9.3,1.6-18.6,2.5-27.9c0.2-2.1-0.3-2.8-2.5-2.7c-4.9,0.2-4.9,0-4.9-4.9
			c0-2.9,0.1-5.8,0-8.7c0-1.3,0.3-2,1.6-2.5c24.7-9.3,49.4-18.7,74.1-28c1.2-0.4,2.1-0.3,3.2,0.4c6.5,4.1,6.4,4.1,5.3,11.8
			c-1.8,12.4-3.4,24.9-5,37.3c-0.2,1.4-0.7,2.3-1.8,3.2C195.5,258.3,193.6,260.1,191.5,261.9z M155.2,306.2
			C155.2,306.2,155.2,306.2,155.2,306.2c0,0.4-0.1,0.8-0.1,1.2c0.1,0.7-1,2,0.5,2c1.1,0,2.7,0.1,3-1.8c0.9-6.3,1.9-12.5,2.9-18.8
			c0.1-0.5,0.2-1-0.2-1.4c-0.9-0.7-4.4,1.2-4.5,2.4C156.2,295.4,155.7,300.8,155.2,306.2z M165.7,247.8
			C165.7,247.8,165.7,247.8,165.7,247.8c0.1-1.8,0.2-3.7,0-5.5c-0.1-0.7,0.9-2.2-0.9-2.1c-1.3,0.1-2.6,0.3-2.5,2.4
			c0.2,3.8,0.1,7.5,0.2,11.3c0,0.7-0.7,2,0.9,2c1.2-0.1,2.4-0.2,2.3-2C165.6,251.8,165.7,249.8,165.7,247.8z"/>
		<path class="st0" d="M472.9,244.2c0.1-0.3,0.2-0.5,0.4-0.8c0.5,0.3,0.2,0.7,0.2,1.1C473.2,244.4,473,244.3,472.9,244.2z"/>
		<path class="st3" d="M504,436.5c-7.4,1-14.7,1.3-22,0.6c-2.3-0.2-4.6-0.6-6.9-1.3c-4.3-1.2-7.4-3.9-8.3-8.5
			c-0.9-4.8,1.2-8.5,4.9-11.3c3.7-2.8,3.7-2.7,7.3,0.1c8.2,6.6,16.4,13.2,24.6,19.8C503.7,435.9,503.7,436,504,436.5z"/>
		<path class="st4" d="M155.2,306.2c0.5-5.4,1-10.9,1.6-16.3c0.1-1.2,3.6-3.1,4.5-2.4c0.4,0.3,0.3,0.9,0.2,1.4
			c-0.9,6.3-1.9,12.5-2.9,18.8c-0.3,1.8-1.9,1.8-3,1.8c-1.5,0-0.4-1.3-0.5-2C155,307,155.1,306.6,155.2,306.2
			C155.2,306.2,155.2,306.2,155.2,306.2z"/>
		<path class="st4" d="M165.7,247.8c0,2-0.1,4,0,6c0.1,1.8-1.1,2-2.3,2c-1.5,0.1-0.9-1.3-0.9-2c-0.1-3.8,0-7.5-0.2-11.3
			c-0.1-2.1,1.2-2.3,2.5-2.4c1.8-0.2,0.9,1.4,0.9,2.1C165.9,244.1,165.8,245.9,165.7,247.8C165.7,247.8,165.7,247.8,165.7,247.8z"/>
	</g>
</g>
<path class="st2" d="M751.2,52.1c-13.8-0.6-268.8-6-464.4,64.7c-5.2,1.9-10.3,3.8-15.3,5.7c-15.4,6.1-48.5,19.7-57.7,23.9
	c-18.6,8.5-79.8,42.9-83.9,45c0,0,110.3-35.3,141.4-30.9c-26.7,14.6-47.1,33.7-47.1,33.7l0,0c39.4-9.2,77.4-16.6,113.7-22.4
	c207-33.2,355.7-16.5,362.8-15.6c3.4,0.5,4.6-2.5,5.7-4.1l1.8-3.2c2-3.6,1.6-2.9,1.8-3.4c5-8.9,29.7-53.4,45.6-81.5l0,0
	c1-1.7,1.9-3.4,2.8-5C759.6,56,759,52.4,751.2,52.1z"/>
<g>
	<g>
		<g>
			<path d="M305.6,169.9c0-3.8,0-7.6-0.1-11.4c0-0.4,0-0.7,0-1.1c1.4-0.3,2.8-0.5,4.2-0.8c-0.1-9.5-0.4-19.1-0.9-28.6
				c-1.4,0.3-2.8,0.6-4.2,0.9c0-0.5-0.1-1-0.1-1.5c-0.2-3.7-0.4-7.4-0.7-11.2c0-0.4,0-0.7-0.1-1.1c0.3-0.1,0.7-0.2,1-0.2
				c10.9-2.5,22-5.1,32.9-7.7c2.5-0.6,4.9-0.9,6.9-1c3-0.1,5.6,0.4,7.7,1.4c3.9,1.8,6,5.4,6.2,10.6c0.1,2.5-0.3,4.8-1.1,6.8
				c-0.8,1.9-1.9,3.7-3.2,5.1c-1.3,1.4-2.6,2.6-4,3.5c-0.1,0.1-0.2,0.1-0.3,0.2c0,0,0,0,0.1,0c1.7,0.1,3.3,0.5,4.8,1.2
				c1.6,0.8,2.9,2,4,3.7c1.1,1.7,1.7,4.1,1.7,7c0,2.9-0.6,5.6-1.7,7.8c-1.1,2.2-2.7,4.2-4.7,5.8c-1.9,1.6-4.2,2.9-6.7,3.9
				c-2.5,1-5.1,1.7-7.8,2.2c-10.9,1.9-21.9,3.8-32.7,5.6c-0.5,0.1-1,0.2-1.5,0.2C305.6,170.9,305.6,170.4,305.6,169.9z M331.6,143
				c0.1,3.2,0.1,6.5,0.2,9.7c0.9-0.2,1.9-0.3,2.8-0.5c1.1-0.2,1.8-0.6,2.3-1.2c0.5-0.6,0.7-1.6,0.7-2.9c0-1.1,0-2.1,0-3.2
				c0-1.2-0.3-2.1-0.6-2.4c-0.3-0.2-0.6-0.3-1.2-0.3c-0.3,0-0.5,0-0.9,0.1C333.8,142.6,332.7,142.8,331.6,143z M330.9,123.3
				c0.1,3,0.3,6,0.4,9c0.8-0.2,1.5-0.3,2.3-0.5c1.1-0.2,1.8-0.6,2.3-1.2c0.5-0.6,0.7-1.6,0.6-2.9c0-0.9-0.1-1.7-0.1-2.6
				c0-1.2-0.3-2-0.7-2.3c-0.2-0.2-0.6-0.3-1.1-0.3c-0.3,0-0.6,0.1-0.9,0.1C332.8,122.9,331.8,123.1,330.9,123.3z"/>
			<path class="st6" d="M344.7,107.8c2.8-0.1,5.2,0.4,7.2,1.3c3.5,1.6,5.3,4.8,5.5,9.5c0.1,2.3-0.2,4.4-1,6.2
				c-0.8,1.8-1.8,3.4-3,4.7c-1.2,1.3-2.4,2.4-3.8,3.3c-1.3,0.9-2.5,1.5-3.4,1.9c0,0.2,0,0.5,0,0.7c0.5-0.1,1.1-0.1,1.8-0.1
				c0.6,0,1.3,0,2.1,0c1.5,0.1,2.9,0.4,4.3,1.1c1.4,0.7,2.6,1.7,3.5,3.2c1,1.5,1.5,3.6,1.5,6.4c0,2.7-0.5,5.2-1.6,7.3
				c-1.1,2.1-2.5,3.9-4.3,5.4c-1.8,1.5-3.9,2.7-6.3,3.7c-2.4,0.9-4.9,1.6-7.6,2.1c-10.9,1.9-21.8,3.8-32.7,5.6c0-3.8,0-7.6-0.1-11.4
				c1.4-0.3,2.8-0.5,4.2-0.8c-0.1-10.4-0.5-20.8-1-31.1c-1.4,0.3-2.8,0.6-4.2,0.9c-0.2-3.7-0.4-7.5-0.7-11.2
				c11-2.5,21.9-5.1,32.9-7.7C340.4,108.1,342.7,107.8,344.7,107.8 M330.1,133.9c1.3-0.3,2.5-0.5,3.8-0.8c1.4-0.3,2.4-0.9,3-1.7
				c0.7-0.9,1-2.1,0.9-3.7c0-0.9-0.1-1.7-0.1-2.6c-0.1-1.6-0.5-2.7-1.2-3.3c-0.5-0.4-1.1-0.6-1.9-0.5c-0.4,0-0.8,0.1-1.2,0.2
				c-1.3,0.3-2.5,0.6-3.8,0.8C329.8,126.2,330,130,330.1,133.9 M330.5,154.2c1.4-0.3,2.8-0.5,4.3-0.8c1.4-0.3,2.4-0.8,3-1.6
				c0.7-0.8,1-2.1,1-3.7c0-1.1,0-2.1,0-3.2c0-1.6-0.4-2.7-1.1-3.3c-0.5-0.4-1.2-0.6-2-0.6c-0.3,0-0.7,0.1-1.1,0.1
				c-1.4,0.3-2.8,0.6-4.3,0.9C330.4,146,330.5,150.1,330.5,154.2 M344.6,105.3C344.6,105.3,344.6,105.3,344.6,105.3
				c-2.2,0.1-4.6,0.4-7.2,1c-10.9,2.6-22,5.2-32.9,7.7c-0.7,0.2-1.4,0.3-2.1,0.5c0,0.7,0.1,1.4,0.1,2.1c0.3,3.7,0.5,7.4,0.7,11.1
				c0.1,1,0.1,2,0.2,2.9c1-0.2,1.9-0.4,2.9-0.6c0.4-0.1,0.9-0.2,1.3-0.3c0.4,8.6,0.7,17.3,0.8,26c-0.7,0.1-1.4,0.3-2.1,0.4
				c-0.7,0.1-1.4,0.3-2.1,0.4c0,0.7,0,1.4,0,2.1c0,3.8,0.1,7.6,0.1,11.4c0,1,0,2,0,3c1-0.2,1.9-0.3,2.9-0.5
				c10.8-1.8,21.9-3.7,32.7-5.6c2.8-0.5,5.5-1.2,8.1-2.2c2.6-1,5-2.4,7-4.1c2.1-1.7,3.8-3.8,5-6.2c1.3-2.4,1.9-5.3,1.9-8.4
				c0-3.2-0.7-5.8-1.9-7.7c-1.2-1.9-2.8-3.2-4.5-4.1c-0.7-0.4-1.5-0.6-2.3-0.9c0.7-0.6,1.4-1.3,2.1-2.1c1.4-1.5,2.5-3.3,3.4-5.4
				c0.9-2.2,1.3-4.6,1.2-7.3c-0.3-7.1-3.9-10.2-7-11.6C350.6,105.7,347.8,105.2,344.6,105.3L344.6,105.3z M332.2,124.3
				c0.6-0.1,1.1-0.3,1.7-0.4c0.3-0.1,0.5-0.1,0.7-0.1c0.1,0,0.2,0,0.3,0c0.1,0.1,0.2,0.5,0.2,1.4c0,0.8,0.1,1.7,0.1,2.6
				c0.1,1.4-0.2,1.9-0.4,2.1c-0.3,0.4-0.8,0.6-1.5,0.8c-0.3,0.1-0.6,0.1-0.9,0.2C332.4,128.7,332.3,126.5,332.2,124.3L332.2,124.3z
				 M332.9,144c0.7-0.1,1.5-0.3,2.2-0.4c0.2,0,0.5-0.1,0.6-0.1c0.1,0,0.2,0,0.3,0c0.1,0.2,0.2,0.6,0.2,1.4c0,1,0,2.1,0,3.1
				c0,1.4-0.3,2-0.4,2.1c-0.3,0.4-0.8,0.6-1.5,0.7c-0.4,0.1-0.9,0.2-1.3,0.2C333,148.8,332.9,146.4,332.9,144
				C332.9,144,332.9,144,332.9,144z"/>
		</g>
		<g>
			<path d="M367,159.7c0.2-4,0.3-8.2,0.4-12.2c0-0.3,0-0.7,0-1c1.4-0.2,2.8-0.4,4.2-0.7c0.3-10.3,0.4-20.7,0.3-30.9
				c-1.4,0.3-2.8,0.5-4.2,0.8c0-0.5,0-1,0-1.5c0-4-0.1-8.1-0.2-12c0-0.3,0-0.7,0-1c0.3-0.1,0.7-0.1,1-0.2c11-2.3,22.1-4.6,33.1-6.8
				c2.3-0.5,4.5-0.7,6.4-0.8c0.6,0,1.2,0,1.7,0c2.6,0.1,4.8,0.8,6.6,1.9c1.8,1.2,3.3,2.9,4.2,5.2c1,2.2,1.4,5,1.4,8.4
				c0,3.6-0.7,6.9-2,9.8c-1,2.3-2.5,4.1-4.2,5.6c1.3,0.3,2.4,0.9,3.2,1.8c1.6,1.6,2.3,4,2.2,7.3c0,1.5-0.1,3-0.1,4.5
				c1.1-0.2,2.2-0.4,3.3-0.5c0,0.5,0,1-0.1,1.5c-0.2,4.3-0.3,8.6-0.5,13c0,0.3,0,0.7-0.1,1c-0.3,0.1-0.7,0.1-1,0.2
				c-7.4,1.1-14.8,2.2-22.2,3.3c-0.5,0.1-1,0.1-1.5,0.2c0-0.5,0-1,0.1-1.5c0.3-6,0.5-12.1,0.7-18.1c0-1.4-0.1-2.5-0.3-3.2
				c-0.2-0.6-0.5-1-0.8-1.2c-0.5-0.3-1.1-0.4-1.9-0.4c-0.1,0-0.1,0-0.2,0c-0.7,0-1.4,0.1-2.3,0.2c-0.1,3.3-0.1,6.7-0.2,10
				c1.5-0.2,3.1-0.5,4.6-0.7c0,0.5,0,1,0,1.5c-0.1,4.2-0.3,8.4-0.5,12.6c0,0.3,0,0.7,0,1c-0.3,0-0.7,0.1-1,0.1
				c-9.4,1.4-18.9,2.7-28.4,4.1c-0.5,0.1-1,0.1-1.5,0.2C366.9,160.7,367,160.2,367,159.7z M394.2,110.6c0,3.3,0,6.6,0,9.9
				c0.8-0.1,1.5-0.3,2.3-0.4c1.1-0.2,1.8-0.6,2.3-1.2c0.5-0.7,0.8-1.7,0.8-3.2c0-0.9,0-1.8,0-2.7c0-1.9-0.4-2.5-0.6-2.6
				c-0.1-0.1-0.4-0.3-1.1-0.3c-0.2,0-0.5,0-0.8,0.1C396,110.3,395.1,110.4,394.2,110.6z"/>
			<path class="st6" d="M408,94.6c0.6,0,1.1,0,1.6,0c2.3,0.1,4.3,0.7,6,1.7c1.6,1,2.9,2.6,3.8,4.6c0.9,2.1,1.3,4.7,1.3,7.9
				c0,3.4-0.7,6.5-1.9,9.3c-1.3,2.8-3.1,4.9-5.5,6.4c0,0.3,0,0.5,0.1,0.8c4.5,0,6.7,2.7,6.5,8.1c-0.1,2-0.1,4-0.2,6.1
				c1.1-0.2,2.2-0.4,3.3-0.5c-0.2,4.3-0.3,8.6-0.5,13c-7.4,1.1-14.8,2.2-22.2,3.3c0.3-6.1,0.5-12.1,0.7-18.1c0-1.5-0.1-2.8-0.4-3.7
				c-0.3-0.9-0.8-1.5-1.4-1.9c-0.7-0.4-1.5-0.6-2.5-0.6c-0.1,0-0.2,0-0.2,0c-1,0-2.1,0.1-3.5,0.4c-0.1,4.2-0.2,8.3-0.3,12.5
				c1.5-0.2,3.1-0.5,4.6-0.7c-0.1,4.2-0.3,8.4-0.5,12.6c-9.5,1.4-18.9,2.7-28.4,4.1c0.2-4.1,0.3-8.2,0.4-12.2
				c1.4-0.2,2.8-0.4,4.2-0.7c0.3-11.2,0.4-22.4,0.3-33.5c-1.4,0.3-2.8,0.5-4.2,0.8c0-4-0.1-8-0.2-12.1c11-2.3,22-4.5,33.1-6.8
				C404,94.9,406.1,94.6,408,94.6 M392.9,122c1.3-0.2,2.5-0.5,3.8-0.7c1.4-0.2,2.4-0.8,3.1-1.7c0.7-0.9,1-2.2,1-3.9
				c0-0.9,0-1.8,0-2.8c0-1.7-0.3-2.9-1-3.5c-0.5-0.5-1.2-0.7-2-0.7c-0.3,0-0.7,0-1,0.1c-1.3,0.2-2.5,0.5-3.8,0.7
				C392.9,113.7,392.9,117.9,392.9,122 M408,92.1c-2.1,0-4.3,0.3-6.7,0.8c-11,2.3-22.1,4.6-33.1,6.8c-0.7,0.1-1.4,0.3-2.1,0.4
				c0,0.7,0,1.4,0.1,2.1c0.1,4,0.2,8,0.2,12c0,1,0,2,0,3c1-0.2,2-0.4,3-0.6c0.4-0.1,0.8-0.2,1.2-0.2c0.1,9.4,0,18.9-0.3,28.3
				c-0.7,0.1-1.4,0.2-2.1,0.3c-0.7,0.1-1.4,0.2-2.1,0.3c0,0.7,0,1.4-0.1,2.1c-0.1,4-0.3,8.1-0.4,12.2c0,1-0.1,2-0.1,3
				c1-0.1,2-0.3,3-0.4c9.4-1.3,19-2.7,28.4-4.1c0.2,0,0.4-0.1,0.6-0.1c0,0,0,0,0,0c0.2,0,0.3,0,0.5-0.1c0.3,0,0.7-0.1,1-0.1
				c0,0,0,0,0,0c0.5-0.1,1-0.1,1.5-0.2c7.4-1.1,14.8-2.2,22.2-3.3c0.7-0.1,1.4-0.2,2-0.3c0-0.7,0.1-1.4,0.1-2
				c0.2-4.3,0.4-8.7,0.6-13c0-1,0.1-2,0.1-3c-1,0.2-2,0.3-3,0.5c-0.1,0-0.2,0-0.3,0c0-1,0.1-2,0.1-3c0.1-3.6-0.8-6.4-2.6-8.2
				c-0.5-0.5-1.1-1-1.8-1.3c1.2-1.3,2.3-2.9,3.1-4.6c1.4-3.1,2.2-6.6,2.2-10.4c0-3.5-0.5-6.5-1.5-8.9c-1.1-2.5-2.7-4.4-4.7-5.7
				c-2-1.3-4.4-2-7.2-2.1C409.2,92.1,408.6,92.1,408,92.1L408,92.1z M395.4,111.7c0.6-0.1,1.2-0.2,1.8-0.3c0.2,0,0.4-0.1,0.6-0.1
				c0.1,0,0.2,0,0.3,0c0.1,0.2,0.2,0.6,0.2,1.7c0,0.9,0,1.8,0,2.7c0,1.5-0.3,2.2-0.5,2.4c-0.1,0.1-0.4,0.6-1.5,0.8
				c-0.3,0-0.5,0.1-0.8,0.1C395.5,116.6,395.4,114.1,395.4,111.7C395.4,111.7,395.4,111.7,395.4,111.7z M395.3,133.5
				c0.4,0,0.7-0.1,1-0.1c0.1,0,0.1,0,0.2,0c0.7,0,1.1,0.1,1.3,0.2c0.1,0,0.2,0.2,0.3,0.5c0.1,0.4,0.3,1.3,0.3,2.8
				c0,1.1-0.1,2.3-0.1,3.4c-0.5,0.1-1,0.2-1.5,0.2c-0.5,0.1-1.1,0.2-1.6,0.3C395.2,138.4,395.2,136,395.3,133.5L395.3,133.5z"/>
		</g>
		<g>
			<path d="M451.8,151c-2.6,0-5.1-0.3-7.4-0.9c-3.4-0.9-6.3-2.6-8.6-5.2c-2.3-2.5-3.9-5.9-5-10.1c-1.1-4.1-1.4-9.2-1.2-15.4
				c0.3-6.1,1.1-11.3,2.5-15.8c1.4-4.5,3.4-8.4,5.8-11.5c2.5-3.2,5.5-5.7,9-7.6c3.5-1.9,7.4-3.2,11.6-4c2.2-0.4,4.4-0.6,6.4-0.6
				c1.8,0,3.6,0.1,5.3,0.5c3.6,0.7,6.7,2.3,9.1,4.8c2.4,2.5,4.3,6,5.4,10.3c1.2,4.4,1.6,9.8,1.3,16.1c-0.3,6.4-1.3,12-2.9,16.7
				c-1.6,4.7-3.7,8.7-6.3,11.8c-2.6,3.2-5.8,5.6-9.3,7.4c-3.5,1.7-7.4,2.8-11.6,3.3C454.4,150.9,453.1,150.9,451.8,151z M459.5,97.7
				c-0.3,0-0.5,0-0.8,0.1c-1.3,0.2-2.2,0.7-2.8,1.6c-0.7,0.9-1,2.3-1.1,4.2c-0.3,8.4-0.6,16.9-1.1,25.3c-0.1,2.3,0.3,3.3,0.6,3.7
				c0.2,0.3,0.6,0.6,1.7,0.6l0,0c0.2,0,0.4,0,0.7,0c1.3-0.2,2.2-0.6,2.9-1.5c0.7-0.9,1.1-2.3,1.2-4.2c0.5-8.4,0.9-17,1.2-25.5
				c0.1-2.4-0.4-3.3-0.7-3.7C460.8,98.1,460.4,97.7,459.5,97.7z"/>
			<path class="st6" d="M464.8,81.1c1.8,0,3.4,0.1,5,0.4c3.3,0.6,6.2,2.1,8.4,4.4c2.3,2.3,4,5.6,5.1,9.8c1.1,4.2,1.6,9.5,1.3,15.7
				c-0.3,6.3-1.3,11.8-2.8,16.4c-1.5,4.6-3.6,8.4-6.1,11.4c-2.5,3-5.5,5.4-8.9,7c-3.4,1.6-7.2,2.7-11.2,3.2
				c-1.3,0.2-2.6,0.2-3.9,0.2c-2.5,0-4.9-0.3-7.1-0.8c-3.2-0.8-5.9-2.5-8-4.8c-2.1-2.4-3.7-5.6-4.7-9.6c-1-4-1.4-9-1.1-15
				c0.2-5.9,1-11.1,2.4-15.5c1.4-4.4,3.2-8.1,5.6-11.1c2.4-3,5.2-5.4,8.6-7.3c3.4-1.8,7.1-3.1,11.2-3.8
				C460.8,81.3,462.9,81.1,464.8,81.1 M455.9,134.5c0.3,0,0.5,0,0.8-0.1c1.6-0.2,2.8-0.9,3.7-1.9c0.9-1.1,1.4-2.7,1.5-4.9
				c0.5-8.5,0.9-17,1.2-25.5c0.1-2.2-0.3-3.7-1.1-4.6c-0.6-0.7-1.4-1-2.5-1c-0.3,0-0.7,0-1,0.1c-1.6,0.3-2.8,1-3.6,2.1
				c-0.8,1.1-1.3,2.7-1.3,4.9c-0.3,8.4-0.6,16.8-1.1,25.3c-0.1,2.2,0.2,3.7,0.9,4.6C453.8,134.1,454.7,134.5,455.9,134.5
				 M464.8,78.6C464.8,78.6,464.8,78.6,464.8,78.6c-2.1,0-4.3,0.2-6.6,0.6c-4.3,0.8-8.4,2.2-12,4.1c-3.7,2-6.8,4.6-9.4,7.9
				c-2.5,3.2-4.6,7.2-6,11.9c-1.4,4.6-2.3,9.9-2.5,16.1c-0.3,6.3,0.1,11.5,1.2,15.7c1.1,4.4,2.9,8,5.3,10.6c2.5,2.7,5.6,4.6,9.3,5.6
				c2.4,0.6,5,0.9,7.7,0.9c1.3,0,2.7-0.1,4.1-0.3c4.3-0.5,8.4-1.6,12-3.4c3.7-1.8,7-4.4,9.8-7.7c2.7-3.3,4.9-7.4,6.6-12.2
				c1.6-4.8,2.6-10.6,2.9-17.1c0.3-6.5-0.1-12-1.3-16.5c-1.2-4.6-3.2-8.2-5.8-10.9c-2.6-2.7-5.9-4.4-9.8-5.1
				C468.6,78.7,466.7,78.6,464.8,78.6L464.8,78.6z M455.9,132c-0.2,0-0.6,0-0.7-0.2c0,0-0.5-0.6-0.3-2.8c0.5-8.4,0.9-16.9,1.1-25.3
				c0.1-2,0.5-3,0.8-3.5c0.3-0.4,0.8-0.9,2-1.1c0.2,0,0.5-0.1,0.6-0.1c0.2,0,0.5,0,0.6,0.1l0,0c0,0,0.5,0.6,0.4,2.8
				c-0.3,8.4-0.7,17-1.1,25.4c-0.1,2.1-0.6,3.1-1,3.5c-0.3,0.4-0.8,0.8-2,1C456.2,132,456,132,455.9,132L455.9,132z"/>
		</g>
		<g>
			<path d="M497.9,143.3c-0.9-16.7-2.2-33.6-4-50.1c-1,0.1-2.1,0.2-3.1,0.3c0-0.5,0.1-1,0.1-1.5c0.4-4.6,0.7-9.2,1-13.7
				c0-0.3,0-0.7,0.1-1c0.4,0,0.7-0.1,1.1-0.1c9.4-1.1,18.8-2.1,28.2-3.2c0.5-0.1,1-0.1,1.5-0.2c0,0.5-0.1,1-0.1,1.5
				c-0.3,4.7-0.7,9.5-1.1,14.2c0,0.3-0.1,0.7-0.1,1c-1.5,0.1-3,0.3-4.5,0.4c0.2,8,0.2,16.1,0.2,24.1c3.8-13.6,7.4-27.4,10.7-41
				c0.1-0.3,0.1-0.6,0.2-0.9c0.3,0,0.6-0.1,0.9-0.1c6.8-0.8,13.7-1.5,20.5-2.3c0.4,0,0.9-0.1,1.3-0.1c0,0.4,0.1,0.9,0.1,1.3
				c1.2,13.3,2,26.8,2.6,40.3c1.8-8.4,3.6-16.9,5.2-25.4c-1.5,0.1-3,0.3-4.4,0.4c0-0.5,0.1-1,0.1-1.5c0.4-4.9,0.8-9.8,1.2-14.6
				c0-0.3,0.1-0.7,0.1-1c0.3,0,0.7-0.1,1-0.1c8.2-0.9,16.5-1.8,24.7-2.7c0.5-0.1,1-0.1,1.5-0.2c0,0.5-0.1,1-0.1,1.5
				c-0.4,4.9-0.8,10-1.3,15c0,0.3-0.1,0.7-0.1,1c-1,0.1-2,0.2-3,0.3c-4.7,18.5-9.9,37.2-15.5,55.6c-0.1,0.3-0.2,0.6-0.3,0.8
				c-0.3,0-0.6,0-0.9,0c-8.1,0.4-16.3,0.8-24.4,1.1c-0.4,0-0.8,0-1.3,0.1c0-0.4,0-0.8,0-1.3c-0.4-10.2-0.9-20.6-1.6-30.8
				c-3.1,10.6-6.4,21.2-9.7,31.8c-0.1,0.3-0.2,0.6-0.3,0.8c-0.3,0-0.6,0-0.9,0c-8.1,0.4-16.3,0.8-24.4,1.2c-0.4,0-0.8,0-1.3,0.1
				C497.9,144.1,497.9,143.7,497.9,143.3z"/>
			<path class="st6" d="M581.6,68.6c-0.4,5-0.8,10-1.3,15c-0.9,0.1-1.9,0.2-2.8,0.3c-4.8,18.9-10,37.7-15.7,56.4
				c-8.1,0.4-16.3,0.8-24.4,1.1c-0.4-12.1-1.1-24.1-1.9-35.9c-0.2,0-0.5,0-0.7,0.1c-3.5,12.2-7.2,24.4-11.1,36.5
				c-8.1,0.4-16.3,0.8-24.4,1.2c-0.9-17.3-2.3-34.5-4.1-51.4c-0.9,0.1-1.9,0.2-2.8,0.3c0.4-4.6,0.7-9.2,1-13.8
				c9.4-1.1,18.8-2.1,28.2-3.2c-0.3,4.7-0.7,9.4-1.1,14.1c-1.5,0.2-3.1,0.3-4.6,0.5c0.2,10.6,0.3,21.3,0.2,32c0.2,0,0.5,0,0.7,0
				c4.5-15.7,8.7-31.6,12.6-47.5c6.8-0.8,13.7-1.5,20.5-2.3c1.4,15.6,2.3,31.4,2.9,47.3c0.2,0,0.5,0,0.7,0c2.5-11.3,4.9-22.6,7-33.9
				c-1.5,0.1-3.1,0.3-4.6,0.4c0.4-4.9,0.8-9.8,1.2-14.6C565.1,70.4,573.4,69.5,581.6,68.6 M584.4,65.8c-1,0.1-2,0.2-3,0.3
				c-8.2,0.9-16.5,1.8-24.7,2.7c-0.7,0.1-1.4,0.2-2.1,0.2c-0.1,0.7-0.1,1.4-0.2,2.1c-0.4,4.6-0.7,9.3-1.2,13.9
				c-0.3-4.4-0.7-8.8-1-13.2c-0.1-0.9-0.1-1.7-0.2-2.6c-0.9,0.1-1.7,0.2-2.6,0.3c-6.8,0.7-13.7,1.5-20.5,2.3
				c-0.6,0.1-1.2,0.1-1.8,0.2c-0.1,0.6-0.3,1.1-0.4,1.7c-1.2,5.1-2.5,10.2-3.8,15.4c0.4-4.6,0.8-9.2,1.1-13.7c0.1-1,0.1-2,0.2-3
				c-1,0.1-2,0.2-3,0.3c-9.4,1-18.9,2.1-28.2,3.2c-0.7,0.1-1.4,0.2-2.1,0.2c0,0.7-0.1,1.4-0.1,2.1c-0.3,4.6-0.6,9.2-1,13.7
				c-0.1,1-0.2,2-0.2,3c1-0.1,2-0.2,3-0.3c0.1,0,0.2,0,0.3,0c1.7,16.1,3,32.5,3.9,48.8c0,0.8,0.1,1.7,0.1,2.5c0.8,0,1.7-0.1,2.5-0.1
				c8.1-0.4,16.3-0.8,24.4-1.2c0.6,0,1.2-0.1,1.7-0.1c0.2-0.6,0.4-1.1,0.5-1.7c2.7-8.3,5.3-16.6,7.8-25c0.5,7.9,0.9,15.8,1.1,23.6
				c0,0.8,0.1,1.7,0.1,2.5c0.8,0,1.7-0.1,2.5-0.1c8.1-0.4,16.3-0.8,24.4-1.1c0.6,0,1.2-0.1,1.8-0.1c0.2-0.6,0.3-1.1,0.5-1.7
				c5.5-18.1,10.7-36.6,15.3-54.8c0.2,0,0.4,0,0.6-0.1c0.2,0,0.3,0,0.5,0c0.7-0.1,1.4-0.1,2.1-0.2c0.1-0.7,0.1-1.4,0.2-2.1
				c0.5-5,0.9-10,1.3-15C584.2,67.8,584.3,66.8,584.4,65.8L584.4,65.8z M553.5,88.6c0.8-0.1,1.6-0.2,2.5-0.2c0.4,0,0.8-0.1,1.2-0.1
				c-0.9,4.7-1.9,9.4-2.9,14.2C554.1,97.8,553.8,93.2,553.5,88.6L553.5,88.6z M518.3,92.1c0.6-0.1,1.3-0.1,1.9-0.2
				c0.1,0,0.3,0,0.4,0c0.6-0.1,1.1-0.1,1.7-0.2c-1.2,4.7-2.5,9.4-3.8,14.1C518.4,101.2,518.3,96.6,518.3,92.1
				C518.3,92.1,518.3,92.1,518.3,92.1z"/>
		</g>
		<g>
			<path d="M642.4,142.3c-6.5-0.2-12.9-0.4-19.4-0.6c-0.3,0-0.6,0-0.9,0c-0.1-0.3-0.2-0.6-0.2-0.9c-3.6-12.7-7.5-25.4-11.7-37.8
				c-1,6.8-2.1,13.6-3.2,20.3c1.4,0,2.8,0,4.2,0.1c-0.1,0.5-0.2,1-0.2,1.4c-0.9,5.1-1.8,10.3-2.7,15.5c-0.1,0.4-0.1,0.7-0.2,1.1
				c-0.4,0-0.7,0-1.1,0c-8.1-0.2-16.1-0.4-24.2-0.6c-0.5,0-1,0-1.5,0c0.1-0.5,0.2-1,0.3-1.4c0.9-5,1.8-10,2.6-15.1
				c0.1-0.4,0.1-0.7,0.2-1.1c1.4,0,2.8,0,4.2,0c2.1-13,4.1-26.1,5.8-39.1c-1.4,0-2.8,0.1-4.2,0.1c0.1-0.5,0.1-1,0.2-1.5
				c0.6-5,1.3-10.1,1.8-15.1c0-0.4,0.1-0.7,0.1-1.1c0.4,0,0.7,0,1.1,0c8.7-0.4,17.5-0.7,26.2-1c0.3,0,0.6,0,0.9,0
				c0.1,0.3,0.2,0.6,0.3,0.8c4.1,10.8,8,21.8,11.6,32.8c0.8-5.4,1.6-10.8,2.3-16.1c-1.4,0-2.8,0.1-4.2,0.1c0.1-0.5,0.1-1,0.2-1.4
				c0.7-5.1,1.4-10.4,2-15.6c0-0.4,0.1-0.7,0.1-1.1c0.4,0,0.7,0,1.1,0c8.3-0.3,16.5-0.5,24.8-0.8c0.5,0,1,0,1.5,0
				c-0.1,0.5-0.1,1-0.2,1.4c-0.7,5.3-1.4,10.7-2.1,16c0,0.4-0.1,0.7-0.1,1.1c-1.4,0-2.8,0-4.2,0.1c-2.7,19.5-5.9,39.2-9.6,58.6
				c-0.1,0.4-0.1,0.7-0.2,1.1C643.1,142.3,642.7,142.3,642.4,142.3z"/>
			<path class="st6" d="M658.5,65.4c-0.7,5.3-1.4,10.7-2.1,16c-1.4,0-2.8,0-4.2,0.1c-2.7,19.9-6,39.8-9.7,59.6
				c-6.5-0.2-13-0.4-19.4-0.6c-4.1-14.6-8.6-28.8-13.4-42.9c-1.3,9-2.7,17.9-4.2,26.9c1.4,0,2.8,0,4.2,0.1
				c-0.9,5.1-1.8,10.3-2.7,15.4c-8.1-0.2-16.1-0.4-24.2-0.6c0.9-5,1.8-10.1,2.6-15.1c1.4,0,2.8,0,4.2,0c2.3-13.9,4.3-27.7,6.1-41.6
				c-1.4,0-2.8,0.1-4.2,0.1c0.6-5,1.3-10.1,1.8-15.1c8.7-0.4,17.5-0.7,26.2-1c4.7,12.4,9.1,25,13.3,37.8c1.2-7.6,2.3-15.2,3.3-22.8
				c-1.4,0-2.8,0.1-4.2,0.1c0.7-5.2,1.4-10.4,2-15.6C642,65.9,650.2,65.6,658.5,65.4 M661.4,62.8c-1,0-2,0.1-3,0.1
				c-8.3,0.2-16.5,0.5-24.8,0.8c-0.7,0-1.5,0.1-2.2,0.1c-0.1,0.7-0.2,1.4-0.3,2.1c-0.6,5.2-1.3,10.4-2,15.6c-0.1,1-0.3,1.9-0.4,2.9
				c1,0,2,0,3-0.1c0.4,0,0.8,0,1.3,0c-0.4,3.1-0.9,6.2-1.3,9.4c-3.2-9.4-6.5-18.7-10-27.9c-0.2-0.6-0.4-1.1-0.6-1.7
				c-0.6,0-1.2,0-1.8,0.1c-8.7,0.3-17.5,0.7-26.2,1c-0.7,0-1.4,0.1-2.2,0.1c-0.1,0.7-0.2,1.4-0.2,2.1c-0.6,5-1.2,10.1-1.8,15.1
				c-0.1,1-0.2,1.9-0.4,2.9c1,0,2-0.1,3-0.1c0.4,0,0.8,0,1.3,0c-1.6,12.1-3.4,24.4-5.4,36.5c-0.7,0-1.3,0-2,0c-0.7,0-1.4,0-2.2,0
				c-0.1,0.7-0.2,1.4-0.3,2.1c-0.8,5-1.7,10.1-2.6,15.1c-0.2,1-0.3,1.9-0.5,2.9c1,0,2,0,2.9,0.1c8.1,0.2,16.1,0.4,24.2,0.6
				c0.7,0,1.4,0,2.2,0.1c0.1-0.7,0.3-1.4,0.4-2.1c0.9-5.1,1.9-10.3,2.7-15.5c0.2-1,0.3-1.9,0.5-2.9c-1,0-2,0-2.9,0
				c-0.4,0-0.8,0-1.2,0c0.8-4.6,1.5-9.1,2.2-13.7c3.5,10.8,6.9,21.8,10,32.8c0.2,0.6,0.3,1.2,0.5,1.8c0.6,0,1.2,0,1.8,0.1
				c6.5,0.2,12.9,0.4,19.4,0.6c0.7,0,1.4,0,2.2,0.1c0.1-0.7,0.3-1.4,0.4-2.1c3.6-19.1,6.8-38.5,9.5-57.6c0.7,0,1.4,0,2.1,0
				c0.7,0,1.4,0,2.2,0c0.1-0.7,0.2-1.4,0.3-2.1c0.7-5.3,1.5-10.7,2.1-16C661.1,64.7,661.3,63.8,661.4,62.8
				C661.4,62.8,661.4,62.8,661.4,62.8z"/>
		</g>
		<g>
			<path d="M679.4,147.3c-1.2,0-2.4-0.1-3.6-0.3c-4.2-0.5-8.3-1.6-12-3.2c-3.7-1.6-6.6-3.2-8.7-5c-0.2-0.2-0.4-0.3-0.6-0.5
				c0.1-0.2,0.1-0.5,0.2-0.7c1.5-6.4,2.9-12.9,4.2-19.3c0.1-0.4,0.2-0.7,0.2-1.1c0.4,0,0.7,0.1,1.1,0.1c5,0.5,10.1,1,15.1,1.5
				c0.5,0,0.9,0.1,1.4,0.1c-0.1,0.5-0.2,0.9-0.3,1.4c-0.5,2.2-0.4,3.3-0.2,3.8c0.2,0.6,1.2,0.9,2,1c0.2,0,0.4,0,0.6,0
				c0.8,0,1.5-0.1,1.9-0.4c0.5-0.4,0.9-1.1,1.1-2.2c0.1-0.7,0.1-1.2-0.2-1.7c-0.2-0.3-0.7-1.1-2.3-2.3c-3-2.2-5.6-4.3-7.8-6.2
				c-2.3-2-4.1-4.2-5.5-6.4c-1.3-2.3-2.2-5-2.5-7.9c-0.3-2.9-0.1-6.3,0.6-10.3c0.7-3.7,1.7-7.1,3.1-10.1c1.4-3,3.3-5.6,5.6-7.6
				c2.3-2.1,5.2-3.6,8.6-4.6c3-0.8,6.5-1.2,10.4-1.1c0.5,0,1.1,0,1.6,0.1c4.2,0.2,8.1,1.1,11.6,2.6c0.9,0.4,1.8,0.8,2.6,1.2
				c2.3,1.2,4.3,2.7,5.9,4.4c0.1,0.2,0.3,0.3,0.4,0.5c0,0.2-0.1,0.4-0.1,0.6c-1.1,6-2.2,12.1-3.4,18.2c-0.1,0.4-0.1,0.7-0.2,1.1
				c-0.4,0-0.8-0.1-1.1-0.1c-4.8-0.4-9.7-0.8-14.5-1.2c-0.5,0-0.9-0.1-1.4-0.1c0.1-0.5,0.2-0.9,0.3-1.4c0.4-2.2,0-2.9-0.1-3
				c-0.4-0.5-0.9-0.7-1.6-0.8c-0.2,0-0.3,0-0.5,0c-1,0-1.7,0.1-2.2,0.4c-0.6,0.4-0.9,1.3-1,2.1c-0.2,1,0.1,1.3,0.2,1.4
				c0.5,0.5,1.4,1.2,2.6,1.9c2.4,1.5,4.8,3.1,6.9,4.7c2.2,1.7,4.1,3.8,5.5,6.2c1.5,2.4,2.4,5.3,2.8,8.5c0.4,3.2,0.1,7.1-0.8,11.5
				c-2,9-5.6,15.6-10.6,19.6C690.7,145.9,685.5,147.5,679.4,147.3z"/>
			<path class="st6" d="M692.1,65.6c0.5,0,1,0,1.6,0.1c4.1,0.2,7.8,1.1,11.1,2.5c0.9,0.4,1.7,0.8,2.5,1.2c2.2,1.2,4.1,2.6,5.6,4.1
				c-1.1,6.1-2.2,12.1-3.4,18.2c-4.8-0.4-9.7-0.8-14.5-1.2c0.4-1.9,0.3-3.3-0.4-4c-0.6-0.8-1.4-1.2-2.5-1.3c-0.2,0-0.4,0-0.5,0
				c-1.3,0-2.2,0.2-2.9,0.6c-0.8,0.5-1.3,1.5-1.6,2.9c-0.2,1.1,0,2,0.6,2.6c0.6,0.6,1.6,1.3,2.9,2.1c2.4,1.5,4.7,3,6.8,4.7
				c2.1,1.6,3.8,3.6,5.2,5.8c1.4,2.3,2.3,4.9,2.6,8c0.4,3.1,0.1,6.8-0.8,11.1c-1.9,8.8-5.4,15.1-10.2,18.9c-4,3.2-8.9,4.6-14.7,4.5
				c-1.1,0-2.3-0.1-3.5-0.3c-4.2-0.5-8-1.6-11.6-3.1c-3.6-1.5-6.4-3.1-8.4-4.8c1.5-6.4,2.9-12.9,4.3-19.3c5,0.5,10.1,1,15.1,1.5
				c-0.4,2-0.5,3.5-0.1,4.5c0.3,1,1.4,1.6,3.1,1.8c0.3,0,0.5,0,0.7,0.1c1.1,0,2-0.2,2.7-0.7c0.8-0.6,1.3-1.6,1.6-2.9
				c0.2-0.9,0.1-1.8-0.3-2.5c-0.4-0.8-1.3-1.7-2.7-2.8c-3-2.2-5.6-4.3-7.8-6.2c-2.2-1.9-3.9-4-5.2-6.1c-1.3-2.2-2.1-4.6-2.4-7.4
				c-0.3-2.8-0.1-6.1,0.6-9.9c0.7-3.7,1.7-6.9,3-9.8c1.3-2.9,3.1-5.3,5.3-7.2c2.2-2,4.9-3.4,8.1-4.3
				C684.9,65.8,688.3,65.5,692.1,65.6 M692.2,63.1c-4-0.1-7.7,0.3-10.8,1.2c-3.6,1-6.7,2.7-9.1,4.9c-2.4,2.2-4.4,4.9-5.9,8
				c-1.4,3-2.5,6.5-3.2,10.4c-0.8,4.1-1,7.6-0.7,10.6c0.3,3.1,1.2,5.9,2.7,8.4c1.4,2.4,3.3,4.7,5.7,6.8c1.6,1.4,3.4,2.9,5.4,4.4
				c-0.3,0-0.5-0.1-0.8-0.1c-5-0.5-10.1-1-15.1-1.5c-0.7-0.1-1.5-0.1-2.2-0.2c-0.2,0.7-0.3,1.5-0.5,2.2c-1.4,6.4-2.8,12.9-4.2,19.3
				c-0.1,0.5-0.2,1-0.3,1.5c0.4,0.3,0.8,0.7,1.1,1c2.2,1.9,5.2,3.6,9,5.2c3.8,1.6,8,2.7,12.3,3.2c1.3,0.2,2.5,0.3,3.7,0.3
				c6.4,0.2,11.9-1.5,16.3-5c5.3-4.2,9-11,11.1-20.3c1-4.6,1.3-8.6,0.9-12c-0.4-3.4-1.4-6.4-3-9c-1.5-2.5-3.5-4.7-5.8-6.5
				c-1.3-1-2.7-2-4.2-3c0,0,0,0,0,0c4.8,0.4,9.7,0.8,14.5,1.2c0.8,0.1,1.5,0.1,2.3,0.2c0.1-0.7,0.3-1.5,0.4-2.2
				c1.2-6,2.3-12.2,3.4-18.2c0.1-0.4,0.1-0.8,0.2-1.2c-0.3-0.3-0.6-0.6-0.9-0.9c-1.7-1.8-3.8-3.3-6.2-4.6c-0.8-0.4-1.8-0.9-2.7-1.3
				c-3.6-1.5-7.6-2.4-12-2.7C693.3,63.1,692.7,63.1,692.2,63.1C692.2,63.1,692.2,63.1,692.2,63.1z M689.5,89.4c0-0.1,0-0.2,0-0.4
				c0.2-0.9,0.4-1.2,0.5-1.2c0,0,0.4-0.2,1.4-0.2c0.1,0,0.3,0,0.4,0c0.4,0,0.6,0.1,0.7,0.3c0,0.1,0.2,0.7-0.1,2.1
				c-0.1,0.4-0.2,0.9-0.3,1.3c-0.1-0.1-0.2-0.1-0.3-0.2C690.5,90.3,689.9,89.7,689.5,89.4L689.5,89.4z M677.5,123.7
				c-0.1-0.3-0.2-1.2,0.2-3.1c0.1-0.5,0.2-1.1,0.3-1.6c0.2,0.2,0.5,0.4,0.8,0.6c1.6,1.2,1.9,1.8,1.9,1.9c0.1,0.1,0.2,0.4,0,0.9
				c-0.2,0.7-0.4,1.2-0.7,1.4c0,0-0.3,0.2-1.1,0.2c-0.2,0-0.3,0-0.5,0C677.9,123.9,677.6,123.8,677.5,123.7L677.5,123.7z"/>
		</g>
	</g>
</g>
</svg>
