<?xml version="1.0" encoding="UTF-8" standalone="no"?>
<svg width="180px" height="123px" viewBox="0 0 180 123" version="1.1" xmlns="http://www.w3.org/2000/svg" xmlns:xlink="http://www.w3.org/1999/xlink">
    <!-- Generator: Sketch 49.1 (51147) - http://www.bohemiancoding.com/sketch -->
    <title>Crouters_Cannibals</title>
    <desc>Created with Sketch.</desc>
    <defs>
        <polygon id="path-1" points="0.000397370958 0.0952222222 179.044 0.0952222222 179.044 76.014 0.000397370958 76.014"></polygon>
    </defs>
    <g id="Page-1" stroke="none" stroke-width="1" fill="none" fill-rule="evenodd">
        <g id="Crouters_Cannibals">
            <path d="M136.006,60.6 C132.525,71.599 128.293,79.383 120.39,89.316 C106.279,107.054 90.519,116.312 89.856,116.697 L89.57,116.864 L89.285,116.693 C88.493,116.221 69.733,104.915 58.105,88.035 L58.064,87.976 C57.272,86.9 38.66,61.315 40.363,36.7 C41.349,22.465 48.382,9.46 51.014,6.683 L51.309,6.372 L51.697,6.58 C51.822,6.645 64.42,13.152 88.149,13.152 C88.499,13.152 88.85,13.15 89.206,13.148 C111.275,12.965 124.193,8.435 126.979,6.863 L127.246,6.712 L127.758,6.2 L128.142,6.745 C128.388,7.094 134.214,15.432 137.406,28.635 C139.805,38.554 139.296,50.206 136.006,60.6 Z M142.45,27.76 C139.057,13.729 132.082,4.525 131.815,4.148 L129.046,0.23 L123.831,2.954 C121.257,4.224 109.637,8.14 89.122,8.31 C66.101,8.487 54.115,2.368 54.019,2.319 L50.442,0.197 L47.75,3.588 C44.251,7.279 36.163,23.056 35.106,38.325 C33.302,64.376 52.074,88.33 53.174,89.829 C65.353,107.492 85.446,120.253 86.272,120.745 L89.581,123 L93.402,120.454 C94.096,120.051 109.276,110.511 123.909,92.117 C132.19,81.709 136.631,73.535 140.294,61.957 C143.824,50.802 145.037,38.452 142.45,27.76 Z" id="Fill-1" fill="#9E9F9E"></path>
            <path d="M52.315,10.565 C49.7,14.615 44.552,25.048 43.729,36.933 C42.103,60.414 60.615,85.753 60.802,86.007 L60.859,86.085 C70.262,99.755 84.971,109.909 89.583,112.895 C93.769,110.201 106.459,101.41 117.75,87.217 C125.37,77.638 129.447,70.149 132.789,59.582 C137.205,45.63 135.196,33.846 134.128,29.429 C131.967,20.497 128.5,13.838 126.648,10.696 C121.178,12.976 108.667,16.361 89.234,16.52 C69.457,16.678 57.082,12.544 52.315,10.565 Z M89.554,119.473 L88.133,118.626 C87.323,118.142 68.156,106.59 56.254,89.311 C55.088,87.728 36.367,61.859 38.12,36.545 C39.158,21.539 46.497,8.179 49.383,5.136 L50.857,3.58 L52.748,4.59 C52.863,4.651 65.36,11.09 89.188,10.899 C111.47,10.717 123.912,6.012 125.873,4.904 L128.054,2.724 L129.979,5.447 C130.235,5.81 136.299,14.488 139.593,28.107 C142.085,38.414 141.56,50.505 138.151,61.279 C134.578,72.567 130.241,80.546 122.15,90.717 C107.769,108.794 91.663,118.25 90.985,118.643 L89.554,119.473 Z" id="Fill-2" fill="#1A1919"></path>
            <path d="M51.422,7.07 C51.422,7.07 64.224,13.915 89.211,13.71 C114.197,13.505 126.931,7.823 127.684,7.07 C127.684,7.07 133.655,15.516 136.86,28.769 C138.783,36.72 139.331,48.228 135.47,60.43 C131.785,72.075 127.265,79.77 119.95,88.966 C105.734,106.836 89.574,116.212 89.574,116.212 C89.574,116.212 70.232,104.671 58.543,87.677 C58.543,87.677 39.205,61.568 40.924,36.738 C41.905,22.562 48.963,9.665 51.422,7.07" id="Fill-3" fill="#A42B2F"></path>
            <path d="M89.574,113.3 C89.574,113.3 68.847,100.618 52.738,75.269 C33.014,44.225 50.973,10.822 52.295,10.822 C52.295,10.822 66.423,16.648 89.574,16.181 L89.574,113.3" id="Fill-4" fill="#FFFFFE"></path>
            <text id="C" font-family="LucidaGrande, Lucida Grande" font-size="10.2252" font-weight="normal" fill="#1A1919">
                <tspan x="51.3135" y="20.4728305">C</tspan>
            </text>
            <text id="R" font-family="LucidaGrande, Lucida Grande" font-size="12.2236" font-weight="normal" fill="#1A1919">
                <tspan x="61.4131" y="22.9668461">R</tspan>
            </text>
            <text id="O" font-family="LucidaGrande, Lucida Grande" font-size="13.718" font-weight="normal" fill="#1A1919">
                <tspan x="71.9556" y="23.9724398">O</tspan>
            </text>
            <text id="U" font-family="LucidaGrande, Lucida Grande" font-size="14.9113" font-weight="normal" fill="#1A1919">
                <tspan x="82.2163" y="24.3815494">U</tspan>
            </text>
            <text id="T" font-family="LucidaGrande, Lucida Grande" font-size="15.7106" font-weight="normal" fill="#1A1919">
                <tspan x="92.4365" y="24.4499863">T</tspan>
            </text>
            <text id="E" font-family="LucidaGrande, Lucida Grande" font-size="16.4649" font-weight="normal" fill="#1A1919">
                <tspan x="100.255" y="24.1895213">E</tspan>
            </text>
            <text id="R" font-family="LucidaGrande, Lucida Grande" font-size="17.4346" font-weight="normal" fill="#1A1919">
                <tspan x="109.467" y="23.1070723">R</tspan>
            </text>
            <text id="S" font-family="LucidaGrande, Lucida Grande" font-size="18.7276" font-weight="normal" fill="#1A1919">
                <tspan x="120.499" y="20.5549617">S</tspan>
            </text>
            <g id="Group-8" transform="translate(0.000000, 31.000000)">
                <mask id="mask-2" fill="white">
                    <use xlink:href="#path-1"></use>
                </mask>
                <g id="Clip-6"></g>
                <path d="M27.354,8.988 C26.397,9.129 25.282,9.451 24.79,9.652 L24.79,0.113 L20.629,0.113 C20.406,0.073 19.591,0.113 18.443,0.113 C15.993,0.113 11.351,0.718 7.721,4.753 C6.243,6.297 -0.533,14.245 0.034,29.479 C0.704,47.505 7.679,58.268 18.69,58.268 C19.187,58.268 24.79,58.268 24.79,58.268 L24.79,55.242 L50.755,55.242 L60.727,76.014 L60.463,55.242 L69.119,55.242 C69.119,55.242 71.13,60.353 73.127,64.322 C74.655,67.359 78.824,73.618 78.824,73.618 L78.824,17.21 L86.113,8.694 L33.112,8.694 C33.112,8.694 29.205,8.714 27.354,8.988" id="Fill-5" fill="#9E9F9E" mask="url(#mask-2)"></path>
                <path d="M178.949,46.162 L178.922,45.584 L178.768,45.035 C176.4,36.529 173.436,25.86 171.573,19.114 L178.954,26.189 L178.954,2.033 L161.546,2.033 C157.037,2.033 154.331,5.394 153.727,8.507 L153.691,8.694 L133.079,8.694 L133.105,8.725 C132.683,8.704 131.621,8.694 131.173,8.694 C126.105,8.694 123.746,10.539 122.152,12.54 C119.227,9.685 115.144,8.73 112.585,8.694 L94.681,8.694 L100.804,17.077 L100.804,46.757 L95.64,55.242 L153.632,55.242 L153.632,58.091 L171.171,58.091 C175.036,58.091 177.879,56.125 178.774,52.839 C178.972,52.116 179.165,50.945 178.949,46.162" id="Fill-7" fill="#9E9F9E" mask="url(#mask-2)"></path>
            </g>
            <path d="M57.652,79.723 L57.652,47.155 L58.029,46.704 L58.479,47.296 L58.479,78.595 L57.652,79.723 Z M40.46,47.281 L40.46,78.611 L39.992,79.267 L39.537,78.547 L39.537,47.662 C39.537,45.179 36.619,42.505 30.214,42.505 C23.097,42.505 22.275,46.972 22.243,47.16 L22.213,47.344 L22.213,57.724 L19.696,64.853 L22.345,64.853 L22.345,78.519 L21.979,79.067 L21.979,68.882 L16.921,74.622 C16.723,74.494 16.418,74.232 16.024,73.697 C14.271,71.324 13.194,66.858 12.823,60.425 C12.44,53.794 15.473,46.58 16.525,45.782 C16.76,45.612 16.952,45.492 17.101,45.41 C17.498,45.97 17.915,46.537 17.919,46.543 L21.979,51.154 L21.979,34.387 L20.131,34.051 C20.013,34.03 19.383,33.925 18.443,33.925 C16.453,33.925 12.687,34.411 9.782,37.666 C8.929,38.549 2.304,45.887 2.843,60.374 C3.451,76.706 9.375,86.456 18.69,86.456 C19.099,86.456 19.52,86.436 19.939,86.396 L21.979,86.207 L21.979,83.432 L52.123,83.432 L49.388,78.641 L49.388,73.841 L53.595,85.847 L57.652,94.733 L57.652,83.432 L70.446,83.432 L67.526,78.625 L67.526,73.514 L72.412,86.988 L76.013,94.213 L76.013,47.172 L80.007,42.505 L36.923,42.505 L40.46,47.281 Z" id="Fill-9" fill="#1A1919"></path>
            <path d="M113.062,67.476 C113.501,67.856 113.922,68.509 114.084,69.701 C114.469,72.546 113.388,73.822 113.078,74.008 C113.074,74.011 113.068,74.013 113.062,74.017 L113.062,67.476 Z M113.062,57.517 L113.062,51.965 C113.508,52.281 113.931,52.829 114.088,53.871 C114.438,56.214 113.513,57.284 113.161,57.476 C113.14,57.487 113.107,57.501 113.062,57.517 Z M176.14,77.29 L176.129,77.034 L176.06,76.789 C173.441,67.384 169.016,51.462 167.54,46.052 L171.397,46.052 L176.142,50.601 L176.142,35.846 L161.546,35.846 C158.189,35.846 156.767,38.599 156.485,40.052 L156.443,40.267 L156.443,45.371 L156.797,46.644 C161.189,62.453 164.019,72.636 165.09,76.473 L161.478,76.473 L158.379,73.692 L159.408,68.973 L153.305,74.547 L152.311,74.547 L152.311,47.258 L155.402,42.505 L139.011,42.505 L142.9,47.262 L142.9,78.523 L142.233,79.448 L141.599,78.511 L141.599,47.662 C141.599,45.179 138.532,42.505 131.799,42.505 C124.359,42.505 123.477,46.946 123.443,47.136 L123.409,47.332 L123.409,57.699 L121.146,63.704 C120.672,63.079 120.181,62.583 119.74,62.198 C121.397,60.476 123.509,57.024 122.76,50.985 C121.94,44.379 115.757,42.55 112.585,42.505 L100.216,42.505 L103.616,47.16 L103.616,78.544 L100.642,83.432 L112.996,83.432 L113.133,83.415 C119.721,82.604 122.654,79.378 123.257,72.277 C123.541,68.938 122.849,66.552 121.897,64.853 L123.551,64.853 L123.551,78.481 L120.026,83.432 L156.255,83.432 L156.443,82.569 L156.443,86.28 L171.171,86.28 C174.672,86.28 175.739,84.285 176.063,83.096 C176.136,82.831 176.355,82.027 176.14,77.29 Z" id="Fill-10" fill="#1A1919"></path>
            <path d="M18.443,35.049 C16.636,35.049 13.221,35.489 10.606,38.432 C10.056,38.995 3.437,46.095 3.966,60.333 C4.549,75.986 10.052,85.332 18.69,85.332 C19.064,85.332 19.451,85.313 19.835,85.276 L20.855,85.183 L20.855,71.859 L17.332,75.855 C17.037,75.902 16.234,75.877 15.119,74.366 C13.234,71.813 12.084,67.144 11.7,60.49 C11.304,53.629 14.455,45.892 15.866,44.87 C16.815,44.183 17.313,44.108 17.482,44.108 C17.551,44.108 17.578,44.121 17.576,44.121 C17.982,44.73 18.79,45.83 18.825,45.876 L20.855,48.635 L20.855,35.326 L19.931,35.158 C19.87,35.146 19.308,35.049 18.443,35.049" id="Fill-11" fill="#FFFFFE"></path>
            <path d="M30.016,78.915 L30.016,63.663 L31.866,63.663 L31.866,78.686 L30.927,80.236 L30.016,78.915 Z M30.016,56.984 L31.8,56.984 L31.8,50.109 L30.016,50.109 L30.016,56.984 Z M67.683,46.853 L67.683,52.461 L64.432,43.629 L47.546,43.629 L49.452,46.846 L49.452,52.301 L46.343,43.629 L39.155,43.629 L41.585,46.91 L41.585,78.972 L39.936,81.279 L38.412,78.873 L38.412,47.662 C38.412,46.042 36.229,43.629 30.214,43.629 C24.042,43.629 23.378,47.193 23.353,47.345 L23.337,47.437 L23.337,57.916 L21.286,63.728 L23.469,63.728 L23.469,78.858 L21.171,82.307 L50.517,82.307 L48.263,78.985 L48.263,67.23 L51.612,76.787 L55.062,86.28 L56.528,89.089 L56.528,46.747 L58.068,44.898 L59.604,46.918 L59.604,78.964 L57.151,82.307 L68.721,82.307 L66.402,78.977 L66.402,67.067 L72.706,84.588 L74.888,89.951 L74.888,46.756 L77.564,43.629 L65.721,43.629 L67.683,46.853 Z" id="Fill-12" fill="#FFFFFE"></path>
            <path d="M131.511,78.895 L131.511,63.663 L133.638,63.663 L133.638,78.669 L132.565,80.327 L131.511,78.895 Z M131.511,56.984 L133.568,56.984 L133.568,50.109 L131.511,50.109 L131.511,56.984 Z M151.187,75.671 L151.187,46.925 L153.329,43.629 L141.384,43.629 L144.025,46.86 L144.025,78.888 L142.203,81.411 L140.474,78.854 L140.474,47.662 C140.474,46.042 138.163,43.629 131.799,43.629 C125.284,43.629 124.578,47.183 124.551,47.334 L124.533,47.431 L124.533,57.904 L122.339,63.728 L124.675,63.728 L124.675,78.841 L122.207,82.307 L155.349,82.307 L157.556,72.187 L153.741,75.671 L151.187,75.671 Z" id="Fill-13" fill="#FFFFFE"></path>
            <path d="M175.017,77.341 L175.011,77.214 L174.976,77.091 C172.146,66.926 166.909,48.08 166.071,44.927 L171.849,44.927 L175.018,47.966 L175.018,36.97 L161.546,36.97 C158.923,36.97 157.81,39.128 157.589,40.27 L157.567,40.375 L157.567,45.217 L157.608,45.365 C157.949,46.591 165.688,74.45 166.572,77.596 L161.047,77.596 L157.567,74.477 L157.567,85.154 L171.171,85.154 C173.787,85.154 174.685,83.874 174.978,82.8 C175.192,82.016 175.095,79.043 175.017,77.341" id="Fill-14" fill="#FFFFFE"></path>
            <path d="M111.938,65.835 C111.983,65.834 112.027,65.832 112.071,65.832 C112.328,65.832 112.436,65.86 112.423,65.852 L112.565,65.912 C113.242,66.181 114.827,66.812 115.198,69.552 C115.643,72.841 114.385,74.535 113.657,74.973 C113.308,75.181 112.691,75.31 111.938,75.336 L111.938,65.835 Z M112.457,50.444 L112.6,50.496 C113.27,50.737 114.841,51.304 115.2,53.705 C115.632,56.589 114.407,58.079 113.698,58.464 C113.34,58.658 112.708,58.778 111.938,58.801 L111.938,50.421 C111.983,50.42 112.027,50.419 112.071,50.419 C112.344,50.419 112.453,50.444 112.457,50.444 Z M117.987,62.262 L117.985,62.261 C119.473,61.141 122.493,57.975 121.644,51.123 C120.921,45.287 115.412,43.67 112.585,43.629 L102.43,43.629 L104.74,46.794 L104.74,78.859 L102.642,82.307 L112.927,82.307 L112.996,82.299 C119.019,81.559 121.582,78.722 122.137,72.182 C122.696,65.602 119.275,63.176 117.987,62.262 Z" id="Fill-15" fill="#FFFFFE"></path>
            <path d="M19.73,45.209 L19.73,36.264 C19.73,36.264 14.81,35.37 11.427,39.2 C11.427,39.2 4.561,46.076 5.09,60.29 C5.619,74.506 10.503,85.018 19.73,84.158 L19.73,74.835 L17.983,76.818 C17.983,76.818 16.264,77.81 14.214,75.034 C12.164,72.257 10.974,67.431 10.577,60.555 C10.181,53.68 13.289,45.349 15.206,43.961 C17.123,42.571 18.115,42.902 18.511,43.498 C18.907,44.092 19.73,45.209 19.73,45.209" id="Fill-16" fill="#A42B2F"></path>
            <path d="M28.891,58.108 L32.924,58.108 L32.924,48.984 L28.891,48.984 L28.891,58.108 Z M31.668,81.182 L38.544,81.182 L37.288,79.198 C37.288,79.198 37.288,48.588 37.288,47.662 C37.288,46.737 35.503,44.754 30.214,44.754 C24.924,44.754 24.462,47.531 24.462,47.531 L24.462,58.108 L22.875,62.604 L24.594,62.604 L24.594,79.198 L23.272,81.182 L30.214,81.182 L28.891,79.265 L28.891,62.538 L32.99,62.538 L32.99,79.001 L31.668,81.182 Z" id="Fill-17" fill="#A42B2F"></path>
            <path d="M130.387,58.108 L134.692,58.108 L134.692,48.984 L130.387,48.984 L130.387,58.108 Z M133.351,81.182 L140.691,81.182 L139.349,79.198 C139.349,79.198 139.349,48.588 139.349,47.662 C139.349,46.737 137.444,44.754 131.799,44.754 C126.152,44.754 125.658,47.531 125.658,47.531 L125.658,58.108 L123.964,62.604 L125.799,62.604 L125.799,79.198 L124.388,81.182 L131.799,81.182 L130.387,79.265 L130.387,62.538 L134.763,62.538 L134.763,79.001 L133.351,81.182 Z" id="Fill-18" fill="#A42B2F"></path>
            <polyline id="Fill-19" fill="#A42B2F" points="41.387 44.754 45.552 44.754 50.577 58.77 50.577 46.539 49.519 44.754 56.726 44.754 55.403 46.341 55.403 84.207 47.139 60.621 47.139 79.332 48.395 81.182 41.387 81.182 42.709 79.332 42.709 46.539 41.387 44.754"></polyline>
            <polyline id="Fill-20" fill="#A42B2F" points="59.37 44.754 63.647 44.754 68.807 58.77 68.807 46.539 67.721 44.754 75.122 44.754 73.764 46.341 73.764 84.207 65.277 60.621 65.277 79.332 66.567 81.182 59.37 81.182 60.728 79.332 60.728 46.539 59.37 44.754"></polyline>
            <polyline id="Fill-21" fill="#A42B2F" points="143.756 44.754 151.257 44.754 150.062 46.591 150.062 76.796 154.178 76.796 155.704 75.401 154.444 81.182 143.756 81.182 145.15 79.252 145.15 46.459 143.756 44.754"></polyline>
            <path d="M158.692,76.994 L160.617,78.72 L167.454,78.72 C167.454,78.72 168.118,78.92 167.721,77.525 C167.322,76.131 158.692,45.064 158.692,45.064 L158.692,40.484 C158.692,40.484 159.156,38.095 161.546,38.095 C163.936,38.095 173.893,38.095 173.893,38.095 L173.893,45.331 L172.3,43.803 L164.998,43.803 C164.998,43.803 164.6,43.58 164.866,44.754 C165.131,45.928 173.893,77.393 173.893,77.393 C173.893,77.393 174.093,81.773 173.893,82.505 C173.695,83.234 173.097,84.031 171.171,84.031 C169.247,84.031 158.692,84.031 158.692,84.031 L158.692,76.994" id="Fill-22" fill="#A42B2F"></path>
            <path d="M114.235,59.453 C113.013,60.116 110.814,59.894 110.814,59.894 L110.814,49.394 C110.814,49.394 112.28,49.173 112.858,49.394 C113.437,49.614 115.824,50.277 116.312,53.539 C116.801,56.8 115.457,58.789 114.235,59.453 Z M114.235,75.936 C113.013,76.67 110.814,76.425 110.814,76.425 L110.814,64.816 C110.814,64.816 112.28,64.572 112.858,64.816 C113.437,65.061 115.824,65.795 116.312,69.4 C116.801,73.004 115.457,75.204 114.235,75.936 Z M117.045,62.968 C116.068,62.219 116.801,61.701 116.801,61.701 C118.512,60.724 121.322,57.668 120.528,51.262 C119.734,44.855 112.585,44.754 112.585,44.754 L104.642,44.754 L105.865,46.427 L105.865,79.176 L104.642,81.182 L112.858,81.182 C117.897,80.563 120.467,78.563 121.017,72.088 C121.566,65.61 118.023,63.717 117.045,62.968 Z" id="Fill-23" fill="#A42B2F"></path>
            <path d="M96.875,37.167 C96.875,37.167 99.604,38.986 100.018,39.317 C100.431,39.647 101.753,40.517 102.787,39.813 C103.822,39.109 104.814,37.745 104.814,37.167 C104.814,36.588 104.483,36.091 104.152,35.927 C103.822,35.761 103.615,34.893 104.318,34.312 C105.021,33.734 106.427,32.577 106.675,31.461 C106.923,30.344 105.765,28.358 104.607,27.531 C103.45,26.705 102.54,26.863 101.299,28.128 C100.059,29.393 97.784,32.039 96.875,32.493 C95.965,32.949 94.177,33.155 93.809,32.783 C93.442,32.411 92.574,31.833 91.912,32.411 C91.251,32.99 90.176,34.148 89.39,33.072 C88.604,31.997 87.475,31.874 87.006,32.701 C86.537,33.527 84.979,33.321 84.31,33.072 C83.642,32.824 82.236,32.783 81.615,32.493 C80.995,32.203 79.383,31.005 78.762,30.468 C78.142,29.931 77.316,29.475 76.944,30.426 C76.571,31.377 75.703,32.913 75.455,33.613 C75.206,34.312 75.122,35.843 76.343,35.927 C77.564,36.009 79.052,35.927 79.052,36.753 C79.052,37.58 79.238,39.854 81.316,39.895 C83.394,39.936 83.449,38.614 83.897,37.745 C84.345,36.877 84.51,36.464 86.04,36.422 C87.57,36.381 88.728,36.34 88.728,36.959 C88.728,37.58 88.698,38.843 88.279,39.101 C87.86,39.358 87.269,39.523 87.006,39.771 C86.743,40.019 86.371,40.889 85.255,40.805 C84.138,40.723 80.169,42.336 78.101,44.32 C76.034,46.305 73.199,50.157 73.552,54.576 C73.552,54.576 72.354,53.005 71.816,52.22 C71.279,51.434 70.41,50.333 69.624,50.759 C68.839,51.185 66.606,54.204 65.737,56.436 C64.868,58.67 64.621,61.729 66.647,63.549 C68.674,65.369 70.369,66.239 71.071,67.851 C71.774,69.464 74.132,71.2 75.414,70.994 C76.695,70.787 76.82,70.828 77.192,71.407 C77.564,71.986 78.432,74.261 79.217,77.774 C80.003,81.291 81.948,89.271 82.484,92.416 C83.022,95.557 83.534,99.776 83.878,101.762 C84.221,103.746 85.721,107.096 88.279,107.014 C90.838,106.93 92.408,103.993 94.476,98.163 C96.544,92.334 97.288,86.543 97.329,84.352 C97.37,82.16 97.536,78.354 98.487,75.957 C99.438,73.558 101.092,68.057 101.671,67.81 C102.25,67.561 103.533,68.019 105.352,66.674 C107.171,65.328 109.983,61.703 110.397,61.324 C110.81,60.944 111.472,59.456 110.851,57.638 C110.231,55.817 108.536,53.367 108.081,52.71 C107.626,52.055 107.047,51.786 106.427,52.416 C105.807,53.046 104.442,54.576 104.194,54.66 C103.946,54.742 104.152,54.163 104.442,53.502 C104.732,52.841 104.938,51.475 103.78,49.242 C102.623,47.009 100.431,44.528 98.364,43.412 C96.296,42.295 93.773,41.261 92.864,40.764 C91.954,40.268 91.086,39.895 91.086,38.532 C91.086,37.167 91.375,36.216 91.871,36.133 C92.368,36.05 92.616,36.34 92.823,36.63 C93.029,36.918 94.106,36.918 94.498,36.836 C94.89,36.754 96.216,36.726 96.875,37.167 Z" id="Stroke-24" stroke="#FFFFFE" stroke-width="2.249"></path>
            <path d="M96.875,37.167 C96.875,37.167 99.604,38.986 100.018,39.317 C100.431,39.647 101.753,40.517 102.787,39.813 C103.822,39.109 104.814,37.745 104.814,37.167 C104.814,36.588 104.483,36.091 104.152,35.927 C103.822,35.761 103.615,34.893 104.318,34.312 C105.021,33.734 106.427,32.577 106.675,31.461 C106.923,30.344 105.765,28.358 104.607,27.531 C103.45,26.705 102.54,26.863 101.299,28.128 C100.059,29.393 97.784,32.039 96.875,32.493 C95.965,32.949 94.177,33.155 93.809,32.783 C93.442,32.411 92.574,31.833 91.912,32.411 C91.251,32.99 90.176,34.148 89.39,33.072 C88.604,31.997 87.475,31.874 87.006,32.701 C86.537,33.527 84.979,33.321 84.31,33.072 C83.642,32.824 82.236,32.783 81.615,32.493 C80.995,32.203 79.383,31.005 78.762,30.468 C78.142,29.931 77.316,29.475 76.944,30.426 C76.571,31.377 75.703,32.913 75.455,33.613 C75.206,34.312 75.122,35.843 76.343,35.927 C77.564,36.009 79.052,35.927 79.052,36.753 C79.052,37.58 79.238,39.854 81.316,39.895 C83.394,39.936 83.449,38.614 83.897,37.745 C84.345,36.877 84.51,36.464 86.04,36.422 C87.57,36.381 88.728,36.34 88.728,36.959 C88.728,37.58 88.698,38.843 88.278,39.101 C87.86,39.358 87.269,39.523 87.006,39.771 C86.742,40.019 86.371,40.889 85.255,40.805 C84.138,40.723 80.169,42.336 78.101,44.32 C76.034,46.305 73.199,50.157 73.552,54.576 C73.552,54.576 72.354,53.005 71.816,52.22 C71.279,51.434 70.41,50.333 69.624,50.759 C68.839,51.185 66.606,54.204 65.737,56.436 C64.868,58.67 64.621,61.729 66.647,63.549 C68.674,65.369 70.369,66.239 71.071,67.851 C71.774,69.464 74.132,71.2 75.414,70.994 C76.695,70.787 76.82,70.828 77.192,71.407 C77.564,71.986 78.432,74.261 79.217,77.774 C80.003,81.291 81.948,89.271 82.484,92.416 C83.022,95.557 83.534,99.776 83.878,101.762 C84.221,103.746 85.72,107.096 88.278,107.014 C90.838,106.93 92.408,103.993 94.476,98.163 C96.544,92.334 97.288,86.543 97.329,84.352 C97.37,82.16 97.536,78.354 98.487,75.957 C99.438,73.558 101.092,68.057 101.671,67.81 C102.25,67.561 103.533,68.019 105.352,66.674 C107.171,65.328 109.983,61.703 110.397,61.324 C110.81,60.944 111.472,59.456 110.851,57.638 C110.231,55.817 108.536,53.367 108.081,52.71 C107.626,52.055 107.047,51.786 106.427,52.416 C105.807,53.046 104.442,54.576 104.194,54.66 C103.946,54.742 104.152,54.163 104.442,53.502 C104.732,52.841 104.938,51.475 103.78,49.242 C102.623,47.009 100.431,44.528 98.364,43.412 C96.296,42.295 93.773,41.261 92.864,40.764 C91.954,40.268 91.086,39.895 91.086,38.532 C91.086,37.167 91.375,36.216 91.871,36.133 C92.368,36.05 92.616,36.34 92.823,36.63 C93.029,36.918 94.106,36.918 94.498,36.836 C94.89,36.754 96.216,36.726 96.875,37.167" id="Fill-25" fill="#1A1919"></path>
            <path d="M84.816,47.132 L87.239,49.494 C87.239,49.494 85.603,50.402 86.027,51.25 C86.451,52.098 87.42,52.825 87.904,52.552 C88.389,52.279 88.844,51.825 88.844,51.825 L90.115,53.46 C90.115,53.46 88.631,54.943 86.936,54.157 C85.24,53.369 83.756,51.887 83.907,50.433 C84.059,48.979 84.816,47.132 84.816,47.132" id="Fill-26" fill="#FFFFFE"></path>
            <path d="M93.9,52.31 C93.9,52.31 94.718,53.4 95.414,53.218 C96.11,53.036 96.867,52.036 96.171,51.099 L97.957,49.92 C97.957,49.92 98.411,51.038 97.957,52.339 C97.503,53.643 95.505,54.914 94.354,54.914 C93.203,54.914 92.174,54.126 92.295,53.46 L93.9,52.31" id="Fill-27" fill="#FFFFFE"></path>
            <path d="M94.884,51.376 C94.884,51.376 95.334,50.993 95.818,51.629 C96.196,52.126 95.587,52.809 95.222,52.698 C94.857,52.588 94.002,52.036 94.884,51.376" id="Fill-28" fill="#A42B2F"></path>
            <path d="M87.194,50.435 C87.194,50.435 87.688,50.016 88.218,50.713 C88.634,51.259 87.966,52.009 87.565,51.888 C87.163,51.767 86.226,51.161 87.194,50.435" id="Fill-29" fill="#A42B2F"></path>
            <path d="M95.222,57.525 L100.622,55.974 L98.434,65.799 C98.434,65.799 96.575,65.879 95.217,66.674 L95.222,57.525" id="Fill-30" fill="#FFFFFE"></path>
            <path d="M89.325,67.111 L90.115,57.803 C90.115,57.803 84.552,57.765 78.506,53.07 C78.506,53.07 78.768,60.31 82.137,64.883 L83.001,57.564 C83.001,57.564 83.398,56.987 83.279,58.41 C83.159,59.832 83.04,65.241 83.04,65.241 C83.04,65.241 84.074,66.314 85.586,65.879 L86.302,59.077 C86.302,59.077 86.994,57.406 87.006,59.515 C87.018,61.622 86.77,65.56 86.77,65.56 C86.77,65.56 86.431,66.793 87.56,66.952 C88.689,67.111 89.325,67.111 89.325,67.111" id="Fill-31" fill="#FFFFFE"></path>
            <path d="M84.204,77.881 C84.204,77.881 84.784,80.567 84.863,80.936 C84.942,81.305 85.389,81.751 85.416,81.332 C85.442,80.91 85.099,77.565 85.099,77.565 C85.099,77.565 86.417,76.748 87.523,76.959 C87.523,76.959 88.708,80.752 88.998,80.542 C89.287,80.33 88.682,77.011 88.286,76.405 C88.286,76.405 91.579,76.011 91.684,76.274 C91.79,76.538 91.869,80.172 91.922,80.356 C91.974,80.542 92.369,80.673 92.58,79.409 C92.791,78.144 93.239,76.353 93.475,76.485 C93.712,76.617 94.081,77.961 94.108,79.644 C94.134,81.332 93.897,83.728 93.634,83.464 C93.37,83.201 92.317,81.332 89.577,81.832 C89.577,81.832 87.865,82.385 87.076,84.519 C86.285,86.651 85.837,87.758 85.732,87.705 C85.627,87.652 84.599,85.387 84.204,82.858 C83.809,80.33 83.73,77.749 84.204,77.881" id="Fill-32" fill="#FFFFFE"></path>
            <path d="M94.311,35.884 C94.311,35.884 93.856,35.802 93.814,35.016 C93.773,34.23 93.982,33.444 94.498,33.486 C95.014,33.527 96.999,33.362 97.577,33.155 C98.156,32.949 100.02,31.502 100.825,30.303 C101.63,29.102 102.25,28.275 102.994,28.152 C103.739,28.028 104.401,28.358 105.268,29.683 C106.137,31.005 105.682,32.246 105.021,32.742 C104.359,33.239 102.209,35.43 102.498,35.884 C102.787,36.34 104.029,36.174 103.822,37.373 C103.615,38.573 102.457,39.523 101.134,38.904 C99.81,38.283 97.535,36.05 96.667,36.009 C95.8,35.968 94.311,35.884 94.311,35.884" id="Fill-33" fill="#FFFFFE"></path>
            <path d="M86.082,35.678 L86.288,33.982 C86.288,33.982 82.484,33.899 81.326,33.362 C80.169,32.824 79.011,31.584 78.721,31.377 C78.432,31.171 77.647,30.675 76.944,32.246 C76.24,33.817 76.117,35.222 76.778,35.265 C77.439,35.306 79.92,34.893 80.045,36.712 C80.169,38.53 80.478,39.045 81.316,39.099 C82.154,39.151 82.691,37.993 82.898,37.29 C83.104,36.588 83.863,35.802 84.31,35.678 C84.759,35.553 86.082,35.678 86.082,35.678" id="Fill-34" fill="#FFFFFE"></path>
            <path d="M107.491,61.808 C106.978,62.534 105.354,64.585 104.414,64.158 C104.414,64.158 104.927,63.005 104.414,63.368 C103.902,63.731 102.406,64.885 103.945,62.791 C105.483,60.697 105.483,60.697 105.483,60.697 C105.483,60.697 107.577,58.603 107.79,58.432 C108.003,58.261 108.26,59.115 108.26,59.564 C108.26,60.014 108.004,61.082 107.491,61.808 Z M74.355,66.429 C74.05,66.429 73.61,65.852 73.306,65.752 C73.001,65.65 72.121,65.311 71.884,65.245 C71.647,65.177 71.343,64.094 71.14,63.282 C70.937,62.469 70.226,61.658 68.772,60.135 C68.772,60.135 70.498,60.811 72.392,62.808 C74.287,64.805 74.659,66.429 74.355,66.429 Z M82.169,48.352 C82.169,48.352 82.527,47.007 82.797,46.334 C83.065,45.661 83.245,45.213 82.886,44.541 C82.886,44.541 89.927,50.685 91.048,52.433 C91.048,52.433 92.752,52.253 92.035,44.541 C92.035,44.541 93.963,46.872 92.797,51.356 C92.797,51.356 95.443,48.846 100.825,49.653 L99.927,49.923 C99.927,49.923 99.793,52.792 97.147,54.361 C95.587,55.287 93.823,55.558 92.694,55.034 C92.228,54.819 92.064,54.611 91.873,54.114 C91.743,53.774 91.669,53.249 91.542,52.747 C91.542,52.747 91.103,53.307 90.519,53.847 C89.838,54.477 88.886,55.082 87.147,54.72 C83.917,54.048 81.855,51.401 82.169,48.352 Z M110.146,58.837 C109.948,56.506 108.262,54.126 107.171,53.877 C106.08,53.63 104.692,55.515 104.146,56.259 C103.601,57.001 103.254,57.894 103.254,57.894 C103.254,57.894 103.006,57.844 102.956,56.655 C102.907,55.464 102.807,54.914 102.807,54.914 L101.469,55.299 C101.469,55.299 100.031,61.961 99.188,64.539 C98.345,67.118 95.171,76.638 95.072,77.827 C94.973,79.018 93.832,86.158 94.08,89.034 C94.08,89.034 93.882,89.034 93.584,87.349 C93.286,85.663 92.295,82.588 91.502,82.29 C90.708,81.992 88.081,82.886 86.99,86.902 C85.899,90.919 86.146,94.191 86.146,94.191 L84.213,86.555 L79.452,63.795 L77.37,52.985 C77.37,52.985 76.824,53.977 76.576,54.076 C76.328,54.175 75.932,53.146 76.676,51.9 C77.42,50.655 78.659,49.416 78.956,49.663 C78.956,49.663 77.865,51.41 78.262,51.9 C78.659,52.391 83.865,57.051 90.907,56.952 C97.948,56.852 101.766,54.076 102.311,53.531 C102.857,52.985 103.7,52.259 103.006,49.92 C102.311,47.58 99.133,44.407 95.937,43.018 C92.742,41.63 92.6,41.829 91.481,43.416 C91.481,43.416 90.163,43.118 89.369,42.324 C88.576,41.531 86.791,41.135 85.452,41.481 C84.114,41.829 78.213,45.349 76.328,48.275 C74.444,51.2 74.048,53.58 74.494,58.191 C74.94,62.804 75.188,64.191 75.188,64.191 C75.188,64.191 74.097,60.72 73.949,59.282 C73.8,57.844 72.411,55.217 71.122,54.175 C69.833,53.134 68.643,52.38 67.701,54.914 C66.758,57.447 65.915,59.828 66.709,61.515 C67.502,63.2 68.643,63.894 69.386,64.539 C70.13,65.184 71.865,67.464 72.808,68.555 C73.75,69.646 75.237,70.241 76.378,70.241 C77.519,70.241 78.362,69.398 78.362,70.489 C78.362,71.579 81.832,85.612 83.022,91.018 C84.213,96.422 84.262,99.694 85.105,102.025 C85.948,104.356 86.742,104.455 88.13,104.604 C89.518,104.753 90.708,103.762 92.196,100.29 C93.683,96.818 95.122,91.712 95.865,87.149 C96.609,82.588 96.51,76.736 97.353,74.506 C98.196,72.273 101.221,65.332 101.221,65.332 C101.221,65.332 101.369,66.869 102.559,66.919 C103.749,66.969 106.031,65.034 107.469,63.597 C108.907,62.158 110.345,61.167 110.146,58.837 Z" id="Fill-35" fill="#9E9F9E"></path>
        </g>
    </g>
</svg>