<?xml version="1.0" encoding="UTF-8" standalone="no"?>
<svg width="3068px" height="2774px" viewBox="0 0 3068 2774" version="1.1" xmlns="http://www.w3.org/2000/svg" xmlns:xlink="http://www.w3.org/1999/xlink">
    <!-- Generator: Sketch 49.1 (51147) - http://www.bohemiancoding.com/sketch -->
    <title>Ehrlicks_Enforcers</title>
    <desc>Created with Sketch.</desc>
    <defs>
        <polygon id="path-1" points="0.06 0.93 3067.1 0.93 3067.1 2774 0.06 2774"></polygon>
        <path d="M4.28063038,4.53966462 L17.1464847,0.94 L295.995,0.94 L297.152,120.14 L232.97,80.84 L93.196,80.84 C81.743,160.74 106.934,349.19 106.934,349.19 L304.601,303.83 L314.913,399.2 L118.404,440.84 C132.142,527.01 177.376,672.99 177.376,672.99 L269.646,637.09 L327.153,566.32 L343.128,712.8 C261.844,744.49 192.272,776.62 137.192,804.32 C125.739,779.18 62.294,632.53 26.166,399.2 C-9.98070584,165.802817 1.79380937,28.0257034 4.28063038,4.53966462" id="path-3"></path>
        <linearGradient x1="69.3783275%" y1="97.6287809%" x2="10.6389277%" y2="-0.0169160298%" id="linearGradient-5">
            <stop stop-color="#5680A8" offset="0%"></stop>
            <stop stop-color="#202F50" offset="100%"></stop>
        </linearGradient>
        <path d="M63.786,74.43 L225.886,0.85 L236.889,517.31 C214.321,523.63 192.249,530.16 170.743,536.87 L162.169,110.41 L73.244,178.07 L107.137,557.72 C84.359,565.52 62.29,573.5 40.943,581.53 C16.218,280.95 0.792,0.85 0.792,0.85 L59.073,0.85" id="path-6"></path>
        <linearGradient x1="91.9651669%" y1="95.002411%" x2="23.8702737%" y2="-12.9119308%" id="linearGradient-8">
            <stop stop-color="#5680A8" offset="0%"></stop>
            <stop stop-color="#202F50" offset="100%"></stop>
        </linearGradient>
        <path d="M168.66,439.5 L230.54,421.55 L230.54,519.88 C161.13,501.79 84.64,485.33 0.9,472.09 L6.91,0.85 L230.54,0.85 L230.54,114.01 L151.51,77.14 L67.32,77.14 L69.5,189.92 L230.54,207.36 L230.54,282.55 L64.28,264.58 L65.53,419.17" id="path-9"></path>
        <linearGradient x1="83.0212507%" y1="107.001522%" x2="13.0116704%" y2="-13.7308055%" id="linearGradient-11">
            <stop stop-color="#5680A8" offset="0%"></stop>
            <stop stop-color="#202F50" offset="100%"></stop>
        </linearGradient>
        <path d="M143.26,283.61 L214.91,259.33 L207.33,467.52 C142.62,458.11 73.79,450.66 0.83,445.84 L0.83,0.85 L214.91,1.91 L214.91,184.6 L151.14,204.38 L147.15,83.61 L74.57,82.55 L69.36,380.19 L143.16,382.59" id="path-12"></path>
        <linearGradient x1="84.1882007%" y1="118.212013%" x2="9.0901065%" y2="-16.0663852%" id="linearGradient-14">
            <stop stop-color="#5680A8" offset="0%"></stop>
            <stop stop-color="#202F50" offset="100%"></stop>
        </linearGradient>
        <path d="M203.77,255.76 L64.46,286.47 L69,495.01 C49.58,499.62 30.487,504.46 11.715,509.43 L0.037,0.85 L203.77,0.85 L203.77,116.92 L139.33,83.4 L58.25,83.4 L60.34,205.46 L203.77,181.54" id="path-15"></path>
        <linearGradient x1="103.754915%" y1="108.470644%" x2="24.842809%" y2="-14.7424201%" id="linearGradient-17">
            <stop stop-color="#5680A8" offset="0%"></stop>
            <stop stop-color="#202F50" offset="100%"></stop>
        </linearGradient>
        <path d="M215.4,100.42 C189.17,99.63 165.17,98.89 138.86,98.2 C138.25,158.97 137.11,217.03 134.97,277.85 C198.62,264.53 263.63,252.24 327.41,238.46 C319.88,425.99 276.43,611.45 196.73,803.19 C151.43,780 85.83,748.16 0.09,715.11 L37.78,446.14 C37.78,446.14 91.54,429.2 128.55,422.67 C124.88,480.29 107.3,581.94 100.82,639.5 C125.21,645.9 155.82,657.45 155.82,657.45 C155.82,657.45 206.5,491.12 228.01,361.27 C164.65,373.06 39.84,397.85 39.84,397.85 L49.26,0.59 L332.86,0.59 C332.86,0.59 340.31,61.51 332.28,211.09" id="path-18"></path>
        <linearGradient x1="84.812999%" y1="95.9768129%" x2="24.8943988%" y2="-1.76378021%" id="linearGradient-20">
            <stop stop-color="#5680A8" offset="0%"></stop>
            <stop stop-color="#202F50" offset="100%"></stop>
        </linearGradient>
        <path d="M185.017091,580.809824 L178.000304,582.773476 C160.162402,576.225732 141.553674,569.66908 122.16,563.16 L112.05,559.18 L112.05,489.77 L76.17,389.23 L76.17,548.29 C52.1,540.83 27,533.49 0.8,526.33 L6.98,5.12 L221.84,0.85 L221.84,238.58 L102.1,270.27 L197.66,462.25 L185.017091,580.809824 Z M147.96,173.87 L147.96,83.4 L76.17,87.66 L76.17,198.98 L147.96,173.87 Z" id="path-21"></path>
        <linearGradient x1="92.4990952%" y1="94.4073656%" x2="19.7656533%" y2="-12.8310573%" id="linearGradient-23">
            <stop stop-color="#5680A8" offset="0%"></stop>
            <stop stop-color="#202F50" offset="100%"></stop>
        </linearGradient>
        <path d="M140.33,145.98 L140.33,83.4 L72.28,87.66 L72.28,189.75 L140.33,145.98 Z M210.38,0.85 L210.38,188.88 L96.86,270.27 L196.76,443.36 C167.16,441.87 137.06,440.74 106.16,440.18 L64.79,362.32 L66.02,439.79 C61.52,439.77 57.16,439.66 52.65,439.66 C35.31,439.66 18.09,439.97 0.92,440.45 L6.67,5.12 L210.38,0.85 Z" id="path-24"></path>
        <linearGradient x1="91.5831185%" y1="124.666109%" x2="14.8286069%" y2="-16.9435719%" id="linearGradient-26">
            <stop stop-color="#5680A8" offset="0%"></stop>
            <stop stop-color="#202F50" offset="100%"></stop>
        </linearGradient>
        <path d="M143.64,380.19 C158.18,239 143.11,83.4 143.11,83.4 L76.11,83.4 C70.96,286.47 98.97,380.19 98.97,380.19 L143.64,380.19 Z M198.7,0.85 C198.7,0.85 215.33,52.29 215.33,207.86 C215.33,330.39 198.59,412.78 191.46,442.28 C139.5,445.03 88.61,449.91 39.01,456.52 C27.86,417.72 -12.38,256.39 4.62,0.85 L198.7,0.85 Z" id="path-27"></path>
        <linearGradient x1="103.072079%" y1="121.065683%" x2="28.2401513%" y2="-16.4542322%" id="linearGradient-29">
            <stop stop-color="#5680A8" offset="0%"></stop>
            <stop stop-color="#202F50" offset="100%"></stop>
        </linearGradient>
    </defs>
    <g id="Page-1" stroke="none" stroke-width="1" fill="none" fill-rule="evenodd">
        <g id="Ehrlicks_Enforcers">
            <g id="Group-3">
                <mask id="mask-2" fill="white">
                    <use xlink:href="#path-1"></use>
                </mask>
                <g id="Clip-2"></g>
                <path d="M1418.99,0.93 L1395.12,24.802 C1341.83,78.135 1321.19,150.073 1313.21,192.267 C1196.83,301.284 1153.88,469.77 1152.06,476.968 C1152.06,477.024 1139.74,526.828 1139.74,526.828 C1139.74,526.828 1160.1,544 1170.43,552.726 C1122.88,573.422 911.604,665.369 888.537,675.408 C872,656.032 778.041,546.107 778.041,546.107 C774.292,542.029 0,196.095 0,196.095 L293.845,1002.98 C294.055,1003.16 412.225,1119.72 462.397,1168.95 L177.125,1168.95 C130.459,2066.52 443.448,2442.7 443.448,2442.7 C665.581,2318.14 874.799,2238.69 874.799,2238.69 L769.289,2325.9 C761.44,2335.49 722.254,2462.07 720.114,2468.71 C685.867,2509.38 649.962,2573.77 650.364,2637.29 C650.814,2703.3 692.993,2739.38 692.993,2739.38 C730.764,2772.98 782.962,2782.18 848.16,2766.73 C893.249,2755.56 972.184,2708.98 976.367,2705.55 C999.789,2699.05 1077.44,2676.06 1077.44,2676.06 C1077.44,2676.06 1259.16,2503.2 1274.07,2488.88 C1295.13,2495.3 1539.79,2569.64 1539.79,2569.64 C1539.79,2569.64 1787.42,2501.04 1807.14,2495.59 C1874.59,2554.68 2025.67,2680.78 2025.67,2680.78 C2025.67,2680.78 2113.84,2704.29 2121.65,2706.4 C2125.61,2709.67 2130.98,2714.15 2130.98,2714.15 C2163.79,2737.98 2204.32,2757.36 2249.12,2767.37 C2356.05,2791.21 2406.09,2739.3 2406.09,2739.3 C2433.2,2713.35 2447.5,2678.28 2447.5,2637.86 C2447.5,2572.69 2354.49,2467.26 2355.66,2463.18 C2377.09,2388.3 2224.35,2245.27 2209.82,2218.1 C2209.82,2218.1 2469.42,2299.49 2674.01,2409.79 C2674.01,2409.79 2973.67,1973.34 2911.97,1175.88 C2911.97,1175.88 2651.1,1175.67 2604.67,1175.56 C2647.09,1134.67 2790.18,994.237 2790.18,994.237 C2793.83,990.214 3067.1,217.153 3067.1,217.153 L2309.75,545.19 C2309.9,545.013 2213.04,675.625 2213.04,675.625 C2167.68,656.168 2016.64,591.51 1929.94,555.348 C1944.45,538.385 1968.87,509.896 1968.87,509.896 L1951.59,464.935 C1948.97,457.987 1886.46,295.815 1770.69,190.2 C1762.6,148.327 1741.81,77.09 1688.76,24.07 L1665.76,1.228 L1418.99,0.93" id="Fill-1" fill="#DBCA93" mask="url(#mask-2)"></path>
            </g>
            <path d="M2345.45,593.328 C2345.45,593.328 2226.62,748.077 2195.8,788.197 C2178.33,780.491 2150.9,768.338 2130,759.097 C2136.79,749.017 2157.09,718.455 2157.09,718.455 C2157.09,718.455 1909.24,612.069 1843.49,586.418 C1847.38,576.019 1850.33,564.767 1852.76,550.298 C1872.82,528.428 1898.48,498.01 1898.48,498.01 L1894.18,486.764 C1891.48,479.63 1827.78,314.844 1713.68,221.52 C1710.35,195.734 1696.54,118.705 1645.31,67.511 L1640.65,62.927 L1444.57,62.274 L1438.6,68.234 C1387.3,119.542 1373.66,197.182 1370.41,223.088 C1256.23,317.281 1213.51,484.537 1211.71,491.784 L1208.62,504.266 C1208.62,504.266 1239.75,530.101 1256.72,546.54 C1259.1,555.348 1262.2,565.065 1266.88,578.167 C1217.31,598.724 942.908,718.631 942.908,718.631 C942.908,718.631 960.249,746.066 964.849,753.386 C964.849,753.386 893.475,787.988 888.537,790.351 C870.681,767.059 733.515,588.454 733.515,588.454 L732.887,587.763 C728.993,583.588 105.284,309.536 105.284,309.536 C105.284,309.536 333.047,954.906 336.747,958.951 L337.134,959.353 C337.134,959.353 558.447,1177.1 612.755,1230.38 L237.079,1230.38 C237.079,1230.38 209.603,1504.3 281.477,1866.69 C353.35,2229.08 464.022,2362.23 464.022,2362.23 C464.022,2362.23 638.364,2245.56 971.236,2138.96 L992.518,2189.86 L807.43,2404.3 C807.43,2407.01 791.456,2465.4 783.895,2491.54 C778.732,2495.95 773.697,2500.64 768.855,2506 C739.402,2539.94 711.814,2592.54 711.814,2637.29 C711.814,2658.8 718.184,2678.48 733.819,2693.45 C755.922,2713.12 789.446,2717.49 833.972,2706.9 C871.066,2697.75 904.269,2682.96 930.136,2664.16 C936.296,2659.58 941.46,2654.88 946.285,2650.02 C987.998,2639.63 1044.96,2623.77 1044.96,2623.77 C1049.21,2620.79 1212.21,2461.33 1257.91,2419.73 C1279.98,2426.44 1540.57,2505.68 1540.57,2505.68 C1540.57,2505.68 1802.88,2432.98 1822.85,2427.48 C1894.87,2491.65 2033.89,2618.46 2043.19,2624.94 L2142.1,2651.31 C2146.91,2656.16 2151.99,2660.84 2158.06,2665.35 C2184.15,2684.3 2217.33,2699.08 2254.22,2708.2 C2298.96,2718.85 2332.46,2714.51 2354.02,2695.33 C2369.98,2680.08 2376.4,2660.12 2376.4,2638.36 C2376.4,2593.57 2348.97,2541.29 2319.74,2507.62 C2314.72,2502.03 2309.64,2497.33 2304.47,2492.89 L2281.18,2405.93 C2280.94,2405.67 2186.66,2291.07 2143.4,2238.44 L2159.99,2138.96 C2159.99,2138.96 2472.17,2219.56 2647.98,2325.9 C2647.98,2325.9 2895.06,1946.36 2854.62,1236.88 C2854.62,1236.88 2487.94,1237.35 2458.79,1237.35 C2460.54,1235.19 2742.21,963.784 2742.21,963.784 C2745.93,959.755 2973.67,314.369 2973.67,314.369 L2345.45,593.328" id="Fill-4" fill="#0E0D0B"></path>
            <path d="M2362.03,1232.31 C2281.63,1232.31 2242.22,1231.68 2242.22,1231.68 C2405.8,1036.81 2404.74,1032.09 2688.87,654.165 C2689.45,653.403 2690.11,652.605 2690.69,651.833 C2378.37,935.554 2275.55,1036.49 2125.1,1179.34 C2125.35,1127.59 2125.35,1100.74 2123.94,1096.01 C2122.35,1090.66 2120.19,1085.75 2117.86,1081.08 L2347.87,811.89 L2322.46,936.174 L2402.71,747.739 L2445.86,697.245 L2781.56,510.588 L2675.41,924.712 L2654.91,944.731 L2362.03,1232.31" id="Fill-5" fill="#ACACA6"></path>
            <path d="M2445.86,697.245 L2402.71,747.739 L2322.46,936.174 L2347.87,811.89 L2117.84,1081.08 C2113.93,1073.46 2109.21,1066.62 2103.24,1060.78 C2102.8,1060.36 2102.21,1060.03 2101.71,1059.59 C2095.74,1054.09 2088.89,1049.55 2081.12,1046.03 C2078.67,1044.93 2076.16,1043.9 2073.65,1043 L2392.45,654.528 L2863.15,428.179 L2675.41,924.719 L2781.56,510.597 L2445.86,697.245" id="Fill-6" fill="#FFFFFE"></path>
            <path d="M2148.12,1231.59 C2191.93,1186.79 2403.61,964.445 2690.48,652.083 C2689.93,652.79 2689.4,653.482 2688.87,654.165 C2404.74,1032.09 2405.8,1036.82 2242.24,1231.68 L2148.12,1231.59" id="Fill-7" fill="#FFFFFE"></path>
            <path d="M1475.46,184.159 C1475.39,156.403 1454.51,131.333 1454.51,131.333 C1442.96,143.486 1427.96,176.302 1418.96,222.292 C1439.84,200.31 1474.88,184.594 1475.46,184.159" id="Fill-8" fill="#DEBA37"></path>
            <path d="M756.501,931.306 L676.23,742.905 L633.103,692.402 L297.433,505.755 L403.602,919.838 L424.032,939.848 L716.929,1227.47 C824.344,1227.47 824.337,1227.04 836.74,1226.84 C673.206,1031.97 674.236,1027.25 390.106,649.364 C389.511,648.568 388.867,647.723 388.256,646.952 C700.585,930.72 803.424,1031.64 953.878,1174.45 C953.653,1122.72 953.636,1095.9 955.068,1091.17 C956.677,1085.81 958.769,1080.91 961.133,1076.24 L731.052,807.041 L756.501,931.306" id="Fill-9" fill="#ACACA6"></path>
            <path d="M686.559,649.734 L215.812,423.345 L403.602,919.838 L297.433,505.755 L633.103,692.402 L676.23,742.905 L756.501,931.3 L731.052,807.057 L961.117,1076.26 C965.026,1068.62 969.771,1061.77 975.739,1055.95 C976.19,1055.51 976.814,1055.18 977.236,1054.72 C985.295,1046.03 990.088,1044.71 997.891,1041.18 C1000.27,1040.09 1002.78,1039.07 1005.32,1038.17 L686.559,649.734" id="Fill-10" fill="#FFFFFE"></path>
            <path d="M931.808,1227.69 C887.99,1182.93 675.362,959.571 388.513,647.257 C389.043,647.94 389.575,648.632 390.106,649.364 C674.219,1027.25 673.206,1031.97 836.74,1226.84 L931.808,1227.69" id="Fill-11" fill="#FFFFFE"></path>
            <path d="M1612.74,179.502 C1612.79,151.778 1633.66,126.668 1633.66,126.668 C1645.2,138.852 1660.22,171.677 1669.23,217.636 C1648.3,195.645 1613.28,179.937 1612.74,179.502" id="Fill-12" fill="#DEBA37"></path>
            <path d="M1544.4,340.388 C1554.23,221.559 1579.66,131.18 1611.03,108.039 L1477.81,108.039 C1509.16,131.18 1534.62,221.559 1544.4,340.388" id="Fill-13" fill="#DEBA37"></path>
            <path d="M1603.18,963.535 C1636.43,945.414 1652.73,908.416 1672.03,871.378 C1651.44,875.826 1626.97,879.598 1601.51,882.148 C1582.49,884.07 1563.03,885.309 1544.24,885.638 C1476.63,884.545 1414.7,871.201 1381.3,854.792 L1440.44,963.898 L1443.24,969.069 C1498.54,987.223 1560.75,986.426 1603.18,963.535" id="Fill-14" fill="#A88C3E"></path>
            <path d="M1685.9,868.168 C1681.54,869.27 1676.89,870.316 1672.03,871.378 C1652.73,908.416 1636.45,945.423 1603.18,963.527 C1560.75,986.426 1498.54,987.223 1443.24,969.069 L1477.58,1030.78 L1624.13,1030.78 L1718.36,856.932 C1710.94,860.825 1699.73,864.646 1685.9,868.168" id="Fill-15" fill="#DEBA37"></path>
            <path d="M1920.72,818.904 C1920.08,820.112 1919.36,821.27 1918.47,822.372 C1917.97,823.095 1917.42,823.779 1916.81,824.446 C1916.4,824.88 1915.9,825.315 1915.49,825.748 C1914.71,826.482 1914,827.31 1913.13,827.969 C1913.31,827.752 1913.42,827.534 1913.61,827.31 C1909.01,830.889 1903.35,833.1 1897.16,833.1 C1882.07,833.1 1869.86,820.626 1869.86,805.224 C1869.86,798.498 1872.27,792.419 1876.12,787.617 C1876.05,787.65 1876.05,787.65 1875.99,787.729 C1876.05,787.592 1876.26,787.472 1876.39,787.327 C1881.38,781.247 1888.74,777.322 1897.16,777.322 C1912.23,777.322 1924.37,789.846 1924.37,805.224 C1924.37,809.817 1923.2,814.078 1921.27,817.883 C1921.13,818.262 1920.95,818.591 1920.72,818.904 M1852.55,706.124 L1685.45,1004.69 L1875.94,935.128 L1989.57,766.159 L1852.55,706.124" id="Fill-16" fill="#DEBA37"></path>
            <path d="M1877.4,1023.75 C1880.55,1023.75 2025.52,1023.75 2026.91,1023.67 C2026.91,1023.67 2060.16,979.445 2061.72,977.586 C2059.35,978.053 2052.73,979.212 2050.27,979.212 C2030.32,979.212 2014.22,963.028 2014.22,943.121 C2014.22,923.215 2030.32,907.065 2050.27,907.065 C2070.15,907.065 2085.24,927.55 2085.24,947.457 C2085.24,947.778 2085.24,947.128 2085.24,947.457 C2112.5,914.529 2142.28,877.088 2143.24,875.778 L2014.68,819.459 L1877.4,1023.75" id="Fill-17" fill="#DEBA37"></path>
            <path d="M2028.5,797.558 L2014.63,819.459 L2014.68,819.459 L2143.24,875.778 C2145.66,872.681 2159.99,855.766 2159.99,855.766 L2028.5,797.558" id="Fill-18" fill="#FFFFFE"></path>
            <polyline id="Fill-19" fill="#FFFFFE" points="1905.17 924.453 2023.27 753.531 1864.12 683.862 1852.55 706.124 1989.57 766.159 1875.95 935.111 1905.17 924.453"></polyline>
            <path d="M1641.74,408.682 L1533.9,387.255 L1643.72,357.312 L1447.92,357.271 C1447.92,357.271 1474.09,318.077 1480.77,263.948 C1416.81,304.838 1382.03,356.765 1360.25,408.281 L1505.81,519.621 L1312.57,441.611 C1301.08,455.326 1291.27,475.626 1287.26,500.624 C1287.34,500.889 1305.07,507.974 1317.54,513.902 C1322.67,553.314 1330.04,656.562 1377.01,743.308 C1377.01,743.308 1354.59,742.656 1275.41,683.772 C1305.54,746.838 1383.86,827.14 1436.61,844.45 C1393.42,767.606 1450.65,603.261 1454.69,592.452 L1380.94,565.571 L1347.96,469.666 L1545.69,569.907 L1541.31,552.502 L1641.74,408.682" id="Fill-20" fill="#A88C3E"></path>
            <path d="M1607.75,260.271 C1610.85,321.391 1643.72,357.312 1643.72,357.312 L1533.9,387.255 L1641.75,408.682 L1541.31,552.502 L1545.69,569.898 L1724.99,471.363 L1699.44,564.438 L1624.72,591.8 C1624.72,591.8 1672.53,719.733 1646.71,832.915 L1643.3,845.036 C1696.13,827.743 1790.07,743.959 1818.87,686.917 C1808.15,695.572 1764.53,717.288 1724.34,723.006 C1708.19,747.089 1691.82,760.158 1691.82,760.158 C1747.28,666.464 1755.42,567.027 1760.65,527.841 C1773.02,521.882 1782.33,517.385 1782.37,517.144 C1767.77,472.898 1744.84,446.71 1731.76,435.893 L1582.82,518.02 L1707.81,399.256 C1686.68,355.268 1653.82,304.983 1607.75,260.271" id="Fill-21" fill="#DEBA37"></path>
            <path d="M1707.81,399.256 L1582.82,518.02 L1731.74,435.893 C1744.84,446.702 1767.77,472.906 1782.37,517.144 C1782.33,517.393 1773.02,521.882 1760.65,527.841 C1755.42,567.019 1747.28,666.464 1691.82,760.158 C1701.05,752.284 1712.18,740.831 1724.34,723.006 C1745.37,692.145 1765.14,651.472 1777.72,616.371 C1783.83,599.118 1789.07,581.544 1793.42,563.754 C1795.68,554.432 1801.62,514.706 1803.36,513.902 C1815.84,507.974 1825.19,503.431 1825.19,503.172 C1803.58,435.941 1778.33,423.45 1765.06,416.614 C1740.2,352.293 1694.02,273.768 1609.28,208.643 C1608.71,211.459 1607.75,260.271 1607.75,260.271 C1653.82,304.992 1686.68,355.276 1707.81,399.256" id="Fill-22" fill="#FFFFFE"></path>
            <path d="M1390.55,557.239 L1469.5,586.749 C1469.5,586.749 1409.21,756.731 1449.35,834.838 C1466.26,817.079 1477.87,803.453 1477.87,803.453 C1453.35,688.984 1479.03,584.633 1479.03,584.633 L1406.77,551.818 L1399.27,514.706 L1368.18,493.892 L1390.55,557.239" id="Fill-23" fill="#ACACA6"></path>
            <path d="M1687.92,557.239 L1608.92,586.749 C1608.92,586.749 1669.23,756.731 1629.11,834.838 C1612.19,817.079 1600.64,803.453 1600.64,803.453 C1625.09,688.984 1599.38,584.633 1599.38,584.633 L1671.64,551.818 L1679.21,514.706 L1710.28,493.892 L1687.92,557.239" id="Fill-24" fill="#ACACA6"></path>
            <path d="M2313.58,2636.22 C2313.58,2636.22 2328.38,2586.51 2272.78,2519.85 C2269.44,2515.89 2265.84,2512.79 2262.23,2509.7 C2262.09,2511.92 2249.06,2540.76 2224.77,2563.33 L2238.33,2580.46 C2256.78,2573.96 2274.46,2567.19 2274.46,2567.19 C2299.04,2592.16 2307.53,2611.98 2313.58,2636.22" id="Fill-25" fill="#FFFFFE"></path>
            <path d="M1958.4,2100.32 C1949.48,2162.96 1934.56,2190.98 1892.2,2245.42 C1900.68,2254.33 1948.25,2309.28 1957.05,2317.92 L2043.27,2119.48 C2012.49,2112.43 1992.26,2107.67 1958.4,2100.32" id="Fill-26" fill="#FFFFFE"></path>
            <path d="M2113.35,2286.86 L2045.74,2209.1 L2031.64,2369.88 C2056.75,2394.04 2081.83,2418.28 2106.73,2442.7 C2107.34,2429.8 2107.97,2415.61 2108.69,2399.89 C2114.14,2275.9 2113.35,2286.86 2113.35,2286.86" id="Fill-27" fill="#FFFFFE"></path>
            <path d="M2138.1,2317.79 L2131.56,2467.17 C2154.28,2489.54 2176.8,2512.11 2199.06,2534.73 L2209.82,2392.12 L2138.1,2317.79" id="Fill-28" fill="#FFFFFE"></path>
            <path d="M1892.2,2245.4 C1892.2,2245.4 1772.91,2304.33 1625.73,2323.49 C1646.26,2272.81 1662.7,2230.43 1673.32,2201.83 L1564.72,2323.53 L1564.25,2434.45 L1957.05,2317.92 C1948.42,2308.75 1892.2,2245.4 1892.2,2245.4" id="Fill-29" fill="#ACACA6"></path>
            <path d="M1562.03,2066.52 L1728.04,2211.4 L1872.11,2211.2 L1747.83,2077.8 C1689.47,2070.59 1562.03,2066.52 1562.03,2066.52" id="Fill-30" fill="#ACACA6"></path>
            <path d="M1747.83,2077.78 L1872.13,2211.2 C1872.13,2160.56 1872.13,2126.37 1873.17,2091.76 C1848.66,2088.39 1752.88,2078.22 1747.83,2077.78" id="Fill-31" fill="#FFFFFE"></path>
            <path d="M1176.87,819.057 C1174.95,815.238 1173.76,810.942 1173.76,806.357 C1173.76,790.962 1185.95,778.488 1200.99,778.488 C1209.39,778.488 1216.77,782.422 1221.79,788.493 C1221.89,788.646 1222.07,788.752 1222.18,788.856 C1222.15,788.823 1222.07,788.783 1222.04,788.783 C1225.88,793.585 1228.31,799.658 1228.31,806.357 C1228.31,821.784 1216.08,834.266 1200.99,834.266 C1194.82,834.266 1189.16,832.048 1184.55,828.485 C1184.72,828.669 1184.88,828.918 1185.02,829.104 C1184.17,828.443 1183.46,827.639 1182.69,826.875 C1182.24,826.482 1181.79,826.047 1181.32,825.605 C1180.73,824.913 1180.18,824.23 1179.66,823.53 C1178.8,822.403 1178.09,821.245 1177.41,820.039 C1177.22,819.708 1177.03,819.42 1176.87,819.057 M1108.58,767.317 L1222.2,936.285 L1412.71,1005.8 L1245.63,707.284 L1108.58,767.317" id="Fill-32" fill="#DEBA37"></path>
            <path d="M1220.76,1024.88 C1217.59,1024.88 1072.63,1024.88 1071.26,1024.8 C1071.26,1024.8 1038.01,980.594 1036.43,978.713 C1038.78,979.212 1045.41,980.354 1047.92,980.354 C1067.82,980.354 1083.98,964.186 1083.98,944.288 C1083.98,924.381 1067.82,908.232 1047.92,908.232 C1028,908.232 1012.92,928.685 1012.92,948.607 C1012.92,948.913 1012.92,948.294 1012.92,948.607 C985.616,915.656 955.905,878.222 954.875,876.944 L1083.47,820.626 L1220.76,1024.88" id="Fill-33" fill="#DEBA37"></path>
            <path d="M1070.97,798.724 L1083.52,820.586 L1083.48,820.618 L954.892,876.936 C952.495,873.815 938.146,856.892 938.146,856.892 L1070.97,798.724" id="Fill-34" fill="#FFFFFE"></path>
            <polyline id="Fill-35" fill="#FFFFFE" points="1192.98 925.628 1074.9 754.697 1234.04 684.978 1245.63 707.284 1108.6 767.317 1222.2 936.285 1192.98 925.628"></polyline>
            <path d="M771.075,2636.22 C771.075,2636.22 756.276,2586.51 811.886,2519.85 C815.215,2515.89 818.786,2512.79 822.438,2509.7 C822.6,2511.92 835.58,2540.76 859.903,2563.33 L846.293,2580.46 C827.826,2573.96 810.196,2567.19 810.196,2567.19 C785.552,2592.16 777.092,2611.98 771.075,2636.22" id="Fill-36" fill="#FFFFFE"></path>
            <path d="M1126.26,2100.32 C1135.17,2162.96 1150.13,2190.98 1192.47,2245.42 C1183.98,2254.33 1136.36,2309.28 1127.61,2317.92 L1041.37,2119.48 C1072.16,2112.43 1092.38,2107.67 1126.26,2100.32" id="Fill-37" fill="#FFFFFE"></path>
            <path d="M971.283,2286.86 L1038.91,2209.1 L1053.03,2369.88 C1027.88,2394.04 1002.81,2418.28 977.895,2442.7 C977.284,2429.8 976.656,2415.61 975.948,2399.89 C970.463,2275.9 971.283,2286.86 971.283,2286.86" id="Fill-38" fill="#FFFFFE"></path>
            <path d="M946.558,2317.79 L953.042,2467.17 C930.359,2489.54 907.855,2512.11 885.576,2534.73 L874.799,2392.12 L946.558,2317.79" id="Fill-39" fill="#FFFFFE"></path>
            <path d="M1192.47,2245.4 C1192.47,2245.4 1311.75,2304.33 1458.94,2323.49 C1438.39,2272.81 1421.99,2230.43 1411.29,2201.83 L1519.93,2323.53 L1520.35,2434.45 L1127.61,2317.92 C1136.25,2308.75 1192.47,2245.4 1192.47,2245.4" id="Fill-40" fill="#ACACA6"></path>
            <path d="M1522.62,2066.52 L1356.65,2211.4 L1212.48,2211.2 L1336.83,2077.8 C1395.17,2070.59 1522.62,2066.52 1522.62,2066.52" id="Fill-41" fill="#ACACA6"></path>
            <path d="M1336.83,2077.78 L1212.48,2211.2 C1212.48,2160.56 1212.48,2126.37 1211.45,2091.76 C1236,2088.39 1331.74,2078.22 1336.83,2077.78" id="Fill-42" fill="#FFFFFE"></path>
            <path d="M2200.26,1350.88 L894.893,1350.88 C811.628,1350.88 744.128,1283.38 744.128,1200.12 L744.128,1077.77 C744.128,994.5 811.628,927 894.893,927 L2200.26,927 C2283.52,927 2351.02,994.5 2351.02,1077.77 L2351.02,1200.12 C2351.02,1283.38 2283.52,1350.88 2200.26,1350.88" id="Fill-43" fill="#1A1919"></path>
            <path d="M1555.12,1998.72 C1554.99,1998.72 1554.86,1998.71 1554.73,1998.71 C1162.64,1998.71 799.209,2114.48 482.729,2264.67 C482.729,2264.67 384.476,2091.44 323.299,1717.17 C280.188,1453.45 316.271,1297.35 316.271,1297.35 L768.083,1297.35 L768.083,1382.59 L2334.02,1382.59 L2334.02,1297.35 L2795.04,1297.35 C2795.04,1297.35 2812.24,1528.46 2760.97,1839.37 C2724.21,2062.25 2620.1,2264.67 2620.1,2264.67 C2303.69,2114.22 1948.36,1998.93 1556.18,1998.72" id="Fill-44" fill="#D3B43F"></path>
            <path d="M710.461,1949.18 L708.564,1903.62 L635.178,1988.51 L551.241,2021.18 C537.084,1972.84 512.007,1883.19 502.404,1822.84 L698.913,1781.2 L688.601,1685.83 L688.521,1685.85 L685.078,1654.16 L486.816,1697.23 C480.188,1639.24 468.768,1521.67 477.196,1462.84 L616.97,1462.84 L681.152,1502.14 L679.995,1382.94 L679.562,1382.94 L679.255,1351.69 L369.066,1351.69 L368.583,1355.4 C368.389,1356.84 350.583,1500.08 390.058,1754.94 C426.17,1987.99 489.18,2134.26 501.455,2161.24 L513.76,2189.86 L521.192,2186.29 L521.192,2186.32 C576.272,2158.62 645.844,2126.49 727.128,2094.8 L711.153,1948.32 L710.461,1949.18" id="Fill-45" fill="#30547B"></path>
            <path d="M710.461,1949.18 L708.564,1903.62 L635.178,1988.51 L551.241,2021.18 C537.084,1972.84 512.007,1883.19 502.404,1822.84 L698.913,1781.2 L688.601,1685.83 L688.521,1685.85 L685.078,1654.16 L486.816,1697.23 C480.188,1639.24 468.768,1521.67 477.196,1462.84 L616.97,1462.84 L681.152,1502.14 L679.995,1382.94 L679.562,1382.94 L679.255,1351.69 L369.066,1351.69 L368.583,1355.4 C368.389,1356.84 350.583,1500.08 390.058,1754.94 C426.17,1987.99 489.18,2134.26 501.455,2161.24 L513.76,2189.86 L521.192,2186.29 L521.192,2186.32 C576.272,2158.62 645.844,2126.49 727.128,2094.8 L711.153,1948.32 L710.461,1949.18 Z" id="Stroke-46" stroke="#FFFFFE" stroke-width="3.5"></path>
            <path d="M938.065,1504.22 L938.065,1470.4 L774.389,1539.91 L774.228,1537.61 L770.287,1472.95 L693.428,1472.59 L693.668,1477.16 C693.83,1479.96 708.918,1787.35 733.353,2084.53 L734.109,2091.44 L753.943,2084.53 C775.29,2076.5 797.359,2068.52 820.137,2060.72 L786.244,1681.07 L855.865,1628.1 L864.406,2046 L883.743,2039.87 C905.249,2033.16 927.321,2026.63 949.889,2020.31 L938.886,1503.85 L938.065,1504.22" id="Fill-47" fill="#30547B"></path>
            <path d="M938.065,1504.22 L938.065,1470.4 L774.389,1539.91 L774.228,1537.61 L770.287,1472.95 L693.428,1472.59 L693.668,1477.16 C693.83,1479.96 708.918,1787.35 733.353,2084.53 L734.109,2091.44 L753.943,2084.53 C775.29,2076.5 797.359,2068.52 820.137,2060.72 L786.244,1681.07 L855.865,1628.1 L864.406,2046 L883.743,2039.87 C905.249,2033.16 927.321,2026.63 949.889,2020.31 L938.886,1503.85 L938.065,1504.22 Z" id="Stroke-48" stroke="#FFFFFE" stroke-width="3.5"></path>
            <path d="M1565.25,1619.64 L1511.28,1654.35 L1511.28,1590.66 L1565.25,1587.29 L1565.25,1619.64 Z M1431.67,1476.95 L1425.88,1916.46 L1425.82,1944.28 L1445.17,1943.37 C1460.56,1942.97 1476.07,1942.66 1491.65,1942.66 C1496.16,1942.66 1500.52,1942.77 1505.02,1942.79 L1503.79,1865.98 L1532.77,1920.49 L1533.11,1920.49 L1545.16,1943.18 C1574.55,1943.72 1603.2,1944.78 1631.43,1946.17 C1632.14,1946.23 1632.81,1946.33 1633.49,1946.36 L1647.42,1947.45 L1543.26,1767.96 L1649.38,1691.88 L1649.38,1503.85 L1648.66,1503.86 L1649.62,1472.53 L1431.67,1476.95 Z" id="Fill-49" fill="#30547B"></path>
            <path d="M1565.25,1619.64 L1511.28,1654.35 L1511.28,1590.66 L1565.25,1587.29 L1565.25,1619.64 Z M1431.67,1476.95 L1425.88,1916.46 L1425.82,1944.28 L1445.17,1943.37 C1460.56,1942.97 1476.07,1942.66 1491.65,1942.66 C1496.16,1942.66 1500.52,1942.77 1505.02,1942.79 L1503.79,1865.98 L1532.77,1920.49 L1533.11,1920.49 L1545.16,1943.18 C1574.55,1943.72 1603.2,1944.78 1631.43,1946.17 C1632.14,1946.23 1632.81,1946.33 1633.49,1946.36 L1647.42,1947.45 L1543.26,1767.96 L1649.38,1691.88 L1649.38,1503.85 L1648.66,1503.86 L1649.62,1472.53 L1431.67,1476.95 Z" id="Stroke-50" stroke="#FFFFFE" stroke-width="3.5"></path>
            <path d="M1327.9,1851.94 L1296,1851.94 C1288.08,1809.32 1276.65,1722.46 1280.11,1586.4 L1329.09,1586.4 C1332.56,1636.19 1338.18,1748.07 1327.9,1851.94 Z M1398.21,1472.95 L1389.65,1472.59 L1188.77,1472.59 L1188.49,1476.61 C1171.61,1730.26 1210.66,1890.69 1223.03,1933.83 L1229.71,1961.72 L1250.65,1958.6 C1297.85,1952.47 1346.17,1947.91 1395.46,1945.28 C1402.59,1915.78 1419.33,1833.39 1419.33,1710.86 C1419.33,1576.72 1406.96,1520.03 1403.57,1506.95 C1401.06,1483.98 1398.5,1473.86 1398.21,1472.95 Z" id="Fill-51" fill="#30547B"></path>
            <path d="M1327.9,1851.94 L1296,1851.94 C1288.08,1809.32 1276.65,1722.46 1280.11,1586.4 L1329.09,1586.4 C1332.56,1636.19 1338.18,1748.07 1327.9,1851.94 Z M1398.21,1472.95 L1389.65,1472.59 L1188.77,1472.59 L1188.49,1476.61 C1171.61,1730.26 1210.66,1890.69 1223.03,1933.83 L1229.71,1961.72 L1250.65,1958.6 C1297.85,1952.47 1346.17,1947.91 1395.46,1945.28 C1402.59,1915.78 1419.33,1833.39 1419.33,1710.86 C1419.33,1576.72 1406.96,1520.03 1403.57,1506.95 C1401.06,1483.98 1398.5,1473.86 1398.21,1472.95 Z" id="Stroke-52" stroke="#FFFFFE" stroke-width="3.5"></path>
            <path d="M958.013,2017.99 L979.552,2012.22 C998.067,2007.31 1016.89,2002.57 1036,1998.01 L1031.46,1789.47 L1170.77,1758.76 L1170.77,1735.33 L1171.03,1735.29 L1171.03,1652.55 L1026.75,1674.73 L1025.25,1586.4 L1106.33,1586.4 L1170.77,1619.92 L1170.77,1599.8 L1171.03,1599.91 L1171.03,1472.59 L946.8,1472.59 L958.013,2017.99" id="Fill-53" fill="#30547B"></path>
            <path d="M958.013,2017.99 L979.552,2012.22 C998.067,2007.31 1016.89,2002.57 1036,1998.01 L1031.46,1789.47 L1170.77,1758.76 L1170.77,1735.33 L1171.03,1735.29 L1171.03,1652.55 L1026.75,1674.73 L1025.25,1586.4 L1106.33,1586.4 L1170.77,1619.92 L1170.77,1599.8 L1171.03,1599.91 L1171.03,1472.59 L946.8,1472.59 L958.013,2017.99 Z" id="Stroke-54" stroke="#FFFFFE" stroke-width="3.5"></path>
            <path d="M2624.98,1612.48 C2599.5,1617.59 2574.02,1622.71 2548.73,1627.97 C2550.34,1581.17 2551.43,1533.83 2552.11,1481.21 C2565.38,1481.6 2578.57,1481.99 2592.4,1482.42 C2613.28,1499.73 2671.82,1551.54 2709.28,1593.09 C2709.28,1593.01 2709.28,1592.92 2709.28,1592.85 C2709.77,1593.54 2710.22,1594.25 2710.68,1594.96 C2682.05,1600.96 2653.19,1606.81 2624.98,1612.48 Z M2304.63,1764.39 L2390.84,1741.58 L2390.84,1740.09 L2417.93,1733.25 L2416.84,1779.85 C2416.84,1779.85 2541.65,1755.06 2605.01,1743.27 C2589.86,1834.63 2560.33,1943.96 2544.11,2000.81 C2535.12,1997.74 2524.63,1994.38 2514.8,1991.68 C2517.33,1970.09 2521.24,1942.97 2525.37,1914.32 C2532.5,1864.95 2539.86,1813.94 2542.13,1778.36 L2542.49,1772.94 L2537.34,1773.82 C2500.49,1780.34 2416,1802.92 2416,1802.92 L2414.95,1828.08 C2414.92,1828.08 2414.78,1828.14 2414.78,1828.14 L2397,1955.03 L2397.31,1950.53 L2304.63,1764.39 Z M2173.89,1685.36 L2014.92,1668.79 L2013.33,1580.14 L2064.15,1580.14 L2099.7,1595.63 L2174.5,1634.85 L2173.89,1685.36 Z M2171.41,1895.4 L2115.95,1911.5 L2011.01,1891.99 L2010.02,1770.91 L2145.54,1785.55 L2145.54,1784.47 L2172.62,1792.19 L2171.41,1895.4 Z M2316.96,1586.4 L2316.96,1656.2 L2275.66,1669.41 L2275.66,1588.86 L2316.96,1586.4 Z M2746.43,1355.45 L2745.96,1351.69 L2425.86,1350.88 L2426.26,1382.59 L2424.12,1472.86 L2182.12,1472.95 L1907.76,1473.96 L1907.77,1473.99 L1666.66,1472.95 L1670.94,1947.45 L1678.83,1948.28 L1678.83,1948.84 C1751.79,1953.66 1820.62,1961.11 1885.33,1970.52 L1910.27,1973.34 L1917.57,1729.74 L1809.57,1768.85 L1809.07,1853.62 L1771.86,1852.42 L1776.53,1585.89 L1825.15,1586.61 L1829.14,1707.38 L1892.91,1687.6 L1892.91,1684.3 L1917.57,1676.9 L1917.49,1601.73 L1920.19,1637.33 L1915.9,1975.09 C1993.43,1987.37 2064.68,2002.39 2129.92,2018.91 L2177.81,2031.6 C2201.09,2038.05 2223.61,2044.62 2245.17,2051.29 L2245.17,2051.07 C2257.78,2054.93 2270.18,2058.8 2281.05,2062.18 L2291.16,2066.16 C2312.94,2073.47 2333.73,2080.84 2353.55,2088.19 L2353.55,2088.16 C2361.58,2091.15 2369.46,2094.16 2377.1,2097.01 L2377.09,2097.11 C2462.83,2130.16 2528.43,2162 2573.73,2185.19 L2595.12,2196.47 L2609.97,2160.31 C2690.64,1966.26 2733.48,1781.03 2740.99,1594.03 L2741.2,1588.51 C2749.13,1440.27 2746.47,1356.06 2746.43,1355.45 Z" id="Fill-55" fill="#30547B"></path>
            <path d="M2624.98,1612.48 C2599.5,1617.59 2574.02,1622.71 2548.73,1627.97 C2550.34,1581.17 2551.43,1533.83 2552.11,1481.21 C2565.38,1481.6 2578.57,1481.99 2592.4,1482.42 C2613.28,1499.73 2671.82,1551.54 2709.28,1593.09 C2709.28,1593.01 2709.28,1592.92 2709.28,1592.85 C2709.77,1593.54 2710.22,1594.25 2710.68,1594.96 C2682.05,1600.96 2653.19,1606.81 2624.98,1612.48 Z M2304.63,1764.39 L2390.84,1741.58 L2390.84,1740.09 L2417.93,1733.25 L2416.84,1779.85 C2416.84,1779.85 2541.65,1755.06 2605.01,1743.27 C2589.86,1834.63 2560.33,1943.96 2544.11,2000.81 C2535.12,1997.74 2524.63,1994.38 2514.8,1991.68 C2517.33,1970.09 2521.24,1942.97 2525.37,1914.32 C2532.5,1864.95 2539.86,1813.94 2542.13,1778.36 L2542.49,1772.94 L2537.34,1773.82 C2500.49,1780.34 2416,1802.92 2416,1802.92 L2414.95,1828.08 C2414.92,1828.08 2414.78,1828.14 2414.78,1828.14 L2397,1955.03 L2397.31,1950.53 L2304.63,1764.39 Z M2173.89,1685.36 L2014.92,1668.79 L2013.33,1580.14 L2064.15,1580.14 L2099.7,1595.63 L2174.5,1634.85 L2173.89,1685.36 Z M2171.41,1895.4 L2115.95,1911.5 L2011.01,1891.99 L2010.02,1770.91 L2145.54,1785.55 L2145.54,1784.47 L2172.62,1792.19 L2171.41,1895.4 Z M2316.96,1586.4 L2316.96,1656.2 L2275.66,1669.41 L2275.66,1588.86 L2316.96,1586.4 Z M2746.43,1355.45 L2745.96,1351.69 L2425.86,1350.88 L2426.26,1382.59 L2424.12,1472.86 L2182.12,1472.95 L1907.76,1473.96 L1907.77,1473.99 L1666.66,1472.95 L1670.94,1947.45 L1678.83,1948.28 L1678.83,1948.84 C1751.79,1953.66 1820.62,1961.11 1885.33,1970.52 L1910.27,1973.34 L1917.57,1729.74 L1809.57,1768.85 L1809.07,1853.62 L1771.86,1852.42 L1776.53,1585.89 L1825.15,1586.61 L1829.14,1707.38 L1892.91,1687.6 L1892.91,1684.3 L1917.57,1676.9 L1917.49,1601.73 L1920.19,1637.33 L1915.9,1975.09 C1993.43,1987.37 2064.68,2002.39 2129.92,2018.91 L2177.81,2031.6 C2201.09,2038.05 2223.61,2044.62 2245.17,2051.29 L2245.17,2051.07 C2257.78,2054.93 2270.18,2058.8 2281.05,2062.18 L2291.16,2066.16 C2312.94,2073.47 2333.73,2080.84 2353.55,2088.19 L2353.55,2088.16 C2361.58,2091.15 2369.46,2094.16 2377.1,2097.01 L2377.09,2097.11 C2462.83,2130.16 2528.43,2162 2573.73,2185.19 L2595.12,2196.47 L2609.97,2160.31 C2690.64,1966.26 2733.48,1781.03 2740.99,1594.03 L2741.2,1588.51 C2749.13,1440.27 2746.47,1356.06 2746.43,1355.45 Z" id="Stroke-56" stroke="#FFFFFE" stroke-width="3.5"></path>
            <path d="M1565.25,1564.03 L1565.25,1619.64 L1505.46,1658.08 L1505.46,1567.79 L1565.25,1564.03 Z M1425.88,1916.46 L1425.82,1944.28 L1447.79,1943.24 C1468.89,1942.63 1470.39,1919.82 1488.79,1920.06 L1499.27,1920.17 L1498.25,1855.51 L1532.77,1920.49 L1535.15,1920.53 C1563.98,1921.06 1601.44,1944.74 1633.49,1946.36 L1647.42,1947.45 L1531.44,1747.57 L1643.56,1667.2 L1649.62,1472.53 L1431.67,1476.95 L1425.88,1916.46 Z" id="Fill-57" fill="#0E0D0C"></path>
            <path d="M1327.9,1851.94 L1290.05,1851.94 C1285.53,1834.45 1263.99,1741.13 1268.09,1563.77 L1327.35,1563.77 C1329.49,1588.41 1340.35,1726.11 1327.9,1851.94 Z M1389.65,1472.59 L1188.77,1472.59 L1188.49,1476.61 C1171.61,1730.26 1210.66,1890.69 1223.03,1933.83 L1229.71,1961.72 L1253.58,1958.15 C1304.28,1951.38 1329.41,1925.29 1379.65,1922.62 L1382.69,1922.46 L1383.43,1919.38 C1390.65,1889.51 1403.52,1806.7 1407.43,1683.9 C1412.38,1528.96 1398.9,1475.07 1398.21,1472.95 L1389.65,1472.59 Z" id="Fill-58" fill="#0E0D0C"></path>
            <path d="M774.389,1539.91 L770.287,1472.95 L693.428,1472.59 L693.668,1477.16 C693.83,1479.96 708.918,1787.35 733.353,2084.53 L734.109,2091.44 L753.943,2084.53 C775.804,2076.31 783.429,2045.42 805.419,2037.86 L808.524,2036.78 L774.55,1656.17 L855.19,1594.81 L864.406,2046 L883.743,2039.87 C905.411,2033.11 912.793,2003.69 934.945,1997.5 L938.065,1996.65 L938.065,1470.4 L774.389,1539.91" id="Fill-59" fill="#0E0D0C"></path>
            <path d="M958.013,2017.99 L981.354,2011.74 C1000.42,2006.68 1001.99,1979.76 1020.89,1975.27 L1024.18,1974.48 L1019.65,1766 L1171.03,1735.29 L1171.03,1652.55 L1015.36,1676.48 L1013.45,1563.77 L1089.34,1563.77 L1171.03,1599.91 L1171.03,1472.59 L946.8,1472.59 L958.013,2017.99" id="Fill-60" fill="#0E0D0C"></path>
            <path d="M635.178,1988.51 L547.959,2022.45 C540.577,1998.14 503.997,1876.23 491.11,1799.28 L696.338,1758.19 L685.078,1654.16 L478.402,1699.04 C474.735,1670.13 455.674,1513.37 464.761,1440.19 L599.837,1440.19 L680.526,1482.74 L679.255,1351.69 L369.066,1351.69 L368.583,1355.4 C368.389,1356.84 350.583,1500.08 390.058,1754.94 C426.17,1987.99 489.18,2134.26 501.455,2161.24 L513.76,2189.86 L523.106,2185.37 C588.899,2152.26 641.919,2099.42 712.554,2071.88 L715.562,2070.72 L708.564,1903.62 L635.178,1988.51" id="Fill-61" fill="#0E0D0C"></path>
            <path d="M2345.29,1564.38 L2345.29,1647.16 L2275.66,1669.41 L2275.66,1568.16 L2345.29,1564.38 Z M2427.42,1730.84 L2427.42,1472.86 L2182.12,1472.95 L2198.1,2006.06 L2198.63,2037.41 C2223.77,2044.25 2256.3,2054.46 2281.05,2062.18 L2281.75,2030.49 L2281.75,1889.51 L2309.4,1966.93 L2309.4,2038.55 L2319.27,2075.82 C2340.46,2082.92 2363.19,2091.88 2383.36,2099.37 L2389.54,2067.46 L2397.31,1950.53 L2303.54,1762.19 L2427.42,1730.84 Z" id="Fill-62" fill="#0E0D0C"></path>
            <path d="M1809.07,1853.62 L1771.86,1852.42 L1776.93,1563.32 L1841.48,1564.25 L1846.24,1698.31 L1917.57,1676.9 L1917.34,1474.04 L1666.66,1472.95 L1670.94,1947.45 L1695.71,1950.01 C1765.52,1954.63 1818.32,1960.76 1885.33,1970.52 L1910.27,1973.34 L1917.57,1729.74 L1809.57,1768.85 L1809.07,1853.62" id="Fill-63" fill="#0E0D0C"></path>
            <path d="M2746.43,1355.45 L2745.96,1351.69 L2425.86,1350.88 L2426.26,1382.59 L2429.8,1759.76 L2450.09,1757.49 C2451.26,1757.24 2568.24,1734.01 2632.39,1721.97 C2612.59,1837.62 2570.51,1980.98 2562.64,2007.31 C2554,2004.16 2533.14,1996.71 2514.8,1991.68 C2517.33,1970.09 2521.24,1942.97 2525.37,1914.32 C2532.5,1864.95 2539.86,1813.94 2542.13,1778.36 L2542.49,1772.94 L2537.34,1773.82 C2500.49,1780.34 2416,1802.92 2416,1802.92 L2405,2073.35 L2408.12,2074.55 C2497.03,2108.82 2532.06,2163.88 2573.73,2185.19 L2595.12,2196.47 L2609.97,2160.31 C2690.64,1966.26 2733.48,1781.03 2740.99,1594.03 L2741.2,1588.51 L2736.02,1589.65 C2699.26,1597.6 2661.52,1605.16 2624.98,1612.48 C2599.5,1617.59 2574.02,1622.71 2548.73,1627.97 C2550.56,1574.4 2551.74,1520.11 2552.4,1458 C2576.62,1458.68 2599.04,1459.32 2623.37,1460.09 C2645.31,1478.38 2699.47,1588.22 2735.6,1628.27 L2741.2,1588.51 C2749.13,1440.27 2746.47,1356.06 2746.43,1355.45" id="Fill-64" fill="#0E0D0C"></path>
            <path d="M1944.19,1952.2 L1947.73,1952.76 C2025.7,1965.08 2053.19,1998.88 2127.33,2018.22 L2182.12,2032.73 L2182.12,1892.3 L2115.95,1911.5 L2011.01,1891.99 L2009.81,1745.73 L2186.05,1796.02 L2182.12,1686.23 L2014.92,1668.79 L2012.93,1557.86 L2099.7,1595.63 L2182.12,1638.84 L2182.12,1472.95 L1907.76,1473.96 L1944.19,1952.2" id="Fill-65" fill="#0E0D0C"></path>
            <g id="Group-68" transform="translate(384.000000, 1382.000000)">
                <mask id="mask-4" fill="white">
                    <use xlink:href="#path-3"></use>
                </mask>
                <g id="Clip-67"></g>
                <path d="M269.646,637.09 L177.376,672.99 C177.376,672.99 132.142,527.01 118.404,440.84 L314.913,399.2 L304.601,303.83 L106.934,349.19 C106.934,349.19 81.743,160.74 93.196,80.84 L232.97,80.84 L297.152,120.14 L295.995,0.94 L4.691,0.94 C4.691,0.94 -13.664,142.02 26.166,399.2 C62.294,632.53 125.739,779.18 137.192,804.32 C192.272,776.62 261.844,744.49 343.128,712.8 L327.153,566.32 L269.646,637.09" id="Fill-66" fill="url(#linearGradient-5)" mask="url(#mask-4)"></path>
            </g>
            <g id="Group-71" transform="translate(713.000000, 1503.000000)">
                <mask id="mask-7" fill="white">
                    <use xlink:href="#path-6"></use>
                </mask>
                <g id="Clip-70"></g>
                <path d="M63.786,74.43 L59.073,0.85 L0.792,0.85 C0.792,0.85 16.218,280.95 40.943,581.53 C62.29,573.5 84.359,565.52 107.137,557.72 L73.244,178.07 L162.169,110.41 L170.743,536.87 C192.249,530.16 214.321,523.63 236.889,517.31 L225.886,0.85 L63.786,74.43" id="Fill-69" fill="url(#linearGradient-8)" mask="url(#mask-7)"></path>
            </g>
            <g id="Group-74" transform="translate(1915.000000, 1503.000000)">
                <mask id="mask-10" fill="white">
                    <use xlink:href="#path-9"></use>
                </mask>
                <g id="Clip-73"></g>
                <path d="M168.66,439.5 L65.53,419.17 L64.28,264.58 L230.54,282.55 L230.54,207.36 L69.5,189.92 L67.32,77.14 L151.51,77.14 L230.54,114.01 L230.54,0.85 L6.91,0.85 L0.9,472.09 C84.64,485.33 161.13,501.79 230.54,519.88 L230.54,421.55 L168.66,439.5" id="Fill-72" fill="url(#linearGradient-11)" mask="url(#mask-10)"></path>
            </g>
            <g id="Group-77" transform="translate(1678.000000, 1503.000000)">
                <mask id="mask-13" fill="white">
                    <use xlink:href="#path-12"></use>
                </mask>
                <g id="Clip-76"></g>
                <path d="M143.26,283.61 L143.16,382.59 L69.36,380.19 L74.57,82.55 L147.15,83.61 L151.14,204.38 L214.91,184.6 L214.91,1.91 L0.83,0.85 L0.83,445.84 C73.79,450.66 142.62,458.11 207.33,467.52 L214.91,259.33 L143.26,283.61" id="Fill-75" fill="url(#linearGradient-14)" mask="url(#mask-13)"></path>
            </g>
            <g id="Group-80" transform="translate(967.000000, 1503.000000)">
                <mask id="mask-16" fill="white">
                    <use xlink:href="#path-15"></use>
                </mask>
                <g id="Clip-79"></g>
                <path d="M203.77,255.76 L203.77,181.54 L60.34,205.46 L58.25,83.4 L139.33,83.4 L203.77,116.92 L203.77,0.85 L0.037,0.85 L11.715,509.43 C30.487,504.46 49.58,499.62 69,495.01 L64.46,286.47 L203.77,255.76" id="Fill-78" fill="url(#linearGradient-17)" mask="url(#mask-16)"></path>
            </g>
            <g id="Group-83" transform="translate(2377.000000, 1382.000000)">
                <mask id="mask-19" fill="white">
                    <use xlink:href="#path-18"></use>
                </mask>
                <g id="Clip-82"></g>
                <path d="M215.4,100.42 C236.28,117.73 294.82,169.54 332.28,211.09 C340.31,61.51 332.86,0.59 332.86,0.59 L49.26,0.59 L39.84,397.85 C39.84,397.85 164.65,373.06 228.01,361.27 C206.5,491.12 155.82,657.45 155.82,657.45 C155.82,657.45 125.21,645.9 100.82,639.5 C107.3,581.94 124.88,480.29 128.55,422.67 C91.54,429.2 37.78,446.14 37.78,446.14 L0.09,715.11 C85.83,748.16 151.43,780 196.73,803.19 C276.43,611.45 319.88,425.99 327.41,238.46 C263.63,252.24 198.62,264.53 134.97,277.85 C137.11,217.03 138.25,158.97 138.86,98.2 C165.17,98.89 189.17,99.63 215.4,100.42" id="Fill-81" fill="url(#linearGradient-20)" mask="url(#mask-19)"></path>
            </g>
            <g id="Group-86" transform="translate(2169.000000, 1503.000000)">
                <mask id="mask-22" fill="white">
                    <use xlink:href="#path-21"></use>
                </mask>
                <g id="Clip-85"></g>
                <path d="M147.96,173.87 L76.17,198.98 L76.17,87.66 L147.96,83.4 L147.96,173.87 Z M221.84,0.85 L6.98,5.12 L0.8,526.33 C27,533.49 52.1,540.83 76.17,548.29 L76.17,389.23 L112.05,489.77 L112.05,559.18 L122.16,563.16 C143.94,570.47 164.73,577.84 184.55,585.19 L197.66,462.25 L102.1,270.27 L221.84,238.58 L221.84,0.85 Z" id="Fill-84" fill="url(#linearGradient-23)" mask="url(#mask-22)"></path>
            </g>
            <g id="Group-89" transform="translate(1439.000000, 1503.000000)">
                <mask id="mask-25" fill="white">
                    <use xlink:href="#path-24"></use>
                </mask>
                <g id="Clip-88"></g>
                <path d="M140.33,145.98 L72.28,189.75 L72.28,87.66 L140.33,83.4 L140.33,145.98 Z M210.38,0.85 L6.67,5.12 L0.92,440.45 C18.09,439.97 35.31,439.66 52.65,439.66 C57.16,439.66 61.52,439.77 66.02,439.79 L64.79,362.32 L106.16,440.18 C137.06,440.74 167.16,441.87 196.76,443.36 L96.86,270.27 L210.38,188.88 L210.38,0.85 Z" id="Fill-87" fill="url(#linearGradient-26)" mask="url(#mask-25)"></path>
            </g>
            <g id="Group-92" transform="translate(1204.000000, 1503.000000)">
                <mask id="mask-28" fill="white">
                    <use xlink:href="#path-27"></use>
                </mask>
                <g id="Clip-91"></g>
                <path d="M143.64,380.19 L98.97,380.19 C98.97,380.19 70.96,286.47 76.11,83.4 L143.11,83.4 C143.11,83.4 158.18,239 143.64,380.19 Z M198.7,0.85 L4.62,0.85 C-12.38,256.39 27.86,417.72 39.01,456.52 C88.61,449.91 139.5,445.03 191.46,442.28 C198.59,412.78 215.33,330.39 215.33,207.86 C215.33,52.29 198.7,0.85 198.7,0.85 Z" id="Fill-90" fill="url(#linearGradient-29)" mask="url(#mask-28)"></path>
            </g>
            <text id="EHRLICKS" font-family="Impact" font-size="361.016" font-style="condensed" font-weight="700" letter-spacing="0.0599" fill="#DEBA37">
                <tspan x="793.7469" y="1245.7392">EHRLIC</tspan>
                <tspan x="1780.20176" y="1245.7392" letter-spacing="-5.4997464">K</tspan>
                <tspan x="1962.96622" y="1245.7392">S</tspan>
            </text>
        </g>
    </g>
</svg>