<?xml version="1.0" encoding="utf-8"?>
<!-- Generator: Adobe Illustrator 22.0.0, SVG Export Plug-In . SVG Version: 6.00 Build 0)  -->
<svg version="1.1" id="Layer_1" xmlns="http://www.w3.org/2000/svg" xmlns:xlink="http://www.w3.org/1999/xlink" x="0px" y="0px"
	 viewBox="0 0 1000 1000" style="enable-background:new 0 0 1000 1000;" xml:space="preserve">
<style type="text/css">
	.st0{fill:#FFFFFF;}
	.st1{fill:#674297;}
	.st2{fill:#35325A;}
	.st3{fill:url(#SVGID_1_);}
	.st4{fill:url(#SVGID_2_);}
	.st5{fill:url(#SVGID_3_);}
	.st6{fill:#3A375A;}
	.st7{fill:#3A375B;}
	.st8{fill:#A5A7AA;}
	.st9{fill:none;}
	.st10{fill:#F3F4F5;}
	.st11{fill:url(#SVGID_4_);}
	.st12{fill:url(#SVGID_5_);}
	.st13{fill:url(#SVGID_6_);}
	.st14{fill:url(#SVGID_7_);}
</style>
<g>
	<path class="st0" d="M853.9,223.7c0,0,36.1-4.2,53.8,9.1l11.9,13.6c0,0,0,27.4-5.4,50.7c0,0,12.4,22.9,10.1,43.4
		c-1.5,22.6-7.6,34.5-16.5,41.5c-10.6,10.5-45.4,13.1-52.6,12.3C847.9,393.4,853.9,223.7,853.9,223.7z"/>
	<polygon class="st0" points="150.3,352.9 94.7,381 94.7,590.5 94.7,596.1 104.3,608.5 151.6,583.7 	"/>
	<g>
		<g>
			<path class="st1" d="M381,835.3l-53.1-11.1l7.6-36.4c-11.5-0.6-60.9-3.3-78.7-10.3l-1.3-0.5v-98.6c-10.3-0.1-52.5-1.5-103-18.1
				l-1.4-0.5V302.2l56.4-26.5v-32.3l0.9-0.6c0.6-0.4,58-35.8,157.4-74c58.4-22.4,119.6-41.4,182-56.5c78-18.8,158-31.4,237.9-37.4
				l2.2-0.2v69.4h71v341.4l-0.5,0.6C858,486.7,810.1,539,741,554v95.8l-0.5,0.6c-1.7,1.8-41.4,43.6-82.3,51.7L623,759.4l-0.9,0.1
				c-0.8,0.1-78.3,12.6-102,22.5l-6.8,32.3l-0.7,0.5c-0.8,0.5-80.9,53-145.7,138.9l-4.8,6.3L381,835.3z"/>
			<path class="st0" d="M786,76.9v69.3h71v338.6c0,0-47.9,53-118,67.6V649c0,0-41,43.6-82.1,51.3l-35.1,57.3
				c0,0-80.4,12.8-103.5,23.1l-6.8,32.5c0,0-80.4,52.2-146.2,139.4l18-118.9l-53-11.1l7.7-36.8c0,0-60.7-2.6-80.4-10.3v-99.2
				c0,0-0.3,0-1,0c-7,0-50.8-0.7-103.4-18V303.5l56.4-26.5v-32.5C209.6,244.5,436.2,103.4,786,76.9 M790,72.6l-4.3,0.3
				c-80,6.1-160.1,18.7-238.2,37.5c-62.5,15-123.8,34.1-182.2,56.5c-99.6,38.3-157.1,73.8-157.7,74.2l-1.9,1.2v2.2v30l-54.1,25.4
				l-2.3,1.1v2.5v354.9v2.9l2.8,0.9c47.9,15.7,88.5,17.9,101.6,18.1v95.2v2.7l2.5,1c17,6.7,62.1,9.5,77,10.3l-6.7,32.2l-0.8,3.9
				l3.9,0.8l49.3,10.3L361.3,952l-2.4,15.6l9.5-12.6c18.6-24.7,50.6-62.4,97.1-101.7c27.8-23.5,47.9-36.7,48.1-36.8l1.4-0.9l0.3-1.6
				l6.4-30.4c24.6-9.8,99.8-21.9,100.6-22l1.8-0.3l1-1.6l34.1-55.8c41.2-8.7,80.8-50.4,82.5-52.1l1.1-1.2V649v-93.4
				c20.4-4.6,50.6-15.2,83.7-39.2c20.8-15.1,32.8-28.3,33.3-28.9l1-1.1v-1.5V146.2v-4h-4h-67V76.9V72.6L790,72.6z"/>
		</g>
		<path class="st2" d="M372.7,781.6l-1.3,27.8l40.2,6.4l-10.3,77.8c0,0,41.5-60.3,80.4-77v-42.3l-7.3-5.1c0,0,59.9-22.7,109.9-28.2
			l16.2-24.4L486,721.3L372.7,781.6z"/>
		<path class="st2" d="M318.6,638l49.4-38.1c0,0,10.5-15.5,59.1-28.4l12.7,7.7c0,0,62.1-23.9,118.1-26.8l11.9-17.9
			c0,0,15.7-0.6,34.2-1.4l78.2-8.1l-77.4,11.1c0,0,75.8,6.5,98.8,10.1l-1.3,90.4c0,0-111.2,7.6-144.9,20.5l-0.9-28.2
			c0,0-91.3,18.9-116.3,30.4v29.1c0,0-102.9,30.4-144.1,52.6l-2.9-85.8c0,0,46.6-33.7,63.5-36.5C356.7,618.6,332.8,630.1,318.6,638z
			"/>
		<g>
			
				<linearGradient id="SVGID_1_" gradientUnits="userSpaceOnUse" x1="247.0236" y1="164.192" x2="761.2596" y2="164.192" gradientTransform="matrix(1 -5.923341e-03 5.923341e-03 1 -0.7987 2.8682)">
				<stop  offset="0.1006" style="stop-color:#F9DF7B"/>
				<stop  offset="0.1153" style="stop-color:#F5D974"/>
				<stop  offset="0.2184" style="stop-color:#D9B249"/>
				<stop  offset="0.3112" style="stop-color:#C5952A"/>
				<stop  offset="0.3896" style="stop-color:#B98417"/>
				<stop  offset="0.444" style="stop-color:#B57E10"/>
				<stop  offset="0.4575" style="stop-color:#BF8C1F"/>
				<stop  offset="0.4879" style="stop-color:#D1A53C"/>
				<stop  offset="0.5221" style="stop-color:#E0BB53"/>
				<stop  offset="0.5611" style="stop-color:#EBCB65"/>
				<stop  offset="0.6078" style="stop-color:#F3D672"/>
				<stop  offset="0.6698" style="stop-color:#F8DD79"/>
				<stop  offset="0.809" style="stop-color:#F9DF7B"/>
				<stop  offset="0.8328" style="stop-color:#F6DB77"/>
				<stop  offset="0.8579" style="stop-color:#EED06A"/>
				<stop  offset="0.8835" style="stop-color:#E1BD55"/>
				<stop  offset="0.9095" style="stop-color:#CEA238"/>
				<stop  offset="0.9356" style="stop-color:#B68012"/>
				<stop  offset="0.937" style="stop-color:#B57E10"/>
			</linearGradient>
			<path class="st3" d="M247.6,239.3c0,0,188.1-113.5,511.2-150.5l0.1,11.2l-110.2,15.8c0,0,85.9-6.2,112.5-3.1l-0.9,11.3
				C760.2,123.9,538.9,119,247.6,239.3z"/>
		</g>
		<g>
			<path class="st2" d="M192.9,343.5v287.4c0,0,84.2-44.1,160.5-69.1l-0.2-49.5c0,0,124.6-40.6,278.9-66l-1.6,44.4
				c0,0,129.8-15.2,198.7-11.6l-1.4-279.6c0,0-38.2,22.3-132.3,31.7L648,247.5c0,0-199.5,31.5-289.4,68.8l-41.6,1.3
				C317.1,317.6,226.6,316.3,192.9,343.5z"/>
			<g>
				<linearGradient id="SVGID_2_" gradientUnits="userSpaceOnUse" x1="126.1601" y1="393.6526" x2="878.4697" y2="393.6526">
					<stop  offset="0.1006" style="stop-color:#F9DF7B"/>
					<stop  offset="0.1153" style="stop-color:#F5D974"/>
					<stop  offset="0.2184" style="stop-color:#D9B249"/>
					<stop  offset="0.3112" style="stop-color:#C5952A"/>
					<stop  offset="0.3896" style="stop-color:#B98417"/>
					<stop  offset="0.444" style="stop-color:#B57E10"/>
					<stop  offset="0.4575" style="stop-color:#BF8C1F"/>
					<stop  offset="0.4879" style="stop-color:#D1A53C"/>
					<stop  offset="0.5221" style="stop-color:#E0BB53"/>
					<stop  offset="0.5611" style="stop-color:#EBCB65"/>
					<stop  offset="0.6078" style="stop-color:#F3D672"/>
					<stop  offset="0.6698" style="stop-color:#F8DD79"/>
					<stop  offset="0.809" style="stop-color:#F9DF7B"/>
					<stop  offset="0.8328" style="stop-color:#F6DB77"/>
					<stop  offset="0.8579" style="stop-color:#EED06A"/>
					<stop  offset="0.8835" style="stop-color:#E1BD55"/>
					<stop  offset="0.9095" style="stop-color:#CEA238"/>
					<stop  offset="0.9356" style="stop-color:#B68012"/>
					<stop  offset="0.937" style="stop-color:#B57E10"/>
				</linearGradient>
				<path class="st4" d="M174.2,319.9l2.2-1.7c34.8-27.5,99.4-48.8,104.9-50.7l17.5-6l-1.7,51.7c177.7-63.5,289.9-87.1,406.5-92.8
					v-49.3l20.7-2.2c11.4-1.1,22.1-2,51.8-1.3c42.4,0.9,51.5,3.8,51.8,3.8l5.7,1.7V460l-6.1-0.3c-8.9-0.5-19.1-0.7-30.2-0.7
					c-67.5,0-138,7.1-138.9,7.2l-6.2,0.6l0.1-44.3c-149.1,21.9-296.5,70.5-317.9,78.4l-0.6,37.1l0.3,9.7
					c-76.5,25.7-150.4,67-151.3,67.5l-8.6,4.7V319.9z"/>
				<linearGradient id="SVGID_3_" gradientUnits="userSpaceOnUse" x1="170.2297" y1="395.0416" x2="837.6088" y2="395.0416">
					<stop  offset="0" style="stop-color:#BFBFBF"/>
					<stop  offset="0.2213" style="stop-color:#F2F2F2"/>
					<stop  offset="0.5096" style="stop-color:#858585"/>
					<stop  offset="0.7359" style="stop-color:#F2F2F2"/>
					<stop  offset="1" style="stop-color:#858585"/>
				</linearGradient>
				<path class="st5" d="M758.1,167.4c5.1,0,11.1,0.1,18.1,0.2c42.4,0.9,51.5,3.8,51.8,3.8l5.7,1.7V460l-6.1-0.3
					c-8.9-0.5-19.1-0.7-30.2-0.7c-67.5,0-138,7.1-138.9,7.2l-6.2,0.6l0.1-44.3c-149.1,21.9-296.5,70.5-317.9,78.4l-0.6,37.1l0.3,9.7
					c-76.5,25.7-150.4,67-151.3,67.5l-8.6,4.7v-300l2.2-1.7c34.8-27.5,99.4-48.8,104.9-50.7l17.5-6l-1.7,51.7
					c177.7-63.5,289.9-87.1,406.5-92.8v-49.3l20.7-2.2C733.1,168.1,741.4,167.4,758.1,167.4 M758.1,163.4c-16.4,0-24.8,0.7-34.1,1.5
					l0,0l0,0l-20.7,2.2l-3.6,0.4v3.6v45.5c-120,6.2-232.5,31.9-398.3,90.8l1.5-45.9l0.2-5.8l-5.5,1.9l-17.5,6l-0.7,0.2
					c-21.4,7.2-74.5,26.7-105.4,51.1l-2.2,1.7l-1.5,1.2v1.9v300v6.8l5.9-3.3l8.6-4.7l0.1-0.1c7.7-4.3,77.8-42.7,150.6-67.2l2.8-0.9
					l-0.1-3l-0.3-9.6l0.5-34.3c14.9-5.3,56.2-18.7,108.2-32.9c49.8-13.6,124.9-32.1,201.8-43.7l-0.1,39.7l0,4.4l4.4-0.4l6.2-0.6l0,0
					l0,0c2.9-0.3,72.5-7.2,138.5-7.2c11.1,0,21.2,0.2,30,0.7l6.1,0.3l4.2,0.2V460V173.1v-3l-2.8-0.9l-5.7-1.7l-0.4-0.1l-0.1,0
					c-3.9-0.9-16.6-3-52.3-3.8C769.4,163.5,763.5,163.4,758.1,163.4L758.1,163.4z"/>
			</g>
			<polygon class="st0" points="334.4,500.8 334.4,547 338.3,550.6 338.8,503.5 			"/>
			<path class="st0" d="M699.7,167.4l4,3.8c0,0,82.3-8.9,129.9,2V460l4,4.2V169.4C837.6,169.4,784.7,156.5,699.7,167.4z"/>
		</g>
	</g>
	<g>
		<path class="st6" d="M648.5,242.6l7,9.2l-1,3.9c0,0-7.3,1.5-7.7,1.2c-0.3-0.3-3-10-2.4-10.5S648.5,242.6,648.5,242.6z"/>
		<path class="st6" d="M704.4,235.9l7,9.2l-2.3,4.9c0,0-7.8-6.6-7.4-7.4C702,241.8,704.4,235.9,704.4,235.9z"/>
		<path class="st6" d="M578.2,262c1.3,0,7.2-1.8,7.2-1.8l3.7,8.7c0,0-2.4,4.3-2.8,4.3s-5.8-1.6-5.8-2
			C580.5,270.9,578.2,262,578.2,262z"/>
		<path class="st6" d="M505.9,269.3l7,10.4l-3.5,10.3c0,0-8.1,2.3-8,0.9C501.5,289.5,505.9,269.3,505.9,269.3z"/>
		<polygon class="st7" points="908.3,238.3 915,246.8 912.9,251.9 905.7,251.2 		"/>
		<g>
			<path class="st7" d="M344.6,367.6c-1-0.6-2.2-0.9-3.7-0.9c-1.8,0-4.1,0.5-6.7,1.4c-1.1,0.4-3.3,1.3-6.6,2.8c0,9.8,0,19.5,0,29.3
				c0.9-0.2,2.6-0.7,5.2-1.7c7.6-2.7,12-5.2,13.3-7.5c1.2-2.1,1.8-6.3,1.8-12.6C347.7,372.7,346.7,369,344.6,367.6z"/>
			<path class="st7" d="M430.4,340.1c-1.1-0.8-2.5-1.2-4.4-1.2c-1.7,0-3.7,0.3-6.1,1.1c-1.1,0.3-3.3,1.1-6.7,2.4
				c0,9.8,0,19.5,0,29.3c0.9-0.1,2.6-0.6,5.2-1.4c7.6-2.3,12-4.5,13.3-6.7c1.2-2.1,1.8-6.2,1.8-12.5
				C433.5,345.3,432.5,341.6,430.4,340.1z"/>
			<path class="st7" d="M626.8,296.1c-2.9,15.5-5.8,31-8.7,46.5c5.9-1,11.7-1.9,17.6-2.8c-2.8-14.6-5.5-29.2-8.3-43.8
				C627.2,296,627,296.1,626.8,296.1z"/>
			<path class="st7" d="M914.5,309.6c-3.1-6.3-6.9-11.3-11.2-15l7,0.6l1.8-12.7c0.6-4.3,1.2-9,1.7-14.1c0.6-5.4,0.9-9.5,1-12.7
				l0.3-8.9l-8.1-3.8c-8.6-4-19.4-6.1-32.1-6.2l-0.4,0c-5.5,0-11.2,0.9-17.2,2.6c-4.8,1.4-8.4,3-11.3,4.8v-7l-13.8,0.3
				c-20.1,0.4-40.5,1.3-60.7,2.5V240l-7.5,0.5l-5.7,0.4v0.1l-1.3,0.1c-8.2,0.6-16.4,1.3-24.6,2l-12.3,1.1v12.4v6.9
				c-1.5-3.3-3.1-6.5-4.6-9.8l-4.1-8.7l-9.5,1c-8.3,0.9-16.8,1.9-25.1,3l-11.8,1.5v11.9v32.1c-2.2-10.1-4.5-20.3-6.7-30.4l-2.7-12.3
				l-12.5,1.8c-11.6,1.7-23.4,3.6-35.1,5.6l-9,1.5l-1.9,8.9c-1.8,8.2-3.5,16.5-5.3,24.7c0.4-6,0.6-10.5,0.6-13.6l0-11.4l-11.3-1.9
				c-4.2-0.7-8.5-1.1-12.6-1.1c-4.7,0-9.5,0.5-14,1.4c-17.6,3.6-31.6,13.1-41.6,28v-0.2v-17.2l-16.7,4.1c-8.9,2.2-18,4.5-26.9,6.8
				l-10.1,2.7v10.4v2.5c-4.3-3-9.3-4.8-15-5.3c-1.4-0.1-2.9-0.2-4.4-0.2c-6.8,0-14.5,1.3-23.6,4c-11,3.3-22.7,7.6-34.9,12.8
				l-8.2,3.5v8.9v2.5c-4.5-2.9-9.7-4.6-15.6-4.8c-0.5,0-1.1,0-1.6,0c-7.4,0-15.9,1.8-26.2,5.5c-9.2,3.3-19.1,7.4-29.2,12.2v-0.7
				l-18.4,7.2c-8.8,3.5-17.8,7.1-26.6,10.7l-7.5,3.1v-0.1l-18.8,8.1c-7.1,3.1-14.3,6.2-21.5,9.4V364v-21.1l-19.1,8.8
				c-8.8,4.1-17.8,8.2-26.5,12.5l-3.1,1.5v-0.1l-19.5,9.7c-8.8,4.4-17.6,8.8-26.4,13.4l-7.3,3.8v8.2v179.8v22.2l19.7-10.2
				c8.6-4.4,17.3-8.9,26-13.2l7.5-3.7v-0.1l14.8-7.1c8.7-4.1,17.4-8.3,26.1-12.3l7.9-3.6v-8.7v-28.8c5.1,4.6,11.4,7.2,18.4,7.3
				l0.5,0c7.3,0,15.6-2,25.4-6.1c13-5.5,22.7-11.7,29.7-19c2.1-2.2,4-4.5,5.7-7v9.1l18.3-7c8.7-3.3,17.6-6.6,26.3-9.8l8.9-3.2v0
				l13.1-4.5c9.2-3.2,18.5-6.3,27.7-9.4l4.5-1.5l4.5-1.4c8.8-2.8,17.7-5.6,26.4-8.3l9.6-2.9v0l12.5-3.6c9.2-2.7,18.6-5.3,27.8-7.8
				l4.5-1.2l4.6-1.2c8.8-2.3,17.7-4.6,26.5-6.7l10.3-2.5v-10.6v-9.3c8.2,8.9,19.2,13.7,31.8,13.7c3.9,0,8.1-0.5,12.5-1.4
				c4.9-1,10.2-2.7,15.8-4.9c0.9-0.4,1.7-0.8,2.6-1.2l10-1.9c9-1.7,18-3.3,27-4.9l9.5-1.6l1.5-9.5l2.9-17.9c0.6-0.1,1.1-0.2,1.7-0.3
				l2.2,12.9l2.2,13l13.1-2c9-1.3,18.1-2.6,27.1-3.8l3.6-0.5l3.7-0.5c8.1-1,16.3-2,24.4-2.9l12-1.3v-12.1v-6.6
				c1.4,3.1,2.9,6.2,4.3,9.2l4,8.6l9.5-0.8c8.2-0.7,16.5-1.4,24.8-2l6.8-0.5l6.8-0.4c19.9-1.3,40.1-2.1,60-2.5l13.2-0.3v-1.2
				c2.8,0.7,5.8,1.3,8.8,1.8c6.4,1.1,11.8,1.7,16.4,1.7l0.5,0c15.5,0,27.7-4.8,36-14.2c8-9,12-21.9,12-38.4
				C919.7,325.5,917.9,316.7,914.5,309.6z M194.2,543.8c-8.8,4-17.6,8.2-26.3,12.4c0-17.5,0-58.2,0-75.7c-7.5,3.6-15,7.3-22.5,11
				c0,17.5,0,58.2,0,75.7c-8.7,4.3-17.5,8.8-26.2,13.3c0-40.6,0-139.1,0-179.8c8.7-4.5,17.4-8.9,26.2-13.3c0,14.9,0,60.7,0,75.6
				c7.5-3.7,15-7.4,22.5-11c0-14.9,0-60.7,0-75.6c8.8-4.2,17.5-8.3,26.3-12.4C194.2,404.6,194.2,503.1,194.2,543.8z M840.6,329v-4.1
				c1.5,1.9,3,3.5,4.7,5L840.6,329z M586.7,317.6c-2.8,13.1-5.6,26.2-8.5,39.3l-3.7,1.3c-6.8,2.4-12.2,4-16,4.8
				c-1.2,0.3-2.2,0.4-3,0.5c-0.1-0.2-0.2-0.4-0.3-0.7c-0.7-1.9-1.8-6.7-1.8-17.4c0-5,0.4-10.4,1.1-16c0.3-2.3,0.6-3.9,0.9-5.1
				c0,0,0.1,0,0.1,0c3.6-1.1,8.7-2.3,14.8-3.5c3.1-0.6,6.2-1.2,9.3-1.8L586.7,317.6z M287.1,431.3c0,14.1-1.1,25.5-3.2,34.3
				c-2.1,8.7-6.1,16.1-11.8,22.1c-5.8,6-14.2,11.3-25.2,15.9c-7.9,3.3-14.7,5-20.2,5c-0.1,0-0.2,0-0.3,0c-5.6-0.1-10-2.9-13.2-8.4
				c-3.3-5.5-4.9-14.6-4.9-27.3c0-25.6,0-51.2,0-76.7c8.8-3.9,17.5-7.8,26.3-11.6c0,22.9,0,45.7,0,68.6c0,7.6,0.3,13.2,0.8,16.9
				c0.5,3.7,1.8,6.1,3.7,7.4c0.8,0.5,1.8,0.8,3,0.8c1.6,0,3.6-0.5,5.9-1.5c2.4-1,4.7-2.3,6.9-3.9c2.1-1.6,3.6-3.3,4.4-5
				c0.9-2.1,1.3-8.5,1.3-19.1c0-25,0-50,0-75c8.8-3.6,17.6-7.1,26.4-10.6C287.1,385.9,287.1,408.6,287.1,431.3z M349.7,461.8
				c-1.7-9.7-3.3-19.4-5-29c-0.2-1.1-0.5-2.9-1-5.5c-0.4-2.6-1-4.5-1.5-5.7c-0.6-1.1-1.4-1.7-2.5-1.8c-2.8,1.1-6.8,2.6-12.1,4.6
				c0,15.1,0,30.2,0,45.3c-8.8,3.2-17.7,6.5-26.5,9.9c0-40.3,0-80.5,0-120.8c11.9-5.8,23-10.5,33.3-14.2c8.8-3.1,16-4.7,21.6-4.7
				c0.4,0,0.7,0,1.1,0c5.8,0.2,10.2,2.5,13.1,6.9c1.3,1.9,2.3,4.4,3,7.3v26.7c-0.7,3-1.6,5.8-2.8,8.3c-2.8,5.8-7.2,10.3-13.3,13.4
				c0,0.4,0,0.9,0,1.3c0.9-0.2,1.8-0.3,2.7-0.3c2.3,0,4.3,0.7,6,2.2c2.3,2,3.9,5,4.7,9c0.9,4.8,1.8,9.6,2.8,14.4v20.5v4.4
				C365.3,456.5,357.5,459.1,349.7,461.8z M435.5,434.6c-1.7-9.8-3.4-19.6-5-29.3c-0.2-1.1-0.5-2.9-1-5.6c-0.4-2.7-1-4.6-1.6-5.7
				c-0.6-1.2-1.4-1.8-2.5-1.9c-2.8,1-6.8,2.2-12.1,3.9c0,15.1,0,30.2,0,45.3c-7.6,2.3-15.1,4.7-22.7,7.1l-3.9-20.5
				c0-15.2,0-30.3,0-45.5c0.9-4.6,1.4-9.6,1.4-15c0-5.5-0.5-10.4-1.4-14.7c0-8,0-15.9,0-23.9c11.9-5.1,23.1-9.2,33.4-12.3
				c7.8-2.3,14.4-3.5,19.7-3.5c1.1,0,2.1,0,3.1,0.1c5.8,0.6,10.2,3.1,13.1,7.7c1.4,2.2,2.4,4.9,3.2,8.2V354c-0.7,3.3-1.7,6.3-3,8.9
				c-2.8,5.7-7.2,9.9-13.3,12.6c0,0.4,0,0.9,0,1.3c0.7-0.1,1.4-0.2,2-0.2c2.6,0,4.8,0.8,6.6,2.5c2.3,2.1,3.9,5.2,4.7,9.3
				c1,5.2,2,10.4,3,15.5v20.2v3.6C451.3,430.1,443.4,432.3,435.5,434.6z M476.6,423.3l-3.9-20.5c0-15.8,0-31.7,0-47.5
				c0.8-4.3,1.2-8.9,1.2-13.8c0-5.1-0.4-9.7-1.2-13.8c0-8.4,0-16.8,0-25.2c8.9-2.3,17.8-4.6,26.7-6.8c0,12.6,0,25.2,0,37.8
				c-1,6.8-1.5,14-1.5,21.7c0,7.8,0.5,14.9,1.5,21.3c0,13.7,0,27.4,0,41.1C491.8,419.4,484.2,421.3,476.6,423.3z M554.4,407.3
				c-3.4,0.7-6.7,1.1-9.7,1.1c-8.9,0-16.2-3.1-21.9-9.3c-4.9-5.4-8.2-13.3-9.9-23.8v-40.8c1.8-11.9,5.3-22,10.5-30.1
				c8-12.4,19.3-20.3,33.8-23.3c3.7-0.8,7.4-1.1,11.3-1.1c3.4,0,6.8,0.3,10.4,0.9c0,2.9-0.2,7.1-0.6,12.8c-0.4,5.7-0.8,9.7-1.2,12.1
				c-3.1,0.6-6.2,1.2-9.3,1.8c-6.8,1.4-12.2,2.7-16.1,3.8c-3.9,1.2-6.3,2.4-7,3.5c-1.5,2.3-2.6,6.6-3.4,12.8
				c-0.8,6.2-1.2,12.1-1.2,17.7c0,9.7,0.8,17,2.5,21.8c1.7,4.8,3.8,7.8,6.4,9c1.2,0.6,2.9,0.9,4.9,0.9c2.1,0,4.5-0.3,7.4-0.9
				c3.7-0.8,8.3-2.1,13.8-3.9c-1.7,8-3.5,16.1-5.2,24.1l-1.4,6.4c-0.2,0.1-0.4,0.2-0.5,0.2C563,405.1,558.5,406.5,554.4,407.3z
				 M643.7,389c-1.5-8.7-3-17.4-4.4-26.1c-8.2,1.2-16.4,2.6-24.6,3.9c-1.5,9.2-3,18.3-4.4,27.5c-5.3,0.9-10.7,1.9-16,2.8l-0.2-2.4
				l-0.7-10.2l-1-14.5l-0.8-11.4c6.2-28.8,12.4-57.5,18.5-86.2c11.6-2,23.2-3.8,34.8-5.6c6.6,30.1,13.3,60.2,19.9,90.4v26.9v1.8
				C657.8,387,650.8,388,643.7,389z M758,376.4c-8.3,0.6-16.6,1.3-25,2c-7.6-16.4-15.2-32.8-22.8-49.1c-2.2-4.6-4.4-9.2-6.6-13.8
				c-0.1,0-0.3,0-0.4,0c0,5.6-0.1,11.1-0.1,16.7c0,16.4,0,32.8,0,49.2c-6.2,0.7-12.4,1.4-18.6,2.2l-0.3-1.2
				c-1.9-8.8-3.9-17.6-5.8-26.5c0-31.1,0-62.3,0-93.4c8.3-1,16.6-2,24.9-2.9c7.4,15.6,14.8,31.2,22.2,46.9
				c3.3,6.9,5.9,12.8,7.7,17.7c0.1,0,0.3,0,0.4,0c0-6.8,0-13.7,0-20.5c0-15.7,0-31.4,0-47c8.1-0.7,16.3-1.4,24.4-2
				C758,295.1,758,335.7,758,376.4z M771.8,375.4c0-40.6,0-81.2,0-121.8c20.3-1.3,40.5-2.1,60.7-2.6c0,5,0,10,0,15
				c-1.1,3.5-1.9,7.1-2.5,10.7c-10.6,0.2-21.2,0.6-31.8,1.1c0,7.4,0,14.8,0,22.2c9.7-0.4,19.3-0.8,28.9-1c0,7.7,0,15.4,0,23.1
				c-9.6,0.2-19.3,0.6-28.9,1c0,8.3,0,16.5,0,24.8c10.8-0.5,21.7-0.8,32.5-1.1c-0.3,2.4-0.7,5.1-1,8.2c-0.7,6-1.1,10.5-1.3,13.8
				l-0.3,4.1C809.4,373.4,790.6,374.2,771.8,375.4z M871.6,374.9c-0.2,0-0.3,0-0.5,0c-3.9,0-8.6-0.5-14.2-1.5
				c-4-0.7-7.7-1.5-11.2-2.5v-24.1v-3c3.4,0.6,8.1,1.4,14.4,2.3c6.8,1,12,1.5,15.4,1.5c0.1,0,0.2,0,0.3,0c1.9,0,3-0.2,3.4-0.6
				c0.6-0.6,1-1.5,1.4-2.9c0.3-1.3,0.5-2.5,0.5-3.5c0-2.8-0.9-5-2.8-6.5c-1.8-1.5-5-3.4-9.4-5.5c-5.3-2.4-9.7-4.9-13.2-7.5
				c-3.5-2.5-6.5-6.5-9.2-11.9c-2.4-4.9-3.7-11.3-3.9-19.2l3.3-0.1v-13.2v-8.6c1.8-5.4,3.7-9.2,5.6-11.2c1.5-1.6,4.7-3.1,9.6-4.5
				c4.7-1.4,9.2-2.1,13.3-2.1c0.1,0,0.2,0,0.3,0c10.8,0.1,19.6,1.8,26.5,5c-0.1,2.8-0.4,6.8-0.9,11.7c-0.5,5-1.1,9.5-1.7,13.6
				c-1.1-0.1-2.2-0.2-3.3-0.3c-12.5-1.6-20.6-2.2-24-2.3c-0.1,0-0.1,0-0.2,0c-1.3,0-2.1,0.1-2.2,0.2c-0.4,0.3-0.7,0.9-1,1.9
				c-0.3,1-0.4,2.1-0.4,3.4c0,3,1,5.3,3.1,7.1c2.1,1.7,5.3,3.6,9.8,5.6c5.3,2.6,9.7,5.2,13.1,7.7c3.4,2.5,6.4,6.3,9,11.5
				c2.6,5.2,3.8,11.9,3.8,20.2C906.2,362.2,894.7,374.9,871.6,374.9z"/>
		</g>
		<g>
			<path class="st1" d="M337.8,359.2c-1-0.6-2.2-0.9-3.7-0.9c-1.8,0-4.1,0.5-6.7,1.4c-1.1,0.4-3.3,1.3-6.6,2.8c0,9.8,0,19.5,0,29.3
				c0.9-0.2,2.6-0.7,5.2-1.7c7.6-2.7,12-5.2,13.3-7.5c1.2-2.1,1.8-6.3,1.8-12.6C341,364.2,339.9,360.5,337.8,359.2z"/>
			<path class="st1" d="M423.6,331.6c-1.1-0.8-2.5-1.2-4.4-1.2c-1.7,0-3.7,0.3-6.1,1.1c-1.1,0.3-3.3,1.1-6.7,2.4
				c0,9.8,0,19.5,0,29.3c0.9-0.1,2.6-0.6,5.2-1.4c7.6-2.3,12-4.5,13.3-6.7c1.2-2.1,1.8-6.2,1.8-12.5
				C426.8,336.8,425.7,333.1,423.6,331.6z"/>
			<path class="st1" d="M620,287.6c-2.9,15.5-5.8,31-8.7,46.5c5.9-1,11.7-1.9,17.6-2.8c-2.8-14.6-5.5-29.2-8.3-43.8
				C620.4,287.5,620.2,287.6,620,287.6z"/>
			<path class="st1" d="M907.5,300.5c-3.1-6.3-6.9-11.3-11.2-15l7,0.6l1.8-12.7c0.6-4.3,1.2-9,1.7-14.1c0.6-5.4,0.9-9.5,1-12.7
				l0.3-8.9l-8.1-3.8c-8.6-4-19.4-6.1-32.1-6.2l-0.4,0c-5.5,0-11.2,0.9-17.2,2.6c-4.8,1.4-8.4,3-11.3,4.8v-7l-13.8,0.3
				c-20.1,0.4-40.5,1.3-60.7,2.5v-0.1l-7.5,0.5l-5.7,0.4v0.1l-1.3,0.1c-8.2,0.6-16.4,1.3-24.6,2l-12.3,1.1v12.4v6.9
				c-1.5-3.3-3.1-6.5-4.6-9.8l-4.1-8.7l-9.5,1c-8.3,0.9-16.8,1.9-25.1,3l-11.8,1.5v11.9v32.1c-2.2-10.1-4.5-20.3-6.7-30.4l-2.7-12.3
				l-12.5,1.8c-11.6,1.7-23.4,3.6-35.1,5.6l-9,1.5l-1.9,8.9c-1.8,8.2-3.5,16.5-5.3,24.7c0.4-6,0.6-10.5,0.6-13.6l0-11.4l-11.3-1.9
				c-4.2-0.7-8.5-1.1-12.6-1.1c-4.7,0-9.5,0.5-14,1.4c-17.6,3.6-31.6,13.1-41.6,28v-0.2v-17.2l-16.7,4.1c-8.9,2.2-18,4.5-26.9,6.8
				l-10.1,2.7v10.4v2.5c-4.3-3-9.3-4.8-15-5.3c-1.4-0.1-2.9-0.2-4.4-0.2c-6.8,0-14.5,1.3-23.6,4c-11,3.3-22.7,7.6-34.9,12.8
				l-8.2,3.5v8.9v2.5c-4.5-2.9-9.7-4.6-15.6-4.8c-0.5,0-1.1,0-1.6,0c-7.4,0-15.9,1.8-26.2,5.5c-9.2,3.3-19.1,7.4-29.2,12.2v-0.7
				l-18.4,7.2c-8.8,3.5-17.8,7.1-26.6,10.7l-7.5,3.1V355l-18.8,8.1c-7.1,3.1-14.3,6.2-21.5,9.4v-17.7v-21.1l-19.1,8.8
				c-8.8,4.1-17.8,8.2-26.5,12.5l-3.1,1.5v-0.1l-19.5,9.7c-8.8,4.4-17.6,8.8-26.4,13.4l-7.3,3.8v8.2v179.8v22.2l19.7-10.2
				c8.6-4.4,17.3-8.9,26-13.2l7.5-3.7v-0.1l14.8-7.1c8.7-4.1,17.4-8.3,26.1-12.3l7.9-3.6v-8.7v-28.8c5.1,4.6,11.4,7.2,18.4,7.3
				l0.5,0c7.3,0,15.6-2,25.4-6.1c13-5.5,22.7-11.7,29.7-19c2.1-2.2,4-4.5,5.7-7v9.1l18.3-7c8.7-3.3,17.6-6.6,26.3-9.8l8.9-3.2v0
				l13.1-4.5c9.2-3.2,18.5-6.3,27.7-9.4l4.5-1.5l4.5-1.4c8.8-2.8,17.6-5.6,26.4-8.3l9.6-2.9v0l12.5-3.6c9.2-2.7,18.6-5.3,27.8-7.8
				l4.5-1.2l4.6-1.2c8.8-2.3,17.7-4.6,26.5-6.7l10.3-2.5v-10.6v-9.3c8.2,8.9,19.2,13.7,31.8,13.7c3.9,0,8.1-0.5,12.5-1.4
				c4.9-1,10.2-2.7,15.8-4.9c0.9-0.4,1.7-0.8,2.6-1.2l10-1.9c9-1.7,18-3.3,27-4.9l9.5-1.6l1.5-9.5l2.9-17.9c0.6-0.1,1.1-0.2,1.7-0.3
				l2.2,12.9l2.2,13l13.1-2c9-1.3,18.1-2.6,27.1-3.8l3.6-0.5l3.7-0.5c8.1-1,16.3-2,24.4-2.9l12-1.3v-12.1v-6.6
				c1.4,3.1,2.9,6.2,4.3,9.2l4,8.6l9.5-0.8c8.2-0.7,16.5-1.4,24.8-2l6.8-0.5l6.8-0.4c20-1.3,40.1-2.1,60-2.5l13.2-0.3v-1.2
				c2.8,0.7,5.8,1.3,8.8,1.8c6.4,1.1,11.8,1.7,16.4,1.7l0.5,0c15.5,0,27.7-4.8,36-14.2c8-9,12-21.9,12-38.4
				C912.7,316.3,910.9,307.5,907.5,300.5z M187.2,534.6c-8.8,4-17.6,8.2-26.3,12.4c0-17.5,0-58.2,0-75.7c-7.5,3.6-15,7.3-22.5,11
				c0,17.5,0,58.2,0,75.7c-8.7,4.3-17.5,8.8-26.2,13.3c0-40.6,0-139.1,0-179.8c8.7-4.5,17.4-8.9,26.2-13.3c0,14.9,0,60.7,0,75.6
				c7.5-3.7,15-7.4,22.5-11c0-14.9,0-60.7,0-75.6c8.8-4.2,17.5-8.3,26.3-12.4C187.2,395.5,187.2,494,187.2,534.6z M579.7,308.5
				c-2.8,13.1-5.6,26.2-8.5,39.3l-3.7,1.3c-6.8,2.4-12.2,4-16,4.8c-1.2,0.3-2.2,0.4-3,0.5c-0.1-0.2-0.2-0.4-0.3-0.7
				c-0.7-1.9-1.8-6.7-1.8-17.4c0-5,0.4-10.4,1.1-16c0.3-2.3,0.6-3.9,0.9-5.1c0,0,0.1,0,0.1,0c3.6-1.1,8.7-2.3,14.8-3.5
				c3.1-0.6,6.2-1.2,9.3-1.8L579.7,308.5z M280.1,422.2c0,14.1-1.1,25.5-3.2,34.3c-2.1,8.7-6.1,16.1-11.8,22.1
				c-5.8,6-14.2,11.3-25.2,15.9c-7.9,3.3-14.7,5-20.2,5c-0.1,0-0.2,0-0.3,0c-5.6-0.1-10-2.9-13.2-8.4c-3.3-5.5-4.9-14.6-4.9-27.3
				c0-25.6,0-51.2,0-76.7c8.8-3.9,17.5-7.8,26.3-11.6c0,22.9,0,45.7,0,68.6c0,7.6,0.3,13.2,0.8,16.9c0.5,3.7,1.8,6.1,3.7,7.4
				c0.8,0.5,1.8,0.8,3,0.8c1.6,0,3.6-0.5,5.9-1.5c2.4-1,4.7-2.3,6.9-3.9c2.1-1.6,3.6-3.3,4.4-5c0.9-2.1,1.3-8.5,1.3-19.1
				c0-25,0-50,0-75c8.8-3.6,17.6-7.1,26.4-10.6C280.1,376.7,280.1,399.4,280.1,422.2z M342.7,452.7c-1.7-9.7-3.3-19.4-5-29
				c-0.2-1.1-0.5-2.9-1-5.5c-0.4-2.6-1-4.5-1.5-5.7c-0.6-1.1-1.4-1.7-2.5-1.8c-2.8,1.1-6.8,2.6-12.1,4.6c0,15.1,0,30.2,0,45.3
				c-8.8,3.2-17.7,6.5-26.5,9.9c0-40.3,0-80.5,0-120.8c11.9-5.8,23-10.5,33.3-14.2c8.8-3.1,16-4.7,21.6-4.7c0.4,0,0.7,0,1.1,0
				c5.8,0.2,10.2,2.5,13.1,6.9c1.3,1.9,2.3,4.4,3,7.3v26.7c-0.7,3-1.6,5.8-2.8,8.3c-2.8,5.8-7.2,10.3-13.3,13.4c0,0.4,0,0.9,0,1.3
				c0.9-0.2,1.8-0.3,2.7-0.3c2.3,0,4.3,0.7,6,2.2c2.3,2,3.9,5,4.7,9c0.9,4.8,1.8,9.6,2.8,14.4v20.5v4.4
				C358.3,447.3,350.5,450,342.7,452.7z M428.5,425.4c-1.7-9.8-3.4-19.6-5-29.3c-0.2-1.1-0.5-2.9-1-5.6c-0.4-2.7-1-4.6-1.6-5.7
				c-0.6-1.2-1.4-1.8-2.5-1.9c-2.8,1-6.8,2.2-12.1,3.9c0,15.1,0,30.2,0,45.3c-7.6,2.3-15.1,4.7-22.7,7.1l-3.9-20.5
				c0-15.2,0-30.3,0-45.5c0.9-4.6,1.4-9.6,1.4-15c0-5.5-0.5-10.4-1.4-14.7c0-8,0-15.9,0-23.9c11.9-5.1,23.1-9.2,33.4-12.3
				c7.8-2.3,14.4-3.5,19.7-3.5c1.1,0,2.1,0,3.1,0.1c5.8,0.6,10.2,3.1,13.1,7.7c1.4,2.2,2.4,4.9,3.2,8.2v25.2c-0.7,3.3-1.7,6.3-3,8.9
				c-2.8,5.7-7.2,9.9-13.3,12.6c0,0.4,0,0.9,0,1.3c0.7-0.1,1.4-0.2,2-0.2c2.6,0,4.8,0.8,6.6,2.5c2.3,2.1,3.9,5.2,4.7,9.3
				c1,5.2,2,10.4,3,15.5v20.2v3.6C444.3,420.9,436.4,423.1,428.5,425.4z M469.6,414.1l-3.9-20.5c0-15.8,0-31.7,0-47.5
				c0.8-4.3,1.2-8.9,1.2-13.8c0-5.1-0.4-9.7-1.2-13.8c0-8.4,0-16.8,0-25.2c8.9-2.3,17.8-4.6,26.7-6.8c0,12.6,0,25.2,0,37.8
				c-1,6.8-1.5,14-1.5,21.7c0,7.8,0.5,14.9,1.5,21.3c0,13.7,0,27.4,0,41.1C484.8,410.2,477.2,412.1,469.6,414.1z M547.4,398.2
				c-3.4,0.7-6.7,1.1-9.7,1.1c-8.9,0-16.2-3.1-21.9-9.3c-4.9-5.4-8.2-13.3-9.9-23.8v-40.8c1.8-11.9,5.3-22,10.5-30.1
				c8-12.4,19.3-20.3,33.8-23.3c3.7-0.8,7.4-1.1,11.3-1.1c3.4,0,6.8,0.3,10.4,0.9c0,2.9-0.2,7.1-0.6,12.8c-0.4,5.7-0.8,9.7-1.2,12.1
				c-3.1,0.6-6.2,1.2-9.3,1.8c-6.8,1.4-12.2,2.7-16.1,3.8c-3.9,1.2-6.3,2.4-7,3.5c-1.5,2.3-2.6,6.6-3.4,12.8
				c-0.8,6.2-1.2,12.1-1.2,17.7c0,9.7,0.8,17,2.5,21.8c1.7,4.8,3.8,7.8,6.4,9c1.2,0.6,2.9,0.9,4.9,0.9c2.1,0,4.5-0.3,7.4-0.9
				c3.7-0.8,8.3-2.1,13.8-3.9c-1.7,8-3.5,16.1-5.2,24.1l-1.4,6.4c-0.2,0.1-0.4,0.2-0.5,0.2C556,395.9,551.5,397.3,547.4,398.2z
				 M636.7,379.9c-1.5-8.7-3-17.4-4.4-26.1c-8.2,1.2-16.4,2.6-24.6,3.9c-1.5,9.2-3,18.3-4.4,27.5c-5.3,0.9-10.7,1.9-16,2.8l-0.2-2.4
				l-0.4-6l-1.2-18.7l-0.8-11.4c6.2-28.8,12.4-57.5,18.5-86.2c11.6-2,23.2-3.8,34.8-5.6c6.6,30.1,13.3,60.2,19.9,90.4v26.9v1.8
				C650.8,377.8,643.8,378.8,636.7,379.9z M751.1,367.2c-8.3,0.6-16.6,1.3-25,2c-7.6-16.4-15.2-32.8-22.8-49.1
				c-2.2-4.6-4.4-9.2-6.6-13.8c-0.1,0-0.3,0-0.4,0c0,5.6-0.1,11.1-0.1,16.7c0,16.4,0,32.8,0,49.2c-6.2,0.7-12.4,1.4-18.6,2.2
				l-0.3-1.2c-1.9-8.8-3.9-17.6-5.8-26.5c0-31.1,0-62.3,0-93.4c8.3-1,16.6-2,24.9-2.9c7.4,15.6,14.8,31.2,22.2,46.9
				c3.3,6.9,5.9,12.8,7.7,17.7c0.1,0,0.3,0,0.4,0c0-6.8,0-13.7,0-20.5c0-15.7,0-31.4,0-47c8.1-0.7,16.3-1.4,24.4-2
				C751.1,286,751.1,326.6,751.1,367.2z M764.8,366.3c0-40.6,0-81.2,0-121.8c20.3-1.3,40.5-2.1,60.7-2.6c0,5,0,10,0,15
				c-1.1,3.5-1.9,7.1-2.5,10.7c-10.6,0.2-21.2,0.6-31.8,1.1c0,7.4,0,14.8,0,22.2c9.7-0.4,19.3-0.8,28.9-1c0,7.7,0,15.4,0,23.1
				c-9.6,0.2-19.3,0.6-28.9,1c0,8.3,0,16.5,0,24.8c10.8-0.5,21.7-0.8,32.5-1.1c-0.3,2.4-0.7,5.1-1,8.2c-0.7,6-1.1,10.5-1.3,13.8
				l-0.3,4.1C802.4,364.3,783.6,365.1,764.8,366.3z M864.6,365.8c-0.2,0-0.3,0-0.5,0c-3.9,0-8.6-0.5-14.2-1.5
				c-4-0.7-7.7-1.5-11.2-2.5v-24.1v-3c3.4,0.6,8.1,1.4,14.4,2.3c6.8,1,12,1.5,15.4,1.5c0.1,0,0.2,0,0.3,0c1.9,0,3-0.2,3.4-0.6
				c0.6-0.6,1-1.5,1.4-2.9c0.3-1.3,0.5-2.5,0.5-3.5c0-2.8-0.9-5-2.8-6.5c-1.8-1.5-5-3.4-9.4-5.5c-5.3-2.4-9.7-4.9-13.2-7.5
				c-3.5-2.5-6.5-6.5-9.2-11.9c-2.4-4.9-3.7-11.3-3.9-19.2l3.3-0.1v-13.2v-8.6c1.8-5.4,3.7-9.2,5.6-11.2c1.5-1.6,4.7-3.1,9.6-4.5
				c4.7-1.4,9.2-2.1,13.3-2.1c0.1,0,0.2,0,0.3,0c10.8,0.1,19.6,1.8,26.5,5c-0.1,2.8-0.4,6.8-0.9,11.7c-0.5,5-1.1,9.5-1.7,13.6
				c-1.1-0.1-2.2-0.2-3.3-0.3c-12.5-1.6-20.6-2.2-24-2.3c-0.1,0-0.1,0-0.2,0c-1.3,0-2.1,0.1-2.2,0.2c-0.4,0.3-0.7,0.9-1,1.9
				c-0.3,1-0.4,2.1-0.4,3.4c0,3,1,5.3,3.1,7.1c2.1,1.7,5.3,3.6,9.8,5.6c5.3,2.6,9.7,5.2,13.1,7.7c3.4,2.5,6.4,6.3,9,11.5
				s3.8,11.9,3.8,20.2C899.2,353,887.7,365.8,864.6,365.8z"/>
		</g>
		<path class="st1" d="M541.4,310.5l-2.4,42.1c0,0,6.2,7.7,6.8,7.9c0.7,0.2,20.5-3,21.6-3.4c1.1-0.4,12.4-15,12.4-15l7.3-36.6
			c0,0-15-3.4-15.6-3.4S541.4,310.5,541.4,310.5z"/>
		<g>
			<path class="st0" d="M112.5,392.1c8.7-4.5,17.4-8.9,26.2-13.3c0,14.9,0,60.7,0,75.6c7.5-3.7,15-7.4,22.5-11c0-14.9,0-60.7,0-75.6
				c8.8-4.2,17.5-8.3,26.3-12.4c0,40.6,0,139.1,0,179.8c-8.8,4-17.6,8.2-26.3,12.4c0-17.5,0-58.2,0-75.7c-7.5,3.6-15,7.3-22.5,11
				c0,17.5,0,58.2,0,75.7c-8.7,4.3-17.5,8.8-26.2,13.3C112.5,531.2,112.5,432.7,112.5,392.1z"/>
			<path class="st0" d="M280.3,354.7c0,22.7,0,45.5,0,68.2c0,14.1-1.1,25.5-3.2,34.3c-2.1,8.7-6.1,16.1-11.8,22.1
				c-5.8,6-14.2,11.3-25.2,15.9c-8.1,3.4-14.9,5.1-20.5,5c-5.6-0.1-10-2.9-13.2-8.4c-3.3-5.5-4.9-14.6-4.9-27.3
				c0-25.6,0-51.2,0-76.7c8.8-3.9,17.5-7.8,26.3-11.6c0,22.9,0,45.7,0,68.6c0,7.6,0.3,13.2,0.8,16.9c0.5,3.7,1.8,6.1,3.7,7.4
				c2,1.2,4.9,1,8.9-0.7c2.4-1,4.7-2.3,6.9-3.9c2.2-1.6,3.6-3.3,4.4-5c0.9-2.1,1.3-8.5,1.3-19.1c0-25,0-50,0-75
				C262.7,361.7,271.5,358.1,280.3,354.7z"/>
			<path class="st0" d="M370.9,443.9c-9.3,3.1-18.6,6.2-27.9,9.4c-1.7-9.7-3.3-19.4-5-29c-0.2-1.1-0.5-2.9-1-5.5
				c-0.4-2.6-1-4.5-1.5-5.7c-0.6-1.1-1.4-1.7-2.5-1.8c-2.8,1.1-6.8,2.6-12.1,4.6c0,15.1,0,30.2,0,45.3c-8.8,3.2-17.7,6.5-26.5,9.9
				c0-40.3,0-80.5,0-120.8c11.9-5.8,23-10.5,33.3-14.2c9.3-3.3,16.9-4.9,22.7-4.6c5.8,0.2,10.2,2.5,13.1,6.9
				c2.9,4.4,4.4,11.2,4.4,20.5c0,8.7-1.4,16-4.1,21.8c-2.8,5.8-7.2,10.3-13.3,13.4c0,0.4,0,0.9,0,1.3c3.4-0.7,6.3-0.1,8.6,1.9
				c2.3,2,3.9,5,4.7,9C366.1,418.7,368.5,431.3,370.9,443.9z M326,390.1c7.6-2.7,12-5.2,13.3-7.5c1.2-2.1,1.8-6.3,1.8-12.6
				c0-5.8-1.1-9.5-3.2-10.9c-2.1-1.4-5.6-1.2-10.4,0.5c-1.1,0.4-3.3,1.3-6.6,2.8c0,9.8,0,19.5,0,29.3
				C321.7,391.6,323.4,391,326,390.1z"/>
			<path class="st0" d="M466,294c8.9-2.3,17.8-4.6,26.7-6.8c0,40.6,0,81.2,0,121.8c-8.9,2.2-17.8,4.4-26.7,6.8
				C466,375.2,466,334.6,466,294z"/>
			<path class="st0" d="M573.9,387.2c-3.7,3-7.9,5.4-12.7,7.4c-4.8,2-9.3,3.4-13.5,4.2c-13.4,2.8-24,0.1-31.6-8.2
				c-7.6-8.4-11.4-23-11.4-43.9c0-21.4,4-38.3,12-50.8c8-12.4,19.3-20.3,33.8-23.3c6.9-1.4,14.1-1.5,21.6-0.3
				c0,2.9-0.2,7.1-0.6,12.8c-0.4,5.7-0.8,9.7-1.2,12.1c-3.1,0.6-6.2,1.2-9.3,1.8c-6.8,1.4-12.2,2.7-16.1,3.8c-3.9,1.2-6.3,2.4-7,3.5
				c-1.5,2.3-2.6,6.6-3.4,12.8c-0.8,6.2-1.2,12.1-1.2,17.7c0,9.7,0.8,17,2.5,21.8c1.7,4.8,3.8,7.8,6.4,9c2.5,1.2,6.6,1.2,12.3,0
				c4.5-0.9,10.5-2.7,17.8-5.2C572.8,370.8,573.4,379,573.9,387.2z"/>
			<path class="st0" d="M632.5,354.5c-8.2,1.2-16.4,2.6-24.6,3.9c-1.5,9.2-3,18.3-4.4,27.5c-9.1,1.6-18.2,3.2-27.3,4.9
				c9.1-42.3,18.2-84.6,27.3-126.8c11.6-2,23.2-3.8,34.8-5.6c8.7,39.3,17.3,78.7,26,118.2c-9.1,1.2-18.2,2.5-27.3,3.8
				C635.5,371.9,634,363.2,632.5,354.5z M620.1,287.6c-2.9,15.5-5.8,31-8.7,46.5c5.9-1,11.7-1.9,17.6-2.8
				c-2.8-14.6-5.5-29.2-8.3-43.8C620.5,287.5,620.3,287.6,620.1,287.6z"/>
			<path class="st0" d="M696.3,323.7c0,16.4,0,32.8,0,49.2c-8.2,0.9-16.4,1.9-24.6,2.9c0-40.6,0-81.2,0-121.8c8.3-1,16.6-2,24.9-2.9
				c7.4,15.6,14.8,31.2,22.2,46.9c3.3,6.9,5.9,12.8,7.7,17.7c0.1,0,0.3,0,0.4,0c0-6.8,0-13.7,0-20.5c0-15.7,0-31.4,0-47
				c8.1-0.7,16.3-1.4,24.4-2c0,40.6,0,81.2,0,121.8c-8.3,0.6-16.6,1.3-25,2c-7.6-16.4-15.2-32.8-22.8-49.1
				c-2.2-4.6-4.4-9.2-6.6-13.8c-0.1,0-0.3,0-0.4,0C696.4,312.6,696.4,318.1,696.3,323.7z"/>
			<path class="st0" d="M765.1,245.1c20.3-1.3,40.5-2.1,60.7-2.6c0,8.6,0,17.1,0,25.7c-11.4,0.2-22.8,0.6-34.3,1.1
				c0,7.4,0,14.8,0,22.2c9.7-0.4,19.3-0.8,28.9-1c0,7.7,0,15.4,0,23.1c-9.6,0.2-19.3,0.6-28.9,1c0,8.3,0,16.5,0,24.8
				c11.4-0.5,22.8-0.9,34.2-1.1c0,8.7,0,17.4,0,26.1c-20.1,0.4-40.3,1.3-60.5,2.6C765.1,326.3,765.1,285.7,765.1,245.1z"/>
			<path class="st0" d="M863.8,282.2c2.1,1.7,5.3,3.6,9.8,5.6c5.3,2.6,9.7,5.2,13.1,7.7c3.4,2.5,6.4,6.3,9,11.5
				c2.6,5.2,3.8,11.9,3.8,20.2c0,26.5-11.6,39.3-35,39.1c-3.9,0-8.6-0.5-14.2-1.5c-5.6-1-10.6-2.2-15.2-3.7c0.2-3,0.6-7.4,1.2-13.2
				c0.6-5.8,1.2-10.1,1.8-13c3.4,0.7,8.5,1.5,15.3,2.5c6.8,1,12,1.5,15.4,1.5c2,0,3.2-0.2,3.6-0.6c0.6-0.6,1-1.5,1.4-2.9
				c0.3-1.3,0.5-2.5,0.5-3.5c0-2.8-0.9-5-2.8-6.5c-1.8-1.5-5-3.4-9.4-5.5c-5.3-2.4-9.7-4.9-13.2-7.5c-3.5-2.5-6.5-6.5-9.2-11.9
				c-2.6-5.4-3.9-12.5-3.9-21.3c0-6.3,1-12.4,2.9-18.5c1.9-6.1,3.9-10.2,6-12.4c1.5-1.6,4.7-3.1,9.6-4.5c4.8-1.4,9.4-2.1,13.6-2.1
				c10.8,0.1,19.6,1.8,26.5,5c-0.1,2.8-0.4,6.8-0.9,11.7c-0.5,5-1.1,9.5-1.7,13.6c-1.1-0.1-2.2-0.2-3.3-0.3
				c-12.5-1.6-20.6-2.2-24-2.3c-1.5,0-2.3,0.1-2.5,0.2c-0.4,0.3-0.7,0.9-1,1.9c-0.3,1-0.4,2.1-0.4,3.4
				C860.7,278.1,861.7,280.5,863.8,282.2z"/>
		</g>
		<g>
			<path class="st8" d="M165.7,368.8l-4.5-0.9c0,13.6-0.1,57.3-0.1,75.5l4.4,1.2C165.6,431.1,165.7,387,165.7,368.8z"/>
			<path class="st8" d="M117,392.5l-4.5-0.3c0,40.6,0,139.1,0,179.8c8.7-4.5,17.4-8.9,26.2-13.3c0-1.4,0-3,0-4.7
				c-7.2,3.6-14.5,7.3-21.7,11C117,525.9,117,435.5,117,392.5z"/>
			<path class="st8" d="M165.7,465c-7.5,3.6-22.6,11-30.1,14.7c0,0,3.1,2.7,3,3.1c6-3,16.5-8,22.6-10.9c0,17.5,0,58.2,0,75.7
				c8.8-4.2,17.5-8.3,26.3-12.4c0-1.5,0-3.1,0-4.8c-7.3,3.4-14.6,6.8-21.8,10.3C165.7,523.3,165.7,482.6,165.7,465z"/>
			<path class="st8" d="M256.5,452c0.9-2.1,1.2-8,1.2-18.7c0-23.3,0.7-44.1,0.7-67.4l-4.5-0.6c0,25,0,50,0,75c0,8.1,0.1,14.8-2.5,21
				C253.3,459.9,255.8,453.6,256.5,452z"/>
			<path class="st8" d="M244.6,488.3c-8.1,3.4-14.9,5.1-20.5,5c-5.6-0.1-10-2.9-13.2-8.4c-3.3-5.5-4.9-14.6-4.9-27.3
				c0-23.9,0-45.3,0-69.2l-4.5-0.6c0,25.6,0,51.2,0,76.7c0,12.7,1.6,21.8,4.9,27.3c3.3,5.5,7.7,8.3,13.2,8.4
				c5.6,0.1,12.4-1.6,20.5-5c11-4.6,19.5-9.9,25.2-15.9c3-3.1,5.4-6.5,7.4-10.4c-0.9,1.2-1.9,2.3-2.9,3.4
				C264.1,478.4,255.7,483.7,244.6,488.3z"/>
			<path class="st8" d="M342.4,417.5c-0.2-1.1-0.5-2.9-1-5.5c-0.4-2.6-0.7-3.5-1.3-4.7c-0.6-1.1-4.2-1.9-5.5-1.6
				c-2.8,1.1-11.7,4.4-17,6.3l3.2,3.9c3.1-1.2,10.2-3.7,12.1-4.5c1.1,0,1.9,0.6,2.5,1.8c0.6,1.1,1.1,3,1.5,5.7
				c0.4,2.6,0.8,4.5,1,5.5c1.7,9.7,3.3,19.4,5,29c9.3-3.2,18.6-6.4,27.9-9.4c-0.3-1.7-0.7-3.4-1-5.1c-7.5,2.5-15,5-22.5,7.6
				C345.8,436.8,344.1,427.2,342.4,417.5z"/>
			<path class="st8" d="M298.8,352l-4.5-1.6c0,40.3,0,80.5,0,120.8c8.8-3.4,17.7-6.7,26.5-9.9c0-1.8,0-3.5,0-5.3
				c-7.3,2.7-14.7,5.4-22,8.2C298.8,425.6,298.8,390.6,298.8,352z"/>
			<path class="st8" d="M440.6,360.2c0,0.4,0,0.9,0,1.3c1.4-0.2,2.7-0.2,3.9,0c2-2,3.7-4.3,5-7c0.1-0.3,0.2-0.6,0.4-0.8
				C447.4,356.4,444.3,358.6,440.6,360.2z"/>
			<g>
				<path class="st9" d="M421.8,355.3c0.3-2.2,0.5-4.9,0.5-8.3c0-5.8-1.1-9.5-3.2-11c-2.1-1.5-5.6-1.6-10.4-0.1
					c-0.5,0.1-1.2,0.4-2.2,0.7c0,8.9,0,17.8,0,26.7c0.9-0.1,2.6-0.6,5.2-1.4c7.6-2.3,12-4.5,13.3-6.7c1.2-2.1,1.8-6.2,1.8-12.5
					c0-0.3,0-0.6,0-0.9c-0.1,5.3-0.7,8.9-1.8,10.8C424.5,353.4,423.4,354.4,421.8,355.3z"/>
				<path class="st0" d="M449.5,380c-0.8-4.1-2.3-7.2-4.7-9.3c-2.3-2.1-5.2-2.9-8.7-2.4c0-0.4,0-0.9,0-1.3
					c6.1-2.7,10.6-6.9,13.3-12.6c2.8-5.7,4.2-12.9,4.2-21.5c0-9.3-1.5-16.2-4.4-20.7c-2.9-4.5-7.3-7.1-13.1-7.7
					c-5.8-0.6-13.4,0.5-22.8,3.3c-10.4,3.1-21.5,7.2-33.4,12.3c0,40.3,0,80.5,0,120.8c8.9-2.9,17.8-5.6,26.6-8.3
					c0-15.1,0-30.2,0-45.3c5.3-1.6,9.4-2.9,12.1-3.9c1.1,0.1,1.9,0.8,2.5,1.9c0.6,1.2,1.1,3.1,1.6,5.7c0.4,2.6,0.8,4.5,1,5.6
					c1.7,9.8,3.4,19.5,5,29.3c9.3-2.7,18.7-5.3,28-7.8C454.3,405.5,451.9,392.8,449.5,380z M426.8,342.6c0,6.3-0.6,10.4-1.8,12.5
					c-1.3,2.2-5.7,4.4-13.3,6.7c-2.6,0.8-4.3,1.2-5.2,1.4c0-8.9,0-17.8,0-26.7c0-0.9,0-1.7,0-2.6c0-0.9,0-1.7,0-2.6
					c3.4-1.3,5.6-2.1,6.7-2.4c4.8-1.4,8.3-1.4,10.4,0.1c2.1,1.5,3.2,5.2,3.2,11c0,0.6,0,1.2,0,1.7
					C426.8,342,426.8,342.3,426.8,342.6z"/>
				<path class="st8" d="M423.6,329c-2.1-1.5-5.6-1.6-10.4-0.1c-1.1,0.3-3.3,1.1-6.7,2.4c0,0.9,0,1.7,0,2.6c3.4-1.3,5.6-2.1,6.7-2.4
					c4.8-1.4,8.3-1.4,10.4,0.1c2,1.4,3.1,4.8,3.2,10.2c0-0.6,0-1.1,0-1.7C426.8,334.2,425.8,330.5,423.6,329z"/>
			</g>
			<path class="st8" d="M384.4,322.1l-4.5-1.9c0,40.3,0,80.5,0,120.8c8.9-2.9,17.8-5.6,26.6-8.3c0-1.8,0-3.7,0-5.5
				c-7.4,2.3-14.8,4.6-22.1,7C384.4,395.6,384.4,360.7,384.4,322.1z"/>
			<path class="st8" d="M470.4,296l-4.5-2c0,40.6,0,81.2,0,121.8c8.9-2.3,17.8-4.6,26.7-6.8c0-1.9,0-3.9,0-5.8
				c-7.4,1.8-14.8,3.7-22.2,5.7C470.4,370.3,470.4,334.7,470.4,296z"/>
			<path class="st8" d="M565.6,387.8c-4.8,2-9.3,3.4-13.5,4.2c-13.4,2.8-24,0.1-31.6-8.2c-7.6-8.4-11.4-23-11.4-43.9
				c0-19.7,3.5-35.7,10.3-47.8c-1,1.3-1.9,2.6-2.8,3.9c-8,12.5-12,29.4-12,50.8c0,21,3.8,35.6,11.4,43.9c7.6,8.4,18.1,11.1,31.6,8.2
				c4.2-0.9,8.6-2.3,13.5-4.2c4.8-2,9.1-4.4,12.7-7.4c-0.1-1.2-0.2-2.4-0.2-3.6C571.2,385.2,568.5,386.6,565.6,387.8z"/>
			<path class="st8" d="M547.4,296.1c-4.3,1.2-5.7,2.3-6.6,3.4c-0.8,1.2-3,6.2-3.7,8.4c1.3-0.6,3.3-3.6,5.4-4.1
				c4.3-1.2,10.1-3.2,17.6-4.6c3.4-0.6,6.8-1.2,10.2-1.8c0.3-1.4,0.5-3.5,0.8-6.2c-2,0.4-4.1,0.7-6.1,1.1
				C557.5,293.6,551.7,294.9,547.4,296.1z"/>
			<path class="st8" d="M606.1,266c0,0-2.1-1.9-2.6-1.9c-9.1,42.2-18.2,84.4-27.3,126.8c9.1-1.7,18.2-3.4,27.3-4.9
				c0.3-2.1,0.7-4.2,1-6.3c-7.9,1.4-15.9,2.8-23.8,4.3C589.4,343.8,597.5,306.1,606.1,266z"/>
			<path class="st8" d="M637,347.6c-8.2,1.2-16.4,2.6-24.6,3.9c-0.3,2.1-0.7,4.2-1,6.4c7-1.2,14.1-2.3,21.1-3.4
				c1.5,8.7,3,17.4,4.4,26.1c9.1-1.4,18.2-2.6,27.3-3.8c-0.4-2-0.9-4.1-1.3-6.1c-7.2,1-14.3,2-21.5,3C640,365,638.5,356.3,637,347.6
				z"/>
			<path class="st8" d="M731.4,308.7c0-6.8,0-13.7,0-20.5c0-13.5,0-23.7,0-37.2l-4.5-3c0,15.7,0,31.4,0,47c0,1.3,0,2.5,0,3.8
				c1.6,3.7,3,7,4,9.9C731.1,308.7,731.3,308.7,731.4,308.7z"/>
			<path class="st8" d="M708,314c-2.2-4.6-4.4-9.2-6.6-13.8c-0.1,0-0.3,0-0.4,0c0,5-0.1,10-0.1,15c0.9,1.9,1.8,3.8,2.7,5.7
				c7.6,16.3,15.2,32.7,22.8,49.1c8.3-0.7,16.7-1.4,25-2c0-2.2,0-4.4,0-6.6c-6.8,0.5-13.7,1-20.5,1.7
				C723.2,346.6,715.6,330.3,708,314z"/>
			<path class="st8" d="M676.2,256.7l-4.5-2.7c0,40.6,0,81.2,0,121.8c8.2-1,16.4-2,24.6-2.9c0-2.1,0-4.3,0-6.4
				c-6.7,0.8-13.4,1.5-20.1,2.4C676.2,330.4,676.2,295.2,676.2,256.7z"/>
			<path class="st8" d="M791.4,269.2c10-0.4,24.5-0.7,34.4-1c0-2.3,0-4.5,0-6.8c-9.9,0.2-27.4,0.8-37.4,1.3L791.4,269.2z"/>
			<path class="st8" d="M791.4,314.5c8.2-0.3,20.9-0.6,29-0.8c0-2.3,0-4.5,0-6.8c-8.1,0.2-23.8,0.5-31.9,0.9L791.4,314.5z"/>
			<path class="st8" d="M769.6,246.8l-4.5-1.6c0,40.6,0,81.2,0,121.8c20.2-1.3,40.4-2.1,60.5-2.6c0-2.3,0-4.5,0-6.8
				c-18.6,0.5-37.3,1.3-56,2.4C769.6,321.7,769.6,285.1,769.6,246.8z"/>
			<path class="st8" d="M878.4,328.8c0.3-1.3,0.5-2.5,0.5-3.5c0-2.8-0.9-5-2.8-6.5c-1.8-1.5-5-3.4-9.4-5.5
				c-5.3-2.4-9.7-4.9-13.2-7.5c-3.5-2.5-6.5-6.5-9.2-11.9c-2.6-5.4-3.9-12.5-3.9-21.3c0-6.3,1-12.4,2.9-18.5
				c0.7-2.3,1.5-4.4,2.2-6.1c-0.3,0.2-0.6,0.4-0.8,0.7c-2,2.2-4,6.3-6,12.4c-1.9,6.1-2.9,12.3-2.9,18.5c0,8.8,1.3,15.9,3.9,21.3
				c2.6,5.4,5.7,9.4,9.2,11.9c3.5,2.5,7.9,5,13.2,7.5c4.4,2.2,7.6,4,9.4,5.5c1.8,1.5,2.8,3.7,2.8,6.5c0,0,0,0,0,0.1
				c1.4,0,2.3-0.2,2.6-0.6C877.6,331.1,878.1,330.1,878.4,328.8z"/>
			<path class="st8" d="M854.8,358.1c-5.6-1-10.6-2.2-15.2-3.7c0.2-3,0.6-7.4,1.2-13.2c0.2-2,0.4-3.8,0.6-5.4
				c-1.2-0.2-2.4-0.4-3.3-0.6c-0.6,2.9-1.2,7.2-1.8,13c-0.6,5.8-1,10.2-1.2,13.2c4.6,1.5,9.6,2.7,15.2,3.7c5.6,1,10.3,1.5,14.2,1.5
				c15.3,0.1,25.5-5.3,30.8-16.5c-5.8,6.5-14.6,9.6-26.3,9.5C865.1,359.6,860.3,359.1,854.8,358.1z"/>
			<path class="st8" d="M866.6,263c-0.4,0.3-0.7,0.9-1,1.9c-0.3,1-0.4,2.1-0.4,3.4c0,0.5,0.1,0.9,0.1,1.4c3.8,0.1,11.5,0.8,23.3,2.2
				c1.1,0.1,2.2,0.2,3.3,0.3c0.3-2.3,0.6-4.7,0.9-7.2c-12.4-1.5-20.3-2.2-23.8-2.2C867.6,262.8,866.8,262.8,866.6,263z"/>
		</g>
		<path class="st8" d="M337.9,358.2c-2.1-1.5-5.6-1.6-10.4-0.1c-1.1,0.3-3.3,1.1-6.7,2.4c0,0.9,0,1.7,0,2.6c3.4-1.3,5.6-2.1,6.7-2.4
			c4.8-1.4,8.3-1.4,10.4,0.1c2,1.4,3.1,4.8,3.2,10.2c0-0.6,0-1.1,0-1.7C341.1,363.4,340,359.7,337.9,358.2z"/>
		<path class="st8" d="M428,390.5c-0.2-1.1-0.5-2.9-1-5.5c-0.4-2.6-0.7-3.5-1.3-4.7c-0.6-1.1-4.2-1.9-5.5-1.6
			c-2.8,1.1-11.7,4.4-17,6.3l3.2,3.9c3.1-1.2,10.2-3.7,12.1-4.5c1.1,0,1.9,0.6,2.5,1.8c0.6,1.1,1.1,3,1.5,5.7c0.4,2.6,0.8,4.5,1,5.5
			c1.7,9.7,3.3,19.4,5,29c9.3-3.2,19-5.1,28.3-8.2c-0.3-1.7-0.7-4.2-1-5.9c-7.5,2.5-15.3,4.6-22.7,7.2
			C431.3,409.9,429.6,400.2,428,390.5z"/>
		<polygon class="st8" points="620.7,287.5 623.3,288.8 632.1,332.1 629,331.3 		"/>
		<polygon class="st8" points="618.3,350.6 604.7,352.9 608,358.4 616.9,357 		"/>
		<polygon class="st8" points="701.8,301 702.4,318.4 696.5,307 696.5,287.5 		"/>
		<polygon class="st8" points="731.4,299.7 731.4,324.7 726.5,315.6 726.9,297.9 		"/>
		<path class="st8" d="M872.4,338.6c-0.2,0.4,4.5-4.5,6-9.8l-4.2,1.1C874.2,329.9,875.3,332.7,872.4,338.6z"/>
		<path class="st8" d="M870.1,262.7c0,0-4.9-0.7-8.4,3c-1.4,1.5-1,8.5-1,8.5s0.6-4.7,4.6-4.5C869.2,269.9,870.1,262.7,870.1,262.7z"
			/>
	</g>
	<polygon class="st7" points="207.7,342.9 200.8,333.8 200.8,346.8 	"/>
	<path class="st1" d="M839,228.1l26.7-0.4l-0.3,7.8l-29.1,5.1c0,0-4.5-6.4-4.3-7.2C832.2,232.6,839,228.1,839,228.1z"/>
	<polygon class="st7" points="98.8,593.4 105.7,602.5 115.7,590.9 110.8,587.1 	"/>
</g>
<g>
	<path class="st7" d="M364.6,218.2l-2.6,59l-13.4,4.9l1-21.3l-14.5,5.3l-0.9,21.3l-13.4,4.9l2.7-59l13.4-4.9l-1.2,24.9L350,248
		l1.2-24.9L364.6,218.2z"/>
	<path class="st7" d="M397.4,265.1l-1.4-12.5l-12.2,4l-1.8,13.5l-13.9,4.6l10.4-62.6l24-7.9l8.6,56.4L397.4,265.1z M388.1,223.4
		l-2.8,21.8l9.5-3.1l-2.1-20.2L388.1,223.4z"/>
	<path class="st7" d="M454.4,247.9l-36.7,10.7l2.9-59.8l36.7-10.7l-0.7,13l-23.5,6.8l-0.5,11.2l19.5-5.6l-0.7,13l-19.5,5.6l-0.4,9.7
		l23.5-6.8L454.4,247.9z"/>
	<path class="st7" d="M508,175.4l-4.8,59.9l-13.3,3.3l-11.7-29.2l-2.6,32.8l-13.3,3.3l4.9-59.9l13.7-3.4l11.4,27.2l2.5-30.6
		L508,175.4z"/>
	<path class="st7" d="M561,164.4l-7,60l-13.3,2.8l-10.5-29.9l-3.8,32.8l-13.3,2.8l7.1-60l13.7-2.8l10.3,27.8l3.6-30.7L561,164.4z"/>
	<path class="st7" d="M601.3,216.5l-36.5,6l5-60.1l36.5-6l-1.1,13l-23.4,3.9l-0.9,11.3l19.3-3.2l-1.1,13l-19.3,3.2l-0.8,9.8
		l23.4-3.9L601.3,216.5z"/>
	<path class="st7" d="M642.4,211.2l-33.2,4.1l7.1-60.1l13.1-1.6l-5.5,47l20.1-2.5L642.4,211.2z"/>
	<path class="st7" d="M663.2,192.7c0.4,3.8,3,5.5,7.7,5.2c4.8-0.4,7-2.3,6.6-5.7c-0.2-1.8-1.2-3.2-2.9-4.3c-1.7-1-3.8-1.8-6.2-2.4
		c-2.4-0.6-4.8-1.3-7.2-2.2c-2.4-0.8-4.6-2.3-6.4-4.3c-1.9-2.1-2.9-4.7-3.3-8c-1.4-13.9,5.5-21.4,21-22.6c5.6-0.4,10,0.5,13.2,2.7
		c3.1,2.2,4.9,5.5,5.4,9.9c0.2,1.6,0.1,3.1-0.1,4.6c-0.2,1.5-0.5,2.6-0.8,3.2l-0.5,1l-12.7,1c0.9-1.4,1.3-3,1.1-4.9
		c-0.4-3.6-2.6-5.2-6.7-4.9c-5.1,0.4-7.5,2.5-7.1,6.2c0.2,1.9,1.2,3.3,2.9,4.3c1.7,1,3.8,1.7,6.2,2.1c2.4,0.5,4.8,1.1,7.2,1.8
		c2.4,0.8,4.6,2.2,6.4,4.2c1.9,2.1,3,4.8,3.3,8.3c0.7,7-0.5,12.4-3.8,16c-3.3,3.7-8.7,5.8-16.2,6.4c-7.5,0.6-12.9-0.6-16-3.4
		c-2.3-2.2-3.7-5.3-4.1-9.4c-0.2-1.5-0.2-3.2-0.1-5.1l0.1-1.3l12.9-1l0,1C663.1,191.8,663.1,192.3,663.2,192.7z"/>
</g>
<g>
	<g>
		<path class="st10" d="M359.8,213.6l-2.6,59l-13.4,4.9l1-21.3l-14.5,5.3l-0.9,21.3l-13.4,4.9l2.7-59l13.4-4.9l-1.2,24.9l14.5-5.3
			l1.2-24.9L359.8,213.6z"/>
	</g>
	<g>
		<path class="st10" d="M392.6,260.6l-1.4-12.5l-12.2,4l-1.8,13.5l-13.9,4.6l10.4-62.6l24-7.9l8.6,56.4L392.6,260.6z M383.3,218.8
			l-2.8,21.8l9.5-3.1l-2.1-20.2L383.3,218.8z"/>
	</g>
	<g>
		<path class="st10" d="M449.6,243.3l-36.7,10.7l2.9-59.8l36.7-10.7l-0.7,13l-23.5,6.8l-0.5,11.2l19.5-5.6l-0.7,13l-19.5,5.6
			l-0.4,9.7l23.5-6.8L449.6,243.3z"/>
	</g>
	<g>
		<path class="st10" d="M503.1,170.8l-4.8,59.9l-13.3,3.3l-11.7-29.2l-2.6,32.8l-13.3,3.3l4.9-59.9l13.7-3.4l11.4,27.2l2.5-30.6
			L503.1,170.8z"/>
	</g>
	<g>
		<path class="st10" d="M556.1,159.8l-7,60l-13.3,2.8l-10.5-29.9l-3.8,32.8l-13.3,2.8l7.1-60l13.7-2.8l10.3,27.8l3.6-30.7
			L556.1,159.8z"/>
	</g>
	<g>
		<path class="st10" d="M596.5,211.9l-36.5,6l5-60.1l36.5-6l-1.1,13l-23.4,3.9l-0.9,11.3l19.3-3.2l-1.1,13L575,193l-0.8,9.8
			l23.4-3.9L596.5,211.9z"/>
	</g>
	<g>
		<path class="st10" d="M637.6,206.6l-33.2,4.1l7.1-60.1l13.1-1.6l-5.5,47l20.1-2.5L637.6,206.6z"/>
	</g>
	<g>
		<path class="st10" d="M658.3,188.1c0.4,3.8,3,5.5,7.7,5.2c4.8-0.4,7-2.3,6.6-5.7c-0.2-1.8-1.2-3.2-2.9-4.3c-1.7-1-3.8-1.8-6.2-2.4
			c-2.4-0.6-4.8-1.3-7.2-2.2c-2.4-0.8-4.6-2.3-6.4-4.3c-1.9-2.1-2.9-4.7-3.3-8c-1.4-13.9,5.5-21.4,21-22.6c5.6-0.4,10,0.5,13.2,2.7
			c3.1,2.2,4.9,5.5,5.4,9.9c0.2,1.6,0.1,3.1-0.1,4.6c-0.2,1.5-0.5,2.6-0.8,3.2l-0.5,1l-12.7,1c0.9-1.4,1.3-3,1.1-4.9
			c-0.4-3.6-2.6-5.2-6.7-4.9c-5.1,0.4-7.5,2.5-7.1,6.2c0.2,1.9,1.2,3.3,2.9,4.3c1.7,1,3.8,1.7,6.2,2.1c2.4,0.5,4.8,1.1,7.2,1.8
			c2.4,0.8,4.6,2.2,6.4,4.2c1.9,2.1,3,4.8,3.3,8.3c0.7,7-0.5,12.4-3.8,16c-3.3,3.7-8.7,5.8-16.2,6.4c-7.5,0.6-12.9-0.6-16-3.4
			c-2.3-2.2-3.7-5.3-4.1-9.4c-0.2-1.5-0.2-3.2-0.1-5.1l0.1-1.3l12.9-1l0,1C658.3,187.2,658.3,187.7,658.3,188.1z"/>
	</g>
</g>
<linearGradient id="SVGID_4_" gradientUnits="userSpaceOnUse" x1="357.3317" y1="771.9821" x2="649.7914" y2="771.9821">
	<stop  offset="9.572884e-02" style="stop-color:#858585"/>
	<stop  offset="0.2816" style="stop-color:#F2F2F2"/>
	<stop  offset="0.5386" style="stop-color:#858585"/>
	<stop  offset="0.7548" style="stop-color:#F2F2F2"/>
	<stop  offset="0.7952" style="stop-color:#EDEDED"/>
	<stop  offset="0.8456" style="stop-color:#DDDDDD"/>
	<stop  offset="0.9013" style="stop-color:#C4C4C4"/>
	<stop  offset="0.9603" style="stop-color:#A1A1A1"/>
	<stop  offset="1" style="stop-color:#858585"/>
</linearGradient>
<path class="st11" d="M396.2,879.5l9.8-71l-48.7-9.8l18.4-71.8c0,0,153.5-50.5,274.1-62.4l-40.2,58.1c0,0-131.3,23.9-168.5,42.3
	l46.2,6l-3.4,33.8C483.9,804.7,431.7,831.2,396.2,879.5z"/>
<g>
	<linearGradient id="SVGID_5_" gradientUnits="userSpaceOnUse" x1="388.5445" y1="760.6514" x2="636.5367" y2="760.6514">
		<stop  offset="0.1006" style="stop-color:#F9DF7B"/>
		<stop  offset="0.1153" style="stop-color:#F5D974"/>
		<stop  offset="0.2184" style="stop-color:#D9B249"/>
		<stop  offset="0.3112" style="stop-color:#C5952A"/>
		<stop  offset="0.3896" style="stop-color:#B98417"/>
		<stop  offset="0.444" style="stop-color:#B57E10"/>
		<stop  offset="0.4575" style="stop-color:#BF8C1F"/>
		<stop  offset="0.4879" style="stop-color:#D1A53C"/>
		<stop  offset="0.5221" style="stop-color:#E0BB53"/>
		<stop  offset="0.5611" style="stop-color:#EBCB65"/>
		<stop  offset="0.6078" style="stop-color:#F3D672"/>
		<stop  offset="0.6698" style="stop-color:#F8DD79"/>
		<stop  offset="0.809" style="stop-color:#F9DF7B"/>
		<stop  offset="0.8328" style="stop-color:#F6DB77"/>
		<stop  offset="0.8579" style="stop-color:#EED06A"/>
		<stop  offset="0.8835" style="stop-color:#E1BD55"/>
		<stop  offset="0.9095" style="stop-color:#CEA238"/>
		<stop  offset="0.9356" style="stop-color:#B68012"/>
		<stop  offset="0.937" style="stop-color:#B57E10"/>
	</linearGradient>
	<path class="st12" d="M636.5,683.7c0,0-128.3,15.4-241.6,54.7l-6.4,44.5l35.5,14.5l-5.6,40.2c0,0,39.8-28.2,65.4-32.9l3.4-33.8
		l-46.2-6c0,0,63.3-23.9,168.5-42.3L636.5,683.7z"/>
</g>
<linearGradient id="SVGID_6_" gradientUnits="userSpaceOnUse" x1="279.6234" y1="614.6868" x2="774.2697" y2="614.6868">
	<stop  offset="9.572884e-02" style="stop-color:#858585"/>
	<stop  offset="0.2816" style="stop-color:#F2F2F2"/>
	<stop  offset="0.5386" style="stop-color:#BFBFBF"/>
	<stop  offset="1" style="stop-color:#858585"/>
</linearGradient>
<path class="st13" d="M280.3,630.1l-0.7-24.4c0,0,95.3-43.7,146.9-56.6v29.4c0,0,81.7-31.5,141.2-34.4v-30.8
	c0,0,90.3-17.2,147.6-18.6v28.7L620,535.5c0,0,70.1,0.9,95.3,2.9v84.6c0,0-109.6,6.4-145.5,19.3v-30.1c0,0-115.4,22.2-141.9,33.7
	v32.2c0,0-104.6,34.4-148.3,56.6v-87.4c0,0,49.4-33.7,67.4-36.5C347,610.7,295.4,622.2,280.3,630.1z"/>
<g>
	<linearGradient id="SVGID_7_" gradientUnits="userSpaceOnUse" x1="303.03" y1="616.666" x2="715.3936" y2="616.666">
		<stop  offset="0.1006" style="stop-color:#F9DF7B"/>
		<stop  offset="0.1153" style="stop-color:#F5D974"/>
		<stop  offset="0.2184" style="stop-color:#D9B249"/>
		<stop  offset="0.3112" style="stop-color:#C5952A"/>
		<stop  offset="0.3896" style="stop-color:#B98417"/>
		<stop  offset="0.444" style="stop-color:#B57E10"/>
		<stop  offset="0.4575" style="stop-color:#BF8C1F"/>
		<stop  offset="0.4879" style="stop-color:#D1A53C"/>
		<stop  offset="0.5221" style="stop-color:#E0BB53"/>
		<stop  offset="0.5611" style="stop-color:#EBCB65"/>
		<stop  offset="0.6078" style="stop-color:#F3D672"/>
		<stop  offset="0.6698" style="stop-color:#F8DD79"/>
		<stop  offset="0.809" style="stop-color:#F9DF7B"/>
		<stop  offset="0.8328" style="stop-color:#F6DB77"/>
		<stop  offset="0.8579" style="stop-color:#EED06A"/>
		<stop  offset="0.8835" style="stop-color:#E1BD55"/>
		<stop  offset="0.9095" style="stop-color:#CEA238"/>
		<stop  offset="0.9356" style="stop-color:#B68012"/>
		<stop  offset="0.937" style="stop-color:#B57E10"/>
	</linearGradient>
	<path class="st14" d="M715.4,509.3l-0.1,14.1L620,535.5l95.3,2.9v22.3L636,569l79.3,4.9v49c0,0-92.9,6.6-145.5,19.3v-30.1
		l10.1-10.5c0,0-113.3,17.9-162.4,38l10.5,6.2v32.2c0,0-93.6,31.9-124.9,46l1.7-47.2c0,0,46.6-26.9,66.7-35.5c0,0-45.3,6-65.4,15.4
		l-0.2-26.2c0,0,21.6-14.3,35.4-18.7c0,0-27.2,6.7-34.9,9.2l0.2-11.7c0,0,73.4-32.9,120-44.4l0.3,12.7c0,0,85.4-31.2,140.9-33.5V529
		C567.7,529,661.9,511,715.4,509.3z"/>
</g>
</svg>
