<?xml version="1.0" encoding="UTF-8" standalone="no"?>
<svg width="134px" height="113px" viewBox="0 0 134 113" version="1.1" xmlns="http://www.w3.org/2000/svg" xmlns:xlink="http://www.w3.org/1999/xlink">
    <!-- Generator: Sketch 49.1 (51147) - http://www.bohemiancoding.com/sketch -->
    <title>Kotsopoulos_Cobras_Alternate</title>
    <desc>Created with Sketch.</desc>
    <defs>
        <polygon id="path-1" points="0.06 0.0571265478 130.761 0.0571265478 130.761 112.94 0.06 112.94"></polygon>
    </defs>
    <g id="Page-1" stroke="none" stroke-width="1" fill="none" fill-rule="evenodd">
        <g id="Kotsopoulos_Cobras_Alternate">
            <g id="Group-4">
                <mask id="mask-2" fill="white">
                    <use xlink:href="#path-1"></use>
                </mask>
                <g id="Clip-2"></g>
                <path d="M84.765,6.341 L83.642,5.668" id="Fill-1" fill="#1A1919" mask="url(#mask-2)"></path>
                <path d="M94.261,7.703 C99.601,5.81 99.932,10.87 99.766,13.999 C99.6,17.129 96.339,22.923 93.905,25.451 C91.47,27.98 90.993,29.414 90.993,29.414 C90.993,29.414 90.776,35.789 90.993,38.454 C91.209,41.12 84.285,41.815 84.285,41.815 C88.226,46.336 92.282,46.451 96.91,46.048 C101.538,45.645 99.932,41.235 100.627,41.35 C101.322,41.468 101.902,43.901 101.902,43.901 C101.902,43.901 102.598,42.858 102.945,41.815 C103.293,40.772 103.988,41.468 103.988,41.468 C105.031,48.305 98.077,48.654 98.077,48.654 C87.646,48.769 83.473,42.626 81.852,41.815 C80.229,41.005 79.997,42.674 79.997,42.674 C79.997,42.674 96.802,61.518 100.395,67.338 C103.988,73.157 102.367,77.774 102.367,77.774 C102.367,77.774 103.409,77.395 105.61,77.774 C107.813,78.154 108.623,79.945 108.623,79.945 C110.942,77.395 114.536,77.165 114.536,77.165 L130.761,77.165 C130.761,77.165 124.965,100.111 123.112,106.835 C121.256,113.556 114.767,112.988 114.767,112.988 L60.178,112.988 L60.178,111.817 C59.136,113.092 55.243,112.987 55.243,112.987 C55.243,112.987 44.184,112.987 42.098,112.987 C40.013,112.987 40.823,111.354 40.823,111.354 C39.549,112.977 35.492,112.987 35.492,112.987 C35.492,112.987 29.581,112.987 26.684,112.987 C23.787,112.987 22.511,109.963 22.511,109.963 C19.498,113.325 16.253,112.977 16.253,112.977 C16.253,112.977 13.008,112.977 5.474,112.977 C-2.059,112.977 0.375,104.98 0.375,104.98 C0.375,104.98 5.357,84.35 6.864,78.699 C8.371,73.047 15.442,72.875 15.442,72.875 L32.131,72.875 C36.65,66.038 43.49,64.037 43.49,64.037 C44.995,52.302 50.095,59.664 50.095,59.664 L55.243,50.16 C52.973,48.537 37.694,35.441 30.624,24.535 C23.554,13.63 28.885,6.002 28.885,6.002 C28.885,6.002 34.631,-1.629 49.863,1.365 C49.863,1.365 56.532,-0.515 65.015,0.233 C75.101,1.121 81.054,5.154 81.054,5.154 C81.054,5.154 85.074,8.109 94.261,7.703" id="Fill-3" fill="#1A1919" mask="url(#mask-2)"></path>
            </g>
            <path d="M85.075,9.748 C85.075,9.748 89.399,10.66 92.585,10.66 C95.772,10.66 96.91,10.66 96.91,10.66 C96.91,10.66 97.137,21.128 89.627,25.451 C89.627,25.451 89.285,23.175 90.31,21.81 C91.333,20.445 92.699,17.373 92.927,16.236 C93.155,15.097 92.927,14.3 93.496,13.96 C94.065,13.617 93.723,12.593 91.675,13.39 C89.627,14.188 89.058,15.212 89.058,15.212 C89.058,15.212 88.261,12.138 85.075,9.748" id="Fill-5" fill="#E57138"></path>
            <path d="M81.963,37.18 C81.963,37.18 82.566,35.973 81.015,33.819 C81.015,33.819 82.395,33.559 82.912,35.197 C83.429,36.836 81.963,37.18 81.963,37.18 Z M73.014,25.451 C66.869,22.266 69.259,19.079 70.169,18.511 C71.08,17.942 71.395,13.504 71.395,13.504 C71.395,13.504 71.876,12.708 72.785,19.535 C73.698,26.361 79.159,28.637 79.159,28.637 C75.062,28.865 73.014,25.451 73.014,25.451 Z M71.42,9.748 C75.176,8.612 77.338,11.684 77.453,15.097 C77.565,18.511 78.59,22.607 78.59,22.607 C75.859,20.787 75.859,18.056 75.518,15.324 C75.175,12.593 74.721,11.798 72.9,11.229 C71.08,10.66 71.42,9.748 71.42,9.748 Z M88.039,28.41 L86.326,27.727 C91.788,14.3 83.255,8.156 73.81,4.856 C64.366,1.556 53.556,3.718 53.556,3.718 L60.838,7.814 C54.808,4.286 37.285,1.442 32.404,5.881 C27.523,10.318 29.547,19.649 39.219,31.14 C48.892,42.634 55.718,46.048 55.718,46.048 C55.718,46.048 36.488,26.817 33.302,17.599 C30.117,8.382 35.577,3.832 47.07,6.904 C58.563,9.977 66.756,19.876 66.756,19.876 L63.911,20.103 C65.731,27.841 71.307,32.507 75.859,35.92 C80.41,39.334 85.758,39.562 87.238,37.514 C88.716,35.465 88.039,28.41 88.039,28.41 Z" id="Fill-6" fill="#E57138"></path>
            <polygon id="Fill-7" fill="#FFFFFE" points="69.811 20.632 71.104 20.632 71.104 19.424 69.811 19.424"></polygon>
            <path d="M53.34,22.745 C53.34,22.745 50.362,25.265 50.477,29.16 C50.477,29.16 47.614,24.12 47.614,21.714 C47.614,21.714 45.207,24.922 49.904,33.856 C49.904,33.856 43.374,29.627 42,20.632 C42,20.632 39.422,22.113 44.52,30.877 C49.618,39.643 55.746,42.674 55.746,42.674 C55.746,42.674 55.517,41.186 54.828,39.811 C54.142,38.438 51.621,32.825 53.34,22.745" id="Fill-8" fill="#E57138"></path>
            <polyline id="Fill-9" fill="#FFFFFE" points="57.451 52.611 58.478 53.332 53.036 63.089 52.007 62.368 57.451 52.611"></polyline>
            <path d="M56.527,25.451 C56.527,25.451 53.856,38.336 62.587,46.962 C71.317,55.591 73.576,56.925 77.889,59.904 C82.203,62.883 90.523,69.354 90.523,77.774 L91.754,77.774 C91.754,77.774 92.165,75.618 91.754,74.488 C91.754,74.488 92.987,75.721 93.295,77.158 L96.91,77.158 C96.91,77.158 99.766,76.337 99.766,75.31 C99.766,74.283 98.84,69.661 95.246,65.655 L87.544,67.093 C87.544,67.093 84.771,63.602 83.333,62.368 C83.333,62.368 84.455,61.65 85.075,62.368 C85.696,63.089 86.825,64.116 86.825,64.116 L92.679,62.266 C92.679,62.266 88.571,56.721 86.414,55.179 L75.629,56.103 L69.16,51.174 C69.16,51.174 69.16,50.718 71.522,51.613 C73.883,52.509 73.987,52.611 77.068,52.611 C80.149,52.611 84.155,52.611 84.155,52.611 C84.155,52.611 78.711,45.729 77.478,44.601 C77.478,44.601 69.638,44.723 64.332,43.471 C59.027,42.219 57.862,35.151 57.862,33.508 C57.862,33.508 59.403,39.055 66.592,40.288 C73.782,41.518 75.732,41.11 75.732,41.11 C75.732,41.11 73.543,39.055 69.811,37.309 C66.078,35.562 60.018,32.082 56.527,25.451" id="Fill-10" fill="#FFFFFE"></path>
            <path d="M56.629,72.125 C56.629,72.125 51.043,67.196 48.547,62.472 C48.547,62.472 47.181,65.551 50.056,69.25 C52.932,72.947 56.629,72.125 56.629,72.125" id="Fill-11" fill="#E57138"></path>
            <path d="M43.38,69.762 L45.64,69.351 C45.64,69.351 45.743,67.376 44.51,67.338 C43.278,67.299 34.855,69.97 33.417,77.363 L42.045,77.363 L43.278,74.591 C43.278,74.591 47.592,77.363 53.138,77.363 C58.684,77.363 65.873,77.363 65.873,77.363 L68.338,78.699 L68.954,77.055 L83.025,77.055 L83.025,76.439 C83.025,76.439 81.484,75.721 81.381,75.31 C81.279,74.899 82.101,71.716 82.101,71.716 L83.641,72.204 C83.641,72.204 81.484,65.758 78.403,64.526 C75.323,63.294 75.22,64.628 76.554,65.964 C77.889,67.299 80.38,71.92 77.954,74.796 L77.954,72.947 C77.954,72.947 54.164,77.877 43.38,69.762" id="Fill-12" fill="#E57138"></path>
            <path d="M26.22,87.87 L29.346,75.602 L14.967,75.602 C14.967,75.602 10.826,74.977 9.107,80.68 C7.388,86.385 3.09,105.374 3.09,105.374 C3.09,105.374 1.137,110.297 6.059,110.687 L16.026,110.687 C16.026,110.687 20.516,110.609 21.845,106.545 C23.173,102.482 23.875,97.716 23.875,97.716 L16.026,97.716 L14.342,104.67 L11.139,104.67 L16.026,83.495 C16.026,83.495 16.452,81.227 17.937,81.227 C19.421,81.227 20.124,81.541 19.812,82.712 C19.5,83.885 18.796,87.793 18.796,87.793 L26.22,87.87" id="Fill-13" fill="#FFFFFE"></path>
            <path d="M39.66,87.323 C39.66,87.323 36.456,100.92 35.786,103.107 C35.117,105.295 34.502,105.53 33.017,105.453 C31.533,105.374 32.236,103.107 32.236,103.107 L36.613,85.759 C36.613,85.759 37.08,84.353 38.722,84.823 C40.364,85.291 39.66,87.323 39.66,87.323 Z M43.879,79.43 C39.582,79.43 35.44,79.43 35.44,79.43 C35.44,79.43 31.923,79.04 30.205,84.431 L24.892,106.311 C24.892,106.311 23.407,110.687 27.549,110.687 C31.689,110.687 36.456,110.687 36.456,110.687 C36.456,110.687 40.364,111.233 41.77,105.453 C43.176,99.67 46.692,84.431 46.692,84.431 C46.692,84.431 48.177,79.43 43.879,79.43 Z" id="Fill-14" fill="#FFFFFE"></path>
            <path d="M57.633,92.636 L54.819,92.636 L56.629,85.134 L59.564,85.134 L57.633,92.636 Z M54.687,104.977 L51.874,104.977 L53.684,97.476 L56.619,97.476 L54.687,104.977 Z M63.883,79.424 C59.508,79.424 51.382,79.424 51.382,79.424 L43.49,110.687103 L57.397,110.687 C57.397,110.687 60.523,110.765 61.539,106.624 C62.555,102.482 63.337,99.122 63.337,99.122 C63.337,99.122 64.586,95.996 60.601,95.216 L60.68,94.044 C60.68,94.044 63.571,94.356 64.274,92.246 C64.978,90.135 66.932,83.728 66.932,83.728 C66.932,83.728 68.26,79.424 63.883,79.424 Z" id="Fill-15" fill="#FFFFFE"></path>
            <path d="M77.254,94.102 L74.035,94.102 L76.435,85.09 L79.479,85.09 L77.254,94.102 Z M83.641,79.751 C79.493,79.751 70.767,79.751 70.767,79.751 L63.076,110.701 L69.953,110.701 L73.043,98.722 L76.134,98.722 L72.965,110.687 L79.843,110.687 L82.469,101.116 C82.469,101.116 83.551,97.639 79.843,97.022 L79.934,95.883 C79.934,95.883 82.578,96.732 84.077,93.134 C85.576,89.536 86.545,84.599 86.545,84.599 C86.545,84.599 87.788,79.751 83.641,79.751 Z" id="Fill-16" fill="#FFFFFE"></path>
            <path d="M97.161,94.217 L93.8,94.217 L96.253,85.13 L99.343,85.13 L97.161,94.217 Z M103.161,79.751 C98.526,79.751 94.485,79.751 94.485,79.751 C94.485,79.751 90.62,79.314 89.438,83.404 C88.256,87.492 82.531,110.701 82.531,110.701 L89.71,110.701 L92.709,98.944 L95.889,98.944 L92.8,110.701 L99.766,110.701 L106.159,84.403 C106.159,84.403 107.794,79.751 103.161,79.751 Z" id="Fill-17" fill="#FFFFFE"></path>
            <path d="M115.791,84.948 L119.155,84.948 L117.882,90.037 L124.426,90.037 L127.06,79.751 L114.428,79.751 C114.428,79.751 110.522,79.495 109.339,83.857 C108.159,88.219 105.615,97.944 105.615,97.944 L116.337,97.944 L113.792,105.305 L110.793,105.305 L111.976,100.488 L105.25,100.488 L102.735,110.701 L115.61,110.701 C115.61,110.701 119.426,110.666 120.789,105.849 C122.153,101.034 123.789,92.581 123.789,92.581 L113.883,92.581 L115.791,84.948" id="Fill-18" fill="#FFFFFE"></path>
            <polyline id="Fill-19" fill="#E57138" points="37.224 66.841 39.054 66.841 38.17 70.108 41.699 66.841 43.962 66.841 39.144 71.28 41.794 76.554 39.754 76.554 37.591 72.249 36.427 76.554 34.617 76.554 37.224 66.841"></polyline>
            <polygon id="Stroke-20" stroke="#1A1919" stroke-width="5.076" points="37.224 66.841 39.054 66.841 38.17 70.108 41.699 66.841 43.962 66.841 39.144 71.28 41.794 76.554 39.754 76.554 37.591 72.249 36.427 76.554 34.617 76.554"></polygon>
            <path d="M49.774,68.319 C49.078,68.319 48.421,68.487 47.802,68.824 C47.184,69.161 46.656,69.645 46.22,70.278 C45.785,70.909 45.523,71.561 45.434,72.235 C45.33,73.032 45.486,73.708 45.901,74.262 C46.316,74.817 46.982,75.095 47.898,75.095 C48.959,75.095 49.91,74.72 50.749,73.972 C51.59,73.223 52.081,72.315 52.222,71.245 C52.338,70.36 52.171,69.651 51.719,69.119 C51.267,68.586 50.618,68.319 49.774,68.319 Z M50.066,66.595 C51.4,66.595 52.445,67.025 53.2,67.883 C53.954,68.742 54.243,69.831 54.07,71.153 C53.937,72.166 53.554,73.119 52.923,74.014 C52.292,74.912 51.52,75.598 50.605,76.079 C49.689,76.558 48.679,76.799 47.575,76.799 C46.192,76.799 45.142,76.389 44.423,75.571 C43.706,74.752 43.436,73.674 43.613,72.335 C43.813,70.816 44.476,69.51 45.607,68.419 C46.868,67.204 48.355,66.595 50.066,66.595 Z" id="Fill-21" fill="#E57138"></path>
            <path d="M49.774,68.319 C49.078,68.319 48.421,68.487 47.802,68.824 C47.184,69.161 46.656,69.645 46.22,70.278 C45.785,70.909 45.523,71.561 45.434,72.235 C45.33,73.032 45.486,73.708 45.901,74.262 C46.316,74.817 46.982,75.095 47.898,75.095 C48.959,75.095 49.91,74.72 50.749,73.972 C51.59,73.223 52.081,72.315 52.222,71.245 C52.338,70.36 52.171,69.651 51.719,69.119 C51.267,68.586 50.618,68.319 49.774,68.319 Z M50.066,66.595 C51.4,66.595 52.445,67.025 53.2,67.883 C53.954,68.742 54.243,69.831 54.07,71.153 C53.937,72.166 53.554,73.119 52.923,74.014 C52.292,74.912 51.52,75.598 50.605,76.079 C49.689,76.558 48.679,76.799 47.575,76.799 C46.192,76.799 45.142,76.389 44.423,75.571 C43.706,74.752 43.436,73.674 43.613,72.335 C43.813,70.816 44.476,69.51 45.607,68.419 C46.868,67.204 48.355,66.595 50.066,66.595 Z" id="Stroke-22" stroke="#1A1919" stroke-width="5.076"></path>
            <polyline id="Fill-23" fill="#E57138" points="55.675 66.841 61.605 66.841 61.165 68.571 59.141 68.571 56.999 76.554 55.189 76.554 57.33 68.571 55.222 68.571 55.675 66.841"></polyline>
            <polygon id="Stroke-24" stroke="#1A1919" stroke-width="5.076" points="55.675 66.841 61.605 66.841 61.165 68.571 59.141 68.571 56.999 76.554 55.189 76.554 57.33 68.571 55.222 68.571"></polygon>
            <path d="M67.369,68.194 L65.888,69.37 C65.435,68.666 64.972,68.313 64.501,68.313 C64.268,68.313 64.066,68.382 63.893,68.521 C63.72,68.66 63.621,68.825 63.596,69.019 C63.572,69.2 63.616,69.4 63.729,69.62 C63.84,69.841 64.202,70.327 64.818,71.08 C65.143,71.48 65.355,71.764 65.451,71.931 C65.687,72.319 65.844,72.681 65.926,73.017 C66.006,73.354 66.025,73.697 65.979,74.045 C65.876,74.824 65.513,75.478 64.889,76.007 C64.265,76.535 63.518,76.799 62.651,76.799 C61.33,76.799 60.337,76.171 59.67,74.917 L61.218,73.788 C61.668,74.646 62.222,75.075 62.877,75.075 C63.19,75.075 63.467,74.974 63.706,74.771 C63.948,74.569 64.085,74.325 64.123,74.038 C64.154,73.813 64.118,73.585 64.02,73.351 C63.92,73.118 63.608,72.677 63.081,72.031 C62.524,71.348 62.166,70.834 62.009,70.486 C61.799,70.014 61.723,69.552 61.783,69.098 C61.862,68.5 62.128,67.963 62.582,67.487 C63.154,66.892 63.859,66.595 64.695,66.595 C65.843,66.595 66.736,67.129 67.369,68.194" id="Fill-25" fill="#E57138"></path>
            <path d="M67.369,68.194 L65.888,69.37 C65.435,68.666 64.972,68.313 64.501,68.313 C64.268,68.313 64.066,68.382 63.893,68.521 C63.72,68.66 63.621,68.825 63.596,69.019 C63.572,69.2 63.616,69.4 63.729,69.62 C63.84,69.841 64.202,70.327 64.818,71.08 C65.143,71.48 65.355,71.764 65.451,71.931 C65.687,72.319 65.844,72.681 65.926,73.017 C66.006,73.354 66.025,73.697 65.979,74.045 C65.876,74.824 65.513,75.478 64.889,76.007 C64.265,76.535 63.518,76.799 62.651,76.799 C61.33,76.799 60.337,76.171 59.67,74.917 L61.218,73.788 C61.668,74.646 62.222,75.075 62.877,75.075 C63.19,75.075 63.467,74.974 63.706,74.771 C63.948,74.569 64.085,74.325 64.123,74.038 C64.154,73.813 64.118,73.585 64.02,73.351 C63.92,73.118 63.608,72.677 63.081,72.031 C62.524,71.348 62.166,70.834 62.009,70.486 C61.799,70.014 61.723,69.552 61.783,69.098 C61.862,68.5 62.128,67.963 62.582,67.487 C63.154,66.892 63.859,66.595 64.695,66.595 C65.843,66.595 66.736,67.129 67.369,68.194 Z" id="Stroke-26" stroke="#1A1919" stroke-width="5.076"></path>
            <path d="M73.845,68.319 C73.149,68.319 72.492,68.487 71.873,68.824 C71.255,69.161 70.727,69.645 70.291,70.278 C69.857,70.909 69.594,71.561 69.505,72.235 C69.401,73.032 69.557,73.708 69.972,74.262 C70.387,74.817 71.053,75.095 71.969,75.095 C73.031,75.095 73.981,74.72 74.821,73.972 C75.661,73.223 76.152,72.315 76.293,71.245 C76.41,70.36 76.243,69.651 75.79,69.119 C75.338,68.586 74.69,68.319 73.845,68.319 Z M74.138,66.595 C75.472,66.595 76.516,67.025 77.271,67.883 C78.025,68.742 78.315,69.831 78.141,71.153 C78.008,72.166 77.625,73.119 76.994,74.014 C76.364,74.912 75.591,75.598 74.676,76.079 C73.76,76.558 72.75,76.799 71.646,76.799 C70.263,76.799 69.213,76.389 68.495,75.571 C67.778,74.752 67.507,73.674 67.684,72.335 C67.884,70.816 68.548,69.51 69.678,68.419 C70.939,67.204 72.425,66.595 74.138,66.595 Z" id="Fill-27" fill="#E57138"></path>
            <path d="M73.845,68.319 C73.149,68.319 72.492,68.487 71.873,68.824 C71.255,69.161 70.727,69.645 70.291,70.278 C69.857,70.909 69.594,71.561 69.505,72.235 C69.401,73.032 69.557,73.708 69.972,74.262 C70.387,74.817 71.053,75.095 71.969,75.095 C73.031,75.095 73.981,74.72 74.821,73.972 C75.661,73.223 76.152,72.315 76.293,71.245 C76.41,70.36 76.243,69.651 75.79,69.119 C75.338,68.586 74.69,68.319 73.845,68.319 Z M74.138,66.595 C75.472,66.595 76.516,67.025 77.271,67.883 C78.025,68.742 78.315,69.831 78.141,71.153 C78.008,72.166 77.625,73.119 76.994,74.014 C76.364,74.912 75.591,75.598 74.676,76.079 C73.76,76.558 72.75,76.799 71.646,76.799 C70.263,76.799 69.213,76.389 68.495,75.571 C67.778,74.752 67.507,73.674 67.684,72.335 C67.884,70.816 68.548,69.51 69.678,68.419 C70.939,67.204 72.425,66.595 74.138,66.595 Z" id="Stroke-28" stroke="#1A1919" stroke-width="5.076"></path>
            <path d="M81.795,70.736 C82.786,70.732 83.445,70.629 83.773,70.425 C84.101,70.223 84.292,69.923 84.345,69.521 C84.374,69.297 84.341,69.107 84.243,68.953 C84.146,68.8 83.986,68.692 83.762,68.63 C83.54,68.568 83.086,68.538 82.401,68.538 L81.795,70.736 Z M81.019,66.841 L82.724,66.841 C83.759,66.841 84.478,66.93 84.879,67.111 C85.376,67.336 85.735,67.648 85.954,68.049 C86.173,68.45 86.246,68.919 86.176,69.456 C86.099,70.046 85.868,70.579 85.488,71.057 C85.107,71.534 84.634,71.882 84.07,72.099 C83.504,72.318 82.597,72.435 81.347,72.453 L80.243,76.554 L78.413,76.554 L81.019,66.841 Z" id="Fill-29" fill="#E57138"></path>
            <path d="M81.795,70.736 C82.786,70.732 83.445,70.629 83.773,70.425 C84.101,70.223 84.292,69.923 84.345,69.521 C84.374,69.297 84.341,69.107 84.243,68.953 C84.146,68.8 83.986,68.692 83.762,68.63 C83.54,68.568 83.086,68.538 82.401,68.538 L81.795,70.736 Z M81.019,66.841 L82.724,66.841 C83.759,66.841 84.478,66.93 84.879,67.111 C85.376,67.336 85.735,67.648 85.954,68.049 C86.173,68.45 86.246,68.919 86.176,69.456 C86.099,70.046 85.868,70.579 85.488,71.057 C85.107,71.534 84.634,71.882 84.07,72.099 C83.504,72.318 82.597,72.435 81.347,72.453 L80.243,76.554 L78.413,76.554 L81.019,66.841 Z" id="Stroke-30" stroke="#1A1919" stroke-width="5.076"></path>
            <path d="M92.779,68.319 C92.082,68.319 91.425,68.487 90.807,68.824 C90.189,69.161 89.66,69.645 89.225,70.278 C88.79,70.909 88.528,71.561 88.439,72.235 C88.334,73.032 88.491,73.708 88.906,74.262 C89.321,74.817 89.987,75.095 90.903,75.095 C91.964,75.095 92.914,74.72 93.754,73.972 C94.595,73.223 95.085,72.315 95.227,71.245 C95.343,70.36 95.176,69.651 94.724,69.119 C94.272,68.586 93.623,68.319 92.779,68.319 Z M93.072,66.595 C94.406,66.595 95.45,67.025 96.204,67.883 C96.958,68.742 97.248,69.831 97.075,71.153 C96.942,72.166 96.559,73.119 95.928,74.014 C95.297,74.912 94.525,75.598 93.61,76.079 C92.694,76.558 91.684,76.799 90.579,76.799 C89.197,76.799 88.147,76.389 87.429,75.571 C86.711,74.752 86.441,73.674 86.618,72.335 C86.818,70.816 87.482,69.51 88.612,68.419 C89.872,67.204 91.359,66.595 93.072,66.595 Z" id="Fill-31" fill="#E57138"></path>
            <path d="M92.779,68.319 C92.082,68.319 91.425,68.487 90.807,68.824 C90.189,69.161 89.66,69.645 89.225,70.278 C88.79,70.909 88.528,71.561 88.439,72.235 C88.334,73.032 88.491,73.708 88.906,74.262 C89.321,74.817 89.987,75.095 90.903,75.095 C91.964,75.095 92.914,74.72 93.754,73.972 C94.595,73.223 95.085,72.315 95.227,71.245 C95.343,70.36 95.176,69.651 94.724,69.119 C94.272,68.586 93.623,68.319 92.779,68.319 Z M93.072,66.595 C94.406,66.595 95.45,67.025 96.204,67.883 C96.958,68.742 97.248,69.831 97.075,71.153 C96.942,72.166 96.559,73.119 95.928,74.014 C95.297,74.912 94.525,75.598 93.61,76.079 C92.694,76.558 91.684,76.799 90.579,76.799 C89.197,76.799 88.147,76.389 87.429,75.571 C86.711,74.752 86.441,73.674 86.618,72.335 C86.818,70.816 87.482,69.51 88.612,68.419 C89.872,67.204 91.359,66.595 93.072,66.595 Z" id="Stroke-32" stroke="#1A1919" stroke-width="5.076"></path>
            <path d="M99.88,66.841 L101.699,66.841 L100.096,72.837 C99.956,73.36 99.872,73.73 99.844,73.946 C99.795,74.311 99.872,74.596 100.072,74.801 C100.272,75.007 100.587,75.108 101.019,75.108 C101.368,75.108 101.681,75.032 101.961,74.878 C102.171,74.762 102.351,74.573 102.502,74.306 C102.655,74.039 102.837,73.51 103.052,72.717 L104.628,66.841 L106.466,66.841 L104.918,72.639 C104.598,73.832 104.272,74.688 103.939,75.208 C103.607,75.726 103.172,76.122 102.637,76.392 C102.101,76.664 101.475,76.799 100.757,76.799 C99.788,76.799 99.068,76.541 98.593,76.026 C98.12,75.51 97.941,74.806 98.059,73.913 C98.11,73.526 98.238,72.953 98.445,72.196 L99.88,66.841" id="Fill-33" fill="#E57138"></path>
            <path d="M99.88,66.841 L101.699,66.841 L100.096,72.837 C99.956,73.36 99.872,73.73 99.844,73.946 C99.795,74.311 99.872,74.596 100.072,74.801 C100.272,75.007 100.587,75.108 101.019,75.108 C101.368,75.108 101.681,75.032 101.961,74.878 C102.171,74.762 102.351,74.573 102.502,74.306 C102.655,74.039 102.837,73.51 103.052,72.717 L104.628,66.841 L106.466,66.841 L104.918,72.639 C104.598,73.832 104.272,74.688 103.939,75.208 C103.607,75.726 103.172,76.122 102.637,76.392 C102.101,76.664 101.475,76.799 100.757,76.799 C99.788,76.799 99.068,76.541 98.593,76.026 C98.12,75.51 97.941,74.806 98.059,73.913 C98.11,73.526 98.238,72.953 98.445,72.196 L99.88,66.841 Z" id="Stroke-34" stroke="#1A1919" stroke-width="5.076"></path>
            <polyline id="Fill-35" fill="#E57138" points="108.619 66.841 110.453 66.841 108.282 74.883 111.297 74.883 110.866 76.554 106.012 76.554 108.619 66.841"></polyline>
            <polygon id="Stroke-36" stroke="#1A1919" stroke-width="5.076" points="108.619 66.841 110.453 66.841 108.282 74.883 111.297 74.883 110.866 76.554 106.012 76.554"></polygon>
            <path d="M118.746,68.319 C118.049,68.319 117.392,68.487 116.774,68.824 C116.156,69.161 115.627,69.645 115.192,70.278 C114.757,70.909 114.495,71.561 114.406,72.235 C114.301,73.032 114.457,73.708 114.872,74.262 C115.288,74.817 115.954,75.095 116.87,75.095 C117.931,75.095 118.881,74.72 119.721,73.972 C120.562,73.223 121.052,72.315 121.194,71.245 C121.31,70.36 121.143,69.651 120.691,69.119 C120.239,68.586 119.59,68.319 118.746,68.319 Z M119.038,66.595 C120.372,66.595 121.416,67.025 122.171,67.883 C122.925,68.742 123.215,69.831 123.041,71.153 C122.909,72.166 122.526,73.119 121.895,74.014 C121.264,74.912 120.492,75.598 119.577,76.079 C118.661,76.558 117.651,76.799 116.546,76.799 C115.163,76.799 114.114,76.389 113.396,75.571 C112.678,74.752 112.408,73.674 112.584,72.335 C112.785,70.816 113.449,69.51 114.579,68.419 C115.839,67.204 117.326,66.595 119.038,66.595 Z" id="Fill-38" fill="#E57138"></path>
            <path d="M118.746,68.319 C118.049,68.319 117.392,68.487 116.774,68.824 C116.156,69.161 115.627,69.645 115.192,70.278 C114.757,70.909 114.495,71.561 114.406,72.235 C114.301,73.032 114.457,73.708 114.872,74.262 C115.288,74.817 115.954,75.095 116.87,75.095 C117.931,75.095 118.881,74.72 119.721,73.972 C120.562,73.223 121.052,72.315 121.194,71.245 C121.31,70.36 121.143,69.651 120.691,69.119 C120.239,68.586 119.59,68.319 118.746,68.319 Z M119.038,66.595 C120.372,66.595 121.416,67.025 122.171,67.883 C122.925,68.742 123.215,69.831 123.041,71.153 C122.909,72.166 122.526,73.119 121.895,74.014 C121.264,74.912 120.492,75.598 119.577,76.079 C118.661,76.558 117.651,76.799 116.546,76.799 C115.163,76.799 114.114,76.389 113.396,75.571 C112.678,74.752 112.408,73.674 112.584,72.335 C112.785,70.816 113.449,69.51 114.579,68.419 C115.839,67.204 117.326,66.595 119.038,66.595 Z" id="Stroke-39" stroke="#1A1919" stroke-width="5.076"></path>
            <path d="M130.662,68.194 L129.18,69.37 C128.726,68.666 128.264,68.313 127.793,68.313 C127.56,68.313 127.358,68.382 127.185,68.521 C127.012,68.66 126.913,68.825 126.888,69.019 C126.864,69.2 126.908,69.4 127.021,69.62 C127.132,69.841 127.496,70.327 128.11,71.08 C128.435,71.48 128.647,71.764 128.744,71.931 C128.979,72.319 129.136,72.681 129.218,73.017 C129.298,73.354 129.317,73.697 129.271,74.045 C129.168,74.824 128.805,75.478 128.181,76.007 C127.556,76.535 126.81,76.799 125.943,76.799 C124.622,76.799 123.629,76.171 122.962,74.917 L124.51,73.788 C124.96,74.646 125.514,75.075 126.169,75.075 C126.482,75.075 126.759,74.974 126.998,74.771 C127.24,74.569 127.378,74.325 127.415,74.038 C127.445,73.813 127.411,73.585 127.312,73.351 C127.212,73.118 126.9,72.677 126.373,72.031 C125.816,71.348 125.458,70.834 125.301,70.486 C125.091,70.014 125.015,69.552 125.075,69.098 C125.154,68.5 125.42,67.963 125.874,67.487 C126.447,66.892 127.15,66.595 127.986,66.595 C129.136,66.595 130.028,67.129 130.662,68.194" id="Fill-41" fill="#E57138"></path>
            <path d="M130.662,68.194 L129.18,69.37 C128.726,68.666 128.264,68.313 127.793,68.313 C127.56,68.313 127.358,68.382 127.185,68.521 C127.012,68.66 126.913,68.825 126.888,69.019 C126.864,69.2 126.908,69.4 127.021,69.62 C127.132,69.841 127.496,70.327 128.11,71.08 C128.435,71.48 128.647,71.764 128.744,71.931 C128.979,72.319 129.136,72.681 129.218,73.017 C129.298,73.354 129.317,73.697 129.271,74.045 C129.168,74.824 128.805,75.478 128.181,76.007 C127.556,76.535 126.81,76.799 125.943,76.799 C124.622,76.799 123.629,76.171 122.962,74.917 L124.51,73.788 C124.96,74.646 125.514,75.075 126.169,75.075 C126.482,75.075 126.759,74.974 126.998,74.771 C127.24,74.569 127.378,74.325 127.415,74.038 C127.445,73.813 127.411,73.585 127.312,73.351 C127.212,73.118 126.9,72.677 126.373,72.031 C125.816,71.348 125.458,70.834 125.301,70.486 C125.091,70.014 125.015,69.552 125.075,69.098 C125.154,68.5 125.42,67.963 125.874,67.487 C126.447,66.892 127.15,66.595 127.986,66.595 C129.136,66.595 130.028,67.129 130.662,68.194 Z" id="Stroke-42" stroke="#1A1919" stroke-width="5.076"></path>
            <polyline id="Fill-44" fill="#E57138" points="37.223 66.841 39.053 66.841 38.17 70.108 41.7 66.841 43.963 66.841 39.144 71.28 41.794 76.554 39.754 76.554 37.591 72.249 36.427 76.554 34.617 76.554 37.223 66.841"></polyline>
            <path d="M49.774,68.319 C49.078,68.319 48.42,68.487 47.802,68.824 C47.184,69.161 46.656,69.645 46.22,70.278 C45.785,70.909 45.523,71.561 45.434,72.235 C45.33,73.032 45.486,73.708 45.901,74.262 C46.316,74.817 46.982,75.095 47.898,75.095 C48.959,75.095 49.91,74.72 50.749,73.972 C51.59,73.223 52.08,72.315 52.222,71.245 C52.338,70.36 52.171,69.651 51.719,69.119 C51.267,68.586 50.618,68.319 49.774,68.319 Z M50.067,66.595 C51.401,66.595 52.445,67.025 53.2,67.883 C53.954,68.742 54.243,69.831 54.07,71.153 C53.937,72.166 53.554,73.119 52.923,74.014 C52.292,74.912 51.52,75.598 50.605,76.079 C49.689,76.558 48.679,76.799 47.575,76.799 C46.192,76.799 45.142,76.389 44.424,75.571 C43.706,74.752 43.436,73.674 43.613,72.335 C43.813,70.816 44.477,69.51 45.607,68.419 C46.868,67.204 48.354,66.595 50.067,66.595 Z" id="Fill-45" fill="#E57138"></path>
            <polyline id="Fill-46" fill="#E57138" points="55.674 66.841 61.606 66.841 61.165 68.571 59.141 68.571 56.999 76.554 55.189 76.554 57.33 68.571 55.222 68.571 55.674 66.841"></polyline>
            <path d="M67.369,68.194 L65.888,69.37 C65.434,68.666 64.972,68.313 64.501,68.313 C64.268,68.313 64.066,68.382 63.893,68.521 C63.72,68.66 63.621,68.825 63.596,69.019 C63.572,69.2 63.616,69.4 63.729,69.62 C63.84,69.841 64.203,70.327 64.818,71.08 C65.143,71.48 65.355,71.764 65.451,71.931 C65.687,72.319 65.844,72.681 65.926,73.017 C66.006,73.354 66.025,73.697 65.979,74.045 C65.876,74.824 65.513,75.478 64.889,76.007 C64.264,76.535 63.518,76.799 62.651,76.799 C61.33,76.799 60.337,76.171 59.67,74.917 L61.218,73.788 C61.668,74.646 62.222,75.075 62.877,75.075 C63.19,75.075 63.467,74.974 63.706,74.771 C63.948,74.569 64.086,74.325 64.123,74.038 C64.153,73.813 64.118,73.585 64.02,73.351 C63.92,73.118 63.608,72.677 63.081,72.031 C62.524,71.348 62.166,70.834 62.009,70.486 C61.799,70.014 61.723,69.552 61.783,69.098 C61.862,68.5 62.128,67.963 62.582,67.487 C63.155,66.892 63.858,66.595 64.694,66.595 C65.844,66.595 66.736,67.129 67.369,68.194" id="Fill-47" fill="#E57138"></path>
            <path d="M73.845,68.319 C73.149,68.319 72.493,68.487 71.873,68.824 C71.255,69.161 70.727,69.645 70.291,70.278 C69.857,70.909 69.594,71.561 69.505,72.235 C69.401,73.032 69.557,73.708 69.972,74.262 C70.387,74.817 71.053,75.095 71.969,75.095 C73.031,75.095 73.981,74.72 74.821,73.972 C75.661,73.223 76.153,72.315 76.293,71.245 C76.41,70.36 76.243,69.651 75.79,69.119 C75.338,68.586 74.69,68.319 73.845,68.319 Z M74.137,66.595 C75.471,66.595 76.516,67.025 77.271,67.883 C78.025,68.742 78.315,69.831 78.141,71.153 C78.008,72.166 77.625,73.119 76.994,74.014 C76.364,74.912 75.591,75.598 74.676,76.079 C73.76,76.558 72.75,76.799 71.646,76.799 C70.263,76.799 69.213,76.389 68.494,75.571 C67.778,74.752 67.507,73.674 67.684,72.335 C67.884,70.816 68.547,69.51 69.678,68.419 C70.939,67.204 72.426,66.595 74.137,66.595 Z" id="Fill-48" fill="#E57138"></path>
            <path d="M81.795,70.736 C82.786,70.732 83.445,70.629 83.773,70.425 C84.102,70.223 84.292,69.923 84.345,69.521 C84.374,69.297 84.341,69.107 84.243,68.953 C84.145,68.8 83.986,68.692 83.762,68.63 C83.54,68.568 83.086,68.538 82.401,68.538 L81.795,70.736 Z M81.02,66.841 L82.725,66.841 C83.76,66.841 84.478,66.93 84.879,67.111 C85.376,67.336 85.735,67.648 85.954,68.049 C86.173,68.45 86.246,68.919 86.176,69.456 C86.098,70.046 85.87,70.579 85.488,71.057 C85.107,71.534 84.634,71.882 84.069,72.099 C83.504,72.318 82.597,72.435 81.347,72.453 L80.243,76.554 L78.413,76.554 L81.02,66.841 Z" id="Fill-49" fill="#E57138"></path>
            <path d="M92.779,68.319 C92.082,68.319 91.426,68.487 90.807,68.824 C90.189,69.161 89.66,69.645 89.225,70.278 C88.79,70.909 88.528,71.561 88.439,72.235 C88.334,73.032 88.491,73.708 88.906,74.262 C89.321,74.817 89.987,75.095 90.903,75.095 C91.964,75.095 92.914,74.72 93.754,73.972 C94.595,73.223 95.086,72.315 95.227,71.245 C95.343,70.36 95.176,69.651 94.724,69.119 C94.272,68.586 93.623,68.319 92.779,68.319 Z M93.071,66.595 C94.405,66.595 95.45,67.025 96.204,67.883 C96.958,68.742 97.248,69.831 97.075,71.153 C96.942,72.166 96.559,73.119 95.928,74.014 C95.297,74.912 94.525,75.598 93.61,76.079 C92.694,76.558 91.684,76.799 90.579,76.799 C89.197,76.799 88.147,76.389 87.428,75.571 C86.711,74.752 86.441,73.674 86.618,72.335 C86.818,70.816 87.481,69.51 88.612,68.419 C89.872,67.204 91.36,66.595 93.071,66.595 Z" id="Fill-50" fill="#E57138"></path>
            <path d="M99.881,66.841 L101.698,66.841 L100.096,72.837 C99.955,73.36 99.872,73.73 99.844,73.946 C99.795,74.311 99.872,74.596 100.072,74.801 C100.272,75.007 100.587,75.108 101.019,75.108 C101.368,75.108 101.681,75.032 101.961,74.878 C102.17,74.762 102.351,74.573 102.502,74.306 C102.655,74.039 102.837,73.51 103.052,72.717 L104.629,66.841 L106.467,66.841 L104.918,72.639 C104.598,73.832 104.272,74.688 103.94,75.208 C103.606,75.726 103.172,76.122 102.637,76.392 C102.101,76.664 101.475,76.799 100.757,76.799 C99.788,76.799 99.068,76.541 98.593,76.026 C98.12,75.51 97.942,74.806 98.059,73.913 C98.11,73.526 98.239,72.953 98.445,72.196 L99.881,66.841" id="Fill-51" fill="#E57138"></path>
            <polyline id="Fill-52" fill="#E57138" points="108.618 66.841 110.454 66.841 108.282 74.883 111.297 74.883 110.866 76.554 106.012 76.554 108.618 66.841"></polyline>
            <path d="M118.746,68.319 C118.049,68.319 117.393,68.487 116.774,68.824 C116.156,69.161 115.627,69.645 115.192,70.278 C114.757,70.909 114.495,71.561 114.406,72.235 C114.301,73.032 114.457,73.708 114.872,74.262 C115.288,74.817 115.954,75.095 116.87,75.095 C117.931,75.095 118.881,74.72 119.721,73.972 C120.562,73.223 121.053,72.315 121.194,71.245 C121.31,70.36 121.143,69.651 120.691,69.119 C120.239,68.586 119.59,68.319 118.746,68.319 Z M119.038,66.595 C120.371,66.595 121.416,67.025 122.171,67.883 C122.925,68.742 123.215,69.831 123.041,71.153 C122.909,72.166 122.526,73.119 121.895,74.014 C121.264,74.912 120.492,75.598 119.577,76.079 C118.661,76.558 117.651,76.799 116.546,76.799 C115.163,76.799 114.114,76.389 113.395,75.571 C112.678,74.752 112.408,73.674 112.584,72.335 C112.785,70.816 113.448,69.51 114.579,68.419 C115.839,67.204 117.327,66.595 119.038,66.595 Z" id="Fill-53" fill="#E57138"></path>
            <path d="M130.662,68.194 L129.18,69.37 C128.727,68.666 128.264,68.313 127.793,68.313 C127.56,68.313 127.358,68.382 127.185,68.521 C127.012,68.66 126.913,68.825 126.888,69.019 C126.864,69.2 126.908,69.4 127.021,69.62 C127.132,69.841 127.495,70.327 128.11,71.08 C128.435,71.48 128.647,71.764 128.744,71.931 C128.979,72.319 129.136,72.681 129.218,73.017 C129.298,73.354 129.317,73.697 129.271,74.045 C129.168,74.824 128.805,75.478 128.181,76.007 C127.557,76.535 126.81,76.799 125.943,76.799 C124.622,76.799 123.629,76.171 122.962,74.917 L124.51,73.788 C124.96,74.646 125.514,75.075 126.169,75.075 C126.482,75.075 126.759,74.974 126.998,74.771 C127.24,74.569 127.377,74.325 127.415,74.038 C127.446,73.813 127.411,73.585 127.312,73.351 C127.212,73.118 126.9,72.677 126.373,72.031 C125.816,71.348 125.458,70.834 125.301,70.486 C125.091,70.014 125.015,69.552 125.075,69.098 C125.154,68.5 125.42,67.963 125.874,67.487 C126.446,66.892 127.151,66.595 127.987,66.595 C129.135,66.595 130.028,67.129 130.662,68.194" id="Fill-54" fill="#E57138"></path>
            <path d="M37.223,66.841 L39.053,66.841 L38.17,70.108 L41.7,66.841 L43.963,66.841 L39.144,71.28 L41.794,76.554 L39.754,76.554 L37.591,72.249 L36.427,76.554 L34.617,76.554 L37.223,66.841 Z M49.774,68.319 C49.078,68.319 48.42,68.487 47.802,68.824 C47.184,69.161 46.656,69.645 46.22,70.278 C45.785,70.909 45.523,71.561 45.434,72.235 C45.33,73.032 45.486,73.708 45.901,74.262 C46.316,74.817 46.982,75.095 47.898,75.095 C48.959,75.095 49.91,74.72 50.749,73.972 C51.59,73.223 52.08,72.315 52.222,71.245 C52.338,70.36 52.171,69.651 51.719,69.119 C51.267,68.586 50.618,68.319 49.774,68.319 Z M50.067,66.595 C51.401,66.595 52.445,67.025 53.2,67.883 C53.954,68.742 54.243,69.831 54.07,71.153 C53.937,72.166 53.554,73.119 52.923,74.014 C52.292,74.912 51.52,75.598 50.605,76.079 C49.689,76.558 48.679,76.799 47.575,76.799 C46.192,76.799 45.142,76.389 44.424,75.571 C43.706,74.752 43.436,73.674 43.613,72.335 C43.813,70.816 44.477,69.51 45.607,68.419 C46.868,67.204 48.354,66.595 50.067,66.595 Z M55.674,66.841 L61.606,66.841 L61.165,68.571 L59.141,68.571 L56.999,76.554 L55.189,76.554 L57.33,68.571 L55.222,68.571 L55.674,66.841 Z M67.369,68.194 L65.888,69.37 C65.434,68.666 64.972,68.313 64.501,68.313 C64.268,68.313 64.066,68.382 63.893,68.521 C63.72,68.66 63.621,68.825 63.596,69.019 C63.572,69.2 63.616,69.4 63.729,69.62 C63.84,69.841 64.203,70.327 64.818,71.08 C65.143,71.48 65.355,71.764 65.451,71.931 C65.687,72.319 65.844,72.681 65.926,73.017 C66.006,73.354 66.025,73.697 65.979,74.045 C65.876,74.824 65.513,75.478 64.889,76.007 C64.264,76.535 63.518,76.799 62.651,76.799 C61.33,76.799 60.337,76.171 59.67,74.917 L61.218,73.788 C61.668,74.646 62.222,75.075 62.877,75.075 C63.19,75.075 63.467,74.974 63.706,74.771 C63.948,74.569 64.086,74.325 64.123,74.038 C64.153,73.813 64.118,73.585 64.02,73.351 C63.92,73.118 63.608,72.677 63.081,72.031 C62.524,71.348 62.166,70.834 62.009,70.486 C61.799,70.014 61.723,69.552 61.783,69.098 C61.862,68.5 62.128,67.963 62.582,67.487 C63.155,66.892 63.858,66.595 64.694,66.595 C65.844,66.595 66.736,67.129 67.369,68.194 Z M73.845,68.319 C73.149,68.319 72.493,68.487 71.873,68.824 C71.255,69.161 70.727,69.645 70.291,70.278 C69.857,70.909 69.594,71.561 69.505,72.235 C69.401,73.032 69.557,73.708 69.972,74.262 C70.387,74.817 71.053,75.095 71.969,75.095 C73.031,75.095 73.981,74.72 74.821,73.972 C75.661,73.223 76.153,72.315 76.293,71.245 C76.41,70.36 76.243,69.651 75.79,69.119 C75.338,68.586 74.69,68.319 73.845,68.319 Z M74.137,66.595 C75.471,66.595 76.516,67.025 77.271,67.883 C78.025,68.742 78.315,69.831 78.141,71.153 C78.008,72.166 77.625,73.119 76.994,74.014 C76.364,74.912 75.591,75.598 74.676,76.079 C73.76,76.558 72.75,76.799 71.646,76.799 C70.263,76.799 69.213,76.389 68.494,75.571 C67.778,74.752 67.507,73.674 67.684,72.335 C67.884,70.816 68.547,69.51 69.678,68.419 C70.939,67.204 72.426,66.595 74.137,66.595 Z M81.795,70.736 C82.786,70.732 83.445,70.629 83.773,70.425 C84.102,70.223 84.292,69.923 84.345,69.521 C84.374,69.297 84.341,69.107 84.243,68.953 C84.145,68.8 83.986,68.692 83.762,68.63 C83.54,68.568 83.086,68.538 82.401,68.538 L81.795,70.736 Z M81.02,66.841 L82.725,66.841 C83.76,66.841 84.478,66.93 84.879,67.111 C85.376,67.336 85.735,67.648 85.954,68.049 C86.173,68.45 86.246,68.919 86.176,69.456 C86.098,70.046 85.87,70.579 85.488,71.057 C85.107,71.534 84.634,71.882 84.069,72.099 C83.504,72.318 82.597,72.435 81.347,72.453 L80.243,76.554 L78.413,76.554 L81.02,66.841 Z M92.779,68.319 C92.082,68.319 91.426,68.487 90.807,68.824 C90.189,69.161 89.66,69.645 89.225,70.278 C88.79,70.909 88.528,71.561 88.439,72.235 C88.334,73.032 88.491,73.708 88.906,74.262 C89.321,74.817 89.987,75.095 90.903,75.095 C91.964,75.095 92.914,74.72 93.754,73.972 C94.595,73.223 95.086,72.315 95.227,71.245 C95.343,70.36 95.176,69.651 94.724,69.119 C94.272,68.586 93.623,68.319 92.779,68.319 Z M93.071,66.595 C94.405,66.595 95.45,67.025 96.204,67.883 C96.958,68.742 97.248,69.831 97.075,71.153 C96.942,72.166 96.559,73.119 95.928,74.014 C95.297,74.912 94.525,75.598 93.61,76.079 C92.694,76.558 91.684,76.799 90.579,76.799 C89.197,76.799 88.147,76.389 87.428,75.571 C86.711,74.752 86.441,73.674 86.618,72.335 C86.818,70.816 87.481,69.51 88.612,68.419 C89.872,67.204 91.36,66.595 93.071,66.595 Z" id="Stroke-55" stroke="#FFFFFE"></path>
            <path d="M99.881,66.841 L101.698,66.841 L100.096,72.837 C99.955,73.36 99.872,73.73 99.844,73.946 C99.795,74.311 99.872,74.596 100.072,74.801 C100.272,75.007 100.587,75.108 101.019,75.108 C101.368,75.108 101.681,75.032 101.961,74.878 C102.17,74.762 102.351,74.573 102.502,74.306 C102.655,74.039 102.837,73.51 103.052,72.717 L104.629,66.841 L106.467,66.841 L104.918,72.639 C104.598,73.832 104.272,74.688 103.94,75.208 C103.606,75.726 103.172,76.122 102.637,76.392 C102.101,76.664 101.475,76.799 100.757,76.799 C99.788,76.799 99.068,76.541 98.593,76.026 C98.12,75.51 97.942,74.806 98.059,73.913 C98.11,73.526 98.239,72.953 98.445,72.196 L99.881,66.841 Z M108.618,66.841 L110.454,66.841 L108.282,74.883 L111.297,74.883 L110.866,76.554 L106.012,76.554 L108.618,66.841 Z M118.746,68.319 C118.049,68.319 117.393,68.487 116.774,68.824 C116.156,69.161 115.627,69.645 115.192,70.278 C114.757,70.909 114.495,71.561 114.406,72.235 C114.301,73.032 114.457,73.708 114.872,74.262 C115.288,74.817 115.954,75.095 116.87,75.095 C117.931,75.095 118.881,74.72 119.721,73.972 C120.562,73.223 121.053,72.315 121.194,71.245 C121.31,70.36 121.143,69.651 120.691,69.119 C120.239,68.586 119.59,68.319 118.746,68.319 Z M119.038,66.595 C120.371,66.595 121.416,67.025 122.171,67.883 C122.925,68.742 123.215,69.831 123.041,71.153 C122.909,72.166 122.526,73.119 121.895,74.014 C121.264,74.912 120.492,75.598 119.577,76.079 C118.661,76.558 117.651,76.799 116.546,76.799 C115.163,76.799 114.114,76.389 113.395,75.571 C112.678,74.752 112.408,73.674 112.584,72.335 C112.785,70.816 113.448,69.51 114.579,68.419 C115.839,67.204 117.327,66.595 119.038,66.595 Z M130.662,68.194 L129.18,69.37 C128.727,68.666 128.264,68.313 127.793,68.313 C127.56,68.313 127.358,68.382 127.185,68.521 C127.012,68.66 126.913,68.825 126.888,69.019 C126.864,69.2 126.908,69.4 127.021,69.62 C127.132,69.841 127.495,70.327 128.11,71.08 C128.435,71.48 128.647,71.764 128.744,71.931 C128.979,72.319 129.136,72.681 129.218,73.017 C129.298,73.354 129.317,73.697 129.271,74.045 C129.168,74.824 128.805,75.478 128.181,76.007 C127.557,76.535 126.81,76.799 125.943,76.799 C124.622,76.799 123.629,76.171 122.962,74.917 L124.51,73.788 C124.96,74.646 125.514,75.075 126.169,75.075 C126.482,75.075 126.759,74.974 126.998,74.771 C127.24,74.569 127.377,74.325 127.415,74.038 C127.446,73.813 127.411,73.585 127.312,73.351 C127.212,73.118 126.9,72.677 126.373,72.031 C125.816,71.348 125.458,70.834 125.301,70.486 C125.091,70.014 125.015,69.552 125.075,69.098 C125.154,68.5 125.42,67.963 125.874,67.487 C126.446,66.892 127.151,66.595 127.987,66.595 C129.135,66.595 130.028,67.129 130.662,68.194 Z" id="Stroke-56" stroke="#FFFFFE"></path>
            <polyline id="Fill-57" fill="#E57138" points="37.223 66.841 39.053 66.841 38.17 70.108 41.7 66.841 43.963 66.841 39.144 71.28 41.794 76.554 39.754 76.554 37.591 72.249 36.427 76.554 34.617 76.554 37.223 66.841"></polyline>
            <path d="M49.774,68.319 C49.078,68.319 48.42,68.487 47.802,68.824 C47.184,69.161 46.656,69.645 46.22,70.278 C45.785,70.909 45.523,71.561 45.434,72.235 C45.33,73.032 45.486,73.708 45.901,74.262 C46.316,74.817 46.982,75.095 47.898,75.095 C48.959,75.095 49.91,74.72 50.749,73.972 C51.59,73.223 52.08,72.315 52.222,71.245 C52.338,70.36 52.171,69.651 51.719,69.119 C51.267,68.586 50.618,68.319 49.774,68.319 Z M50.067,66.595 C51.401,66.595 52.445,67.025 53.2,67.883 C53.954,68.742 54.243,69.831 54.07,71.153 C53.937,72.166 53.554,73.119 52.923,74.014 C52.292,74.912 51.52,75.598 50.605,76.079 C49.689,76.558 48.679,76.799 47.575,76.799 C46.192,76.799 45.142,76.389 44.424,75.571 C43.706,74.752 43.436,73.674 43.613,72.335 C43.813,70.816 44.477,69.51 45.607,68.419 C46.868,67.204 48.354,66.595 50.067,66.595 Z" id="Fill-58" fill="#E57138"></path>
            <polyline id="Fill-59" fill="#E57138" points="55.674 66.841 61.606 66.841 61.165 68.571 59.141 68.571 56.999 76.554 55.189 76.554 57.33 68.571 55.222 68.571 55.674 66.841"></polyline>
            <path d="M67.369,68.194 L65.888,69.37 C65.434,68.666 64.972,68.313 64.501,68.313 C64.268,68.313 64.066,68.382 63.893,68.521 C63.72,68.66 63.621,68.825 63.596,69.019 C63.572,69.2 63.616,69.4 63.729,69.62 C63.84,69.841 64.203,70.327 64.818,71.08 C65.143,71.48 65.355,71.764 65.451,71.931 C65.687,72.319 65.844,72.681 65.926,73.017 C66.006,73.354 66.025,73.697 65.979,74.045 C65.876,74.824 65.513,75.478 64.889,76.007 C64.264,76.535 63.518,76.799 62.651,76.799 C61.33,76.799 60.337,76.171 59.67,74.917 L61.218,73.788 C61.668,74.646 62.222,75.075 62.877,75.075 C63.19,75.075 63.467,74.974 63.706,74.771 C63.948,74.569 64.086,74.325 64.123,74.038 C64.153,73.813 64.118,73.585 64.02,73.351 C63.92,73.118 63.608,72.677 63.081,72.031 C62.524,71.348 62.166,70.834 62.009,70.486 C61.799,70.014 61.723,69.552 61.783,69.098 C61.862,68.5 62.128,67.963 62.582,67.487 C63.155,66.892 63.858,66.595 64.694,66.595 C65.844,66.595 66.736,67.129 67.369,68.194" id="Fill-60" fill="#E57138"></path>
            <path d="M73.845,68.319 C73.149,68.319 72.493,68.487 71.873,68.824 C71.255,69.161 70.727,69.645 70.291,70.278 C69.857,70.909 69.594,71.561 69.505,72.235 C69.401,73.032 69.557,73.708 69.972,74.262 C70.387,74.817 71.053,75.095 71.969,75.095 C73.031,75.095 73.981,74.72 74.821,73.972 C75.661,73.223 76.153,72.315 76.293,71.245 C76.41,70.36 76.243,69.651 75.79,69.119 C75.338,68.586 74.69,68.319 73.845,68.319 Z M74.137,66.595 C75.471,66.595 76.516,67.025 77.271,67.883 C78.025,68.742 78.315,69.831 78.141,71.153 C78.008,72.166 77.625,73.119 76.994,74.014 C76.364,74.912 75.591,75.598 74.676,76.079 C73.76,76.558 72.75,76.799 71.646,76.799 C70.263,76.799 69.213,76.389 68.494,75.571 C67.778,74.752 67.507,73.674 67.684,72.335 C67.884,70.816 68.547,69.51 69.678,68.419 C70.939,67.204 72.426,66.595 74.137,66.595 Z" id="Fill-61" fill="#E57138"></path>
            <path d="M81.795,70.736 C82.786,70.732 83.445,70.629 83.773,70.425 C84.102,70.223 84.292,69.923 84.345,69.521 C84.374,69.297 84.341,69.107 84.243,68.953 C84.145,68.8 83.986,68.692 83.762,68.63 C83.54,68.568 83.086,68.538 82.401,68.538 L81.795,70.736 Z M81.02,66.841 L82.725,66.841 C83.76,66.841 84.478,66.93 84.879,67.111 C85.376,67.336 85.735,67.648 85.954,68.049 C86.173,68.45 86.246,68.919 86.176,69.456 C86.098,70.046 85.87,70.579 85.488,71.057 C85.107,71.534 84.634,71.882 84.069,72.099 C83.504,72.318 82.597,72.435 81.347,72.453 L80.243,76.554 L78.413,76.554 L81.02,66.841 Z" id="Fill-62" fill="#E57138"></path>
            <path d="M92.779,68.319 C92.082,68.319 91.426,68.487 90.807,68.824 C90.189,69.161 89.66,69.645 89.225,70.278 C88.79,70.909 88.528,71.561 88.439,72.235 C88.334,73.032 88.491,73.708 88.906,74.262 C89.321,74.817 89.987,75.095 90.903,75.095 C91.964,75.095 92.914,74.72 93.754,73.972 C94.595,73.223 95.086,72.315 95.227,71.245 C95.343,70.36 95.176,69.651 94.724,69.119 C94.272,68.586 93.623,68.319 92.779,68.319 Z M93.071,66.595 C94.405,66.595 95.45,67.025 96.204,67.883 C96.958,68.742 97.248,69.831 97.075,71.153 C96.942,72.166 96.559,73.119 95.928,74.014 C95.297,74.912 94.525,75.598 93.61,76.079 C92.694,76.558 91.684,76.799 90.579,76.799 C89.197,76.799 88.147,76.389 87.428,75.571 C86.711,74.752 86.441,73.674 86.618,72.335 C86.818,70.816 87.481,69.51 88.612,68.419 C89.872,67.204 91.36,66.595 93.071,66.595 Z" id="Fill-63" fill="#E57138"></path>
            <path d="M99.881,66.841 L101.698,66.841 L100.096,72.837 C99.955,73.36 99.872,73.73 99.844,73.946 C99.795,74.311 99.872,74.596 100.072,74.801 C100.272,75.007 100.587,75.108 101.019,75.108 C101.368,75.108 101.681,75.032 101.961,74.878 C102.17,74.762 102.351,74.573 102.502,74.306 C102.655,74.039 102.837,73.51 103.052,72.717 L104.629,66.841 L106.467,66.841 L104.918,72.639 C104.598,73.832 104.272,74.688 103.94,75.208 C103.606,75.726 103.172,76.122 102.637,76.392 C102.101,76.664 101.475,76.799 100.757,76.799 C99.788,76.799 99.068,76.541 98.593,76.026 C98.12,75.51 97.942,74.806 98.059,73.913 C98.11,73.526 98.239,72.953 98.445,72.196 L99.881,66.841" id="Fill-64" fill="#E57138"></path>
            <polyline id="Fill-65" fill="#E57138" points="108.618 66.841 110.454 66.841 108.282 74.883 111.297 74.883 110.866 76.554 106.012 76.554 108.618 66.841"></polyline>
            <path d="M118.746,68.319 C118.049,68.319 117.393,68.487 116.774,68.824 C116.156,69.161 115.627,69.645 115.192,70.278 C114.757,70.909 114.495,71.561 114.406,72.235 C114.301,73.032 114.457,73.708 114.872,74.262 C115.288,74.817 115.954,75.095 116.87,75.095 C117.931,75.095 118.881,74.72 119.721,73.972 C120.562,73.223 121.053,72.315 121.194,71.245 C121.31,70.36 121.143,69.651 120.691,69.119 C120.239,68.586 119.59,68.319 118.746,68.319 Z M119.038,66.595 C120.371,66.595 121.416,67.025 122.171,67.883 C122.925,68.742 123.215,69.831 123.041,71.153 C122.909,72.166 122.526,73.119 121.895,74.014 C121.264,74.912 120.492,75.598 119.577,76.079 C118.661,76.558 117.651,76.799 116.546,76.799 C115.163,76.799 114.114,76.389 113.395,75.571 C112.678,74.752 112.408,73.674 112.584,72.335 C112.785,70.816 113.448,69.51 114.579,68.419 C115.839,67.204 117.327,66.595 119.038,66.595 Z" id="Fill-66" fill="#E57138"></path>
            <path d="M130.662,68.194 L129.18,69.37 C128.727,68.666 128.264,68.313 127.793,68.313 C127.56,68.313 127.358,68.382 127.185,68.521 C127.012,68.66 126.913,68.825 126.888,69.019 C126.864,69.2 126.908,69.4 127.021,69.62 C127.132,69.841 127.495,70.327 128.11,71.08 C128.435,71.48 128.647,71.764 128.744,71.931 C128.979,72.319 129.136,72.681 129.218,73.017 C129.298,73.354 129.317,73.697 129.271,74.045 C129.168,74.824 128.805,75.478 128.181,76.007 C127.557,76.535 126.81,76.799 125.943,76.799 C124.622,76.799 123.629,76.171 122.962,74.917 L124.51,73.788 C124.96,74.646 125.514,75.075 126.169,75.075 C126.482,75.075 126.759,74.974 126.998,74.771 C127.24,74.569 127.377,74.325 127.415,74.038 C127.446,73.813 127.411,73.585 127.312,73.351 C127.212,73.118 126.9,72.677 126.373,72.031 C125.816,71.348 125.458,70.834 125.301,70.486 C125.091,70.014 125.015,69.552 125.075,69.098 C125.154,68.5 125.42,67.963 125.874,67.487 C126.446,66.892 127.151,66.595 127.987,66.595 C129.135,66.595 130.028,67.129 130.662,68.194" id="Fill-67" fill="#E57138"></path>
        </g>
    </g>
</svg>