<?xml version="1.0" encoding="utf-8"?>
<!-- Generator: Adobe Illustrator 22.0.0, SVG Export Plug-In . SVG Version: 6.00 Build 0)  -->
<svg version="1.1" id="Layer_1" xmlns="http://www.w3.org/2000/svg" xmlns:xlink="http://www.w3.org/1999/xlink" x="0px" y="0px"
	 viewBox="0 0 973.1 749.1" style="enable-background:new 0 0 973.1 749.1;" xml:space="preserve">
<style type="text/css">
	.st0{fill:url(#SVGID_1_);}
	.st1{fill:#278FC6;}
	.st2{fill:#92C7E5;}
	.st3{fill:#C1A782;}
	.st4{fill:#EACEAA;}
	.st5{fill:#CDCECD;}
	.st6{fill:#F5E8D4;}
	.st7{fill:#146993;}
	.st8{fill:#5BACD1;}
	.st9{fill:#5093A5;}
	.st10{fill:#AAD1E0;}
	.st11{fill:#A88390;}
	.st12{fill:#C9A382;}
	.st13{fill:#F4DCBA;}
	.st14{fill:#FFFFFF;}
	.st15{fill:#F7F7F7;}
	.st16{fill:#BCBEC0;}
	.st17{fill:none;}
	.st18{fill:url(#SVGID_2_);}
	.st19{fill:url(#SVGID_3_);}
</style>
<g>
	<path d="M808.6,343.3c-2.1-4.8-32.6-37-37.1-39.7c-4.5-2.7-3.7-1.1-15.8,1.9c-12.1,3.1-24.4-0.6-24.4-0.6
		c10.1-11.9,43.6-17.1,43.6-17.1c-12.9-11.3-30-10-44.7-6.8c-14.7,3.2-29.8-1.6-41.8-12.3c-11.9-10.6-20.6-32.3-30.3-47.7
		c-9.7-15.5-29-4.7-29-4.7c-17.4-17.5-56.6-9.5-56.6-9.5l87.9-84.2l-191.2,128l12.2-36.8L371,297.8l3-17.4l-46.4,37.4
		c0,0-14.8,0-17.6,0s-6.9,3.4-6.9,3.4l-3.6,16.9l-39.7,28l2.3-24.9L129.2,464.6l88.7-40.3l-5.5,15.8l78.4-50.9l-4.8,17l24-17
		c6,4.3,20.5,7.7,24.7,7c4.2-0.6,10.5-6,10.5-6s1.5,24.7,4.2,38.3s16.6,31.4,16.6,31.4l16.2,14l4.4,72.3c0.3,4.7,4.3,8.3,9,8
		l320.6-19.6c4.7-0.3,8.3-4.3,8-9l-5.1-83.3c-0.2-2.8-1.7-5.3-4-6.7c0.9-0.2,1.5-0.3,1.8-0.5c3.5-1.6,4.5,2.3,7.1,1.1
		c2.6-1.1,22.7-6.9,22.7-6.9s4.5,6.8,13.1,4.8c8.5-1.9,31.1-24.5,32.4-28.2c1.3-3.7-0.3-22.7-0.3-22.7s7.6-9.8,13.7-17.8
		C811.7,357.3,810.7,348.1,808.6,343.3z M734.9,317.2c3.7-1.7,2.6,3.1,1.5,7.7c-1.1,4.7-2.1,8.5-2.3,11.8c-0.2,3.2-4,5-6.1,3.9
		C725.9,339.4,720.5,323.8,734.9,317.2z M510.8,425.4c0-17.9,6.8-29.3,6.8-29.3s14.2,23.4,5.8,47.7c-0.2,0.6-0.4,1.2-0.7,1.8
		l-2.8,0.2c-0.6-0.4-1.3-0.9-2-1.5C514.7,441.5,510.8,435.9,510.8,425.4z M573.5,323c11-0.7,16.8,4.6,16.8,4.6
		c-23.2,6.1-35,29.9-35,29.9c-3.4-26.4,12.2-37.3,12.2-37.3l-20.3,1.3c9.9-19.8,35.6-20.1,35.6-20.1
		C572.5,308.3,573.5,323,573.5,323z M616.2,317.3c-1,4-3.2,4.9-3.2,4.9c8.4,1,14.2-8,17.1-16.3c2.9-8.3-2.6-8.9-5.7-10.1
		c-3.1-1.2-12.2-8.8-12.2-8.8c-0.8,2.9,0.8,5.8,7.3,11.1c6.5,5.3,3.1,6.9,3.1,6.9c-1.3-1.1-5.6-3.2-13.6-6.9
		c-1.5-0.7-2.8-1.5-3.9-2.2c-4.4-3-5.3-5.6-5.3-5.6c2.7-5.8,10-13.9,20.2-10.3c10.2,3.5,13.9,15.7,13.9,15.7s2.3-4.9,8.2-9.1
		c6-4.2,10.6-1.8,11.3,6.3c0.6,8.1-1.8,9.4-6.8,10c-5,0.6-2.6-2.9-2.6-2.9c5.8-3.4,3.7-6,3.7-6l-8.7,6.5v6.7c0,0-2.6-2.5-3.3-4
		c-0.7-1.5-2.5-2.4-1,2.6c1.5,5,0.3,8.4,0.5,12.9c0.2,4.5,3.5,5.5,3.9,8.9c0.3,3.4-6.8,5.6-12.9,4.8c-6.1-0.8-7.1-7.6-7.1-7.6
		c-12.2,5.2-23.6-2-26.9-5.9c-0.1-0.1-0.1-0.1-0.2-0.2c-3.1-3.9-1.6-12.9-1.6-12.9c1.5,1.4,3.1,2.6,4.7,3.7
		C605.5,316.8,616.2,317.3,616.2,317.3z M605,302c4.4,1.1,10.6,3.8,12,5.4c1.4,1.6,0.6,3.5,0.6,3.5s-2,1-6.5,0.3
		c-4.4-0.6-5.9-2.8-7.7-5.4C601.5,303.4,600.6,300.9,605,302z M618.1,410.1c-9.1,8.2-18.2,11.4-18.2,11.4
		c3.4-15.3-1.5-38.2-1.5-38.2c-1.9,3.8-9,9.2-9,9.2c0.7-11.9-2-20.3-2-20.3l-5.2,8.5c0-11.6-10.9-20.3-10.9-20.3
		c20.8,1.7,36.2-7,36.2-7c0.4,1.1,0.7,4,1,6.9c0.3,3.6,0.6,7.1,0.6,7.1c2.4-2.2,8.5-8.2,8.5-8.2c1.7,6.8-0.5,20.3-0.5,20.3
		c6.8-4.1,12.6-17.4,12.6-17.4l2.4,8.7l3.5-5.5c0.8,12.2-1.7,22-5.7,29.7C626.5,401.3,622.3,406.3,618.1,410.1z M630.1,352
		c-1.8,0.3-3.4-1-5.1-1.1c-1.7-0.2-7.8,0.2-7.7-3.8c0,0,0-2.1,3.3-1.1c3.3,1,5.8,1.9,7.7,1.5c1.9-0.4,3.1-0.3,3.1,1.1
		C631.3,350.1,631.8,351.7,630.1,352z M630.3,343.8c-7,1.5-6.8-1-9.1-1.6c-2.3-0.6,0,0-17.7,5.9c-17.7,5.9-28.2,2.9-28.2,2.9
		c4.2-1.9,8.5-8.1,16-14.8c7.4-6.8,13.4-3.7,13.4-3.7s-3.4,1.6-2.6,2.9c0.8,1.3,10.8,1.1,15,0.3c4.2-0.8,13.1,1,14.7,1.1
		c0.5,0,1.2,0.7,2.1,1.6c1.9,1.9,4.3,4.9,6,4.7c2.4-0.3,0-4.5,0-4.5s4.4,1.1,6.6,8.5c2.3,7.4,6.9,10.5,6.9,10.5
		C640.2,357.8,630.3,343.8,630.3,343.8z M640.9,312c0,0,4.6-2.7,6.9-3.2c2.3-0.5,3.3,0.4,3.1,1.6s-1.6,3-3.1,3.2
		C646.3,313.9,638.5,314.7,640.9,312z M551,418.4c3.9-24.7,22-28.3,29-20.8c0.1,0.1,0.2,0.2,0.3,0.4c6.7,7.5,8.8,17.4,5.5,36.9
		c0,0,14.7,2.7,27.2-7.6c0,0-0.7,4.2-2.2,8.7c-0.5,1.5-1.1,3-1.9,4.4l-52.7,3.2c-0.8-0.6-1.6-1.4-2.5-2.5
		C551.1,437.6,549,430.9,551,418.4z M650,432.4c-0.7,2.1-1.3,4-2,5.6l-23.7,1.4c1-1.7,1.9-3.4,2.8-5c8.4-16.4,7.8-28,7.8-28
		c6.8,6.8,6.8,19.7,6.8,19.7c11.6-25.2,3.5-51.6,3.5-51.6C659.1,393.5,654.6,418,650,432.4z M653.3,335.9c4-0.1,7.5-5.7,7.5-5.7
		c-6-6.5,0-9.3,0-9.3c0.6,11.5,21,10.2,37.1,15.2c16.1,4.9,16.9,11,16.9,11c-6.9-3.6-13.3-4.3-13.3-4.3c4.1,4.1,15.6,8.5,15.6,8.5
		c-10-0.4-19.8-7-25-10.3c-5.2-3.3-15.4-5.1-23.7-4.3S653.3,335.9,653.3,335.9z M711.3,355.7c0,0,3.4,1.6,9.8,1.7
		c6.4,0.1,9.7-1.5,9.7,0c0,1.5-0.8,4.8-7.9,5.2C715.9,362.9,709.4,359.3,711.3,355.7z M555.3,234.8c2.4-3.1,14.8-23.2,46.4-17.4
		c31.7,5.8,31.9,35.8,31.9,35.8c3.8-3.1,3.1-10.2,2.4-20.3s8-7.7,13.8-3.4c1.4,1,2.5,2.4,3.6,4.2c3.7,6,7.6,17.1,19.8,37.1
		c16,26.1,34.6,25.9,34.6,25.9c-1.5-0.5-2.9-1.4-4.1-2.5c-4-3.4-6.5-8.5-6.5-8.5s11.9,8.8,27.9,3.5c16.1-5.3,24.1-2.2,24.1-2.2
		c-15,0.2-29,9.9-33.1,12.6s-7.3,2.9-18.9,1.7c-11.6-1.2-20.8-5.6-20.8-5.6s1.5,7.7,17.2,12.6c15.7,4.8,19.8,10.4,19.8,10.4
		c-9.9-5.3-26.1-0.7-26.1-0.7c11.9,1.5,15.1,8.9,15.1,8.9c-24.1-6.8-34.2-1.9-34.2-1.9s5.8-8,4.1-34.1
		c-1.7-26.1-24.2-34.1-24.2-34.1c16.9,13.8,13.5,26.8,13.5,26.8c-9-11.6-19.8-3.6-19.8-3.6c-0.3-2-0.6-3.9-1.1-5.7
		c-4.6-18.7-17.3-21.2-17.3-21.2c4.2,5.8,6.5,11.3,7.7,15.6c1.5,5.6,1.3,9.3,1.3,9.3c-33.9-17.7-42.8,16-42.8,16
		c-12.6-26.8,6.3-37,6.3-37c-21.5,6.3-21.3,16.2-21.3,16.2c-3.6-3.9-2.2-10.2-2.2-10.2c-8.7,8.5-7.7,17.7-7.7,17.7
		c-31,7-36.6,22.2-36.6,22.2c11.8-7.1,18.7-6,18.7-6l-4.4,4h12.1c-31.4,13.9-24.9,47-24.9,47c-5.2-0.8-10.9-15-10.9-15
		c-2.9,10.6,3.9,21.2,3.9,21.2s14.8,21,18.7,42c3.9,21-6.8,37.7-6.8,37.7c0.8-10.4-0.7-20.3-3.2-29.4c-5.6-20.2-16.6-36.6-20.6-45.6
		c-5.8-13.1-8.7-27.6,0-52c8.7-24.4,31.4-34.1,31.4-34.1c-24.4,1.5-37,16.9-47.3,35.3c-10.3,18.4-32,26.4-32,26.4
		c17.5-20.3,17.9-39.7,26.8-52.7c8.9-13.1,23.5-13.3,39.9-12.8c16.5,0.5,27.5-7.3,27.5-7.3c-21.5-8-44.3-3.6-44.3-3.6
		c3.4-8,17.9-8.7,26.4-9.7C547.8,247.4,552.9,238,555.3,234.8z M485.1,375.9c0,0-17.2-2-41.3,7.4c-4.1,1.6-8.4,3.5-12.9,5.9
		c0,0,6.9-18.3,21.4-28.6s13.5-8.7,22.3-17.9c8.7-9.2,8.5-13.2,20.3-21.4l-0.2,9.5l-0.4,15.5c0,0-0.8,3.5-4.7,5.2
		c-3.9,1.6-26.4,11.9-28.5,18.7C461.1,370.1,482,369.1,485.1,375.9z M470.4,294.1c0,0-8.5,24-14.5,32.1c-6,8.1-23.9,19.4-23.9,19.4
		l23.9,1.7c0,0-23.2,14-35.2,34.8c0,0-38.1-20.6-49.7-33.9l36-26.6v29.5L470.4,294.1z M447.5,261.4l-8.7,24.4l83.9-55.7l-101.3,88.7
		l5.8-24.8l-68.4,43.9h-9.5H325l20.3-17.4l-0.6,13.2L447.5,261.4z M233.4,414.2l3.9-20.2L186,424.2l59.3-51.3v21l45.5-30v7.5v0.6
		l1.6,2.6L233.4,414.2z M358.2,394.1c-7.5-34.8-18.9-40.3-18.9-40.3c3.9,10.2,5.8,26.8,5.8,26.8s-4.7,8.9-18.1,6.1
		c-13.4-2.7-13.1-7.7-13.1-7.7l-1.1-10l-2.9-4l5.5-2.1c-8.4-3.1-8.4-7.9-8.4-7.9c0.6-19.4,6.5-28.7,6.5-28.7h15.2l-17.3,17.4h37.9
		c0,0,13.4,15.3,22.5,21.3c9.2,6,20.3,14.2,20.3,14.2c1.3,1,2.7,2.2,4,3.3c10.9,9.4,21.2,22,14.2,26.2c-1.7,1-3.8,1.3-9.9-1.3
		c-25.6-10.9-34.6-31.4-34.6-31.4c1.7,34.1,37.1,49.7,37.1,49.7c-1.8,4.5-11.3,12.9-11.3,12.9c18.2,1.6,25.5-11.1,36-26.3
		c10.5-15.2,43.7-25,50.5-7.7c0.1,0.2,0.1,0.3,0.2,0.5c6.2,17-13,31.2-13,31.2c22.7-5.3,25.6-16.4,24.7-39.9
		c-1-23.5,11.6-26.1,11.6-26.1c0.5,5.6,11.4,18.1,11.4,18.1c-15.5,14.4-18,45.4-18.3,58.2c0,0.3,0,0.6,0,0.9l-47.1,2.9
		c-19.7-0.4-17.1,0.7-21.2,0.9c-1.2,0.1-2.3,0.3-3.3,0.6l-33.7,2.1c-1.1,0.1-2.2,0.4-3.1,0.8c-1.2-1.2-2-2.1-2.4-2.5
		C367.3,433.5,364.8,424.9,358.2,394.1z M758.5,420.9c-5,1.5-7.9,0-13.4-5.2c-0.9-0.8-1.8-1.7-2.8-2.8c-7.5-7.5-16.4-4.6-16.4-4.6
		c3.6,2,5.3,4.1,6,5.9c1.2,2.7,0.2,4.8,0.2,4.8c-14.8,5.6-26.6,0.7-26.6,0.7c-8.7,9.4-28.8,10.4-29.5,3.7c0-0.5-0.1-0.9-0.1-1.3
		c-0.1-5.6,4.2-6.6,21.1-11.1c18.1-4.8,15.5-11.4,15.5-11.4c-11.9,6-38.2,2.4-38.2,2.4c-11.1-12.1-12.8-24.7-12.6-27.6
		c0.2-2.9,15.7-1.9,15.7-1.9c-6.3-8-14.5-6.5-14.5-6.5c0.6-2.9,0.3-5.4-0.2-7.5c-1.1-4-3.4-6.3-3.4-6.3c26.1-12.8,38,8.2,38,8.2
		c-20.6,11.9-22.5,26.8-22.5,26.8c19.6-21.5,45.5-13.5,45.5-13.5c-6,17.2,9.9,24.1,9.9,24.1c-4.4-7.4-3.9-21.6,3.6-27.7
		c1.4-1.2,2.9-2,4.4-2.7c6.2-2.8,12.1-1.9,12.1-1.9c24.4,20.3,6.5,44.5,6.5,44.5c12.7-4.7,18.6-19.8,18.6-19.8
		C780.8,404.9,764.3,419.2,758.5,420.9z M796.5,355c-1,1.9-6,8.6-10.3,13c-4.4,4.4-6,2.4-6,2.4s-1.6-1.5-3.7-4.2
		c-2.1-2.7,0-4.2,0-4.2l9.7-14c0,0-9,8-12.6,11.1c-3.5,3.1-5.2-0.2-6.8-2.1c-1.6-1.9,0-3.7,0-3.7l10.5-15.6
		c-15.2,12.9-15.3,12.6-16.4,12.6c-1.1,0-3.5-1.9-4.4-3.7c-0.8-1.8,0.9-4.5,0.9-4.5l11.9-14.7c0,0-13.5,8.9-16.8,11.1
		c-3.2,2.3-4,1.3-4,1.3s-2.6-2.3-4.7-5c-2.1-2.7,0.8-5,0.8-5s8.2-7.6,15.2-11.9c6.9-4.4,9.5,0,9.5,0s25.2,25.6,27.3,28.9
		C798.6,349.9,797.5,353.1,796.5,355z"/>
	<g>
		<linearGradient id="SVGID_1_" gradientUnits="userSpaceOnUse" x1="16.211" y1="288.0266" x2="955.4891" y2="288.0266">
			<stop  offset="0.1337" style="stop-color:#A7A8A8"/>
			<stop  offset="0.4492" style="stop-color:#D6D6D6"/>
			<stop  offset="0.8342" style="stop-color:#A7A8A8"/>
		</linearGradient>
		<path class="st0" d="M820.1,340.7c-5.8-15.2-36.8-41.2-36.8-41.2l21.3-3.6c0,0-28.7-26.4-47.2-28.9c-18.5-2.6-37.3,4.8-51.2,0
			c-13.9-4.8-26.1-34.8-40.3-55.2c-14.2-20.3-34.8-9-34.8-9c-12.3-8.4-24.9-10-24.9-10l176.5-168L497.6,216.4l15.2-41.8l-120,90.9
			l5.5-22.9l-78,63.9c-9.5-1-16.8-0.8-24.8,3.9c-8.1,4.7-9,21.8-9,21.8l-9.5,6.9l3.5-33.4L16.2,546.2l177.5-98.7l-7.7,25.2
			l80.8-53.7l-6.3,21.3l55.2-35.7c3.9,4.4,18.4,4.8,18.4,4.8c4.3,35.7,19,54.7,19,54.7c22.8,29,21.4,37.5,21.4,37.5l0.2,31l3.1,13.6
			l11.9,5.3l4.8-15.8l-3.7-35.9l15.4,12.5l21.1-0.7L366,459.8c0,0-13.8-17.8-16.6-31.4c-2.8-13.5-4.2-38.3-4.2-38.3s-6.3,5.4-10.5,6
			c-4.2,0.6-18.7-2.7-24.7-7l-24,17l4.8-17L212.5,440l5.5-15.8l-88.7,40.3l132.9-123.3l-2.3,24.9l39.7-28l3.6-16.9
			c0,0,4.2-3.4,6.9-3.4s17.6,0,17.6,0l46.4-37.4l-3,17.4L481.4,214l-12.2,36.8l191.2-128l-87.9,84.2c0,0,39.2-8,56.6,9.5
			c0,0,19.3-10.8,29,4.7c9.7,15.5,18.4,37.1,30.3,47.7c11.9,10.6,27.1,15.5,41.8,12.3c14.7-3.2,31.8-4.5,44.7,6.8
			c0,0-33.4,5.2-43.6,17.1c0,0,12.3,3.7,24.4,0.6c12.1-3.1,11.3-4.7,15.8-1.9c4.5,2.7,35,34.9,37.1,39.7c2.1,4.8,3.1,14-3.1,22
			c-6.1,8-13.7,17.8-13.7,17.8s1.6,19,0.3,22.7c-1.3,3.7-23.9,26.3-32.4,28.2s-13.1-4.8-13.1-4.8s-20.2,5.8-22.7,6.9
			c-2.6,1.1-3.5-2.7-7.1-1.1c-3.5,1.6-40.9,3.9-40.9,3.9s2.6,17.6,0.9,30.3l0.2,2.1l-0.5,0c-0.2,0.9-5.4,21-5.7,21.8l25.1,1.3
			c-0.4-13.4-2.6-46.4,1.6-45.6c5.6,1.1,10.8,1.9,15.9,2.4l0.9,65.1l12.5,9.3l10.6-17c0,0-8.8-31.9-9-44.2
			c-0.1-10.2,3.6-12.6,3.6-12.6l5.4-1c58-2.7,68.1-46.3,68.1-46.3l-0.3-17.3C821.7,370.4,825.9,355.9,820.1,340.7z"/>
		<path d="M630.2,338.5c-0.2,0-0.5,0-0.7-0.1C629.7,338.4,630,338.4,630.2,338.5z"/>
		<path d="M633.8,338.3c-0.4,0.1-0.9,0.2-1.4,0.2C632.9,338.4,633.4,338.4,633.8,338.3z"/>
		<path d="M624.3,337.6c-0.1,0-0.2,0-0.3,0C624.1,337.6,624.2,337.6,624.3,337.6z"/>
		<path d="M630.9,338.5C630.9,338.5,630.9,338.5,630.9,338.5C630.9,338.5,630.9,338.5,630.9,338.5
			C630.9,338.5,630.9,338.5,630.9,338.5z"/>
		<path d="M622.4,337.5c0.1,0,0.3,0,0.4,0C622.7,337.5,622.5,337.5,622.4,337.5z"/>
		<path d="M628.6,338.3c-0.1,0-0.3,0-0.4-0.1C628.3,338.2,628.4,338.3,628.6,338.3z"/>
		<polygon class="st1" points="239.2,403.7 290.8,371.4 290.8,363.9 245.4,393.9 245.4,373 186,424.2 240.4,388.6 		"/>
		<polygon class="st2" points="290.8,371.4 239.2,403.7 240.4,388.6 186,424.2 237.3,394.1 233.4,414.2 292.4,374.6 290.8,372 		"/>
		<polygon class="st2" points="434.9,281.5 349.4,337.8 358.9,337.8 427.3,293.9 421.5,318.8 522.7,230.1 428.9,302.6 		"/>
		<polygon class="st1" points="325,337.8 349.4,337.8 434.9,281.5 428.9,302.6 522.7,230.1 438.9,285.8 447.6,261.4 344.7,333.6 
			345.3,320.4 		"/>
		<path class="st3" d="M517.6,396.2c0,0-6.8,11.4-6.8,29.3c0,10.5,3.9,16.1,7.1,18.9l5.4-0.5C531.9,419.5,517.6,396.2,517.6,396.2z"
			/>
		<path class="st3" d="M395.3,386.5c-2.9,1.9-10.6,2.3-29.3-10.6c0,0,8.9,20.6,34.6,31.4c6.1,2.6,8.2,2.3,9.9,1.3
			c7-4.2-3.3-16.8-14.2-26.2C396.5,384.3,396.3,385.9,395.3,386.5z"/>
		<path class="st3" d="M325,373.6c-8.2-1.3-15-8.7-15-8.7l2.9,4l1.1,10c0,0-0.3,5,13.1,7.7c13.4,2.7,18.1-6.1,18.1-6.1
			s-1.9-16.6-5.8-26.8C343.4,369.7,333.2,374.9,325,373.6z"/>
		<path class="st3" d="M513,388.2c0,0-10.9-12.6-11.4-18.1c0,0-12.6,2.7-11.6,26.1c1,23.5-1.9,34.6-24.7,39.9c0,0,19.2-14.2,13-31.2
			c-3.7-3.7-10.2-5.3-21.8-1.3c-31.9,11-19.7,29.3-41,41c-11.7,6.4-23.4,7.7-31.6,7.6c2.1,2.4,24.1,24.6,26.7,27.4
			c0,0,6.9-2.9,24.1-3.8c4.3-0.2-7.2-17.2,16.6-16.6l43.3-12.7C495.1,433.6,497.5,402.6,513,388.2z"/>
		<path class="st4" d="M415.6,444.6c21.3-11.6,9-30,41-41c11.5-4,18.1-2.4,21.8,1.3c-0.1-0.2-0.1-0.3-0.2-0.5
			c-6.8-17.3-40-7.4-50.5,7.7c-10.5,15.2-17.7,27.9-36,26.3c0,0,9.5-8.4,11.3-12.9c0,0-35.4-15.6-37.1-49.7
			c18.7,12.9,26.4,12.6,29.3,10.6c0.9-0.6,1.1-2.2,1-4.1c-1.3-1.2-2.7-2.3-4-3.3c0,0-11.1-8.2-20.3-14.2c-9.2-6-22.5-21.3-22.5-21.3
			h-37.9l17.3-17.4h-15.2c0,0-5.8,9.4-6.5,28.7c0,0,0,4.8,8.4,7.9l-5.5,2.1c0,0,6.8,7.4,15,8.7c8.2,1.3,18.4-3.9,14.4-19.8
			c0,0,11.4,5.6,18.9,40.3c6.7,30.8,9.1,39.5,25.8,58.1C392.2,452.3,403.9,451,415.6,444.6z"/>
		<path class="st5" d="M302.4,365.7c-0.1-1.9,4.8-3.6,4.8-3.6c-7.1-4-6.5-7.5-6.5-7.5c-4.4,0.5-2.7,15.6-2.4,16.8
			c0.2,1.2,10.3,6.3,10.3,6.3l-0.7-8.1C307.8,369.6,302.5,367.6,302.4,365.7z"/>
		<path class="st3" d="M567.5,404.4c3.8-6.4,8.8-7.2,12.9-6.4c-0.1-0.1-0.2-0.2-0.3-0.4c-7-7.5-25.2-3.9-29,20.8
			c-2,12.5,0.2,19.1,2.7,22.7l10.4-0.9C559.8,428.1,562,413.6,567.5,404.4z"/>
		<path class="st4" d="M567.5,404.4c-5.5,9.2-7.6,23.7-3.3,35.8l46.6-4.2c1.6-4.5,2.2-8.7,2.2-8.7c-12.5,10.3-27.2,7.6-27.2,7.6
			c3.3-19.5,1.3-29.4-5.5-36.9C576.3,397.2,571.3,398,567.5,404.4z"/>
		<path class="st5" d="M456,347.3l-23.9-1.7c0,0,17.9-11.4,23.9-19.4c6-8.1,14.5-32.1,14.5-32.1l-63.4,57.1v-29.5l-36,26.6
			c11.6,13.3,49.7,33.9,49.7,33.9C432.7,361.3,456,347.3,456,347.3z"/>
		<path class="st6" d="M713.5,379.7c0,0,1.8,16.5,16.8,18c0,0-16-6.9-9.9-24.1c0,0-25.9-8-45.5,13.5
			C674.9,387.2,696.7,374.6,713.5,379.7z"/>
		<path class="st6" d="M753.5,383.9c2.3,10.4-1.4,22.1-8.3,31.7c5.5,5.2,8.4,6.7,13.4,5.2c5.8-1.7,22.3-15.9,16.9-30.7
			c0,0-5.9,15.1-18.6,19.8c0,0,17.9-24.2-6.5-44.5c0,0-5.9-0.9-12.1,1.9C743.2,369.6,751.5,374.6,753.5,383.9z"/>
		<path class="st4" d="M730.3,397.7c-15-1.5-16.8-18-16.8-18c-16.8-5.2-38.6,7.5-38.6,7.5s1.9-15,22.5-26.8
			c-12.9-8.8-27.3-4.9-34.6-1.9c0.6,2.1,0.8,4.6,0.2,7.5c0,0,8.2-1.5,14.5,6.5c0,0-15.5-1-15.7,1.9s1.5,15.5,12.6,27.6
			c0,0,26.4,3.6,38.2-2.4c0,0,2.7,6.5-15.5,11.4c-16.9,4.5-21.2,5.5-21.1,11.1c18.3-0.1,28.5-10.5,28.5-10.5
			c6.7,3.4,20.2,3.1,27.5,2.7c-0.8-1.8-2.5-3.9-6-5.9c0,0,8.9-2.9,16.4,4.6c1,1,2,1.9,2.8,2.8c6.9-9.7,10.6-21.3,8.3-31.7
			c-2-9.3-10.3-14.3-15.2-16.6c-1.5,0.7-2.9,1.5-4.4,2.7C726.4,376.1,725.9,390.4,730.3,397.7z"/>
		<path class="st3" d="M704.5,411.5c0,0-10.1,10.4-28.5,10.5c0,0.4,0,0.8,0.1,1.3c0.7,6.7,20.8,5.8,29.5-3.7c0,0,11.9,4.8,26.6-0.7
			c0,0,1-2-0.2-4.8C724.7,414.6,711.2,414.9,704.5,411.5z"/>
		<path class="st6" d="M697.4,360.4c0,0-11.9-21-38-8.2c0,0,2.3,2.3,3.4,6.3C670.1,355.5,684.5,351.6,697.4,360.4z"/>
		<path class="st6" d="M728,340.5c2.1,1.1,6-0.6,6.1-3.9c0.2-3.2,1.1-7.1,2.3-11.8c1.1-4.7,2.2-9.4-1.5-7.7
			C720.6,323.8,725.9,339.4,728,340.5z"/>
		<path class="st4" d="M748.5,339.7c0,0,0.8,1,4-1.3c3.2-2.3,16.8-11.1,16.8-11.1L757.4,342c0,0-1.7,2.7-0.9,4.5
			c0.8,1.8,3.2,3.7,4.4,3.7c1.1,0,1.3,0.3,16.4-12.6l-10.5,15.6c0,0-1.6,1.8,0,3.7c1.6,1.9,3.3,5.2,6.8,2.1
			c3.5-3.1,12.6-11.1,12.6-11.1l-9.7,14c0,0-2.1,1.5,0,4.2c2.1,2.7,3.7,4.2,3.7,4.2s1.6,1.9,6-2.4c4.4-4.4,9.4-11.1,10.3-13
			c1-1.9,2.1-5.1,0-8.3c-2.1-3.2-27.3-28.9-27.3-28.9s-2.6-4.4-9.5,0c-6.9,4.4-15.2,11.9-15.2,11.9s-2.9,2.3-0.8,5
			C745.9,337.5,748.5,339.7,748.5,339.7z"/>
		<path class="st7" d="M486.1,338.9c-5.3,7.7-4.2,8.4-11,12.9c-6.4,4.2-24.8,14.3-31.3,31.5c24.1-9.4,41.3-7.4,41.3-7.4
			c-3.1-6.8-24-5.8-24-5.8c2.1-6.8,24.7-17.1,28.5-18.7c3.9-1.6,4.7-5.2,4.7-5.2l0.4-15.5C492,332.5,488.7,335.1,486.1,338.9z"/>
		<path class="st8" d="M474.7,342.6c-8.7,9.2-7.7,7.6-22.3,17.9c-14.5,10.3-21.4,28.6-21.4,28.6c4.5-2.3,8.8-4.3,12.9-5.9
			c6.5-17.1,25-27.2,31.3-31.5c6.8-4.5,5.6-5.2,11-12.9c2.6-3.8,5.9-6.5,8.6-8.2l0.2-9.5C483.2,329.4,483.4,333.5,474.7,342.6z"/>
		<path class="st8" d="M650.4,414.8c-1.3,6.2-3.3,12.5-5.5,18.1l5.1-0.5c4.6-14.4,9.1-38.9-4.8-57.8
			C648.1,380.3,654.1,397.2,650.4,414.8z"/>
		<path class="st9" d="M650.4,414.8c3.6-17.6-2.3-34.5-5.2-40.2c0,0,8.1,26.4-3.5,51.6c0,0,0-12.9-6.8-19.7c0,0,0.6,11.6-7.8,28
			l17.8-1.6C647.1,427.3,649.2,421,650.4,414.8z"/>
		<path class="st7" d="M513,258.1c0,0,6.7-5.8,18.9-5.4c12.2,0.4,20.1,0.8,30-9.9c0,0-5,2.2-9.6,2.8c0,0,12.2-18.5,35.6-21.9
			c0,0-9.7,5.3-10.4,7.9c0,0,22.7-4.5,38.1,5.3c0,0-14-1.5-19,1.8c0,0,27.3-1.7,37.1,14.6c0,0-0.2-30-31.9-35.8s-44,14.3-46.4,17.4
			c-2.4,3.1-7.5,12.6-16,13.5C530.9,249.3,516.4,250.1,513,258.1z"/>
		<path class="st10" d="M640.2,247.9c4-5.1,2.7-11.1,6.4-14c1.7-1.3,4.5-0.9,7-0.1c-1.1-1.8-2.3-3.2-3.6-4.2
			c-5.8-4.4-14.5-6.8-13.8,3.4c0.7,10.2,1.4,17.2-2.4,20.3C633.7,253.2,636.2,253,640.2,247.9z"/>
		<path class="st10" d="M713.6,294.8c13.3-1.3,17.8-8.7,35.8-7.7c0,0-8-3.1-24.1,2.2c-16.1,5.3-27.9-3.5-27.9-3.5s2.5,5.1,6.5,8.5
			C706.3,294.8,709.6,295.2,713.6,294.8z"/>
		<path class="st7" d="M508.5,284.6c0.3-1.9,0.3-3.4-2.1-3.1c-2.4,0.3-10.5,12.9-13.4,20.2c-2.9,7.3-7.9,14.2-7.9,14.2l-1.5-6.6
			c-4.4,15-20.7,25.2-20.7,25.2s21.7-8,32-26.4c10.3-18.4,22.9-33.8,47.3-35.3C521.3,268.9,508.5,284.6,508.5,284.6z"/>
		<path class="st10" d="M679.8,306c6.5,3.8,29,8.1,33.8,12.8c0,0-4.1-5.6-19.8-10.4c-15.7-4.8-17.2-12.6-17.2-12.6
			S673.3,302.2,679.8,306z"/>
		<path class="st10" d="M640.9,274.4c0.4,1.8,0.8,3.6,1.1,5.7c0,0,10.8-8,19.8,3.6C657.6,271.6,646.8,272.7,640.9,274.4z"/>
		<path class="st8" d="M596.6,238.6c5-3.3,19-1.8,19-1.8c-15.4-9.8-38.1-5.3-38.1-5.3c0.7-2.5,10.4-7.9,10.4-7.9
			c-23.4,3.4-35.6,21.9-35.6,21.9c4.6-0.6,9.6-2.8,9.6-2.8c-9.9,10.8-17.8,10.3-30,9.9c-12.2-0.4-18.9,5.4-18.9,5.4
			s22.7-4.4,44.3,3.6c0,0-11.1,7.7-27.5,7.3c-16.5-0.5-31-0.2-39.9,12.8c-8.9,13.1-9.3,32.4-26.8,52.7c0,0,16.4-10.2,20.7-25.2
			l1.5,6.6c0,0,5-6.9,7.9-14.2c2.9-7.3,11-19.8,13.4-20.2c2.4-0.3,2.4,1.1,2.1,3.1c0,0,12.7-15.6,33.8-11.8c0,0-22.7,9.7-31.4,34.1
			c-8.7,24.4-5.8,38.9,0,52c4,9,15,25.4,20.6,45.6c0.5-3.3,0.9-7.5,0.5-12l2.3,3.7c0,0,2.8-4.5-6.1-21.6
			c-8.9-17.1-23.7-32.4-9.2-53.4c0,0,3.3,8.7,4.8,11.1c0,0,5.6-21.3,10.9-27.9c0,0-6.5,2.5-16.9,8.4c0,0,2.4-24.7,38.2-41.8
			c0,0,0.6,3.4,1.8,5c0,0,4.4-13.9,14.8-12.9c0,0-1.5,6.3,2.2,10.2c0,0-0.2-9.9,21.3-16.2c0,0-7.5,10.7-4.9,24.1
			c0,0,8.4-16.8,27.7-13.2c0,0-2.7-3.2-7.4-4.9c0,0,10.7,0,19.8,5.8c-1.2-4.3-3.4-9.8-7.7-15.6c0,0,12.7,2.4,17.3,21.2
			c5.9-1.7,16.7-2.8,20.9,9.3c0,0,3.4-13.1-13.5-26.8c0,0,22.5,8,24.2,34.1c1.7,26.1-4.1,34.1-4.1,34.1s10.2-4.8,34.2,1.9
			c0,0-3.3-7.5-15.1-8.9c0,0,16.2-4.6,26.1,0.7c-4.8-4.8-27.3-9-33.8-12.8c-6.5-3.8-3.2-10.2-3.2-10.2s9.2,4.4,20.8,5.6
			c11.6,1.2,14.8,1,18.9-1.7c4.1-2.7,18.1-12.3,33.1-12.6c-18-1-22.5,6.4-35.8,7.7c-3.9,0.4-7.3,0-9.7-0.5c1.2,1.1,2.6,2,4.1,2.5
			c0,0-18.6,0.2-34.6-25.9c-12.2-20-16.1-31.1-19.8-37.1c-2.6-0.8-5.3-1.2-7,0.1c-3.7,2.9-2.4,8.9-6.4,14c-4,5.1-6.4,5.3-6.4,5.3
			C624,236.9,596.6,238.6,596.6,238.6z"/>
		<path class="st7" d="M618.8,268c-19.4-3.5-27.7,13.2-27.7,13.2c-2.6-13.4,4.9-24.1,4.9-24.1s-18.9,10.2-6.3,37
			c0,0,8.9-33.6,42.8-16c0,0,0.2-3.7-1.3-9.3c-9.1-5.7-19.8-5.8-19.8-5.8C616.1,264.8,618.8,268,618.8,268z"/>
		<path class="st7" d="M557.7,276c-1.1-1.6-1.8-5-1.8-5c-35.8,17.1-38.2,41.8-38.2,41.8c10.4-5.9,16.9-8.4,16.9-8.4
			c-5.3,6.6-10.9,27.9-10.9,27.9c-1.5-2.4-4.8-11.1-4.8-11.1c-14.5,21,0.2,36.3,9.2,53.4c8.9,17.1,6.1,21.6,6.1,21.6l-2.3-3.7
			c0.4,4.6,0.1,8.7-0.5,12c2.5,9.1,4,19,3.2,29.4c0,0,10.6-16.8,6.8-37.7c-3.9-21-18.7-42-18.7-42s-6.8-10.6-3.9-21.2
			c0,0,5.7,14.3,10.9,15c0,0-6.6-33.1,24.9-47h-12.1l4.4-4c0,0-6.9-1.1-18.7,6c0,0,5.6-15.2,36.6-22.2c0,0-1-9.2,7.7-17.7
			C562.1,262.2,557.7,276,557.7,276z"/>
		<path class="st10" d="M632.1,370.8l-2.4-8.7c0,0,2.7,14-4.6,28.1l3.9-2.7l0.9,7.6c4-7.8,6.5-17.6,5.7-29.7L632.1,370.8z"/>
		<path class="st7" d="M608.3,392.1c0,0-1.9-11.1-10.2-19.8l-2.7,6.5l-2.9-10.9l15.9-7.6c-0.3-2.9-0.6-5.8-1-6.9
			c0,0-15.4,8.7-36.2,7c0,0,10.9,8.7,10.9,20.3l5.2-8.5c0,0,2.6,8.5,2,20.3c0,0,7.1-5.4,9-9.2c0,0,4.8,22.9,1.5,38.2
			c0,0,9.2-3.1,18.2-11.4c-0.1-7-1.3-17.5-6.9-25.2L608.3,392.1z"/>
		<path class="st8" d="M625,390.2c7.3-14.1,4.6-28.1,4.6-28.1s-5.8,13.3-12.6,17.4c0,0,2.2-13.5,0.5-20.3c0,0-6,6-8.5,8.2
			c0,0-0.2-3.5-0.6-7.1l-15.9,7.6l2.9,10.9l2.7-6.5c8.2,8.7,10.2,19.8,10.2,19.8l2.9-7.1c5.5,7.7,6.8,18.1,6.9,25.2
			c4.2-3.9,8.4-8.8,11.7-15.1l-0.9-7.6L625,390.2z"/>
		<path class="st8" d="M556.6,316.7l14.8,0.8c-8.9,12.1-11.9,25.5-11.9,25.5c15.5-16.3,30.8-15.4,30.8-15.4s-5.8-5.3-16.8-4.6
			c0,0-1-14.8,9.3-21.5C561.3,306.9,556.6,316.7,556.6,316.7z"/>
		<path class="st7" d="M559.5,343c0,0,2.9-13.4,11.9-25.5l-14.8-0.8c0,0,4.8-9.8,26.2-15.2c0,0-25.6,0.2-35.6,20.1l20.3-1.3
			c0,0-15.6,10.9-12.2,37.3c0,0,11.8-23.8,35-29.9C590.3,327.6,575,326.7,559.5,343z"/>
		<path class="st7" d="M589.7,343.9c5.3-6.2,5.7-7.4,5.7-7.4s-1.1,3,2.9,3.5c4,0.5,17.7-2.1,22.7-2.5c0.4,0,0.9,0,1.4,0
			c0.1,0,0.3,0,0.4,0c0.4,0,0.7,0.1,1.1,0.1c0.1,0,0.2,0,0.3,0c1.3,0.2,2.6,0.4,3.8,0.6c0.1,0,0.3,0,0.4,0.1c0.3,0,0.6,0.1,0.9,0.1
			c0.2,0,0.5,0,0.7,0.1c0.2,0,0.5,0,0.7,0.1c0,0,0,0,0,0c0.5,0,1,0,1.5,0c0.5,0,0.9-0.1,1.4-0.2c-0.8-0.9-1.6-1.5-2.1-1.6
			c-1.6-0.2-10.5-1.9-14.7-1.1c-4.2,0.8-14.2,1-15-0.3c-0.8-1.3,2.6-2.9,2.6-2.9s-6-3.1-13.4,3.7c-7.4,6.8-11.8,12.9-16,14.8
			C575.3,350.9,584.4,350.1,589.7,343.9z"/>
		<path class="st10" d="M646.4,347c-2.3-7.4-6.6-8.5-6.6-8.5s2.4,4.2,0,4.5c-1.7,0.2-4.1-2.8-6-4.7c-0.4,0.1-0.9,0.2-1.4,0.2
			c-0.5,0-1,0-1.5,0c0,0,0,0,0,0c1.1,1.4,6.2,7.2,9.3,7.1c3.5-0.1,3.3,1.4,3.3,1.4s1.5,9.5,9.8,10.5
			C653.3,357.5,648.7,354.4,646.4,347z"/>
		<path class="st10" d="M632.4,338.5c-0.5,0-1,0-1.5,0C631.5,338.5,632,338.5,632.4,338.5z"/>
		<path class="st8" d="M643.5,347c0,0,0.2-1.5-3.3-1.4c-3.1,0.1-8.2-5.8-9.3-7.1c0,0,0,0,0,0c-0.2,0-0.5,0-0.7-0.1
			c-0.2,0-0.5,0-0.7-0.1c-0.3,0-0.6-0.1-0.9-0.1c-0.1,0-0.3,0-0.4-0.1c-1.3-0.2-2.6-0.4-3.8-0.6c-0.1,0-0.2,0-0.3,0
			c-0.4,0-0.8-0.1-1.1-0.1c-0.1,0-0.3,0-0.4,0c-0.5,0-0.9,0-1.4,0c-5.1,0.5-18.7,3-22.7,2.5c-4-0.5-2.9-3.5-2.9-3.5
			s-0.4,1.2-5.7,7.4c-5.3,6.2-14.4,6.9-14.4,6.9s10.5,3,28.2-2.9c17.7-5.9,15.5-6.5,17.7-5.9c2.3,0.6,2.1,3.1,9.1,1.6
			c0,0,9.9,14.1,23,13.7C645,356.5,643.5,347,643.5,347z"/>
		<path class="st8" d="M629.5,338.4c-0.3,0-0.6-0.1-0.9-0.1C628.9,338.3,629.2,338.4,629.5,338.4z"/>
		<path class="st8" d="M630.9,338.5c-0.2,0-0.5,0-0.7-0.1C630.4,338.5,630.7,338.5,630.9,338.5z"/>
		<path class="st8" d="M621,337.5c0.4,0,0.9,0,1.4,0C621.9,337.5,621.5,337.5,621,337.5z"/>
		<path class="st8" d="M623.9,337.6c-0.4,0-0.8-0.1-1.1-0.1C623.2,337.5,623.6,337.6,623.9,337.6z"/>
		<path class="st8" d="M628.1,338.2c-1.3-0.2-2.6-0.4-3.8-0.6C625.5,337.8,626.8,338,628.1,338.2z"/>
		<path class="st11" d="M628.3,347.5c-1.9,0.4-4.4-0.5-7.7-1.5c-3.3-1-3.3,1.1-3.3,1.1c-0.1,4.1,6,3.7,7.7,3.8
			c1.7,0.2,3.3,1.5,5.1,1.1c1.8-0.3,1.2-1.9,1.3-3.4C631.5,347.2,630.2,347.1,628.3,347.5z"/>
		<path class="st8" d="M701.6,342.7c0,0,6.4,0.7,13.3,4.3c0,0-0.8-6.1-16.9-11c-16.1-4.9-36.5-3.6-37.1-15.2c0,0-6,2.8,0,9.3
			c0,0,3.6,2.8,14,3.7C685.3,334.9,698.3,338.6,701.6,342.7z"/>
		<path class="st7" d="M668.5,336.6c8.3-0.7,18.5,1,23.7,4.3c5.2,3.3,15,9.9,25,10.3c0,0-11.5-4.4-15.6-8.5
			c-3.3-4.1-16.3-7.9-26.7-8.8c-10.4-1-14-3.7-14-3.7s-3.5,5.6-7.5,5.7C653.3,335.9,660.1,337.3,668.5,336.6z"/>
		<path class="st12" d="M590.3,305.9c0,0-1.5,9,1.6,12.9c0,0.1,0.1,0.1,0.2,0.2c0.7-2.7,1.7-6.5,2.9-9.4
			C593.4,308.5,591.9,307.3,590.3,305.9z"/>
		<path class="st12" d="M633.8,295.8c0,0-3.7-12.2-13.9-15.7c-10.2-3.5-17.4,4.5-20.2,10.3c0,0,0.8,2.6,5.3,5.6c2.3-2.8,6-7.5,7.2-9
			C613.9,284.9,628.6,286.8,633.8,295.8z"/>
		<path class="st13" d="M592.1,319c3.3,3.9,14.7,11.2,26.9,5.9c0,0,1,6.8,7.1,7.6c6.1,0.8,13.2-1.5,12.9-4.8
			c-0.3-3.4-3.7-4.4-3.9-8.9c-0.2-4.5,1-7.9-0.5-12.9c-1.5-5,0.3-4,1-2.6c0.7,1.5,3.3,4,3.3,4v-6.7l8.7-6.5c0,0,2.1,2.6-3.7,6
			c0,0-2.4,3.5,2.6,2.9c5-0.6,7.4-1.9,6.8-10c-0.6-8.1-5.3-10.5-11.3-6.3c-6,4.2-8.2,9.1-8.2,9.1c-5.2-8.9-19.9-10.9-21.6-8.8
			c0,0,9,7.6,12.2,8.8c3.1,1.2,8.6,1.8,5.7,10.1c-2.9,8.3-8.7,17.3-17.1,16.3c0,0,2.3-0.9,3.2-4.9c0,0-10.7-0.5-21.3-7.8
			C593.8,312.5,592.8,316.3,592.1,319z"/>
		<path class="st13" d="M609,298.1c7.9,3.7,12.3,5.8,13.6,6.9c0,0,3.4-1.6-3.1-6.9s-8.1-8.2-7.3-11.1c-1.2,1.4-4.9,6.1-7.2,9
			C606.1,296.7,607.4,297.4,609,298.1z"/>
		<path class="st14" d="M647.8,308.8c-2.3,0.5-6.9,3.2-6.9,3.2c-2.4,2.7,5.4,1.9,6.9,1.6s2.8-2,3.1-3.2
			C651.1,309.2,650,308.3,647.8,308.8z"/>
		<path class="st14" d="M611.2,311.3c4.4,0.6,6.5-0.3,6.5-0.3s0.8-1.9-0.6-3.5c-1.4-1.6-7.6-4.3-12-5.4c-4.4-1.1-3.5,1.4-1.6,3.9
			C605.3,308.5,606.7,310.6,611.2,311.3z"/>
		<path class="st6" d="M723,362.6c7-0.4,7.9-3.7,7.9-5.2s-3.3,0.1-9.7,0c-6.4-0.1-9.8-1.7-9.8-1.7C709.5,359.3,716,362.9,723,362.6z
			"/>
		<path d="M677.1,471.3l-0.2-2.1c-0.1,0.7-0.2,1.4-0.3,2.1L677.1,471.3z"/>
		<path class="st3" d="M523.4,443.9l-5.4,0.5c2.3,2,4.2,2.6,4.2,2.6C522.7,445.9,523.1,444.9,523.4,443.9z"/>
		<path class="st3" d="M494.8,446.4l-43.3,3.9c9.5,0.2,22,7.8,42.1,8.8C493.6,459.1,494.7,450,494.8,446.4z"/>
		<path class="st3" d="M559.2,445.1l9.7,3.8c-2.1-2.7-3.6-5.6-4.7-8.7l-10.4,0.9C556.3,444.6,559.2,445.1,559.2,445.1z"/>
		<path class="st4" d="M564.2,440.2c1.1,3.1,2.7,6.1,4.7,8.7c12-8.1,28.7,0.4,35.2-3c3.1-1.6,5.3-5.9,6.7-10"/>
		<path class="st8" d="M639.8,445.1l4.9-0.5c0.3-0.3,0.6-0.6,0.9-0.8c0.7-1.6,2.6-5.7,4.4-11.4l-5.1,0.5
			C643.1,437.7,641.2,441.9,639.8,445.1z"/>
		<path class="st9" d="M639.8,445.1c1.5-3.1,3.4-7.4,5.2-12.2l-17.8,1.6c-2,3.9-4.5,8.1-7.7,12.5L639.8,445.1z"/>
		<path class="st5" d="M644.7,444.6l0.6-0.1c0,0,0.1-0.3,0.4-0.7C645.3,444.1,645,444.3,644.7,444.6z"/>
	</g>
	<path d="M369.5,462.7c0,0,12.7,7.7,14.1,35.6l7.4,1.4l-3-34.8l-17.3-9.6L369.5,462.7z"/>
	<path d="M727.8,434.9c0,0-16.8,3.5-9.2,45.9l-5.9-36.1L708,432l5.6-4.4l12.8,0.4L727.8,434.9z"/>
	<path class="st3" d="M297.8,371.4c-0.2-1.2-1.9-16.3,2.4-16.8c0,0-0.6,3.5,6.5,7.5c0,0-4.9,1.7-4.8,3.6c0.1,1.9,5.4,3.9,5.4,3.9
		l0.7,8.1C308.1,377.7,298,372.6,297.8,371.4z"/>
	<path d="M383.8,465.4c0.1-0.5,0.1-1,0-1.5c-0.6-2.2-1.9-9.4,4.9-9.8c8.5-0.5,20.7-1.8,24,0.8c3,1.2,7.7,11.2,9.5,11.2
		c2.3,0,7.1-15.4,12.7-15.8c2.4-0.1,10.3-1.1,18.9-1.8c3.9-0.3,3.7,7.6,4.3,7.6c2.9-0.3,2.7-7.7,6.7-8.3c3.9-1,9.1-1.1,11.7-1.2
		c0.9,0,7.8-0.7,10.4,1.8c2.3,2.2,4.6,5.3,5.3,7.3c0.9,2.5,1.3-9.5,6-10.3c4.7-0.7,80-6.4,84-6.4c4.3,0,7.3,6.4,9.7,6.4
		c2.7,0,2.1-8.8,8.4-9.5c9.5-1,25.3-2.7,25.3,1.5c3.2-2.5,8.7-4,12.9-4c7.4,0,8.9,0.7,16.5,4.4c10.2,5.1,22.7-7.5,25.9-7.6
		c9.2-0.4,31.8,2.4,34.6,5c2.8,2.7-1-0.9-1.7,11.7c0,0.8,1.1,4.7,1.1,5.8c-0.2,12.6,7.1,41.1,7.7,54.6c0.1,2.5-4.3,3.4-6.1,1.6
		c-9-9.3-20.2-10.4-29.7-10.1c-13.4,0.5-265.2,22.5-274.1,22.6c-6.5,0.1-15.2,4.1-21,9.1c-1.9,1.7-5.2-0.1-5.2-2.7
		c-0.3-9.6-1.8-17.1-2.6-26.1C382.2,490.1,382.9,468.8,383.8,465.4z"/>
	<g>
		<g>
			<g>
				<path class="st14" d="M458.8,510.3c-0.4,0-0.7,0-0.7,0l-2.3-0.2l0.6-2.3l13.5-54.2l6.4-0.5c0.1,0,0.3,0,0.5,0
					c1.6,0,5.5,0.6,8.2,6.2c2.7,5.6,20.7,44.1,20.9,44.5l0.8,1.6l-1.5,0.9c-0.2,0.1-1.3,0.7-3.1,0.8c-0.2,0-0.5,0-0.8,0
					c-2.4,0-6.8-0.9-9.5-6.6c-0.3-0.6-0.6-1.3-1-2c-0.6-1.1-1.2-2.5-1.9-4.1l-18.3,1.3c-0.3,1-0.5,2-0.7,2.8c-0.4,1.6-0.7,2.9-1,3.7
					c-1.1,4.7-4.5,7.5-9.2,7.9C459.3,510.3,459,510.3,458.8,510.3z M477.1,469.9c-1.2,4.6-2.7,10.7-4.1,16.3l11.8-0.9
					c-1.7-3.9-3.6-7.9-5.3-11.5c-0.8-1.7-1.5-3.3-2.2-4.8C477.2,469.3,477.1,469.6,477.1,469.9z"/>
				<path class="st7" d="M476.7,455.1c1.1,0,4.1,0.4,6.4,5.1c2.8,5.7,20.9,44.5,20.9,44.5s-0.7,0.5-2.2,0.6c-0.2,0-0.4,0-0.6,0
					c-2.3,0-5.6-1-7.7-5.5c-0.8-1.7-2-4-3.5-7.4l-21.1,1.5c-0.9,3.6-1.6,6.5-2,7.9c-1.3,5.3-5.3,6.3-7.4,6.4c-0.3,0-0.5,0-0.7,0
					c-0.3,0-0.5,0-0.5,0l13.1-52.8l5-0.4C476.4,455.1,476.6,455.1,476.7,455.1 M470.3,488.4l17.5-1.3c-4.2-9.4-9.4-20.4-11-24.2
					C475.5,467.8,472.7,479,470.3,488.4 M476.7,451.1c-0.3,0-0.5,0-0.7,0l-5,0.4l-2.9,0.2l-0.7,2.8l-13.1,52.8l-1.1,4.5l4.7,0.4
					c0,0,0.3,0,0.8,0c0.3,0,0.7,0,1,0c5.6-0.4,9.6-3.8,11-9.4c0.2-0.9,0.6-2.1,1-3.7c0.1-0.5,0.2-0.9,0.4-1.4l15.4-1.1
					c0.5,1.1,1,2.1,1.4,2.9c0.4,0.7,0.7,1.4,0.9,1.9c2.3,5,6.4,7.8,11.3,7.8c0.3,0,0.6,0,0.9,0c2.2-0.2,3.5-0.8,4-1.1l3.1-1.9
					l-1.5-3.3c-0.7-1.6-18.2-38.9-20.9-44.5C483.5,451.8,478.7,451.1,476.7,451.1L476.7,451.1z M475.6,484c0.8-3,1.6-6.1,2.3-9
					c1.2,2.7,2.6,5.6,3.9,8.5L475.6,484L475.6,484z"/>
			</g>
			<g>
				<path class="st14" d="M394.7,459.2l0.9-0.1l0,0l2.3-0.2c0.9-0.1,1.7-0.1,2.4-0.1c6,0,8.4,2.5,10.9,7.4
					c3.1,6.1,6.6,14.6,9.3,21.5c1.1,2.7,2.1,5.2,3,7.3l12.5-34.4l0-0.1c2.3-4.8,7.5-5.2,10.5-5.4l3.2-0.3l5.6,55.6l-2.7,0.2
					c-1,0.1-1.9,0.2-2.8,0.2l0,0c-4.4,0-6.7-2.2-7.5-7.2l0-0.1l-1.9-18.8c-3.8,10.2-9.7,25.6-10,26.5l-0.5,1.2l-5.4,0.4
					c-0.2,0-0.4,0-0.6,0c-3.8,0-6.2-3.2-7.1-5.1l-8.4-17.1c-0.5-0.9-0.9-1.9-1.4-2.7l0.1,18.9l0,0.1c-0.5,7.8-5.3,7.9-9.5,8
					l-2.7,0.1L394.7,459.2z"/>
				<path class="st7" d="M447.9,456.9l5.2,51.6l-0.7,0.1c-1,0.1-1.8,0.1-2.6,0.1c-2.9,0-4.8-0.9-5.5-5.5l-2.8-27.6
					c-1.3,4.1-13,34.8-13,34.8l-4.1,0.3c-0.1,0-0.3,0-0.4,0c-3.5,0-5.2-3.8-5.2-4l-8.4-17.2c-1.4-2.9-2.7-5.5-3.7-7.4
					c-0.7-1.5-1.3-2.7-1.5-3.3l0.1,14.2l0.1,13.5c-0.3,6-3.2,6.1-7.6,6.1l-0.3,0l-0.4,0l-0.3-45.1l0-6.7l0.5,0l0,0l0.2,0l0.7-0.1
					c0.8-0.1,1.6-0.1,2.2-0.1c5,0,6.8,1.8,9.1,6.3c5.4,10.5,11.6,27.9,14.3,33.2l14.1-38.9c1.8-3.7,5.9-4.1,8.9-4.3L447.9,456.9
					 M451.5,452.6l-3.9,0.3l-1.3,0.1c-3.3,0.3-9.4,0.7-12.2,6.5l-0.1,0.2L434,460l-10.7,29.5c-0.3-0.8-0.7-1.6-1-2.5
					c-2.8-6.9-6.2-15.5-9.4-21.7c-2.7-5.4-5.6-8.5-12.6-8.5c-0.8,0-1.6,0-2.6,0.1L397,457l-0.2,0l-3.5,0.3l0,0l-0.7,0.1l0,3.7l0,6.7
					l0.3,45.1l0,4l4-0.1l0.4,0l0.3,0c2.6,0,5-0.1,7.2-1.4c3.9-2.3,4.1-7,4.2-8.5l0-0.1l0-0.1l-0.1-10.1l5.9,12
					c1.3,2.9,4.3,6.3,8.9,6.3c0.2,0,0.5,0,0.7,0l4.1-0.3l2.5-0.2l0.9-2.4c0.3-0.7,3.7-9.7,7-18.5l1,10.2l0,0.1l0,0.1
					c1,6,4.1,8.9,9.5,8.9c1,0,1.9-0.1,3-0.2l0.7-0.1l4.1-0.3l-0.4-4.1l-5.2-51.6L451.5,452.6L451.5,452.6z"/>
			</g>
			<g>
				<path class="st14" d="M564.1,503.4c-5.8,0-9.3-3.4-9.8-9.3l-3.6-45.8l2-0.1c0.4,0,0.7,0,1.1,0c5.8,0,9.2,3.2,9.6,9.1l3.6,45.9
					l-2,0.1C564.8,503.4,564.4,503.4,564.1,503.4L564.1,503.4z"/>
				<path class="st7" d="M553.9,450.2c3.3,0,7.2,1.2,7.6,7.3l3.4,43.9c-0.3,0-0.6,0-0.8,0c-3.2,0-7.3-1.3-7.8-7.4l-0.5-6.5v0
					l-0.6-7.6l-0.1-1l-0.5-5.8l-0.9-11.4l-0.9-11.6C553.2,450.2,553.5,450.2,553.9,450.2 M553.9,446.2c-0.4,0-0.8,0-1.3,0l-4,0.3
					l0.3,4l0.9,11.6l0.9,11.4l0.5,5.8l0.1,1l0.6,7.6l0.5,6.5c0.5,7,5,11.1,11.8,11.1c0.4,0,0.7,0,1.1,0l4-0.3l-0.3-4l-3.4-43.9
					C564.9,450.2,560.7,446.2,553.9,446.2L553.9,446.2z"/>
			</g>
			<g>
				<path class="st14" d="M506.8,506.9l-4.1-45.6c-0.5-5.1,1.7-8.7,6-10.1c0.9-0.3,2-0.5,3.1-0.6l15.7-1.1c0.6,0,1.3-0.1,1.9-0.1
					c1.7,0,3.4,0.2,5.3,0.5c1.3,0.3,2.6,0.7,3.8,1.2c0.9,0.4,1.6,0.9,2.3,1.3c1.8,1.3,3.2,3,4.3,5.2c1,2.1,1.7,4.7,2,7.7
					c0.4,4.8-0.4,8.6-2.4,11.4c-1.2,1.6-2.7,3-4.5,4.1c4.9,10.4,9.4,20.1,9.4,20.1l0.8,1.6l-1.5,0.9c-0.2,0.1-1.3,0.7-3.1,0.8
					c-0.2,0-0.5,0-0.8,0l0,0c-2.4,0-6.8-0.9-9.5-6.6c-0.3-0.6-0.6-1.3-1-2c-0.3-0.7-0.7-1.4-1.1-2.3l-4.2-9.4l-7.4,0.6l-5.3,0.4
					l0.9,11.9l0,0.1c-0.1,4.1-2.7,9-6.3,9.5l-0.1,0l-1.2,0.1c-0.1,0-0.5,0.1-0.5,0.1s-0.5,0-0.5,0L506.8,506.9z M515.6,473.3l1-0.1
					l14.8-1.4c0.2-0.1,0.9-0.3,1.6-0.8c1.3-0.9,1.8-2.2,1.6-4c-0.4-4.2-2.4-5-5.8-5l-0.5,0c-1.5,0-4,0.2-7.4,0.4l-0.3,0
					c-2.1,0.2-4.3,0.3-5.8,0.5L515.6,473.3z"/>
				<path class="st7" d="M529.5,451.4c1.8,0,3.4,0.2,4.9,0.5c1.2,0.2,2.3,0.6,3.3,1.1c0.7,0.3,1.4,0.7,2,1.1
					c1.5,1.1,2.7,2.6,3.7,4.4c0.9,1.9,1.5,4.2,1.8,7c0.4,4.3-0.3,7.7-2.1,10.1c-1.1,1.6-2.6,2.9-4.4,3.9c-0.3,0.2-0.7,0.3-1,0.5
					c0,0-0.1,0-0.1,0c5.2,11.1,10.3,21.9,10.3,21.9s-0.7,0.5-2.2,0.6c-0.2,0-0.4,0-0.6,0c-2.3,0-5.6-1-7.7-5.5
					c-0.5-1.1-1.2-2.5-2.1-4.3l-3.7-8.3l0,0c0-0.1-0.1-0.2-0.1-0.3l-0.3-0.6l0,0c-0.2-0.5-0.4-1-0.7-1.5l-8.8,0.8l-7.3,0.6l0.2,2.3
					l0.4,5.4l0.3,3.9l0.2,2.2c-0.1,3.3-2.2,7.3-4.6,7.6l-1.3,0.1c-0.2,0-0.3,0-0.5,0.1c-0.2,0-0.3,0-0.4,0c0,0,0,0,0,0l-0.2-1.7
					l-1.6-17.6l-2.2-24.5c-0.5-5,1.9-7.1,4.6-8c0.9-0.3,1.8-0.4,2.7-0.5l15.7-1.1C528.3,451.4,528.9,451.4,529.5,451.4 M513.7,475.5
					l3-0.3l10.2-0.9l4.8-0.4c0,0,1.2-0.3,2.4-1.2c1.4-1,2.8-2.8,2.5-5.8c-0.6-5.7-3.9-6.8-7.8-6.8c0,0-0.1,0-0.1,0
					c-0.1,0-0.3,0-0.4,0c-1.8,0-4.7,0.2-7.5,0.5c-0.1,0-0.2,0-0.3,0c-3.7,0.3-7.8,0.7-7.8,0.7L513.7,475.5 M529.5,447.4
					c-0.7,0-1.4,0-2.1,0.1l-15.6,1.1l0,0l0,0c-1.3,0.1-2.5,0.3-3.5,0.7c-5.3,1.7-8,6.1-7.4,12.1l2.2,24.5l1.6,17.6l0.2,1.7l0.3,3.6
					l3.6,0c0,0,0,0,0,0c0.1,0,0.3,0,0.5,0l0.2,0l0.2,0l0.1,0c0.1,0,0.2,0,0.3,0l1.1-0.1l0.1,0l0.1,0c4.7-0.7,7.9-6.5,8-11.5l0-0.2
					l0-0.2l-0.2-2.2l-0.3-3.9l-0.3-3.7l3.3-0.3l6-0.5l0,0.1l3.5,8l0,0l0,0c0.4,0.9,0.8,1.6,1.1,2.3c0.4,0.8,0.7,1.4,0.9,2
					c2.3,5,6.4,7.8,11.3,7.8c0.3,0,0.6,0,0.9,0c2.2-0.2,3.5-0.8,4-1.1l3.1-1.9l-1.5-3.3c0,0-4.1-8.8-8.7-18.6c1.4-1,2.6-2.3,3.6-3.7
					c2.3-3.2,3.3-7.5,2.8-12.8c-0.3-3.3-1-6.1-2.2-8.4c-1.2-2.4-2.9-4.4-4.9-5.9c-0.8-0.6-1.6-1.1-2.6-1.5c-1.3-0.6-2.8-1.1-4.2-1.4
					C533.1,447.6,531.3,447.4,529.5,447.4L529.5,447.4z M516.9,464.9c1.2-0.1,2.5-0.2,3.8-0.3l0.1,0l0.2,0c3.3-0.3,5.8-0.4,7.3-0.4
					c0.1,0,0.3,0,0.4,0l0.1,0c0,0,0,0,0,0c3,0,3.6,0.5,3.8,3.2c0.1,1.2-0.2,1.8-0.8,2.2c-0.3,0.2-0.6,0.4-0.8,0.4l-4.3,0.4l-9.2,0.8
					L516.9,464.9L516.9,464.9z"/>
			</g>
			<g>
				<path class="st14" d="M640.7,497.7c-2.1,0-4.3-0.4-6.5-1.1c-2.7-0.9-5.3-2.4-7.6-4.6c-2.3-2.2-4.3-5-5.9-8.4
					c-1.6-3.4-2.6-7.5-3-12.2c-0.4-4.7-0.1-8.9,1-12.5c1-3.6,2.5-6.7,4.4-9.2c1.9-2.5,4.2-4.5,6.7-5.8c2.5-1.4,5.1-2.2,7.6-2.4
					c0.4,0,0.9,0,1.3,0c2.2,0,4.4,0.4,6.6,1.2c2.7,1,5.2,2.6,7.5,4.7c2.3,2.2,4.3,5,5.9,8.4c1.6,3.4,2.6,7.5,3,12.2
					c0.4,4.7,0.1,8.9-1,12.5c-1,3.6-2.5,6.7-4.4,9.2c-1.9,2.5-4.2,4.4-6.8,5.7c-2.5,1.3-5.1,2-7.6,2.2
					C641.6,497.6,641.2,497.7,640.7,497.7z M638.7,453.7c-0.1,0-0.3,0-0.4,0c-1.1,0.1-2.2,0.5-3.3,1.2c-1.2,0.8-2.2,1.9-3.1,3.3
					c-0.9,1.4-1.6,3.3-2.1,5.4c-0.5,2.1-0.6,4.6-0.4,7.3c0.2,2.7,0.8,5.1,1.6,7.1c0.8,2,1.8,3.7,3,5c1.1,1.3,2.3,2.2,3.6,2.8
					c1.1,0.5,2.1,0.7,3,0.7c0,0,0,0,0,0c0.1,0,0.3,0,0.4,0c1.1-0.1,2.2-0.5,3.3-1.2c1.2-0.8,2.2-1.9,3.1-3.3
					c0.9-1.4,1.6-3.3,2.1-5.4c0.5-2.1,0.6-4.6,0.4-7.3c-0.2-2.7-0.8-5.1-1.6-7.1c-0.8-2-1.8-3.7-3-5c-1.1-1.3-2.3-2.2-3.6-2.8
					C640.6,454,639.6,453.7,638.7,453.7z"/>
				<path class="st7" d="M638.7,443.5c1.9,0,3.9,0.4,6,1.1c2.4,0.9,4.7,2.3,6.9,4.3c2.1,2,3.9,4.6,5.5,7.8c1.5,3.2,2.5,7,2.8,11.5
					s0.1,8.4-0.9,11.8s-2.3,6.2-4.1,8.5c-1.8,2.3-3.8,4-6.1,5.2c-2.3,1.2-4.6,1.8-6.8,2c-0.4,0-0.8,0-1.2,0c-1.9,0-3.8-0.3-5.8-1
					c-2.4-0.8-4.7-2.2-6.8-4.2c-2.1-2-3.9-4.6-5.5-7.8s-2.5-7-2.8-11.5c-0.4-4.5-0.1-8.4,0.9-11.8s2.3-6.2,4.1-8.5
					c1.8-2.3,3.8-4.1,6.1-5.3s4.5-2,6.8-2.1C638,443.5,638.4,443.5,638.7,443.5 M640.5,488.6c0.2,0,0.4,0,0.6,0
					c1.5-0.1,2.9-0.6,4.3-1.6c1.4-0.9,2.6-2.2,3.6-3.9c1-1.7,1.8-3.6,2.4-6c0.5-2.3,0.7-5,0.4-7.9c-0.2-2.9-0.8-5.5-1.7-7.7
					c-0.9-2.2-2-4.1-3.3-5.6c-1.3-1.5-2.7-2.6-4.2-3.3c-1.3-0.6-2.6-0.9-3.9-0.9c-0.2,0-0.4,0-0.6,0c-1.5,0.1-2.9,0.6-4.3,1.6
					c-1.4,0.9-2.6,2.2-3.6,3.9c-1,1.6-1.8,3.6-2.4,6c-0.5,2.3-0.7,5-0.4,7.9c0.2,2.9,0.8,5.5,1.7,7.7c0.9,2.2,2,4.1,3.3,5.6
					c1.3,1.5,2.7,2.6,4.2,3.3C638,488.3,639.3,488.6,640.5,488.6 M638.7,439.5c-0.5,0-1,0-1.4,0.1c-2.8,0.2-5.7,1.1-8.4,2.6
					c-2.7,1.5-5.2,3.7-7.3,6.4c-2.1,2.7-3.7,6-4.8,9.8c-1.1,3.8-1.4,8.3-1,13.2c0.4,4.9,1.5,9.3,3.2,12.9c1.7,3.6,3.9,6.6,6.3,9
					c2.5,2.4,5.4,4.1,8.4,5.1c2.4,0.8,4.8,1.2,7.1,1.2c0.5,0,1,0,1.6-0.1c2.8-0.2,5.6-1,8.3-2.4c2.8-1.4,5.3-3.5,7.4-6.3
					c2.1-2.7,3.7-6,4.8-9.8c1.1-3.8,1.4-8.3,1-13.2c-0.4-4.9-1.5-9.3-3.2-12.9c-1.7-3.6-3.9-6.6-6.3-9c-2.5-2.4-5.3-4.1-8.2-5.2
					C643.6,439.9,641.1,439.5,638.7,439.5L638.7,439.5z M640.5,484.6c-0.7,0-1.4-0.2-2.2-0.6c-1-0.5-2-1.3-3-2.3
					c-1-1.1-1.9-2.6-2.6-4.4c-0.8-1.8-1.2-4-1.5-6.5c-0.2-2.5-0.1-4.7,0.4-6.7c0.4-1.9,1.1-3.5,1.9-4.7c0.7-1.2,1.6-2.1,2.5-2.7
					c0.8-0.6,1.6-0.8,2.3-0.9c0.1,0,0.2,0,0.3,0c0.7,0,1.4,0.2,2.2,0.6c1,0.5,2,1.3,3,2.3c1,1.1,1.9,2.6,2.6,4.4
					c0.8,1.8,1.2,4,1.5,6.5c0.2,2.5,0.1,4.7-0.4,6.7c-0.4,1.9-1.1,3.5-1.9,4.8c-0.7,1.2-1.6,2.1-2.5,2.7c-0.8,0.6-1.6,0.9-2.3,0.9
					C640.7,484.6,640.6,484.6,640.5,484.6L640.5,484.6z"/>
			</g>
			<g>
				<path class="st14" d="M683.8,494.3c-1.7,0-3.2-0.1-4.6-0.3c-2.1-0.3-3.9-0.8-5.3-1.4c-0.6-0.2-1.1-0.5-1.6-0.7
					c-3.5-1.6-9-5.6-6.2-13.7l0.1-0.2l0.6-2.1l2,0.8l2.9,1.1l4.7,2.1l0.1,0c0.7,0.4,1.4,0.7,2.1,0.9c1.2,0.5,2.6,0.8,3.9,1.1
					c1,0.2,2,0.3,2.8,0.3c0.2,0,0.4,0,0.6,0c0.8,0,1.8-0.2,3-0.4c1.1-0.2,2.3-0.6,3.4-1.1c1-0.5,1.9-1.1,2.6-1.9
					c0.3-0.4,0.7-1,0.7-2.2c-0.1-1.3-0.5-1.6-0.7-1.7c-0.7-0.5-1.6-0.8-2.7-1c-1.2-0.2-2.7-0.3-4.3-0.3l-1.1,0c-1.6,0-3.2,0-4.9-0.1
					c-2-0.1-4-0.3-5.9-0.7c-2.1-0.4-4-1.2-5.7-2.3c-1.8-1.2-3.2-2.8-4.4-4.9c-1.1-2.1-1.8-4.7-2-8c-0.1-2.2,0.1-4.5,0.8-6.7
					c0.7-2.3,1.8-4.3,3.4-6.1c1.6-1.8,3.6-3.3,6-4.5c2.5-1.2,5.4-1.9,8.7-2.1c0.8,0,1.6-0.1,2.3-0.1c1.9,0,3.6,0.2,5.1,0.5
					c2,0.4,3.9,0.9,5.4,1.4c0.6,0.2,1.2,0.4,1.7,0.6l7.4,3.1l-0.3,1.6c-0.4,1.9-4.1,6.5-10.8,6.5c-0.8,0-1.6-0.1-2.4-0.2l-0.1,0
					l-0.1,0c-1-0.3-2.7-0.7-3.2-0.8c-1-0.2-2-0.3-2.9-0.3c-0.3,0-0.6,0-0.9,0c-1,0.1-2,0.2-3,0.5c-1,0.3-1.9,0.6-2.6,1
					c-0.7,0.4-1.2,0.8-1.6,1.4c-0.2,0.3-0.4,0.7-0.4,1.5c0.1,1.4,0.6,1.8,0.8,2c0.7,0.5,1.6,0.9,2.7,1.2c1.3,0.3,2.8,0.4,4.5,0.4
					c1.9,0,3.8,0.1,5.6,0.2c2,0.1,4,0.3,5.9,0.7c2.1,0.4,4,1.2,5.7,2.3c1.7,1.2,3.2,2.8,4.3,4.8c1.1,2,1.8,4.7,2,7.9
					c0.2,3.7-0.3,6.9-1.7,9.5c-1.4,2.5-3.2,4.5-5.4,6c-2.2,1.5-4.5,2.6-7.1,3.2c-2.4,0.6-4.8,1-6.9,1.1
					C685.7,494.2,684.7,494.3,683.8,494.3z"/>
				<path class="st7" d="M685.1,440.1c1.7,0,3.3,0.1,4.7,0.4c2,0.4,3.7,0.8,5.1,1.3c0.6,0.2,1.1,0.4,1.6,0.6l5.8,2.4
					c-0.2,0.9-3.1,4.9-8.8,4.9c-0.7,0-1.4-0.1-2.1-0.2c-0.7-0.2-2.7-0.7-3.4-0.9c-1.1-0.2-2.2-0.3-3.3-0.3c-0.4,0-0.7,0-1.1,0
					c-1.1,0.1-2.2,0.2-3.4,0.5c-1.2,0.3-2.2,0.7-3.1,1.2c-0.9,0.5-1.7,1.2-2.2,1.9c-0.6,0.8-0.8,1.7-0.7,2.8
					c0.1,1.6,0.6,2.7,1.5,3.4c0.9,0.7,2.1,1.2,3.5,1.5c1.4,0.3,3.1,0.5,4.9,0.5c1.8,0,3.7,0.1,5.6,0.1c1.9,0.1,3.8,0.3,5.6,0.7
					c1.8,0.4,3.5,1.1,5,2c1.5,1,2.7,2.4,3.7,4.1c1,1.8,1.6,4.1,1.8,7c0.2,3.4-0.3,6.2-1.5,8.4c-1.2,2.2-2.8,4-4.8,5.4
					c-2,1.4-4.1,2.3-6.4,2.9c-2.3,0.6-4.5,0.9-6.5,1c-1,0.1-2,0.1-2.9,0.1c-1.6,0-3-0.1-4.3-0.3c-1.9-0.3-3.6-0.7-4.9-1.3
					c-0.6-0.2-1.1-0.5-1.5-0.7c-8.5-3.9-5.3-10.7-5-11.6l2.9,1.1l0.4,0.2l4.1,1.8c0.7,0.4,1.5,0.7,2.3,1c1.4,0.5,2.8,0.9,4.2,1.2
					c1.2,0.2,2.2,0.3,3.2,0.3c0.3,0,0.5,0,0.7,0c0.8-0.1,1.9-0.2,3.3-0.4c1.3-0.2,2.6-0.7,3.9-1.3c1.3-0.6,2.3-1.4,3.2-2.3
					c0.9-1,1.3-2.2,1.2-3.7c-0.1-1.5-0.6-2.6-1.5-3.2c-0.9-0.7-2.1-1.1-3.5-1.3c-1.4-0.2-2.9-0.3-4.6-0.3c-0.1,0-0.2,0-0.3,0
					c-0.3,0-0.5,0-0.8,0c-1.6,0-3.2,0-4.8-0.1c-1.9-0.1-3.8-0.3-5.6-0.6c-1.8-0.3-3.5-1-5-2c-1.5-1-2.7-2.4-3.7-4.2
					c-1-1.8-1.6-4.2-1.8-7.2c-0.1-2,0.1-4,0.7-6c0.6-2,1.6-3.8,3-5.4c1.4-1.6,3.2-2.9,5.4-4c2.2-1.1,4.9-1.7,7.9-1.9
					C683.7,440.2,684.4,440.1,685.1,440.1 M685.1,436.1c-0.8,0-1.6,0-2.4,0.1c-3.6,0.2-6.8,1-9.4,2.3c-2.7,1.3-4.9,3-6.7,4.9
					c-1.8,2-3.1,4.3-3.8,6.9c-0.7,2.4-1,4.9-0.8,7.4c0.2,3.6,1,6.5,2.3,8.8c1.3,2.4,3,4.2,5,5.6c1.9,1.3,4.1,2.1,6.5,2.6
					c2,0.4,4.1,0.6,6.2,0.7c1.7,0.1,3.4,0.1,5,0.1c0.3,0,0.5,0,0.8,0l0.2,0c1.5,0,2.8,0.1,3.9,0.3c0.7,0.1,1.3,0.3,1.7,0.5
					c0,0.1,0,0.2,0,0.4c0,0.5-0.1,0.7-0.1,0.7c-0.5,0.6-1.2,1.1-2,1.4c-0.9,0.4-1.9,0.8-2.9,0.9c-1.4,0.3-2.3,0.4-2.8,0.4
					c-0.2,0-0.3,0-0.5,0c-0.7,0-1.5-0.1-2.5-0.3c-1.2-0.2-2.4-0.5-3.6-1c-0.7-0.2-1.3-0.5-1.9-0.8l-0.1-0.1l-0.1-0.1l-4.1-1.8
					l-0.4-0.2l-0.1,0l-0.1,0l-2.9-1.1l-4.2-1.6l-1.1,4.3l0,0.1c-2.4,7,0.2,12.9,7.3,16.2c0.6,0.3,1.1,0.5,1.7,0.7
					c1.6,0.7,3.5,1.2,5.8,1.5c1.4,0.2,3.1,0.3,4.9,0.3c1,0,2,0,3.1-0.1c2.3-0.1,4.7-0.5,7.2-1.1c2.8-0.7,5.4-1.8,7.8-3.5
					c2.5-1.7,4.5-4,6-6.7c1.6-2.9,2.3-6.5,2-10.6c-0.2-3.5-1-6.4-2.3-8.7c-1.3-2.3-3-4.2-5-5.5c-1.9-1.3-4.1-2.1-6.4-2.6
					c-2-0.4-4.1-0.7-6.2-0.8c-1.9-0.1-3.8-0.1-5.7-0.2c-1.6,0-2.9-0.1-4.1-0.4c-0.8-0.2-1.4-0.4-1.8-0.7c0-0.1-0.1-0.3-0.1-0.6
					c0-0.2,0-0.2,0-0.2c0.2-0.3,0.5-0.5,0.9-0.8c0.6-0.3,1.3-0.6,2.2-0.8c0.9-0.2,1.8-0.4,2.6-0.4c0.3,0,0.5,0,0.8,0
					c0.8,0,1.7,0.1,2.6,0.2c0.4,0.1,2,0.5,3,0.8l0.2,0.1l0.2,0c0.9,0.1,1.8,0.2,2.7,0.2c7.7,0,12.2-5.4,12.7-8.1l0.7-3.2l-3.1-1.3
					l-5.8-2.4l-0.1,0l-0.1,0c-0.6-0.2-1.1-0.4-1.8-0.6c-1.6-0.5-3.5-1-5.6-1.5C689,436.3,687.1,436.1,685.1,436.1L685.1,436.1z"/>
			</g>
		</g>
		<g>
			<path class="st14" d="M569.4,447.3l2.6-0.4l0.8-0.1c1.6-0.2,3-0.3,4.2-0.3c5.6,0,8.1,2.3,11,6.6c4,5.9,8.4,14.2,12,20.8
				c0.7,1.3,1.4,2.6,2.1,3.8l-1.7-24.6c-0.2-3.6,0.8-9.8,10.5-10.5l2-0.1l3.1,45.8c0,0.1,0,0.2,0,0.3l0.6,9.4l-1.4,0.5
				c-0.1,0.1-3.5,1.4-7.3,1.4h0c-4.1,0-7.4-1.5-9.3-4.5c-0.4-0.5-0.6-0.9-0.7-1l-10.6-16.5c-0.8-1.3-1.6-2.5-2.4-3.6l1.4,19.8v0.1
				c0,7.9-5.1,8.3-10,8.7l-2.8,0.2L569.4,447.3z"/>
			<path class="st7" d="M610.9,444.5l0.8,11.6l0.5,7.7l0.2,3.7l0.4,5.8l0.1,1l0.5,7.6v0l0.2,2.4l0.2,3.4l0,0.6c0,0.1,0,0.2,0,0.3
				l0.5,7.9c0,0-3.1,1.2-6.6,1.2c-2.8,0-5.8-0.8-7.7-3.7c-0.4-0.5-0.6-0.8-0.6-0.9l-10.6-16.5c-1.8-2.8-3.4-5.3-4.7-7.2
				c-0.9-1.5-1.6-2.6-2-3.2l1,14.1l1,13.5c0,6-3.3,6.3-8.2,6.7l-0.3,0l-0.5,0l-3.3-45l-0.5-6.6l0.5-0.1l0,0l0.2,0l0.8-0.1
				c1.5-0.2,2.8-0.3,3.9-0.3c4.6,0,6.7,1.7,9.3,5.7c6.8,10.1,14.8,26.9,18.3,32l-2.2-33.2C601.8,446.2,606.9,444.8,610.9,444.5
				 M614.6,440.2l-4,0.3c-11.8,0.8-12.5,9.1-12.3,12.7l1,15.4c-3.1-5.7-6.6-11.9-9.8-16.7c-3-4.6-6.2-7.5-12.6-7.5
				c-1.3,0-2.7,0.1-4.5,0.3l-0.8,0.1l-0.2,0l-3.6,0.5l0,0l-0.7,0.1l0.3,3.7l0.5,6.6l3.3,45l0.3,4l4-0.3l0.5,0l0.3,0
				c4.7-0.4,11.9-0.9,11.9-10.6l0-0.1l0-0.1l-0.9-11.9l8.7,13.5c0.1,0.2,0.4,0.6,0.8,1.2c2.3,3.5,6.1,5.3,10.9,5.3
				c4.1,0,7.7-1.4,8.1-1.5l2.7-1.1l-0.2-2.9l-0.5-7.8c0-0.1,0-0.3,0-0.4l0-0.6l-0.2-3.4l-0.2-2.4l-0.5-7.6l-0.1-1l-0.4-5.8l-0.2-3.7
				l-0.5-7.7l-0.8-11.6L614.6,440.2L614.6,440.2z"/>
		</g>
	</g>
</g>
<g>
	<path d="M467.9,550.9c-1.8,7.3-5.9,24.2-9.4,38.2l25.2-1.8C477.6,573.1,470.1,556.6,467.9,550.9z"/>
	<path d="M376.3,551.6c-4.7-10-10.6-16-25.8-14.9l-2.3,0.2c-6.6,0.8-19.2,1.8-24.6,1.2c-2.2-0.2-20.8-7.2-20.8-7.2l1.3,9.7
		c-0.7-0.4-27.1-12.1-27.1-12.1l9.2,18.9c0.5,1,12,24.2,40.5,23c6.7-0.3,10.2,0.3,11.9,0.8l-1.5,20.4l0,0.4l0,0.5
		c0.1,3.4-1.1,14.7-18.5,16.1c-13.6,1.1-22.3-0.1-22.4-0.1l-27.5-0.5l12.1,10.4c-46.6,15.2-60.5,52.2-61.1,54l-10.9,30.2l26.2-20.2
		c20.7-16,37.1-27.8,59.3-34.5c15.1-4.6,26.6-7.4,33.6-8.9l0.4,2.1c25.6-1.4,36.6-16.9,40.2-29.3l3.2,7c2.6,6.3,9,12.4,17.8,11.7
		l12.2-0.9l2.1-5.6c0.5-1.4,2.2-5.7,4.3-11.4c3,16.3,16.1,15.4,21.8,15l8.3-0.6l2.3,0.2c0.2,0,0.8,0.1,1.7,0.1c0.5,0,1.1,0,1.7-0.1
		c9.8-0.7,17.1-6.9,19.4-16.6c0.3-1.2,0.8-3.1,1.4-5.4l16.3-1.2c0.3,0.7,0.7,1.4,1,2.1c0.5,1.1,0.9,2,1.3,2.9
		c4.1,9.3,12.2,14.5,21.6,13.8c4.2-0.3,6.9-1.7,7.8-2.3l6.7-4.2l-3.1-7c-1.1-2.4-26.1-58.5-30-67c-4.5-9.8-11.4-12.4-15.9-13l-7,0.1
		l-10.8,0.8l-15,62l-5.2-61.2l-11.5,0.8c-0.1,0-0.3,0-0.4,0l-5.7,0.7c-5.2,1.1-11.4,3.7-14.9,10.9L387.1,578
		C383.7,569,379.9,559.2,376.3,551.6z M460.1,539.6l7.2-0.5c0.9-0.1,6-0.4,9.7,7.7c4,8.6,30,66.9,30,66.9s-1.1,0.7-3.2,0.8
		c-3.4,0.2-8.7-0.8-11.9-8.2c-1.1-2.6-2.9-6-4.9-11.1l-30.4,2.2c-1.3,5.4-2.4,9.7-3,11.9c-1.9,8-7.7,9.4-10.7,9.6
		c-1,0.1-1.8,0-1.8,0L460.1,539.6z M408.5,548c2.7-5.6,8.6-6,12.9-6.3l1.9-0.1l6.6,77.6l-1,0.1c-6.2,0.4-10.4,0.7-11.7-8.2
		l-3.5-41.5c-1.9,6.2-19.3,52.1-19.3,52.1l-6,0.4c-5.5,0.4-7.9-5.8-8-6l-17-37.2l-3.4,24.9c0,0-0.8,27.3-32.4,29
		c0,0,3.6-0.9,6.4-3.5c0,0-15.6,2.6-42.8,10.8c-23.5,7.1-40.8,19.5-62.4,36.2c0,0,16.2-44.9,75.9-53c0,0-5.3-1.1-10-4.8
		c0,0,9.6,1.5,24.7,0.2c28.5-2.3,27.4-25.5,27.4-25.5l1.6-22c0,0,3.3-10-22.1-8.9c-22.2,0.9-31.2-17.7-31.2-17.7
		c11.2,7.4,24.8,6.7,24.8,6.7c-8-3.9-7.8-7.3-7.8-7.3s1.9,3.2,10.6,4.2c8.6,1,27-1.3,27-1.3l1.9-0.1c9.7-0.7,12.6,1.8,16.2,9.5
		c7.6,15.9,16.2,42.2,20,50.1L408.5,548z"/>
	<path d="M519.4,602.3c1.1,13.3,10.1,18,18.1,18c0.5,0,1,0,1.5-0.1c2-0.1,3.3-0.4,4-0.6l7.6-2l-2.9-35.4c1.6-3.6,4.9-11.3,8.3-19.2
		l2.8,34.7c0.8,9.3,5.3,14,9,16.3c3.3,2.1,7.2,3.1,11.7,3.1c0.7,0,1.4,0,2.2-0.1l9.6-0.7l-2.8-34.4l15.3-1.1l1.1,13.5
		c0.7,9.2,5.3,14,9,16.3c3.8,2.4,8.6,3.5,13.9,3.1l4.2-0.3l0,0l41.5-3c4.6-0.3,10-1.1,14.3-4l0.2,3.5l10.7-0.7
		c5.7-0.4,18.9-1.2,19.3-17.8c3,5.3,5.3,9.4,6,10.7l2.9,5.2l12.2-0.8c8.8-0.6,14.2-7.4,15.8-14l2.1-7.3
		c5.4,11.8,18.7,25.7,44.2,23.6l0.1-2.1c7.2,0.6,19,1.8,34.6,4.3c23,3.7,41,13.1,63.9,26.1l29,16.4l-15.4-28.4
		c-0.9-1.7-20.3-36.4-68.7-45.1l6.2-12.4l-23,4.7c-0.1,0-8.6,2.4-22.2,3.2c-17.4,1-20.3-10-20.8-13.4l-4.7-21
		c1.6-0.6,5.3-1.7,11.7-2.3c28.3-2.6,36.2-27.2,36.5-28.2l4.5-20.7l-20.4,11.5c-0.6,0.5-1.2,1-1.9,1.5l0.3-8.4L794.1,505
		c-0.6,0.3-1.8,0.9-3.9,1.5c-5.3,1.3-17.9,2-24.6,2.1l-2.3,0.1c-15.1,1-20.1,7.7-23.2,18.2c-2.4,8-4.7,18.3-6.7,27.6l-17.2-31.9
		l-0.5-0.8c-4.5-6.6-11.1-8.4-16.4-8.8l-5.7,0c-0.2,0-0.3,0-0.4,0l-5.3,0.3l1.3-0.1l-64.7,4.1l0.5,5.9c-4-3.5-9.5-5.2-16.2-4.7
		l-9.6,0.7l2.8,34.5l-15.3,1.1l-1.1-13.6c-1-12.7-10-20.3-22.9-19.3l-9.6,0.7l0.1,1c-2.7-0.5-5.4-0.5-7.2-0.4l-6,0.4l-2.2,5.3
		c-1.7,4-3.2,8-4.8,11.8c-0.9,2.3-1.8,4.6-2.7,6.9c-2.7-4.6-5.5-9-7.4-11.9c-4.3-6.6-11.6-10.1-19.8-9.5c-3.9,0.3-7.3,1.7-8,2
		l-9.9,4.3l33,51.6L519.4,602.3z M693.8,523.3c4.3-0.3,10.2-0.7,13.7,4.5l29.7,54.8c2.6-8.3,7.1-35.5,12.2-52.2
		c2.4-8.1,4.9-11,14.6-11.6l1.9-0.1c0,0,18.5-0.3,26.9-2.4c8.4-2.1,9.8-5.6,9.8-5.6s0.7,3.4-6.7,8.3c0,0,13.5-1.2,23.5-10
		c0,0-6.1,19.6-28.2,21.7c-25.4,2.4-20.6,11.8-20.6,11.8l4.9,21.6c0,0,2.4,23.1,31,21.5c15.2-0.8,24.4-3.6,24.4-3.6
		c-4,4.3-9.2,6.1-9.2,6.1c60.3-0.1,83.2,42.1,83.2,42.1c-24-13.6-43-23.4-67.3-27.3c-28.1-4.5-44-4.9-44-4.9
		c3.2,2.2,6.9,2.6,6.9,2.6c-31.5,2.6-36.5-24.3-36.5-24.3l-7.2-24.1l-11.1,39.2c-0.1,0.3-1.6,6.7-7,7.1l-6,0.4
		c0,0-24.3-43.1-27.1-49l2.8,41.5c0.1,9-4.1,9.3-10.3,9.7l-1,0.1l-5.3-77.7L693.8,523.3z M678.9,523.8c0.1,1.8,0.7,9.1-11.5,10
		l-21,1.5l2,24.7l29.2-2.1c0.4,1.3,0.7,2.7,0.8,3.9c0.3,3.2-1.2,5.6-8.2,6.1l-21,1.5l2,25.2l33.3-2.4c0.4,5.5,0.6,9.2-11.6,10
		l-31.8,2.3l-6.3-77.6L678.9,523.8z M575.8,543.1l1.8,22.7l34.6-2.5l-2.8-34.4c5-0.4,11.7,0.7,12.5,10.8l5.3,65.9
		c-4.8,0.3-11.7-0.9-12.5-11l-1.8-22.6l-34.6,2.5l2.8,34.4c-4.9,0.4-11.7-0.8-12.5-10.9l-5.3-65.8C568.2,531.8,575,533,575.8,543.1z
		 M503.7,536.5c3.3-0.2,7.9,0.7,10.8,5.2c5.3,8,17.2,28.6,17.2,28.6l7.4-18.1c2.5-6.3,4.8-12.4,7.5-18.7c1.8-0.1,9-0.4,9.3,4.2
		c0.1,1,0,1.8-0.4,2.8c-3.1,8.4-17.4,41.2-17.4,41.2l2.4,30.1c0,0-0.6,0.2-2.1,0.3c-3,0.2-8.5-0.5-9.2-9.5l-1.6-20.2l-28.5-44.7
		C498.9,537.6,501.3,536.6,503.7,536.5z"/>
	<path class="st15" d="M442.7,618.9c3-0.2,8.9-1.6,10.7-9.6c0.6-2.2,1.6-6.6,3-11.9l30.4-2.2c2.1,5.1,3.9,8.6,4.9,11.1
		c3.3,7.4,8.5,8.5,11.9,8.2c2.1-0.2,3.2-0.8,3.2-0.8s-26-58.3-30-66.9c-3.7-8.1-8.9-7.7-9.7-7.7l-7.2,0.5L441,618.9
		C441,618.9,441.7,618.9,442.7,618.9z M467.9,550.9c2.2,5.7,9.8,22.2,15.7,36.4l-25.2,1.8C462,575.1,466.1,558.2,467.9,550.9z"/>
	<path class="st15" d="M529.1,602.5c0.7,9,6.2,9.7,9.2,9.5c1.5-0.1,2.1-0.3,2.1-0.3l-2.4-30.1c0,0,14.3-32.8,17.4-41.2
		c0.4-1,0.5-1.8,0.4-2.8c-0.4-4.6-7.6-4.4-9.3-4.2c-2.7,6.3-4.9,12.4-7.5,18.7l-7.4,18.1c0,0-11.9-20.6-17.2-28.6
		c-2.9-4.5-7.5-5.4-10.8-5.2c-2.4,0.2-4.7,1.2-4.7,1.2l28.5,44.7L529.1,602.5z"/>
	<path class="st15" d="M581.1,608.9l-2.8-34.4l34.6-2.5l1.8,22.6c0.8,10.1,7.8,11.4,12.5,11l-5.3-65.9c-0.8-10.1-7.5-11.2-12.5-10.8
		l2.8,34.4l-34.6,2.5l-1.8-22.7c-0.8-10.1-7.6-11.3-12.5-10.9l5.3,65.8C569.4,608.1,576.2,609.2,581.1,608.9z"/>
	<path class="st15" d="M673,602.3c12.2-0.9,12-4.6,11.6-10l-33.3,2.4l-2-25.2l21-1.5c7-0.5,8.5-2.9,8.2-6.1
		c-0.1-1.2-0.5-2.6-0.8-3.9l-29.2,2.1l-2-24.7l21-1.5c12.2-0.9,11.6-8.2,11.5-10l-44,3.2l6.3,77.6L673,602.3z"/>
	<path class="st15" d="M351.3,546.7l-1.9,0.1c0,0-18.3,2.2-27,1.3c-8.6-1-10.6-4.2-10.6-4.2s-0.2,3.4,7.8,7.3c0,0-13.6,0.6-24.8-6.7
		c0,0,9,18.6,31.2,17.7c25.5-1.1,22.1,8.9,22.1,8.9l-1.6,22c0,0,1.1,23.2-27.4,25.5c-15.1,1.2-24.7-0.2-24.7-0.2
		c4.7,3.7,10,4.8,10,4.8c-59.7,8.1-75.9,53-75.9,53c21.6-16.7,39-29,62.4-36.2c27.2-8.3,42.8-10.8,42.8-10.8
		c-2.8,2.6-6.4,3.5-6.4,3.5c31.6-1.7,32.4-29,32.4-29l3.4-24.9l17,37.2c0.1,0.3,2.6,6.4,8,6l6-0.4c0,0,17.5-45.9,19.3-52.1l3.5,41.5
		c1.3,8.9,5.4,8.6,11.7,8.2l1-0.1l-6.6-77.6l-1.9,0.1c-4.3,0.3-10.2,0.7-12.9,6.3l-21,58.3c-3.8-7.9-12.4-34.1-20-50.1
		C363.8,548.5,361,546.1,351.3,546.7z"/>
	<path class="st15" d="M698.2,601c6.2-0.4,10.4-0.7,10.3-9.7l-2.8-41.5c2.8,5.9,27.1,49,27.1,49l6-0.4c5.5-0.4,7-6.8,7-7.1
		l11.1-39.2l7.2,24.1c0,0,5,26.9,36.5,24.3c0,0-3.7-0.4-6.9-2.6c0,0,15.9,0.4,44,4.9c24.3,3.9,43.3,13.7,67.3,27.3
		c0,0-22.9-42.2-83.2-42.1c0,0,5.1-1.9,9.2-6.1c0,0-9.3,2.7-24.4,3.6c-28.5,1.6-31-21.5-31-21.5l-4.9-21.6c0,0-4.8-9.4,20.6-11.8
		c22.1-2.1,28.2-21.7,28.2-21.7c-10,8.8-23.5,10-23.5,10c7.3-4.9,6.7-8.3,6.7-8.3s-1.4,3.4-9.8,5.6c-8.4,2.1-26.9,2.4-26.9,2.4
		l-1.9,0.1c-9.7,0.6-12.2,3.4-14.6,11.6c-5.1,16.8-9.6,43.9-12.2,52.2l-29.7-54.8c-3.5-5.2-9.4-4.8-13.7-4.5l-1.9,0.1l5.3,77.7
		L698.2,601z"/>
</g>
<path class="st16" d="M683.8,584.2l-0.5-9.7l-4.7,0.4v0l-16.9,1.4c-0.6,0-1,0.6-1,1.2l0.5,7.3c0,0.6,0.5,1.1,1.1,1.1l15.9-1.3
	L683.8,584.2z"/>
<path class="st16" d="M681,550.3l-0.5-9.7l-4.7,0.4v0l-16.9,1.4c-0.6,0-1,0.6-1,1.2l0.5,7.3c0,0.6,0.5,1.1,1.1,1.1l15.9-1.3
	L681,550.3z"/>
<g>
	<path class="st17" d="M913.6,625.6c-0.9-1.7-20.3-36.4-68.7-45.1l6.2-12.4l-23,4.7c-0.1,0-8.6,2.4-22.2,3.2
		c-17.4,1-20.3-10-20.8-13.4l-4.7-21c1.6-0.6,5.3-1.7,11.7-2.3c28.3-2.6,36.2-27.2,36.5-28.2l4.5-20.7l-20.4,11.5
		c-0.6,0.5-1.2,1-1.9,1.5l0.3-8.4l-17.2,10.6c-0.6,0.3-1.8,0.9-3.9,1.5c-5.3,1.3-17.9,2-24.6,2.1l-2.3,0.1
		c-15.1,1-20.1,7.7-23.2,18.2c-2.4,8-4.7,18.3-6.7,27.6l-17.2-31.9l-0.5-0.8c-4.5-6.6-11.1-8.4-16.4-8.8l-5.7,0c-0.2,0-0.3,0-0.4,0
		l-5.3,0.3l-63.4,4.1l0.5,5.9c-4-3.5-9.5-5.2-16.2-4.7l-9.7,0.7l2.8,34.5l-15.3,1.1l-1.1-13.6c-1-12.7-10-20.3-22.9-19.3l-9.6,0.7
		l0.1,1c-2.7-0.5-5.4-0.5-7.2-0.4l-6,0.4l-2.2,5.3c-1.7,4-3.2,8-4.8,11.8c-0.9,2.3-1.8,4.6-2.7,6.9c-2.7-4.6-5.5-9-7.4-11.9
		c-4.3-6.6-11.6-10.1-19.8-9.5c-3.9,0.3-7.3,1.7-8,2l-9.9,4.3l33,51.6l1.5,18c1.1,13.3,10.1,18,18.1,18c0.5,0,1,0,1.5-0.1
		c2-0.1,3.3-0.4,4-0.6l7.6-2l-2.9-35.4c1.6-3.6,4.9-11.3,8.3-19.2l2.8,34.7c0.8,9.3,5.3,14,9,16.3c3.3,2.1,7.2,3.1,11.7,3.1
		c0.7,0,1.4,0,2.2-0.1l9.6-0.7l-2.8-34.4l15.3-1.1l1.1,13.5c0.7,9.2,5.3,14,9,16.3c3.8,2.4,8.6,3.5,13.9,3.1l4.2-0.3l0,0l41.5-3
		c4.6-0.3,10-1.1,14.3-4l0.2,3.5l10.7-0.7c5.7-0.4,18.9-1.2,19.3-17.8c3,5.3,5.3,9.4,6,10.7l2.9,5.2l12.2-0.8
		c8.8-0.6,14.2-7.4,15.8-14l2.1-7.3c5.4,11.8,18.7,25.7,44.2,23.6l0.1-2.1c7.2,0.6,19,1.8,34.6,4.3c23,3.7,41,13.1,63.9,26.1
		l29,16.4L913.6,625.6z"/>
	<path class="st17" d="M485.9,542.6c-4.5-9.8-11.4-12.4-15.9-13l-7,0.1l-10.8,0.8l-15,62l-5.2-61.2l-11.5,0.8c-0.1,0-0.3,0-0.4,0
		l-5.7,0.7c-5.2,1.1-11.4,3.7-14.9,10.9l-12.6,34.7c-3.4-9-7.2-18.8-10.8-26.4c-4.7-10-10.6-16-25.8-14.9l-2.3,0.2
		c-6.6,0.8-19.2,1.8-24.6,1.2c-2.2-0.2-20.8-7.2-20.8-7.2l1.3,9.7c-0.7-0.4-27.1-12.1-27.1-12.1l9.2,18.9c0.5,1,12,24.2,40.5,23
		c6.7-0.3,10.2,0.3,11.9,0.8L337,592l0,0.4l0,0.5c0.1,3.4-1.1,14.7-18.5,16.1c-13.6,1.1-22.3-0.1-22.4-0.1l-27.5-0.5l12.1,10.4
		c-46.6,15.2-60.5,52.2-61.1,54L208.5,703l26.2-20.2c20.7-16,37.1-27.8,59.3-34.5c15.1-4.6,26.6-7.4,33.6-8.9l0.4,2.1
		c25.6-1.4,36.6-16.9,40.2-29.3l3.2,7c2.6,6.3,9,12.4,17.8,11.7l12.2-0.9l2.1-5.6c0.5-1.4,2.2-5.7,4.3-11.4
		c3,16.3,16.1,15.4,21.8,15l8.3-0.6l2.3,0.2c0.2,0,0.8,0.1,1.7,0.1c0.5,0,1.1,0,1.7-0.1c9.8-0.7,17.1-6.9,19.4-16.6
		c0.3-1.2,0.8-3.1,1.4-5.4l16.3-1.2c0.3,0.7,0.7,1.4,1,2.1c0.5,1.1,0.9,2,1.3,2.9c4.1,9.3,12.2,14.5,21.6,13.8
		c4.2-0.3,6.9-1.7,7.8-2.3l6.7-4.2l-3.1-7C514.8,607.2,489.8,551.1,485.9,542.6z"/>
</g>
<linearGradient id="SVGID_2_" gradientUnits="userSpaceOnUse" x1="406.7674" y1="522.2435" x2="408.3641" y2="522.2435">
	<stop  offset="0.1337" style="stop-color:#A7A8A8"/>
	<stop  offset="0.4492" style="stop-color:#D6D6D6"/>
	<stop  offset="0.8342" style="stop-color:#A7A8A8"/>
</linearGradient>
<path class="st18" d="M408.3,522.1l-1.3,0.3C407.5,522.3,407.9,522.2,408.3,522.1C408.4,522.1,408.3,522.1,408.3,522.1z"/>
<linearGradient id="SVGID_3_" gradientUnits="userSpaceOnUse" x1="16.1658" y1="602.0964" x2="955.444" y2="602.0964">
	<stop  offset="0.1337" style="stop-color:#A7A8A8"/>
	<stop  offset="0.4492" style="stop-color:#D6D6D6"/>
	<stop  offset="0.8342" style="stop-color:#A7A8A8"/>
</linearGradient>
<path class="st19" d="M921.6,620.8c-0.8-1.5-18.9-34.1-62.6-47.4l10.2-20.4l-45.9,9.3l-0.9,0.2c-0.1,0-7.6,2.1-19.5,2.8
	c-8,0.4-8.4-2.5-8.6-3.9l-2.5-11.1c28.1-3.1,41.9-24,45.6-36l10.1-46l-26.5,14.9l0.4-9l-35.6,22c-0.2,0.1-0.5,0.2-1,0.3
	c-3.5,0.9-14.2,1.6-21.8,1.7l-2.9,0.2c-22.6,1.5-28.4,14.3-31.9,25.4l-2.6-5.3l-0.6-1.8c-5.4-8.4-7.6-15.1-18.6-15.9l-16,0.7
	c-14.4,0.6-68.6,3.8-73.9,4.2c-0.5,0-7.2-0.2-14.6,1.8c0,0-11.9-0.6-13.1,18.9c0,0-6.9-18.5-20.3-17.9l-2.4,0.2
	c-0.8,0.1-1.6,0.1-2.5,0.2l-7.9,0.7c-0.8,0.1-1.6,0.1-2.4,0.2l-9.3,0.8c-0.9,0.1-1.8,0.2-2.7,0.2l-6.6,0.5h0l-6.2,13.8
	c-3.9-9.4-14.2-12-14.3-12.1c-0.2,0-0.3,0-0.5,0l-0.2,0c-0.1,0-0.2,0-0.4,0l-1.4,0.1c-0.2,0-0.4,0-0.7,0.1l-1.3,0.1
	c-0.1,0-0.2,0-0.2,0l-6.6,0.5c-0.3,0-0.7,0.1-1,0.1l-0.9,0.1c-0.4,0-0.8,0.1-1.2,0.1l-6.5,0.5c-0.9,0.1-1.9,0.2-2.7,0.2l-2.9,0.2
	c-0.5,0-0.9,0.1-1.4,0.1c-6.1,0.5-7.1,6.8-7.1,6.8c-2-3.5-7.6-5.3-7.6-5.3c-0.1,0-2.7,0-2.8,0l-0.7,0.1c-0.2,0-0.5,0-0.8,0.1l-4,0.3
	c-0.2,0-0.4,0-0.6,0.1l-4.8,0.4c0,0,0,0-0.1,0l-5.1,0.4c0,0,0,0,0,0l-1.3,0.1c-6.8,0.6-11.7,12.6-11.7,12.6l-2.7-11.1l-3,0
	c-0.3,0-0.5,0-0.8,0.1l-3.2,0.3c-0.8,0.1-1.6,0.1-2.5,0.2l-4,0.3c-0.4,0-0.8,0.1-1.2,0.1l-6.7,0.6c-0.3,0-0.6,0-0.9,0.1l-1.9,0.2
	c-0.5,0-0.9,0.1-1.4,0.1c-0.4,0.1-0.8,0.1-1.3,0.2c0,0,0,0,0,0c0,0,0,0,0,0c0,0-0.1,0-0.1,0c0,0,0.1,0,0.1,0c-0.1,0-0.1,0-0.2,0
	l-0.2,0c-0.1,0-0.1,0-0.2,0l-0.3,0.1c-0.2,0-0.5,0.1-0.7,0.1c-0.6,0.1-1.1,0.2-1.6,0.4c-9.1,2.3-14.6,8.9-14.6,8.9l0.2-0.2
	c-2.4,2.4-4.4,5.1-5.9,8.3l-2.7,7.3c-5.2-10.6-14.2-22-36.8-20.3l-2.3,0.2l-0.5,0.1c-7.1,0.9-17.2,1.5-21.2,1.3
	c-2.7-0.8-11.4-3.9-18.5-6.6l-18.2-6.8l1.1,8.3c-2.4-1.1-5.1-2.3-8.1-3.6l-28.7-12.8l22.4,46.2c5.5,11.3,22.3,30.1,50.6,29.4
	l-0.7,9.3l-0.1,1l0.1,1.1c0,1.4-0.2,4.2-7.9,4.9c-10.9,0.9-18.4,0.1-19.5,0l-0.7-0.1l-59.3-1.1l21.6,18.6
	c-38.3,19.4-50.6,52.1-51.1,53.7l-24,66.5l57.6-44.4c19.7-15.2,35.2-26.4,55.5-32.6c8-2.4,14.9-4.3,20.6-5.8l0,0l10.4-0.6
	c16.7-0.9,30.7-7.3,40.1-17.8c5.3,4.7,12.6,7.8,21.3,7.2l19.7-1.4l1.7-4.4c4.6,2.2,10.5,3.4,18.2,2.9l8.6-0.6l0.9,0.1
	c0.6,0,2.7,0.2,5.3,0c14-1,24.9-9.5,29.1-22.3c6.4,12.1,18.4,19,31.9,17.9c6.7-0.5,11.2-2.8,13.4-4.1l3.6-2.2
	c4.7,2.7,10,3.9,15.3,3.9c0.8,0,1.6,0,2.4-0.1c2.4-0.2,4.5-0.5,6.3-1l16.8-4.5l-0.1-1.7c5.7,3.2,12.3,4.6,19.9,4l21.2-1.5l-0.8-10.3
	c1.4,1.3,2.9,2.5,4.5,3.5c6,3.8,13.4,5.5,21.2,5l45.7-3.3c0.9-0.1,1.8-0.1,2.8-0.2l0,0.5l22.3-1.4c8.1-0.5,14.1-2.6,18.5-5.4
	l2.3,4.1l19.8-1.3c8.7-0.6,15.4-4.6,19.9-10c10.9,9.2,25.6,13.6,42.3,12.2l10.3-0.8l0,0c5.9,0.7,13.1,1.6,21.4,2.9
	c21,3.3,38,12.4,59.9,24.7l63.8,36.1L921.6,620.8z M512.3,620.8c-1,0.6-3.6,2-7.8,2.3c-9.4,0.7-17.5-4.5-21.6-13.8
	c-0.4-0.9-0.8-1.8-1.3-2.9c-0.3-0.6-0.6-1.3-1-2.1l-16.3,1.2c-0.6,2.3-1,4.2-1.4,5.4c-2.3,9.7-9.6,15.9-19.4,16.6
	c-0.6,0-1.2,0.1-1.7,0.1c-0.8,0-1.4,0-1.7-0.1l-2.3-0.2l-8.3,0.6c-5.7,0.4-18.9,1.4-21.8-15c-2.2,5.7-3.8,10.1-4.3,11.4l-2.1,5.6
	l-12.2,0.9c-8.7,0.6-15.2-5.4-17.8-11.7l-3.2-7c-3.6,12.5-14.6,27.9-40.2,29.3l-0.4-2.1c-7,1.5-18.5,4.3-33.6,8.9
	c-22.2,6.7-38.6,18.6-59.3,34.5L208.5,703l10.9-30.2c0.6-1.8,14.5-38.8,61.1-54l-12.1-10.4l27.5,0.5c0.1,0,8.8,1.2,22.4,0.1
	c17.5-1.4,18.6-12.7,18.5-16.1l0-0.5l0-0.4l1.5-20.4c-1.7-0.5-5.3-1.1-11.9-0.8c-28.5,1.2-40-22-40.5-23l-9.2-18.9
	c0,0,26.4,11.8,27.1,12.1l-1.3-9.7c0,0,18.6,7,20.8,7.2c5.4,0.6,18-0.4,24.6-1.2l2.3-0.2c15.1-1.1,21.1,4.9,25.8,14.9
	c3.6,7.6,7.4,17.4,10.8,26.4l12.6-34.7c3.4-7.2,9.7-9.8,14.9-10.9l5.7-0.7c0.2,0,0.3,0,0.4,0l11.5-0.8l5.2,61.2l15-62l10.8-0.8
	l7-0.1c4.5,0.6,11.4,3.2,15.9,13c3.9,8.5,28.9,64.6,30,67l3.1,7L512.3,620.8z M836.1,611.4c-15.6-2.5-27.4-3.7-34.6-4.3l-0.1,2.1
	c-25.5,2.1-38.8-11.7-44.2-23.6l-2.1,7.3c-1.6,6.6-7,13.5-15.8,14l-12.2,0.8l-2.9-5.2c-0.7-1.3-3-5.4-6-10.7
	c-0.4,16.6-13.6,17.4-19.3,17.8l-10.7,0.7l-0.2-3.5c-4.2,2.9-9.7,3.7-14.3,4l-41.5,3l0,0l-4.2,0.3c-5.3,0.4-10.1-0.7-13.9-3.1
	c-3.7-2.4-8.3-7.1-9-16.3l-1.1-13.5l-15.3,1.1l2.8,34.4l-9.6,0.7c-0.7,0.1-1.5,0.1-2.2,0.1c-4.5,0-8.4-1-11.7-3.1
	c-3.7-2.3-8.3-7-9-16.3l-2.8-34.7c-3.4,7.9-6.7,15.6-8.3,19.2l2.9,35.4l-7.6,2c-0.7,0.2-2,0.4-4,0.6c-0.5,0-1,0.1-1.5,0.1
	c-8,0-17.1-4.6-18.1-18l-1.5-18l-33-51.6l9.9-4.3c0.7-0.3,4.1-1.7,8-2c8.1-0.6,15.5,3,19.8,9.5c1.9,2.9,4.7,7.3,7.4,11.9
	c0.9-2.3,1.8-4.6,2.7-6.9c1.5-3.8,3.1-7.8,4.8-11.8l2.2-5.3l6-0.4c1.8-0.1,4.4-0.1,7.2,0.4l-0.1-1l9.6-0.7
	c12.9-0.9,21.9,6.7,22.9,19.3l1.1,13.6l15.3-1.1l-2.8-34.5l9.7-0.7c6.7-0.5,12.3,1.2,16.2,4.7l-0.5-5.9l63.4-4.1l5.3-0.3
	c0.1,0,0.3,0,0.4,0l5.7,0c5.3,0.4,11.9,2.1,16.4,8.8l0.5,0.8l17.2,31.9c2-9.4,4.3-19.6,6.7-27.6c3.1-10.5,8.1-17.2,23.2-18.2
	l2.3-0.1c6.7-0.1,19.3-0.8,24.6-2.1c2.1-0.5,3.3-1.1,3.9-1.5l17.2-10.6l-0.3,8.4c0.6-0.5,1.3-0.9,1.9-1.5l20.4-11.5l-4.5,20.7
	c-0.3,1-8.3,25.6-36.5,28.2c-6.4,0.6-10.1,1.7-11.7,2.3l4.7,21c0.5,3.4,3.4,14.4,20.8,13.4c13.6-0.8,22.1-3.2,22.2-3.2l23-4.7
	l-6.2,12.4c48.4,8.7,67.8,43.4,68.7,45.1L929,654l-29-16.4C877.1,624.6,859.1,615.1,836.1,611.4z"/>
</svg>
