<?xml version="1.0" encoding="UTF-8" standalone="no"?>
<svg width="2865px" height="2245px" viewBox="0 0 2865 2245" version="1.1" xmlns="http://www.w3.org/2000/svg" xmlns:xlink="http://www.w3.org/1999/xlink">
    <!-- Generator: Sketch 49.1 (51147) - http://www.bohemiancoding.com/sketch -->
    <title>McEacherns_Mustangs</title>
    <desc>Created with Sketch.</desc>
    <defs>
        <polygon id="path-1" points="0.06 0.395 1077.88 0.395 1077.88 1368.13 0.06 1368.13"></polygon>
        <polygon id="path-3" points="0.747254821 0.51028343 2537.59 0.51028343 2537.59 1637.17948 0.747254821 1637.17948"></polygon>
    </defs>
    <g id="Page-1" stroke="none" stroke-width="1" fill="none" fill-rule="evenodd">
        <g id="McEacherns_Mustangs">
            <g id="Group-3" transform="translate(0.000000, 172.000000)">
                <mask id="mask-2" fill="white">
                    <use xlink:href="#path-1"></use>
                </mask>
                <g id="Clip-2"></g>
                <path d="M267.46,759.725 C-29.622,341.44 181.896,37.225 234.182,0.395 C234.182,0.395 -20.116,116.85 1.278,434.131 C22.663,751.404 481.352,1199.39 1077.88,1368.13 C1077.88,1368.13 564.536,1178.02 267.46,759.725" id="Fill-1" fill="#294932" mask="url(#mask-2)"></path>
            </g>
            <path d="M904.39,1423.69 C904.39,1423.69 497.992,1210.97 298.359,856.264 C98.719,501.554 286.474,230.625 517.011,102.283 C517.011,102.283 229.428,173.581 174.771,492.048 C120.106,810.522 502.744,1233.55 904.39,1423.69" id="Fill-4" fill="#2A8240"></path>
            <g id="Group-12" transform="translate(327.000000, 0.000000)">
                <mask id="mask-4" fill="white">
                    <use xlink:href="#path-3"></use>
                </mask>
                <g id="Clip-6"></g>
                <path d="M2220.83,762.984 C2046.62,494.648 1784.72,342.321 1784.72,342.321 C1784.72,342.321 2050.89,539.586 2207.77,784.378 C2408.54,1097.69 2302.82,1333.38 2302.82,1333.38 C2336.1,1264.44 2397.89,1035.7 2220.83,762.984" id="Fill-5" fill="#2A8240" mask="url(#mask-4)"></path>
                <path d="M2267.16,615.63 C1967.71,320.936 1575.57,197.346 1575.57,197.346 C1751.45,290.028 1943.96,411.245 2081.78,544.333 C2219.65,677.429 2405.03,900.833 2409.77,1171.77 C2414.53,1442.71 2148.34,1597.18 2148.34,1597.18 C2148.34,1597.18 2397.89,1525.88 2488.2,1347.64 C2578.51,1169.39 2566.63,910.339 2267.16,615.63" id="Fill-7" fill="#294932" mask="url(#mask-4)"></path>
                <path d="M1139.48,197.346 C1139.48,197.346 1209.56,186.667 1330.78,278.171 C1330.78,278.171 1235.72,259.123 1192.95,269.836 C1282.07,269.836 1390.2,314.989 1390.2,314.989 C1304.64,215.172 1187,191.406 1187,191.406 C1234.53,184.273 1308.2,190.221 1308.2,190.221 C1244.03,136.742 1126.39,136.742 1126.39,136.742 C1126.39,136.742 1221.46,141.516 1279.68,180.728 C1279.68,180.728 1194.13,165.246 1139.48,197.346" id="Fill-8" fill="#2A8240" mask="url(#mask-4)"></path>
                <path d="M185.841,812.896 C185.841,812.896 143.062,821.805 123.46,915.384 C123.46,915.384 52.156,727.332 150.792,569.285 C150.792,569.285 91.375,553.846 15.324,654.856 C15.324,654.856 3.437,395.806 266.055,299.556 C266.055,299.556 217.323,262.726 92.56,293.617 C92.56,293.617 179.312,110.61 513.225,129.63 C513.225,129.63 465.686,64.265 386.084,54.766 C386.084,54.766 583.336,-56.957 919.62,91.59 C577.39,-89.028 320.719,54.752 320.719,54.752 C387.264,71.385 454.993,102.283 454.993,102.283 C116.327,112.977 56.916,332.815 56.916,332.815 C115.141,293.602 209.962,300.729 209.962,300.729 C-38.63,440.95 3.437,695.254 3.437,695.254 C62.727,587.096 129.408,585.925 129.408,585.925 C35.523,739.218 122.273,940.044 122.273,940.044 C157.77,821.685 178.118,828.341 178.118,828.341 C160.461,932.237 191.845,1022.49 200.008,1043.55 C199.041,1036.89 197.748,1029.09 195.936,1019.65 C185.245,963.81 173.365,921.622 185.841,812.896" id="Fill-9" fill="#2A8240" mask="url(#mask-4)"></path>
                <path d="M2143,1463.49 C2261.98,1349.92 2253.51,1278.11 2253.51,1278.11 C2221.42,1336.94 2167.95,1320.89 2167.95,1320.89 C2317.68,1090.96 2096.65,897.26 2096.65,897.26 C2110.91,969.153 2087.74,994.702 2087.74,994.702 C1943.37,739.816 1679.55,846.766 1679.55,846.766 C1993.26,880.626 1973.66,1135.52 1973.66,1135.52 C1936.23,1062.44 1857.8,1062.44 1857.8,1062.44 C1880.97,1105.22 1971.87,1319.12 1829.28,1423.69 C1696.09,1521.36 1561.42,1436.62 1544.19,1424.99 C1544.22,1425.02 1698.24,1548.77 1854.84,1420.13 C1987.93,1310.8 1894.05,1092.15 1894.05,1092.15 C1894.05,1092.15 1943.96,1100.47 1993.87,1203.85 C1993.87,1203.85 2042.58,913.906 1784.72,848.548 C1784.72,848.548 1989.11,815.262 2096.05,1045.8 C2096.05,1045.8 2118.64,991.142 2116.26,943.611 C2116.26,943.611 2285.65,1120.76 2145.96,1327.44 C2145.96,1327.44 2166.18,1351.2 2226.78,1326.25 C2226.78,1326.25 2203.01,1406.35 2102,1478.6 C2000.99,1550.85 1870.29,1534.2 1870.29,1534.2 C1870.29,1534.2 1904.75,1572.22 1945.14,1576.99 C1945.14,1576.99 1706.28,1691.05 1519.13,1500.92 C1719.37,1713.63 1979.9,1570.44 1979.9,1570.44 C1926.42,1576.67 1897.91,1543.7 1897.91,1543.7 C1897.91,1543.7 2044.95,1557.07 2143,1463.49" id="Fill-10" fill="#2A8240" mask="url(#mask-4)"></path>
                <path d="M2056.59,1407.34 C1970.1,1498.25 1877.41,1498.25 1842.65,1492.01 C1842.65,1492.01 1955.26,1462.32 2038.09,1385.96 C2100.54,1328.38 2136.19,1228.22 2149.22,1184.54 C2149.22,1184.54 2143.08,1316.44 2056.59,1407.34 Z M2052.09,1041.05 C2077.05,1098.08 2092.2,1171.17 2078.83,1253.16 C2065.46,1335.15 1992.38,1377.94 1992.38,1377.94 C2127.84,1222.86 2052.09,1041.05 2052.09,1041.05 Z M1411.58,1517.56 C1411.58,1517.56 1473.37,1452.2 1471.01,1371.39 C1471.01,1371.39 1400.89,1498.55 1267.8,1500.92 C1267.8,1500.92 1315.35,1442.69 1298.71,1346.44 C1298.71,1346.44 1272.55,1437.95 1221.46,1475.97 C1170.37,1514 1165.62,1492.61 1145.41,1462.9 C1125.21,1433.19 1112.13,1382.09 1112.13,1382.09 C1112.13,1382.09 962.11,1433.19 904.18,1357.13 C904.18,1357.13 975.48,1222.86 975.48,1168.49 C975.48,1168.49 951.47,1197.84 913.48,1230.87 C869.95,1268.71 808.06,1311.39 742.86,1320.29 C742.86,1320.29 557.489,1256.73 558.383,1112.34 C558.383,1112.34 632.054,1069.67 670.441,1022.87 C677.11,1014.73 682.75,1006.46 686.71,998.269 C686.71,998.269 667.827,1010.33 644.729,1024.53 C613.077,1044.01 573.516,1067.51 563.719,1069.57 C546.795,1073.13 464.799,1029.47 450.539,1016.1 L508.464,1085.61 C508.464,1085.61 476.387,1079.37 486.184,1115.02 C495.995,1150.67 577.39,1257.92 577.39,1257.92 C577.39,1257.92 400.635,1107 414.005,1003.62 C414.005,1003.62 357.857,975.093 347.163,962.625 C347.163,962.625 345.374,1024.12 391.725,1078.48 C391.725,1078.48 294.573,1033.92 303.482,909.146 C303.482,909.146 346.268,945.686 404.194,953.708 C404.194,953.708 331.496,864.868 300.519,730.899 C273.742,615.105 279.141,463.38 377.756,332.815 C377.756,332.815 371.22,371.237 374.532,414.727 C376.684,442.996 382.972,473.391 397.956,496.802 C397.956,496.802 433.416,322.996 584.522,231.812 C598.718,223.25 612.551,215.805 626.008,209.254 C743.22,152.159 829.31,166.455 829.31,166.455 C829.31,166.455 943.39,94.56 960.32,90.993 C977.26,87.427 1059.8,77.623 1127.2,115.057 C1127.2,115.057 1035.19,161.403 995.97,197.055 C995.97,197.055 1042.02,204.479 1083.61,230.625 C1125.21,256.764 1146.59,280.537 1204.83,307.862 C1263.06,335.194 1307.01,396.985 1310.59,414.811 L1267.8,420.75 C1267.8,420.75 1305.82,449.27 1346.23,489.675 C1386.63,530.073 1415.15,562.159 1447.24,574.038 C1479.32,585.925 1506.66,572.851 1525.67,581.171 C1544.69,589.491 1619.56,660.788 1550.62,837.849 L1522.7,837.849 C1522.7,837.849 1527.16,861.913 1531.61,892.215 C1531.61,892.215 1482.89,903.207 1488.83,978.07 C1488.83,978.07 1417.12,1000.94 1333.87,969.117 C1279.04,948.158 1219.2,903.49 1171.55,812.896 C1171.55,812.896 1171.55,795.07 1197.69,771.304 C1197.69,771.304 1008.45,764.768 940.72,718.422 L970.73,696.44 C970.73,696.44 975.4,697.919 983.32,700.221 C1011.62,708.47 1081.39,727.332 1127.2,727.332 C1127.2,727.332 1020.92,695.254 998.64,667.623 L1012.91,645.343 C1012.91,645.343 1072.62,672.973 1099.35,675.645 C1099.35,675.645 1048.56,655.147 1029.84,624.845 L1037.87,608.801 C1037.87,608.801 1005.58,642.834 967.87,671.275 C945.49,688.163 921.19,703.083 900.61,707.723 C845.36,720.206 787.72,720.206 678.4,645.343 C569.077,570.479 579.768,489.675 586.895,337.567 C586.895,337.567 574.533,380.686 569.41,417.512 C568.295,425.603 567.499,433.404 567.293,440.353 C567.293,440.353 449.652,464.425 428.258,561.57 C428.258,561.57 452.316,501.853 563.719,490.272 L564.949,505.817 L567.293,535.722 C567.293,535.722 370.325,615.928 451.434,792.391 C451.434,792.391 400.635,632.867 583.336,591.864 C583.336,591.864 607.4,651.581 685.83,703.268 C685.83,703.268 730.39,857.458 793.66,869.933 C793.66,869.933 765.41,849.514 754.82,803.247 C752.67,793.848 751.18,783.474 750.88,771.894 C750.88,771.894 869.6,786.317 1021.8,869.124 C1041.9,880.065 1062.55,892.136 1083.61,905.578 C1083.61,905.578 1154.91,959.057 1166.79,980.45 C1178.62,1001.74 1208.07,1074.86 1197.82,1191.55 C1197.76,1192.09 1197.75,1192.6 1197.69,1193.15 C1197.69,1193.15 1188.19,1262.07 1135.9,1350 C1135.9,1350 1235.72,1244.46 1226.81,1123.04 C1226.81,1123.04 1303.45,1120.66 1390.2,1168.2 C1413.36,1180.88 1431.57,1193.75 1446.13,1206.87 C1486.13,1242.9 1497.86,1280.86 1503.09,1322.68 C1510.22,1379.71 1488.83,1487.85 1411.58,1517.56 Z M2145.96,1327.44 C2285.65,1120.76 2116.26,943.611 2116.26,943.611 C2118.64,991.142 2096.05,1045.8 2096.05,1045.8 C1989.11,815.262 1784.72,848.548 1784.72,848.548 C2042.58,913.906 1993.87,1203.85 1993.87,1203.85 C1943.96,1100.47 1894.05,1092.15 1894.05,1092.15 C1894.05,1092.15 1987.93,1310.8 1854.84,1420.13 C1698.24,1548.77 1544.22,1425.02 1544.19,1424.99 C1542.97,1424.17 1542.31,1423.69 1542.31,1423.69 C1566.06,1124.23 1236.9,1074.33 1236.9,1074.33 C1203.64,973.316 1232.16,968.564 1135.9,890.14 C1039.64,811.71 873.28,739.218 873.28,739.218 C1030.14,787.944 1163.23,790.317 1163.23,790.317 L1148.96,818.843 C1304.64,1075.53 1506.66,993.814 1506.66,993.814 C1494.18,914.495 1549.44,902.019 1549.44,902.019 L1542.31,856.264 L1560.13,856.264 C1629.05,707.126 1581.52,606.131 1555.38,582.358 C1529.25,558.6 1520.91,568.106 1478.14,564.54 C1435.36,560.972 1412.78,528.887 1384.27,500.368 C1355.75,471.849 1314.15,432.63 1314.15,432.63 L1350.98,429.063 C1305.84,332.815 1192.95,269.836 1192.95,269.836 C1235.72,259.123 1330.78,278.171 1330.78,278.171 C1209.56,186.667 1139.48,197.346 1139.48,197.346 C1194.13,165.246 1279.68,180.728 1279.68,180.728 C1221.46,141.516 1126.39,136.742 1126.39,136.742 L1171.55,117.729 C1005.18,33.359 919.62,91.59 919.62,91.59 C583.336,-56.957 386.084,54.766 386.084,54.766 C465.686,64.265 513.225,129.63 513.225,129.63 C179.312,110.61 92.56,293.617 92.56,293.617 C217.323,262.726 266.055,299.556 266.055,299.556 C3.437,395.806 15.324,654.856 15.324,654.856 C91.375,553.846 150.792,569.285 150.792,569.285 C52.156,727.332 123.46,915.384 123.46,915.384 C143.062,821.805 185.841,812.896 185.841,812.896 C173.365,921.622 185.245,963.81 195.936,1019.65 C197.748,1029.09 199.041,1036.89 200.008,1043.55 C201.195,1046.57 201.891,1048.18 201.891,1048.18 C285.656,1215.73 720.58,1465.27 993.31,1557.96 C1266.03,1650.65 1447.83,1636.39 1447.83,1636.39 C1494.18,1591.83 1519.13,1500.92 1519.13,1500.92 C1706.28,1691.05 1945.14,1576.99 1945.14,1576.99 C1904.75,1572.22 1870.29,1534.2 1870.29,1534.2 C1870.29,1534.2 2000.99,1550.85 2102,1478.6 C2203.01,1406.35 2226.78,1326.25 2226.78,1326.25 C2166.18,1351.2 2145.96,1327.44 2145.96,1327.44 Z" id="Fill-11" fill="#294932" mask="url(#mask-4)"></path>
            </g>
            <path d="M1157.21,698.814 C1064.51,689.009 964.091,611.204 932.617,527.7 C908.922,464.858 913.895,337.567 913.895,337.567 C906.768,489.675 896.077,570.479 1005.4,645.343 C1114.72,720.206 1172.36,720.206 1227.61,707.723 C1248.19,703.083 1272.49,688.163 1294.87,671.275 C1264.32,686.437 1213.95,704.817 1157.21,698.814" id="Fill-13" fill="#2A8240"></path>
            <path d="M1551.14,870.822 C1519.05,820.023 1503.9,800.413 1545.79,761.202 C1545.79,761.202 1360.6,774.338 1310.32,700.221 C1302.4,697.919 1297.73,696.44 1297.73,696.44 L1267.72,718.422 C1335.45,764.768 1524.69,771.304 1524.69,771.304 C1498.55,795.07 1498.55,812.896 1498.55,812.896 C1546.2,903.49 1606.04,948.158 1660.87,969.117 C1629.96,948.037 1573.84,906.766 1551.14,870.822" id="Fill-14" fill="#2A8240"></path>
            <path d="M701.292,699.924 C701.287,699.969 700.772,704.522 699.993,711.884 L699.985,711.956 L699.998,712.027 L700.208,713.113 C700.288,713.527 700.37,713.946 700.453,714.385 L701.232,718.509 L701.423,714.317 C701.831,705.388 702.264,700.072 702.268,700.02 L701.292,699.924 Z M701.779,699.979 C701.779,699.979 701.347,705.251 700.934,714.294 C700.778,713.471 700.628,712.717 700.48,711.936 C701.268,704.49 701.779,699.979 701.779,699.979 Z" id="Fill-15" fill="#264D2E"></path>
            <path d="M1126.01,191.705 L1156.31,166.455 C1156.31,166.455 1070.22,152.159 953.008,209.254 C1006.24,196.166 1080.04,182.298 1126.01,191.705" id="Fill-16" fill="#2A8240"></path>
            <path d="M815.336,1121.24 C814.463,1118.99 813.702,1116.89 813.184,1115.02 C803.387,1079.37 835.464,1085.61 835.464,1085.61 L777.539,1016.1 C777.539,1016.1 752.509,1020.78 815.336,1121.24" id="Fill-17" fill="#E2EED6"></path>
            <path d="M777.539,1016.1 C791.799,1029.47 873.795,1073.13 890.719,1069.57 C900.516,1067.51 940.077,1044.01 971.729,1024.53 C955.224,1027.93 928.162,1035.06 883.601,1049.36 C883.601,1049.36 791.301,999.682 742.533,932.506 C730.569,920.506 718.811,905.082 708.913,885.082 C718.811,905.082 730.569,920.506 742.533,932.506 C740.14,929.21 737.823,925.891 735.649,922.517 C697.986,863.838 699.179,753.535 700.934,714.294 C700.778,713.471 700.628,712.717 700.48,711.936 C697.276,742.338 689.638,822.537 694.654,853.97 C694.654,853.97 561.644,660.213 701.532,414.727 C698.22,371.237 704.756,332.815 704.756,332.815 C606.141,463.38 600.742,615.105 627.519,730.899 C658.496,864.868 731.194,953.708 731.194,953.708 C673.268,945.686 630.482,909.146 630.482,909.146 C621.573,1033.92 718.725,1078.48 718.725,1078.48 C672.374,1024.12 674.163,962.625 674.163,962.625 C684.857,975.093 741.005,1003.62 741.005,1003.62 C727.635,1107 904.39,1257.92 904.39,1257.92 C904.39,1257.92 831.351,1161.67 815.336,1121.24 C752.509,1020.78 777.539,1016.1 777.539,1016.1" id="Fill-18" fill="#2A8240"></path>
            <path d="M984.013,1228.9 C912.715,1169.39 899.636,1132.55 944.801,1096.9 C989.939,1061.25 997.441,1022.89 997.441,1022.89 C997.441,1022.89 997.441,1022.89 997.441,1022.87 C959.054,1069.67 885.383,1112.34 885.383,1112.34 C884.489,1256.73 1069.86,1320.29 1069.86,1320.29 C1135.06,1311.39 1196.95,1268.71 1240.48,1230.87 C1200.53,1249.18 1142.24,1273.88 1104.02,1281.09 C1104.02,1281.09 1055.31,1288.41 984.013,1228.9" id="Fill-19" fill="#2A8240"></path>
            <path d="M735.649,922.517 C737.823,925.891 740.14,929.21 742.533,932.506 C776.551,966.625 812.302,972.421 812.302,972.421 C812.302,972.421 757.929,897.558 735.649,842.303 C719.656,802.636 706.888,744.149 700.934,714.294 C699.179,753.535 697.986,863.838 735.649,922.517" id="Fill-20" fill="#294932"></path>
            <path d="M755.258,561.57 C776.652,464.425 894.293,440.353 894.293,440.353 C894.499,433.404 895.295,425.603 896.41,417.512 C868.077,425.795 772.672,460.872 755.258,561.57" id="Fill-21" fill="#2A8240"></path>
            <path d="M1773.13,1206.87 C1784.39,1232.36 1796.62,1272.76 1793.26,1323.86 C1787.32,1414.18 1698.19,1455.76 1647.09,1455.76 C1647.09,1455.76 1689.74,1317.65 1601.94,1176.52 C1601.94,1176.52 1633.17,1251.8 1623.32,1316.14 C1623.32,1316.14 1595.99,1426.07 1535.38,1423.69 C1535.38,1423.69 1586.48,1262.08 1553.81,1123.04 C1562.72,1244.46 1462.9,1350 1462.9,1350 C1515.19,1262.07 1524.69,1193.15 1524.69,1193.15 C1524.75,1192.6 1524.76,1192.09 1524.82,1191.55 C1504.21,1232.2 1455.17,1317.33 1392.78,1347.64 C1309.6,1388.03 1283.47,1325.06 1284.66,1314.36 C1285.84,1303.66 1308.42,1202.06 1302.48,1168.49 C1302.48,1222.86 1231.18,1357.13 1231.18,1357.13 C1289.11,1433.19 1439.13,1382.09 1439.13,1382.09 C1439.13,1382.09 1452.21,1433.19 1472.41,1462.9 C1492.62,1492.61 1497.37,1514 1548.46,1475.97 C1599.55,1437.95 1625.71,1346.44 1625.71,1346.44 C1642.35,1442.69 1594.8,1500.92 1594.8,1500.92 C1727.89,1498.55 1798.01,1371.39 1798.01,1371.39 C1800.37,1452.2 1738.58,1517.56 1738.58,1517.56 C1815.83,1487.85 1837.22,1379.71 1830.09,1322.68 C1824.86,1280.86 1813.13,1242.9 1773.13,1206.87" id="Fill-22" fill="#2A8240"></path>
            <path d="M1263.71,1009.86 C1265.04,1057.99 1293.56,1095.41 1293.56,1095.41 C1293.56,1095.41 1254.34,1160.47 1185.73,1202.36 C1185.73,1202.36 1249,1135.52 1250.34,1057.99 C1251.67,980.45 1212.46,954.603 1212.46,954.603 C1212.46,954.603 1259.7,928.754 1314.95,926.076 C1314.95,926.076 1262.37,961.728 1263.71,1009.86 Z M1162.55,930.531 C1134.06,967.043 1075.33,981.55 1052.52,985.97 C1049.24,986.943 1046.07,987.576 1043.12,987.576 C1043.12,987.576 1046.66,987.093 1052.52,985.97 C1079.95,977.779 1116.93,938.822 1130.47,926.076 C1145.62,911.817 1179.49,873.501 1179.49,873.501 C1179.49,873.501 1191.08,893.991 1162.55,930.531 Z M972.724,861.017 C964.695,931.426 904.39,946.581 904.39,946.581 C951.928,888.648 956.681,775.461 956.681,775.461 C956.681,775.461 980.737,790.616 972.724,861.017 Z M1099.27,468.879 C1079.67,512.553 1005.7,557.114 998.563,554.436 C991.431,551.757 970.045,522.35 970.045,522.35 C1040.45,526.805 1099.27,468.879 1099.27,468.879 Z M1296.24,124.565 C1367.53,112.977 1384.47,115.954 1384.47,115.954 C1384.47,115.954 1262.37,148.031 1267.27,223.791 C1267.27,223.791 1205.33,224.678 1170.57,263.897 C1170.57,263.897 1167.9,242.504 1150.07,233.595 C1150.07,233.595 1224.93,136.151 1296.24,124.565 Z M1380.9,278.171 C1401.7,287.684 1468.85,360.744 1468.85,360.744 C1468.85,360.744 1505.08,412.438 1530.64,399.358 C1537.77,395.706 1539.38,389.695 1538.02,382.925 C1530.47,369.936 1520.54,357.476 1520.54,357.476 C1520.54,357.476 1530.47,369.936 1538.02,382.925 C1534.48,365.446 1511.04,342.917 1511.04,342.917 C1523.51,347.081 1556.78,375.003 1559.16,405.894 C1561.52,436.787 1519.95,421.347 1519.95,421.347 C1514,430.257 1464.68,435.607 1464.68,435.607 C1464.68,435.607 1486.67,449.867 1514,476.595 C1541.33,503.331 1588.58,515.217 1588.58,515.217 C1553.03,520.474 1515.77,497.987 1486.08,478.386 C1482.08,475.749 1478.52,473.356 1475.21,471.096 C1478.82,475.217 1481.93,479.43 1484.29,483.727 C1481.93,479.43 1478.82,475.217 1475.21,471.096 C1453.8,456.573 1442.73,448.459 1396.95,427.885 C1344.07,404.112 1254.34,396.388 1254.34,396.388 C1279.82,392.445 1306.1,392.147 1329.12,393.333 C1306.4,385.739 1290.6,381.532 1290.6,381.532 C1290.6,381.532 1306.4,385.739 1329.12,393.333 C1368.38,395.366 1398.13,401.739 1398.13,401.739 C1385.06,380.346 1384.47,340.537 1384.47,340.537 C1384.47,340.537 1374.38,322.122 1340.51,307.265 C1319.09,297.88 1295.52,286.129 1281.05,278.746 C1269.96,279.13 1263.28,280.53 1263.28,280.53 C1263.28,280.53 1269.96,279.13 1281.05,278.746 C1272.63,274.447 1267.27,271.62 1267.27,271.62 C1324.15,260.331 1360.11,268.643 1380.9,278.171 Z M1588.57,392.672 C1589.45,411.841 1564.51,427.885 1564.51,427.885 C1593.91,399.358 1555.6,357.476 1555.6,357.476 C1560.93,359.252 1587.68,373.51 1588.57,392.672 Z M1703.54,554.556 C1570.27,489.405 1585.89,446.599 1585.89,446.599 C1616.19,465.312 1703.54,554.556 1703.54,554.556 Z M1564.51,693.463 C1564.51,693.463 1597.87,676 1632.12,684.283 C1668.96,693.2 1660.75,721.99 1660.75,721.99 C1660.75,721.99 1649.46,678.018 1564.51,693.463 Z M1824.74,832.945 C1796.81,842.303 1760.58,828.939 1760.58,828.939 C1746.9,837.849 1659.57,850.325 1613.23,846.879 C1566.89,843.432 1558.56,836.669 1557.37,810.522 C1556.17,784.378 1589.45,736.839 1589.45,736.839 C1584.11,734.466 1557.37,740.406 1557.37,740.406 C1568.96,719.61 1627.49,721.399 1647.68,735.055 C1667.88,748.726 1716.59,792.696 1754.63,816.455 C1776,829.812 1824.74,832.945 1824.74,832.945 Z M1846.13,611.473 C1857.72,613.257 1869.31,634.649 1869.31,634.649 C1869.31,634.649 1857.43,626.322 1849.11,625.144 C1840.8,623.958 1846.13,641.186 1846.13,641.186 C1846.13,641.186 1869.31,634.649 1869.31,666.693 C1869.31,698.757 1856.82,721.99 1856.82,721.99 C1830.09,714.856 1830.98,694.358 1829.2,671.184 C1827.42,648.014 1834.54,609.69 1846.13,611.473 Z M1706.21,881.514 C1706.21,881.514 1777.51,853.891 1814.94,881.514 C1814.94,881.514 1762.36,872.605 1706.21,881.514 Z M1246.62,502.741 C1220.18,542.847 1221.37,639.105 1221.37,639.105 C1169.15,564.084 1194.64,446.599 1194.64,446.599 C1230.29,423.43 1338.13,476.9 1338.13,476.9 C1314.95,475.117 1273.07,462.633 1246.62,502.741 Z M1284.66,1314.36 C1283.47,1325.06 1309.6,1388.03 1392.78,1347.64 C1455.17,1317.33 1504.21,1232.2 1524.82,1191.55 C1535.07,1074.86 1505.62,1001.74 1493.79,980.45 C1481.91,959.057 1410.61,905.578 1410.61,905.578 C1389.55,892.136 1368.9,880.065 1348.8,869.124 C1233.17,821.315 1115.85,806.68 1081.82,803.247 C1092.41,849.514 1120.66,869.933 1120.66,869.933 C1057.39,857.458 1012.83,703.268 1012.83,703.268 C934.4,651.581 910.336,591.864 910.336,591.864 C727.635,632.867 778.434,792.391 778.434,792.391 C692.473,612.781 855.976,522.976 891.949,505.817 L890.719,490.272 C779.316,501.853 755.258,561.57 755.258,561.57 C772.672,460.872 868.077,425.795 896.41,417.512 C901.533,380.686 913.895,337.567 913.895,337.567 C913.895,337.567 908.922,464.858 932.617,527.7 C964.091,611.204 1064.51,689.009 1157.21,698.814 C1213.95,704.817 1264.32,686.437 1294.87,671.275 C1332.58,642.834 1364.87,608.801 1364.87,608.801 L1356.84,624.845 C1375.56,655.147 1426.35,675.645 1426.35,675.645 C1399.62,672.973 1339.91,645.343 1339.91,645.343 L1325.64,667.623 C1347.92,695.254 1454.2,727.332 1454.2,727.332 C1408.39,727.332 1338.62,708.47 1310.32,700.221 C1360.6,774.338 1545.79,761.202 1545.79,761.202 C1503.9,800.413 1519.05,820.023 1551.14,870.822 C1573.84,906.766 1629.96,948.037 1660.87,969.117 C1744.12,1000.94 1815.83,978.07 1815.83,978.07 C1809.89,903.207 1858.61,892.215 1858.61,892.215 C1854.16,861.913 1849.7,837.849 1849.7,837.849 L1877.62,837.849 C1946.56,660.788 1871.69,589.491 1852.67,581.171 C1833.66,572.851 1806.32,585.925 1774.24,574.038 C1742.15,562.159 1713.63,530.073 1673.23,489.675 C1632.82,449.27 1594.8,420.75 1594.8,420.75 L1637.59,414.811 C1634.01,396.985 1590.06,335.194 1531.83,307.862 C1473.59,280.537 1452.21,256.764 1410.61,230.625 C1369.02,204.479 1322.97,197.055 1322.97,197.055 C1362.19,161.403 1454.2,115.057 1454.2,115.057 C1386.8,77.623 1304.26,87.427 1287.32,90.993 C1270.39,94.56 1156.31,166.455 1156.31,166.455 L1126.01,191.705 C1080.04,182.298 1006.24,196.166 953.008,209.254 C939.551,215.805 925.718,223.25 911.522,231.812 C760.416,322.996 724.956,496.802 724.956,496.802 C709.972,473.391 703.684,442.996 701.532,414.727 C561.644,660.213 694.654,853.97 694.654,853.97 C689.638,822.537 697.276,742.338 700.48,711.936 C698.441,701.613 697.325,695.254 697.325,695.254 C697.325,695.254 698.441,701.613 700.48,711.936 C701.268,704.49 701.779,699.979 701.779,699.979 C701.779,699.979 701.347,705.251 700.934,714.294 C706.888,744.149 719.656,802.636 735.649,842.303 C757.929,897.558 812.302,972.421 812.302,972.421 C812.302,972.421 776.551,966.625 742.533,932.506 C791.301,999.682 883.601,1049.36 883.601,1049.36 C928.162,1035.06 955.224,1027.93 971.729,1024.53 C994.827,1010.33 1013.71,998.269 1013.71,998.269 C1009.75,1006.46 1004.11,1014.73 997.441,1022.87 C997.441,1022.89 997.441,1022.89 997.441,1022.89 C997.441,1022.89 989.939,1061.25 944.801,1096.9 C899.636,1132.55 912.715,1169.39 984.013,1228.9 C1055.31,1288.41 1104.02,1281.09 1104.02,1281.09 C1142.24,1273.88 1200.53,1249.18 1240.48,1230.87 C1278.47,1197.84 1302.48,1168.49 1302.48,1168.49 C1308.42,1202.06 1285.84,1303.66 1284.66,1314.36 Z" id="Fill-23" fill="#E2EED6"></path>
            <path d="M1077.88,771.894 C1078.18,783.474 1079.67,793.848 1081.82,803.247 C1115.85,806.68 1233.17,821.315 1348.8,869.124 C1196.6,786.317 1077.88,771.894 1077.88,771.894" id="Fill-24" fill="#2A8240"></path>
            <path d="M1535.38,1423.69 C1595.99,1426.07 1623.32,1316.14 1623.32,1316.14 C1633.17,1251.8 1601.94,1176.52 1601.94,1176.52 C1689.74,1317.65 1647.09,1455.76 1647.09,1455.76 C1698.19,1455.76 1787.32,1414.18 1793.26,1323.86 C1796.62,1272.76 1784.39,1232.36 1773.13,1206.87 C1758.57,1193.75 1740.36,1180.88 1717.2,1168.2 C1630.45,1120.66 1553.81,1123.04 1553.81,1123.04 C1586.48,1262.08 1535.38,1423.69 1535.38,1423.69" id="Fill-25" fill="#E2EED6"></path>
            <path d="M778.434,792.391 C697.325,615.928 894.293,535.722 894.293,535.722 L891.949,505.817 C855.976,522.976 692.473,612.781 778.434,792.391" id="Fill-26" fill="#2A8240"></path>
            <path d="M956.681,775.461 C956.681,775.461 951.928,888.648 904.39,946.581 C904.39,946.581 964.695,931.426 972.724,861.017 C980.737,790.616 956.681,775.461 956.681,775.461" id="Fill-27" fill="#294932"></path>
            <path d="M1130.47,926.076 C1116.93,938.822 1079.95,977.779 1052.52,985.97 C1075.33,981.55 1134.06,967.043 1162.55,930.531 C1191.08,893.991 1179.49,873.501 1179.49,873.501 C1179.49,873.501 1145.62,911.817 1130.47,926.076" id="Fill-28" fill="#2A8240"></path>
            <path d="M1212.46,954.603 C1212.46,954.603 1251.67,980.45 1250.34,1057.99 C1249,1135.52 1185.73,1202.36 1185.73,1202.36 C1254.34,1160.47 1293.56,1095.41 1293.56,1095.41 C1293.56,1095.41 1265.04,1057.99 1263.71,1009.86 C1262.37,961.728 1314.95,926.076 1314.95,926.076 C1259.7,928.754 1212.46,954.603 1212.46,954.603" id="Fill-29" fill="#2A8240"></path>
            <path d="M998.563,554.436 C1005.7,557.114 1079.67,512.553 1099.27,468.879 C1099.27,468.879 1040.45,526.805 970.045,522.35 C970.045,522.35 991.431,551.757 998.563,554.436" id="Fill-30" fill="#2A8240"></path>
            <path d="M1194.64,446.599 C1194.64,446.599 1169.15,564.084 1221.37,639.105 C1221.37,639.105 1220.18,542.847 1246.62,502.741 C1273.07,462.633 1314.95,475.117 1338.13,476.9 C1338.13,476.9 1230.29,423.43 1194.64,446.599" id="Fill-31" fill="#2A8240"></path>
            <path d="M1706.21,881.514 C1762.36,872.605 1814.94,881.514 1814.94,881.514 C1777.51,853.891 1706.21,881.514 1706.21,881.514" id="Fill-32" fill="#294932"></path>
            <path d="M1856.82,721.99 C1856.82,721.99 1869.31,698.757 1869.31,666.693 C1869.31,634.649 1846.13,641.186 1846.13,641.186 C1846.13,641.186 1840.8,623.958 1849.11,625.144 C1857.43,626.322 1869.31,634.649 1869.31,634.649 C1869.31,634.649 1857.72,613.257 1846.13,611.473 C1834.54,609.69 1827.42,648.014 1829.2,671.184 C1830.98,694.358 1830.09,714.856 1856.82,721.99" id="Fill-33" fill="#294932"></path>
            <path d="M1740.96,818.843 C1740.19,829.749 1670.85,838.445 1625.1,837.394 C1579.35,836.341 1568.07,831.909 1567.47,818.843 C1566.89,805.783 1578.76,789.13 1578.76,789.13 C1618.56,787.944 1669.67,802.353 1669.67,802.353 C1649.46,789.428 1588.26,770.111 1588.26,770.111 C1595.99,757.044 1610.85,739.816 1610.85,739.816 C1613.79,736.32 1634.6,744.568 1660.75,765.961 C1686.9,787.348 1740.96,818.843 1740.96,818.843 Z M1557.37,740.406 C1557.37,740.406 1584.11,734.466 1589.45,736.839 C1589.45,736.839 1556.17,784.378 1557.37,810.522 C1558.56,836.669 1566.89,843.432 1613.23,846.879 C1659.57,850.325 1746.9,837.849 1760.58,828.939 C1760.58,828.939 1796.81,842.303 1824.74,832.945 C1824.74,832.945 1776,829.812 1754.63,816.455 C1716.59,792.696 1667.88,748.726 1647.68,735.055 C1627.49,721.399 1568.96,719.61 1557.37,740.406 Z" id="Fill-34" fill="#294932"></path>
            <path d="M1610.85,739.816 C1610.85,739.816 1595.99,757.044 1588.26,770.111 C1588.26,770.111 1649.46,789.428 1669.67,802.353 C1669.67,802.353 1618.56,787.944 1578.76,789.13 C1578.76,789.13 1566.89,805.783 1567.47,818.843 C1568.07,831.909 1579.35,836.341 1625.1,837.394 C1670.85,838.445 1740.19,829.749 1740.96,818.843 C1740.96,818.843 1686.9,787.348 1660.75,765.961 C1634.6,744.568 1613.79,736.32 1610.85,739.816" id="Fill-35" fill="#FFFFFE"></path>
            <path d="M1660.75,721.99 C1660.75,721.99 1668.96,693.2 1632.12,684.283 C1597.87,676 1564.51,693.463 1564.51,693.463 C1649.46,678.018 1660.75,721.99 1660.75,721.99" id="Fill-36" fill="#294932"></path>
            <path d="M1703.54,554.556 C1703.54,554.556 1616.19,465.312 1585.89,446.599 C1585.89,446.599 1570.27,489.405 1703.54,554.556" id="Fill-37" fill="#2A8240"></path>
            <path d="M1564.51,427.885 C1564.51,427.885 1589.45,411.841 1588.57,392.672 C1587.68,373.51 1560.93,359.252 1555.6,357.476 C1555.6,357.476 1593.91,399.358 1564.51,427.885" id="Fill-38" fill="#2A8240"></path>
            <path d="M1246.62,214.874 C1186.31,213.986 1170.57,263.897 1170.57,263.897 C1205.33,224.678 1267.27,223.791 1267.27,223.791 C1262.37,148.031 1384.47,115.954 1384.47,115.954 C1227.61,148.031 1246.62,214.874 1246.62,214.874" id="Fill-39" fill="#2A8240"></path>
            <path d="M1170.57,263.897 C1170.57,263.897 1186.31,213.986 1246.62,214.874 C1246.62,214.874 1227.61,148.031 1384.47,115.954 C1384.47,115.954 1367.53,112.977 1296.24,124.565 C1224.93,136.151 1150.07,233.595 1150.07,233.595 C1167.9,242.504 1170.57,263.897 1170.57,263.897" id="Fill-40" fill="#294932"></path>
            <path d="M1267.27,271.62 C1267.27,271.62 1272.63,274.447 1281.05,278.746 C1305.42,277.887 1351.1,281.887 1393.98,316.182 C1456.38,366.086 1524.7,416.588 1541.93,411.245 C1550.41,408.608 1545.33,395.528 1538.02,382.925 C1539.38,389.695 1537.77,395.706 1530.64,399.358 C1505.08,412.438 1468.85,360.744 1468.85,360.744 C1468.85,360.744 1401.7,287.684 1380.9,278.171 C1360.11,268.643 1324.15,260.331 1267.27,271.62" id="Fill-41" fill="#2A8240"></path>
            <path d="M1466.48,414.811 C1447.68,399.21 1454.2,381.532 1454.2,381.532 C1454.2,381.532 1483.11,409.049 1499.15,411.636 C1499.15,411.636 1482.2,427.885 1466.48,414.811 Z M1541.93,411.245 C1524.7,416.588 1456.38,366.086 1393.98,316.182 C1351.1,281.887 1305.42,277.887 1281.05,278.746 C1295.52,286.129 1319.09,297.88 1340.51,307.265 C1374.38,322.122 1384.47,340.537 1384.47,340.537 C1384.47,340.537 1385.06,380.346 1398.13,401.739 C1398.13,401.739 1368.38,395.366 1329.12,393.333 C1373.65,408.226 1444.64,436.176 1475.21,471.096 C1478.52,473.356 1482.08,475.749 1486.08,478.386 C1515.77,497.987 1553.03,520.474 1588.58,515.217 C1588.58,515.217 1541.33,503.331 1514,476.595 C1486.67,449.867 1464.68,435.607 1464.68,435.607 C1464.68,435.607 1514,430.257 1519.95,421.347 C1519.95,421.347 1561.52,436.787 1559.16,405.894 C1556.78,375.003 1523.51,347.081 1511.04,342.917 C1511.04,342.917 1534.48,365.446 1538.02,382.925 C1545.33,395.528 1550.41,408.608 1541.93,411.245 Z" id="Fill-42" fill="#294932"></path>
            <path d="M1329.12,393.333 C1306.1,392.147 1279.82,392.445 1254.34,396.388 C1254.34,396.388 1344.07,404.112 1396.95,427.885 C1442.73,448.459 1453.8,456.573 1475.21,471.096 C1444.64,436.176 1373.65,408.226 1329.12,393.333" id="Fill-43" fill="#2A8240"></path>
            <path d="M1466.48,414.811 C1482.2,427.885 1499.15,411.636 1499.15,411.636 C1483.11,409.049 1454.2,381.532 1454.2,381.532 C1454.2,381.532 1447.68,399.21 1466.48,414.811" id="Fill-44" fill="#FFFFFE"></path>
            <path d="M2405.83,1253.16 C2419.2,1171.17 2404.05,1098.08 2379.09,1041.05 C2379.09,1041.05 2454.84,1222.86 2319.38,1377.94 C2319.38,1377.94 2392.46,1335.15 2405.83,1253.16" id="Fill-45" fill="#51865A"></path>
            <path d="M2383.59,1407.34 C2470.08,1316.44 2476.22,1184.54 2476.22,1184.54 C2463.19,1228.22 2427.54,1328.38 2365.09,1385.96 C2282.26,1462.32 2169.65,1492.01 2169.65,1492.01 C2204.41,1498.25 2297.1,1498.25 2383.59,1407.34" id="Fill-46" fill="#2A8240"></path>
            <polyline id="Fill-47" fill="#2A8240" points="571.142 1852.75 514.834 1852.75 514.834 1822.68 529.268 1822.68 529.268 1742.75 500.5 1830.31 469.976 1830.31 441.206 1742.75 441.206 1822.68 455.65 1822.68 455.65 1852.75 399.344 1852.75 399.344 1822.68 413.059 1822.68 413.059 1707.43 399.344 1707.43 399.344 1679.52 443.852 1679.52 485.242 1792.05 526.622 1679.52 571.142 1679.52 571.142 1707.43 557.425 1707.43 557.425 1822.68 571.142 1822.68 571.142 1852.75"></polyline>
            <polygon id="Stroke-48" stroke="#51865A" stroke-width="0.735" points="571.142 1852.75 514.834 1852.75 514.834 1822.68 529.268 1822.68 529.268 1742.75 500.5 1830.31 469.976 1830.31 441.206 1742.75 441.206 1822.68 455.65 1822.68 455.65 1852.75 399.344 1852.75 399.344 1822.68 413.059 1822.68 413.059 1707.43 399.344 1707.43 399.344 1679.52 443.852 1679.52 485.242 1792.05 526.622 1679.52 571.142 1679.52 571.142 1707.43 557.425 1707.43 557.425 1822.68 571.142 1822.68"></polygon>
            <polyline id="Fill-49" fill="#2A8240" points="735.086 1822.02 714.111 1841.78 677.984 1841.78 657.031 1822.02 657.031 1738.85 677.984 1719.09 714.111 1719.09 735.086 1738.85 735.086 1754.87 714.111 1754.87 714.111 1744.98 707.979 1738.85 684.123 1738.85 677.984 1744.98 677.984 1815.88 684.123 1822.02 707.979 1822.02 714.111 1815.88 714.111 1805.99 735.086 1805.99 735.086 1822.02"></polyline>
            <polygon id="Stroke-50" stroke="#51865A" stroke-width="0.735" points="735.086 1822.02 714.111 1841.78 677.984 1841.78 657.031 1822.02 657.031 1738.85 677.984 1719.09 714.111 1719.09 735.086 1738.85 735.086 1754.87 714.111 1754.87 714.111 1744.98 707.979 1738.85 684.123 1738.85 677.984 1744.98 677.984 1815.88 684.123 1822.02 707.979 1822.02 714.111 1815.88 714.111 1805.99 735.086 1805.99"></polygon>
            <polyline id="Fill-51" fill="#2A8240" points="969.806 1852.75 850.474 1852.75 850.474 1824.84 865.382 1824.84 865.382 1707.43 850.474 1707.43 850.474 1679.52 969.806 1679.52 969.806 1730.04 941.646 1730.04 941.646 1707.43 894.49 1707.43 894.49 1751.7 935.647 1751.7 935.647 1775.52 894.49 1775.52 894.49 1824.84 941.646 1824.84 941.646 1802.22 969.806 1802.22 969.806 1852.75"></polyline>
            <polygon id="Stroke-52" stroke="#51865A" stroke-width="0.735" points="969.806 1852.75 850.474 1852.75 850.474 1824.84 865.382 1824.84 865.382 1707.43 850.474 1707.43 850.474 1679.52 969.806 1679.52 969.806 1730.04 941.646 1730.04 941.646 1707.43 894.49 1707.43 894.49 1751.7 935.647 1751.7 935.647 1775.52 894.49 1775.52 894.49 1824.84 941.646 1824.84 941.646 1802.22 969.806 1802.22"></polygon>
            <path d="M1144.96,1773.83 L1125,1714.64 L1124.5,1714.64 L1104.78,1773.83 L1144.96,1773.83 Z M1200.06,1852.75 L1146.41,1852.75 L1146.41,1824.84 L1163,1824.84 L1153.38,1797.65 L1096.35,1797.65 L1086.74,1824.84 L1103.33,1824.84 L1103.33,1852.75 L1049.68,1852.75 L1049.68,1824.84 L1060.51,1824.84 L1111.03,1679.52 L1138.45,1679.52 L1189.24,1824.84 L1200.06,1824.84 L1200.06,1852.75 Z" id="Fill-53" fill="#2A8240"></path>
            <path d="M1144.96,1773.83 L1125,1714.64 L1124.5,1714.64 L1104.78,1773.83 L1144.96,1773.83 Z M1200.06,1852.75 L1146.41,1852.75 L1146.41,1824.84 L1163,1824.84 L1153.38,1797.65 L1096.35,1797.65 L1086.74,1824.84 L1103.33,1824.84 L1103.33,1852.75 L1049.68,1852.75 L1049.68,1824.84 L1060.51,1824.84 L1111.03,1679.52 L1138.45,1679.52 L1189.24,1824.84 L1200.06,1824.84 L1200.06,1852.75 Z" id="Stroke-54" stroke="#51865A" stroke-width="0.735"></path>
            <polyline id="Fill-55" fill="#2A8240" points="1389.64 1824.84 1360.05 1852.75 1309.03 1852.75 1279.45 1824.84 1279.45 1707.43 1309.03 1679.52 1360.05 1679.52 1389.64 1707.43 1389.64 1730.04 1360.05 1730.04 1360.05 1716.09 1351.39 1707.43 1317.71 1707.43 1309.03 1716.09 1309.03 1816.18 1317.71 1824.84 1351.39 1824.84 1360.05 1816.18 1360.05 1802.22 1389.64 1802.22 1389.64 1824.84"></polyline>
            <polygon id="Stroke-56" stroke="#51865A" stroke-width="0.735" points="1389.64 1824.84 1360.05 1852.75 1309.03 1852.75 1279.45 1824.84 1279.45 1707.43 1309.03 1679.52 1360.05 1679.52 1389.64 1707.43 1389.64 1730.04 1360.05 1730.04 1360.05 1716.09 1351.39 1707.43 1317.71 1707.43 1309.03 1716.09 1309.03 1816.18 1317.71 1824.84 1351.39 1824.84 1360.05 1816.18 1360.05 1802.22 1389.64 1802.22"></polygon>
            <polyline id="Fill-57" fill="#2A8240" points="1613.89 1852.75 1552.77 1852.75 1552.77 1824.84 1569.37 1824.84 1569.37 1775.52 1517.16 1775.52 1517.16 1824.84 1533.74 1824.84 1533.74 1852.75 1472.65 1852.75 1472.65 1824.84 1487.57 1824.84 1487.57 1707.43 1472.65 1707.43 1472.65 1679.52 1533.74 1679.52 1533.74 1707.43 1517.16 1707.43 1517.16 1751.7 1569.37 1751.7 1569.37 1707.43 1552.77 1707.43 1552.77 1679.52 1613.89 1679.52 1613.89 1707.43 1598.95 1707.43 1598.95 1824.84 1613.89 1824.84 1613.89 1852.75"></polyline>
            <polygon id="Stroke-58" stroke="#51865A" stroke-width="0.735" points="1613.89 1852.75 1552.77 1852.75 1552.77 1824.84 1569.37 1824.84 1569.37 1775.52 1517.16 1775.52 1517.16 1824.84 1533.74 1824.84 1533.74 1852.75 1472.65 1852.75 1472.65 1824.84 1487.57 1824.84 1487.57 1707.43 1472.65 1707.43 1472.65 1679.52 1533.74 1679.52 1533.74 1707.43 1517.16 1707.43 1517.16 1751.7 1569.37 1751.7 1569.37 1707.43 1552.77 1707.43 1552.77 1679.52 1613.89 1679.52 1613.89 1707.43 1598.95 1707.43 1598.95 1824.84 1613.89 1824.84"></polygon>
            <polyline id="Fill-59" fill="#2A8240" points="1815.74 1852.75 1696.39 1852.75 1696.39 1824.84 1711.32 1824.84 1711.32 1707.43 1696.39 1707.43 1696.39 1679.52 1815.74 1679.52 1815.74 1730.04 1787.58 1730.04 1787.58 1707.43 1740.43 1707.43 1740.43 1751.7 1781.57 1751.7 1781.57 1775.52 1740.43 1775.52 1740.43 1824.84 1787.58 1824.84 1787.58 1802.22 1815.74 1802.22 1815.74 1852.75"></polyline>
            <polygon id="Stroke-60" stroke="#51865A" stroke-width="0.735" points="1815.74 1852.75 1696.39 1852.75 1696.39 1824.84 1711.32 1824.84 1711.32 1707.43 1696.39 1707.43 1696.39 1679.52 1815.74 1679.52 1815.74 1730.04 1787.58 1730.04 1787.58 1707.43 1740.43 1707.43 1740.43 1751.7 1781.57 1751.7 1781.57 1775.52 1740.43 1775.52 1740.43 1824.84 1787.58 1824.84 1787.58 1802.22 1815.74 1802.22"></polygon>
            <path d="M1995.47,1743.75 L1995.47,1716.09 L1986.79,1707.43 L1945.18,1707.43 L1945.18,1752.42 L1986.79,1752.42 L1995.47,1743.75 Z M2035.65,1852.75 L1979.33,1852.75 L1979.33,1824.84 L1993.54,1824.84 L1968.27,1779.12 L1945.18,1779.12 L1945.18,1824.84 L1960.33,1824.84 L1960.33,1852.75 L1901.16,1852.75 L1901.16,1824.84 L1916.07,1824.84 L1916.07,1707.43 L1901.16,1707.43 L1901.16,1679.52 L1995.47,1679.52 L2025.06,1707.43 L2025.06,1752.42 L1997.16,1776.97 L2024.82,1824.84 L2035.65,1824.84 L2035.65,1852.75 Z" id="Fill-61" fill="#2A8240"></path>
            <path d="M1995.47,1743.75 L1995.47,1716.09 L1986.79,1707.43 L1945.18,1707.43 L1945.18,1752.42 L1986.79,1752.42 L1995.47,1743.75 Z M2035.65,1852.75 L1979.33,1852.75 L1979.33,1824.84 L1993.54,1824.84 L1968.27,1779.12 L1945.18,1779.12 L1945.18,1824.84 L1960.33,1824.84 L1960.33,1852.75 L1901.16,1852.75 L1901.16,1824.84 L1916.07,1824.84 L1916.07,1707.43 L1901.16,1707.43 L1901.16,1679.52 L1995.47,1679.52 L2025.06,1707.43 L2025.06,1752.42 L1997.16,1776.97 L2024.82,1824.84 L2035.65,1824.84 L2035.65,1852.75 Z" id="Stroke-62" stroke="#51865A" stroke-width="0.735"></path>
            <polyline id="Fill-63" fill="#2A8240" points="2260.35 1707.43 2246.64 1707.43 2246.64 1852.75 2218.52 1852.75 2155.45 1737.25 2155.45 1824.84 2169.9 1824.84 2169.9 1852.75 2113.6 1852.75 2113.6 1824.84 2127.32 1824.84 2127.32 1707.43 2113.6 1707.43 2113.6 1679.52 2155.45 1679.52 2218.52 1795 2218.52 1707.43 2204.07 1707.43 2204.07 1679.52 2260.35 1679.52 2260.35 1707.43"></polyline>
            <polygon id="Stroke-64" stroke="#51865A" stroke-width="0.735" points="2260.35 1707.43 2246.64 1707.43 2246.64 1852.75 2218.52 1852.75 2155.45 1737.25 2155.45 1824.84 2169.9 1824.84 2169.9 1852.75 2113.6 1852.75 2113.6 1824.84 2127.32 1824.84 2127.32 1707.43 2113.6 1707.43 2113.6 1679.52 2155.45 1679.52 2218.52 1795 2218.52 1707.43 2204.07 1707.43 2204.07 1679.52 2260.35 1679.52"></polygon>
            <polyline id="Fill-65" fill="#2A8240" points="2453.8 1825.33 2426.86 1852.75 2374.4 1852.75 2345.3 1825.56 2345.3 1802.22 2374.4 1802.22 2374.4 1816.18 2383.03 1824.84 2416.06 1824.84 2424.68 1816.18 2424.68 1787.06 2416.02 1778.41 2372.71 1778.41 2345.3 1751.7 2345.3 1706.95 2372.77 1679.52 2426.31 1679.52 2453.8 1706.95 2453.8 1730.04 2424.68 1730.04 2424.68 1716.09 2416.06 1707.43 2383.03 1707.43 2374.4 1716.09 2374.4 1743.03 2383.06 1751.7 2424.92 1751.7 2453.8 1778.41 2453.8 1825.33"></polyline>
            <polygon id="Stroke-66" stroke="#51865A" stroke-width="0.735" points="2453.8 1825.33 2426.86 1852.75 2374.4 1852.75 2345.3 1825.56 2345.3 1802.22 2374.4 1802.22 2374.4 1816.18 2383.03 1824.84 2416.06 1824.84 2424.68 1816.18 2424.68 1787.06 2416.02 1778.41 2372.71 1778.41 2345.3 1751.7 2345.3 1706.95 2372.77 1679.52 2426.31 1679.52 2453.8 1706.95 2453.8 1730.04 2424.68 1730.04 2424.68 1716.09 2416.06 1707.43 2383.03 1707.43 2374.4 1716.09 2374.4 1743.03 2383.06 1751.7 2424.92 1751.7 2453.8 1778.41"></polygon>
            <polyline id="Fill-67" fill="#2A8240" points="972.83 1997.44 948.844 1997.44 948.844 2196.62 897.057 2244.63 788.509 2244.63 743.849 2196.62 743.849 1997.44 719.847 1997.44 719.847 1941.47 829.29 1941.47 829.29 1997.44 802.761 1997.44 802.761 2173.5 817.497 2188.66 874.754 2188.66 889.923 2173.5 889.923 1997.44 863.402 1997.44 863.402 1941.47 972.83 1941.47 972.83 1997.44"></polyline>
            <polygon id="Stroke-68" stroke="#51865A" stroke-width="0.735" points="972.83 1997.44 948.844 1997.44 948.844 2196.62 897.057 2244.63 788.509 2244.63 743.849 2196.62 743.849 1997.44 719.847 1997.44 719.847 1941.47 829.29 1941.47 829.29 1997.44 802.761 1997.44 802.761 2173.5 817.497 2188.66 874.754 2188.66 889.923 2173.5 889.923 1997.44 863.402 1997.44 863.402 1941.47 972.83 1941.47"></polygon>
            <polyline id="Fill-70" fill="#2A8240" points="2222.5 2244.63 2114.16 2244.63 2066.64 2195.78 2066.64 1990.31 2114.16 1941.47 2223.08 1941.47 2267.94 1990.31 2267.94 2051.28 2208.83 2051.28 2208.83 2012.59 2192.83 1997.44 2144.41 1997.44 2128.43 2012.59 2128.43 2173.5 2144.41 2188.66 2188.04 2188.66 2208.83 2170.36 2208.83 2130.87 2161.71 2130.87 2161.71 2074.9 2267.94 2074.9 2267.94 2192.94 2222.5 2244.63"></polyline>
            <polygon id="Stroke-71" stroke="#51865A" stroke-width="0.735" points="2222.5 2244.63 2114.16 2244.63 2066.64 2195.78 2066.64 1990.31 2114.16 1941.47 2223.08 1941.47 2267.94 1990.31 2267.94 2051.28 2208.83 2051.28 2208.83 2012.59 2192.83 1997.44 2144.41 1997.44 2128.43 2012.59 2128.43 2173.5 2144.41 2188.66 2188.04 2188.66 2208.83 2170.36 2208.83 2130.87 2161.71 2130.87 2161.71 2074.9 2267.94 2074.9 2267.94 2192.94"></polygon>
            <polyline id="Fill-73" fill="#2A8240" points="2507.97 2196.62 2460.81 2244.63 2361.89 2244.63 2310.94 2197.04 2310.94 2134.72 2369.03 2134.72 2369.03 2173.5 2384.1 2188.66 2434.8 2188.66 2449.89 2173.5 2449.89 2129.68 2434.73 2114.53 2358.94 2114.53 2310.94 2067.78 2310.94 1989.47 2359.05 1941.47 2459.85 1941.47 2507.97 1989.47 2507.97 2051.37 2449.89 2051.37 2449.89 2012.59 2434.8 1997.45 2384.1 1997.45 2369.03 2012.59 2369.03 2052.62 2384.17 2067.78 2457.45 2067.78 2507.97 2114.53 2507.97 2196.62"></polyline>
            <polygon id="Stroke-74" stroke="#51865A" stroke-width="0.735" points="2507.97 2196.62 2460.81 2244.63 2361.89 2244.63 2310.94 2197.04 2310.94 2134.72 2369.03 2134.72 2369.03 2173.5 2384.1 2188.66 2434.8 2188.66 2449.89 2173.5 2449.89 2129.68 2434.73 2114.53 2358.94 2114.53 2310.94 2067.78 2310.94 1989.47 2359.05 1941.47 2459.85 1941.47 2507.97 1989.47 2507.97 2051.37 2449.89 2051.37 2449.89 2012.59 2434.8 1997.45 2384.1 1997.45 2369.03 2012.59 2369.03 2052.62 2384.17 2067.78 2457.45 2067.78 2507.97 2114.53"></polygon>
            <polyline id="Fill-76" fill="#2A8240" points="1204.43 2196.62 1157.28 2244.63 1058.36 2244.63 1007.41 2197.04 1007.41 2134.72 1065.49 2134.72 1065.49 2173.5 1080.58 2188.66 1131.27 2188.66 1146.35 2173.5 1146.35 2129.68 1131.2 2114.53 1055.41 2114.53 1007.41 2067.78 1007.41 1989.47 1055.51 1941.47 1156.33 1941.47 1204.43 1989.47 1204.43 2051.37 1146.35 2051.37 1146.35 2012.59 1131.27 1997.45 1080.58 1997.45 1065.49 2012.59 1065.49 2052.62 1080.65 2067.78 1153.91 2067.78 1204.43 2114.53 1204.43 2196.62"></polyline>
            <polygon id="Stroke-77" stroke="#51865A" stroke-width="0.735" points="1204.43 2196.62 1157.28 2244.63 1058.36 2244.63 1007.41 2197.04 1007.41 2134.72 1065.49 2134.72 1065.49 2173.5 1080.58 2188.66 1131.27 2188.66 1146.35 2173.5 1146.35 2129.68 1131.2 2114.53 1055.41 2114.53 1007.41 2067.78 1007.41 1989.47 1055.51 1941.47 1156.33 1941.47 1204.43 1989.47 1204.43 2051.37 1146.35 2051.37 1146.35 2012.59 1131.27 1997.45 1080.58 1997.45 1065.49 2012.59 1065.49 2052.62 1080.65 2067.78 1153.91 2067.78 1204.43 2114.53"></polygon>
            <polyline id="Fill-79" fill="#2A8240" points="678.646 2244.63 565.856 2244.63 565.856 2192 591.122 2192 591.122 2060.88 545.139 2215.69 497.253 2215.69 444.144 2060.88 444.144 2192 469.409 2192 469.409 2244.63 356.62 2244.63 356.62 2192 380.62 2192 380.62 1997.44 356.62 1997.44 356.62 1941.47 455.902 1941.47 521.196 2120.21 579.357 1941.47 678.646 1941.47 678.646 1997.44 654.632 1997.44 654.632 2192 678.646 2192 678.646 2244.63"></polyline>
            <polygon id="Stroke-80" stroke="#51865A" stroke-width="0.735" points="678.646 2244.63 565.856 2244.63 565.856 2192 591.122 2192 591.122 2060.88 545.139 2215.69 497.253 2215.69 444.144 2060.88 444.144 2192 469.409 2192 469.409 2244.63 356.62 2244.63 356.62 2192 380.62 2192 380.62 1997.44 356.62 1997.44 356.62 1941.47 455.902 1941.47 521.196 2120.21 579.357 1941.47 678.646 1941.47 678.646 1997.44 654.632 1997.44 654.632 2192 678.646 2192"></polygon>
            <polyline id="Fill-82" fill="#2A8240" points="1407.8 2037.85 1407.8 1999.63 1381.48 1999.63 1381.48 2186.87 1414.93 2186.87 1414.93 2244.63 1281.79 2244.63 1281.79 2186.87 1314.82 2186.87 1314.82 1999.63 1288.06 1999.63 1288.06 2037.85 1236.7 2037.85 1236.7 1941.47 1459.18 1941.47 1459.18 2037.85 1407.8 2037.85"></polyline>
            <polygon id="Stroke-83" stroke="#51865A" stroke-width="0.735" points="1407.8 2037.85 1407.8 1999.63 1381.48 1999.63 1381.48 2186.87 1414.93 2186.87 1414.93 2244.63 1281.79 2244.63 1281.79 2186.87 1314.82 2186.87 1314.82 1999.63 1288.06 1999.63 1288.06 2037.85 1236.7 2037.85 1236.7 1941.47 1459.18 1941.47 1459.18 2037.85"></polygon>
            <path d="M1589.72,2018.85 L1562.09,2111.73 L1618.82,2111.73 L1589.72,2018.85 Z M1612.03,2244.63 L1612.03,2189.51 L1635.82,2189.51 L1626.9,2159.29 L1551.42,2159.29 L1541.64,2189.51 L1565,2189.51 L1565,2244.63 L1459.18,2244.63 L1459.18,2186.87 L1483.81,2186.87 L1535.27,1999.21 L1517.35,1999.21 L1517.35,1941.47 L1660.12,1941.47 L1660.29,1998.21 L1642.61,1998.27 L1702.48,2186.87 L1727.53,2186.87 L1727.53,2244.63 L1612.03,2244.63 Z" id="Fill-85" fill="#2A8240"></path>
            <path d="M1589.72,2018.85 L1562.09,2111.73 L1618.82,2111.73 L1589.72,2018.85 Z M1612.03,2244.63 L1612.03,2189.51 L1635.82,2189.51 L1626.9,2159.29 L1551.42,2159.29 L1541.64,2189.51 L1565,2189.51 L1565,2244.63 L1459.18,2244.63 L1459.18,2186.87 L1483.81,2186.87 L1535.27,1999.21 L1517.35,1999.21 L1517.35,1941.47 L1660.12,1941.47 L1660.29,1998.21 L1642.61,1998.27 L1702.48,2186.87 L1727.53,2186.87 L1727.53,2244.63 L1612.03,2244.63 Z" id="Stroke-86" stroke="#51865A" stroke-width="0.735"></path>
            <polyline id="Fill-88" fill="#2A8240" points="1995.59 1999.21 1995.59 2244.63 1920.87 2244.63 1841.05 2056.79 1841.05 2186.87 1866.1 2186.87 1866.1 2244.63 1754.43 2244.63 1754.43 2186.87 1780.33 2186.87 1780.33 1999.21 1754.43 1999.21 1754.43 1941.47 1857.61 1941.47 1934.88 2118.66 1934.88 1999.21 1910.26 1999.21 1910.26 1941.47 2021.92 1941.47 2021.92 1999.21 1995.59 1999.21"></polyline>
            <polygon id="Stroke-89" stroke="#51865A" stroke-width="0.735" points="1995.59 1999.21 1995.59 2244.63 1920.87 2244.63 1841.05 2056.79 1841.05 2186.87 1866.1 2186.87 1866.1 2244.63 1754.43 2244.63 1754.43 2186.87 1780.33 2186.87 1780.33 1999.21 1754.43 1999.21 1754.43 1941.47 1857.61 1941.47 1934.88 2118.66 1934.88 1999.21 1910.26 1999.21 1910.26 1941.47 2021.92 1941.47 2021.92 1999.21"></polygon>
        </g>
    </g>
</svg>