<?xml version="1.0" encoding="UTF-8" standalone="no"?>
<svg width="2690px" height="2805px" viewBox="0 0 2690 2805" version="1.1" xmlns="http://www.w3.org/2000/svg" xmlns:xlink="http://www.w3.org/1999/xlink">
    <!-- Generator: Sketch 49.1 (51147) - http://www.bohemiancoding.com/sketch -->
    <title>Salewskis_Swarm_V2</title>
    <desc>Created with Sketch.</desc>
    <defs></defs>
    <g id="Page-1" stroke="none" stroke-width="1" fill="none" fill-rule="evenodd">
        <g id="Salewskis_Swarm_V2">
            <path d="M312.383,959.008 C294.417,957.535 273.948,959.008 273.948,959.008 L273.861,959.089 C274.497,962.759 274.959,966.643 274.959,971.007 C274.959,1021.9 218.056,1042.87 197.098,1015.92 C197.098,1015.92 138.695,1098.45 135.715,1143.28 C132.708,1188.09 135.715,1242.01 135.715,1242.01 C135.715,1242.01 268.953,1093.79 333.349,1056.34 L333.349,985.954 C333.349,985.954 330.35,960.508 312.383,959.008" id="Fill-1" fill="#18783E"></path>
            <path d="M312.383,959.008 C294.417,957.535 273.948,959.008 273.948,959.008 L273.861,959.089 C274.497,962.759 274.959,966.643 274.959,971.007 C274.959,1021.9 218.056,1042.87 197.098,1015.92 C197.098,1015.92 138.695,1098.45 135.715,1143.28 C132.708,1188.09 135.715,1242.01 135.715,1242.01 C135.715,1242.01 268.953,1093.79 333.349,1056.34 L333.349,985.954 C333.349,985.954 330.35,960.508 312.383,959.008 Z" id="Stroke-2" stroke="#1A1919"></path>
            <path d="M74.318,1547.46 C267.466,1357.29 524.996,1252.48 524.996,1252.48 L528.672,1147.89 C234.776,1292.2 74.318,1547.46 74.318,1547.46" id="Fill-3" fill="#B66E2F"></path>
            <path d="M74.318,1547.46 C267.466,1357.29 524.996,1252.48 524.996,1252.48 L528.672,1147.89 C234.776,1292.2 74.318,1547.46 74.318,1547.46 Z" id="Stroke-4" stroke="#1A1919"></path>
            <path d="M459.12,906.619 L414.203,933.564 C420.182,976.981 397.724,1078.81 397.724,1078.81 C303.397,1134.2 104.27,1366.26 104.27,1366.26 L96.777,1227.04 C39.881,1340.82 74.318,1547.46 74.318,1547.46 C74.318,1547.46 234.776,1292.2 528.672,1147.89 L533.983,996.453 C478.579,991.954 459.12,906.619 459.12,906.619" id="Fill-5" fill="#EB8E2D"></path>
            <path d="M459.12,906.619 L414.203,933.564 C420.182,976.981 397.724,1078.81 397.724,1078.81 C303.397,1134.2 104.27,1366.26 104.27,1366.26 L96.777,1227.04 C39.881,1340.82 74.318,1547.46 74.318,1547.46 C74.318,1547.46 234.776,1292.2 528.672,1147.89 L533.983,996.453 C478.579,991.954 459.12,906.619 459.12,906.619 Z" id="Stroke-6" stroke="#1A1919"></path>
            <path d="M739.102,947.036 L766.053,872.174 L728.622,887.147 C728.622,887.147 701.678,996.453 604.343,1012.93 L604.343,1105.76 C604.343,1105.76 818.094,1000.85 1074.7,939.885 C1089.94,895.209 1122.22,808.322 1156.83,762.868 L739.102,947.036" id="Fill-7" fill="#EB8E2D"></path>
            <path d="M739.102,947.036 L766.053,872.174 L728.622,887.147 C728.622,887.147 701.678,996.453 604.343,1012.93 L604.343,1105.76 C604.343,1105.76 818.094,1000.85 1074.7,939.885 C1089.94,895.209 1122.22,808.322 1156.83,762.868 L739.102,947.036 Z" id="Stroke-8" stroke="#1A1919"></path>
            <path d="M707.657,1159.65 C707.657,1159.65 767.553,1035.37 923.263,1054.84 C923.263,1054.84 966.687,956.035 1065.51,968.008 C1065.51,968.008 1068.86,957.054 1074.7,939.885 C818.094,1000.85 604.343,1105.76 604.343,1105.76 C604.343,1105.76 683.705,1119.23 707.657,1159.65" id="Fill-9" fill="#B66E2F"></path>
            <path d="M707.657,1159.65 C707.657,1159.65 767.553,1035.37 923.263,1054.84 C923.263,1054.84 966.687,956.035 1065.51,968.008 C1065.51,968.008 1068.86,957.054 1074.7,939.885 C818.094,1000.85 604.343,1105.76 604.343,1105.76 C604.343,1105.76 683.705,1119.23 707.657,1159.65 Z" id="Stroke-10" stroke="#1A1919"></path>
            <path d="M837.921,842.23 L739.102,947.036 L1156.83,762.868 C1156.83,762.868 897.818,819.785 837.921,842.23" id="Fill-11" fill="#B66E2F"></path>
            <path d="M837.921,842.23 L739.102,947.036 L1156.83,762.868 C1156.83,762.868 897.818,819.785 837.921,842.23 Z" id="Stroke-12" stroke="#1A1919"></path>
            <path d="M1379.93,842.606 C1242.19,889.772 1198.76,920.092 1198.76,920.092 C1231.41,936.858 1244.6,980.758 1248.78,998.864 C1273.92,989.115 1323.01,973.981 1385.93,973.981 C1447.97,973.981 1491.16,988.686 1513.07,998.435 C1563.73,882.434 1637.83,798.813 1637.83,798.813 C1637.83,798.813 1517.68,795.438 1379.93,842.606" id="Fill-13" fill="#EB8E2D"></path>
            <path d="M1379.93,842.606 C1242.19,889.772 1198.76,920.092 1198.76,920.092 C1231.41,936.858 1244.6,980.758 1248.78,998.864 C1273.92,989.115 1323.01,973.981 1385.93,973.981 C1447.97,973.981 1491.16,988.686 1513.07,998.435 C1563.73,882.434 1637.83,798.813 1637.83,798.813 C1637.83,798.813 1517.68,795.438 1379.93,842.606 Z" id="Stroke-14" stroke="#1A1919"></path>
            <path d="M2193.7,1088.51 C2193.7,1088.51 1995.96,973.767 1753.5,1088.51 C1727.32,1100.88 1703.68,1114.52 1682.36,1128.87 C1767.48,1199.1 1782.25,1359.83 1782.25,1359.83 L1782.24,1359.86 C1820.75,1343.9 1861.79,1329.81 1903.97,1319.84 C2103.85,1272.7 2247.59,1382.73 2270.04,1445.62 C2270.04,1445.62 2297,1254.68 2193.7,1088.51" id="Fill-15" fill="#EB8E2D"></path>
            <path d="M2193.7,1088.51 C2193.7,1088.51 1995.96,973.767 1753.5,1088.51 C1727.32,1100.88 1703.68,1114.52 1682.36,1128.87 C1767.48,1199.1 1782.25,1359.83 1782.25,1359.83 L1782.24,1359.86 C1820.75,1343.9 1861.79,1329.81 1903.97,1319.84 C2103.85,1272.7 2247.59,1382.73 2270.04,1445.62 C2270.04,1445.62 2297,1254.68 2193.7,1088.51 Z" id="Stroke-16" stroke="#1A1919"></path>
            <path d="M1682.36,1128.87 C1533.55,1229.05 1497.47,1364.76 1497.47,1364.76 C1497.47,1364.76 1525.93,1443.37 1529.66,1506.26 C1529.66,1506.26 1638.26,1419.62 1782.24,1359.86 L1782.25,1359.83 C1782.25,1359.83 1767.48,1199.1 1682.36,1128.87" id="Fill-17" fill="#B66E2F"></path>
            <path d="M1682.36,1128.87 C1533.55,1229.05 1497.47,1364.76 1497.47,1364.76 C1497.47,1364.76 1525.93,1443.37 1529.66,1506.26 C1529.66,1506.26 1638.26,1419.62 1782.24,1359.86 L1782.25,1359.83 C1782.25,1359.83 1767.48,1199.1 1682.36,1128.87 Z" id="Stroke-18" stroke="#1A1919"></path>
            <path d="M1403.13,1789.24 C1403.13,1789.24 1461.4,1797.03 1527.24,1822.58 C1555.42,1798.24 1667.71,1698.65 1705.69,1626.98 C1645.16,1628.02 1572.8,1636.97 1486.23,1656.74 L1403.13,1789.24" id="Fill-19" fill="#B66E2F"></path>
            <path d="M1403.13,1789.24 C1403.13,1789.24 1461.4,1797.03 1527.24,1822.58 C1555.42,1798.24 1667.71,1698.65 1705.69,1626.98 C1645.16,1628.02 1572.8,1636.97 1486.23,1656.74 L1403.13,1789.24 Z" id="Stroke-20" stroke="#1A1919"></path>
            <path d="M1527.24,1822.58 C1611.57,1855.34 1708.29,1917.29 1710.83,2029.54 C1710.83,2029.54 1944.39,1901.54 2014.01,1843.15 C2014.01,1843.15 2029.94,1621.49 1705.69,1626.98 C1667.71,1698.65 1555.42,1798.24 1527.24,1822.58" id="Fill-21" fill="#EB8E2D"></path>
            <path d="M1527.24,1822.58 C1611.57,1855.34 1708.29,1917.29 1710.83,2029.54 C1710.83,2029.54 1944.39,1901.54 2014.01,1843.15 C2014.01,1843.15 2029.94,1621.49 1705.69,1626.98 C1667.71,1698.65 1555.42,1798.24 1527.24,1822.58 Z" id="Stroke-22" stroke="#1A1919"></path>
            <path d="M1236.94,1932.99 L1111.17,1995.88 C1131.48,1997.08 1149.48,2002.22 1165.39,2009.78 C1194.17,1997.35 1232.51,1980.66 1268.79,1964.54 C1253.97,1942.87 1236.94,1932.99 1236.94,1932.99" id="Fill-23" fill="#B66E2F"></path>
            <path d="M1236.94,1932.99 L1111.17,1995.88 C1131.48,1997.08 1149.48,2002.22 1165.39,2009.78 C1194.17,1997.35 1232.51,1980.66 1268.79,1964.54 C1253.97,1942.87 1236.94,1932.99 1236.94,1932.99 Z" id="Stroke-24" stroke="#1A1919"></path>
            <path d="M1266.13,2128.38 C1305.7,2047.44 1289.38,1994.59 1268.79,1964.54 C1232.51,1980.66 1194.17,1997.35 1165.39,2009.78 C1237.47,2044.01 1266.13,2128.38 1266.13,2128.38" id="Fill-25" fill="#EB8E2D"></path>
            <path d="M1266.13,2128.38 C1305.7,2047.44 1289.38,1994.59 1268.79,1964.54 C1232.51,1980.66 1194.17,1997.35 1165.39,2009.78 C1237.47,2044.01 1266.13,2128.38 1266.13,2128.38 Z" id="Stroke-26" stroke="#1A1919"></path>
            <path d="M974.173,2062.49 C902.305,2065.49 819.95,2116.38 593.872,2141.85 C367.774,2167.32 111.75,2156.82 111.75,2156.82 C339.274,2195.96 655.254,2171.8 797.491,2159.82 C901.253,2151.09 991.396,2135.18 1032.62,2127.23 C1033.61,2093.08 1012.33,2060.91 974.173,2062.49" id="Fill-27" fill="#FFFFFE"></path>
            <path d="M974.173,2062.49 C902.305,2065.49 819.95,2116.38 593.872,2141.85 C367.774,2167.32 111.75,2156.82 111.75,2156.82 C339.274,2195.96 655.254,2171.8 797.491,2159.82 C901.253,2151.09 991.396,2135.18 1032.62,2127.23 C1033.61,2093.08 1012.33,2060.91 974.173,2062.49 Z" id="Stroke-28" stroke="#1A1919"></path>
            <path d="M797.491,2159.82 C655.254,2171.8 339.274,2195.96 111.75,2156.82 C111.75,2156.82 418.696,2224.19 548.955,2230.19 C679.213,2236.19 890.332,2224.19 974.173,2200.24 C1013.5,2189.02 1031.74,2157.36 1032.62,2127.23 C991.396,2135.18 901.253,2151.09 797.491,2159.82" id="Fill-29" fill="#C7C7C2"></path>
            <path d="M797.491,2159.82 C655.254,2171.8 339.274,2195.96 111.75,2156.82 C111.75,2156.82 418.696,2224.19 548.955,2230.19 C679.213,2236.19 890.332,2224.19 974.173,2200.24 C1013.5,2189.02 1031.74,2157.36 1032.62,2127.23 C991.396,2135.18 901.253,2151.09 797.491,2159.82 Z" id="Stroke-30" stroke="#1A1919"></path>
            <path d="M1037.05,1424.68 C1037.05,1424.68 963.686,1619.32 767.553,1761.54 C767.553,1761.54 882.839,1710.65 920.269,1656.74 L927.755,1701.65 C927.755,1701.65 1067,1542.96 1072.99,1506.26 C1078.99,1469.6 1068.5,1441.12 1037.05,1424.68" id="Fill-31" fill="#EB8E2D"></path>
            <path d="M1037.05,1424.68 C1037.05,1424.68 963.686,1619.32 767.553,1761.54 C767.553,1761.54 882.839,1710.65 920.269,1656.74 L927.755,1701.65 C927.755,1701.65 1067,1542.96 1072.99,1506.26 C1078.99,1469.6 1068.5,1441.12 1037.05,1424.68 Z" id="Stroke-32" stroke="#1A1919"></path>
            <path d="M1216.73,1402.21 C1216.73,1402.21 1176.3,1528.15 1095.45,1626.87 C1014.6,1725.63 866.36,1861.85 782.526,1894.79 C782.526,1894.79 941.229,1854.38 1096.95,1698.65 L1119.41,1715.13 C1119.41,1715.13 1213.74,1607.32 1245.17,1541.46 C1276.62,1475.57 1239.19,1412.71 1216.73,1402.21" id="Fill-33" fill="#EB8E2D"></path>
            <path d="M1216.73,1402.21 C1216.73,1402.21 1176.3,1528.15 1095.45,1626.87 C1014.6,1725.63 866.36,1861.85 782.526,1894.79 C782.526,1894.79 941.229,1854.38 1096.95,1698.65 L1119.41,1715.13 C1119.41,1715.13 1213.74,1607.32 1245.17,1541.46 C1276.62,1475.57 1239.19,1412.71 1216.73,1402.21 Z" id="Stroke-34" stroke="#1A1919"></path>
            <path d="M736.108,1648.51 C851.395,1550.46 880.589,1469.6 880.589,1469.6 C822.95,1463.6 736.108,1648.51 736.108,1648.51" id="Fill-35" fill="#EB8E2D"></path>
            <path d="M736.108,1648.51 C851.395,1550.46 880.589,1469.6 880.589,1469.6 C822.95,1463.6 736.108,1648.51 736.108,1648.51 Z" id="Stroke-36" stroke="#1A1919"></path>
            <path d="M875.352,1105.76 C824.442,1116.23 792.999,1171.62 792.999,1171.62 L710.657,1366.26 C710.657,1366.26 742.101,1399.21 782.526,1424.68 C822.943,1450.12 875.352,1445.62 875.352,1445.62 L782.526,1354.29 L875.352,1105.76" id="Fill-37" fill="#EB8E2D"></path>
            <path d="M875.352,1105.76 C824.442,1116.23 792.999,1171.62 792.999,1171.62 L710.657,1366.26 C710.657,1366.26 742.101,1399.21 782.526,1424.68 C822.943,1450.12 875.352,1445.62 875.352,1445.62 L782.526,1354.29 L875.352,1105.76 Z" id="Stroke-38" stroke="#1A1919"></path>
            <path d="M954.708,1330.34 L1047.54,1023.16 C975.673,1063.31 953.214,1132.7 953.214,1132.7 L867.866,1384.23 C867.866,1384.23 998.132,1394.73 1040.05,1391.73 C1081.97,1388.73 1093.95,1340.07 1093.95,1340.07 L954.708,1330.34" id="Fill-39" fill="#EB8E2D"></path>
            <path d="M954.708,1330.34 L1047.54,1023.16 C975.673,1063.31 953.214,1132.7 953.214,1132.7 L867.866,1384.23 C867.866,1384.23 998.132,1394.73 1040.05,1391.73 C1081.97,1388.73 1093.95,1340.07 1093.95,1340.07 L954.708,1330.34 Z" id="Stroke-40" stroke="#1A1919"></path>
            <g id="Group-46">
                <path d="M782.526,710.479 C782.526,710.479 1029.55,288.253 1682.36,147.508 C2335.17,6.766 2643.6,267.281 2643.6,267.281 C2643.6,267.281 2386.74,-66.57 1713.07,63.661 C1039.38,193.9 796.005,641.59 782.526,710.479" id="Fill-41" fill="#0B0B09"></path>
                <path d="M782.526,710.479 C782.526,710.479 1029.55,288.253 1682.36,147.508 C2335.17,6.766 2643.6,267.281 2643.6,267.281 C2643.6,267.281 2386.74,-66.57 1713.07,63.661 C1039.38,193.9 796.005,641.59 782.526,710.479 Z M880.589,1469.6 C822.95,1463.6 736.108,1648.51 736.108,1648.51 C851.395,1550.46 880.589,1469.6 880.589,1469.6 Z M920.269,1656.74 L927.755,1701.65 C927.755,1701.65 1067,1542.96 1072.99,1506.26 C1078.99,1469.6 1068.5,1441.12 1037.05,1424.68 C1037.05,1424.68 963.686,1619.32 767.553,1761.54 C767.553,1761.54 882.839,1710.65 920.269,1656.74 Z M1236.94,1932.99 L1111.17,1995.88 C1131.48,1997.08 1149.48,2002.22 1165.39,2009.78 C1237.47,2044.01 1266.13,2128.38 1266.13,2128.38 C1305.7,2047.44 1289.38,1994.59 1268.79,1964.54 C1253.97,1942.87 1236.94,1932.99 1236.94,1932.99 Z M974.173,2062.49 C902.305,2065.49 819.95,2116.38 593.872,2141.85 C367.774,2167.32 111.75,2156.82 111.75,2156.82 C111.75,2156.82 418.696,2224.19 548.955,2230.19 C679.213,2236.19 890.332,2224.19 974.173,2200.24 C1013.5,2189.02 1031.74,2157.36 1032.62,2127.23 C1033.61,2093.08 1012.33,2060.91 974.173,2062.49 Z M1216.73,1402.21 C1216.73,1402.21 1176.3,1528.15 1095.45,1626.87 C1014.6,1725.63 866.36,1861.85 782.526,1894.79 C782.526,1894.79 941.229,1854.38 1096.95,1698.65 L1119.41,1715.13 C1119.41,1715.13 1213.74,1607.32 1245.17,1541.46 C1276.62,1475.57 1239.19,1412.71 1216.73,1402.21 Z M459.12,906.619 L414.203,933.564 C420.182,976.981 397.724,1078.81 397.724,1078.81 C303.397,1134.2 104.27,1366.26 104.27,1366.26 L96.777,1227.04 C39.881,1340.82 74.318,1547.46 74.318,1547.46 C267.466,1357.29 524.996,1252.48 524.996,1252.48 L533.983,996.453 C478.579,991.954 459.12,906.619 459.12,906.619 Z M953.214,1132.7 L867.866,1384.23 C867.866,1384.23 998.132,1394.73 1040.05,1391.73 C1081.97,1388.73 1093.95,1340.07 1093.95,1340.07 L954.708,1330.34 L1047.54,1023.16 C975.673,1063.31 953.214,1132.7 953.214,1132.7 Z M875.352,1445.62 L782.526,1354.29 L875.352,1105.76 C824.442,1116.23 792.999,1171.62 792.999,1171.62 L710.657,1366.26 C710.657,1366.26 742.101,1399.21 782.526,1424.68 C822.943,1450.12 875.352,1445.62 875.352,1445.62 Z M1146.36,961.258 L1110.42,1227.04 L1267.64,1170.12 L1222.72,1378.26 C1222.72,1378.26 1306.56,1370.76 1324.53,1313.87 C1342.5,1256.98 1355.97,1132.7 1351.48,1105.76 C1346.99,1078.81 1324.53,1071.31 1324.53,1071.31 C1335.02,1057.84 1373.94,1063.81 1373.94,1105.76 C1373.94,1147.68 1358.97,1264.46 1358.97,1264.46 L1429.34,1279.43 C1429.34,1279.43 1448.81,1170.12 1498.22,1035.37 C1502.85,1022.76 1507.83,1010.43 1513.07,998.435 C1563.73,882.434 1637.83,798.813 1637.83,798.813 C1637.83,798.813 1517.68,795.438 1379.93,842.606 C1242.19,889.772 1198.76,920.092 1198.76,920.092 C1231.41,936.858 1244.6,980.758 1248.78,998.864 C1249.91,1003.79 1250.42,1006.93 1250.42,1006.93 L1250.42,1097.51 L1194.27,1120.73 C1225.71,975.481 1146.36,961.258 1146.36,961.258 Z M1403.13,1789.24 C1403.13,1789.24 1461.4,1797.03 1527.24,1822.58 C1611.57,1855.34 1708.29,1917.29 1710.83,2029.54 C1710.83,2029.54 1944.39,1901.54 2014.01,1843.15 C2014.01,1843.15 2029.94,1621.49 1705.69,1626.98 C1645.16,1628.02 1572.8,1636.97 1486.23,1656.74 L1403.13,1789.24 Z M728.622,887.147 C728.622,887.147 701.678,996.453 604.343,1012.93 L604.343,1105.76 C604.343,1105.76 683.705,1119.23 707.657,1159.65 C707.657,1159.65 767.553,1035.37 923.263,1054.84 C923.263,1054.84 966.687,956.035 1065.51,968.008 C1065.51,968.008 1108.93,825.757 1156.83,762.868 C1156.83,762.868 897.818,819.785 837.921,842.23 L739.102,947.036 L766.053,872.174 L728.622,887.147 Z M1497.47,1364.76 C1497.47,1364.76 1525.93,1443.37 1529.66,1506.26 C1529.66,1506.26 1638.26,1419.62 1782.24,1359.86 C1820.75,1343.9 1861.79,1329.81 1903.97,1319.84 C2103.85,1272.7 2247.59,1382.73 2270.04,1445.62 C2270.04,1445.62 2297,1254.68 2193.7,1088.51 C2193.7,1088.51 1995.96,973.767 1753.5,1088.51 C1727.32,1100.88 1703.68,1114.52 1682.36,1128.87 C1533.55,1229.05 1497.47,1364.76 1497.47,1364.76 Z" id="Stroke-43" stroke="#1A1919"></path>
                <path d="M1921.62,524.194 C1454.48,436.597 1139.3,611.778 949.907,739.808 C793.213,845.712 757.83,910.074 750.277,929.172 C748.892,933.082 748.302,935.225 748.302,935.225 C748.302,935.225 748.697,933.162 750.277,929.172 C752.421,923.119 756.565,912.646 763.89,898.182 C794.123,838.506 878.125,711.979 1095.89,557.877 C1400.58,342.277 1664.84,227.962 2073.58,260.679 C2423.02,288.648 2687.46,652.973 2573.68,1114.12 C2573.68,1114.12 2573.01,1112.35 2571.76,1109.11 C2551.13,1056.9 2361.53,606.677 1921.62,524.194 Z M1156.83,762.868 C1108.93,825.757 1065.51,968.008 1065.51,968.008 C966.687,956.035 923.263,1054.84 923.263,1054.84 C767.553,1035.37 707.657,1159.65 707.657,1159.65 C683.705,1119.23 604.343,1105.76 604.343,1105.76 L604.343,1012.93 C701.678,996.453 728.622,887.147 728.622,887.147 L766.053,872.174 L739.102,947.036 L837.921,842.23 C897.818,819.785 1156.83,762.868 1156.83,762.868 Z M1250.42,1097.51 L1250.42,1006.93 C1250.42,1006.93 1249.91,1003.79 1248.78,998.864 C1244.6,980.758 1231.41,936.858 1198.76,920.092 C1198.76,920.092 1242.19,889.772 1379.93,842.606 C1517.68,795.438 1637.83,798.813 1637.83,798.813 C1637.83,798.813 1563.73,882.434 1513.07,998.435 C1507.83,1010.43 1502.85,1022.76 1498.22,1035.37 C1448.81,1170.12 1429.34,1279.43 1429.34,1279.43 L1358.97,1264.46 C1358.97,1264.46 1373.94,1147.68 1373.94,1105.76 C1373.94,1063.81 1335.02,1057.84 1324.53,1071.31 C1324.53,1071.31 1346.99,1078.81 1351.48,1105.76 C1355.97,1132.7 1342.5,1256.98 1324.53,1313.87 C1306.56,1370.76 1222.72,1378.26 1222.72,1378.26 L1267.64,1170.12 L1110.42,1227.04 L1146.36,961.258 C1146.36,961.258 1225.71,975.481 1194.27,1120.73 L1250.42,1097.51 Z M1753.5,1088.51 C1995.96,973.767 2193.7,1088.51 2193.7,1088.51 C2297,1254.68 2270.04,1445.62 2270.04,1445.62 C2247.59,1382.73 2103.85,1272.7 1903.97,1319.84 C1861.79,1329.81 1820.75,1343.9 1782.24,1359.86 C1638.26,1419.62 1529.66,1506.26 1529.66,1506.26 C1525.93,1443.37 1497.47,1364.76 1497.47,1364.76 C1497.47,1364.76 1533.55,1229.05 1682.36,1128.87 C1703.68,1114.52 1727.32,1100.88 1753.5,1088.51 Z M2014.01,1843.15 C1944.39,1901.54 1710.83,2029.54 1710.83,2029.54 C1708.29,1917.29 1611.57,1855.34 1527.24,1822.58 C1461.4,1797.03 1403.13,1789.24 1403.13,1789.24 L1486.23,1656.74 C1572.8,1636.97 1645.16,1628.02 1705.69,1626.98 C2029.94,1621.49 2014.01,1843.15 2014.01,1843.15 Z M1245.17,1541.46 C1213.74,1607.32 1119.41,1715.13 1119.41,1715.13 L1096.95,1698.65 C941.229,1854.38 782.526,1894.79 782.526,1894.79 C866.36,1861.85 1014.6,1725.63 1095.45,1626.87 C1176.3,1528.15 1216.73,1402.21 1216.73,1402.21 C1239.19,1412.71 1276.62,1475.57 1245.17,1541.46 Z M767.553,1761.54 C963.686,1619.32 1037.05,1424.68 1037.05,1424.68 C1068.5,1441.12 1078.99,1469.6 1072.99,1506.26 C1067,1542.96 927.755,1701.65 927.755,1701.65 L920.269,1656.74 C882.839,1710.65 767.553,1761.54 767.553,1761.54 Z M736.108,1648.51 C736.108,1648.51 822.95,1463.6 880.589,1469.6 C880.589,1469.6 851.395,1550.46 736.108,1648.51 Z M1093.95,1340.07 C1093.95,1340.07 1081.97,1388.73 1040.05,1391.73 C998.132,1394.73 867.866,1384.23 867.866,1384.23 L953.214,1132.7 C953.214,1132.7 975.673,1063.31 1047.54,1023.16 L954.708,1330.34 L1093.95,1340.07 Z M710.657,1366.26 L792.999,1171.62 C792.999,1171.62 824.442,1116.23 875.352,1105.76 L782.526,1354.29 L875.352,1445.62 C875.352,1445.62 822.943,1450.12 782.526,1424.68 C742.101,1399.21 710.657,1366.26 710.657,1366.26 Z M1266.13,2128.38 C1266.13,2128.38 1237.47,2044.01 1165.39,2009.78 C1149.48,2002.22 1131.48,1997.08 1111.17,1995.88 L1236.94,1932.99 C1236.94,1932.99 1253.97,1942.87 1268.79,1964.54 C1289.38,1994.59 1305.7,2047.44 1266.13,2128.38 Z M974.173,2200.24 C890.332,2224.19 679.213,2236.19 548.955,2230.19 C418.696,2224.19 111.75,2156.82 111.75,2156.82 C111.75,2156.82 367.774,2167.32 593.872,2141.85 C819.95,2116.38 902.305,2065.49 974.173,2062.49 C1012.33,2060.91 1033.61,2093.08 1032.62,2127.23 C1031.74,2157.36 1013.5,2189.02 974.173,2200.24 Z M528.672,1147.89 L524.996,1252.48 C524.996,1252.48 267.466,1357.29 74.318,1547.46 C74.318,1547.46 39.881,1340.82 96.777,1227.04 L104.27,1366.26 C104.27,1366.26 303.397,1134.2 397.724,1078.81 C397.724,1078.81 420.182,976.981 414.203,933.564 L459.12,906.619 C459.12,906.619 478.579,991.954 533.983,996.453 L528.672,1147.89 Z M2676.56,726.951 C2609.17,322.685 2272.29,160.982 1881.5,174.454 C1490.73,187.933 978.666,506.853 807.978,749.396 L658.247,800.313 C658.247,800.313 664.24,899.12 592.372,917.091 L613.33,755.396 L550.448,776.368 C550.448,776.368 879.846,255.316 1290.1,0.778 C1290.1,0.778 751.081,267.281 430.669,836.257 L376.765,860.203 C376.765,860.203 604.343,411.019 897.811,147.508 C897.811,147.508 613.33,312.212 295.918,887.147 C295.918,887.147 251.001,893.12 227.036,917.091 C227.036,917.091 267.011,919.716 273.861,959.089 L273.948,959.008 C273.948,959.008 294.417,957.535 312.383,959.008 C330.35,960.508 333.349,985.954 333.349,985.954 L333.349,1056.34 C268.953,1093.79 135.715,1242.01 135.715,1242.01 C135.715,1242.01 132.708,1188.09 135.715,1143.28 C138.695,1098.45 197.098,1015.92 197.098,1015.92 C176.138,988.953 188.112,959.008 188.112,959.008 C188.112,959.008 122.236,1012.93 98.277,1111.73 C98.277,1111.73 -60.257,1266.04 26.409,1706.15 C26.409,1706.15 280.195,1398.46 603.6,1304.12 L603.6,1207.56 C603.6,1207.56 661.997,1221.04 670.976,1256.98 L641.781,1400.71 L751.831,1477.07 C751.831,1477.07 691.191,1632.04 594.615,1764.54 L751.831,1706.15 C751.831,1706.15 605.851,1856.63 560.926,1879.07 L830.437,1798.24 C830.437,1798.24 601.358,1968.91 450.884,1991.38 C450.884,1991.38 756.325,2022.82 1090.96,1789.24 L1108.92,1827.43 C1108.92,1827.43 1376.99,1591.6 1341.78,1454.62 L1416.61,1405.21 C1416.61,1405.21 1496.72,1569.9 1308.07,1755.57 C1119.41,1941.21 559.426,2144.85 44.374,2147.85 C44.374,2147.85 511.517,2291.57 1041.55,2285.57 L1113.42,2147.85 L1176.3,2270.63 C1176.3,2270.63 1397.9,2243.66 1622.48,2156.82 L1607.51,2210.74 C1607.51,2210.74 1921.94,2084.96 2008.78,1995.13 L2008.78,2043.04 C2008.78,2043.04 2218.39,1923.27 2296.25,1632.79 L2323.2,1644.76 C2323.2,1644.76 2434,1414.18 2338.17,1144.68 L2359.13,1144.68 C2359.13,1144.68 2182.46,734.424 1784.19,713.478 L1799.17,677.535 C1799.17,677.535 1532.65,632.618 1272.13,764.369 L1367.95,629.617 L1080.47,671.535 C1080.47,671.535 1502.72,434.978 1906.97,590.7 C2311.22,746.423 2600.2,1050.34 2505.87,1562.4 C2505.87,1562.4 2743.92,1131.2 2676.56,726.951 Z" id="Fill-44" fill="#0B0B09"></path>
                <path d="M1921.62,524.194 C1454.48,436.597 1139.3,611.778 949.907,739.808 C793.213,845.712 757.83,910.074 750.277,929.172 C748.892,933.082 748.302,935.225 748.302,935.225 C748.302,935.225 748.697,933.162 750.277,929.172 C752.421,923.119 756.565,912.646 763.89,898.182 C794.123,838.506 878.125,711.979 1095.89,557.877 C1400.58,342.277 1664.84,227.962 2073.58,260.679 C2423.02,288.648 2687.46,652.973 2573.68,1114.12 C2573.68,1114.12 2573.01,1112.35 2571.76,1109.11 C2551.13,1056.9 2361.53,606.677 1921.62,524.194 Z M1156.83,762.868 C1108.93,825.757 1065.51,968.008 1065.51,968.008 C966.687,956.035 923.263,1054.84 923.263,1054.84 C767.553,1035.37 707.657,1159.65 707.657,1159.65 C683.705,1119.23 604.343,1105.76 604.343,1105.76 L604.343,1012.93 C701.678,996.453 728.622,887.147 728.622,887.147 L766.053,872.174 L739.102,947.036 L837.921,842.23 C897.818,819.785 1156.83,762.868 1156.83,762.868 Z M1250.42,1097.51 L1250.42,1006.93 C1250.42,1006.93 1249.91,1003.79 1248.78,998.864 C1244.6,980.758 1231.41,936.858 1198.76,920.092 C1198.76,920.092 1242.19,889.772 1379.93,842.606 C1517.68,795.438 1637.83,798.813 1637.83,798.813 C1637.83,798.813 1563.73,882.434 1513.07,998.435 C1507.83,1010.43 1502.85,1022.76 1498.22,1035.37 C1448.81,1170.12 1429.34,1279.43 1429.34,1279.43 L1358.97,1264.46 C1358.97,1264.46 1373.94,1147.68 1373.94,1105.76 C1373.94,1063.81 1335.02,1057.84 1324.53,1071.31 C1324.53,1071.31 1346.99,1078.81 1351.48,1105.76 C1355.97,1132.7 1342.5,1256.98 1324.53,1313.87 C1306.56,1370.76 1222.72,1378.26 1222.72,1378.26 L1267.64,1170.12 L1110.42,1227.04 L1146.36,961.258 C1146.36,961.258 1225.71,975.481 1194.27,1120.73 L1250.42,1097.51 Z M1753.5,1088.51 C1995.96,973.767 2193.7,1088.51 2193.7,1088.51 C2297,1254.68 2270.04,1445.62 2270.04,1445.62 C2247.59,1382.73 2103.85,1272.7 1903.97,1319.84 C1861.79,1329.81 1820.75,1343.9 1782.24,1359.86 C1638.26,1419.62 1529.66,1506.26 1529.66,1506.26 C1525.93,1443.37 1497.47,1364.76 1497.47,1364.76 C1497.47,1364.76 1533.55,1229.05 1682.36,1128.87 C1703.68,1114.52 1727.32,1100.88 1753.5,1088.51 Z M2014.01,1843.15 C1944.39,1901.54 1710.83,2029.54 1710.83,2029.54 C1708.29,1917.29 1611.57,1855.34 1527.24,1822.58 C1461.4,1797.03 1403.13,1789.24 1403.13,1789.24 L1486.23,1656.74 C1572.8,1636.97 1645.16,1628.02 1705.69,1626.98 C2029.94,1621.49 2014.01,1843.15 2014.01,1843.15 Z M1245.17,1541.46 C1213.74,1607.32 1119.41,1715.13 1119.41,1715.13 L1096.95,1698.65 C941.229,1854.38 782.526,1894.79 782.526,1894.79 C866.36,1861.85 1014.6,1725.63 1095.45,1626.87 C1176.3,1528.15 1216.73,1402.21 1216.73,1402.21 C1239.19,1412.71 1276.62,1475.57 1245.17,1541.46 Z M767.553,1761.54 C963.686,1619.32 1037.05,1424.68 1037.05,1424.68 C1068.5,1441.12 1078.99,1469.6 1072.99,1506.26 C1067,1542.96 927.755,1701.65 927.755,1701.65 L920.269,1656.74 C882.839,1710.65 767.553,1761.54 767.553,1761.54 Z M736.108,1648.51 C736.108,1648.51 822.95,1463.6 880.589,1469.6 C880.589,1469.6 851.395,1550.46 736.108,1648.51 Z M1093.95,1340.07 C1093.95,1340.07 1081.97,1388.73 1040.05,1391.73 C998.132,1394.73 867.866,1384.23 867.866,1384.23 L953.214,1132.7 C953.214,1132.7 975.673,1063.31 1047.54,1023.16 L954.708,1330.34 L1093.95,1340.07 Z M710.657,1366.26 L792.999,1171.62 C792.999,1171.62 824.442,1116.23 875.352,1105.76 L782.526,1354.29 L875.352,1445.62 C875.352,1445.62 822.943,1450.12 782.526,1424.68 C742.101,1399.21 710.657,1366.26 710.657,1366.26 Z M1266.13,2128.38 C1266.13,2128.38 1237.47,2044.01 1165.39,2009.78 C1149.48,2002.22 1131.48,1997.08 1111.17,1995.88 L1236.94,1932.99 C1236.94,1932.99 1253.97,1942.87 1268.79,1964.54 C1289.38,1994.59 1305.7,2047.44 1266.13,2128.38 Z M974.173,2200.24 C890.332,2224.19 679.213,2236.19 548.955,2230.19 C418.696,2224.19 111.75,2156.82 111.75,2156.82 C111.75,2156.82 367.774,2167.32 593.872,2141.85 C819.95,2116.38 902.305,2065.49 974.173,2062.49 C1012.33,2060.91 1033.61,2093.08 1032.62,2127.23 C1031.74,2157.36 1013.5,2189.02 974.173,2200.24 Z M528.672,1147.89 L524.996,1252.48 C524.996,1252.48 267.466,1357.29 74.318,1547.46 C74.318,1547.46 39.881,1340.82 96.777,1227.04 L104.27,1366.26 C104.27,1366.26 303.397,1134.2 397.724,1078.81 C397.724,1078.81 420.182,976.981 414.203,933.564 L459.12,906.619 C459.12,906.619 478.579,991.954 533.983,996.453 L528.672,1147.89 Z M2676.56,726.951 C2609.17,322.685 2272.29,160.982 1881.5,174.454 C1490.73,187.933 978.666,506.853 807.978,749.396 L658.247,800.313 C658.247,800.313 664.24,899.12 592.372,917.091 L613.33,755.396 L550.448,776.368 C550.448,776.368 879.846,255.316 1290.1,0.778 C1290.1,0.778 751.081,267.281 430.669,836.257 L376.765,860.203 C376.765,860.203 604.343,411.019 897.811,147.508 C897.811,147.508 613.33,312.212 295.918,887.147 C295.918,887.147 251.001,893.12 227.036,917.091 C227.036,917.091 267.011,919.716 273.861,959.089 L273.948,959.008 C273.948,959.008 294.417,957.535 312.383,959.008 C330.35,960.508 333.349,985.954 333.349,985.954 L333.349,1056.34 C268.953,1093.79 135.715,1242.01 135.715,1242.01 C135.715,1242.01 132.708,1188.09 135.715,1143.28 C138.695,1098.45 197.098,1015.92 197.098,1015.92 C176.138,988.953 188.112,959.008 188.112,959.008 C188.112,959.008 122.236,1012.93 98.277,1111.73 C98.277,1111.73 -60.257,1266.04 26.409,1706.15 C26.409,1706.15 280.195,1398.46 603.6,1304.12 L603.6,1207.56 C603.6,1207.56 661.997,1221.04 670.976,1256.98 L641.781,1400.71 L751.831,1477.07 C751.831,1477.07 691.191,1632.04 594.615,1764.54 L751.831,1706.15 C751.831,1706.15 605.851,1856.63 560.926,1879.07 L830.437,1798.24 C830.437,1798.24 601.358,1968.91 450.884,1991.38 C450.884,1991.38 756.325,2022.82 1090.96,1789.24 L1108.92,1827.43 C1108.92,1827.43 1376.99,1591.6 1341.78,1454.62 L1416.61,1405.21 C1416.61,1405.21 1496.72,1569.9 1308.07,1755.57 C1119.41,1941.21 559.426,2144.85 44.374,2147.85 C44.374,2147.85 511.517,2291.57 1041.55,2285.57 L1113.42,2147.85 L1176.3,2270.63 C1176.3,2270.63 1397.9,2243.66 1622.48,2156.82 L1607.51,2210.74 C1607.51,2210.74 1921.94,2084.96 2008.78,1995.13 L2008.78,2043.04 C2008.78,2043.04 2218.39,1923.27 2296.25,1632.79 L2323.2,1644.76 C2323.2,1644.76 2434,1414.18 2338.17,1144.68 L2359.13,1144.68 C2359.13,1144.68 2182.46,734.424 1784.19,713.478 L1799.17,677.535 C1799.17,677.535 1532.65,632.618 1272.13,764.369 L1367.95,629.617 L1080.47,671.535 C1080.47,671.535 1502.72,434.978 1906.97,590.7 C2311.22,746.423 2600.2,1050.34 2505.87,1562.4 C2505.87,1562.4 2743.92,1131.2 2676.56,726.951 Z" id="Stroke-45" stroke="#1A1919"></path>
            </g>
            <path d="M2143.53,464.921 C1948.89,384.066 1568.58,366.108 1209.24,535.297 C942.869,660.714 813.207,822.704 763.89,898.182 C756.565,912.646 752.421,923.119 750.277,929.172 C757.83,910.074 793.213,845.712 949.907,739.808 C1139.3,611.778 1454.48,436.597 1921.62,524.194 C2361.53,606.677 2551.13,1056.9 2571.76,1109.11 L2571.76,1105.76 C2520.85,758.395 2338.17,545.77 2143.53,464.921" id="Fill-47" fill="#C7C7C2"></path>
            <path d="M2143.53,464.921 C1948.89,384.066 1568.58,366.108 1209.24,535.297 C942.869,660.714 813.207,822.704 763.89,898.182 C756.565,912.646 752.421,923.119 750.277,929.172 C757.83,910.074 793.213,845.712 949.907,739.808 C1139.3,611.778 1454.48,436.597 1921.62,524.194 C2361.53,606.677 2551.13,1056.9 2571.76,1109.11 L2571.76,1105.76 C2520.85,758.395 2338.17,545.77 2143.53,464.921 Z" id="Stroke-48" stroke="#1A1919"></path>
            <path d="M750.277,929.172 C748.697,933.162 748.302,935.225 748.302,935.225 C748.302,935.225 748.892,933.082 750.277,929.172" id="Fill-49" fill="#0B0B09"></path>
            <path d="M750.277,929.172 C748.697,933.162 748.302,935.225 748.302,935.225 C748.302,935.225 748.892,933.082 750.277,929.172 Z" id="Stroke-50" stroke="#1A1919"></path>
            <path d="M2073.58,260.679 C1664.84,227.962 1400.58,342.277 1095.89,557.877 C878.125,711.979 794.123,838.506 763.89,898.182 C813.207,822.704 942.869,660.714 1209.24,535.297 C1568.58,366.108 1948.89,384.066 2143.53,464.921 C2338.17,545.77 2520.85,758.395 2571.76,1105.76 L2571.76,1109.11 C2573.01,1112.35 2573.68,1114.12 2573.68,1114.12 C2687.46,652.973 2423.02,288.648 2073.58,260.679" id="Fill-51" fill="#FFFFFE"></path>
            <path d="M2073.58,260.679 C1664.84,227.962 1400.58,342.277 1095.89,557.877 C878.125,711.979 794.123,838.506 763.89,898.182 C813.207,822.704 942.869,660.714 1209.24,535.297 C1568.58,366.108 1948.89,384.066 2143.53,464.921 C2338.17,545.77 2520.85,758.395 2571.76,1105.76 L2571.76,1109.11 C2573.01,1112.35 2573.68,1114.12 2573.68,1114.12 C2687.46,652.973 2423.02,288.648 2073.58,260.679 Z" id="Stroke-52" stroke="#1A1919"></path>
            <path d="M1527.24,917.011 C1527.24,917.011 1713.64,829.427 1888.83,917.011 C2064.01,1004.6 2198.76,1159.57 2198.76,1379.65 C2198.76,1379.65 2176.3,1164.07 1920.27,1002.35 C1664.24,840.65 1527.24,917.011 1527.24,917.011" id="Fill-54" fill="#FFFFFE"></path>
            <path d="M1527.24,917.011 C1527.24,917.011 1713.64,829.427 1888.83,917.011 C2064.01,1004.6 2198.76,1159.57 2198.76,1379.65 C2198.76,1379.65 2176.3,1164.07 1920.27,1002.35 C1664.24,840.65 1527.24,917.011 1527.24,917.011 Z" id="Stroke-55" stroke="#1A1919"></path>
            <path d="M1351.48,1105.76 C1346.99,1078.81 1324.53,1071.31 1324.53,1071.31 L1250.42,1097.54 L1194.27,1120.73 C1225.71,975.508 1146.36,961.258 1146.36,961.258 L1110.42,1227.04 L1267.64,1170.15 L1222.72,1378.26 C1222.72,1378.26 1306.56,1370.79 1324.53,1313.87 C1342.5,1256.98 1355.97,1132.7 1351.48,1105.76" id="Fill-56" fill="#EB8E2D"></path>
            <path d="M1351.48,1105.76 C1346.99,1078.81 1324.53,1071.31 1324.53,1071.31 L1250.42,1097.54 L1194.27,1120.73 C1225.71,975.508 1146.36,961.258 1146.36,961.258 L1110.42,1227.04 L1267.64,1170.15 L1222.72,1378.26 C1222.72,1378.26 1306.56,1370.79 1324.53,1313.87 C1342.5,1256.98 1355.97,1132.7 1351.48,1105.76 Z" id="Stroke-57" stroke="#1A1919"></path>
            <path d="M1385.93,974.008 C1323.01,974.008 1273.92,989.115 1248.78,998.864 C1249.91,1003.82 1250.42,1006.95 1250.42,1006.95 L1250.42,1097.54 L1324.53,1071.31 C1335.02,1057.84 1373.94,1063.84 1373.94,1105.76 C1373.94,1147.68 1358.97,1264.46 1358.97,1264.46 L1429.34,1279.43 C1429.34,1279.43 1448.81,1170.15 1498.22,1035.4 C1502.85,1022.78 1507.83,1010.43 1513.07,998.462 C1491.16,988.686 1447.97,974.008 1385.93,974.008" id="Fill-58" fill="#B66E2F"></path>
            <path d="M1385.93,974.008 C1323.01,974.008 1273.92,989.115 1248.78,998.864 C1249.91,1003.82 1250.42,1006.95 1250.42,1006.95 L1250.42,1097.54 L1324.53,1071.31 C1335.02,1057.84 1373.94,1063.84 1373.94,1105.76 C1373.94,1147.68 1358.97,1264.46 1358.97,1264.46 L1429.34,1279.43 C1429.34,1279.43 1448.81,1170.15 1498.22,1035.4 C1502.85,1022.78 1507.83,1010.43 1513.07,998.462 C1491.16,988.686 1447.97,974.008 1385.93,974.008 Z" id="Stroke-59" stroke="#1A1919"></path>
            <path d="M300.333,2588.66 C300.333,2588.66 333.277,2568.44 359.479,2561.69 C359.479,2561.69 340.007,2610.36 373.694,2648.55 C407.383,2686.72 453.806,2679.25 453.806,2679.25 L528.661,2679.25 C528.661,2679.25 551.12,2678.5 548.869,2697.22 C546.627,2715.91 523.418,2723.41 479.251,2723.41 C435.084,2723.41 310.437,2724.16 310.437,2724.16 L283.486,2805 L474.39,2805 C474.39,2805 567.592,2802.77 607.272,2774.3 C646.954,2745.86 664.918,2691.22 664.918,2667.25 C664.918,2643.3 650.689,2610.38 593.8,2605.13 L494.231,2605.13 C494.231,2605.13 461.292,2598.41 467.285,2572.94 C473.265,2547.5 515.182,2549.72 515.182,2549.72 L700.856,2549.72 L723.315,2468.88 L470.265,2468.88 C470.265,2468.88 350.5,2477.86 300.333,2588.66" id="Fill-60" fill="#1A1919"></path>
            <path d="M1186.33,2468.88 L1013.96,2729.76 L977.469,2665.75 L1106.6,2468.88 L988.693,2468.88 L838.218,2723.04 L855.067,2468.88 L755.121,2468.88 L732.663,2805 L849.448,2805 C849.448,2805 882.018,2805 925.811,2742.11 L963.99,2805 L1025.75,2805 C1025.75,2805 1066.18,2802.75 1090.88,2771.3 C1115.59,2739.89 1295.26,2468.88 1295.26,2468.88 L1186.33,2468.88" id="Fill-61" fill="#1A1919"></path>
            <path d="M1449.1,2669.12 L1364.88,2669.12 L1449.1,2550.09 L1449.1,2669.12 Z M1344.67,2525.4 L1140.29,2805 L1268.3,2805 L1322.21,2734.26 L1449.1,2734.26 L1449.1,2805 L1568.13,2805 L1568.13,2468.88 L1442.36,2468.88 C1396.32,2470.76 1344.67,2525.4 1344.67,2525.4 Z" id="Fill-62" fill="#1A1919"></path>
            <path d="M1934.22,2583.41 C1916.25,2623.08 1874.71,2636.9 1874.71,2636.9 L1779.25,2636.93 L1818.57,2529.87 L1905.02,2529.87 C1905.02,2529.87 1952.19,2543.75 1934.22,2583.41 Z M2055.5,2550.09 C2064.47,2462.51 1943.21,2468.88 1943.21,2468.88 L1725.36,2468.88 L1600.7,2805 L1720.86,2805 L1755.68,2711.79 L1838.76,2711.79 L1874.71,2805 L1993.73,2805 L1953.32,2701.69 C2007.21,2672.5 2046.51,2637.68 2055.5,2550.09 Z" id="Fill-63" fill="#1A1919"></path>
            <path d="M2510.29,2468.88 C2510.29,2468.88 2470.99,2473.73 2454.14,2489.45 C2437.31,2505.18 2365.43,2574.79 2365.43,2574.79 L2348.59,2516.4 C2348.59,2516.4 2338.47,2468.88 2291.31,2468.88 C2244.15,2468.88 2158.81,2468.88 2158.81,2468.88 L2030.79,2805 L2150.94,2805 L2240.79,2571.44 L2276.71,2729.76 L2309.28,2729.76 L2470.99,2575.91 L2382.26,2805 L2508.04,2805 L2633.81,2468.88 L2510.29,2468.88" id="Fill-64" fill="#1A1919"></path>
            <path d="M1504.54,2282.6 C1504.54,2289.37 1509.68,2294.46 1519.97,2297.91 C1530.23,2301.37 1540.61,2304.54 1551.06,2307.43 C1561.52,2310.36 1570.65,2315.42 1578.45,2322.57 C1586.27,2329.72 1590.31,2340.66 1590.6,2355.45 C1590.6,2370.1 1588.35,2381.85 1583.84,2390.77 C1579.33,2399.73 1573.04,2406.26 1564.9,2410.37 C1556.79,2414.49 1546.93,2417 1535.3,2417.87 C1532.51,2418.11 1528.54,2418.22 1523.41,2418.22 C1514.92,2418.22 1506.91,2417.55 1499.36,2416.19 C1491.82,2414.83 1485.57,2413.3 1480.69,2411.66 C1475.78,2410.02 1473.33,2409.05 1473.33,2408.73 L1467.02,2381.67 C1467.07,2381.67 1469.6,2382.86 1474.62,2385.19 C1479.63,2387.57 1485.65,2389.73 1492.7,2391.72 C1499.73,2393.7 1507.52,2394.82 1516.06,2395.06 C1529.85,2395.06 1539.13,2392.62 1543.88,2387.77 C1548.64,2382.89 1551.03,2375.54 1551.03,2365.67 C1551.03,2353.95 1547.79,2346.24 1541.37,2342.55 C1534.93,2338.89 1524.45,2335.33 1509.95,2331.95 C1495.46,2328.56 1484.56,2323.68 1477.28,2317.27 C1469.97,2310.85 1466.32,2299.55 1466.32,2283.37 C1466.67,2273.05 1469.31,2264.58 1474.28,2257.88 C1479.23,2251.19 1485.73,2246.2 1493.81,2242.96 C1501.86,2239.68 1510.91,2237.8 1520.93,2237.31 C1537.63,2237.31 1550.71,2238.35 1560.16,2240.45 C1569.61,2242.5 1575.92,2244.25 1579.06,2245.68 L1585.73,2274.24 C1576.59,2269.77 1568.49,2266.63 1561.36,2264.79 C1554.23,2262.97 1545.77,2262.07 1535.99,2262.07 C1526.47,2262.07 1519,2263.29 1513.59,2265.76 C1508.17,2268.27 1505.15,2273.85 1504.54,2282.6" id="Fill-65" fill="#1A1919"></path>
            <path d="M1692.9,2348.54 L1668,2272.77 L1644.16,2348.54 L1692.9,2348.54 Z M1635.45,2374.42 L1622.12,2416.75 L1596.57,2416.75 L1652.97,2239.19 L1694.59,2239.19 L1752.01,2416.75 L1714.94,2416.75 L1700.58,2374.42 L1635.45,2374.42 Z" id="Fill-66" fill="#1A1919"></path>
            <polyline id="Fill-67" fill="#1A1919" points="1799.2 2394.61 1878.34 2394.61 1878.34 2416.75 1762.1 2416.75 1762.1 2239.19 1799.2 2239.19 1799.2 2394.61"></polyline>
            <polyline id="Fill-68" fill="#1A1919" points="1889.87 2239.19 2000.88 2239.19 2000.88 2261.3 1926.97 2261.3 1926.97 2313.12 1988.58 2313.12 1988.58 2335.15 1926.97 2335.15 1926.97 2394.61 2001.91 2394.61 2001.91 2416.75 1889.87 2416.75 1889.87 2239.19"></polyline>
            <polyline id="Fill-69" fill="#1A1919" points="2204.26 2239.19 2154.19 2419.82 2106.26 2286.44 2060.7 2419.82 2005.08 2239.19 2044.3 2239.19 2069.51 2326.79 2092.58 2258.61 2086.6 2239.19 2128.3 2239.19 2157.36 2326.79 2180.43 2239.19 2204.26 2239.19"></polyline>
            <path d="M2245.21,2282.6 C2245.21,2289.37 2250.37,2294.46 2260.65,2297.91 C2270.92,2301.37 2281.29,2304.54 2291.75,2307.43 C2302.21,2310.36 2311.34,2315.42 2319.14,2322.57 C2326.94,2329.72 2330.98,2340.66 2331.27,2355.45 C2331.27,2370.1 2329.02,2381.85 2324.52,2390.77 C2320.02,2399.73 2313.71,2406.26 2305.59,2410.37 C2297.47,2414.49 2287.6,2417 2275.97,2417.87 C2273.18,2418.11 2269.24,2418.22 2264.1,2418.22 C2255.61,2418.22 2247.58,2417.55 2240.05,2416.19 C2232.49,2414.83 2226.28,2413.3 2221.37,2411.66 C2216.47,2410.02 2214.02,2409.05 2214.02,2408.73 L2207.69,2381.67 C2207.76,2381.67 2210.29,2382.86 2215.3,2385.19 C2220.32,2387.57 2226.34,2389.73 2233.39,2391.72 C2240.4,2393.7 2248.21,2394.82 2256.74,2395.06 C2270.54,2395.06 2279.81,2392.62 2284.57,2387.77 C2289.33,2382.89 2291.7,2375.54 2291.7,2365.67 C2291.7,2353.95 2288.5,2346.24 2282.06,2342.55 C2275.62,2338.89 2265.14,2335.33 2250.64,2331.95 C2236.14,2328.56 2225.25,2323.68 2217.95,2317.27 C2210.67,2310.85 2207.02,2299.55 2207.02,2283.37 C2207.36,2273.05 2210,2264.58 2214.97,2257.88 C2219.92,2251.19 2226.42,2246.2 2234.49,2242.96 C2242.55,2239.68 2251.6,2237.8 2261.61,2237.31 C2278.31,2237.31 2291.39,2238.35 2300.85,2240.45 C2310.31,2242.5 2316.59,2244.25 2319.73,2245.68 L2326.4,2274.24 C2317.28,2269.77 2309.16,2266.63 2302.05,2264.79 C2294.92,2262.97 2286.46,2262.07 2276.67,2262.07 C2267.16,2262.07 2259.69,2263.29 2254.28,2265.76 C2248.86,2268.27 2245.84,2273.85 2245.21,2282.6" id="Fill-70" fill="#1A1919"></path>
            <polyline id="Fill-71" fill="#1A1919" points="2472.03 2239.19 2421.26 2309.32 2481.18 2416.75 2441.59 2416.75 2399.89 2338.61 2385.19 2358.8 2385.19 2416.75 2348.1 2416.75 2348.1 2239.19 2385.19 2239.19 2385.19 2322.6 2445.1 2239.19 2472.03 2239.19"></polyline>
            <polygon id="Fill-72" fill="#1A1919" points="2489.88 2416.75 2526.98 2416.75 2526.98 2239.19 2489.88 2239.19"></polygon>
            <path d="M2578.51,2282.6 C2578.51,2289.37 2583.65,2294.46 2593.94,2297.91 C2604.21,2301.37 2614.59,2304.54 2625.05,2307.43 C2635.49,2310.36 2644.62,2315.42 2652.42,2322.57 C2660.24,2329.72 2664.28,2340.66 2664.57,2355.45 C2664.57,2370.1 2662.32,2381.85 2657.81,2390.77 C2653.32,2399.73 2647.01,2406.26 2638.89,2410.37 C2630.76,2414.49 2620.9,2417 2609.27,2417.87 C2606.48,2418.11 2602.52,2418.22 2597.38,2418.22 C2588.89,2418.22 2580.88,2417.55 2573.34,2416.19 C2565.79,2414.83 2559.56,2413.3 2554.67,2411.66 C2549.77,2410.02 2547.3,2409.05 2547.3,2408.73 L2540.99,2381.67 C2541.06,2381.67 2543.59,2382.86 2548.59,2385.19 C2553.62,2387.57 2559.64,2389.73 2566.67,2391.72 C2573.7,2393.7 2581.51,2394.82 2590.04,2395.06 C2603.84,2395.06 2613.1,2392.62 2617.85,2387.77 C2622.63,2382.89 2625,2375.54 2625,2365.67 C2625,2353.95 2621.78,2346.24 2615.36,2342.55 C2608.9,2338.89 2598.44,2335.33 2583.94,2331.95 C2569.44,2328.56 2558.55,2323.68 2551.25,2317.27 C2543.96,2310.85 2540.3,2299.55 2540.3,2283.37 C2540.64,2273.05 2543.3,2264.58 2548.26,2257.88 C2553.2,2251.19 2559.72,2246.2 2567.78,2242.96 C2575.85,2239.68 2584.89,2237.8 2594.91,2237.31 C2611.61,2237.31 2624.68,2238.35 2634.13,2240.45 C2643.6,2242.5 2649.89,2244.25 2653.03,2245.68 L2659.7,2274.24 C2650.57,2269.77 2642.46,2266.63 2635.35,2264.79 C2628.2,2262.97 2619.74,2262.07 2609.97,2262.07 C2600.44,2262.07 2592.99,2263.29 2587.58,2265.76 C2582.16,2268.27 2579.12,2273.85 2578.51,2282.6" id="Fill-73" fill="#1A1919"></path>
        </g>
    </g>
</svg>