<?xml version="1.0" encoding="UTF-8" standalone="no"?>
<svg width="635px" height="590px" viewBox="0 0 635 590" version="1.1" xmlns="http://www.w3.org/2000/svg" xmlns:xlink="http://www.w3.org/1999/xlink">
    <!-- Generator: Sketch 49.1 (51147) - http://www.bohemiancoding.com/sketch -->
    <title>Allens_Avengers_Alternate</title>
    <desc>Created with Sketch.</desc>
    <defs></defs>
    <g id="Page-1" stroke="none" stroke-width="1" fill="none" fill-rule="evenodd">
        <g id="Allens_Avengers_Alternate" transform="translate(0.000000, -1.000000)">
            <g id="Group-4" transform="translate(0.000000, 28.000000)">
                <path d="M626.252,188.333 C611.392,223.314 590.585,234.667 590.585,234.667 C590.585,262.667 573.585,326 573.585,326 L580.919,348.666 C550.586,493.333 482.585,560.333 482.585,560.333 L437.252,561 L418.585,518.666 C381.585,540.999 316.918,562.999 316.918,562.999 C-6.748,474.995 35.585,228 35.585,228 C-64.081,106.333 77.252,0.333 77.252,0.333 C323.252,59.333 565.919,5.333 565.919,5.333 C613.253,39.667 627.585,101 627.585,101 C627.585,101 644.252,145.961 626.252,188.333" id="Fill-1" fill="#C8C9C2"></path>
                <path d="M581.918,231.333 C581.251,289.666 564.919,328.666 564.919,328.666 C565.919,330.333 570.919,348.333 570.919,348.333 C547.919,471.667 477.252,551.333 477.252,551.333 L444.252,551.333 L422.252,503.333 C378.252,532 316.252,551.333 316.252,551.333 C10.875,464.818 45.752,219.333 45.752,219.333 C4.752,177.333 11.252,137.833 11.252,137.833 C29.252,192.833 86.752,219.333 86.752,219.333 C80.252,197.833 85.252,166.833 85.252,166.833 C120.461,154.057 249.752,145.833 249.752,145.833 L251.752,137.333 C134.752,145.833 78.252,159.333 78.252,159.333 C75.252,160.333 75.252,199.333 75.252,199.333 C-51.748,116.833 79.252,8.833 79.252,8.833 C331.252,62.833 562.586,14.667 562.586,14.667 C630.347,75.459 630.876,147.976 615.255,190.333 C603.98,220.903 581.918,231.333 581.918,231.333" id="Fill-3" fill="#1A1919"></path>
            </g>
            <path d="M93.585,71.167 C93.413,71.15 80.757,69.017 80.585,69 C64.418,84.333 56.251,101.333 49.585,121.075 C57.637,120.844 66.674,120.733 74.766,120.52 C74.301,102.952 84.839,85.668 93.585,71.167 Z M118.037,57.517 C91.078,93.096 85.243,126.298 110.112,165.019 C102.557,165.896 98.769,166.353 91.166,167.304 C85.171,159.485 80.563,150.627 77.782,141.17 C68.438,141.78 59.096,142.426 49.758,143.106 C43.877,164.458 66.421,210.711 68.627,214.458 C70.418,217.5 45.251,199.833 33.215,171.975 C17.515,119.327 44.918,77.667 82.418,46.5 C89.251,48.333 111.751,55.667 118.037,57.517 Z" id="Fill-5" fill="#FFFFFE"></path>
            <path d="M93.585,71.167 C93.413,71.15 80.757,69.017 80.585,69 C64.418,84.333 56.251,101.333 49.585,121.075 C57.637,120.844 66.674,120.733 74.766,120.52 C74.301,102.952 84.839,85.668 93.585,71.167 Z M118.037,57.517 C91.078,93.096 85.243,126.298 110.112,165.019 C102.557,165.896 98.769,166.353 91.166,167.304 C85.171,159.485 80.563,150.627 77.782,141.17 C68.438,141.78 59.096,142.426 49.758,143.106 C43.877,164.458 66.421,210.711 68.627,214.458 C70.418,217.5 45.251,199.833 33.215,171.975 C17.515,119.327 44.918,77.667 82.418,46.5 C89.251,48.333 111.751,55.667 118.037,57.517 Z" id="Stroke-6" stroke="#48337B" stroke-width="6"></path>
            <path d="M124.392,163.412 C101.489,128.009 102.31,92.675 128.341,58.96 C134.494,59.804 140.584,60.69 146.627,61.458 C136.686,77.477 130.736,91.837 128.377,110.583 C127.627,118.333 131.278,124.621 131.877,128.083 C132.076,128.077 137.317,127.62 137.516,127.614 C139.158,120.905 140.127,115.333 142.502,109.833 C150.002,94.333 157.253,78.3 171.233,64.219 C177.178,64.855 180.15,65.156 186.138,65.729 C161.095,93.591 147.423,121.87 153.252,161.083 C144.912,161.901 132.776,162.498 124.392,163.412" id="Fill-7" fill="#FFFFFE"></path>
            <path d="M124.392,163.412 C101.489,128.009 102.31,92.675 128.341,58.96 C134.494,59.804 140.584,60.69 146.627,61.458 C136.686,77.477 130.736,91.837 128.377,110.583 C127.627,118.333 131.278,124.621 131.877,128.083 C132.076,128.077 137.317,127.62 137.516,127.614 C139.158,120.905 140.127,115.333 142.502,109.833 C150.002,94.333 157.253,78.3 171.233,64.219 C177.178,64.855 180.15,65.156 186.138,65.729 C161.095,93.591 147.423,121.87 153.252,161.083 C144.912,161.901 132.776,162.498 124.392,163.412 Z" id="Stroke-8" stroke="#48337B" stroke-width="6"></path>
            <path d="M192.89,66.358 C208.925,67.807 224.985,68.967 241.057,69.898 C240.025,75.168 239.554,77.695 238.79,82.894 C226.768,82.394 214.749,81.83 202.735,81.189 C200.501,87.62 199.534,90.903 198.08,97.963 C208.806,98.141 214.179,98.223 224.945,98.376 C224.376,104.15 224.24,107.02 223.343,113.292 C212.239,113.336 206.667,113.364 195.513,113.434 C194.089,121.706 193.645,126.784 194.534,136.855 C209.049,136.424 223.563,136.073 238.082,135.807 C238.495,143.405 238.971,147.354 240.796,154.511 C220.453,155.422 200.147,156.654 179.842,158.187 C169.933,126.049 176.29,95.264 192.89,66.358" id="Fill-9" fill="#FFFFFE"></path>
            <path d="M192.89,66.358 C208.925,67.807 224.985,68.967 241.057,69.898 C240.025,75.168 239.554,77.695 238.79,82.894 C226.768,82.394 214.749,81.83 202.735,81.189 C200.501,87.62 199.534,90.903 198.08,97.963 C208.806,98.141 214.179,98.223 224.945,98.376 C224.376,104.15 224.24,107.02 223.343,113.292 C212.239,113.336 206.667,113.364 195.513,113.434 C194.089,121.706 193.645,126.784 194.534,136.855 C209.049,136.424 223.563,136.073 238.082,135.807 C238.495,143.405 238.971,147.354 240.796,154.511 C220.453,155.422 200.147,156.654 179.842,158.187 C169.933,126.049 176.29,95.264 192.89,66.358 Z" id="Stroke-10" stroke="#48337B" stroke-width="6"></path>
            <path d="M251.022,70.445 C257.499,70.783 260.801,70.942 267.569,71.24 C273.921,82.875 293.641,113.473 293.984,114.063 C294.223,114.064 294.344,114.064 294.583,114.065 C294.482,110.578 293.489,82.995 293.547,72.24 C300.55,72.474 304.136,72.583 311.516,72.788 C311.388,99.63 311.627,126.398 312.254,153.237 C305.958,153.198 302.816,153.197 296.542,153.225 C288.005,138.486 270.429,104.428 265.947,95.623 C265.712,95.62 265.595,95.617 265.36,95.613 C265.478,97.677 265.187,138.814 266.906,153.653 C259.902,153.823 256.405,153.929 249.412,154.179 C245.355,126.945 247.054,97.736 251.022,70.445" id="Fill-11" fill="#FFFFFE"></path>
            <path d="M251.022,70.445 C257.499,70.783 260.801,70.942 267.569,71.24 C273.921,82.875 293.641,113.473 293.984,114.063 C294.223,114.064 294.344,114.064 294.583,114.065 C294.482,110.578 293.489,82.995 293.547,72.24 C300.55,72.474 304.136,72.583 311.516,72.788 C311.388,99.63 311.627,126.398 312.254,153.237 C305.958,153.198 302.816,153.197 296.542,153.225 C288.005,138.486 270.429,104.428 265.947,95.623 C265.712,95.62 265.595,95.617 265.36,95.613 C265.478,97.677 265.187,138.814 266.906,153.653 C259.902,153.823 256.405,153.929 249.412,154.179 C245.355,126.945 247.054,97.736 251.022,70.445 Z" id="Stroke-12" stroke="#48337B" stroke-width="6"></path>
            <path d="M321.151,97.713 C321.266,91.71 321.554,83.703 330.246,77.25 C336.626,72.512 343.951,71.782 351.654,71.729 C364.693,71.64 379.177,79.098 382.015,92.827 C374.357,92.825 370.527,92.815 362.862,92.778 C362.054,86.933 357.832,84.213 351.452,84.192 C341.705,84.162 341.177,90.545 341.18,94.406 C341.188,102.699 340.842,106.183 341.154,117.818 C341.477,129.907 343.676,138.886 353.37,139.165 C363.678,139.462 363.728,129.515 363.684,125.727 C363.651,122.92 363.63,121.542 363.566,118.933 C359.264,118.927 357.122,118.928 352.865,118.932 C352.705,112.631 352.34,110.088 352.543,105.403 C362.76,105.435 372.977,105.466 383.194,105.489 C384.22,122.657 383.76,139.837 383.203,157.012 C379.637,156.769 377.857,156.653 374.312,156.434 C373.349,154.032 372.868,152.714 371.887,149.972 C371.54,149.953 371.366,149.943 371.019,149.924 C368.358,153.072 364.147,157.113 350.5,156.527 C341.564,156.144 333.219,153.774 327.691,145.921 C322.343,138.322 321.041,128.132 321.147,118.834 C320.915,108.792 321.01,105.063 321.151,97.713" id="Fill-13" fill="#FFFFFE"></path>
            <path d="M321.151,97.713 C321.266,91.71 321.554,83.703 330.246,77.25 C336.626,72.512 343.951,71.782 351.654,71.729 C364.693,71.64 379.177,79.098 382.015,92.827 C374.357,92.825 370.527,92.815 362.862,92.778 C362.054,86.933 357.832,84.213 351.452,84.192 C341.705,84.162 341.177,90.545 341.18,94.406 C341.188,102.699 340.842,106.183 341.154,117.818 C341.477,129.907 343.676,138.886 353.37,139.165 C363.678,139.462 363.728,129.515 363.684,125.727 C363.651,122.92 363.63,121.542 363.566,118.933 C359.264,118.927 357.122,118.928 352.865,118.932 C352.705,112.631 352.34,110.088 352.543,105.403 C362.76,105.435 372.977,105.466 383.194,105.489 C384.22,122.657 383.76,139.837 383.203,157.012 C379.637,156.769 377.857,156.653 374.312,156.434 C373.349,154.032 372.868,152.714 371.887,149.972 C371.54,149.953 371.366,149.943 371.019,149.924 C368.358,153.072 364.147,157.113 350.5,156.527 C341.564,156.144 333.219,153.774 327.691,145.921 C322.343,138.322 321.041,128.132 321.147,118.834 C320.915,108.792 321.01,105.063 321.151,97.713 Z" id="Stroke-14" stroke="#48337B" stroke-width="6"></path>
            <path d="M386.687,72.673 C403.297,72.192 419.896,71.381 436.473,70.239 C440.864,75.965 443,78.803 446.73,84.331 C434.188,84.748 421.644,85.08 409.097,85.313 C411.596,91.311 412.668,94.214 413.99,100 C423.542,100.004 433.095,99.986 442.646,99.961 C444.576,105.046 445.091,106.506 445.455,113.116 C435.607,113.07 425.76,113.031 415.912,113.006 C416.34,121.257 416.196,127.503 415.79,138.552 C431.039,139.347 446.278,140.23 461.517,141.194 C460.925,150.883 460.475,155.962 459.748,163.055 C438,160.677 416.241,158.599 394.431,156.878 C395.564,127.838 396.721,100.307 386.687,72.673" id="Fill-15" fill="#FFFFFE"></path>
            <path d="M386.687,72.673 C403.297,72.192 419.896,71.381 436.473,70.239 C440.864,75.965 443,78.803 446.73,84.331 C434.188,84.748 421.644,85.08 409.097,85.313 C411.596,91.311 412.668,94.214 413.99,100 C423.542,100.004 433.095,99.986 442.646,99.961 C444.576,105.046 445.091,106.506 445.455,113.116 C435.607,113.07 425.76,113.031 415.912,113.006 C416.34,121.257 416.196,127.503 415.79,138.552 C431.039,139.347 446.278,140.23 461.517,141.194 C460.925,150.883 460.475,155.962 459.748,163.055 C438,160.677 416.241,158.599 394.431,156.878 C395.564,127.838 396.721,100.307 386.687,72.673 Z" id="Stroke-16" stroke="#48337B" stroke-width="6"></path>
            <path d="M489.194,102.398 C500.746,102.352 502.537,102.35 504.928,101.519 C510.226,99.68 507.766,95.436 504.089,90.979 C499.4,85.298 494.616,82.392 489.744,81.232 C485.987,80.339 483.72,80.498 473.676,81.001 C481.429,89.993 484.904,94.443 489.194,102.398 Z M489.486,166.61 C481.32,165.577 477.237,165.079 469.089,164.125 C470.609,147.737 475.004,127.166 471.426,110.822 C467.908,94.755 456.165,81.941 446.062,69.546 C455.545,68.828 460.292,68.426 469.929,67.54 C490.703,65.312 504.422,71.858 518.093,85.609 C525.708,93.268 530.234,109.841 517.229,111.549 C527.497,130.246 531.468,152.687 536.711,173.061 C527.75,171.75 523.26,171.112 514.274,169.879 C509.783,151.304 506.292,132.775 499.513,114.858 C496.699,114.827 495.29,114.811 492.471,114.782 C493.01,132.063 491.469,149.457 489.486,166.61 Z" id="Fill-17" fill="#FFFFFE"></path>
            <path d="M489.194,102.398 C500.746,102.352 502.537,102.35 504.928,101.519 C510.226,99.68 507.766,95.436 504.089,90.979 C499.4,85.298 494.616,82.392 489.744,81.232 C485.987,80.339 483.72,80.498 473.676,81.001 C481.429,89.993 484.904,94.443 489.194,102.398 Z M489.486,166.61 C481.32,165.577 477.237,165.079 469.089,164.125 C470.609,147.737 475.004,127.166 471.426,110.822 C467.908,94.755 456.165,81.941 446.062,69.546 C455.545,68.828 460.292,68.426 469.929,67.54 C490.703,65.312 504.422,71.858 518.093,85.609 C525.708,93.268 530.234,109.841 517.229,111.549 C527.497,130.246 531.468,152.687 536.711,173.061 C527.75,171.75 523.26,171.112 514.274,169.879 C509.783,151.304 506.292,132.775 499.513,114.858 C496.699,114.827 495.29,114.811 492.471,114.782 C493.01,132.063 491.469,149.457 489.486,166.61 Z" id="Stroke-18" stroke="#48337B" stroke-width="6"></path>
            <path d="M363.252,163.833 C363.252,163.833 350.252,137.333 318.252,136.833 C318.252,136.833 285.752,140.833 277.252,158.333 L278.252,178.833 L291.752,189.333 L331.252,194.333 L357.752,193.333 L364.252,176.333 L363.252,163.833" id="Fill-19" fill="#1A1919"></path>
            <path d="M555.919,214 C555.919,201.667 557.247,188.244 555.6,178.664 C554.2,170.519 552.822,162.386 550.627,153.396 C550.627,153.396 569.814,178.646 577.071,182.593 C581.786,185.158 588.838,182.28 591.507,176.99 C594.904,170.252 595.094,161.917 595.264,154.531 C595.434,147.149 595.387,138.226 587.318,134.818 C579.232,131.404 570.081,135.468 561.713,134.234 C553.683,133.049 547.408,128.098 542.986,121.453 C537.527,113.248 535.15,102.21 534.202,92.542 C533.178,82.112 531.641,69.527 539.444,61.085 C545.331,54.717 556.453,54.686 563.83,58.651 C567.609,60.683 570.976,63.402 573.389,66.279 C575.38,68.654 579.553,79.735 580.664,82.215 C571.935,76.644 548.275,64.882 546.919,83.667 C546.382,91.106 550.339,108.097 556.585,113 C563.996,118.819 572.108,118.472 580.987,117.684 C590.419,116.846 600.189,117.752 604.954,127.05 C609.693,136.302 609.983,148.687 608.919,158.667 C607.704,170.066 604.271,179.991 601.125,191.018 C601.125,191.018 596.252,210.083 574.752,223.083 C553.252,236.083 555.919,214.304 555.919,214" id="Fill-20" fill="#FFFFFE"></path>
            <path d="M555.919,214 C555.919,201.667 557.247,188.244 555.6,178.664 C554.2,170.519 552.822,162.386 550.627,153.396 C550.627,153.396 569.814,178.646 577.071,182.593 C581.786,185.158 588.838,182.28 591.507,176.99 C594.904,170.252 595.094,161.917 595.264,154.531 C595.434,147.149 595.387,138.226 587.318,134.818 C579.232,131.404 570.081,135.468 561.713,134.234 C553.683,133.049 547.408,128.098 542.986,121.453 C537.527,113.248 535.15,102.21 534.202,92.542 C533.178,82.112 531.641,69.527 539.444,61.085 C545.331,54.717 556.453,54.686 563.83,58.651 C567.609,60.683 570.976,63.402 573.389,66.279 C575.38,68.654 579.553,79.735 580.664,82.215 C571.935,76.644 548.275,64.882 546.919,83.667 C546.382,91.106 550.339,108.097 556.585,113 C563.996,118.819 572.108,118.472 580.987,117.684 C590.419,116.846 600.189,117.752 604.954,127.05 C609.693,136.302 609.983,148.687 608.919,158.667 C607.704,170.066 604.271,179.991 601.125,191.018 C601.125,191.018 596.252,210.083 574.752,223.083 C553.252,236.083 555.919,214.304 555.919,214 Z" id="Stroke-21" stroke="#48337B" stroke-width="6"></path>
            <path d="M58.752,258.833 C58.752,258.833 98.752,283.333 100.752,283.333 C100.752,283.333 93.252,241.833 94.252,214.333 C94.252,214.333 185.752,195.333 249.252,194.333 L245.252,213.333 L251.252,221.333 L238.252,235.333 L198.252,235.333 C198.252,235.333 166.752,240.333 154.252,272.333 C154.252,272.333 136.752,286.333 133.752,304.833 C133.752,304.833 114.752,314.333 112.752,332.333 L97.752,319.833 L96.752,337.333 L75.752,341.333 L87.752,357.333 L75.252,365.833 C75.252,365.833 55.752,323.833 58.752,258.833" id="Fill-22" fill="#48337B"></path>
            <polyline id="Fill-23" fill="#48337B" points="76.502 370.333 77.252 374.833 81.752 373.583 85.252 377.333 92.502 374.333 76.502 370.333"></polyline>
            <path d="M124.752,443.583 C124.752,443.583 138.002,449.083 155.752,444.833 L162.002,449.833 L151.002,473.083 C151.002,473.083 126.752,446.833 124.752,443.583" id="Fill-24" fill="#48337B"></path>
            <path d="M321.002,402.583 L323.752,410.833 C323.752,410.833 286.502,410.333 279.252,413.583 C279.252,413.583 331.002,421.833 339.752,426.833 L341.752,434.833 C341.752,434.833 257.502,430.333 242.002,436.333 C242.002,436.333 259.252,408.833 265.502,405.083 L321.002,402.583" id="Fill-25" fill="#48337B"></path>
            <path d="M340.752,498.333 C340.752,498.333 396.002,486.083 401.002,486.083 C401.002,486.083 352.002,499.833 350.252,500.833 C350.252,500.833 354.752,548.083 356.252,549.083 C356.252,549.083 348.002,551.583 347.002,552.833 C347.002,552.833 341.002,506.333 340.752,498.333" id="Fill-26" fill="#48337B"></path>
            <path d="M473.752,269.833 L481.002,279.583 C481.002,279.583 469.252,336.083 473.502,385.333 C473.502,385.333 481.002,463.083 490.252,482.083 C490.252,482.083 512.502,458.333 533.502,404.583 C533.502,404.583 512.252,473.833 482.752,512.333 C482.752,512.333 435.252,364.999 473.752,269.833" id="Fill-27" fill="#48337B"></path>
            <path d="M476.752,233.333 L465.502,223.583 C457.502,221.583 437.502,221.833 437.502,221.833 C435.002,224.083 425.502,247.083 425.502,247.083 C415.502,240.333 391.752,242.833 391.752,242.833 C391.502,241.333 381.502,226.833 381.502,226.833 L390.502,220.583 L387.252,210.333 C382.502,197.583 387.752,194.833 387.752,194.833 C497.502,205.833 521.252,217.583 521.252,217.583 L522.502,282.583 C520.002,275.583 476.752,233.333 476.752,233.333" id="Fill-28" fill="#48337B"></path>
            <path d="M526.502,284.833 C526.502,284.833 563.002,268.833 568.752,263.583 C568.752,263.583 569.752,306.083 555.752,337.833 C555.752,337.833 540.252,303.083 526.502,284.833" id="Fill-29" fill="#48337B"></path>
            <path d="M325.428,152.308 L325.171,141.147 C349.802,145.638 357.756,160.262 357.756,160.262 C358.526,162.827 360.065,173.988 360.065,173.988 C347.237,158.337 325.428,152.308 325.428,152.308 Z M342.105,180.403 C342.105,180.403 341.848,184.123 337.23,182.199 C337.23,182.199 334.793,179.761 335.178,178.478 C335.31,178.036 334.537,172.32 339.283,174.501 C339.283,174.501 343.004,175.656 342.105,180.403 Z M325.3,162.314 C327.993,160.646 329.405,163.084 329.405,163.084 C330.944,163.597 330.816,168.857 330.816,168.857 C329.405,172.064 325.813,169.627 325.813,169.627 C322.477,165.522 325.3,162.314 325.3,162.314 Z M329.661,188.1 C323.247,188.742 324.402,182.968 324.402,182.968 C325.428,177.323 329.533,180.146 329.533,180.146 C334.023,184.379 329.661,188.1 329.661,188.1 Z M378.282,192.718 L379.436,192.077 C379.564,182.327 372.252,158.209 372.252,158.209 L370.456,158.979 C369.429,162.699 366.351,163.469 366.351,163.469 C353.78,132.04 317.602,133.322 317.602,133.322 L320.81,214.527 C337.744,215.81 355.447,201.313 355.447,201.313 C356.858,199.774 359.552,200.159 359.552,200.159 C366.351,199.517 378.282,214.527 378.282,214.527 L379.179,214.398 C377.512,208.241 368.532,178.607 368.532,178.607 C370.97,180.531 378.282,192.718 378.282,192.718 Z" id="Fill-30" fill="#C8C9C2"></path>
            <path d="M360.934,213.545 C360.934,213.545 368.276,229.749 377.307,237.346 C377.307,237.346 341.86,229.075 327.765,229.244 C327.765,229.244 352.157,218.947 360.934,213.545" id="Fill-31" fill="#C8C9C2"></path>
            <path d="M346.585,262.833 C346.585,262.833 356.071,272.083 363.502,283.833 C370.932,295.583 376.307,309.833 377.307,312.167 C377.307,312.167 410.752,294.717 413.252,294.383 L404.053,260.333 L357.419,260.333 L346.585,262.833" id="Fill-32" fill="#C8C9C2"></path>
            <path d="M292.877,256.458 C292.877,256.458 286.627,260.708 286.002,262.208 C286.002,262.208 275.377,258.833 269.752,261.208 C269.752,261.208 250.627,266.958 245.377,275.583 C245.377,275.583 231.627,277.708 230.502,278.583 C230.502,278.583 226.502,273.833 225.127,272.833 L229.377,267.208 L247.502,258.208 L262.877,256.083 L276.627,255.083 L287.002,254.833 L292.877,256.458" id="Fill-33" fill="#C8C9C2"></path>
            <path d="M220.127,283.208 L220.127,285.833 C220.127,285.833 208.627,300.708 208.377,302.958 C208.377,302.958 193.502,293.958 172.627,294.958 L172.002,293.583 L172.127,287.208 L175.252,278.083 L185.502,269.708 L192.252,269.208 L196.877,269.458 C196.877,269.458 212.377,273.333 220.127,283.208" id="Fill-34" fill="#C8C9C2"></path>
            <path d="M202.752,308.583 C202.752,308.583 203.252,309.458 202.502,311.333 C202.502,311.333 200.502,315.708 199.502,316.083 C199.502,316.083 168.502,317.083 166.127,316.833 C166.127,316.833 158.002,320.708 155.002,325.083 L152.752,324.708 L156.627,314.708 L160.252,310.458 L164.002,306.583 L168.752,303.583 C168.752,303.583 190.127,301.708 202.752,308.583" id="Fill-35" fill="#C8C9C2"></path>
            <path d="M270.377,321.083 C270.377,321.083 265.377,331.458 249.252,331.333 C249.252,331.333 248.877,338.708 250.252,341.458 C250.252,341.458 252.502,347.208 262.502,346.583 C262.502,346.583 271.252,344.208 271.752,335.458 C271.752,335.458 273.502,321.083 270.377,321.083" id="Fill-36" fill="#C8C9C2"></path>
            <path d="M280.877,315.958 C281.247,315.897 298.127,316.958 303.377,307.083 L304.252,307.208 C304.252,307.208 307.752,323.083 303.502,331.708 C303.502,331.708 296.377,344.958 280.127,344.583 C280.127,344.583 277.127,345.333 278.877,343.083 C278.877,343.083 284.333,336.119 282.002,327.958 C281.752,327.083 281.877,320.333 280.502,318.708 C280.502,318.708 279.377,316.208 280.877,315.958" id="Fill-37" fill="#C8C9C2"></path>
            <path d="M311.377,305.708 C311.928,305.387 322.752,305.458 329.252,297.833 C329.252,297.833 330.252,295.708 331.252,298.458 C331.252,298.458 335.002,316.083 328.502,325.458 C328.502,325.458 314.002,340.708 312.877,329.708 C312.877,329.708 313.127,313.083 311.377,309.958 C311.377,309.958 309.877,306.583 311.377,305.708" id="Fill-38" fill="#C8C9C2"></path>
            <path d="M337.877,293.083 C337.877,293.083 345.752,292.083 351.127,288.083 C351.127,288.083 352.502,284.458 354.377,290.208 C354.377,290.208 359.627,305.833 352.502,312.833 C352.502,312.833 343.252,321.458 341.502,318.458 C341.502,318.458 340.627,316.333 341.377,314.708 C341.377,314.708 341.377,295.833 339.002,294.958 C339.002,294.958 337.127,293.833 337.877,293.083" id="Fill-39" fill="#C8C9C2"></path>
            <path d="M601.002,218.333 C601.002,218.333 582.752,240.333 537.752,259.333 L539.502,209.083 L539.752,198.333 C492.752,182.083 385.502,174.833 385.502,174.833 C385.502,173.333 382.252,167.083 382.252,167.083 C483.752,171.583 549.252,191.583 549.252,191.583 L547.002,240.333 L547.502,244.333 C547.502,244.333 567.752,237.083 573.002,232.333 C573.002,232.333 608.647,212.667 623.616,164 C623.616,164 623.085,193 601.002,218.333" id="Fill-40" fill="#C8C9C2"></path>
            <path d="M551.252,388.999 C551.252,388.999 532.919,478.999 478.586,541.666 C478.586,541.666 450.585,475 445.919,396 C445.919,396 443.85,340.212 450.752,299.407 C452.204,290.821 464.586,246 464.586,246 C464.586,246 541.92,317.999 551.586,381.999 C551.586,381.999 551.585,386.332 551.252,388.999 Z M558.586,382.667 C558.586,382.667 561.18,341.627 493.919,261.667 C487.517,254.057 461.502,232.583 461.502,232.583 C461.502,232.583 428.002,282.583 434.502,399.833 C434.502,399.833 440.252,497.833 474.502,558.833 C474.502,558.833 507.92,522.334 528.586,471.667 C528.586,471.667 551.919,422.667 558.919,386.667 L558.586,382.667 Z" id="Fill-41" fill="#C8C9C2"></path>
            <path d="M413.252,331.083 L422.252,333.833 C422.252,333.833 423.696,333.281 423.752,332.833 C429.252,288.833 450.752,228.333 450.752,228.333 L442.252,229.083 C440.002,230.333 415.044,303.024 413.252,331.083" id="Fill-42" fill="#C8C9C2"></path>
            <path d="M271.752,371 C271.752,371 250.142,383.506 248.419,388.667 C248.252,389.167 225.752,418.001 225.085,420.834 C225.085,420.834 214.918,436.334 201.752,436.334 C201.752,436.334 175.418,433.502 162.252,417.001 L174.252,416.167 C174.252,416.167 191.252,424.001 207.085,416.834 C207.085,416.834 219.751,406.167 226.418,396.167 C226.418,396.167 242.252,374.666 264.752,369.5 L272.419,369.334 L271.752,371 Z M320.919918,347.501 L276.252,361.834 C258.752,366.334 250.752,358.501 250.752,358.501 C249.918,359.502 149.085,400.5 149.085,400.5 C146.419,401.833 147.919,402.834 147.919,402.834 L150.585,408.334 C178.252,447.334 205.585,442.167 205.585,442.167 C226.752,440.5 234.252,421.667 234.252,421.667 C237.418,415.833 245.252,406.667 245.252,406.667 C249.085,396.833 272.585,376.001 272.585,376.001 C276.919,371.335 282.419,370.334 282.419,370.334 C287.086,369.334 299.085,365.167 299.085,365.167 C321.419,358.333 320.919918,347.501 320.919918,347.501 Z" id="Fill-43" fill="#C8C9C2"></path>
            <path d="M282.752,380.334 C282.752,380.334 313.419,377.834 337.085,356.834 C337.085,356.834 369.251,356.667 377.085,343.167 C377.085,343.167 378.753,341.167 379.419,342.667 C379.419,342.667 381.918,347.167 383.085,347.167 C383.085,347.167 383.752,349.168 382.752,350.334 C382.752,350.334 377.253,358 383.919,365.667 C383.919,365.667 384.253,365.334 383.419,367.167 C383.419,367.167 380.753,376.167 381.419,378.667 L381.752,380 C381.752,380 370.419,369 354.585,370 C354.585,370 327.419,372.666 322.585,393.5 L270.918,394.667 C270.918,394.667 281.418,380.334 282.752,380.334" id="Fill-44" fill="#C8C9C2"></path>
            <path d="M343.918,380.667 C343.918,380.667 364.252,372.168 375.252,388.001 C375.252,388.001 376.919,394.834 373.252,396.834 C373.252,396.834 370.251,400.667 368.085,401.334 C368.085,401.334 365.918,401.167 368.085,403.667 C368.085,403.667 376.918,428.333 377.085,429.167 C377.085,429.167 355.252,435 347.752,435.167 L348.252,405.834 L342.585,403.501 L336.418,400.501 L334.085,395.667 L334.085,390.501 L337.918,387.167 L344.918,385.167 L343.918,380.667" id="Fill-45" fill="#C8C9C2"></path>
            <path d="M316.585,450.667 C316.585,450.667 291.085,467 306.418,482.167 C306.418,482.167 313.252,488.667 321.752,478.667 C321.752,478.667 326.585,472.834 327.085,469.834 C327.085,469.834 402.751,455.5 405.085,455.167 C405.085,455.167 403.418,436 404.085,435.5 L397.919,439.667 L353.418,447.834 L333.585,450.667 C333.585,450.667 324.752,454.334 324.252,454.334 C323.752,454.334 319.252,453.5 319.252,453.5 L316.585,450.667" id="Fill-46" fill="#C8C9C2"></path>
            <path d="M352.585,474.667 L373.085,471.834 C373.085,471.834 373.919,479.501 375.252,480.834 C375.252,480.834 357.585,485 354.252,486.167 L352.585,485.667 C352.585,485.667 351.252,475.667 352.585,474.667" id="Fill-47" fill="#C8C9C2"></path>
            <path d="M340.085,479.501 L340.085,488.834 C340.085,488.834 333.085,491.501 331.418,491.501 C331.418,491.501 334.918,552.501 336.252,555.001 C336.252,555.001 323.418,561.667 314.752,561.334 C314.752,561.334 260.252,549.001 236.252,531.834 C236.252,531.834 182.418,504.167 167.418,486.167 L177.585,472.501 L187.752,467.001 L206.418,459.334 L215.752,453.501 C215.752,453.501 228.752,448.501 230.085,447.501 C230.085,447.501 296.085,444.333 308.752,444.667 C308.752,444.667 282.085,459.835 293.085,485.001 C293.085,485.001 301.085,504.501 319.585,493.501 C319.585,493.501 331.918,485.168 331.918,481.001 L340.085,479.501" id="Fill-48" fill="#C8C9C2"></path>
            <path d="M367.752,331.833 C367.752,331.833 362.252,326.583 359.252,325.333 L352.252,325.333 C352.252,325.333 336.752,333.583 335.252,337.833 L335.252,341.083 C335.252,341.083 334.002,343.833 348.752,344.083 C348.752,344.083 363.502,346.083 367.752,337.083 L367.752,331.833" id="Fill-49" fill="#FFFFFE"></path>
            <path d="M347.502,278.833 C347.502,278.833 333.252,260.333 323.252,260.583 C323.252,260.583 317.502,260.833 312.252,264.333 C312.252,264.333 311.252,264.833 309.252,264.333 C309.252,264.333 298.502,260.583 290.252,268.833 C290.252,268.833 272.252,267.333 266.752,270.583 C266.752,270.583 254.502,277.333 251.752,281.583 C251.752,281.583 229.752,284.833 222.752,296.583 C222.752,296.583 205.002,327.333 189.252,333.833 C189.252,333.833 188.752,329.833 190.002,326.333 L167.252,325.583 C167.252,325.583 150.252,338.583 149.252,355.083 L231.252,326.083 C231.252,326.083 261.002,326.333 268.752,314.083 C268.752,314.083 268.752,307.833 252.502,293.083 C252.502,293.083 268.752,298.333 276.002,309.083 C276.002,309.083 288.502,311.333 293.252,308.833 C293.252,308.833 306.502,299.833 297.502,293.333 C297.502,293.333 283.002,280.083 279.752,279.333 C279.752,279.333 297.502,278.833 308.502,299.083 C308.502,299.083 320.252,302.083 327.252,291.083 C327.252,291.083 324.252,282.083 319.752,278.583 C319.752,278.583 326.252,280.333 333.002,287.333 C333.002,287.333 343.252,289.083 347.502,278.833" id="Fill-50" fill="#FFFFFE"></path>
            <path d="M387.502,251.833 C332.752,223.833 244.252,247.083 244.252,247.083 C230.502,241.083 210.502,242.333 210.502,242.333 C176.752,247.583 165.252,264.333 165.252,264.333 C212.502,251.833 230.252,277.583 230.252,277.583 C256.002,253.833 292.002,256.833 292.002,256.833 C297.002,252.333 309.252,255.333 309.252,255.333 L314.252,254.833 C318.252,252.083 331.252,252.583 331.252,252.583 C335.002,253.583 347.502,263.833 347.502,263.833 C370.752,259.583 393.002,265.583 393.002,265.583 C409.085,277.166 413.252,294.383 413.252,294.383 C416.918,270.766 420.252,256.333 420.252,256.333 C414.002,248.833 387.502,251.833 387.502,251.833" id="Fill-51" fill="#FFFFFE"></path>
            <path d="M198.502,269.583 C198.502,269.583 177.002,268.583 173.252,294.083 C173.252,294.083 152.252,295.083 144.502,302.583 C144.502,302.583 151.002,259.833 198.502,269.583" id="Fill-52" fill="#FFFFFE"></path>
            <path d="M168.752,303.583 C168.752,303.583 155.502,314.333 155.252,325.083 L146.002,336.583 L127.002,346.833 L120.252,339.833 C120.252,339.833 123.752,304.333 168.752,303.583" id="Fill-53" fill="#FFFFFE"></path>
            <path d="M135.419,405.667 C128.919,383.498 135.252,362.083 135.252,362.083 L139.502,349.583 L137.252,349.333 C137.252,349.333 119.918,361.841 111.252,368.388 C111.252,368.388 97.339,377.74 95.585,383.498 C91.252,397.726 107.585,416.167 107.585,416.167 C124.085,444.167 155.585,434.334 155.585,434.334 L155.919,433.334 C150.919,430.335 137.841,413.928 135.419,405.667" id="Fill-54" fill="#FFFFFE"></path>
            <path d="M104.752,333.833 C104.752,333.833 109.502,341.583 112.252,342.083 C112.252,342.083 119.502,345.333 114.502,356.333 C114.502,356.333 112.002,367.333 99.002,367.583 L95.252,364.333 L90.002,363.083 L89.502,361.583 L94.752,357.333 L96.002,351.083 C96.002,351.083 90.752,345.583 91.502,345.333 C92.252,345.083 101.752,344.583 101.752,344.583 L103.252,343.833 L104.752,333.833" id="Fill-55" fill="#FFFFFE"></path>
            <path d="M250.502,236.583 C248.914,237.124 267.252,223.583 270.502,211.583 C270.502,211.583 305.252,228.083 308.252,228.583 C308.252,228.583 261.502,232.833 250.502,236.583" id="Fill-56" fill="#FFFFFE"></path>
            <path d="M428.002,306.959 L418.169,305.167 C418.169,305.167 415.668,315.542 415.044,320.334 L425.377,322.834 C425.377,322.834 427.502,308.959 428.002,306.959" id="Fill-57" fill="#FFFFFE"></path>
            <path d="M413.377,330.375 C413.377,330.375 422.794,331.334 423.794,332.334 C423.794,332.334 416.918,414.335 428.252,455.667 C428.252,455.667 447.92,546.001 464.586,568.334 L453.586,569.334 C453.586,569.334 419.92,495.667 415.586,448.667 C415.586,448.667 405.676,369.037 413.377,330.375" id="Fill-58" fill="#FFFFFE"></path>
            <path d="M312.92,152.464 C312.92,152.464 289.486,158.981 280.212,171.388 C280.212,171.388 280.463,160.485 281.842,156.6 C281.842,156.6 293.872,142.565 313.046,140.184 L312.92,152.464 Z M311.166,168.881 C309.16,171.263 306.905,169.884 306.905,169.884 C302.017,165.873 307.281,162.239 307.281,162.239 C309.787,160.109 311.793,162.866 311.793,162.866 C313.548,165.998 311.166,168.881 311.166,168.881 Z M310.665,186.676 C302.519,189.057 305.777,181.163 305.777,181.163 C307.156,177.153 311.417,179.784 311.417,179.784 C313.673,184.671 310.665,186.676 310.665,186.676 Z M299.01,180.912 C293.12,182.415 294.499,176.525 294.499,176.525 C295,170.259 300.263,173.769 300.263,173.769 C303.271,178.531 299.01,180.912 299.01,180.912 Z M318.433,133.29 C279.961,131.912 271.565,162.866 271.565,162.866 C270.186,162.991 266.427,157.727 266.427,157.727 C253.895,173.142 256.652,188.556 256.652,188.556 L258.03,188.18 C259.659,183.293 266.427,175.147 266.427,175.147 C264.923,178.28 255.273,209.108 255.273,209.108 L256.151,208.732 C258.031,204.095 267.429,199.208 267.429,199.208 C270.938,197.454 280.086,198.832 280.086,198.832 C303.019,213.369 321.692,214.748 321.692,214.748 L318.433,133.29 Z" id="Fill-59" fill="#FFFFFE"></path>
            <path d="M336.449,390.361 C336.449,390.361 343.16,398.773 361.387,394.367 C361.387,394.367 364.191,392.364 361.988,395.969 C361.988,395.969 359.784,400.677 350.971,401.478 C350.971,401.478 333.044,399.875 336.449,390.361 Z M367.396,388.658 C367.396,388.658 366.195,379.443 348.768,379.343 C348.768,379.343 331.441,382.649 332.142,395.569 C332.142,395.569 330.44,403.38 345.162,406.385 L347.165,435.629 L365.393,432.124 L359.684,404.783 C359.684,404.783 368.097,398.072 367.396,388.658 Z" id="Fill-60" fill="#FFFFFE"></path>
            <path d="M403.752,435.43 C403.752,435.43 320.825,449.151 316.318,450.954 C316.318,450.954 297.589,461.069 308.005,474.189 C308.005,474.189 309.307,478.998 316.518,472.287 C316.518,472.287 323.229,464.976 323.429,461.47 L404.053,446.547 L403.752,435.43" id="Fill-61" fill="#FFFFFE"></path>
            <path d="M268.845,450.454 C268.845,450.454 256.279,505.665 259.176,533.966 C259.193,534.139 259.23,535.182 259.23,535.182 C259.23,535.182 247.312,530.776 246.511,529.373 C246.511,529.373 251.418,474.888 268.845,450.454" id="Fill-62" fill="#FFFFFE"></path>
            <path d="M230.185,447.552 C230.185,447.552 254.622,446.049 259.63,446.15 C259.63,446.15 236.596,501.336 235.994,530.58 C235.994,530.58 222.473,526.17 205.848,514.052 C205.848,514.052 221.072,457.068 230.185,447.552" id="Fill-63" fill="#FFFFFE"></path>
            <path d="M180.208,454.361 C180.208,454.361 197.334,461.671 216.163,453.159 L216.263,453.961 C216.263,453.961 195.131,500.33 195.131,506.64 C195.131,506.64 170.693,491.217 167.388,485.308 C167.388,485.308 177.504,458.067 180.208,454.361" id="Fill-64" fill="#FFFFFE"></path>
            <path d="M410.609,294.383 C410.609,294.383 377.922,308.271 376.059,308.61 C376.059,308.61 375.044,314.537 384.189,313.521 C384.189,313.521 401.803,311.659 410.948,296.754 C410.948,296.754 412.471,294.553 410.609,294.383" id="Fill-65" fill="#9FACAF"></path>
            <path d="M406.376,329.611 C406.376,329.611 393.166,328.763 392.827,337.74 C392.827,337.74 392.318,342.99 395.875,343.329 C395.875,343.329 403.665,344.514 404.681,343.667 C404.681,343.667 407.054,332.998 406.376,329.611" id="Fill-66" fill="#9FACAF"></path>
            <path d="M407.391,329.78 C407.391,329.78 404.344,341.635 405.19,344.006 C405.19,344.006 395.537,344.685 393.335,341.466 C393.335,341.466 391.303,334.522 395.367,332.49 C395.367,332.49 399.77,327.748 407.391,329.78" id="Fill-67" fill="#9FACAF"></path>
            <path d="M399.093,355.354 C399.093,355.354 391.81,357.894 391.471,361.112 L390.286,360.604 C390.286,360.604 386.693,355.898 390.286,352.305 C390.794,351.797 394.689,348.071 396.553,350.103 C396.553,350.103 401.971,353.831 399.093,355.354" id="Fill-68" fill="#9FACAF"></path>
            <path d="M394.012,370.257 C394.012,370.257 398.246,373.983 400.448,373.644 C400.448,373.644 401.125,374.662 399.431,374.999 C399.431,374.999 392.318,377.201 392.318,382.282 C392.318,382.282 391.303,386.007 390.117,380.418 C390.117,380.418 388.931,372.121 394.012,370.257" id="Fill-69" fill="#9FACAF"></path>
            <path d="M395.537,394.645 L397.399,394.645 C397.399,394.645 400.786,397.015 402.141,396.846 C402.141,396.846 401.296,398.033 400.618,398.202 C400.618,398.202 397.569,398.879 397.569,400.573 C397.569,400.573 397.06,401.419 396.214,399.895 C396.214,399.895 394.351,398.372 395.537,394.645" id="Fill-70" fill="#9FACAF"></path>
            <path d="M145.742,15.379 C143.479,18.544 142.305,20.112 140.146,23.315 C144.782,23.9 147.103,24.192 151.754,24.773 C149.246,20.982 148.119,19.131 145.742,15.379 Z M160.538,13.809 C169.063,23.701 177.803,33.395 186.557,43.082 C176.582,41.92 171.593,41.313 161.614,40.079 C159.793,37.221 158.884,35.792 157.07,32.934 C156.46,31.974 156.154,31.494 155.545,30.535 C148.183,29.618 144.507,29.152 137.168,28.222 C136.618,29.035 136.344,29.442 135.792,30.254 C138.104,33.177 139.265,34.64 141.599,37.566 C131.22,36.249 126.032,35.581 115.656,34.256 C123.106,26.497 130.501,18.691 137.984,10.964 C135.017,8.261 133.535,6.907 130.57,4.196 C140.266,5.45 145.13,6.077 154.883,7.303 C157.143,9.908 158.275,11.209 160.538,13.809 Z" id="Fill-71" fill="#48337B"></path>
            <path d="M255.939,43.556 C255.979,46.123 255.998,47.406 256.038,49.972 C239.125,48.68 222.238,47.068 205.374,45.251 C205.029,35.359 204.813,30.394 204.84,20.653 C200.141,17.166 197.796,15.415 193.109,11.905 C202.557,12.98 212.012,13.997 221.475,14.94 C221.474,17.919 221.473,19.41 221.472,22.389 C221.46,29.604 221.523,33.242 221.738,40.558 C229.658,41.351 233.618,41.729 241.535,42.424 C247.298,42.907 250.179,43.134 255.939,43.556" id="Fill-72" fill="#48337B"></path>
            <path d="M329.083,46.825 C329.081,49.355 329.08,50.622 329.079,53.152 C312.223,53.072 295.373,52.48 278.546,51.501 C278.556,48.533 278.56,47.047 278.57,44.079 C278.524,37.227 278.507,33.811 278.483,26.994 C273.769,23.727 271.411,22.083 266.696,18.773 C276.131,19.414 285.574,19.945 295.022,20.344 C295.04,23.34 295.05,24.838 295.067,27.834 C295.094,35.09 295.103,38.725 295.116,46 C302.998,46.336 306.935,46.466 314.795,46.635 C320.517,46.759 323.374,46.798 329.083,46.825" id="Fill-73" fill="#48337B"></path>
            <path d="M403.136,18.458 C403.174,20.59 403.193,21.655 403.231,23.787 C398.467,24.13 396.08,24.291 391.299,24.584 C382.306,25.133 377.798,25.365 368.725,25.721 C368.813,28.525 368.856,29.926 368.944,32.73 C373.932,32.541 376.416,32.431 381.364,32.183 C384.88,31.961 386.633,31.844 390.132,31.593 C390.202,34.223 390.247,35.538 390.104,38.146 C386.617,38.315 384.869,38.393 381.362,38.535 C376.427,38.778 373.949,38.887 368.968,39.073 C368.851,41.904 368.795,43.319 368.679,46.15 C377.673,45.813 382.13,45.593 391.009,45.069 C391.029,45.068 391.041,45.069 391.061,45.067 C396.164,44.75 398.705,44.577 403.783,44.203 C403.63,46.75 403.554,48.024 403.4,50.572 C382.295,51.951 361.221,52.828 340.071,53.131 C344.864,50.131 347.272,48.615 352.102,45.555 C352.273,38.692 352.267,35.259 352.103,28.389 C347.264,25.516 344.844,24.067 340.052,21.136 C361.121,20.81 382.112,19.878 403.136,18.458" id="Fill-74" fill="#48337B"></path>
            <path d="M445.64,14.701 C453.386,20.946 457.225,24.198 464.666,30.23 C464.879,26.302 464.934,24.225 465.105,20.204 C460.588,17.673 458.318,16.402 453.742,13.853 C464.614,12.664 475.478,11.427 486.34,10.147 C481.495,13.759 479.077,15.563 474.279,19.156 C473.783,29.208 473.538,34.091 473.047,43.906 C466.485,44.666 463.221,45.034 456.711,45.737 C449.194,39.318 445.732,36.179 437.963,29.523 C437.891,33.892 437.672,35.996 437.406,40.281 C437.2,43.273 437.096,44.77 436.891,47.763 C433.259,48.112 431.443,48.282 427.814,48.608 C428.023,45.616 428.129,44.117 428.338,41.125 C428.766,34.299 428.875,30.855 428.92,23.909 C424.308,21.296 421.982,19.984 417.293,17.35 C426.75,16.555 436.199,15.669 445.64,14.701" id="Fill-75" fill="#48337B"></path>
            <path d="M497.269,42.253 C497.504,35.841 497.623,32.634 497.857,26.221 C500.592,29.145 504.45,31.211 509.471,32.409 C514.491,33.606 520.115,33.805 526.353,32.998 C532.914,32.148 536.256,30.86 536.273,29.157 C536.281,28.36 535.844,27.883 534.963,27.725 C534.082,27.567 531.963,27.583 528.635,27.766 C525.76,27.925 524.329,28.003 521.476,28.157 C513.181,28.623 507.429,28.382 504.099,27.465 C498.802,26.006 496.31,23.255 496.541,19.244 C496.758,15.472 498.718,12.296 502.42,9.714 C506.122,7.132 511.115,5.453 517.412,4.667 C523.474,3.91 528.873,4.078 533.662,5.158 C534.193,5.279 534.461,5.341 534.994,5.462 C538.648,3.889 540.471,3.103 544.097,1.543 C544.016,6.977 543.977,9.694 543.896,15.128 C535.301,10.759 526.458,9.119 516.935,10.32 C511.193,11.045 508.286,12.271 508.189,14.009 C508.144,14.822 508.806,15.349 510.179,15.586 C511.553,15.824 514.159,15.857 518.021,15.68 C520.754,15.549 522.123,15.482 524.871,15.347 C533.492,14.932 539.345,15.208 542.306,16.204 C547.272,17.873 549.844,20.631 549.841,24.506 C549.84,27.975 547.805,31.003 543.754,33.583 C539.702,36.162 534.274,37.892 527.564,38.757 C520.368,39.686 513.095,39.472 505.787,38.107 C502.375,39.77 500.671,40.6 497.269,42.253" id="Fill-76" fill="#48337B"></path>
        </g>
    </g>
</svg>