<?xml version="1.0" encoding="UTF-8" standalone="no"?>
<svg width="1207px" height="717px" viewBox="0 0 1207 717" version="1.1" xmlns="http://www.w3.org/2000/svg" xmlns:xlink="http://www.w3.org/1999/xlink">
    <!-- Generator: Sketch 49.1 (51147) - http://www.bohemiancoding.com/sketch -->
    <title>Braunds_Beast</title>
    <desc>Created with Sketch.</desc>
    <defs>
        <polygon id="path-1" points="0.06 1041.89 1206.69094 1041.89 1206.69094 1757.47844 0.06 1757.47844"></polygon>
    </defs>
    <g id="Page-1" stroke="none" stroke-width="1" fill="none" fill-rule="evenodd">
        <g id="Braunds_Beast" transform="translate(0.000000, -1041.000000)">
            <mask id="mask-2" fill="white">
                <use xlink:href="#path-1"></use>
            </mask>
            <g id="Clip-2"></g>
            <path d="M1124.48,1446.526 C1120.32,1450.149 1116.12,1453.711 1111.21,1456.642 C1112.12,1455.109 1113.05,1453.586 1113.95,1452.041 C1124.01,1434.523 1134.45,1417.217 1143.91,1399.379 C1147.24,1393.108 1148.32,1385.581 1149.94,1378.516 C1150.36,1376.688 1148.89,1374.432 1148.29,1372.37 C1146.42,1373.3 1144.27,1373.915 1142.77,1375.247 C1141,1376.819 1139.79,1379.022 1137.39,1382.203 C1135.81,1377.917 1135.06,1375.71 1134.17,1373.555 C1132.28,1368.949 1129.59,1368.519 1126.28,1372.267 C1125.67,1372.963 1125.22,1373.806 1124.64,1374.546 C1121.37,1378.776 1119.78,1378.76 1116.58,1374.437 C1114.85,1372.098 1113.19,1369.716 1110.98,1366.632 C1108.81,1369.118 1107.3,1370.918 1105.71,1372.653 C1101.8,1376.928 1099.38,1376.961 1095.69,1372.468 C1094.3,1370.771 1093.62,1368.525 1092.4,1366.66 C1091.34,1365.023 1089.98,1363.565 1088.75,1362.031 C1087.18,1363.483 1085.2,1364.686 1084.12,1366.442 C1082.27,1369.449 1080.89,1372.767 1079.47,1376.019 C1068.33,1401.505 1051.44,1422.335 1028.97,1438.672 C1027.76,1439.554 1026.53,1440.386 1026.5,1440.402 C1034.71,1421.432 1043.73,1401.755 1051.71,1381.665 C1055.12,1373.066 1056.66,1363.668 1058.5,1354.521 C1059.18,1351.176 1058.78,1347.369 1057.89,1344.029 C1057.37,1342.061 1055.02,1339.292 1053.32,1339.156 C1047.99,1338.732 1045.38,1335.371 1042.92,1331.548 C1039.8,1326.713 1036.47,1322.389 1030.03,1321.785 C1028.89,1321.676 1027,1319.67 1027.03,1318.582 C1027.24,1310.125 1021.49,1305.812 1015.57,1301.776 C1011.3,1298.867 1006.61,1296.555 1002.43,1292.748 C1006.69,1293.983 1011.43,1294.407 1015.12,1296.593 C1027.81,1304.093 1040.41,1311.827 1052.54,1320.197 C1065.16,1328.904 1076.97,1338.77 1089.55,1347.543 C1098.81,1354.004 1109.47,1356.424 1120.89,1356.533 C1135.1,1356.674 1149.33,1357.278 1163.48,1358.523 C1171.67,1359.241 1172.23,1360.748 1170.55,1368.732 C1164.02,1399.873 1148.41,1425.674 1124.48,1446.526 Z M1161.26,1537.797 C1167.44,1555.527 1171.82,1573.671 1172.5,1592.554 C1172.57,1594.501 1172.51,1596.464 1172.03,1598.542 C1166.46,1589.209 1161.81,1579.393 1152.27,1573.66 C1150.79,1619.655 1148.06,1664.959 1115.58,1701.708 C1120.79,1693.283 1125.93,1684.723 1126.7,1674.411 C1127.51,1663.447 1122.44,1655.376 1113.2,1648.948 C1123.83,1639.734 1132.58,1629.793 1138.49,1617.653 C1143.17,1608.043 1146.16,1598.09 1143.16,1587.3 C1138.56,1570.81 1122.67,1560.7 1104.47,1562.549 C1101.7,1562.832 1098.93,1563.06 1094.67,1563.452 C1096.66,1560.972 1097.84,1559.476 1099.05,1558.008 C1109.81,1544.988 1118.46,1531.005 1120.4,1513.683 C1122.45,1495.332 1113.93,1482.176 1096.11,1476.733 C1095.59,1476.575 1095.1,1476.308 1094.46,1476.036 C1094.16,1471.871 1095.75,1470.217 1100.14,1470.043 C1104.56,1469.858 1109.24,1469.156 1113.25,1467.416 C1117.66,1465.496 1119.98,1467.051 1122.82,1469.978 C1141.54,1489.257 1152.57,1512.873 1161.26,1537.797 Z M1112.52,1675.803 C1109.82,1686.942 1102.8,1695.051 1093.87,1701.637 C1080.35,1711.617 1064.76,1716.756 1048.51,1720.042 C1020.25,1725.753 992.049,1725.964 964.012,1718.519 C962.321,1718.067 960.689,1717.377 957.372,1716.223 C967.259,1713.678 975.603,1711.932 983.689,1709.36 C1004.14,1702.872 1024.53,1696.139 1044.84,1689.199 C1049.02,1687.769 1053.33,1685.669 1056.57,1682.755 C1067.49,1672.942 1080.69,1667.314 1093.68,1661.19 C1099,1658.683 1104,1659.422 1108.46,1662.702 C1112.83,1665.911 1113.77,1670.653 1112.52,1675.803 Z M890.128,1678.833 L890.128,1672.04 C890.128,1627.633 890.074,1583.221 890.21,1538.815 C890.226,1534.17 889.52,1531.712 884.059,1531.429 C873.051,1530.853 862.092,1529.21 851.079,1528.607 C846.358,1528.351 841.55,1529.585 836.346,1530.189 L836.346,1481.208 C839.304,1481.208 842.083,1481.018 844.835,1481.235 C882.171,1484.194 919.514,1487.153 956.828,1490.389 C958.775,1490.557 961.261,1492.858 962.207,1494.799 C965.981,1502.523 968.619,1510.849 972.867,1518.273 C976.908,1525.333 982.438,1531.549 987.301,1538.135 C988.214,1539.375 989.095,1540.631 990.575,1542.693 C976.103,1541.436 963.126,1540.305 949.214,1539.103 C949.214,1542.084 949.203,1544.058 949.22,1546.037 C949.333,1563.648 949.323,1581.263 949.676,1598.874 C949.769,1603.36 948.626,1606.716 945.314,1609.762 C941.523,1613.243 938.152,1617.181 933.779,1621.775 C939.708,1620.814 944.276,1620.079 949.763,1619.187 C949.763,1628.667 949.116,1637.635 949.948,1646.462 C950.781,1655.349 948.354,1661.467 940.072,1665.4 C936.471,1667.107 933.458,1670.049 929.428,1672.97 C935.324,1674.352 940.126,1675.945 945.048,1676.5 C949.279,1676.979 950.813,1678.996 951.335,1682.819 C951.678,1685.338 952.569,1687.779 953.413,1691.01 C932.082,1686.904 911.416,1682.928 890.128,1678.833 Z M829.52,1627.535 C829.074,1645.102 815.809,1659.623 796.268,1662.011 C785.129,1663.371 773.556,1661.908 762.244,1660.934 C727.747,1657.959 693.276,1654.604 658.795,1651.395 C657.5,1651.275 656.212,1651.123 654.482,1650.933 L654.482,1600.549 C655.336,1600.619 655.989,1600.473 656.38,1600.728 C671.516,1610.665 688.953,1611.502 706.063,1612.405 C723.977,1613.357 741.979,1612.742 759.943,1612.65 C762.891,1612.633 765.986,1612.16 768.749,1611.165 C773.35,1609.506 776.063,1606.118 775.917,1600.908 C775.775,1595.828 772.773,1592.989 768.292,1591.684 C765.453,1590.863 762.423,1590.525 759.459,1590.308 C733.691,1588.431 707.885,1586.985 682.154,1584.679 C663.119,1582.976 654.656,1573.269 654.297,1554.043 C654.036,1540.186 654.792,1526.289 654.036,1512.464 C652.791,1489.622 671.571,1476.721 687.865,1475.65 C697.926,1474.992 708.069,1475.09 718.158,1475.421 C750.916,1476.493 783.667,1477.826 816.413,1479.066 C817.691,1479.114 818.963,1479.31 820.345,1479.452 L820.345,1527.378 C796.899,1516.603 772.626,1520.029 748.914,1518.643 C739.206,1518.072 729.427,1517.865 719.725,1518.349 C710.544,1518.812 705.97,1523.858 706.215,1531.554 C706.476,1539.484 710.979,1543.726 720.241,1544.335 C742.85,1545.82 765.49,1546.913 788.067,1548.74 C795.251,1549.317 802.523,1551.041 809.343,1553.412 C822.357,1557.942 829.346,1567.531 829.531,1581.459 C829.738,1596.818 829.901,1612.182 829.52,1627.535 Z M576.709,1652.586 C584.628,1636.939 583.932,1620.411 581.43,1603.66 C580.865,1599.874 579.097,1598.825 575.442,1598.895 C558.028,1599.233 540.608,1599.456 523.193,1599.44 C519.016,1599.434 517.618,1600.717 517.787,1604.916 C518.2,1615.206 517.434,1625.61 518.711,1635.77 C519.419,1641.415 523.275,1646.663 525.858,1652.423 C503.701,1653.489 480.353,1654.609 455.863,1655.79 C465.604,1642.003 463.906,1627.013 463.972,1612.329 C464.129,1577.495 464.309,1542.66 464.287,1507.825 C464.282,1496.29 462.558,1485.102 453.35,1475.28 C466.305,1474.688 478.215,1473.769 490.137,1473.665 C525.722,1473.36 561.308,1473.344 596.887,1473.301 C605.099,1473.295 612.801,1475.329 619.718,1479.946 C626.093,1484.194 629.481,1490.068 629.796,1497.758 C631.341,1535.541 632.651,1573.345 634.636,1611.11 C635.278,1623.375 637.715,1635.546 639.347,1647.756 C639.542,1649.198 639.847,1650.633 640.184,1652.586 L576.709,1652.586 Z M444.082,1531.359 C435.163,1523.293 425.667,1525.599 416.438,1525.98 C395.32,1526.839 374.196,1527.731 352.348,1528.639 L352.348,1553.227 C382.805,1550.894 413.284,1548.561 443.577,1546.244 L443.577,1588.203 C439.079,1587.735 435.239,1586.822 431.47,1587.039 C411.869,1588.143 392.279,1589.492 372.695,1590.868 C367.093,1591.26 361.535,1592.217 355.938,1592.554 C352.68,1592.75 351.25,1593.794 351.353,1597.242 C351.549,1603.926 351.413,1610.616 351.413,1618.213 C382.299,1613.775 412.93,1614.483 443.017,1607.635 L443.017,1656.458 C390.669,1661.652 338.317,1666.852 285.355,1672.11 C286.394,1670.566 287.139,1669.359 287.982,1668.222 C293.083,1661.402 295.71,1653.777 295.71,1645.238 C295.694,1600.288 295.71,1555.338 295.694,1510.387 C295.688,1499.95 292.747,1490.465 285.089,1481.035 C338.883,1478.963 391.36,1476.933 444.082,1474.9 L444.082,1531.359 Z M276.044,1548.365 C276.093,1557.502 272.319,1565.018 265.89,1571.332 C264.59,1572.616 263.378,1573.992 261.572,1575.906 C273.673,1579.713 275.821,1589.204 275.897,1599.603 C276.001,1613.264 276.257,1626.959 275.5,1640.588 C274.342,1661.408 262.959,1674.987 242.564,1679.099 C222.593,1683.135 202.345,1685.756 182.266,1689.264 C153.708,1694.252 125.197,1699.488 96.667,1704.607 C95.764,1704.77 94.844,1704.797 92.958,1704.982 C102.828,1690.956 105.347,1676.309 105.113,1660.478 C104.455,1615.913 104.34,1571.332 104.46,1526.763 C104.493,1514.521 104.455,1502.898 91.538,1495.806 C91.843,1495.398 92.152,1494.99 92.452,1494.582 C94.681,1494.283 96.9,1493.842 99.135,1493.695 C144.347,1490.704 189.559,1487.74 234.77,1484.809 C238.691,1484.559 242.635,1484.461 246.561,1484.565 C263.628,1485.031 274.445,1494.876 275.522,1511.877 C276.283,1524.005 275.979,1536.204 276.044,1548.365 Z M193.692,1367.998 C190.053,1331.83 202.65,1300.302 223.491,1271.505 C224.671,1269.868 225.845,1268.231 227.956,1265.304 C216.257,1266.915 206.141,1268.301 196.025,1269.693 C216.681,1250.077 239.437,1233.804 265.156,1219.718 C265.303,1255.776 274.358,1288.212 291.778,1318.25 C292.453,1318.294 293.127,1318.342 293.807,1318.386 C295.754,1310.25 297.701,1302.113 299.985,1292.552 C300.638,1300.645 300.741,1307.4 301.796,1314.003 C305.147,1335.033 314.768,1353.362 327.38,1370.178 C344.99,1393.663 366.212,1413.263 391.534,1428.269 C393.699,1429.552 396.054,1430.515 399.453,1432.185 C393.884,1414.323 391.295,1397.393 393.623,1378.418 C403.581,1392.531 417.02,1399.297 432.27,1405.133 C428.533,1409.342 425.477,1413.269 421.937,1416.69 C403.369,1434.588 380.526,1444.073 355.71,1448.952 C318.227,1456.321 281.222,1455.07 245.272,1440.788 C212.325,1427.703 197.085,1401.745 193.692,1367.998 Z M311.607,1171.015 C307.605,1184.291 305.32,1196.555 311.749,1208.373 C318.275,1220.371 328.973,1226.163 341.896,1227.191 C338.594,1236.502 334.542,1245.378 332.323,1254.694 C325.999,1281.278 339.04,1303.571 363.542,1308.667 C373.608,1310.756 383.67,1309.531 393.454,1306.328 C395.363,1305.703 397.299,1305.165 398.724,1304.74 C398.724,1314.334 397.511,1323.961 398.947,1333.168 C403.271,1360.851 423.551,1373.947 451.055,1368.438 C472.586,1364.125 487.591,1351.872 496.696,1332.287 C502.053,1320.784 506.649,1308.933 511.729,1296.887 C512.327,1297.164 513.262,1297.349 513.882,1297.903 C527.13,1309.766 533.44,1324.477 530.166,1342.148 C526.827,1360.187 516.569,1372.968 498.219,1377.493 C449.576,1389.48 408.04,1376.802 373.5,1340.706 C372.074,1339.216 370.748,1337.633 369.339,1336.132 C369.116,1335.893 368.708,1335.822 367.18,1335.121 C370.497,1351.012 373.651,1366.143 376.812,1381.268 C376.567,1381.496 376.322,1381.73 376.078,1381.958 C368.355,1372.408 360.267,1363.13 352.985,1353.253 C334.21,1327.795 318.438,1300.727 310.183,1269.824 C306.61,1256.451 305.783,1242.946 307.344,1229.083 C299.083,1238.857 299.838,1251.115 298.212,1263.259 C287.917,1236.665 290.141,1197.914 311.607,1171.015 Z M341.237,1160.752 C353.714,1144.528 371.101,1136.174 390.447,1131.655 C414.898,1125.944 439.405,1126.396 463.792,1132.454 C465.767,1132.944 467.708,1133.581 469.861,1134.206 C458.043,1139.296 446.122,1143 435.734,1149.249 C420.403,1158.473 406.235,1169.617 391.426,1179.733 C382.484,1185.829 373.581,1192.133 364.042,1197.164 C358.456,1200.117 351.723,1201.732 345.371,1202.194 C335.989,1202.875 330.376,1196.658 330.42,1187.276 C330.469,1177.013 335.255,1168.535 341.237,1160.752 Z M469.068,1106.57 C487.641,1102.905 503.848,1107.168 516.971,1121.554 C525.994,1131.441 533.053,1142.383 538.111,1156.508 C526.005,1147.545 513.86,1142.781 500.399,1141.454 C499.421,1141.361 498.306,1140.605 497.621,1139.833 C485.857,1126.704 470.83,1119.15 454.247,1114.195 C453.545,1113.983 452.909,1113.559 451.849,1111.813 C457.582,1110.034 463.21,1107.723 469.068,1106.57 Z M567.437,1344.492 C567.458,1344.016 567.518,1343.539 567.588,1343.063 C567.516,1342.992 567.443,1342.921 567.371,1342.849 C567.601,1342.448 567.698,1342.257 567.733,1342.183 C567.75,1342.138 567.762,1342.122 567.733,1342.183 C567.724,1342.207 567.714,1342.239 567.708,1342.272 C567.668,1342.536 567.627,1342.799 567.588,1343.063 C588.56,1363.715 609.769,1384.598 631.172,1405.676 C619.702,1405.676 607.797,1405.975 595.919,1405.535 C590.682,1405.339 588.365,1407.134 586.641,1411.953 C582.741,1422.868 578.134,1433.533 573.947,1444.351 C572.892,1447.059 571.695,1448.549 568.345,1448.501 C522.454,1447.793 476.563,1447.25 430.67,1446.646 C429.964,1446.635 429.256,1446.39 428.544,1446.254 C428.229,1445.754 427.908,1445.248 427.587,1444.748 C431.818,1440.832 436.419,1437.237 440.194,1432.919 C445.344,1427.028 450.206,1420.807 454.53,1414.291 C456.553,1411.235 458.283,1410.761 461.714,1411.072 C487.554,1413.405 512.696,1411.093 535.517,1397.415 C555.395,1385.499 566.333,1367.889 567.437,1344.492 Z M379.14,1285.199 C360.517,1289.311 349.423,1278.38 353.007,1259.572 C356.302,1242.294 365.641,1228.034 377.432,1215.454 C403.254,1187.896 433.907,1168.176 471.259,1160.333 C497.979,1154.715 521.708,1161.285 541.946,1179.825 C542.859,1180.657 543.659,1181.609 545.589,1183.643 C528.893,1182.431 514.062,1183.627 499.66,1188.467 C474.376,1196.963 454.851,1212.843 440.172,1234.902 C436.125,1240.983 432.357,1247.237 428.277,1253.285 C416.427,1270.858 399.387,1280.729 379.14,1285.199 Z M421.066,1293.221 C437.997,1260.165 464.901,1237.747 498.181,1222.53 C515.683,1214.529 532.461,1210.929 544.904,1211.995 C521.833,1221.067 508.334,1239.389 497.746,1260.323 C488.212,1279.173 479.646,1298.529 469.813,1317.222 C465.794,1324.852 460.241,1331.999 454.123,1338.095 C450.109,1342.104 444.104,1344.742 438.519,1346.422 C424.422,1350.659 413.506,1342.441 412.614,1327.708 C411.869,1315.346 415.562,1303.958 421.066,1293.221 Z M597.382,1120.169 C580.592,1108.198 565.147,1097.19 549.707,1086.187 C549.821,1085.476 549.94,1084.763 550.054,1084.05 C561.34,1083.953 572.668,1083.109 583.888,1083.904 C611.479,1085.867 638.079,1092.861 664.299,1101.361 C666.926,1102.211 669.64,1103.32 671.815,1104.957 C697.078,1124.03 722.242,1143.223 747.423,1162.394 C748.147,1162.944 748.772,1163.634 749.751,1164.553 C726.012,1177.992 704.094,1193.65 677.455,1199.916 C677.499,1200.427 677.542,1200.933 677.586,1201.449 C690.274,1206.719 702.968,1211.995 717.25,1217.929 C684.857,1227.756 658.023,1244.078 633.604,1267.491 C657.555,1270.95 680.294,1274.234 704.578,1277.743 C693.554,1289.213 683.416,1299.764 672.153,1311.49 C695.985,1313.627 718.512,1315.65 742.403,1317.798 C729.498,1333.261 717.283,1347.896 705.067,1362.526 C705.263,1362.956 705.464,1363.375 705.666,1363.799 C740.815,1358.719 775.971,1353.634 812.062,1348.413 C810.811,1350.931 810.153,1352.437 809.348,1353.857 C799.716,1370.771 790.133,1387.724 780.29,1404.512 C779.343,1406.117 776.716,1407.689 774.889,1407.667 C755.973,1407.471 737.052,1407.112 718.158,1406.345 C715.183,1406.225 711.61,1404.534 709.489,1402.402 C660.552,1353.063 611.789,1303.544 562.933,1254.117 C559.73,1250.881 558.62,1247.455 559.475,1242.979 C567.3,1202.211 561.492,1163.336 542.974,1126.276 C542.332,1124.987 541.755,1123.677 540.814,1121.664 C559.562,1121.539 577.775,1125.085 597.382,1120.169 Z M911.997,1412.235 C872.92,1410.838 833.915,1409.445 794.909,1408.053 C794.908,1408.049 794.907,1408.046 794.906,1408.042 C794.779,1407.434 795.159,1406.836 795.761,1406.681 C816.504,1401.362 837.044,1394.857 858.073,1391.226 C878.174,1387.751 896.029,1395.289 910.768,1409.548 C911.166,1409.94 911.563,1410.354 911.845,1410.832 C912.003,1411.099 911.932,1411.512 911.997,1412.235 Z M1108.66,1580.083 C1122.8,1580.344 1129.84,1589.835 1125.65,1603.464 C1121.48,1617.071 1112.31,1627.144 1101.4,1635.704 C1083,1650.154 1061.42,1657.328 1038.88,1661.929 C1015.28,1666.748 991.385,1667.836 967.368,1666.743 C966.895,1666.721 966.433,1666.438 965.263,1666.041 C967.243,1664.736 968.69,1663.686 970.218,1662.783 C1006.78,1641.149 1043.13,1619.22 1076.3,1592.445 C1085.65,1584.902 1096.21,1579.855 1108.66,1580.083 Z M1063.26,1567.715 C1038.03,1584.026 1009.94,1592.668 980.649,1597.966 C980.35,1598.02 980.002,1597.77 979.192,1597.503 C980.508,1595.986 981.64,1594.567 982.885,1593.256 C995.279,1580.246 1007.58,1567.155 1020.21,1554.38 C1022.13,1552.433 1025.47,1551.416 1028.31,1550.943 C1038.94,1549.165 1050.07,1549.181 1060.22,1545.983 C1081.73,1539.19 1093.39,1521.852 1093.7,1499.281 C1093.72,1497.438 1093.7,1495.599 1093.7,1493.739 C1099.46,1494.169 1103.73,1497.378 1104.03,1503.431 C1104.35,1509.794 1103.96,1516.614 1101.93,1522.58 C1095.13,1542.632 1080.58,1556.523 1063.26,1567.715 Z M1104.99,1454.934 C1102.35,1459.372 1099.86,1463.555 1097.38,1467.732 C1097.09,1467.596 1096.8,1467.454 1096.51,1467.318 C1097.87,1462.412 1099.23,1457.518 1100.72,1452.133 C1102.33,1453.193 1103.48,1453.95 1104.99,1454.934 Z M1102.93,1409.56 C1101.53,1409.706 1101,1409.614 1100.88,1409.798 C1097.05,1415.515 1092.4,1417.223 1085.8,1414.036 C1082.91,1412.643 1079.26,1412.844 1074.13,1412.034 C1080.49,1402.016 1086.41,1392.694 1092.94,1382.399 C1094.94,1384.944 1095.8,1386.652 1097.17,1387.604 C1098.49,1388.528 1100.6,1389.464 1101.93,1389.034 C1108.9,1386.755 1108.85,1386.609 1113.1,1393.439 C1114.97,1392.265 1116.79,1391.003 1118.71,1389.926 C1123.33,1387.332 1124.81,1388.082 1126.87,1392.999 C1127.38,1394.212 1129.46,1394.777 1131.68,1396.175 C1127.35,1407.085 1122.63,1418.952 1117.86,1430.988 C1109.51,1425.462 1100.21,1421.601 1102.93,1409.56 Z M1056.62,1478.554 C1061.09,1474.187 1065.51,1474.285 1069.66,1479.474 C1081.21,1464.996 1087.4,1448.338 1094.14,1431.961 C1094.74,1432.146 1095.35,1432.326 1095.95,1432.505 C1091.29,1450.344 1086.87,1468.248 1081.81,1485.978 C1080.1,1492.015 1074.74,1494.664 1068.56,1494.305 C1051.71,1493.337 1034.92,1491.58 1019.39,1484.303 C1014.5,1482.008 1010.2,1478.467 1004.18,1474.546 C1018.86,1468.221 1027.84,1458.171 1036.48,1447.897 C1045.11,1437.65 1053.23,1426.963 1062.27,1416.712 C1055.34,1436.269 1048.4,1455.826 1041.46,1475.383 C1052.74,1471.62 1053.72,1471.789 1056.62,1478.554 Z M1042.6,1234.902 C1029.89,1237.078 1013.59,1240.156 997.188,1242.446 C994.001,1242.892 989.83,1241.01 987.067,1238.933 C976.771,1231.199 966.868,1222.927 956.817,1214.861 C956.975,1214.198 957.138,1213.534 957.291,1212.871 C966.215,1214.322 975.167,1215.612 984.027,1217.38 C985.593,1217.694 987.301,1219.777 988.019,1221.442 C990.45,1227.076 992.473,1232.896 994.812,1239.063 C1003.66,1240.243 1007.11,1233.798 1010.04,1227.506 C1022.4,1230.312 1034.37,1233.031 1042.6,1234.902 Z M683.177,1083.887 C700.809,1089.386 718.931,1091.871 737.367,1092.388 C757.588,1092.954 777.842,1093.062 798.014,1094.427 C832.234,1096.75 865.083,1105.729 897.367,1116.878 C906.21,1119.94 914.978,1123.225 923.728,1126.526 C926.23,1127.478 927.693,1127.494 929.863,1125.128 C935.373,1119.108 943.4,1118.928 950.742,1118.526 C976.527,1117.117 1001.97,1119.521 1026.88,1126.722 C1028.52,1127.201 1030.52,1127.315 1032.14,1126.863 C1040.19,1124.633 1048.02,1120.984 1056.19,1119.973 C1083.72,1116.557 1111.13,1118.521 1138.29,1124.145 C1138.82,1124.253 1139.3,1124.617 1140.15,1125.031 C1131.87,1125.814 1123.87,1126.189 1116.01,1127.413 C1108.08,1128.642 1100.14,1130.269 1092.46,1132.547 C1084.7,1134.847 1077.24,1138.16 1069.65,1141.026 C1069.69,1141.765 1069.72,1142.511 1069.76,1143.245 C1073.72,1145.132 1077.59,1147.204 1081.62,1148.88 C1104.98,1158.549 1123.19,1174.675 1138.36,1194.428 C1141.83,1198.937 1144.39,1204.316 1146.44,1209.651 C1147.2,1211.641 1145.32,1214.649 1144.65,1217.194 C1142.44,1216.596 1139.77,1216.596 1138.1,1215.301 C1125.38,1205.42 1112.86,1195.276 1100.27,1185.237 C1097.95,1183.393 1095.56,1181.647 1093.2,1179.853 C1092.79,1180.233 1092.38,1180.614 1091.96,1180.989 C1104.68,1195.733 1117.42,1210.478 1130.6,1225.76 C1119.75,1227.152 1110.61,1228.327 1101.01,1229.562 C1091.6,1209.428 1078.58,1191.252 1059.09,1178.427 C1064.04,1185.15 1069.46,1191.584 1073.8,1198.681 C1077.16,1204.191 1079.69,1210.363 1081.65,1216.542 C1083.67,1222.9 1081.72,1225.76 1075.17,1226.88 C1057.95,1229.839 1041.13,1228.387 1025.34,1220.485 C1007.89,1211.75 990.162,1203.913 971.072,1199.372 C947.74,1193.824 925.061,1193.443 903.774,1206.562 C902.235,1207.508 900.788,1208.612 899.298,1209.646 C899.173,1210.238 899.053,1210.831 898.934,1211.419 C933.23,1209.4 959.553,1225.439 983.477,1246.927 C973.182,1255.134 962.958,1263.282 952.732,1271.423 C953.054,1271.837 953.375,1272.244 953.695,1272.652 C963.278,1267.752 972.807,1262.748 982.444,1257.968 C1002.33,1248.097 1024,1244.572 1045.56,1240.961 C1055.08,1239.368 1064.95,1238.16 1074.52,1238.857 C1085.89,1239.672 1096.33,1236.447 1107.21,1235.001 C1115.89,1233.848 1125.03,1235.256 1133.86,1236.349 C1138.98,1236.98 1142.58,1240.825 1145.86,1245.486 C1113.24,1243.523 1091.94,1248.162 1087.44,1257.729 C1097.43,1256.5 1107.54,1254.732 1117.73,1254.177 C1125.33,1253.758 1133.02,1254.792 1140.67,1255.385 C1154.1,1256.423 1159.63,1266.17 1165.35,1278.297 C1156.3,1276.116 1148.6,1274.697 1141.18,1272.386 C1121.23,1266.175 1100.96,1263.798 1080.18,1266.234 C1079.1,1266.36 1078.04,1266.653 1077.02,1266.855 C1077.15,1279.728 1110.13,1313.187 1123.17,1313.285 C1122.91,1311.821 1122.84,1310.418 1122.39,1309.14 C1121.31,1306.056 1119.04,1303.087 1123.28,1300.384 C1127.5,1297.692 1131.64,1296.908 1135.71,1300.183 C1137.56,1301.673 1139.13,1303.68 1140.37,1305.725 C1147.11,1316.868 1150.32,1329.024 1150.61,1342.039 C1150.69,1346.063 1149.13,1347.499 1145.28,1346.961 C1136.4,1345.715 1127.47,1344.747 1118.64,1343.224 C1110.89,1341.892 1104.33,1338.177 1098.78,1332.412 C1085.53,1318.647 1071.79,1305.366 1058.76,1291.4 C1047.2,1278.993 1033.59,1269.987 1017.47,1263.119 C1026.46,1272.734 1034.88,1281.724 1043.8,1291.258 C1027.65,1286.657 1012.96,1281.822 997.944,1278.374 C980.927,1274.458 963.583,1272.37 946.185,1276.498 C940.24,1277.906 934.508,1279.957 929.494,1285.39 C944.781,1283.818 958.721,1284.693 972.692,1290.007 C967.923,1295.805 963.365,1300.748 959.487,1306.176 C946.701,1324.042 937.842,1343.355 938.695,1366.018 C939.131,1377.7 944.189,1391.661 951.438,1399.367 C948.604,1388.131 947.261,1377.803 952.211,1366.605 C954.614,1377.036 956.425,1386.467 958.993,1395.691 C966.753,1423.564 977.267,1450.387 992,1475.335 C1002.29,1492.766 1016.63,1505.508 1037.43,1508.956 C1049.12,1510.887 1060.55,1509.147 1071.73,1505.41 C1074,1504.649 1076.29,1503.899 1079.1,1502.974 C1078.66,1508.902 1075.19,1512.47 1071.41,1515.684 C1064.49,1521.574 1056.13,1524.717 1047.33,1525.55 C1039.02,1526.338 1030.49,1526.148 1022.17,1525.267 C1007.1,1523.673 997.482,1514.792 990.591,1501.408 C975.603,1472.295 960.385,1443.258 944.058,1414.879 C937.146,1402.854 927.193,1392.586 918.66,1381.485 C917.441,1379.897 915.946,1378.271 915.439,1376.422 C908.267,1350.137 904.024,1323.389 903.361,1296.115 C903.034,1282.605 906.531,1269.922 910.871,1257.228 C915.445,1243.865 924.131,1237.1 938.064,1236.23 C945.32,1235.773 952.532,1234.62 959.906,1232.646 C931.908,1228.192 903.915,1223.737 874.671,1219.092 C897.242,1198.774 918.894,1179.287 940.54,1159.806 C940.278,1159.446 940.022,1159.088 939.767,1158.729 C899.151,1184.486 858.535,1210.244 817.919,1235.996 C818.044,1236.48 818.165,1236.959 818.284,1237.442 C827.469,1236.855 836.639,1235.936 845.831,1235.761 C857.034,1235.555 868.303,1235.419 879.458,1236.29 C889.693,1237.094 890.874,1239.7 887.61,1249.522 C884.434,1259.094 880.344,1268.464 878.196,1278.259 C873.921,1297.757 878.006,1316.64 885.174,1334.838 C889.139,1344.921 894.033,1354.629 898.521,1364.511 C899.178,1365.974 899.88,1367.421 900.881,1369.558 C874.236,1360.541 851.084,1371.26 826.104,1380.609 C836.084,1363.668 845.276,1348.065 854.581,1332.266 C853.918,1331.966 853.417,1331.509 853.037,1331.591 C832.511,1336.034 812.045,1332.624 791.509,1331.569 C778.946,1330.927 766.301,1331.922 754.298,1332.173 C764.746,1324.265 776.167,1315.618 787.593,1306.976 C787.523,1306.503 787.452,1306.024 787.381,1305.545 C762.57,1305.616 738.194,1297.811 712.644,1302.962 C732.13,1277.574 760.732,1272.712 788.594,1265.93 C770.005,1264.195 751.443,1262.15 732.826,1260.807 C714.014,1259.453 695.153,1258.783 676.215,1257.81 C692.178,1243.229 712.268,1234.783 733.158,1227.881 C754.059,1220.98 775.531,1217.156 797.78,1216.046 C776.036,1209.754 754.287,1203.467 731.156,1196.777 C757.36,1177.525 786.005,1174.686 816.043,1175.969 C815.26,1175.393 814.553,1174.588 813.677,1174.278 C772.931,1159.877 739.146,1133.885 704.692,1108.992 C690.421,1098.675 675.965,1088.624 661.596,1078.437 C660.584,1077.725 659.638,1076.91 657.381,1075.142 C667.002,1078.421 675.03,1081.348 683.177,1083.887 Z M1183.61,1302.717 C1184.09,1304.545 1184.73,1306.345 1185,1308.199 C1185.24,1309.826 1185.05,1311.506 1185.05,1313.91 C1187.2,1313.366 1188.56,1313.024 1191.3,1312.333 C1188.71,1319.044 1186.88,1325.048 1184.14,1330.59 C1178.5,1341.99 1170.2,1346.602 1157.2,1345.808 C1159.68,1340.956 1161.9,1336.323 1164.36,1331.836 C1169.12,1323.177 1173.91,1314.536 1178.95,1306.051 C1179.85,1304.55 1182.02,1303.81 1183.61,1302.717 Z M1184.39,1370.853 C1186.65,1361.014 1189.31,1352.057 1194.77,1343.202 C1204.3,1327.784 1206.96,1309.972 1206.67,1291.9 C1206.49,1280.734 1203.88,1277.955 1193.12,1274.246 C1188.63,1272.701 1183.36,1270.901 1180.55,1267.485 C1172.56,1257.799 1165.85,1247.161 1164.66,1234.032 C1162.6,1211.522 1154.7,1191.562 1138.73,1175.121 C1134.85,1171.118 1131.35,1166.74 1127.35,1162.166 C1144.08,1147.59 1160.53,1133.259 1177.54,1118.439 C1162.72,1115.394 1148.83,1112.571 1134.95,1109.677 C1107.09,1103.864 1079.24,1097.892 1050.62,1097.402 C1035.93,1097.152 1021.42,1098.246 1007.95,1105.12 C1006.55,1105.833 1004.29,1105.599 1002.69,1105.038 C974.047,1094.906 945.086,1095.096 915.81,1101.873 C912.568,1102.624 908.723,1102.542 905.547,1101.568 C863.501,1088.673 820.34,1081.772 776.809,1076.355 C743.948,1072.271 711.077,1067.843 678.521,1061.861 C648.604,1056.357 619.109,1048.574 589.828,1041.89 C599.215,1049.069 609.173,1056.694 619.136,1064.313 C577.9,1058.206 537.307,1059.087 495.679,1068.838 C513.044,1078.182 529.333,1086.938 547.047,1096.467 C541.82,1096.836 538.443,1096.902 535.114,1097.343 C526.668,1098.452 518.434,1099.115 511.565,1092.388 C510.189,1091.039 507.933,1090.528 506.018,1089.788 C492.628,1084.638 478.64,1083.393 464.554,1084.676 C446.383,1086.335 428.881,1090.071 416.846,1108.045 C378.188,1103.769 343.445,1120.517 341.14,1121.197 C308.138,1130.948 284.599,1150.963 272.694,1183.844 C271.943,1185.917 269.496,1187.864 267.37,1188.864 C235.673,1203.821 204.603,1219.881 176.043,1240.374 C156.138,1254.656 137.647,1270.422 125.018,1291.883 C122.146,1296.778 120.074,1302.141 117.627,1307.286 C135.901,1294.837 154.469,1285.874 177.3,1288.947 C176.843,1290.018 176.712,1290.572 176.408,1291.008 C158.058,1316.983 154.197,1345.634 160.777,1376.161 C166.918,1404.622 183.082,1427.328 202.481,1448.131 C203.667,1449.403 204.814,1450.708 206.065,1452.09 C140.943,1456.588 76.435,1461.047 11.927,1465.507 C11.514,1466.219 11.1,1466.932 10.687,1467.639 C12.253,1468.591 14.048,1469.303 15.343,1470.538 C29.461,1483.961 43.699,1497.269 57.498,1511.012 C68.092,1521.569 73.128,1534.524 72.204,1549.692 C71.583,1559.786 71.061,1569.902 71.001,1580.007 C70.833,1608.859 70.893,1637.717 70.936,1666.568 C70.952,1674.242 68.489,1680.72 63.235,1686.425 C53.212,1697.313 43.471,1708.463 33.621,1719.514 C22.554,1731.936 11.497,1744.374 0,1757.296 C1.224,1757.438 1.414,1757.503 1.593,1757.47 C89.792,1740.48 177.937,1723.136 267.016,1711.275 C309.139,1705.662 351.304,1700.082 393.611,1696.296 C438.367,1692.288 483.279,1689.716 528.18,1687.801 C592.999,1685.038 657.805,1686.61 722.498,1691.717 C772.164,1695.633 821.58,1701.811 870.625,1710.632 C891.983,1714.467 913.874,1716.99 934.323,1723.745 C954.31,1730.359 974.988,1734.595 994.578,1742.836 C1017.04,1752.288 1040.88,1750.019 1064.3,1745.245 C1093.11,1739.377 1118.57,1727.281 1138.14,1704.574 C1159.7,1679.578 1167.88,1650.15 1167.02,1617.708 C1166.97,1615.826 1167.01,1613.939 1167.01,1612.057 C1167.63,1611.921 1168.25,1611.779 1168.86,1611.638 C1173.9,1622.043 1178.94,1632.441 1184.53,1644.009 C1191.63,1609.18 1188.37,1576.059 1181.38,1543.079 C1174.33,1509.718 1158.65,1480.377 1138.43,1453.384 C1139.08,1452.53 1139.35,1452.035 1139.74,1451.671 C1163.58,1429.677 1177.26,1401.94 1184.39,1370.853 Z" id="Fill-1" fill="#1A1919" mask="url(#mask-2)"></path>
            <path d="M704.839,1100.911 C704.578,1101.508 704.322,1102.101 704.066,1102.694 C713.198,1109.786 722.096,1117.205 731.51,1123.905 C757.169,1142.168 784.569,1156.929 815.667,1163.759 C818.763,1164.434 821.977,1164.569 826.213,1165.092 C825.044,1163.189 824.69,1162.568 824.293,1161.981 C822.417,1159.196 820.535,1156.423 818.653,1153.644 C822.188,1152.703 825.718,1151.756 829.254,1150.821 C829.427,1150.772 829.624,1150.799 829.813,1150.788 C847.19,1149.63 864.567,1148.493 881.938,1147.302 C884.924,1147.101 887.904,1146.731 890.868,1146.318 C893.604,1145.937 896.318,1145.393 899.776,1144.795 C866.971,1134.94 835.41,1124.405 803.273,1116.09 C771.065,1107.763 737.949,1103.956 704.839,1100.911 Z M898.934,1211.419 C933.23,1209.4 959.553,1225.439 983.477,1246.927 C973.182,1255.134 962.958,1263.282 952.732,1271.423 C953.054,1271.837 953.375,1272.244 953.695,1272.652 C963.278,1267.752 972.807,1262.748 982.444,1257.968 C1002.33,1248.097 1024,1244.573 1045.56,1240.961 C1055.08,1239.368 1064.95,1238.16 1074.52,1238.857 C1085.89,1239.672 1096.33,1236.447 1107.21,1235 C1115.89,1233.847 1125.03,1235.256 1133.86,1236.349 C1138.98,1236.98 1142.58,1240.825 1145.86,1245.486 C1113.24,1243.523 1091.94,1248.162 1087.44,1257.729 C1097.43,1256.5 1107.54,1254.732 1117.73,1254.177 C1125.33,1253.758 1133.02,1254.792 1140.67,1255.385 C1154.1,1256.423 1159.63,1266.17 1165.35,1278.297 C1156.3,1276.116 1148.6,1274.697 1141.18,1272.386 C1121.23,1266.175 1100.96,1263.798 1080.18,1266.234 C1079.1,1266.36 1078.04,1266.653 1077.02,1266.855 C1077.15,1279.728 1110.13,1313.187 1123.17,1313.285 C1122.91,1311.822 1122.84,1310.418 1122.39,1309.14 C1121.31,1306.056 1119.04,1303.087 1123.28,1300.384 C1127.5,1297.692 1131.64,1296.908 1135.71,1300.183 C1137.56,1301.673 1139.13,1303.68 1140.37,1305.725 C1147.11,1316.868 1150.32,1329.024 1150.61,1342.039 C1150.69,1346.063 1149.13,1347.499 1145.28,1346.961 C1136.4,1345.715 1127.47,1344.747 1118.64,1343.224 C1110.89,1341.892 1104.33,1338.177 1098.78,1332.412 C1085.53,1318.647 1071.79,1305.366 1058.76,1291.4 C1047.2,1278.994 1033.59,1269.987 1017.47,1263.119 C1026.46,1272.734 1034.88,1281.724 1043.8,1291.258 C1027.65,1286.657 1012.96,1281.822 997.944,1278.374 C980.927,1274.458 963.583,1272.37 946.185,1276.498 C940.24,1277.906 934.508,1279.957 929.494,1285.39 C944.781,1283.818 958.721,1284.693 972.692,1290.007 C967.923,1295.805 963.365,1300.749 959.487,1306.176 C946.701,1324.042 937.842,1343.355 938.695,1366.018 C939.131,1377.7 944.189,1391.661 951.438,1399.368 C948.604,1388.131 947.261,1377.803 952.211,1366.605 C954.614,1377.036 956.425,1386.467 958.993,1395.691 C966.753,1423.564 977.267,1450.387 992,1475.335 C1002.29,1492.766 1016.63,1505.508 1037.43,1508.956 C1049.12,1510.887 1060.55,1509.147 1071.73,1505.41 C1074,1504.649 1076.29,1503.899 1079.1,1502.974 C1078.66,1508.902 1075.19,1512.47 1071.41,1515.684 C1064.49,1521.574 1056.13,1524.717 1047.33,1525.549 C1039.02,1526.338 1030.49,1526.148 1022.17,1525.267 C1007.1,1523.673 997.482,1514.792 990.591,1501.408 C975.603,1472.295 960.385,1443.258 944.058,1414.879 C937.146,1402.854 927.193,1392.586 918.66,1381.485 C917.441,1379.897 915.946,1378.271 915.439,1376.422 C908.267,1350.137 904.024,1323.389 903.361,1296.115 C903.034,1282.605 906.531,1269.922 910.871,1257.228 C915.445,1243.865 924.131,1237.1 938.064,1236.23 C945.32,1235.773 952.532,1234.62 959.906,1232.646 C931.908,1228.192 903.916,1223.737 874.671,1219.092 C897.242,1198.774 918.894,1179.287 940.54,1159.806 C940.278,1159.446 940.022,1159.088 939.767,1158.729 C899.151,1184.486 858.535,1210.244 817.919,1235.996 C818.044,1236.48 818.165,1236.959 818.284,1237.442 C827.469,1236.855 836.639,1235.936 845.831,1235.762 C857.034,1235.555 868.303,1235.419 879.458,1236.29 C889.693,1237.094 890.874,1239.7 887.61,1249.522 C884.434,1259.094 880.344,1268.464 878.196,1278.259 C873.921,1297.757 878.006,1316.64 885.174,1334.838 C889.139,1344.921 894.033,1354.629 898.521,1364.511 C899.178,1365.974 899.88,1367.421 900.881,1369.559 C874.237,1360.541 851.084,1371.26 826.104,1380.609 C836.084,1363.668 845.276,1348.065 854.581,1332.266 C853.918,1331.966 853.417,1331.509 853.037,1331.591 C832.511,1336.034 812.045,1332.624 791.509,1331.569 C778.946,1330.927 766.301,1331.922 754.298,1332.173 C764.746,1324.265 776.167,1315.618 787.593,1306.976 C787.523,1306.503 787.452,1306.024 787.381,1305.545 C762.57,1305.616 738.194,1297.811 712.644,1302.962 C732.13,1277.574 760.732,1272.712 788.594,1265.93 C770.005,1264.195 751.443,1262.15 732.826,1260.807 C714.014,1259.453 695.153,1258.783 676.215,1257.81 C692.178,1243.229 712.268,1234.783 733.158,1227.881 C754.059,1220.979 775.531,1217.156 797.78,1216.046 C776.036,1209.754 754.287,1203.467 731.156,1196.777 C757.36,1177.525 786.005,1174.686 816.043,1175.969 C815.26,1175.393 814.553,1174.588 813.677,1174.278 C772.931,1159.877 739.146,1133.885 704.692,1108.992 C690.421,1098.675 675.965,1088.624 661.596,1078.437 C660.584,1077.725 659.638,1076.91 657.381,1075.142 C667.002,1078.421 675.03,1081.348 683.177,1083.887 C700.809,1089.386 718.93,1091.871 737.367,1092.388 C757.588,1092.954 777.842,1093.062 798.014,1094.427 C832.234,1096.75 865.083,1105.729 897.367,1116.878 C906.21,1119.94 914.978,1123.225 923.728,1126.526 C926.23,1127.478 927.693,1127.494 929.863,1125.128 C935.372,1119.108 943.4,1118.928 950.742,1118.526 C976.527,1117.117 1001.97,1119.521 1026.88,1126.722 C1028.52,1127.201 1030.52,1127.315 1032.14,1126.863 C1040.19,1124.633 1048.02,1120.984 1056.19,1119.973 C1083.72,1116.557 1111.13,1118.521 1138.29,1124.145 C1138.82,1124.253 1139.3,1124.617 1140.15,1125.031 C1131.87,1125.814 1123.87,1126.189 1116.01,1127.413 C1108.08,1128.642 1100.14,1130.269 1092.46,1132.547 C1084.7,1134.847 1077.24,1138.16 1069.65,1141.026 C1069.69,1141.766 1069.72,1142.511 1069.76,1143.245 C1073.72,1145.132 1077.59,1147.204 1081.62,1148.88 C1104.98,1158.549 1123.19,1174.675 1138.36,1194.428 C1141.83,1198.937 1144.39,1204.316 1146.44,1209.651 C1147.2,1211.642 1145.32,1214.649 1144.65,1217.194 C1142.44,1216.596 1139.77,1216.596 1138.1,1215.301 C1125.38,1205.42 1112.86,1195.276 1100.27,1185.237 C1097.95,1183.393 1095.56,1181.647 1093.2,1179.853 C1092.79,1180.233 1092.38,1180.614 1091.96,1180.989 C1104.68,1195.733 1117.42,1210.478 1130.6,1225.76 C1119.75,1227.152 1110.61,1228.327 1101.01,1229.562 C1091.6,1209.428 1078.58,1191.252 1059.09,1178.427 C1064.04,1185.15 1069.46,1191.584 1073.8,1198.681 C1077.16,1204.191 1079.69,1210.363 1081.65,1216.542 C1083.67,1222.9 1081.72,1225.76 1075.17,1226.88 C1057.95,1229.839 1041.13,1228.387 1025.34,1220.485 C1007.89,1211.75 990.161,1203.913 971.072,1199.372 C947.74,1193.824 925.061,1193.443 903.774,1206.562 C902.235,1207.508 900.788,1208.612 899.298,1209.646 C899.172,1210.238 899.053,1210.831 898.934,1211.419 Z" id="Fill-3" fill="#A4A49E" mask="url(#mask-2)"></path>
            <path d="M749.751,1164.553 C726.012,1177.992 704.094,1193.65 677.455,1199.916 C677.499,1200.427 677.542,1200.933 677.586,1201.449 C690.274,1206.719 702.968,1211.995 717.25,1217.928 C684.857,1227.756 658.023,1244.078 633.604,1267.491 C657.555,1270.95 680.294,1274.234 704.578,1277.743 C693.554,1289.213 683.416,1299.764 672.153,1311.49 C695.985,1313.627 718.512,1315.65 742.403,1317.798 C729.498,1333.261 717.283,1347.896 705.067,1362.526 C705.263,1362.956 705.464,1363.375 705.666,1363.799 C740.815,1358.719 775.971,1353.634 812.062,1348.413 C810.811,1350.931 810.153,1352.437 809.348,1353.857 C799.716,1370.771 790.133,1387.724 780.29,1404.512 C779.343,1406.117 776.716,1407.689 774.889,1407.667 C755.973,1407.471 737.052,1407.112 718.158,1406.345 C715.183,1406.225 711.61,1404.534 709.489,1402.402 C660.552,1353.063 611.789,1303.544 562.933,1254.117 C559.73,1250.881 558.62,1247.455 559.475,1242.979 C567.3,1202.211 561.492,1163.336 542.974,1126.276 C542.332,1124.987 541.755,1123.677 540.814,1121.664 C559.562,1121.539 577.775,1125.085 597.382,1120.169 C580.592,1108.198 565.147,1097.19 549.707,1086.187 C549.821,1085.476 549.94,1084.763 550.054,1084.05 C561.34,1083.953 572.668,1083.11 583.888,1083.904 C611.479,1085.867 638.079,1092.861 664.299,1101.361 C666.926,1102.211 669.64,1103.32 671.815,1104.957 C697.078,1124.03 722.242,1143.223 747.423,1162.394 C748.147,1162.944 748.772,1163.634 749.751,1164.553" id="Fill-4" fill="#A4A49E" mask="url(#mask-2)"></path>
            <path d="M159.869,1637.782 C177.708,1635.144 194.823,1632.196 212.048,1630.212 C222.833,1628.971 226.406,1616.359 221.207,1608.723 C219.586,1606.341 215.305,1604.182 212.499,1604.464 C196.145,1606.102 179.862,1608.44 163.578,1610.752 C162.23,1610.942 160.076,1612.655 160.038,1613.727 C159.733,1621.531 159.869,1629.352 159.869,1637.782 Z M160.087,1569.869 C174.967,1568.2 189.428,1566.568 203.895,1564.958 C206.87,1564.632 209.894,1564.632 212.825,1564.088 C220.222,1562.723 224.638,1556.066 223.594,1548.18 C222.512,1540.022 217.574,1536.253 209.197,1537.036 C198.772,1538.009 188.335,1538.859 177.904,1539.81 C171.274,1540.414 164.649,1541.099 157.58,1541.789 C158.439,1551.395 159.228,1560.281 160.087,1569.869 Z M92.958,1704.982 C102.828,1690.956 105.347,1676.309 105.113,1660.478 C104.455,1615.913 104.34,1571.332 104.46,1526.763 C104.493,1514.521 104.455,1502.898 91.538,1495.806 C91.843,1495.398 92.152,1494.99 92.452,1494.582 C94.681,1494.283 96.9,1493.842 99.135,1493.695 C144.347,1490.704 189.559,1487.74 234.77,1484.809 C238.691,1484.559 242.635,1484.461 246.561,1484.565 C263.628,1485.032 274.445,1494.876 275.522,1511.877 C276.283,1524.005 275.979,1536.204 276.044,1548.365 C276.093,1557.502 272.319,1565.018 265.89,1571.332 C264.59,1572.616 263.378,1573.992 261.572,1575.906 C273.673,1579.713 275.821,1589.204 275.897,1599.603 C276.001,1613.264 276.257,1626.959 275.5,1640.588 C274.342,1661.408 262.959,1674.987 242.564,1679.099 C222.593,1683.135 202.345,1685.756 182.266,1689.264 C153.707,1694.252 125.197,1699.489 96.667,1704.607 C95.764,1704.77 94.844,1704.797 92.958,1704.982 Z" id="Fill-5" fill="#FFFFFE" mask="url(#mask-2)"></path>
            <path d="M227.956,1265.304 C216.257,1266.915 206.141,1268.301 196.025,1269.693 C216.681,1250.077 239.437,1233.804 265.156,1219.718 C265.303,1255.776 274.358,1288.212 291.778,1318.25 C292.453,1318.294 293.127,1318.342 293.807,1318.386 C295.754,1310.25 297.701,1302.113 299.985,1292.552 C300.638,1300.645 300.741,1307.4 301.796,1314.003 C305.147,1335.033 314.768,1353.362 327.38,1370.178 C344.99,1393.663 366.212,1413.263 391.534,1428.269 C393.699,1429.552 396.054,1430.515 399.453,1432.185 C393.884,1414.323 391.295,1397.393 393.623,1378.418 C403.581,1392.531 417.02,1399.297 432.27,1405.133 C428.533,1409.342 425.477,1413.269 421.937,1416.69 C403.369,1434.588 380.526,1444.073 355.71,1448.952 C318.227,1456.321 281.222,1455.07 245.272,1440.788 C212.325,1427.703 197.085,1401.744 193.692,1367.998 C190.053,1331.83 202.65,1300.302 223.491,1271.505 C224.671,1269.868 225.846,1268.231 227.956,1265.304" id="Fill-6" fill="#A4A49E" mask="url(#mask-2)"></path>
            <path d="M654.482,1650.933 C654.482,1633.834 654.482,1617.262 654.482,1600.549 C655.336,1600.619 655.989,1600.473 656.38,1600.728 C671.516,1610.665 688.953,1611.502 706.063,1612.405 C723.977,1613.357 741.979,1612.742 759.943,1612.65 C762.891,1612.633 765.985,1612.16 768.749,1611.165 C773.35,1609.506 776.063,1606.118 775.917,1600.908 C775.775,1595.828 772.773,1592.989 768.292,1591.684 C765.453,1590.863 762.423,1590.525 759.459,1590.308 C733.691,1588.431 707.884,1586.985 682.154,1584.679 C663.119,1582.976 654.656,1573.269 654.297,1554.043 C654.036,1540.186 654.792,1526.289 654.036,1512.464 C652.791,1489.622 671.571,1476.721 687.865,1475.65 C697.926,1474.992 708.069,1475.09 718.158,1475.421 C750.916,1476.493 783.667,1477.826 816.413,1479.066 C817.691,1479.114 818.963,1479.31 820.345,1479.452 C820.345,1495.338 820.345,1510.925 820.345,1527.378 C796.899,1516.603 772.626,1520.029 748.914,1518.643 C739.206,1518.072 729.427,1517.865 719.725,1518.349 C710.544,1518.812 705.97,1523.859 706.215,1531.554 C706.476,1539.484 710.979,1543.726 720.241,1544.335 C742.85,1545.82 765.49,1546.913 788.067,1548.74 C795.251,1549.317 802.523,1551.041 809.343,1553.412 C822.357,1557.942 829.346,1567.531 829.531,1581.459 C829.738,1596.818 829.901,1612.182 829.52,1627.535 C829.074,1645.102 815.809,1659.623 796.268,1662.011 C785.129,1663.371 773.556,1661.908 762.244,1660.934 C727.747,1657.959 693.276,1654.604 658.795,1651.395 C657.5,1651.275 656.212,1651.123 654.482,1650.933" id="Fill-7" fill="#FFFFFE" mask="url(#mask-2)"></path>
            <path d="M578.352,1562.913 C578.352,1552.074 578.814,1541.958 578.222,1531.907 C577.64,1522.074 573.19,1518.561 563.135,1518.702 C548.156,1518.915 533.184,1519.235 518.211,1519.594 C515.933,1519.649 513.67,1520.133 510.744,1520.497 C523.252,1533.431 515.856,1549.045 518.418,1562.913 C538.579,1562.913 558.36,1562.913 578.352,1562.913 Z M453.35,1475.28 C466.305,1474.688 478.215,1473.769 490.137,1473.665 C525.722,1473.36 561.308,1473.344 596.887,1473.301 C605.099,1473.295 612.801,1475.329 619.718,1479.946 C626.093,1484.194 629.481,1490.068 629.796,1497.758 C631.341,1535.541 632.651,1573.345 634.636,1611.111 C635.278,1623.375 637.715,1635.546 639.347,1647.756 C639.542,1649.198 639.847,1650.633 640.184,1652.586 C618.761,1652.586 597.746,1652.586 576.709,1652.586 C584.628,1636.939 583.932,1620.411 581.43,1603.66 C580.865,1599.874 579.097,1598.825 575.442,1598.895 C558.028,1599.233 540.608,1599.456 523.193,1599.44 C519.016,1599.434 517.618,1600.717 517.787,1604.916 C518.2,1615.206 517.434,1625.61 518.711,1635.769 C519.419,1641.415 523.275,1646.663 525.858,1652.423 C503.701,1653.489 480.353,1654.609 455.863,1655.79 C465.604,1642.003 463.906,1627.013 463.972,1612.329 C464.129,1577.495 464.309,1542.66 464.287,1507.825 C464.282,1496.29 462.558,1485.102 453.35,1475.28 Z" id="Fill-8" fill="#FFFFFE" mask="url(#mask-2)"></path>
            <path d="M285.089,1481.035 C338.883,1478.963 391.36,1476.934 444.083,1474.9 C444.083,1493.544 444.083,1511.567 444.083,1531.359 C435.163,1523.293 425.667,1525.599 416.438,1525.98 C395.32,1526.839 374.196,1527.731 352.348,1528.639 C352.348,1536.786 352.348,1544.498 352.348,1553.227 C382.805,1550.894 413.284,1548.561 443.577,1546.244 C443.577,1559.612 443.577,1573.578 443.577,1588.203 C439.079,1587.735 435.239,1586.822 431.47,1587.039 C411.869,1588.143 392.279,1589.492 372.695,1590.868 C367.093,1591.26 361.535,1592.217 355.938,1592.554 C352.68,1592.75 351.25,1593.794 351.353,1597.242 C351.549,1603.926 351.413,1610.616 351.413,1618.213 C382.299,1613.775 412.93,1614.483 443.016,1607.635 C443.016,1623.565 443.016,1639.778 443.016,1656.458 C390.669,1661.652 338.317,1666.852 285.355,1672.11 C286.394,1670.566 287.139,1669.359 287.982,1668.222 C293.083,1661.402 295.71,1653.777 295.71,1645.238 C295.694,1600.288 295.71,1555.338 295.694,1510.387 C295.688,1499.95 292.747,1490.465 285.089,1481.035" id="Fill-9" fill="#FFFFFE" mask="url(#mask-2)"></path>
            <path d="M990.575,1542.692 C976.103,1541.436 963.126,1540.305 949.214,1539.103 C949.214,1542.084 949.203,1544.058 949.22,1546.037 C949.333,1563.648 949.323,1581.263 949.676,1598.874 C949.769,1603.36 948.626,1606.716 945.314,1609.762 C941.523,1613.243 938.152,1617.181 933.779,1621.775 C939.708,1620.814 944.276,1620.079 949.763,1619.187 C949.763,1628.667 949.116,1637.635 949.948,1646.462 C950.781,1655.349 948.354,1661.467 940.072,1665.4 C936.471,1667.107 933.458,1670.049 929.428,1672.97 C935.324,1674.352 940.126,1675.945 945.048,1676.5 C949.279,1676.979 950.813,1678.996 951.335,1682.819 C951.678,1685.338 952.569,1687.779 953.413,1691.01 C932.082,1686.904 911.416,1682.928 890.128,1678.833 C890.128,1676.44 890.128,1674.237 890.128,1672.04 C890.128,1627.633 890.074,1583.221 890.21,1538.815 C890.226,1534.17 889.52,1531.712 884.059,1531.429 C873.051,1530.853 862.092,1529.21 851.079,1528.607 C846.358,1528.351 841.55,1529.585 836.346,1530.189 C836.346,1514.177 836.346,1497.845 836.346,1481.209 C839.304,1481.209 842.083,1481.018 844.835,1481.235 C882.171,1484.194 919.514,1487.153 956.828,1490.389 C958.775,1490.557 961.261,1492.858 962.207,1494.799 C965.981,1502.523 968.619,1510.849 972.867,1518.273 C976.908,1525.333 982.438,1531.549 987.301,1538.135 C988.214,1539.375 989.095,1540.631 990.575,1542.692" id="Fill-10" fill="#FFFFFE" mask="url(#mask-2)"></path>
            <path d="M307.344,1229.083 C299.083,1238.857 299.838,1251.115 298.212,1263.259 C287.917,1236.665 290.141,1197.914 311.607,1171.015 C307.605,1184.291 305.32,1196.555 311.749,1208.373 C318.275,1220.371 328.973,1226.163 341.896,1227.191 C338.594,1236.502 334.542,1245.378 332.323,1254.694 C325.999,1281.278 339.04,1303.571 363.542,1308.667 C373.608,1310.755 383.67,1309.531 393.454,1306.328 C395.363,1305.703 397.299,1305.165 398.724,1304.74 C398.724,1314.334 397.511,1323.961 398.947,1333.169 C403.271,1360.851 423.551,1373.947 451.055,1368.438 C472.586,1364.125 487.591,1351.872 496.696,1332.287 C502.053,1320.784 506.649,1308.934 511.729,1296.887 C512.327,1297.164 513.262,1297.349 513.882,1297.904 C527.13,1309.766 533.44,1324.477 530.166,1342.148 C526.827,1360.187 516.569,1372.968 498.219,1377.493 C449.576,1389.48 408.04,1376.802 373.5,1340.706 C372.074,1339.216 370.748,1337.633 369.339,1336.132 C369.116,1335.893 368.708,1335.822 367.18,1335.121 C370.497,1351.012 373.651,1366.143 376.812,1381.268 C376.567,1381.496 376.322,1381.73 376.078,1381.958 C368.355,1372.408 360.267,1363.13 352.985,1353.253 C334.21,1327.795 318.438,1300.727 310.183,1269.824 C306.61,1256.451 305.783,1242.946 307.344,1229.083" id="Fill-11" fill="#B4B5B4" mask="url(#mask-2)"></path>
            <path d="M545.589,1183.643 C528.893,1182.431 514.062,1183.627 499.66,1188.467 C474.376,1196.962 454.851,1212.843 440.172,1234.902 C436.125,1240.983 432.357,1247.237 428.277,1253.285 C416.427,1270.858 399.387,1280.729 379.14,1285.199 C360.517,1289.311 349.423,1278.379 353.007,1259.572 C356.302,1242.294 365.641,1228.034 377.432,1215.454 C403.254,1187.896 433.907,1168.176 471.259,1160.333 C497.979,1154.715 521.708,1161.285 541.946,1179.825 C542.859,1180.657 543.659,1181.609 545.589,1183.643" id="Fill-12" fill="#FFFFFE" mask="url(#mask-2)"></path>
            <path d="M427.587,1444.748 C431.818,1440.832 436.419,1437.237 440.194,1432.919 C445.344,1427.028 450.206,1420.807 454.53,1414.291 C456.553,1411.235 458.283,1410.761 461.714,1411.072 C487.554,1413.405 512.696,1411.093 535.517,1397.415 C555.395,1385.499 566.333,1367.889 567.437,1344.492 C567.469,1343.752 567.595,1343.012 567.708,1342.272 C567.736,1342.104 567.888,1341.946 567.371,1342.849 C588.413,1363.57 609.695,1384.525 631.172,1405.676 C619.702,1405.676 607.797,1405.975 595.919,1405.535 C590.682,1405.339 590.682,1405.339 586.641,1411.953 C582.741,1422.868 578.134,1433.533 573.947,1444.35 C572.892,1447.059 571.695,1448.549 568.345,1448.501 C522.454,1447.793 476.563,1447.25 430.67,1446.646 C429.964,1446.635 429.256,1446.39 428.544,1446.254 C428.229,1445.754 427.908,1445.248 427.587,1444.748" id="Fill-13" fill="#1A1919" mask="url(#mask-2)"></path>
            <path d="M544.904,1211.995 C521.833,1221.067 508.334,1239.389 497.746,1260.323 C488.212,1279.173 479.646,1298.53 469.813,1317.222 C465.794,1324.853 460.241,1331.999 454.123,1338.095 C450.109,1342.104 444.104,1344.742 438.519,1346.422 C424.422,1350.659 413.506,1342.441 412.614,1327.708 C411.869,1315.346 415.562,1303.958 421.066,1293.221 C437.997,1260.165 464.901,1237.747 498.181,1222.53 C515.683,1214.529 532.461,1210.929 544.904,1211.995" id="Fill-14" fill="#FFFFFE" mask="url(#mask-2)"></path>
            <path d="M965.263,1666.041 C967.243,1664.736 968.69,1663.686 970.218,1662.783 C1006.78,1641.149 1043.13,1619.22 1076.3,1592.445 C1085.65,1584.902 1096.21,1579.855 1108.66,1580.083 C1122.8,1580.344 1129.84,1589.835 1125.65,1603.464 C1121.48,1617.071 1112.31,1627.144 1101.4,1635.704 C1083,1650.154 1061.42,1657.328 1038.88,1661.929 C1015.28,1666.748 991.385,1667.836 967.368,1666.743 C966.895,1666.721 966.433,1666.438 965.263,1666.041" id="Fill-15" fill="#FFFFFE" mask="url(#mask-2)"></path>
            <path d="M1113.2,1648.948 C1123.83,1639.734 1132.58,1629.793 1138.49,1617.653 C1143.17,1608.043 1146.16,1598.09 1143.16,1587.3 C1138.56,1570.811 1122.67,1560.7 1104.47,1562.549 C1101.7,1562.832 1098.93,1563.06 1094.67,1563.452 C1096.66,1560.972 1097.84,1559.476 1099.05,1558.008 C1109.81,1544.988 1118.46,1531.005 1120.4,1513.683 C1122.45,1495.333 1113.93,1482.176 1096.11,1476.733 C1095.59,1476.575 1095.1,1476.308 1094.46,1476.036 C1094.16,1471.871 1095.75,1470.217 1100.14,1470.043 C1104.56,1469.858 1109.24,1469.156 1113.25,1467.416 C1117.66,1465.496 1119.98,1467.051 1122.82,1469.978 C1141.54,1489.257 1152.57,1512.873 1161.26,1537.797 C1167.44,1555.527 1171.82,1573.671 1172.5,1592.554 C1172.57,1594.501 1172.51,1596.464 1172.03,1598.542 C1166.46,1589.21 1161.81,1579.393 1152.27,1573.66 C1150.79,1619.655 1148.06,1664.959 1115.58,1701.708 C1120.79,1693.283 1125.93,1684.723 1126.7,1674.411 C1127.51,1663.447 1122.44,1655.376 1113.2,1648.948" id="Fill-16" fill="#B4B5B4" mask="url(#mask-2)"></path>
            <path d="M1026.5,1440.402 C1034.71,1421.432 1043.73,1401.755 1051.71,1381.665 C1055.12,1373.066 1056.66,1363.668 1058.5,1354.521 C1059.18,1351.176 1058.78,1347.369 1057.89,1344.029 C1057.37,1342.061 1055.02,1339.292 1053.32,1339.156 C1047.99,1338.732 1045.38,1335.371 1042.92,1331.547 C1039.8,1326.713 1036.47,1322.389 1030.03,1321.785 C1028.89,1321.676 1027,1319.67 1027.03,1318.582 C1027.24,1310.125 1021.49,1305.812 1015.57,1301.776 C1011.3,1298.867 1006.61,1296.555 1002.43,1292.748 C1006.69,1293.983 1011.43,1294.407 1015.12,1296.593 C1027.81,1304.093 1040.41,1311.827 1052.54,1320.197 C1065.16,1328.904 1076.97,1338.77 1089.55,1347.543 C1098.81,1354.004 1109.47,1356.424 1120.89,1356.533 C1135.1,1356.674 1149.33,1357.278 1163.48,1358.523 C1171.67,1359.241 1172.23,1360.748 1170.55,1368.732 C1164.02,1399.873 1148.41,1425.674 1124.48,1446.526 C1120.32,1450.149 1116.12,1453.711 1111.21,1456.642 C1112.12,1455.109 1113.05,1453.586 1113.95,1452.041 C1124.01,1434.523 1134.45,1417.217 1143.91,1399.379 C1147.24,1393.108 1148.32,1385.581 1149.94,1378.516 C1150.36,1376.688 1148.89,1374.432 1148.29,1372.37 C1146.42,1373.3 1144.27,1373.915 1142.77,1375.247 C1141,1376.819 1139.79,1379.022 1137.39,1382.203 C1135.81,1377.917 1135.06,1375.71 1134.17,1373.555 C1132.28,1368.949 1129.59,1368.519 1126.28,1372.267 C1125.67,1372.963 1125.22,1373.806 1124.64,1374.546 C1121.37,1378.776 1119.78,1378.76 1116.58,1374.437 C1114.85,1372.098 1113.19,1369.716 1110.98,1366.632 C1108.81,1369.118 1107.3,1370.918 1105.71,1372.653 C1101.8,1376.928 1099.38,1376.961 1095.69,1372.468 C1094.3,1370.771 1093.62,1368.525 1092.4,1366.66 C1091.34,1365.023 1089.98,1363.565 1088.75,1362.031 C1087.18,1363.483 1085.2,1364.686 1084.12,1366.442 C1082.27,1369.449 1080.89,1372.767 1079.47,1376.019 C1068.33,1401.505 1051.44,1422.335 1028.97,1438.672 C1027.76,1439.554 1026.53,1440.386 1026.5,1440.402" id="Fill-17" fill="#FFFFFE" mask="url(#mask-2)"></path>
            <path d="M469.861,1134.206 C458.043,1139.296 446.122,1143 435.734,1149.249 C420.403,1158.473 406.235,1169.617 391.426,1179.733 C382.484,1185.829 373.581,1192.133 364.042,1197.164 C358.456,1200.117 351.723,1201.732 345.371,1202.194 C335.989,1202.875 330.376,1196.658 330.42,1187.276 C330.469,1177.013 335.255,1168.535 341.237,1160.752 C353.714,1144.528 371.101,1136.174 390.447,1131.655 C414.898,1125.944 439.405,1126.396 463.792,1132.454 C465.767,1132.944 467.708,1133.581 469.861,1134.206" id="Fill-18" fill="#FFFFFE" mask="url(#mask-2)"></path>
            <path d="M957.372,1716.223 C967.259,1713.678 975.603,1711.932 983.689,1709.36 C1004.14,1702.872 1024.53,1696.139 1044.84,1689.199 C1049.02,1687.769 1053.33,1685.669 1056.57,1682.755 C1067.49,1672.942 1080.69,1667.314 1093.68,1661.19 C1099,1658.683 1104,1659.422 1108.46,1662.702 C1112.83,1665.911 1113.77,1670.653 1112.52,1675.803 C1109.82,1686.942 1102.8,1695.051 1093.87,1701.637 C1080.35,1711.617 1064.76,1716.756 1048.51,1720.042 C1020.25,1725.753 992.049,1725.964 964.012,1718.519 C962.321,1718.067 960.689,1717.377 957.372,1716.223" id="Fill-19" fill="#FFFFFE" mask="url(#mask-2)"></path>
            <path d="M979.192,1597.503 C980.508,1595.986 981.64,1594.567 982.885,1593.256 C995.279,1580.246 1007.58,1567.155 1020.21,1554.38 C1022.13,1552.433 1025.47,1551.416 1028.31,1550.943 C1038.94,1549.165 1050.07,1549.181 1060.22,1545.983 C1081.73,1539.19 1093.39,1521.852 1093.7,1499.281 C1093.72,1497.438 1093.7,1495.599 1093.7,1493.739 C1099.46,1494.169 1103.73,1497.378 1104.03,1503.431 C1104.35,1509.794 1103.96,1516.614 1101.93,1522.58 C1095.13,1542.632 1080.58,1556.523 1063.26,1567.715 C1038.03,1584.026 1009.94,1592.669 980.649,1597.966 C980.35,1598.02 980.002,1597.77 979.192,1597.503" id="Fill-20" fill="#FFFFFE" mask="url(#mask-2)"></path>
            <path d="M1041.46,1475.383 C1052.74,1471.62 1053.72,1471.789 1056.62,1478.554 C1061.09,1474.187 1065.51,1474.285 1069.66,1479.474 C1081.21,1464.996 1087.4,1448.338 1094.14,1431.961 C1094.74,1432.146 1095.35,1432.326 1095.95,1432.505 C1091.29,1450.344 1086.87,1468.248 1081.81,1485.979 C1080.1,1492.015 1074.74,1494.664 1068.56,1494.305 C1051.71,1493.337 1034.92,1491.58 1019.39,1484.303 C1014.5,1482.008 1010.2,1478.467 1004.18,1474.546 C1018.86,1468.221 1027.84,1458.171 1036.48,1447.897 C1045.11,1437.65 1053.23,1426.963 1062.27,1416.712 C1055.34,1436.269 1048.4,1455.826 1041.46,1475.383" id="Fill-21" fill="#FFFFFE" mask="url(#mask-2)"></path>
            <path d="M911.998,1412.235 C872.92,1410.838 833.915,1409.445 794.909,1408.053 C794.832,1407.689 794.762,1407.318 794.691,1406.954 C815.798,1401.587 836.683,1394.919 858.073,1391.226 C878.174,1387.751 896.029,1395.289 910.768,1409.548 C911.166,1409.94 911.563,1410.354 911.845,1410.832 C912.003,1411.098 911.932,1411.512 911.998,1412.235" id="Fill-22" fill="#1A1919" mask="url(#mask-2)"></path>
            <path d="M1113.1,1393.439 C1114.97,1392.265 1116.79,1391.003 1118.71,1389.926 C1123.33,1387.332 1124.81,1388.082 1126.87,1392.999 C1127.38,1394.212 1129.46,1394.777 1131.68,1396.175 C1127.35,1407.085 1122.63,1418.952 1117.86,1430.988 C1109.51,1425.462 1100.21,1421.601 1102.93,1409.56 C1101.53,1409.706 1101,1409.614 1100.88,1409.798 C1097.05,1415.515 1092.4,1417.223 1085.8,1414.036 C1082.91,1412.643 1079.26,1412.844 1074.13,1412.034 C1080.49,1402.016 1086.41,1392.694 1092.94,1382.399 C1094.94,1384.944 1095.8,1386.652 1097.17,1387.604 C1098.49,1388.528 1100.6,1389.464 1101.93,1389.034 C1108.9,1386.755 1108.85,1386.609 1113.1,1393.439" id="Fill-23" fill="#FFFFFE" mask="url(#mask-2)"></path>
            <path d="M957.291,1212.871 C966.215,1214.322 975.167,1215.612 984.027,1217.38 C985.593,1217.694 987.301,1219.777 988.019,1221.442 C990.45,1227.076 992.473,1232.896 994.812,1239.063 C1003.66,1240.243 1007.11,1233.798 1010.04,1227.506 C1022.4,1230.312 1034.37,1233.032 1042.6,1234.902 C1029.89,1237.078 1013.59,1240.156 997.188,1242.446 C994.001,1242.892 989.83,1241.01 987.067,1238.933 C976.771,1231.199 966.868,1222.927 956.817,1214.861 C956.975,1214.198 957.138,1213.534 957.291,1212.871" id="Fill-24" fill="#FFFFFE" mask="url(#mask-2)"></path>
            <path d="M1185.05,1313.91 C1187.2,1313.366 1188.56,1313.024 1191.3,1312.333 C1188.71,1319.044 1186.88,1325.048 1184.14,1330.59 C1178.5,1341.99 1170.2,1346.602 1157.2,1345.808 C1159.68,1340.956 1161.9,1336.323 1164.36,1331.836 C1169.12,1323.177 1173.91,1314.535 1178.95,1306.051 C1179.85,1304.55 1182.02,1303.81 1183.61,1302.717 C1184.09,1304.545 1184.73,1306.345 1185,1308.199 C1185.24,1309.826 1185.05,1311.506 1185.05,1313.91" id="Fill-25" fill="#A4A49E" mask="url(#mask-2)"></path>
            <path d="M1096.51,1467.318 C1097.87,1462.412 1099.23,1457.518 1100.72,1452.133 C1102.33,1453.194 1103.48,1453.95 1104.99,1454.934 C1102.35,1459.372 1099.86,1463.555 1097.38,1467.732 C1097.09,1467.596 1096.8,1467.454 1096.51,1467.318" id="Fill-26" fill="#FFFFFE" mask="url(#mask-2)"></path>
            <path d="M704.839,1100.911 C737.949,1103.956 771.065,1107.763 803.273,1116.09 C835.41,1124.405 866.971,1134.94 899.776,1144.795 C896.318,1145.393 893.604,1145.937 890.868,1146.318 C887.904,1146.731 884.924,1147.101 881.938,1147.302 C864.567,1148.493 847.19,1149.63 829.813,1150.788 C829.624,1150.799 829.427,1150.772 829.254,1150.821 C825.718,1151.756 822.188,1152.703 818.653,1153.644 C820.535,1156.423 822.417,1159.196 824.293,1161.981 C824.69,1162.568 825.044,1163.189 826.213,1165.092 C821.977,1164.569 818.763,1164.434 815.667,1163.759 C784.569,1156.929 757.169,1142.168 731.51,1123.905 C722.096,1117.205 713.198,1109.786 704.066,1102.694 C704.322,1102.101 704.578,1101.508 704.839,1100.911" id="Fill-27" fill="#1A1919" mask="url(#mask-2)"></path>
            <path d="M160.087,1569.869 C159.228,1560.281 158.439,1551.395 157.58,1541.789 C164.649,1541.099 171.274,1540.414 177.904,1539.81 C188.335,1538.859 198.772,1538.009 209.197,1537.036 C217.574,1536.253 222.512,1540.022 223.594,1548.18 C224.638,1556.066 220.222,1562.723 212.825,1564.088 C209.894,1564.632 206.87,1564.632 203.895,1564.958 C189.428,1566.568 174.967,1568.2 160.087,1569.869" id="Fill-28" fill="#1A1919" mask="url(#mask-2)"></path>
            <path d="M159.869,1637.782 C159.869,1629.352 159.733,1621.531 160.038,1613.727 C160.076,1612.655 162.23,1610.942 163.578,1610.752 C179.862,1608.44 196.145,1606.102 212.499,1604.464 C215.305,1604.182 219.586,1606.341 221.207,1608.723 C226.406,1616.359 222.833,1628.971 212.048,1630.212 C194.823,1632.196 177.708,1635.144 159.869,1637.782" id="Fill-29" fill="#1A1919" mask="url(#mask-2)"></path>
            <path d="M578.352,1562.913 C558.36,1562.913 538.579,1562.913 518.418,1562.913 C515.856,1549.045 523.252,1533.431 510.744,1520.497 C513.67,1520.133 515.933,1519.649 518.211,1519.594 C533.184,1519.235 548.156,1518.915 563.135,1518.702 C573.19,1518.561 577.64,1522.074 578.222,1531.907 C578.814,1541.958 578.352,1552.074 578.352,1562.913" id="Fill-30" fill="#1A1919" mask="url(#mask-2)"></path>
            <path d="M961,1350.507 C961,1350.507 965.943,1357.729 971.643,1367.225 C977.343,1376.727 983.799,1401.423 990.259,1421.176 C996.721,1440.935 1003.94,1455.375 1014.58,1459.938 C1014.58,1459.938 1022.18,1458.415 1031.29,1447.016 L1012.3,1454.994 L1031.29,1399.906 C1031.29,1399.906 1027.5,1376.346 1025.21,1368.367 C1022.94,1360.389 1019.14,1357.349 1019.14,1357.349 L1006.6,1358.866 C1006.6,1358.866 1018.38,1378.244 1011.15,1423.461 C1011.15,1423.461 1010.02,1383.563 992.919,1359.247 C992.919,1359.247 970.501,1358.11 961,1350.507" id="Fill-31" fill="#D8272D" mask="url(#mask-2)"></path>
            <path d="M503.759,1406.729 L490.445,1406.729 L486.497,1422.412 L499.81,1422.412 L503.759,1406.729 Z M496.989,1435.274 L483.676,1435.274 L479.727,1450.731 L493.041,1450.731 L496.989,1435.274 Z M494.169,1465.398 L461.562,1465.398 L479.614,1393.077 L511.544,1393.077 C516.959,1393.077 520.457,1397.251 519.104,1402.667 L514.252,1421.96 C512.897,1427.15 509.4,1429.858 505.338,1430.084 C509.626,1430.535 511.318,1434.484 510.19,1439.674 L506.128,1456.034 C504.774,1461.449 499.584,1465.398 494.169,1465.398 Z" id="Fill-32" fill="#FFFFFE" mask="url(#mask-2)"></path>
            <path d="M503.759,1406.729 L490.445,1406.729 L486.497,1422.412 L499.81,1422.412 L503.759,1406.729 Z M496.989,1435.274 L483.676,1435.274 L479.727,1450.731 L493.041,1450.731 L496.989,1435.274 Z M494.169,1465.398 L461.562,1465.398 L479.614,1393.077 L511.544,1393.077 C516.959,1393.077 520.457,1397.251 519.104,1402.667 L514.252,1421.96 C512.897,1427.15 509.4,1429.858 505.338,1430.084 C509.626,1430.535 511.318,1434.484 510.19,1439.674 L506.128,1456.034 C504.774,1461.449 499.584,1465.398 494.169,1465.398 Z" id="Stroke-33" stroke="#1A1919" stroke-width="6" mask="url(#mask-2)"></path>
            <path d="M572.694,1406.164 L559.381,1406.164 L555.319,1422.298 L568.632,1422.298 L572.694,1406.164 Z M558.252,1465.398 L565.699,1435.612 L552.385,1435.612 L544.939,1465.398 L530.384,1465.398 L548.437,1393.077 L580.367,1393.077 C585.782,1393.077 589.054,1397.928 587.7,1403.344 L583.3,1421.17 C581.946,1426.473 578.335,1429.745 574.274,1429.971 C579.351,1430.309 579.915,1435.725 578.448,1441.818 L572.582,1465.398 L558.252,1465.398 Z" id="Fill-34" fill="#FFFFFE" mask="url(#mask-2)"></path>
            <path d="M572.694,1406.164 L559.381,1406.164 L555.319,1422.298 L568.632,1422.298 L572.694,1406.164 Z M558.252,1465.398 L565.699,1435.612 L552.385,1435.612 L544.939,1465.398 L530.384,1465.398 L548.437,1393.077 L580.367,1393.077 C585.782,1393.077 589.054,1397.928 587.7,1403.344 L583.3,1421.17 C581.946,1426.473 578.335,1429.745 574.274,1429.971 C579.351,1430.309 579.915,1435.725 578.448,1441.818 L572.582,1465.398 L558.252,1465.398 Z" id="Stroke-35" stroke="#1A1919" stroke-width="6" mask="url(#mask-2)"></path>
            <path d="M641.63,1406.051 L628.316,1406.051 L623.352,1426.134 L636.666,1426.134 L641.63,1406.051 Z M626.398,1465.398 L632.717,1440.125 L619.854,1440.125 L613.536,1465.398 L598.981,1465.398 L614.326,1403.795 C615.68,1398.492 621.772,1393.077 627.076,1393.077 L649.302,1393.077 C654.718,1393.077 657.764,1398.38 656.41,1403.795 L641.066,1465.398 L626.398,1465.398 Z" id="Fill-36" fill="#FFFFFE" mask="url(#mask-2)"></path>
            <path d="M641.63,1406.051 L628.316,1406.051 L623.352,1426.134 L636.666,1426.134 L641.63,1406.051 Z M626.398,1465.398 L632.717,1440.125 L619.854,1440.125 L613.536,1465.398 L598.981,1465.398 L614.326,1403.795 C615.68,1398.492 621.772,1393.077 627.076,1393.077 L649.302,1393.077 C654.718,1393.077 657.764,1398.38 656.41,1403.795 L641.066,1465.398 L626.398,1465.398 Z" id="Stroke-37" stroke="#1A1919" stroke-width="6" mask="url(#mask-2)"></path>
            <path d="M702.215,1465.398 L676.83,1465.398 C671.414,1465.398 668.593,1461.449 669.947,1456.034 L685.63,1393.077 L699.959,1393.077 L685.63,1450.392 L700.862,1450.392 L715.191,1393.077 L729.52,1393.077 L713.837,1456.034 C712.483,1461.449 707.631,1465.398 702.215,1465.398" id="Fill-38" fill="#FFFFFE" mask="url(#mask-2)"></path>
            <path d="M702.215,1465.398 L676.83,1465.398 C671.414,1465.398 668.593,1461.449 669.947,1456.034 L685.63,1393.077 L699.959,1393.077 L685.63,1450.392 L700.862,1450.392 L715.191,1393.077 L729.52,1393.077 L713.837,1456.034 C712.483,1461.449 707.631,1465.398 702.215,1465.398 Z" id="Stroke-39" stroke="#1A1919" stroke-width="6" mask="url(#mask-2)"></path>
            <polyline id="Fill-40" fill="#FFFFFE" mask="url(#mask-2)" points="771.236 1468.691 763.674 1426.203 763.562 1426.196 750.512 1467.473 737.333 1466.699 759.598 1395.561 772.1 1396.296 779.384 1437.75 779.609 1437.763 792.261 1397.48 805.326 1398.248 783.063 1469.386 771.236 1468.691"></polyline>
            <polygon id="Stroke-41" stroke="#1A1919" stroke-width="6" mask="url(#mask-2)" points="771.236 1468.691 763.674 1426.203 763.562 1426.196 750.512 1467.473 737.333 1466.699 759.598 1395.561 772.1 1396.296 779.384 1437.75 779.609 1437.763 792.261 1397.48 805.326 1398.248 783.063 1469.386"></polygon>
            <path d="M852.881,1411.865 L839.578,1411.366 L827.002,1454.588 L840.306,1455.088 L852.881,1411.865 Z M841.096,1470.134 L808.512,1468.91 L829.266,1397.317 L861.173,1398.516 C866.585,1398.719 869.924,1403.022 868.367,1408.382 L853.06,1461.212 C851.504,1466.573 846.508,1470.338 841.096,1470.134 Z" id="Fill-42" fill="#FFFFFE" mask="url(#mask-2)"></path>
            <path d="M852.881,1411.865 L839.578,1411.366 L827.002,1454.588 L840.306,1455.088 L852.881,1411.865 Z M841.096,1470.134 L808.512,1468.91 L829.266,1397.317 L861.173,1398.516 C866.585,1398.719 869.924,1403.022 868.367,1408.382 L853.06,1461.212 C851.504,1466.573 846.508,1470.338 841.096,1470.134 Z" id="Stroke-43" stroke="#1A1919" stroke-width="6" mask="url(#mask-2)"></path>
            <path d="M899.782,1474.719 L877.139,1473.458 C871.731,1473.156 868.359,1468.787 870.012,1463.456 L873.462,1452.234 L887.769,1453.031 L885.421,1460.698 L899.728,1461.495 L904.824,1445.054 L886.237,1444.019 C880.83,1443.718 877.444,1439.574 878.815,1435.243 L882.816,1422.245 L886.273,1410.912 C888.07,1405.023 893.778,1401.951 899.185,1402.252 L922.167,1403.532 C927.574,1403.833 930.508,1407.951 928.855,1413.284 L925.412,1424.392 L911.443,1423.614 L913.772,1416.286 L899.69,1415.501 L894.744,1431.272 L913.219,1432.3 C918.626,1432.602 921.673,1436.727 920.021,1442.059 L916.452,1453.386 L912.594,1465.827 C910.941,1471.159 905.189,1475.02 899.782,1474.719" id="Fill-44" fill="#FFFFFE" mask="url(#mask-2)"></path>
            <path d="M899.782,1474.719 L877.139,1473.458 C871.731,1473.156 868.359,1468.787 870.012,1463.456 L873.462,1452.234 L887.769,1453.031 L885.421,1460.698 L899.728,1461.495 L904.824,1445.054 L886.237,1444.019 C880.83,1443.718 877.444,1439.574 878.815,1435.243 L882.816,1422.245 L886.273,1410.912 C888.07,1405.023 893.778,1401.951 899.185,1402.252 L922.167,1403.532 C927.574,1403.833 930.508,1407.951 928.855,1413.284 L925.412,1424.392 L911.443,1423.614 L913.772,1416.286 L899.69,1415.501 L894.744,1431.272 L913.219,1432.3 C918.626,1432.602 921.673,1436.727 920.021,1442.059 L916.452,1453.386 L912.594,1465.827 C910.941,1471.159 905.189,1475.02 899.782,1474.719 Z" id="Stroke-45" stroke="#1A1919" stroke-width="6" mask="url(#mask-2)"></path>
        </g>
    </g>
</svg>