<?xml version="1.0" encoding="UTF-8" standalone="no"?>
<svg width="176px" height="126px" viewBox="0 0 176 126" version="1.1" xmlns="http://www.w3.org/2000/svg" xmlns:xlink="http://www.w3.org/1999/xlink">
    <!-- Generator: Sketch 49.1 (51147) - http://www.bohemiancoding.com/sketch -->
    <title>Friesens_Fugitives_Alternate</title>
    <desc>Created with Sketch.</desc>
    <defs>
        <polygon id="path-1" points="0.307 0.8 175.489 0.8 175.489 109.94 0.307 109.94"></polygon>
    </defs>
    <g id="Page-1" stroke="none" stroke-width="1" fill="none" fill-rule="evenodd">
        <g id="Friesens_Fugitives_Alternate">
            <path d="M161.637,120.243 C114.422,100.686 61.372,100.686 14.158,120.243 C9.541,109.097 4.924,97.95 0.307,86.803 C56.39,63.572 119.405,63.572 175.489,86.803 C170.871,97.95 166.254,109.097 161.637,120.243" id="Fill-1" fill="#777776"></path>
            <g id="Group-5" transform="translate(0.000000, 16.000000)">
                <mask id="mask-2" fill="white">
                    <use xlink:href="#path-1"></use>
                </mask>
                <g id="Clip-3"></g>
                <path d="M161.637,104.243 C114.422,84.686 61.372,84.686 14.158,104.243 C9.541,93.097 4.924,81.95 0.307,70.803 C56.39,47.572 119.405,47.572 175.489,70.803 C170.871,81.95 166.254,93.097 161.637,104.243 Z" id="Stroke-2" stroke="#BFC0BF" stroke-width="2" mask="url(#mask-2)"></path>
                <polyline id="Fill-4" fill="#BFC0BF" mask="url(#mask-2)" points="162.607 0.8 119.272 0.8 100.377 2.794 51.495 4.787 54.613 0.8 13.188 0.8 87.03 110 162.607 0.8"></polyline>
            </g>
            <polyline id="Fill-6" fill="#777776" points="157.682 19.008 17.87 19.008 86.964 121.476 157.682 19.008"></polyline>
            <g id="Group-10" transform="translate(27.000000, 0.000000)">
                <polyline id="Fill-7" fill="#25422A" points="124.284 23.677 0.969 23.677 61.842 114.017 124.284 23.677"></polyline>
                <path d="M11.28,34.342 C10.996,36.243 10.919,42.303 15.663,42.736 C15.663,42.736 15.145,45.662 18.595,46.742 L61.801,110.946 L96.206,63.688 C96.206,63.688 101.467,61.705 104.829,60.498 C108.194,59.291 113.109,57.135 115.092,56.272 C117.077,55.41 122.164,49.115 109.832,42.302 L121.13,25.323 L103.639,25.323 C103.639,25.323 100.778,20.658 97.932,20.226 C95.086,19.795 90.826,19.968 91.748,17.552 C92.671,15.138 93.534,11.948 92.154,10.138 C90.775,8.326 86.705,7.033 85.808,6.946 C84.91,6.86 81.46,5.049 80.339,4.186 C79.218,3.324 76.2,2.462 74.044,3.583 C71.888,4.704 70.538,4.067 67.807,3.05 C65.075,2.031 60.581,0.306 57.999,1.168 C55.416,2.031 55.515,8.499 55.515,8.499 C55.515,8.499 51.966,7.723 50.242,8.413 C48.517,9.102 47.727,11.105 46.354,10.621 C44.981,10.138 41.359,10.097 41.101,11.885 C40.842,13.673 40.448,14.017 40.448,14.017 C40.448,14.017 36.247,14.104 33.457,14.967 C30.666,15.829 28.165,16.863 27.906,16.001 C27.648,15.138 25.492,15.318 25.405,16.781 C25.319,18.243 25.666,18.329 24.89,19.107 C24.114,19.882 21.857,23.108 20.32,25.089 C19.151,26.594 15.905,27.029 13.789,29.023 C12.451,30.283 11.55,32.524 11.28,34.342" id="Fill-9" fill="#1A1919"></path>
            </g>
            <path d="M112.343,8.563 C112.343,8.563 115.224,9.268 116.694,10.562 C118.164,11.855 118.223,13.267 117.4,14.385 C116.577,15.502 115.635,17.385 116.283,18.206 C116.929,19.03 117.635,19.853 116.458,20.677 C115.283,21.499 111.637,20.206 109.814,19.501 C107.992,18.795 104.639,17.854 104.11,17.854 C103.58,17.854 101.875,17.736 101.229,16.913 C100.581,16.09 95.525,12.503 92.349,11.15 C89.174,9.798 85.881,8.269 84.999,8.034 C84.999,8.034 85.175,7.505 85.469,6.799 C85.763,6.094 85.88,3.153 88.057,2.859 C90.233,2.565 93.055,4.388 94.466,4.917 C95.878,5.446 97.407,6.269 97.994,6.211 C97.994,6.211 95.819,7.563 96.642,7.681 C97.465,7.798 99.876,7.622 100.935,6.857 C101.994,6.094 103.11,4.506 106.227,5.858 C109.343,7.211 110.932,8.74 111.578,9.68 C112.225,10.621 114.225,12.326 114.459,11.562 C114.695,10.798 112.343,8.563 112.343,8.563" id="Fill-11" fill="#244129"></path>
            <path d="M123.044,21.853 C123.044,21.853 124.749,21.146 127.337,24.381 C129.924,27.616 129.512,32.967 123.986,32.908 C118.458,32.848 110.343,30.084 103.757,25.616 C97.171,21.146 90.115,19.148 83.999,18.736 C77.884,18.324 74.179,17.148 72.592,15.972 C71.004,14.796 71.475,12.855 73.062,12.855 C74.649,12.855 76.532,13.267 77.002,13.797 C77.002,13.797 76.295,10.621 79.942,10.621 C83.587,10.621 90.585,11.973 96.171,15.914 C101.758,19.853 107.403,25.734 110.52,26.144 C110.52,26.144 109.226,25.086 108.697,23.97 C108.697,23.97 112.818,27.38 117.931,26.91 C117.931,26.91 119.693,26.556 119.988,23.97 C120.281,21.383 120.811,21.264 121.869,22.557 C122.927,23.852 123.633,26.969 122.398,27.91 C121.163,28.85 119.988,28.38 119.988,28.38 C119.988,28.38 121.81,29.437 123.632,28.32 C125.455,27.203 125.043,23.793 123.044,21.853" id="Fill-12" fill="#244129"></path>
            <path d="M117.425,26.201 C117.425,26.201 118.322,25.914 118.574,24.693 C118.825,23.474 118.788,22.004 118.574,21.572 C118.358,21.142 117.425,21.572 117.425,21.572 L116.672,21.537 L116.672,21.931 L117.21,22.111 L117.102,22.684 L115.918,22.72 L115.918,23.08 L117.031,23.223 L116.923,23.792 L115.488,23.792 L115.488,24.156 L116.886,24.693 L116.78,25.125 L114.771,25.161 C114.771,25.161 114.626,26.129 117.425,26.201" id="Fill-13" fill="#BFC0BF"></path>
            <path d="M101.465,21.764 C101.465,21.764 97.148,16.154 90.853,13.416 C84.558,10.677 76.413,9.182 77.622,14.802 C77.622,14.802 75.381,12.81 73.354,13.806 C73.354,13.806 76.555,14.446 77.942,15.976 C77.942,15.976 78.761,16.794 78.903,15.976 C79.045,15.158 78.902,12.385 82.033,12.455 C85.162,12.526 89.536,13.984 93.662,16.153 C97.788,18.324 101.465,21.764 101.465,21.764" id="Fill-14" fill="#BFC0BF"></path>
            <path d="M59.695,28.051 C59.695,28.051 56.965,25.499 54.593,25.141 C52.222,24.783 50.744,26.29 50.7,27.26 C50.655,28.229 52.043,30.572 55.198,31.302 C58.352,32.033 59.828,31.049 60.276,30.378 C60.902,29.437 59.695,28.051 59.695,28.051" id="Fill-15" fill="#244129"></path>
            <path d="M61.484,46.218 C61.484,46.218 62.156,42.773 63.855,41.117 C65.557,39.461 65.959,38.074 64.886,37.313 C63.811,36.552 61.216,37.045 59.247,39.102 C57.278,41.162 56.607,42.325 56.607,42.325 C56.607,42.325 56.249,40.803 57.055,39.506 C57.859,38.209 59.471,36.552 60.008,36.104 C60.544,35.658 60.008,33.732 57.323,34.047 C54.638,34.36 51.327,38.342 51.103,39.327 C51.103,39.327 50.924,38.164 52.177,36.508 C53.43,34.852 54.28,32.654 52.893,31.56 C51.506,30.467 49.044,31.68 48.06,32.908 C47.076,34.136 45.733,34.991 46.807,32.908 C47.881,30.824 48.239,29.392 46.762,28.632 C45.286,27.871 42.332,29.975 41.258,32.659 C40.185,35.345 40.856,40.983 44.256,39.863 C44.256,39.863 43.809,44.831 49.134,44.07 C49.134,44.07 50.163,49.082 54.682,46.934 C54.682,46.934 55.757,49.082 57.098,49.172 C58.442,49.261 59.068,49.44 59.515,49.663 C59.963,49.887 61.395,49.887 61.44,48.992 C61.484,48.098 61.354,46.778 61.484,46.218" id="Fill-16" fill="#244129"></path>
            <path d="M65.14,34.921 L65.14,32.669 C65.14,32.669 68.036,33.513 71.013,33.151 C73.989,32.789 75.195,32.468 76.483,32.306 C77.77,32.145 80.144,33.232 79.62,33.875 C79.097,34.519 78.494,34.037 77.086,34.921 C75.679,35.805 74.994,36.691 75.558,37.736 C76.121,38.782 76.925,39.199 79.178,39.131 C81.43,39.064 83.039,39.265 82.356,40.109 C81.672,40.954 79.338,42.523 77.046,42.483 C74.753,42.442 72.863,42.121 72.863,42.121 L76.121,46.022 C76.121,46.022 68.961,42.724 67.111,42.08 C67.111,42.08 67.433,41.074 68.197,39.91 C68.961,38.742 69.644,36.61 68.357,35.644 C67.07,34.679 65.14,34.921 65.14,34.921" id="Fill-17" fill="#BAC9C1"></path>
            <path d="M117.491,38.316 C117.491,38.316 108.883,38.316 103.748,35.154 C98.616,31.99 94.259,28.138 92.081,26.201 C89.904,24.263 86.222,23.11 83.369,23.792 C83.369,23.792 85.807,24.99 87.725,27.583 C87.725,27.583 85.133,27.583 83.94,26.701 C82.747,25.82 81.97,25.767 81.97,25.767 C81.97,25.767 82.332,28.93 87.155,30.487 C87.155,30.487 84.251,29.969 82.747,29.605 C81.244,29.243 79.584,29.76 79.584,29.76 C79.584,29.76 82.021,30.746 83.162,31.783 C84.303,32.82 84.511,34.065 89.075,34.843 C89.075,34.843 85.962,35.465 85.237,35.621 C85.237,35.621 86.904,36.295 88.118,37.228 C89.333,38.161 92.03,40.806 93.067,41.428 C94.104,42.051 98.874,43.969 100.742,47.028 C100.742,47.028 104.942,44.177 109.919,44.125 C109.919,44.125 113.227,43.866 116.759,46.459 C116.759,46.459 118.372,43.295 115.105,41.636 C115.105,41.636 117.854,40.132 117.491,38.316" id="Fill-18" fill="#9E7C38"></path>
            <path d="M111.112,31.443 C111.112,31.443 113.906,32.222 114.357,33.291 C114.808,34.358 114.973,36.166 115.876,36.946 C115.876,36.946 111.646,36.823 110.249,35.592 C108.853,34.358 110.66,33.415 111.687,33.907 C111.687,33.907 110.907,32.798 111.112,31.443" id="Fill-19" fill="#C5A880"></path>
            <path d="M109.739,31.812 C109.739,31.812 107.333,31.113 106.306,30.025 C105.28,28.937 104.006,28.198 102.856,28.034 C101.705,27.869 101.183,28.568 101.465,28.937 C101.746,29.306 102.117,28.937 102.774,28.896 C103.431,28.855 104.704,28.667 105.198,29.911 C105.69,31.155 106.97,32.14 109.739,31.812" id="Fill-20" fill="#BFC0BF"></path>
            <path d="M101.465,26.554 C101.465,26.554 100.495,25.57 98.554,25.2 C96.613,24.83 96.49,25.877 96.49,25.877 C96.49,25.877 97.405,25.529 101.465,26.554" id="Fill-21" fill="#C5A880"></path>
            <path d="M132.161,56.271 C132.161,56.271 128.953,59.577 128.871,60.105 C128.871,60.105 132.361,57.924 136.459,56.733 C140.558,55.544 144.128,53.89 143.269,50.519 C142.409,47.147 135.401,43.313 131.104,41.33 C126.806,39.345 124.095,38.023 122.311,37.362 C120.526,36.701 119.798,37.579 119.468,39.156 C119.137,40.734 117.881,41.527 117.881,41.527 L119.864,44.766 L123.17,45.229 L119.335,47.676 C119.335,47.676 123.434,50.519 124.228,54.684 C125.021,58.849 123.567,62.882 123.567,62.882 C123.567,62.882 130.376,55.676 132.161,56.271" id="Fill-22" fill="#BAC9C1"></path>
            <path d="M117.881,56.8 C116.691,51.379 106.443,48.866 106.443,48.866 C106.443,48.866 111.402,47.808 115.876,51.048 C120.351,54.288 117.881,56.8 117.881,56.8 Z M105.565,59.907 C103.562,55.544 94.807,53.229 94.807,53.229 C94.807,53.229 96.659,52.966 99.568,51.379 C102.476,49.792 103.666,50.32 103.666,50.32 C102.013,50.915 100.889,52.939 100.889,52.939 C106.376,56.55 105.565,59.907 105.565,59.907 Z M122.046,56.469 C121.65,52.105 115.832,45.258 107.17,47.028 C107.17,47.028 103.203,48.313 99.104,50.01 C95.005,51.709 87.269,52.782 84.361,52.939 C81.452,53.097 80.494,53.949 79.584,57.126 C78.675,60.303 77.353,65.99 82.179,66.783 C82.179,66.783 81.914,61.626 84.031,60.238 C84.031,60.238 81.518,68.634 86.741,69.296 C86.741,69.296 86.872,63.742 87.667,62.882 C87.667,62.882 86.608,71.213 93.551,71.146 C93.551,71.146 91.699,64.999 93.947,62.882 C93.947,62.882 93.881,68.568 96.923,71.147 C99.964,73.724 103.335,72.271 104.658,70.089 C104.658,70.089 103.799,68.105 100.824,68.898 C100.824,68.898 101.973,66.32 100.241,63.544 C100.241,63.544 103.005,63.676 103.799,63.344 C104.591,63.013 105.055,62.089 106.509,62.882 C107.963,63.676 112.394,67.179 116.691,67.51 C116.691,67.51 122.443,60.833 122.046,56.469 Z" id="Fill-23" fill="#244129"></path>
            <path d="M73.118,26.201 C70.982,28.092 68.953,26.875 68.953,26.875 C68.953,26.875 70.608,26.82 71.996,25.912 C73.385,25.006 73.865,23.189 74.079,23.403 C74.293,23.617 75.254,24.311 73.118,26.201 Z M64.52,22.869 C61.049,23.883 58.699,20.941 58.699,20.941 C59.661,21.951 63.239,22.176 62.864,22.067 C62.491,21.961 60.942,20.519 60.942,20.519 C62.749,21.452 65.107,21.321 66.549,20.941 C67.991,20.562 70.769,20.519 70.769,20.519 C69.006,20.946 67.991,21.854 64.52,22.869 Z M80.861,20.941 C79.686,20.359 75.673,19.825 73.354,19.238 C71.035,18.65 66.602,19.024 64.2,19.398 C61.797,19.771 56.242,20.359 53.626,16.781 C53.626,16.781 53.893,23.563 59.82,24.738 C65.748,25.912 68.098,23.082 69.7,22.282 C71.303,21.48 73.866,20.855 74.186,21.382 C74.507,21.907 72.933,23.082 71.61,23.563 C70.287,24.045 67.297,26.714 65.695,26.766 C64.093,26.82 62.384,26.703 61.422,26.201 C61.422,26.201 64.734,30.025 69.113,30.025 C73.492,30.025 74.399,26.553 74.666,24.899 C74.666,24.899 76.749,25.593 78.619,25.165 C80.487,24.738 82.036,21.523 80.861,20.941 Z" id="Fill-24" fill="#9E7C38"></path>
            <polyline id="Fill-25" fill="#FFFFFE" points="47.793 75.589 40.82 75.589 40.82 72.841 42.025 72.841 42.025 66.858 40.779 66.858 40.779 64.11 52.084 64.11 52.084 67.889 49.031 67.889 49.031 66.858 46.464 66.858 46.464 68.624 48.445 68.624 48.445 70.96 46.464 70.96 46.464 72.841 47.793 72.841 47.793 75.589"></polyline>
            <path d="M58.454,66.628 L58.454,68.814 L58.95,68.814 C59.599,68.814 60.039,68.795 60.27,68.757 C60.518,68.718 60.727,68.608 60.897,68.427 C61.067,68.256 61.153,68.022 61.153,67.724 C61.153,67.427 61.067,67.191 60.897,67.015 C60.727,66.834 60.509,66.723 60.245,66.685 C59.992,66.646 59.53,66.628 58.859,66.628 L58.454,66.628 Z M59.321,75.589 L53.082,75.589 L53.082,72.841 L54.015,72.841 L54.015,66.858 L53.082,66.858 L53.082,64.11 L59.321,64.11 C59.882,64.11 60.402,64.12 60.881,64.139 C61.359,64.159 61.769,64.186 62.11,64.221 C62.451,64.258 62.765,64.305 63.051,64.366 C63.854,64.537 64.506,64.908 65.007,65.48 C65.513,66.063 65.766,66.751 65.766,67.543 C65.766,68.137 65.612,68.677 65.304,69.161 C64.995,69.639 64.591,69.991 64.091,70.217 L65.675,72.841 L66.5,72.841 L66.5,75.589 L62.366,75.589 L59.866,70.902 L58.454,70.902 L58.454,72.841 L59.321,72.841 L59.321,75.589 Z" id="Fill-26" fill="#FFFFFE"></path>
            <polyline id="Fill-27" fill="#FFFFFE" points="73.91 75.589 67.367 75.589 67.367 72.841 68.423 72.841 68.423 66.858 67.367 66.858 67.367 64.11 73.91 64.11 73.91 66.858 72.862 66.858 72.862 72.841 73.91 72.841 73.91 75.589"></polyline>
            <polyline id="Fill-28" fill="#FFFFFE" points="86.23 75.589 75.28 75.589 75.28 72.841 76.171 72.841 76.171 66.858 75.264 66.858 75.264 64.11 86.23 64.11 86.23 67.783 83.219 67.783 83.219 66.858 80.611 66.858 80.611 68.624 82.88 68.624 82.88 70.96 80.611 70.96 80.611 72.841 83.219 72.841 83.219 71.917 86.23 71.917 86.23 75.589"></polyline>
            <path d="M90.537,75.589 L87.955,75.589 L87.955,71.909 L90.537,71.909 C90.846,72.91 91.426,73.41 92.279,73.41 C92.895,73.41 93.203,73.163 93.203,72.668 C93.203,72.409 93.096,72.195 92.881,72.024 C92.651,71.837 92.163,71.579 91.421,71.249 C90.486,70.825 89.798,70.459 89.358,70.151 C88.946,69.87 88.593,69.482 88.302,68.987 C88.01,68.498 87.865,67.956 87.865,67.362 C87.865,66.295 88.211,65.461 88.904,64.861 C89.591,64.261 90.439,63.962 91.446,63.962 C92.453,63.962 93.305,64.248 94.003,64.82 L94.003,64.11 L96.603,64.11 L96.603,67.378 L94.036,67.378 C93.723,66.476 93.167,66.025 92.369,66.025 C91.809,66.025 91.528,66.264 91.528,66.743 C91.528,66.973 91.608,67.147 91.768,67.262 C91.921,67.384 92.419,67.65 93.261,68.063 C94.389,68.624 95.143,69.034 95.522,69.293 C95.714,69.42 95.911,69.596 96.112,69.825 C96.313,70.053 96.479,70.289 96.612,70.53 C96.913,71.07 97.065,71.653 97.065,72.28 C97.065,73.243 96.707,74.056 95.993,74.722 C95.278,75.399 94.375,75.737 93.286,75.737 C92.274,75.737 91.358,75.437 90.537,74.838 L90.537,75.589" id="Fill-29" fill="#FFFFFE"></path>
            <polyline id="Fill-30" fill="#FFFFFE" points="109.468 75.589 98.518 75.589 98.518 72.841 99.409 72.841 99.409 66.858 98.501 66.858 98.501 64.11 109.468 64.11 109.468 67.783 106.456 67.783 106.456 66.858 103.848 66.858 103.848 68.624 106.118 68.624 106.118 70.96 103.848 70.96 103.848 72.841 106.456 72.841 106.456 71.917 109.468 71.917 109.468 75.589"></polyline>
            <polyline id="Fill-31" fill="#FFFFFE" points="115.69 75.589 110.978 75.589 110.978 72.841 111.985 72.841 111.985 66.858 110.978 66.858 110.978 64.11 116.415 64.11 120.591 70.109 120.591 66.858 119.659 66.858 119.659 64.11 124.288 64.11 124.288 66.858 123.289 66.858 123.289 75.737 119.51 75.737 114.675 68.798 114.675 72.841 115.69 72.841 115.69 75.589"></polyline>
            <path d="M128.207,75.589 L125.625,75.589 L125.625,71.909 L128.207,71.909 C128.516,72.91 129.096,73.41 129.949,73.41 C130.565,73.41 130.873,73.163 130.873,72.668 C130.873,72.409 130.766,72.195 130.551,72.024 C130.321,71.837 129.833,71.579 129.091,71.249 C128.156,70.825 127.468,70.459 127.028,70.151 C126.616,69.87 126.263,69.482 125.972,68.987 C125.68,68.498 125.535,67.956 125.535,67.362 C125.535,66.295 125.881,65.461 126.574,64.861 C127.261,64.261 128.109,63.962 129.116,63.962 C130.122,63.962 130.975,64.248 131.673,64.82 L131.673,64.11 L134.273,64.11 L134.273,67.378 L131.706,67.378 C131.393,66.476 130.837,66.025 130.039,66.025 C129.479,66.025 129.198,66.264 129.198,66.743 C129.198,66.973 129.278,67.147 129.438,67.262 C129.591,67.384 130.089,67.65 130.931,68.063 C132.059,68.624 132.813,69.034 133.192,69.293 C133.384,69.42 133.581,69.596 133.782,69.825 C133.983,70.053 134.149,70.289 134.282,70.53 C134.583,71.07 134.735,71.653 134.735,72.28 C134.735,73.243 134.377,74.056 133.662,74.722 C132.948,75.399 132.045,75.737 130.955,75.737 C129.944,75.737 129.028,75.437 128.207,74.838 L128.207,75.589" id="Fill-32" fill="#FFFFFE"></path>
            <path d="M47.793,75.589 L40.82,75.589 L40.82,72.841 L42.025,72.841 L42.025,66.858 L40.779,66.858 L40.779,64.11 L52.084,64.11 L52.084,67.889 L49.031,67.889 L49.031,66.858 L46.464,66.858 L46.464,68.624 L48.445,68.624 L48.445,70.96 L46.464,70.96 L46.464,72.841 L47.793,72.841 L47.793,75.589 Z M58.454,66.628 L58.454,68.814 L58.95,68.814 C59.599,68.814 60.039,68.795 60.27,68.757 C60.518,68.718 60.727,68.608 60.897,68.427 C61.067,68.256 61.153,68.022 61.153,67.724 C61.153,67.427 61.067,67.191 60.897,67.015 C60.727,66.834 60.509,66.723 60.245,66.685 C59.992,66.646 59.53,66.628 58.859,66.628 L58.454,66.628 Z M59.321,75.589 L53.082,75.589 L53.082,72.841 L54.015,72.841 L54.015,66.858 L53.082,66.858 L53.082,64.11 L59.321,64.11 C59.882,64.11 60.402,64.12 60.881,64.139 C61.359,64.159 61.769,64.186 62.11,64.221 C62.451,64.258 62.765,64.305 63.051,64.366 C63.854,64.537 64.506,64.908 65.007,65.48 C65.513,66.063 65.766,66.751 65.766,67.543 C65.766,68.137 65.612,68.677 65.304,69.161 C64.995,69.639 64.591,69.991 64.091,70.217 L65.675,72.841 L66.5,72.841 L66.5,75.589 L62.366,75.589 L59.866,70.902 L58.454,70.902 L58.454,72.841 L59.321,72.841 L59.321,75.589 Z M73.91,75.589 L67.367,75.589 L67.367,72.841 L68.423,72.841 L68.423,66.858 L67.367,66.858 L67.367,64.11 L73.91,64.11 L73.91,66.858 L72.862,66.858 L72.862,72.841 L73.91,72.841 L73.91,75.589 Z M86.23,75.589 L75.28,75.589 L75.28,72.841 L76.171,72.841 L76.171,66.858 L75.264,66.858 L75.264,64.11 L86.23,64.11 L86.23,67.783 L83.219,67.783 L83.219,66.858 L80.611,66.858 L80.611,68.624 L82.88,68.624 L82.88,70.96 L80.611,70.96 L80.611,72.841 L83.219,72.841 L83.219,71.917 L86.23,71.917 L86.23,75.589 Z M90.537,75.589 L87.955,75.589 L87.955,71.909 L90.537,71.909 C90.846,72.91 91.426,73.41 92.279,73.41 C92.895,73.41 93.203,73.163 93.203,72.668 C93.203,72.409 93.096,72.195 92.881,72.024 C92.651,71.837 92.163,71.579 91.421,71.249 C90.486,70.825 89.798,70.459 89.358,70.151 C88.946,69.87 88.593,69.482 88.302,68.987 C88.01,68.498 87.865,67.956 87.865,67.362 C87.865,66.295 88.211,65.461 88.904,64.861 C89.591,64.261 90.439,63.962 91.446,63.962 C92.453,63.962 93.305,64.248 94.003,64.82 L94.003,64.11 L96.603,64.11 L96.603,67.378 L94.036,67.378 C93.723,66.476 93.167,66.025 92.369,66.025 C91.809,66.025 91.528,66.264 91.528,66.743 C91.528,66.973 91.608,67.147 91.768,67.262 C91.921,67.384 92.419,67.65 93.261,68.063 C94.389,68.624 95.143,69.034 95.522,69.293 C95.714,69.42 95.911,69.596 96.112,69.825 C96.313,70.053 96.479,70.289 96.612,70.53 C96.913,71.07 97.065,71.653 97.065,72.28 C97.065,73.243 96.707,74.056 95.993,74.722 C95.278,75.399 94.375,75.737 93.286,75.737 C92.274,75.737 91.358,75.437 90.537,74.838 L90.537,75.589 Z M109.468,75.589 L98.518,75.589 L98.518,72.841 L99.409,72.841 L99.409,66.858 L98.501,66.858 L98.501,64.11 L109.468,64.11 L109.468,67.783 L106.456,67.783 L106.456,66.858 L103.848,66.858 L103.848,68.624 L106.118,68.624 L106.118,70.96 L103.848,70.96 L103.848,72.841 L106.456,72.841 L106.456,71.917 L109.468,71.917 L109.468,75.589 Z" id="Stroke-33" stroke="#1A1919" stroke-width="1.3"></path>
            <path d="M115.69,75.589 L110.978,75.589 L110.978,72.841 L111.985,72.841 L111.985,66.858 L110.978,66.858 L110.978,64.11 L116.415,64.11 L120.591,70.109 L120.591,66.858 L119.659,66.858 L119.659,64.11 L124.288,64.11 L124.288,66.858 L123.289,66.858 L123.289,75.737 L119.51,75.737 L114.675,68.798 L114.675,72.841 L115.69,72.841 L115.69,75.589 Z M128.207,75.589 L125.625,75.589 L125.625,71.909 L128.207,71.909 C128.516,72.91 129.096,73.41 129.949,73.41 C130.565,73.41 130.873,73.163 130.873,72.668 C130.873,72.409 130.766,72.195 130.551,72.024 C130.321,71.837 129.833,71.579 129.091,71.249 C128.156,70.825 127.468,70.459 127.028,70.151 C126.616,69.87 126.263,69.482 125.972,68.987 C125.68,68.498 125.535,67.956 125.535,67.362 C125.535,66.295 125.881,65.461 126.574,64.861 C127.261,64.261 128.109,63.962 129.116,63.962 C130.122,63.962 130.975,64.248 131.673,64.82 L131.673,64.11 L134.273,64.11 L134.273,67.378 L131.706,67.378 C131.393,66.476 130.837,66.025 130.039,66.025 C129.479,66.025 129.198,66.264 129.198,66.743 C129.198,66.973 129.278,67.147 129.438,67.262 C129.591,67.384 130.089,67.65 130.931,68.063 C132.059,68.624 132.813,69.034 133.192,69.293 C133.384,69.42 133.581,69.596 133.782,69.825 C133.983,70.053 134.149,70.289 134.282,70.53 C134.583,71.07 134.735,71.653 134.735,72.28 C134.735,73.243 134.377,74.056 133.662,74.722 C132.948,75.399 132.045,75.737 130.955,75.737 C129.944,75.737 129.028,75.437 128.207,74.838 L128.207,75.589 Z" id="Stroke-34" stroke="#1A1919" stroke-width="1.3"></path>
            <path d="M31.165,106.778 C27.414,108.042 23.697,109.434 20.017,110.957 C19.441,109.564 18.865,108.172 18.288,106.778 C18.94,106.509 19.593,106.243 20.247,105.981 C19.028,102.933 17.809,99.886 16.59,96.84 C15.876,97.126 15.164,97.415 14.453,97.71 C13.876,96.317 13.3,94.925 12.723,93.532 C19.324,90.798 26.038,88.439 32.833,86.457 C33.414,88.447 33.994,90.437 34.575,92.427 C32.798,92.946 31.026,93.491 29.262,94.062 C29.087,93.524 28.913,92.986 28.739,92.448 C27.242,92.932 25.75,93.436 24.263,93.959 C24.584,94.873 24.905,95.786 25.226,96.7 C26.356,96.303 27.49,95.917 28.625,95.543 C29.027,96.759 29.429,97.975 29.83,99.191 C28.717,99.558 27.607,99.937 26.499,100.326 C26.841,101.3 27.183,102.274 27.526,103.248 C28.256,102.991 28.988,102.739 29.72,102.492 C30.202,103.921 30.683,105.349 31.165,106.778" id="Fill-35" fill="#244129"></path>
            <path d="M37.325,93.489 C36.937,93.596 36.551,93.706 36.165,93.816 C35.851,92.717 35.538,91.618 35.224,90.518 C37.843,89.771 40.474,89.082 43.116,88.45 C43.382,89.561 43.648,90.673 43.915,91.784 C43.674,91.842 43.433,91.899 43.193,91.958 C43.575,93.522 43.956,95.087 44.337,96.651 C44.61,97.772 44.909,98.509 45.231,98.861 C45.553,99.207 46.001,99.31 46.582,99.175 C47.064,99.062 47.374,98.811 47.514,98.42 C47.655,98.037 47.609,97.325 47.374,96.287 C46.994,94.605 46.614,92.925 46.234,91.244 C45.978,91.302 45.723,91.36 45.468,91.419 C45.211,90.305 44.954,89.191 44.697,88.078 C46.64,87.63 48.589,87.213 50.542,86.826 C50.764,87.947 50.986,89.068 51.207,90.19 C50.804,90.269 50.401,90.35 49.998,90.433 C50.345,92.129 50.692,93.824 51.039,95.519 C51.305,96.818 51.323,97.92 51.104,98.828 C50.882,99.73 50.372,100.507 49.577,101.167 C48.78,101.826 47.735,102.306 46.433,102.619 C45.384,102.87 44.427,102.979 43.556,102.941 C42.673,102.913 41.925,102.722 41.312,102.36 C40.701,102.007 40.183,101.517 39.765,100.892 C39.345,100.289 38.94,99.297 38.556,97.915 C38.145,96.439 37.735,94.965 37.325,93.489" id="Fill-36" fill="#244129"></path>
            <path d="M65.209,93.972 C64.701,94.036 64.192,94.101 63.684,94.169 C63.564,93.27 63.445,92.372 63.325,91.474 C65.585,91.174 67.849,90.915 70.116,90.698 C70.265,92.257 70.259,93.427 70.104,94.207 C69.954,94.961 69.564,95.747 68.944,96.571 C68.338,97.387 67.575,98.02 66.652,98.476 C65.729,98.932 64.722,99.233 63.624,99.385 C61.99,99.609 60.471,99.57 59.047,99.26 C57.619,98.965 56.431,98.297 55.474,97.242 C54.515,96.21 53.888,94.974 53.615,93.522 C53.201,91.331 53.644,89.412 54.998,87.787 C56.335,86.166 58.188,85.168 60.508,84.835 C62.445,84.557 64.023,84.795 65.219,85.517 C65.18,85.186 65.14,84.855 65.101,84.525 C66.364,84.375 67.627,84.238 68.892,84.113 C69.056,85.773 69.22,87.433 69.383,89.094 C68.152,89.216 66.921,89.348 65.691,89.495 C65.295,88.92 64.817,88.508 64.256,88.26 C63.696,88.011 63.066,87.934 62.369,88.028 C61.392,88.161 60.715,88.557 60.346,89.209 C59.982,89.859 59.923,90.967 60.159,92.527 C60.394,94.082 60.783,95.102 61.32,95.593 C61.865,96.088 62.573,96.273 63.451,96.154 C64.78,95.974 65.367,95.255 65.209,93.972" id="Fill-37" fill="#244129"></path>
            <path d="M81.027,97.639 C78.248,97.744 75.472,97.914 72.699,98.149 C72.603,97.01 72.506,95.871 72.409,94.731 C72.865,94.693 73.321,94.656 73.778,94.621 C73.586,92.138 73.394,89.657 73.203,87.176 C72.728,87.213 72.252,87.251 71.778,87.292 C71.681,86.152 71.584,85.013 71.488,83.875 C74.484,83.621 77.486,83.437 80.489,83.324 C80.532,84.467 80.575,85.608 80.618,86.751 C80.145,86.768 79.673,86.788 79.201,86.809 C79.313,89.296 79.425,91.782 79.537,94.268 C79.991,94.248 80.445,94.229 80.898,94.212 C80.941,95.354 80.984,96.497 81.027,97.639" id="Fill-38" fill="#244129"></path>
            <path d="M93.992,97.628 C91.255,97.53 88.517,97.496 85.779,97.525 C85.767,96.382 85.755,95.239 85.743,94.095 C86.171,94.091 86.6,94.088 87.029,94.087 C87.02,91.597 87.011,89.108 87.002,86.62 C86.407,86.622 85.812,86.627 85.216,86.635 C85.228,87.503 85.239,88.372 85.25,89.241 C84.292,89.253 83.334,89.273 82.377,89.301 C82.32,87.29 82.262,85.279 82.204,83.267 C87.429,83.119 92.658,83.183 97.877,83.463 C97.77,85.471 97.662,87.48 97.555,89.489 C96.599,89.437 95.642,89.394 94.685,89.358 C94.718,88.49 94.75,87.621 94.784,86.753 C94.192,86.731 93.601,86.711 93.009,86.694 C92.938,89.182 92.868,91.67 92.796,94.158 C93.236,94.171 93.675,94.184 94.115,94.2 C94.074,95.343 94.033,96.485 93.992,97.628" id="Fill-39" fill="#244129"></path>
            <path d="M107.015,98.576 C104.248,98.271 101.475,98.032 98.7,97.859 C98.771,96.718 98.842,95.577 98.913,94.436 C99.369,94.465 99.827,94.495 100.283,94.527 C100.456,92.044 100.63,89.561 100.805,87.078 C100.329,87.045 99.854,87.013 99.379,86.984 C99.451,85.844 99.522,84.702 99.593,83.561 C102.593,83.749 105.59,84.008 108.581,84.336 C108.456,85.472 108.331,86.608 108.207,87.744 C107.737,87.692 107.265,87.642 106.794,87.594 C106.541,90.07 106.287,92.547 106.034,95.022 C106.487,95.069 106.939,95.117 107.39,95.167 C107.265,96.302 107.14,97.439 107.015,98.576" id="Fill-40" fill="#244129"></path>
            <path d="M118.169,100.289 C116.67,100.026 115.168,99.783 113.664,99.56 C112.661,95.697 111.561,91.841 110.361,87.994 C109.98,87.947 109.599,87.902 109.217,87.858 C109.348,86.722 109.48,85.588 109.611,84.452 C112.431,84.778 115.245,85.167 118.052,85.618 C117.87,86.746 117.689,87.875 117.507,89.003 C117.073,88.933 116.638,88.865 116.203,88.798 C116.657,90.927 117.086,93.057 117.49,95.189 C118.597,93.309 119.73,91.439 120.888,89.579 C120.468,89.504 120.049,89.429 119.629,89.357 C119.824,88.23 120.018,87.104 120.212,85.978 C122.315,86.342 124.412,86.739 126.505,87.174 C126.273,88.293 126.041,89.412 125.809,90.531 C125.431,90.453 125.054,90.376 124.676,90.3 C122.42,93.594 120.25,96.924 118.169,100.289" id="Fill-41" fill="#244129"></path>
            <path d="M138.353,104.93 C133.851,103.583 129.307,102.42 124.734,101.44 C124.974,100.322 125.213,99.205 125.453,98.087 C125.831,98.168 126.21,98.25 126.589,98.334 C127.126,95.903 127.663,93.473 128.201,91.043 C127.798,90.954 127.396,90.867 126.994,90.78 C127.233,89.663 127.472,88.546 127.711,87.427 C132.662,88.488 137.581,89.747 142.456,91.204 C142.019,92.668 141.581,94.132 141.144,95.595 C139.837,95.205 138.528,94.828 137.214,94.467 C137.317,94.095 137.418,93.725 137.521,93.354 C136.377,93.039 135.231,92.735 134.082,92.442 C133.901,93.154 133.719,93.866 133.537,94.578 C134.525,94.83 135.511,95.09 136.495,95.358 C136.24,96.296 135.984,97.233 135.729,98.171 C134.76,97.907 133.789,97.65 132.818,97.403 C132.624,98.161 132.431,98.92 132.238,99.677 C133.34,99.959 134.441,100.251 135.539,100.553 C135.641,100.182 135.744,99.811 135.845,99.441 C137.121,99.793 138.396,100.158 139.666,100.538 C139.229,102.002 138.791,103.466 138.353,104.93" id="Fill-42" fill="#244129"></path>
            <path d="M144.953,107.045 C143.567,106.57 142.175,106.113 140.779,105.674 C141.385,103.748 141.991,101.822 142.597,99.896 C144.04,100.35 145.48,100.823 146.914,101.314 C146.897,103.05 147.577,104.154 148.971,104.657 C149.978,105.021 150.622,104.828 150.907,104.063 C151.055,103.665 151.001,103.268 150.744,102.874 C150.467,102.445 149.807,101.748 148.744,100.799 C147.411,99.591 146.438,98.633 145.851,97.904 C145.294,97.235 144.89,96.434 144.636,95.499 C144.378,94.571 144.392,93.641 144.685,92.708 C145.209,91.032 146.229,89.911 147.769,89.373 C149.296,88.832 150.974,88.87 152.768,89.502 C154.563,90.133 155.916,91.138 156.808,92.484 C156.947,92.121 157.084,91.757 157.223,91.392 C158.754,91.974 160.281,92.576 161.801,93.198 C161.122,94.857 160.444,96.516 159.765,98.176 C158.305,97.579 156.84,97.001 155.37,96.441 C155.36,94.849 154.651,93.786 153.257,93.281 C152.276,92.927 151.654,93.127 151.392,93.869 C151.266,94.227 151.309,94.545 151.521,94.823 C151.721,95.106 152.437,95.824 153.643,96.996 C155.25,98.58 156.273,99.711 156.755,100.36 C157.002,100.682 157.224,101.086 157.419,101.569 C157.616,102.054 157.746,102.524 157.815,102.983 C157.981,104.011 157.862,104.999 157.466,105.953 C156.859,107.418 155.766,108.411 154.213,108.968 C152.652,109.54 151.021,109.496 149.281,108.848 C147.663,108.247 146.365,107.265 145.354,105.875 C145.22,106.265 145.087,106.654 144.953,107.045" id="Fill-43" fill="#244129"></path>
            <path d="M31.165,106.778 C27.414,108.042 23.697,109.434 20.017,110.957 C19.441,109.564 18.865,108.172 18.288,106.778 C18.94,106.509 19.593,106.243 20.247,105.981 C19.028,102.933 17.809,99.886 16.59,96.84 C15.876,97.126 15.164,97.415 14.453,97.71 C13.876,96.317 13.3,94.925 12.723,93.532 C19.324,90.798 26.038,88.439 32.833,86.457 C33.414,88.447 33.994,90.437 34.575,92.427 C32.798,92.946 31.026,93.491 29.262,94.062 C29.087,93.524 28.913,92.986 28.739,92.448 C27.242,92.932 25.75,93.436 24.263,93.959 C24.584,94.873 24.905,95.786 25.226,96.7 C26.356,96.303 27.49,95.917 28.625,95.543 C29.027,96.759 29.429,97.975 29.83,99.191 C28.717,99.558 27.607,99.937 26.499,100.326 C26.841,101.3 27.183,102.274 27.526,103.248 C28.256,102.991 28.988,102.739 29.72,102.492 C30.202,103.921 30.683,105.349 31.165,106.778 Z M37.325,93.489 C36.937,93.596 36.551,93.706 36.165,93.816 C35.851,92.717 35.538,91.618 35.224,90.518 C37.843,89.771 40.474,89.082 43.116,88.45 C43.382,89.561 43.648,90.673 43.915,91.784 C43.674,91.842 43.433,91.899 43.193,91.958 C43.575,93.522 43.956,95.087 44.337,96.651 C44.61,97.772 44.909,98.509 45.231,98.861 C45.553,99.207 46.001,99.31 46.582,99.175 C47.064,99.062 47.374,98.811 47.514,98.42 C47.655,98.037 47.609,97.325 47.374,96.287 C46.994,94.605 46.614,92.925 46.234,91.244 C45.978,91.302 45.723,91.36 45.468,91.419 C45.211,90.305 44.954,89.191 44.697,88.078 C46.64,87.63 48.589,87.213 50.542,86.826 C50.764,87.947 50.986,89.068 51.207,90.19 C50.804,90.269 50.401,90.35 49.998,90.433 C50.345,92.129 50.692,93.824 51.039,95.519 C51.305,96.818 51.323,97.92 51.104,98.828 C50.882,99.73 50.372,100.507 49.577,101.167 C48.78,101.826 47.735,102.306 46.433,102.619 C45.384,102.87 44.427,102.979 43.556,102.941 C42.673,102.913 41.925,102.722 41.312,102.36 C40.701,102.007 40.183,101.517 39.765,100.892 C39.345,100.289 38.94,99.297 38.556,97.915 C38.145,96.439 37.735,94.965 37.325,93.489 Z M65.209,93.972 C64.701,94.036 64.192,94.101 63.684,94.169 C63.564,93.27 63.445,92.372 63.325,91.474 C65.585,91.174 67.849,90.915 70.116,90.698 C70.265,92.257 70.259,93.427 70.104,94.207 C69.954,94.961 69.564,95.747 68.944,96.571 C68.338,97.387 67.575,98.02 66.652,98.476 C65.729,98.932 64.722,99.233 63.624,99.385 C61.99,99.609 60.471,99.57 59.047,99.26 C57.619,98.965 56.431,98.297 55.474,97.242 C54.515,96.21 53.888,94.974 53.615,93.522 C53.201,91.331 53.644,89.412 54.998,87.787 C56.335,86.166 58.188,85.168 60.508,84.835 C62.445,84.557 64.023,84.795 65.219,85.517 C65.18,85.186 65.14,84.855 65.101,84.525 C66.364,84.375 67.627,84.238 68.892,84.113 C69.056,85.773 69.22,87.433 69.383,89.094 C68.152,89.216 66.921,89.348 65.691,89.495 C65.295,88.92 64.817,88.508 64.256,88.26 C63.696,88.011 63.066,87.934 62.369,88.028 C61.392,88.161 60.715,88.557 60.346,89.209 C59.982,89.859 59.923,90.967 60.159,92.527 C60.394,94.082 60.783,95.102 61.32,95.593 C61.865,96.088 62.573,96.273 63.451,96.154 C64.78,95.974 65.367,95.255 65.209,93.972 Z M81.027,97.639 C78.248,97.744 75.472,97.914 72.699,98.149 C72.603,97.01 72.506,95.871 72.409,94.731 C72.865,94.693 73.321,94.656 73.778,94.621 C73.586,92.138 73.394,89.657 73.203,87.176 C72.728,87.213 72.252,87.251 71.778,87.292 C71.681,86.152 71.584,85.013 71.488,83.875 C74.484,83.621 77.486,83.437 80.489,83.324 C80.532,84.467 80.575,85.608 80.618,86.751 C80.145,86.768 79.673,86.788 79.201,86.809 C79.313,89.296 79.425,91.782 79.537,94.268 C79.991,94.248 80.445,94.229 80.898,94.212 C80.941,95.354 80.984,96.497 81.027,97.639 Z M93.992,97.628 C91.255,97.53 88.517,97.496 85.779,97.525 C85.767,96.382 85.755,95.239 85.743,94.095 C86.171,94.091 86.6,94.088 87.029,94.087 C87.02,91.597 87.011,89.108 87.002,86.62 C86.407,86.622 85.812,86.627 85.216,86.635 C85.228,87.503 85.239,88.372 85.25,89.241 C84.292,89.253 83.334,89.273 82.377,89.301 C82.32,87.29 82.262,85.279 82.204,83.267 C87.429,83.119 92.658,83.183 97.877,83.463 C97.77,85.471 97.662,87.48 97.555,89.489 C96.599,89.437 95.642,89.394 94.685,89.358 C94.718,88.49 94.75,87.621 94.784,86.753 C94.192,86.731 93.601,86.711 93.009,86.694 C92.938,89.182 92.868,91.67 92.796,94.158 C93.236,94.171 93.675,94.184 94.115,94.2 C94.074,95.343 94.033,96.485 93.992,97.628 Z M107.015,98.576 C104.248,98.271 101.475,98.032 98.7,97.859 C98.771,96.718 98.842,95.577 98.913,94.436 C99.369,94.465 99.827,94.495 100.283,94.527 C100.456,92.044 100.63,89.561 100.805,87.078 C100.329,87.045 99.854,87.013 99.379,86.984 C99.451,85.844 99.522,84.702 99.593,83.561 C102.593,83.749 105.59,84.008 108.581,84.336 C108.456,85.472 108.331,86.608 108.207,87.744 C107.737,87.692 107.265,87.642 106.794,87.594 C106.541,90.07 106.287,92.547 106.034,95.022 C106.487,95.069 106.939,95.117 107.39,95.167 C107.265,96.302 107.14,97.439 107.015,98.576 Z M118.169,100.289 C116.67,100.026 115.168,99.783 113.664,99.56 C112.661,95.697 111.561,91.841 110.361,87.994 C109.98,87.947 109.599,87.902 109.217,87.858 C109.348,86.722 109.48,85.588 109.611,84.452 C112.431,84.778 115.245,85.167 118.052,85.618 C117.87,86.746 117.689,87.875 117.507,89.003 C117.073,88.933 116.638,88.865 116.203,88.798 C116.657,90.927 117.086,93.057 117.49,95.189 C118.597,93.309 119.73,91.439 120.888,89.579 C120.468,89.504 120.049,89.429 119.629,89.357 C119.824,88.23 120.018,87.104 120.212,85.978 C122.315,86.342 124.412,86.739 126.505,87.174 C126.273,88.293 126.041,89.412 125.809,90.531 C125.431,90.453 125.054,90.376 124.676,90.3 C122.42,93.594 120.25,96.924 118.169,100.289 Z" id="Stroke-44" stroke="#1A1919" stroke-width="5"></path>
            <path d="M138.353,104.93 C133.851,103.583 129.307,102.42 124.734,101.44 C124.974,100.322 125.213,99.205 125.453,98.087 C125.831,98.168 126.21,98.25 126.589,98.334 C127.126,95.903 127.663,93.473 128.201,91.043 C127.798,90.954 127.396,90.867 126.994,90.78 C127.233,89.663 127.472,88.546 127.711,87.427 C132.662,88.488 137.581,89.747 142.456,91.204 C142.019,92.668 141.581,94.132 141.144,95.595 C139.837,95.205 138.528,94.828 137.214,94.467 C137.317,94.095 137.418,93.725 137.521,93.354 C136.377,93.039 135.231,92.735 134.082,92.442 C133.901,93.154 133.719,93.866 133.537,94.578 C134.525,94.83 135.511,95.09 136.495,95.358 C136.24,96.296 135.984,97.233 135.729,98.171 C134.76,97.907 133.789,97.65 132.818,97.403 C132.624,98.161 132.431,98.92 132.238,99.677 C133.34,99.959 134.441,100.251 135.539,100.553 C135.641,100.182 135.744,99.811 135.845,99.441 C137.121,99.793 138.396,100.158 139.666,100.538 C139.229,102.002 138.791,103.466 138.353,104.93 Z M144.953,107.045 C143.567,106.57 142.175,106.113 140.779,105.674 C141.385,103.748 141.991,101.822 142.597,99.896 C144.04,100.35 145.48,100.823 146.914,101.314 C146.897,103.05 147.577,104.154 148.971,104.657 C149.978,105.021 150.622,104.828 150.907,104.063 C151.055,103.665 151.001,103.268 150.744,102.874 C150.467,102.445 149.807,101.748 148.744,100.799 C147.411,99.591 146.438,98.633 145.851,97.904 C145.294,97.235 144.89,96.434 144.636,95.499 C144.378,94.571 144.392,93.641 144.685,92.708 C145.209,91.032 146.229,89.911 147.769,89.373 C149.296,88.832 150.974,88.87 152.768,89.502 C154.563,90.133 155.916,91.138 156.808,92.484 C156.947,92.121 157.084,91.757 157.223,91.392 C158.754,91.974 160.281,92.576 161.801,93.198 C161.122,94.857 160.444,96.516 159.765,98.176 C158.305,97.579 156.84,97.001 155.37,96.441 C155.36,94.849 154.651,93.786 153.257,93.281 C152.276,92.927 151.654,93.127 151.392,93.869 C151.266,94.227 151.309,94.545 151.521,94.823 C151.721,95.106 152.437,95.824 153.643,96.996 C155.25,98.58 156.273,99.711 156.755,100.36 C157.002,100.682 157.224,101.086 157.419,101.569 C157.616,102.054 157.746,102.524 157.815,102.983 C157.981,104.011 157.862,104.999 157.466,105.953 C156.859,107.418 155.766,108.411 154.213,108.968 C152.652,109.54 151.021,109.496 149.281,108.848 C147.663,108.247 146.365,107.265 145.354,105.875 C145.22,106.265 145.087,106.654 144.953,107.045 Z" id="Stroke-45" stroke="#1A1919" stroke-width="5"></path>
            <path d="M31.165,106.778 C27.414,108.042 23.697,109.434 20.017,110.957 C19.441,109.564 18.865,108.172 18.288,106.778 C18.94,106.509 19.593,106.243 20.247,105.981 C19.028,102.933 17.809,99.886 16.59,96.84 C15.876,97.126 15.164,97.415 14.453,97.71 C13.876,96.317 13.3,94.925 12.723,93.532 C19.324,90.798 26.038,88.439 32.833,86.457 C33.414,88.447 33.994,90.437 34.575,92.427 C32.798,92.946 31.026,93.491 29.262,94.062 C29.087,93.524 28.913,92.986 28.739,92.448 C27.242,92.932 25.75,93.436 24.263,93.959 C24.584,94.873 24.905,95.786 25.226,96.7 C26.356,96.303 27.49,95.917 28.625,95.543 C29.027,96.759 29.429,97.975 29.83,99.191 C28.717,99.558 27.607,99.937 26.499,100.326 C26.841,101.3 27.183,102.274 27.526,103.248 C28.256,102.991 28.988,102.739 29.72,102.492 C30.202,103.921 30.683,105.349 31.165,106.778" id="Fill-46" fill="#1A1919"></path>
            <path d="M37.325,93.489 C36.937,93.596 36.551,93.706 36.165,93.816 C35.851,92.717 35.538,91.618 35.224,90.518 C37.843,89.771 40.474,89.082 43.116,88.45 C43.382,89.561 43.648,90.673 43.915,91.784 C43.674,91.842 43.433,91.899 43.193,91.958 C43.575,93.522 43.956,95.087 44.337,96.651 C44.61,97.772 44.909,98.509 45.231,98.861 C45.553,99.207 46.001,99.31 46.582,99.175 C47.064,99.062 47.374,98.811 47.514,98.42 C47.655,98.037 47.609,97.325 47.374,96.287 C46.994,94.605 46.614,92.925 46.234,91.244 C45.978,91.302 45.723,91.36 45.468,91.419 C45.211,90.305 44.954,89.191 44.697,88.078 C46.64,87.63 48.589,87.213 50.542,86.826 C50.764,87.947 50.986,89.068 51.207,90.19 C50.804,90.269 50.401,90.35 49.998,90.433 C50.345,92.129 50.692,93.824 51.039,95.519 C51.305,96.818 51.323,97.92 51.104,98.828 C50.882,99.73 50.372,100.507 49.577,101.167 C48.78,101.826 47.735,102.306 46.433,102.619 C45.384,102.87 44.427,102.979 43.556,102.941 C42.673,102.913 41.925,102.722 41.312,102.36 C40.701,102.007 40.183,101.517 39.765,100.892 C39.345,100.289 38.94,99.297 38.556,97.915 C38.145,96.439 37.735,94.965 37.325,93.489" id="Fill-47" fill="#1A1919"></path>
            <path d="M65.209,93.972 C64.701,94.036 64.192,94.101 63.684,94.169 C63.564,93.27 63.445,92.372 63.325,91.474 C65.585,91.174 67.849,90.915 70.116,90.698 C70.265,92.257 70.259,93.427 70.104,94.207 C69.954,94.961 69.564,95.747 68.944,96.571 C68.338,97.387 67.575,98.02 66.652,98.476 C65.729,98.932 64.722,99.233 63.624,99.385 C61.99,99.609 60.471,99.57 59.047,99.26 C57.619,98.965 56.431,98.297 55.474,97.242 C54.515,96.21 53.888,94.974 53.615,93.522 C53.201,91.331 53.644,89.412 54.998,87.787 C56.335,86.166 58.188,85.168 60.508,84.835 C62.445,84.557 64.023,84.795 65.219,85.517 C65.18,85.186 65.14,84.855 65.101,84.525 C66.364,84.375 67.627,84.238 68.892,84.113 C69.056,85.773 69.22,87.433 69.383,89.094 C68.152,89.216 66.921,89.348 65.691,89.495 C65.295,88.92 64.817,88.508 64.256,88.26 C63.696,88.011 63.066,87.934 62.369,88.028 C61.392,88.161 60.715,88.557 60.346,89.209 C59.982,89.859 59.923,90.967 60.159,92.527 C60.394,94.082 60.783,95.102 61.32,95.593 C61.865,96.088 62.573,96.273 63.451,96.154 C64.78,95.974 65.367,95.255 65.209,93.972" id="Fill-48" fill="#1A1919"></path>
            <path d="M81.027,97.639 C78.248,97.744 75.472,97.914 72.699,98.149 C72.603,97.01 72.506,95.871 72.409,94.731 C72.865,94.693 73.321,94.656 73.778,94.621 C73.586,92.138 73.394,89.657 73.203,87.176 C72.728,87.213 72.252,87.251 71.778,87.292 C71.681,86.152 71.584,85.013 71.488,83.875 C74.484,83.621 77.486,83.437 80.489,83.324 C80.532,84.467 80.575,85.608 80.618,86.751 C80.145,86.768 79.673,86.788 79.201,86.809 C79.313,89.296 79.425,91.782 79.537,94.268 C79.991,94.248 80.445,94.229 80.898,94.212 C80.941,95.354 80.984,96.497 81.027,97.639" id="Fill-49" fill="#1A1919"></path>
            <path d="M93.992,97.628 C91.255,97.53 88.517,97.496 85.779,97.525 C85.767,96.382 85.755,95.239 85.743,94.095 C86.171,94.091 86.6,94.088 87.029,94.087 C87.02,91.597 87.011,89.108 87.002,86.62 C86.407,86.622 85.812,86.627 85.216,86.635 C85.228,87.503 85.239,88.372 85.25,89.241 C84.292,89.253 83.334,89.273 82.377,89.301 C82.32,87.29 82.262,85.279 82.204,83.267 C87.429,83.119 92.658,83.183 97.877,83.463 C97.77,85.471 97.662,87.48 97.555,89.489 C96.599,89.437 95.642,89.394 94.685,89.358 C94.718,88.49 94.75,87.621 94.784,86.753 C94.192,86.731 93.601,86.711 93.009,86.694 C92.938,89.182 92.868,91.67 92.796,94.158 C93.236,94.171 93.675,94.184 94.115,94.2 C94.074,95.343 94.033,96.485 93.992,97.628" id="Fill-50" fill="#1A1919"></path>
            <path d="M107.015,98.576 C104.248,98.271 101.475,98.032 98.7,97.859 C98.771,96.718 98.842,95.577 98.913,94.436 C99.369,94.465 99.827,94.495 100.283,94.527 C100.456,92.044 100.63,89.561 100.805,87.078 C100.329,87.045 99.854,87.013 99.379,86.984 C99.451,85.844 99.522,84.702 99.593,83.561 C102.593,83.749 105.59,84.008 108.581,84.336 C108.456,85.472 108.331,86.608 108.207,87.744 C107.737,87.692 107.265,87.642 106.794,87.594 C106.541,90.07 106.287,92.547 106.034,95.022 C106.487,95.069 106.939,95.117 107.39,95.167 C107.265,96.302 107.14,97.439 107.015,98.576" id="Fill-51" fill="#1A1919"></path>
            <path d="M118.169,100.289 C116.67,100.026 115.168,99.783 113.664,99.56 C112.661,95.697 111.561,91.841 110.361,87.994 C109.98,87.947 109.599,87.902 109.217,87.858 C109.348,86.722 109.48,85.588 109.611,84.452 C112.431,84.778 115.245,85.167 118.052,85.618 C117.87,86.746 117.689,87.875 117.507,89.003 C117.073,88.933 116.638,88.865 116.203,88.798 C116.657,90.927 117.086,93.057 117.49,95.189 C118.597,93.309 119.73,91.439 120.888,89.579 C120.468,89.504 120.049,89.429 119.629,89.357 C119.824,88.23 120.018,87.104 120.212,85.978 C122.315,86.342 124.412,86.739 126.505,87.174 C126.273,88.293 126.041,89.412 125.809,90.531 C125.431,90.453 125.054,90.376 124.676,90.3 C122.42,93.594 120.25,96.924 118.169,100.289" id="Fill-52" fill="#1A1919"></path>
            <path d="M138.353,104.93 C133.851,103.583 129.307,102.42 124.734,101.44 C124.974,100.322 125.213,99.205 125.453,98.087 C125.831,98.168 126.21,98.25 126.589,98.334 C127.126,95.903 127.663,93.473 128.201,91.043 C127.798,90.954 127.396,90.867 126.994,90.78 C127.233,89.663 127.472,88.546 127.711,87.427 C132.662,88.488 137.581,89.747 142.456,91.204 C142.019,92.668 141.581,94.132 141.144,95.595 C139.837,95.205 138.528,94.828 137.214,94.467 C137.317,94.095 137.418,93.725 137.521,93.354 C136.377,93.039 135.231,92.735 134.082,92.442 C133.901,93.154 133.719,93.866 133.537,94.578 C134.525,94.83 135.511,95.09 136.495,95.358 C136.24,96.296 135.984,97.233 135.729,98.171 C134.76,97.907 133.789,97.65 132.818,97.403 C132.624,98.161 132.431,98.92 132.238,99.677 C133.34,99.959 134.441,100.251 135.539,100.553 C135.641,100.182 135.744,99.811 135.845,99.441 C137.121,99.793 138.396,100.158 139.666,100.538 C139.229,102.002 138.791,103.466 138.353,104.93" id="Fill-53" fill="#1A1919"></path>
            <path d="M144.953,107.045 C143.567,106.57 142.175,106.113 140.779,105.674 C141.385,103.748 141.991,101.822 142.597,99.896 C144.04,100.35 145.48,100.823 146.914,101.314 C146.897,103.05 147.577,104.154 148.971,104.657 C149.978,105.021 150.622,104.828 150.907,104.063 C151.055,103.665 151.001,103.268 150.744,102.874 C150.467,102.445 149.807,101.748 148.744,100.799 C147.411,99.591 146.438,98.633 145.851,97.904 C145.294,97.235 144.89,96.434 144.636,95.499 C144.378,94.571 144.392,93.641 144.685,92.708 C145.209,91.032 146.229,89.911 147.769,89.373 C149.296,88.832 150.974,88.87 152.768,89.502 C154.563,90.133 155.916,91.138 156.808,92.484 C156.947,92.121 157.084,91.757 157.223,91.392 C158.754,91.974 160.281,92.576 161.801,93.198 C161.122,94.857 160.444,96.516 159.765,98.176 C158.305,97.579 156.84,97.001 155.37,96.441 C155.36,94.849 154.651,93.786 153.257,93.281 C152.276,92.927 151.654,93.127 151.392,93.869 C151.266,94.227 151.309,94.545 151.521,94.823 C151.721,95.106 152.437,95.824 153.643,96.996 C155.25,98.58 156.273,99.711 156.755,100.36 C157.002,100.682 157.224,101.086 157.419,101.569 C157.616,102.054 157.746,102.524 157.815,102.983 C157.981,104.011 157.862,104.999 157.466,105.953 C156.859,107.418 155.766,108.411 154.213,108.968 C152.652,109.54 151.021,109.496 149.281,108.848 C147.663,108.247 146.365,107.265 145.354,105.875 C145.22,106.265 145.087,106.654 144.953,107.045" id="Fill-54" fill="#1A1919"></path>
            <path d="M31.165,106.778 C27.414,108.042 23.697,109.434 20.017,110.957 C19.441,109.564 18.865,108.172 18.288,106.778 C18.94,106.509 19.593,106.243 20.247,105.981 C19.028,102.933 17.809,99.886 16.59,96.84 C15.876,97.126 15.164,97.415 14.453,97.71 C13.876,96.317 13.3,94.925 12.723,93.532 C19.324,90.798 26.038,88.439 32.833,86.457 C33.414,88.447 33.994,90.437 34.575,92.427 C32.798,92.946 31.026,93.491 29.262,94.062 C29.087,93.524 28.913,92.986 28.739,92.448 C27.242,92.932 25.75,93.436 24.263,93.959 C24.584,94.873 24.905,95.786 25.226,96.7 C26.356,96.303 27.49,95.917 28.625,95.543 C29.027,96.759 29.429,97.975 29.83,99.191 C28.717,99.558 27.607,99.937 26.499,100.326 C26.841,101.3 27.183,102.274 27.526,103.248 C28.256,102.991 28.988,102.739 29.72,102.492 C30.202,103.921 30.683,105.349 31.165,106.778 Z M37.325,93.489 C36.937,93.596 36.551,93.706 36.165,93.816 C35.851,92.717 35.538,91.618 35.224,90.518 C37.843,89.771 40.474,89.082 43.116,88.45 C43.382,89.561 43.648,90.673 43.915,91.784 C43.674,91.842 43.433,91.899 43.193,91.958 C43.575,93.522 43.956,95.087 44.337,96.651 C44.61,97.772 44.909,98.509 45.231,98.861 C45.553,99.207 46.001,99.31 46.582,99.175 C47.064,99.062 47.374,98.811 47.514,98.42 C47.655,98.037 47.609,97.325 47.374,96.287 C46.994,94.605 46.614,92.925 46.234,91.244 C45.978,91.302 45.723,91.36 45.468,91.419 C45.211,90.305 44.954,89.191 44.697,88.078 C46.64,87.63 48.589,87.213 50.542,86.826 C50.764,87.947 50.986,89.068 51.207,90.19 C50.804,90.269 50.401,90.35 49.998,90.433 C50.345,92.129 50.692,93.824 51.039,95.519 C51.305,96.818 51.323,97.92 51.104,98.828 C50.882,99.73 50.372,100.507 49.577,101.167 C48.78,101.826 47.735,102.306 46.433,102.619 C45.384,102.87 44.427,102.979 43.556,102.941 C42.673,102.913 41.925,102.722 41.312,102.36 C40.701,102.007 40.183,101.517 39.765,100.892 C39.345,100.289 38.94,99.297 38.556,97.915 C38.145,96.439 37.735,94.965 37.325,93.489 Z M65.209,93.972 C64.701,94.036 64.192,94.101 63.684,94.169 C63.564,93.27 63.445,92.372 63.325,91.474 C65.585,91.174 67.849,90.915 70.116,90.698 C70.265,92.257 70.259,93.427 70.104,94.207 C69.954,94.961 69.564,95.747 68.944,96.571 C68.338,97.387 67.575,98.02 66.652,98.476 C65.729,98.932 64.722,99.233 63.624,99.385 C61.99,99.609 60.471,99.57 59.047,99.26 C57.619,98.965 56.431,98.297 55.474,97.242 C54.515,96.21 53.888,94.974 53.615,93.522 C53.201,91.331 53.644,89.412 54.998,87.787 C56.335,86.166 58.188,85.168 60.508,84.835 C62.445,84.557 64.023,84.795 65.219,85.517 C65.18,85.186 65.14,84.855 65.101,84.525 C66.364,84.375 67.627,84.238 68.892,84.113 C69.056,85.773 69.22,87.433 69.383,89.094 C68.152,89.216 66.921,89.348 65.691,89.495 C65.295,88.92 64.817,88.508 64.256,88.26 C63.696,88.011 63.066,87.934 62.369,88.028 C61.392,88.161 60.715,88.557 60.346,89.209 C59.982,89.859 59.923,90.967 60.159,92.527 C60.394,94.082 60.783,95.102 61.32,95.593 C61.865,96.088 62.573,96.273 63.451,96.154 C64.78,95.974 65.367,95.255 65.209,93.972 Z M81.027,97.639 C78.248,97.744 75.472,97.914 72.699,98.149 C72.603,97.01 72.506,95.871 72.409,94.731 C72.865,94.693 73.321,94.656 73.778,94.621 C73.586,92.138 73.394,89.657 73.203,87.176 C72.728,87.213 72.252,87.251 71.778,87.292 C71.681,86.152 71.584,85.013 71.488,83.875 C74.484,83.621 77.486,83.437 80.489,83.324 C80.532,84.467 80.575,85.608 80.618,86.751 C80.145,86.768 79.673,86.788 79.201,86.809 C79.313,89.296 79.425,91.782 79.537,94.268 C79.991,94.248 80.445,94.229 80.898,94.212 C80.941,95.354 80.984,96.497 81.027,97.639 Z M93.992,97.628 C91.255,97.53 88.517,97.496 85.779,97.525 C85.767,96.382 85.755,95.239 85.743,94.095 C86.171,94.091 86.6,94.088 87.029,94.087 C87.02,91.597 87.011,89.108 87.002,86.62 C86.407,86.622 85.812,86.627 85.216,86.635 C85.228,87.503 85.239,88.372 85.25,89.241 C84.292,89.253 83.334,89.273 82.377,89.301 C82.32,87.29 82.262,85.279 82.204,83.267 C87.429,83.119 92.658,83.183 97.877,83.463 C97.77,85.471 97.662,87.48 97.555,89.489 C96.599,89.437 95.642,89.394 94.685,89.358 C94.718,88.49 94.75,87.621 94.784,86.753 C94.192,86.731 93.601,86.711 93.009,86.694 C92.938,89.182 92.868,91.67 92.796,94.158 C93.236,94.171 93.675,94.184 94.115,94.2 C94.074,95.343 94.033,96.485 93.992,97.628 Z M107.015,98.576 C104.248,98.271 101.475,98.032 98.7,97.859 C98.771,96.718 98.842,95.577 98.913,94.436 C99.369,94.465 99.827,94.495 100.283,94.527 C100.456,92.044 100.63,89.561 100.805,87.078 C100.329,87.045 99.854,87.013 99.379,86.984 C99.451,85.844 99.522,84.702 99.593,83.561 C102.593,83.749 105.59,84.008 108.581,84.336 C108.456,85.472 108.331,86.608 108.207,87.744 C107.737,87.692 107.265,87.642 106.794,87.594 C106.541,90.07 106.287,92.547 106.034,95.022 C106.487,95.069 106.939,95.117 107.39,95.167 C107.265,96.302 107.14,97.439 107.015,98.576 Z M118.169,100.289 C116.67,100.026 115.168,99.783 113.664,99.56 C112.661,95.697 111.561,91.841 110.361,87.994 C109.98,87.947 109.599,87.902 109.217,87.858 C109.348,86.722 109.48,85.588 109.611,84.452 C112.431,84.778 115.245,85.167 118.052,85.618 C117.87,86.746 117.689,87.875 117.507,89.003 C117.073,88.933 116.638,88.865 116.203,88.798 C116.657,90.927 117.086,93.057 117.49,95.189 C118.597,93.309 119.73,91.439 120.888,89.579 C120.468,89.504 120.049,89.429 119.629,89.357 C119.824,88.23 120.018,87.104 120.212,85.978 C122.315,86.342 124.412,86.739 126.505,87.174 C126.273,88.293 126.041,89.412 125.809,90.531 C125.431,90.453 125.054,90.376 124.676,90.3 C122.42,93.594 120.25,96.924 118.169,100.289 Z" id="Stroke-55" stroke="#1A1919"></path>
            <path d="M138.353,104.93 C133.851,103.583 129.307,102.42 124.734,101.44 C124.974,100.322 125.213,99.205 125.453,98.087 C125.831,98.168 126.21,98.25 126.589,98.334 C127.126,95.903 127.663,93.473 128.201,91.043 C127.798,90.954 127.396,90.867 126.994,90.78 C127.233,89.663 127.472,88.546 127.711,87.427 C132.662,88.488 137.581,89.747 142.456,91.204 C142.019,92.668 141.581,94.132 141.144,95.595 C139.837,95.205 138.528,94.828 137.214,94.467 C137.317,94.095 137.418,93.725 137.521,93.354 C136.377,93.039 135.231,92.735 134.082,92.442 C133.901,93.154 133.719,93.866 133.537,94.578 C134.525,94.83 135.511,95.09 136.495,95.358 C136.24,96.296 135.984,97.233 135.729,98.171 C134.76,97.907 133.789,97.65 132.818,97.403 C132.624,98.161 132.431,98.92 132.238,99.677 C133.34,99.959 134.441,100.251 135.539,100.553 C135.641,100.182 135.744,99.811 135.845,99.441 C137.121,99.793 138.396,100.158 139.666,100.538 C139.229,102.002 138.791,103.466 138.353,104.93 Z M144.953,107.045 C143.567,106.57 142.175,106.113 140.779,105.674 C141.385,103.748 141.991,101.822 142.597,99.896 C144.04,100.35 145.48,100.823 146.914,101.314 C146.897,103.05 147.577,104.154 148.971,104.657 C149.978,105.021 150.622,104.828 150.907,104.063 C151.055,103.665 151.001,103.268 150.744,102.874 C150.467,102.445 149.807,101.748 148.744,100.799 C147.411,99.591 146.438,98.633 145.851,97.904 C145.294,97.235 144.89,96.434 144.636,95.499 C144.378,94.571 144.392,93.641 144.685,92.708 C145.209,91.032 146.229,89.911 147.769,89.373 C149.296,88.832 150.974,88.87 152.768,89.502 C154.563,90.133 155.916,91.138 156.808,92.484 C156.947,92.121 157.084,91.757 157.223,91.392 C158.754,91.974 160.281,92.576 161.801,93.198 C161.122,94.857 160.444,96.516 159.765,98.176 C158.305,97.579 156.84,97.001 155.37,96.441 C155.36,94.849 154.651,93.786 153.257,93.281 C152.276,92.927 151.654,93.127 151.392,93.869 C151.266,94.227 151.309,94.545 151.521,94.823 C151.721,95.106 152.437,95.824 153.643,96.996 C155.25,98.58 156.273,99.711 156.755,100.36 C157.002,100.682 157.224,101.086 157.419,101.569 C157.616,102.054 157.746,102.524 157.815,102.983 C157.981,104.011 157.862,104.999 157.466,105.953 C156.859,107.418 155.766,108.411 154.213,108.968 C152.652,109.54 151.021,109.496 149.281,108.848 C147.663,108.247 146.365,107.265 145.354,105.875 C145.22,106.265 145.087,106.654 144.953,107.045 Z" id="Stroke-56" stroke="#1A1919"></path>
            <path d="M31.165,103.179 C27.414,104.442 23.697,105.835 20.017,107.357 C19.441,105.965 18.865,104.572 18.288,103.179 C18.94,102.909 19.593,102.643 20.247,102.382 C19.028,99.334 17.809,96.287 16.59,93.24 C15.876,93.526 15.164,93.815 14.453,94.11 C13.876,92.718 13.3,91.325 12.723,89.932 C19.324,87.197 26.038,84.84 32.833,82.857 C33.414,84.847 33.994,86.838 34.575,88.828 C32.798,89.346 31.026,89.891 29.262,90.463 C29.087,89.925 28.913,89.386 28.739,88.848 C27.242,89.333 25.75,89.837 24.263,90.359 C24.584,91.273 24.905,92.186 25.226,93.1 C26.356,92.704 27.49,92.317 28.625,91.943 C29.027,93.159 29.429,94.376 29.83,95.592 C28.717,95.959 27.607,96.338 26.499,96.726 C26.841,97.7 27.183,98.674 27.526,99.648 C28.256,99.391 28.988,99.139 29.72,98.892 C30.202,100.321 30.683,101.75 31.165,103.179" id="Fill-57" fill="#244129"></path>
            <path d="M37.325,89.889 C36.937,89.997 36.551,90.106 36.165,90.217 C35.851,89.117 35.538,88.018 35.224,86.919 C37.843,86.173 40.474,85.482 43.116,84.85 C43.382,85.962 43.648,87.073 43.915,88.184 C43.674,88.242 43.433,88.3 43.193,88.358 C43.575,89.923 43.956,91.487 44.337,93.052 C44.61,94.173 44.909,94.909 45.231,95.261 C45.553,95.607 46.001,95.712 46.582,95.575 C47.064,95.463 47.374,95.212 47.514,94.82 C47.655,94.436 47.609,93.725 47.374,92.687 C46.994,91.006 46.614,89.325 46.234,87.644 C45.978,87.702 45.723,87.76 45.468,87.819 C45.211,86.706 44.954,85.592 44.697,84.478 C46.64,84.03 48.589,83.613 50.542,83.226 C50.764,84.347 50.986,85.469 51.207,86.591 C50.804,86.67 50.401,86.751 49.998,86.834 C50.345,88.529 50.692,90.224 51.039,91.92 C51.305,93.219 51.323,94.32 51.104,95.228 C50.882,96.131 50.372,96.907 49.577,97.567 C48.78,98.226 47.735,98.707 46.433,99.018 C45.384,99.27 44.427,99.38 43.556,99.342 C42.673,99.313 41.925,99.122 41.312,98.76 C40.701,98.407 40.183,97.918 39.765,97.293 C39.345,96.69 38.94,95.697 38.556,94.315 C38.145,92.84 37.735,91.365 37.325,89.889" id="Fill-58" fill="#244129"></path>
            <path d="M65.209,90.373 C64.701,90.436 64.192,90.502 63.684,90.569 C63.564,89.671 63.445,88.772 63.325,87.874 C65.585,87.574 67.849,87.315 70.116,87.098 C70.265,88.657 70.259,89.827 70.104,90.607 C69.954,91.361 69.564,92.147 68.944,92.971 C68.338,93.788 67.575,94.421 66.652,94.877 C65.729,95.333 64.722,95.634 63.624,95.785 C61.99,96.01 60.471,95.97 59.047,95.66 C57.619,95.365 56.431,94.697 55.474,93.643 C54.515,92.611 53.888,91.374 53.615,89.923 C53.201,87.731 53.644,85.812 54.998,84.187 C56.335,82.566 58.188,81.568 60.508,81.235 C62.445,80.959 64.023,81.195 65.219,81.918 C65.18,81.587 65.14,81.256 65.101,80.926 C66.364,80.775 67.627,80.638 68.892,80.513 C69.056,82.174 69.22,83.834 69.383,85.494 C68.152,85.616 66.921,85.749 65.691,85.895 C65.295,85.32 64.817,84.907 64.256,84.66 C63.696,84.412 63.066,84.335 62.369,84.428 C61.392,84.561 60.715,84.959 60.346,85.609 C59.982,86.26 59.923,87.366 60.159,88.927 C60.394,90.482 60.783,91.503 61.32,91.993 C61.865,92.489 62.573,92.675 63.451,92.554 C64.78,92.375 65.367,91.655 65.209,90.373" id="Fill-59" fill="#244129"></path>
            <path d="M81.027,94.04 C78.248,94.144 75.472,94.314 72.699,94.55 C72.603,93.41 72.506,92.271 72.409,91.132 C72.865,91.094 73.321,91.056 73.778,91.021 C73.586,88.539 73.394,86.057 73.203,83.576 C72.728,83.613 72.252,83.651 71.778,83.692 C71.681,82.552 71.584,81.414 71.488,80.275 C74.484,80.021 77.486,79.838 80.489,79.724 C80.532,80.867 80.575,82.009 80.618,83.151 C80.145,83.169 79.673,83.188 79.201,83.21 C79.313,85.696 79.425,88.182 79.537,90.669 C79.991,90.648 80.445,90.63 80.898,90.613 C80.941,91.755 80.984,92.897 81.027,94.04" id="Fill-60" fill="#244129"></path>
            <path d="M93.992,94.028 C91.255,93.93 88.517,93.896 85.779,93.926 C85.767,92.782 85.755,91.639 85.743,90.496 C86.171,90.491 86.6,90.488 87.029,90.487 C87.02,87.998 87.011,85.509 87.002,83.02 C86.407,83.022 85.812,83.027 85.216,83.035 C85.228,83.903 85.239,84.772 85.25,85.641 C84.292,85.653 83.334,85.674 82.377,85.701 C82.32,83.69 82.262,81.678 82.204,79.668 C87.429,79.518 92.658,79.584 97.877,79.863 C97.77,81.872 97.662,83.881 97.555,85.889 C96.599,85.838 95.642,85.795 94.685,85.759 C94.718,84.889 94.75,84.021 94.784,83.154 C94.192,83.132 93.601,83.111 93.009,83.094 C92.938,85.583 92.868,88.07 92.796,90.558 C93.236,90.571 93.675,90.585 94.115,90.6 C94.074,91.743 94.033,92.885 93.992,94.028" id="Fill-61" fill="#244129"></path>
            <path d="M107.015,94.976 C104.248,94.672 101.475,94.432 98.7,94.26 C98.771,93.118 98.842,91.977 98.913,90.837 C99.369,90.865 99.827,90.895 100.283,90.927 C100.456,88.444 100.63,85.962 100.805,83.478 C100.329,83.445 99.854,83.414 99.379,83.385 C99.451,82.244 99.522,81.102 99.593,79.962 C102.593,80.149 105.59,80.408 108.581,80.736 C108.456,81.873 108.331,83.009 108.207,84.144 C107.737,84.093 107.265,84.043 106.794,83.995 C106.541,86.47 106.287,88.947 106.034,91.423 C106.487,91.469 106.939,91.517 107.39,91.567 C107.265,92.703 107.14,93.84 107.015,94.976" id="Fill-62" fill="#244129"></path>
            <path d="M118.169,96.689 C116.67,96.427 115.168,96.183 113.664,95.961 C112.661,92.097 111.561,88.241 110.361,84.394 C109.98,84.347 109.599,84.302 109.217,84.259 C109.348,83.123 109.48,81.988 109.611,80.852 C112.431,81.178 115.245,81.567 118.052,82.018 C117.87,83.146 117.689,84.275 117.507,85.403 C117.073,85.334 116.638,85.265 116.203,85.198 C116.657,87.328 117.086,89.459 117.49,91.59 C118.597,89.71 119.73,87.84 120.888,85.979 C120.468,85.904 120.049,85.83 119.629,85.758 C119.824,84.631 120.018,83.505 120.212,82.379 C122.315,82.742 124.412,83.139 126.505,83.574 C126.273,84.693 126.041,85.812 125.809,86.931 C125.431,86.853 125.054,86.776 124.676,86.7 C122.42,89.994 120.25,93.324 118.169,96.689" id="Fill-63" fill="#244129"></path>
            <path d="M138.353,101.33 C133.851,99.983 129.307,98.82 124.734,97.841 C124.974,96.722 125.213,95.605 125.453,94.487 C125.831,94.568 126.21,94.65 126.589,94.734 C127.126,92.303 127.663,89.874 128.201,87.443 C127.798,87.354 127.396,87.267 126.994,87.18 C127.233,86.063 127.472,84.946 127.711,83.828 C132.662,84.888 137.581,86.147 142.456,87.604 C142.019,89.068 141.581,90.532 141.144,91.996 C139.837,91.605 138.528,91.228 137.214,90.867 C137.317,90.496 137.418,90.126 137.521,89.755 C136.377,89.439 135.231,89.135 134.082,88.843 C133.901,89.554 133.719,90.266 133.537,90.978 C134.525,91.23 135.511,91.49 136.495,91.759 C136.24,92.696 135.984,93.634 135.729,94.571 C134.76,94.307 133.789,94.052 132.818,93.803 C132.624,94.561 132.431,95.32 132.238,96.078 C133.34,96.359 134.441,96.651 135.539,96.954 C135.641,96.583 135.744,96.212 135.845,95.842 C137.121,96.193 138.396,96.558 139.666,96.938 C139.229,98.402 138.791,99.866 138.353,101.33" id="Fill-64" fill="#244129"></path>
            <path d="M144.953,103.445 C143.567,102.971 142.175,102.514 140.779,102.074 C141.385,100.148 141.991,98.222 142.597,96.297 C144.04,96.751 145.48,97.223 146.914,97.715 C146.897,99.45 147.577,100.554 148.971,101.057 C149.978,101.422 150.622,101.227 150.907,100.464 C151.055,100.065 151.001,99.669 150.744,99.274 C150.467,98.845 149.807,98.148 148.744,97.199 C147.411,95.991 146.438,95.033 145.851,94.304 C145.294,93.635 144.89,92.835 144.636,91.899 C144.378,90.972 144.392,90.041 144.685,89.108 C145.209,87.432 146.229,86.312 147.769,85.773 C149.296,85.232 150.974,85.27 152.768,85.902 C154.563,86.533 155.916,87.539 156.808,88.885 C156.947,88.521 157.084,88.157 157.223,87.793 C158.754,88.375 160.281,88.976 161.801,89.598 C161.122,91.258 160.444,92.917 159.765,94.576 C158.305,93.979 156.84,93.401 155.37,92.842 C155.36,91.249 154.651,90.186 153.257,89.681 C152.276,89.327 151.654,89.527 151.392,90.269 C151.266,90.628 151.309,90.946 151.521,91.223 C151.721,91.507 152.437,92.224 153.643,93.396 C155.25,94.98 156.273,96.111 156.755,96.76 C157.002,97.083 157.224,97.486 157.419,97.969 C157.616,98.454 157.746,98.925 157.815,99.384 C157.981,100.41 157.862,101.399 157.466,102.353 C156.859,103.818 155.766,104.811 154.213,105.368 C152.652,105.94 151.021,105.896 149.281,105.249 C147.663,104.647 146.365,103.665 145.354,102.275 C145.22,102.665 145.087,103.055 144.953,103.445" id="Fill-65" fill="#244129"></path>
            <path d="M31.165,103.179 C27.414,104.442 23.697,105.835 20.017,107.357 C19.441,105.965 18.865,104.572 18.288,103.179 C18.94,102.909 19.593,102.643 20.247,102.382 C19.028,99.334 17.809,96.287 16.59,93.24 C15.876,93.526 15.164,93.815 14.453,94.11 C13.876,92.718 13.3,91.325 12.723,89.932 C19.324,87.197 26.038,84.84 32.833,82.857 C33.414,84.847 33.994,86.838 34.575,88.828 C32.798,89.346 31.026,89.891 29.262,90.463 C29.087,89.925 28.913,89.386 28.739,88.848 C27.242,89.333 25.75,89.837 24.263,90.359 C24.584,91.273 24.905,92.186 25.226,93.1 C26.356,92.704 27.49,92.317 28.625,91.943 C29.027,93.159 29.429,94.376 29.83,95.592 C28.717,95.959 27.607,96.338 26.499,96.726 C26.841,97.7 27.183,98.674 27.526,99.648 C28.256,99.391 28.988,99.139 29.72,98.892 C30.202,100.321 30.683,101.75 31.165,103.179 Z M37.325,89.889 C36.937,89.997 36.551,90.106 36.165,90.217 C35.851,89.117 35.538,88.018 35.224,86.919 C37.843,86.173 40.474,85.482 43.116,84.85 C43.382,85.962 43.648,87.073 43.915,88.184 C43.674,88.242 43.433,88.3 43.193,88.358 C43.575,89.923 43.956,91.487 44.337,93.052 C44.61,94.173 44.909,94.909 45.231,95.261 C45.553,95.607 46.001,95.712 46.582,95.575 C47.064,95.463 47.374,95.212 47.514,94.82 C47.655,94.436 47.609,93.725 47.374,92.687 C46.994,91.006 46.614,89.325 46.234,87.644 C45.978,87.702 45.723,87.76 45.468,87.819 C45.211,86.706 44.954,85.592 44.697,84.478 C46.64,84.03 48.589,83.613 50.542,83.226 C50.764,84.347 50.986,85.469 51.207,86.591 C50.804,86.67 50.401,86.751 49.998,86.834 C50.345,88.529 50.692,90.224 51.039,91.92 C51.305,93.219 51.323,94.32 51.104,95.228 C50.882,96.131 50.372,96.907 49.577,97.567 C48.78,98.226 47.735,98.707 46.433,99.018 C45.384,99.27 44.427,99.38 43.556,99.342 C42.673,99.313 41.925,99.122 41.312,98.76 C40.701,98.407 40.183,97.918 39.765,97.293 C39.345,96.69 38.94,95.697 38.556,94.315 C38.145,92.84 37.735,91.365 37.325,89.889 Z M65.209,90.373 C64.701,90.436 64.192,90.502 63.684,90.569 C63.564,89.671 63.445,88.772 63.325,87.874 C65.585,87.574 67.849,87.315 70.116,87.098 C70.265,88.657 70.259,89.827 70.104,90.607 C69.954,91.361 69.564,92.147 68.944,92.971 C68.338,93.788 67.575,94.421 66.652,94.877 C65.729,95.333 64.722,95.634 63.624,95.785 C61.99,96.01 60.471,95.97 59.047,95.66 C57.619,95.365 56.431,94.697 55.474,93.643 C54.515,92.611 53.888,91.374 53.615,89.923 C53.201,87.731 53.644,85.812 54.998,84.187 C56.335,82.566 58.188,81.568 60.508,81.235 C62.445,80.959 64.023,81.195 65.219,81.918 C65.18,81.587 65.14,81.256 65.101,80.926 C66.364,80.775 67.627,80.638 68.892,80.513 C69.056,82.174 69.22,83.834 69.383,85.494 C68.152,85.616 66.921,85.749 65.691,85.895 C65.295,85.32 64.817,84.907 64.256,84.66 C63.696,84.412 63.066,84.335 62.369,84.428 C61.392,84.561 60.715,84.959 60.346,85.609 C59.982,86.26 59.923,87.366 60.159,88.927 C60.394,90.482 60.783,91.503 61.32,91.993 C61.865,92.489 62.573,92.675 63.451,92.554 C64.78,92.375 65.367,91.655 65.209,90.373 Z M81.027,94.04 C78.248,94.144 75.472,94.314 72.699,94.55 C72.603,93.41 72.506,92.271 72.409,91.132 C72.865,91.094 73.321,91.056 73.778,91.021 C73.586,88.539 73.394,86.057 73.203,83.576 C72.728,83.613 72.252,83.651 71.778,83.692 C71.681,82.552 71.584,81.414 71.488,80.275 C74.484,80.021 77.486,79.838 80.489,79.724 C80.532,80.867 80.575,82.009 80.618,83.151 C80.145,83.169 79.673,83.188 79.201,83.21 C79.313,85.696 79.425,88.182 79.537,90.669 C79.991,90.648 80.445,90.63 80.898,90.613 C80.941,91.755 80.984,92.897 81.027,94.04 Z M93.992,94.028 C91.255,93.93 88.517,93.896 85.779,93.926 C85.767,92.782 85.755,91.639 85.743,90.496 C86.171,90.491 86.6,90.488 87.029,90.487 C87.02,87.998 87.011,85.509 87.002,83.02 C86.407,83.022 85.812,83.027 85.216,83.035 C85.228,83.903 85.239,84.772 85.25,85.641 C84.292,85.653 83.334,85.674 82.377,85.701 C82.32,83.69 82.262,81.678 82.204,79.668 C87.429,79.518 92.658,79.584 97.877,79.863 C97.77,81.872 97.662,83.881 97.555,85.889 C96.599,85.838 95.642,85.795 94.685,85.759 C94.718,84.889 94.75,84.021 94.784,83.154 C94.192,83.132 93.601,83.111 93.009,83.094 C92.938,85.583 92.868,88.07 92.796,90.558 C93.236,90.571 93.675,90.585 94.115,90.6 C94.074,91.743 94.033,92.885 93.992,94.028 Z M107.015,94.976 C104.248,94.672 101.475,94.432 98.7,94.26 C98.771,93.118 98.842,91.977 98.913,90.837 C99.369,90.865 99.827,90.895 100.283,90.927 C100.456,88.444 100.63,85.962 100.805,83.478 C100.329,83.445 99.854,83.414 99.379,83.385 C99.451,82.244 99.522,81.102 99.593,79.962 C102.593,80.149 105.59,80.408 108.581,80.736 C108.456,81.873 108.331,83.009 108.207,84.144 C107.737,84.093 107.265,84.043 106.794,83.995 C106.541,86.47 106.287,88.947 106.034,91.423 C106.487,91.469 106.939,91.517 107.39,91.567 C107.265,92.703 107.14,93.84 107.015,94.976 Z M118.169,96.689 C116.67,96.427 115.168,96.183 113.664,95.961 C112.661,92.097 111.561,88.241 110.361,84.394 C109.98,84.347 109.599,84.302 109.217,84.259 C109.348,83.123 109.48,81.988 109.611,80.852 C112.431,81.178 115.245,81.567 118.052,82.018 C117.87,83.146 117.689,84.275 117.507,85.403 C117.073,85.334 116.638,85.265 116.203,85.198 C116.657,87.328 117.086,89.459 117.49,91.59 C118.597,89.71 119.73,87.84 120.888,85.979 C120.468,85.904 120.049,85.83 119.629,85.758 C119.824,84.631 120.018,83.505 120.212,82.379 C122.315,82.742 124.412,83.139 126.505,83.574 C126.273,84.693 126.041,85.812 125.809,86.931 C125.431,86.853 125.054,86.776 124.676,86.7 C122.42,89.994 120.25,93.324 118.169,96.689 Z" id="Stroke-66" stroke="#1A1919" stroke-width="5"></path>
            <path d="M138.353,101.33 C133.851,99.983 129.307,98.82 124.734,97.841 C124.974,96.722 125.213,95.605 125.453,94.487 C125.831,94.568 126.21,94.65 126.589,94.734 C127.126,92.303 127.663,89.874 128.201,87.443 C127.798,87.354 127.396,87.267 126.994,87.18 C127.233,86.063 127.472,84.946 127.711,83.828 C132.662,84.888 137.581,86.147 142.456,87.604 C142.019,89.068 141.581,90.532 141.144,91.996 C139.837,91.605 138.528,91.228 137.214,90.867 C137.317,90.496 137.418,90.126 137.521,89.755 C136.377,89.439 135.231,89.135 134.082,88.843 C133.901,89.554 133.719,90.266 133.537,90.978 C134.525,91.23 135.511,91.49 136.495,91.759 C136.24,92.696 135.984,93.634 135.729,94.571 C134.76,94.307 133.789,94.052 132.818,93.803 C132.624,94.561 132.431,95.32 132.238,96.078 C133.34,96.359 134.441,96.651 135.539,96.954 C135.641,96.583 135.744,96.212 135.845,95.842 C137.121,96.193 138.396,96.558 139.666,96.938 C139.229,98.402 138.791,99.866 138.353,101.33 Z M144.953,103.445 C143.567,102.971 142.175,102.514 140.779,102.074 C141.385,100.148 141.991,98.222 142.597,96.297 C144.04,96.751 145.48,97.223 146.914,97.715 C146.897,99.45 147.577,100.554 148.971,101.057 C149.978,101.422 150.622,101.227 150.907,100.464 C151.055,100.065 151.001,99.669 150.744,99.274 C150.467,98.845 149.807,98.148 148.744,97.199 C147.411,95.991 146.438,95.033 145.851,94.304 C145.294,93.635 144.89,92.835 144.636,91.899 C144.378,90.972 144.392,90.041 144.685,89.108 C145.209,87.432 146.229,86.312 147.769,85.773 C149.296,85.232 150.974,85.27 152.768,85.902 C154.563,86.533 155.916,87.539 156.808,88.885 C156.947,88.521 157.084,88.157 157.223,87.793 C158.754,88.375 160.281,88.976 161.801,89.598 C161.122,91.258 160.444,92.917 159.765,94.576 C158.305,93.979 156.84,93.401 155.37,92.842 C155.36,91.249 154.651,90.186 153.257,89.681 C152.276,89.327 151.654,89.527 151.392,90.269 C151.266,90.628 151.309,90.946 151.521,91.223 C151.721,91.507 152.437,92.224 153.643,93.396 C155.25,94.98 156.273,96.111 156.755,96.76 C157.002,97.083 157.224,97.486 157.419,97.969 C157.616,98.454 157.746,98.925 157.815,99.384 C157.981,100.41 157.862,101.399 157.466,102.353 C156.859,103.818 155.766,104.811 154.213,105.368 C152.652,105.94 151.021,105.896 149.281,105.249 C147.663,104.647 146.365,103.665 145.354,102.275 C145.22,102.665 145.087,103.055 144.953,103.445 Z" id="Stroke-67" stroke="#1A1919" stroke-width="5"></path>
            <path d="M31.165,103.179 C27.414,104.442 23.697,105.835 20.017,107.357 C19.441,105.965 18.865,104.572 18.288,103.179 C18.94,102.909 19.593,102.643 20.247,102.382 C19.028,99.334 17.809,96.287 16.59,93.24 C15.876,93.526 15.164,93.815 14.453,94.11 C13.876,92.718 13.3,91.325 12.723,89.932 C19.324,87.197 26.038,84.84 32.833,82.857 C33.414,84.847 33.994,86.838 34.575,88.828 C32.798,89.346 31.026,89.891 29.262,90.463 C29.087,89.925 28.913,89.386 28.739,88.848 C27.242,89.333 25.75,89.837 24.263,90.359 C24.584,91.273 24.905,92.186 25.226,93.1 C26.356,92.704 27.49,92.317 28.625,91.943 C29.027,93.159 29.429,94.376 29.83,95.592 C28.717,95.959 27.607,96.338 26.499,96.726 C26.841,97.7 27.183,98.674 27.526,99.648 C28.256,99.391 28.988,99.139 29.72,98.892 C30.202,100.321 30.683,101.75 31.165,103.179" id="Fill-68" fill="#244129"></path>
            <path d="M37.325,89.889 C36.937,89.997 36.551,90.106 36.165,90.217 C35.851,89.117 35.538,88.018 35.224,86.919 C37.843,86.173 40.474,85.482 43.116,84.85 C43.382,85.962 43.648,87.073 43.915,88.184 C43.674,88.242 43.433,88.3 43.193,88.358 C43.575,89.923 43.956,91.487 44.337,93.052 C44.61,94.173 44.909,94.909 45.231,95.261 C45.553,95.607 46.001,95.712 46.582,95.575 C47.064,95.463 47.374,95.212 47.514,94.82 C47.655,94.436 47.609,93.725 47.374,92.687 C46.994,91.006 46.614,89.325 46.234,87.644 C45.978,87.702 45.723,87.76 45.468,87.819 C45.211,86.706 44.954,85.592 44.697,84.478 C46.64,84.03 48.589,83.613 50.542,83.226 C50.764,84.347 50.986,85.469 51.207,86.591 C50.804,86.67 50.401,86.751 49.998,86.834 C50.345,88.529 50.692,90.224 51.039,91.92 C51.305,93.219 51.323,94.32 51.104,95.228 C50.882,96.131 50.372,96.907 49.577,97.567 C48.78,98.226 47.735,98.707 46.433,99.018 C45.384,99.27 44.427,99.38 43.556,99.342 C42.673,99.313 41.925,99.122 41.312,98.76 C40.701,98.407 40.183,97.918 39.765,97.293 C39.345,96.69 38.94,95.697 38.556,94.315 C38.145,92.84 37.735,91.365 37.325,89.889" id="Fill-69" fill="#244129"></path>
            <path d="M65.209,90.373 C64.701,90.436 64.192,90.502 63.684,90.569 C63.564,89.671 63.445,88.772 63.325,87.874 C65.585,87.574 67.849,87.315 70.116,87.098 C70.265,88.657 70.259,89.827 70.104,90.607 C69.954,91.361 69.564,92.147 68.944,92.971 C68.338,93.788 67.575,94.421 66.652,94.877 C65.729,95.333 64.722,95.634 63.624,95.785 C61.99,96.01 60.471,95.97 59.047,95.66 C57.619,95.365 56.431,94.697 55.474,93.643 C54.515,92.611 53.888,91.374 53.615,89.923 C53.201,87.731 53.644,85.812 54.998,84.187 C56.335,82.566 58.188,81.568 60.508,81.235 C62.445,80.959 64.023,81.195 65.219,81.918 C65.18,81.587 65.14,81.256 65.101,80.926 C66.364,80.775 67.627,80.638 68.892,80.513 C69.056,82.174 69.22,83.834 69.383,85.494 C68.152,85.616 66.921,85.749 65.691,85.895 C65.295,85.32 64.817,84.907 64.256,84.66 C63.696,84.412 63.066,84.335 62.369,84.428 C61.392,84.561 60.715,84.959 60.346,85.609 C59.982,86.26 59.923,87.366 60.159,88.927 C60.394,90.482 60.783,91.503 61.32,91.993 C61.865,92.489 62.573,92.675 63.451,92.554 C64.78,92.375 65.367,91.655 65.209,90.373" id="Fill-70" fill="#244129"></path>
            <path d="M81.027,94.04 C78.248,94.144 75.472,94.314 72.699,94.55 C72.603,93.41 72.506,92.271 72.409,91.132 C72.865,91.094 73.321,91.056 73.778,91.021 C73.586,88.539 73.394,86.057 73.203,83.576 C72.728,83.613 72.252,83.651 71.778,83.692 C71.681,82.552 71.584,81.414 71.488,80.275 C74.484,80.021 77.486,79.838 80.489,79.724 C80.532,80.867 80.575,82.009 80.618,83.151 C80.145,83.169 79.673,83.188 79.201,83.21 C79.313,85.696 79.425,88.182 79.537,90.669 C79.991,90.648 80.445,90.63 80.898,90.613 C80.941,91.755 80.984,92.897 81.027,94.04" id="Fill-71" fill="#244129"></path>
            <path d="M93.992,94.028 C91.255,93.93 88.517,93.896 85.779,93.926 C85.767,92.782 85.755,91.639 85.743,90.496 C86.171,90.491 86.6,90.488 87.029,90.487 C87.02,87.998 87.011,85.509 87.002,83.02 C86.407,83.022 85.812,83.027 85.216,83.035 C85.228,83.903 85.239,84.772 85.25,85.641 C84.292,85.653 83.334,85.674 82.377,85.701 C82.32,83.69 82.262,81.678 82.204,79.668 C87.429,79.518 92.658,79.584 97.877,79.863 C97.77,81.872 97.662,83.881 97.555,85.889 C96.599,85.838 95.642,85.795 94.685,85.759 C94.718,84.889 94.75,84.021 94.784,83.154 C94.192,83.132 93.601,83.111 93.009,83.094 C92.938,85.583 92.868,88.07 92.796,90.558 C93.236,90.571 93.675,90.585 94.115,90.6 C94.074,91.743 94.033,92.885 93.992,94.028" id="Fill-72" fill="#244129"></path>
            <path d="M107.015,94.976 C104.248,94.672 101.475,94.432 98.7,94.26 C98.771,93.118 98.842,91.977 98.913,90.837 C99.369,90.865 99.827,90.895 100.283,90.927 C100.456,88.444 100.63,85.962 100.805,83.478 C100.329,83.445 99.854,83.414 99.379,83.385 C99.451,82.244 99.522,81.102 99.593,79.962 C102.593,80.149 105.59,80.408 108.581,80.736 C108.456,81.873 108.331,83.009 108.207,84.144 C107.737,84.093 107.265,84.043 106.794,83.995 C106.541,86.47 106.287,88.947 106.034,91.423 C106.487,91.469 106.939,91.517 107.39,91.567 C107.265,92.703 107.14,93.84 107.015,94.976" id="Fill-73" fill="#244129"></path>
            <path d="M118.169,96.689 C116.67,96.427 115.168,96.183 113.664,95.961 C112.661,92.097 111.561,88.241 110.361,84.394 C109.98,84.347 109.599,84.302 109.217,84.259 C109.348,83.123 109.48,81.988 109.611,80.852 C112.431,81.178 115.245,81.567 118.052,82.018 C117.87,83.146 117.689,84.275 117.507,85.403 C117.073,85.334 116.638,85.265 116.203,85.198 C116.657,87.328 117.086,89.459 117.49,91.59 C118.597,89.71 119.73,87.84 120.888,85.979 C120.468,85.904 120.049,85.83 119.629,85.758 C119.824,84.631 120.018,83.505 120.212,82.379 C122.315,82.742 124.412,83.139 126.505,83.574 C126.273,84.693 126.041,85.812 125.809,86.931 C125.431,86.853 125.054,86.776 124.676,86.7 C122.42,89.994 120.25,93.324 118.169,96.689" id="Fill-74" fill="#244129"></path>
            <path d="M138.353,101.33 C133.851,99.983 129.307,98.82 124.734,97.841 C124.974,96.722 125.213,95.605 125.453,94.487 C125.831,94.568 126.21,94.65 126.589,94.734 C127.126,92.303 127.663,89.874 128.201,87.443 C127.798,87.354 127.396,87.267 126.994,87.18 C127.233,86.063 127.472,84.946 127.711,83.828 C132.662,84.888 137.581,86.147 142.456,87.604 C142.019,89.068 141.581,90.532 141.144,91.996 C139.837,91.605 138.528,91.228 137.214,90.867 C137.317,90.496 137.418,90.126 137.521,89.755 C136.377,89.439 135.231,89.135 134.082,88.843 C133.901,89.554 133.719,90.266 133.537,90.978 C134.525,91.23 135.511,91.49 136.495,91.759 C136.24,92.696 135.984,93.634 135.729,94.571 C134.76,94.307 133.789,94.052 132.818,93.803 C132.624,94.561 132.431,95.32 132.238,96.078 C133.34,96.359 134.441,96.651 135.539,96.954 C135.641,96.583 135.744,96.212 135.845,95.842 C137.121,96.193 138.396,96.558 139.666,96.938 C139.229,98.402 138.791,99.866 138.353,101.33" id="Fill-75" fill="#244129"></path>
            <path d="M144.953,103.445 C143.567,102.971 142.175,102.514 140.779,102.074 C141.385,100.148 141.991,98.222 142.597,96.297 C144.04,96.751 145.48,97.223 146.914,97.715 C146.897,99.45 147.577,100.554 148.971,101.057 C149.978,101.422 150.622,101.227 150.907,100.464 C151.055,100.065 151.001,99.669 150.744,99.274 C150.467,98.845 149.807,98.148 148.744,97.199 C147.411,95.991 146.438,95.033 145.851,94.304 C145.294,93.635 144.89,92.835 144.636,91.899 C144.378,90.972 144.392,90.041 144.685,89.108 C145.209,87.432 146.229,86.312 147.769,85.773 C149.296,85.232 150.974,85.27 152.768,85.902 C154.563,86.533 155.916,87.539 156.808,88.885 C156.947,88.521 157.084,88.157 157.223,87.793 C158.754,88.375 160.281,88.976 161.801,89.598 C161.122,91.258 160.444,92.917 159.765,94.576 C158.305,93.979 156.84,93.401 155.37,92.842 C155.36,91.249 154.651,90.186 153.257,89.681 C152.276,89.327 151.654,89.527 151.392,90.269 C151.266,90.628 151.309,90.946 151.521,91.223 C151.721,91.507 152.437,92.224 153.643,93.396 C155.25,94.98 156.273,96.111 156.755,96.76 C157.002,97.083 157.224,97.486 157.419,97.969 C157.616,98.454 157.746,98.925 157.815,99.384 C157.981,100.41 157.862,101.399 157.466,102.353 C156.859,103.818 155.766,104.811 154.213,105.368 C152.652,105.94 151.021,105.896 149.281,105.249 C147.663,104.647 146.365,103.665 145.354,102.275 C145.22,102.665 145.087,103.055 144.953,103.445" id="Fill-76" fill="#244129"></path>
            <path d="M31.165,103.179 C27.414,104.442 23.697,105.835 20.017,107.357 C19.441,105.965 18.865,104.572 18.288,103.179 C18.94,102.909 19.593,102.643 20.247,102.382 C19.028,99.334 17.809,96.287 16.59,93.24 C15.876,93.526 15.164,93.815 14.453,94.11 C13.876,92.718 13.3,91.325 12.723,89.932 C19.324,87.197 26.038,84.84 32.833,82.857 C33.414,84.847 33.994,86.838 34.575,88.828 C32.798,89.346 31.026,89.891 29.262,90.463 C29.087,89.925 28.913,89.386 28.739,88.848 C27.242,89.333 25.75,89.837 24.263,90.359 C24.584,91.273 24.905,92.186 25.226,93.1 C26.356,92.704 27.49,92.317 28.625,91.943 C29.027,93.159 29.429,94.376 29.83,95.592 C28.717,95.959 27.607,96.338 26.499,96.726 C26.841,97.7 27.183,98.674 27.526,99.648 C28.256,99.391 28.988,99.139 29.72,98.892 C30.202,100.321 30.683,101.75 31.165,103.179 Z M37.325,89.889 C36.937,89.997 36.551,90.106 36.165,90.217 C35.851,89.117 35.538,88.018 35.224,86.919 C37.843,86.173 40.474,85.482 43.116,84.85 C43.382,85.962 43.648,87.073 43.915,88.184 C43.674,88.242 43.433,88.3 43.193,88.358 C43.575,89.923 43.956,91.487 44.337,93.052 C44.61,94.173 44.909,94.909 45.231,95.261 C45.553,95.607 46.001,95.712 46.582,95.575 C47.064,95.463 47.374,95.212 47.514,94.82 C47.655,94.436 47.609,93.725 47.374,92.687 C46.994,91.006 46.614,89.325 46.234,87.644 C45.978,87.702 45.723,87.76 45.468,87.819 C45.211,86.706 44.954,85.592 44.697,84.478 C46.64,84.03 48.589,83.613 50.542,83.226 C50.764,84.347 50.986,85.469 51.207,86.591 C50.804,86.67 50.401,86.751 49.998,86.834 C50.345,88.529 50.692,90.224 51.039,91.92 C51.305,93.219 51.323,94.32 51.104,95.228 C50.882,96.131 50.372,96.907 49.577,97.567 C48.78,98.226 47.735,98.707 46.433,99.018 C45.384,99.27 44.427,99.38 43.556,99.342 C42.673,99.313 41.925,99.122 41.312,98.76 C40.701,98.407 40.183,97.918 39.765,97.293 C39.345,96.69 38.94,95.697 38.556,94.315 C38.145,92.84 37.735,91.365 37.325,89.889 Z M65.209,90.373 C64.701,90.436 64.192,90.502 63.684,90.569 C63.564,89.671 63.445,88.772 63.325,87.874 C65.585,87.574 67.849,87.315 70.116,87.098 C70.265,88.657 70.259,89.827 70.104,90.607 C69.954,91.361 69.564,92.147 68.944,92.971 C68.338,93.788 67.575,94.421 66.652,94.877 C65.729,95.333 64.722,95.634 63.624,95.785 C61.99,96.01 60.471,95.97 59.047,95.66 C57.619,95.365 56.431,94.697 55.474,93.643 C54.515,92.611 53.888,91.374 53.615,89.923 C53.201,87.731 53.644,85.812 54.998,84.187 C56.335,82.566 58.188,81.568 60.508,81.235 C62.445,80.959 64.023,81.195 65.219,81.918 C65.18,81.587 65.14,81.256 65.101,80.926 C66.364,80.775 67.627,80.638 68.892,80.513 C69.056,82.174 69.22,83.834 69.383,85.494 C68.152,85.616 66.921,85.749 65.691,85.895 C65.295,85.32 64.817,84.907 64.256,84.66 C63.696,84.412 63.066,84.335 62.369,84.428 C61.392,84.561 60.715,84.959 60.346,85.609 C59.982,86.26 59.923,87.366 60.159,88.927 C60.394,90.482 60.783,91.503 61.32,91.993 C61.865,92.489 62.573,92.675 63.451,92.554 C64.78,92.375 65.367,91.655 65.209,90.373 Z M81.027,94.04 C78.248,94.144 75.472,94.314 72.699,94.55 C72.603,93.41 72.506,92.271 72.409,91.132 C72.865,91.094 73.321,91.056 73.778,91.021 C73.586,88.539 73.394,86.057 73.203,83.576 C72.728,83.613 72.252,83.651 71.778,83.692 C71.681,82.552 71.584,81.414 71.488,80.275 C74.484,80.021 77.486,79.838 80.489,79.724 C80.532,80.867 80.575,82.009 80.618,83.151 C80.145,83.169 79.673,83.188 79.201,83.21 C79.313,85.696 79.425,88.182 79.537,90.669 C79.991,90.648 80.445,90.63 80.898,90.613 C80.941,91.755 80.984,92.897 81.027,94.04 Z M93.992,94.028 C91.255,93.93 88.517,93.896 85.779,93.926 C85.767,92.782 85.755,91.639 85.743,90.496 C86.171,90.491 86.6,90.488 87.029,90.487 C87.02,87.998 87.011,85.509 87.002,83.02 C86.407,83.022 85.812,83.027 85.216,83.035 C85.228,83.903 85.239,84.772 85.25,85.641 C84.292,85.653 83.334,85.674 82.377,85.701 C82.32,83.69 82.262,81.678 82.204,79.668 C87.429,79.518 92.658,79.584 97.877,79.863 C97.77,81.872 97.662,83.881 97.555,85.889 C96.599,85.838 95.642,85.795 94.685,85.759 C94.718,84.889 94.75,84.021 94.784,83.154 C94.192,83.132 93.601,83.111 93.009,83.094 C92.938,85.583 92.868,88.07 92.796,90.558 C93.236,90.571 93.675,90.585 94.115,90.6 C94.074,91.743 94.033,92.885 93.992,94.028 Z M107.015,94.976 C104.248,94.672 101.475,94.432 98.7,94.26 C98.771,93.118 98.842,91.977 98.913,90.837 C99.369,90.865 99.827,90.895 100.283,90.927 C100.456,88.444 100.63,85.962 100.805,83.478 C100.329,83.445 99.854,83.414 99.379,83.385 C99.451,82.244 99.522,81.102 99.593,79.962 C102.593,80.149 105.59,80.408 108.581,80.736 C108.456,81.873 108.331,83.009 108.207,84.144 C107.737,84.093 107.265,84.043 106.794,83.995 C106.541,86.47 106.287,88.947 106.034,91.423 C106.487,91.469 106.939,91.517 107.39,91.567 C107.265,92.703 107.14,93.84 107.015,94.976 Z M118.169,96.689 C116.67,96.427 115.168,96.183 113.664,95.961 C112.661,92.097 111.561,88.241 110.361,84.394 C109.98,84.347 109.599,84.302 109.217,84.259 C109.348,83.123 109.48,81.988 109.611,80.852 C112.431,81.178 115.245,81.567 118.052,82.018 C117.87,83.146 117.689,84.275 117.507,85.403 C117.073,85.334 116.638,85.265 116.203,85.198 C116.657,87.328 117.086,89.459 117.49,91.59 C118.597,89.71 119.73,87.84 120.888,85.979 C120.468,85.904 120.049,85.83 119.629,85.758 C119.824,84.631 120.018,83.505 120.212,82.379 C122.315,82.742 124.412,83.139 126.505,83.574 C126.273,84.693 126.041,85.812 125.809,86.931 C125.431,86.853 125.054,86.776 124.676,86.7 C122.42,89.994 120.25,93.324 118.169,96.689 Z" id="Stroke-77" stroke="#FFFFFE"></path>
            <path d="M138.353,101.33 C133.851,99.983 129.307,98.82 124.734,97.841 C124.974,96.722 125.213,95.605 125.453,94.487 C125.831,94.568 126.21,94.65 126.589,94.734 C127.126,92.303 127.663,89.874 128.201,87.443 C127.798,87.354 127.396,87.267 126.994,87.18 C127.233,86.063 127.472,84.946 127.711,83.828 C132.662,84.888 137.581,86.147 142.456,87.604 C142.019,89.068 141.581,90.532 141.144,91.996 C139.837,91.605 138.528,91.228 137.214,90.867 C137.317,90.496 137.418,90.126 137.521,89.755 C136.377,89.439 135.231,89.135 134.082,88.843 C133.901,89.554 133.719,90.266 133.537,90.978 C134.525,91.23 135.511,91.49 136.495,91.759 C136.24,92.696 135.984,93.634 135.729,94.571 C134.76,94.307 133.789,94.052 132.818,93.803 C132.624,94.561 132.431,95.32 132.238,96.078 C133.34,96.359 134.441,96.651 135.539,96.954 C135.641,96.583 135.744,96.212 135.845,95.842 C137.121,96.193 138.396,96.558 139.666,96.938 C139.229,98.402 138.791,99.866 138.353,101.33 Z M144.953,103.445 C143.567,102.971 142.175,102.514 140.779,102.074 C141.385,100.148 141.991,98.222 142.597,96.297 C144.04,96.751 145.48,97.223 146.914,97.715 C146.897,99.45 147.577,100.554 148.971,101.057 C149.978,101.422 150.622,101.227 150.907,100.464 C151.055,100.065 151.001,99.669 150.744,99.274 C150.467,98.845 149.807,98.148 148.744,97.199 C147.411,95.991 146.438,95.033 145.851,94.304 C145.294,93.635 144.89,92.835 144.636,91.899 C144.378,90.972 144.392,90.041 144.685,89.108 C145.209,87.432 146.229,86.312 147.769,85.773 C149.296,85.232 150.974,85.27 152.768,85.902 C154.563,86.533 155.916,87.539 156.808,88.885 C156.947,88.521 157.084,88.157 157.223,87.793 C158.754,88.375 160.281,88.976 161.801,89.598 C161.122,91.258 160.444,92.917 159.765,94.576 C158.305,93.979 156.84,93.401 155.37,92.842 C155.36,91.249 154.651,90.186 153.257,89.681 C152.276,89.327 151.654,89.527 151.392,90.269 C151.266,90.628 151.309,90.946 151.521,91.223 C151.721,91.507 152.437,92.224 153.643,93.396 C155.25,94.98 156.273,96.111 156.755,96.76 C157.002,97.083 157.224,97.486 157.419,97.969 C157.616,98.454 157.746,98.925 157.815,99.384 C157.981,100.41 157.862,101.399 157.466,102.353 C156.859,103.818 155.766,104.811 154.213,105.368 C152.652,105.94 151.021,105.896 149.281,105.249 C147.663,104.647 146.365,103.665 145.354,102.275 C145.22,102.665 145.087,103.055 144.953,103.445 Z" id="Stroke-78" stroke="#FFFFFE"></path>
        </g>
    </g>
</svg>