<?xml version="1.0" encoding="UTF-8" standalone="no"?>
<svg width="193px" height="167px" viewBox="0 0 193 167" version="1.1" xmlns="http://www.w3.org/2000/svg" xmlns:xlink="http://www.w3.org/1999/xlink">
    <!-- Generator: Sketch 49.1 (51147) - http://www.bohemiancoding.com/sketch -->
    <title>Legomskis_Lumberjacks_Alternate</title>
    <desc>Created with Sketch.</desc>
    <defs>
        <polygon id="path-1" points="0.87 0.826113336 183.906628 0.826113336 183.906628 166.94 0.87 166.94"></polygon>
    </defs>
    <g id="Page-1" stroke="none" stroke-width="1" fill="none" fill-rule="evenodd">
        <g id="Legomskis_Lumberjacks_Alternate" transform="translate(1.000000, 0.000000)">
            <g id="Group-3">
                <mask id="mask-2" fill="white">
                    <use xlink:href="#path-1"></use>
                </mask>
                <g id="Clip-2"></g>
                <path d="M148.562,64.23 L146.196,60.499 C146.196,60.499 147.3,53.373 145.802,50.85 C144.303,48.326 139.495,46.75 137.916,46.276 C136.338,45.803 134.92,45.487 134.605,43.595 C134.29,41.703 132.949,38.47 131.687,37.603 C131.687,37.603 133.343,37.129 134.526,37.682 C134.526,37.682 133.636,33.58 129.035,29.086 C129.035,29.086 130.11,20.176 129.874,17.258 C129.874,17.258 129.061,16.706 127.969,16.391 C126.877,16.075 126.483,16.075 125.063,14.498 C123.645,12.921 123.057,13.236 120.867,8.19 C118.676,3.144 115.554,2.828 113.764,2.434 C111.974,2.04 109.222,3.301 105.788,1.803 C102.354,0.305 99.892,0.541 97.337,2.434 C94.784,4.326 93.801,6.771 93.801,6.771 C93.801,6.771 87.966,6.376 86.802,7.954 C85.637,9.531 85.163,11.266 84.297,12.094 C83.429,12.921 80.985,15.444 81.301,16.785 C81.616,18.126 81.616,18.126 81.616,18.126 C81.616,18.126 81.852,18.78 80.591,18.571 C79.329,18.362 77.594,18.756 76.727,19.072 C75.859,19.387 71.286,19.466 71.286,19.466 C71.286,19.466 72.355,22.778 74.422,23.33 C74.422,23.33 74.598,23.811 72.784,23.649 C70.97,23.488 64.899,22.845 64.899,22.845 C64.899,22.845 66.949,26.484 65.687,26.327 C64.425,26.169 54.253,25.932 49.68,27.982 C45.106,30.032 43.911,34.211 42.82,38.981 C42.82,38.981 35.092,37.367 33.91,45.251 C33.91,45.251 25.946,46.986 25.946,55.581 C25.946,55.581 13.724,55.738 20.11,67.961 C20.11,67.961 19.795,80.814 32.411,84.757 C32.411,84.757 31.119,88.778 32.042,93.904 L30.344,110.232 L4.261,120.95 L0.87,121.818 L7.099,128.126 L7.73,158.72 L4.812,166.606 L47.314,156.435 L49.901,167 L53.544,154.936 L105.508,143.94 L103.538,147.706 C103.538,147.706 111.975,145.789 114.339,144.92 C116.706,144.054 119.15,141.688 119.15,141.688 L144.541,137.43 L172.375,134.04 C172.375,134.04 180.261,133.172 182.233,131.201 C184.204,129.229 183.888,122.716 183.888,120.532 C183.888,118.348 182.785,115.115 181.445,113.617 L183.888,113.379 L183.888,101.789 C183.888,101.789 184.52,98.32 178.369,96.426 C172.218,94.534 153.214,91.38 153.214,91.38 C153.214,91.38 153.452,88.462 152.899,87.833 C152.347,87.201 152.269,85.205 152.425,84.034 C152.583,82.864 152.032,79.001 151.243,77.975 C150.455,76.95 149.981,76.024 149.981,76.024" id="Fill-1" fill="#1A1919" mask="url(#mask-2)"></path>
            </g>
            <path d="M122.947,16.705 C122.947,16.705 119.826,13.674 118.74,10.915 C117.654,8.155 116.478,6.526 112.542,6.028 C108.607,5.531 108.698,6.798 109.15,7.114 C109.602,7.431 112.542,9.421 112.272,9.513 C111.999,9.603 108.561,9.331 106.435,8.11 C104.309,6.889 100.374,4.85 99.016,5.915 C97.659,6.979 94.311,10.055 93.542,11.774 C92.773,13.493 92.456,14.217 95.125,15.257 C97.794,16.298 105.394,18.379 111.367,18.56 C117.337,18.741 122.947,16.705 122.947,16.705" id="Fill-4" fill="#912D3F"></path>
            <path d="M127.969,26.793 L127.969,21.365 C127.969,21.365 126.249,20.913 125.932,22.722 C125.616,24.531 125.843,25.346 126.385,25.707 C126.928,26.069 127.969,26.793 127.969,26.793" id="Fill-5" fill="#912D3F"></path>
            <polygon id="Fill-6" fill="#912D3F" points="120.279 25.436 122.947 25.436 122.947 21.862 120.279 21.862"></polygon>
            <path d="M118.242,22.224 C118.242,22.224 114.624,22.622 106.887,21.314 C106.887,21.314 99.469,19.419 96.664,18.289 L93.317,26.069 L94.493,26.567 C94.493,26.567 94.945,23.763 96.392,22.179 C97.84,20.596 99.83,20.043 102.409,21.314 C104.988,22.586 106.978,24.984 106.978,24.984 C106.978,24.984 108.2,23.853 109.058,25.029 C109.918,26.205 111.004,30.095 111.413,31.182 C111.819,32.268 112.18,33.579 112.678,32.403 C113.176,31.226 114.759,26.386 114.759,26.386 L116.342,28.105 C116.342,28.105 117.337,26.838 117.7,26.16 C118.062,25.481 118.333,22.722 118.242,22.224" id="Fill-7" fill="#912D3F"></path>
            <polyline id="Fill-8" fill="#912D3F" points="94.672 17.655 92.095 16.117 87.843 24.054 91.258 25.436 94.672 17.655"></polyline>
            <polyline id="Fill-9" fill="#912D3F" points="89.743 14.94 88.068 14.126 83.861 20.777 85.31 22.134 89.743 15.122"></polyline>
            <path d="M110.1,33.986 C110.1,33.986 109.196,28.06 108.336,26.793 C108.336,26.793 107.024,28.06 106.842,28.648 C106.662,29.236 106.662,28.241 106.436,27.427 C106.209,26.612 105.577,25.074 105.349,25.934 C105.124,26.793 105.349,27.382 105.349,27.382 C105.349,27.382 104.356,25.522 103.178,24.054 C102.001,22.586 98.246,22.586 97.614,23.355 C97.614,23.355 97.524,23.757 98.157,24.054 C98.79,24.35 99.197,24.848 98.383,25.165 C97.569,25.481 95.986,26.115 95.578,26.522 C95.17,26.929 94.627,27.834 96.257,27.291 C97.886,26.749 99.921,26.793 100.917,27.653 C101.912,28.512 103.766,30.277 105.214,30.548 C106.662,30.819 107.566,31.407 108.291,31.995 C109.014,32.584 110.1,33.986 110.1,33.986" id="Fill-10" fill="#614629"></path>
            <path d="M113.764,33.354 L114.895,29.055 L116.749,30.051 C116.749,30.051 119.012,27.11 120.867,26.793 L120.867,28.603 C120.867,28.603 122.451,27.02 123.173,26.793 C123.897,26.567 126.928,26.522 127.969,31.045 C127.969,31.045 119.916,28.739 113.764,33.354" id="Fill-11" fill="#614629"></path>
            <path d="M127.245,34.981 L130.729,35.434 C130.729,35.434 130.231,33.851 127.969,33.354 C125.707,32.855 124.35,32.494 124.35,32.494 L123.807,35.841 C123.807,35.841 122.314,35.66 122.088,35.524 C121.862,35.389 120.279,35.434 120.007,35.841 C119.736,36.249 118.866,36.293 118.26,35.841 C117.654,35.389 116.931,34.891 116.931,34.891 C116.931,34.891 118.423,39.144 119.509,39.324 C120.595,39.505 123.897,38.058 126.024,41.677 L123.536,41.677 C123.536,41.677 124.26,42.671 124.802,43.079 C125.345,43.486 125.119,46.064 125.074,46.381 C125.028,46.698 124.034,45.16 124.034,45.16 C124.034,45.16 123.49,47.286 122.676,47.105 C121.862,46.924 120.867,46.562 120.867,46.562 C120.867,46.562 122.268,48.372 121.591,48.779 C120.912,49.186 118.966,50 118.832,50.996 C118.695,51.991 118.832,52.715 118.469,52.579 C118.107,52.443 116.207,51.991 115.166,51.584 C114.126,51.177 112.18,51.267 110.1,52.217 C108.019,53.167 105.788,54.389 105.788,54.389 C105.788,54.389 107.34,51.855 109.376,50.588 C109.376,50.588 106.617,50 104.445,50.272 C102.273,50.544 99.605,51.132 99.605,51.132 C99.605,51.132 100.916,48.734 106.526,48.101 C106.526,48.101 110.191,47.919 112.407,48.598 C114.624,49.276 116.116,49.729 117.519,47.875 C118.921,46.02 120.052,44.708 120.279,44.436 C120.504,44.165 121.229,41.722 117.925,41.902 C114.624,42.084 109.574,42.536 105.788,43.215 C102.001,43.893 98.157,45.431 93.542,45.93 C88.928,46.427 84.495,46.245 84.178,45.974 C83.861,45.703 87.48,44.391 86.847,43.215 C86.214,42.039 86.123,38.419 87.979,36.474 C87.979,36.474 88.249,35.931 87.164,36.112 C86.078,36.293 84.449,36.203 85.626,35.343 C86.802,34.483 88.476,33.986 88.476,33.986 C88.476,33.986 87.843,33.147 87.345,32.866 C86.847,32.584 88.204,32.197 89.969,32.866 C91.733,33.534 92.955,34.303 97.071,36.926 C101.188,39.55 103.314,40.998 104.761,41.088 C106.209,41.179 108.969,41.043 108.833,40.229 C108.698,39.414 106.752,35.524 106.119,34.936 C105.486,34.348 104.582,34.258 104.083,34.8 C103.584,35.343 102.455,36.338 101.912,35.252 C101.369,34.167 100.102,32.448 98.926,32.222 C97.749,31.995 97.433,31.271 98.021,30.91 C98.609,30.548 97.976,30.152 96.709,30.033 C95.443,29.915 93.86,29.507 93.769,28.739 C93.678,27.969 92.864,26.838 88.068,26.793 C83.273,26.749 79.156,27.867 80.061,28.416 C80.966,28.965 83.77,30.322 83.5,30.729 C83.228,31.137 81.6,30.368 79.519,31.679 C77.437,32.991 74.813,34.167 74,33.986 C73.185,33.805 72.823,34.574 74.632,35.75 C76.442,36.927 77.664,37.289 78.568,37.289 C79.474,37.289 81.418,37.153 81.192,37.65 C80.966,38.148 78.614,40.094 75.945,40.274 C73.275,40.456 70.832,40.59 70.832,40.59 C70.832,40.59 73.275,43.124 76.623,45.115 C79.971,47.105 82.504,48.056 81.78,48.598 C81.057,49.141 75.809,49.91 73.004,49.459 C73.004,49.459 73.021,50.619 77.982,52.989 C82.943,55.359 86.587,54.964 86.587,54.964 C86.587,54.964 84.48,57.511 78.465,58.257 C78.465,58.257 81.582,61.155 85.752,61.637 C89.924,62.121 94.446,60.453 94.446,60.453 C94.446,60.453 94.226,62.471 91.899,64.272 C89.572,66.071 88.387,66.643 88.387,66.643 C88.387,66.643 92.381,70.198 96.552,70.111 C100.724,70.023 101.25,69.671 102.348,67.959 C103.445,66.247 104.85,65.897 105.948,65.72 C107.045,65.545 109.065,65.149 109.592,64.447 C110.119,63.745 112.27,63.481 112.84,62.34 C113.411,61.199 112.401,58.959 116.66,58.345 C120.917,57.73 123.683,57.951 124.341,57.643 C125,57.335 125.353,52.901 125.353,52.068 C125.353,51.233 125.44,50.443 126.625,51.321 C127.81,52.199 130.093,53.296 130.225,53.165 C130.357,53.033 130.18,49.622 130.444,48.452 C130.708,47.281 131.542,44.296 130.313,42.628 C129.083,40.96 127.24,39.204 127.503,39.16 C127.766,39.116 130.357,39.204 130.357,39.204 L127.245,34.981" id="Fill-12" fill="#614629"></path>
            <path d="M103.014,42.23 C103.014,42.23 100.429,43.357 99.17,43.357 L99.17,41.965 L103.014,42.23" id="Fill-13" fill="#FFFFFE"></path>
            <path d="M97.247,41.302 L94.672,41.302 L94.672,44.484 C94.672,44.484 97.911,44.683 97.247,41.302" id="Fill-14" fill="#FFFFFE"></path>
            <path d="M93.801,41.302 L89.361,41.302 C89.361,41.302 89.046,43.224 91.258,44.02 C93.47,44.815 93.801,44.284 93.801,44.284 L93.801,41.302" id="Fill-15" fill="#FFFFFE"></path>
            <path d="M92.012,35.603 L92.012,39.97 L88.632,39.97 C88.632,39.97 88.5,34.808 92.012,35.603" id="Fill-16" fill="#FFFFFE"></path>
            <polyline id="Fill-17" fill="#FFFFFE" points="94.672 37.123 94.672 40.375 100.097 40.839 94.672 37.123"></polyline>
            <path d="M99.767,28.975 L106.393,32.355 C106.393,32.355 104.604,34.41 101.754,32.355 C98.905,30.3 99.767,28.975 99.767,28.975" id="Fill-18" fill="#FFFFFE"></path>
            <path d="M36.164,59.01 C36.164,59.01 33.198,56.913 32.042,56.913 L29.365,59.372 C29.365,59.372 26.257,59.01 23.726,59.806 C21.193,60.601 21.483,63.421 24.304,65.447 C27.123,67.472 31.97,68.268 36.164,68.774 C40.358,69.279 44.337,70.798 45.928,72.39 C45.928,72.39 31.463,68.918 30.306,74.343 C29.148,79.767 39.78,83.238 52.291,82.66 C52.291,82.66 57.354,82.611 59.668,83.864 C61.982,85.119 63.212,86.565 63.791,88.229 C64.37,89.891 64.731,93.435 66.612,94.521 C68.492,95.605 70.425,95.027 70.832,94.521 C71.24,94.014 71.819,94.014 72.252,94.376 C72.687,94.737 74.495,95.316 76.158,94.521 C77.821,93.724 78.038,93.363 78.183,92.64 C78.328,91.917 78.907,91.772 79.485,92.133 C80.063,92.496 81.509,92.351 82.812,91.989 C84.113,91.627 84.476,89.531 84.476,89.531 C84.476,89.531 85.343,90.687 86.789,89.963 C88.236,89.241 89.393,88.229 88.743,86.348 C88.091,84.468 86.934,84.829 86.211,84.685 C85.488,84.54 82.377,82.804 81.51,80.634 C81.51,80.634 83.969,82.081 83.824,81.502 C83.679,80.924 81.582,79.549 81.365,77.453 C81.148,75.355 81.221,73.113 81.221,73.113 C81.221,73.113 82.377,76.873 82.884,76.873 C83.39,76.873 83.752,73.764 83.752,73.764 C83.752,73.764 84.765,74.849 85.994,75.138 C87.223,75.427 87.152,74.126 86.5,73.185 C85.849,72.245 83.607,70.149 81.51,70.112 C79.413,70.076 77.533,70.871 77.244,71.594 C76.953,72.318 74.712,73.113 72.47,73.691 C70.228,74.27 67.407,75.934 65.671,78.465 C65.671,78.465 65.021,77.018 66.249,74.27 C66.249,74.27 64.297,74.56 63.429,76.44 C63.429,76.44 62.779,74.054 63.501,73.62 C64.225,73.185 63.224,72.318 62.207,71.667 C61.187,71.015 54.39,66.821 50.845,64.001 C47.302,61.181 45.494,59.733 41.877,59.806 C38.262,59.878 33.85,60.356 33.85,60.356 L36.164,59.01" id="Fill-19" fill="#D2C0A7"></path>
            <path d="M45.273,93.963 C45.273,93.963 42.194,92.046 41.671,90.129 L35.862,92.337 C35.862,92.337 37.141,95.532 39.289,95.707 L45.273,93.963" id="Fill-20" fill="#614629"></path>
            <polyline id="Fill-21" fill="#614629" points="87.04 81.524 102.952 78.242 102.952 75.46 85.483 79.244 87.04 81.524"></polyline>
            <path d="M107.654,34.277 C107.654,34.277 109.045,39.248 112.292,39.778 C115.54,40.308 116.667,39.778 116.204,37.723 C115.739,35.669 114.639,34.741 113.764,34.874 C112.889,35.006 110.57,35.471 107.654,34.277" id="Fill-22" fill="#C8BA87"></path>
            <path d="M70.832,31.122 C70.832,31.122 64.515,29.864 56.632,30.442 L59.596,33.986 L70.832,31.122" id="Fill-23" fill="#C8BA87"></path>
            <path d="M57.643,34.277 L54.968,30.586 C54.968,30.586 49.905,31.6 50.123,36.373 L57.643,34.277" id="Fill-24" fill="#C8BA87"></path>
            <path d="M59.307,36.734 L65.31,44.485 L56.342,47.8 C56.342,47.8 51.496,41.58 50.845,39.411 L59.307,36.734" id="Fill-25" fill="#C8BA87"></path>
            <path d="M61.187,36.373 C61.187,36.373 64.37,34.782 68.348,33.986 L72.396,37.745 C72.396,37.745 70.449,38.27 66.249,37.123 C66.249,37.123 66.395,40.434 69.505,43.357 L67.841,43.966 L61.187,36.373" id="Fill-26" fill="#C8BA87"></path>
            <path d="M70.518,44.458 L74.422,47.293 C74.422,47.293 70.445,48.523 69.07,45.341 L70.518,44.458" id="Fill-27" fill="#C8BA87"></path>
            <path d="M66.792,46.353 L60.537,49.68 C60.537,49.68 65.455,53.006 70.011,54.453 C70.011,54.453 64.515,57.491 56.632,53.079 C56.632,53.079 55.04,52.5 56.342,54.091 C57.643,55.683 65.165,60.89 70.011,60.312 C74.856,59.733 74.495,56.767 74.422,55.972 C74.351,55.177 71.168,53.44 69.505,50.62 C67.841,47.8 66.792,46.353 66.792,46.353" id="Fill-28" fill="#C8BA87"></path>
            <path d="M54.968,56.839 C54.968,56.839 49.182,51.633 47.88,49.68 C46.578,47.728 43.902,43.966 43.902,43.966 C43.902,43.966 38.334,42.409 37.176,47.527 C37.176,47.527 45.349,49.969 47.446,55.321 C47.446,55.321 43.974,52.935 39.708,51.416 C35.441,49.897 32.838,49.824 32.042,52.283 C32.042,52.283 40.141,54.959 41.732,57.346 C41.732,57.346 48.965,57.057 51.135,59.009 C53.304,60.962 54.968,62.408 56.632,63.565 C58.294,64.722 59.958,66.386 59.958,66.386 C59.958,66.386 62.345,65.663 62.2,63.205 C62.056,60.745 60.174,60.239 58.946,59.516 C57.716,58.793 54.968,56.839 54.968,56.839" id="Fill-29" fill="#C8BA87"></path>
            <path d="M44.576,87.806 L56.542,88.097 L46.029,91.118 C46.029,91.118 43.879,90.479 44.576,87.806" id="Fill-30" fill="#C8BA87"></path>
            <path d="M41.671,87.4 L36.907,86.528 C36.907,86.528 34.759,89.491 35.862,92.337 L41.671,90.363 L41.671,87.4" id="Fill-31" fill="#C8BA87"></path>
            <polyline id="Fill-32" fill="#C8BA87" points="85.483 77.407 102.952 73.123 102.952 75.46 85.483 79.244 85.483 77.407"></polyline>
            <path d="M134.446,50.319 C134.446,50.319 137.906,51.623 138.608,51.874 C139.31,52.124 139.662,52.927 139.26,53.98 C138.859,55.033 137.806,57.089 136.401,56.989 C134.998,56.889 132.489,56.036 132.489,56.036 C132.489,56.036 133.643,54.982 133.945,53.378 C134.246,51.773 134.446,50.319 134.446,50.319" id="Fill-33" fill="#C8BA87"></path>
            <path d="M142.319,53.655 C142.319,53.655 143.774,57.791 143.573,58.343 C143.373,58.895 140.163,57.741 140.163,57.741 C140.163,57.741 142.168,55.087 142.319,53.655" id="Fill-34" fill="#C8BA87"></path>
            <polyline id="Fill-35" fill="#C8BA87" points="139.913 60.499 143.592 61.001 145.329 63.157 141.458 64.23 139.913 60.499"></polyline>
            <polyline id="Fill-36" fill="#C8BA87" points="138.624 64.23 136.552 59.497 128.83 58.042 132.04 60.951 132.189 62.405 133.727 65.388 138.624 64.23"></polyline>
            <path d="M130.681,65.364 C130.681,65.364 130.283,63.559 129.18,62.154 C128.077,60.75 126.421,60.148 125.57,60.148 C124.716,60.148 118.699,60.75 117.846,60.7 C116.994,60.649 115.639,60.8 115.639,60.8 C115.639,60.8 114.736,61.402 114.988,64.411 C114.988,64.411 115.489,64.311 115.74,63.709 C115.991,63.107 117.595,62.104 118.798,62.154 C120.002,62.204 120.956,62.254 121.256,62.756 C121.557,63.257 122.559,63.158 123.563,62.756 C124.566,62.355 126.121,62.756 126.623,63.283 C127.124,63.809 129.576,65.614 130.681,65.364" id="Fill-37" fill="#D2C0A7"></path>
            <path d="M128.348,75.46 C128.348,75.46 126.245,71.642 126.545,69.298 C126.846,66.954 127.327,65.213 125.524,64.881 C123.72,64.549 121.677,64.61 121.737,67.495 C121.796,70.38 122.097,72.965 122.398,74.287 C122.699,75.609 122.819,76.511 122.097,76.571 C121.375,76.63 120.956,76.033 121.316,75.46 C121.677,74.888 120.956,72.304 120.775,71.342 C120.595,70.38 120.414,66.982 120.474,66.066 C120.535,65.15 120.535,64.068 118.55,64.25 C116.567,64.429 114.582,65.872 114.944,68.336 C115.305,70.8 115.846,74.591 116.147,75.46 C116.447,76.331 116.387,76.159 115.786,76.575 C115.185,76.992 114.042,76.62 114.524,76.024 C115.004,75.429 113.983,70.801 113.983,69.118 C113.983,67.435 114.042,65.691 112.48,65.631 C110.917,65.571 109.594,65.992 109.474,68.517 C109.355,71.041 109.594,76.812 109.895,77.352 C110.196,77.893 110.375,78.495 109.895,78.735 C109.415,78.976 108.333,79.336 108.032,77.954 C107.731,76.571 107.731,71.407 107.731,70.112 C107.731,68.817 107.792,67.795 106.349,68.096 C104.907,68.396 104.846,69.178 104.787,72.484 C104.726,75.79 104.907,80.839 105.928,82.522 C106.95,84.206 109.114,84.186 109.955,83.864 C110.797,83.543 111.278,83.303 111.458,82.942 C111.638,82.582 111.879,82.342 112.48,82.823 C113.082,83.303 113.502,83.664 115.185,83.603 C116.868,83.543 117.229,82.762 117.469,82.402 C117.709,82.041 118.07,81.8 118.371,82.162 C118.671,82.522 120.114,82.823 121.135,82.402 C122.158,81.98 123.541,81.019 123.541,80.598 C123.541,80.177 123.059,81.62 125.583,80.779 C128.108,79.937 130.151,78.016 128.348,75.46" id="Fill-38" fill="#D2C0A7"></path>
            <path d="M133.477,73.123 L142.072,73.123 C142.072,73.123 144.758,76.63 145.66,77.292 C146.561,77.954 149.567,80.718 149.085,83.243 C148.605,85.768 146.02,85.708 143.916,85.287 C141.813,84.866 137.485,84.034 137.485,84.034 C137.485,84.034 139.761,86.369 142.621,87.271 C145.48,88.172 148.666,88.172 148.424,91.237 C148.184,94.303 146.5,95.626 143.916,95.685 C141.332,95.745 136.364,94.543 134.129,91.597 C134.129,91.597 135.381,96.466 134.599,96.708 C133.818,96.948 128.348,96.346 125.643,94.063 C122.939,91.779 122.025,86.718 122.812,86.604 C123.6,86.489 127.857,85.586 129.035,84.746 C130.212,83.904 131.894,81.921 132.616,81.26 C133.337,80.598 134.059,79.697 136.342,79.637 C138.627,79.576 139.913,79.817 139.913,79.817 L133.477,73.123" id="Fill-39" fill="#D2C0A7"></path>
            <path d="M119.329,32.541 C119.329,32.541 121.13,32.161 122.078,32.018 C123.026,31.876 123.454,32.255 122.742,33.109 C122.03,33.962 120.799,34.484 119.139,34.2 C117.479,33.915 117.148,33.868 117.148,33.868 C117.148,33.868 116.816,33.346 119.329,32.541" id="Fill-40" fill="#FFFFFE"></path>
            <path d="M5.71,106.888 C6.26,106.749 6.811,106.61 7.362,106.471 C8.259,109.941 9.149,113.411 10.033,116.882 C11.35,116.551 12.669,116.223 13.988,115.897 C14.124,116.439 14.26,116.981 14.396,117.523 C12.532,117.984 10.67,118.45 8.81,118.919 C7.785,114.908 6.752,110.897 5.71,106.888" id="Fill-41" fill="#C8BA87"></path>
            <path d="M5.71,106.888 C6.26,106.749 6.811,106.61 7.362,106.471 C8.259,109.941 9.149,113.411 10.033,116.882 C11.35,116.551 12.669,116.223 13.988,115.897 C14.124,116.439 14.26,116.981 14.396,117.523 C12.532,117.984 10.67,118.45 8.81,118.919 C7.785,114.908 6.752,110.897 5.71,106.888 Z" id="Stroke-42" stroke="#1A1919" stroke-width="10.992"></path>
            <path d="M13.179,106.829 C15.122,106.35 17.068,105.876 19.016,105.409 C19.133,105.879 19.249,106.351 19.366,106.823 C17.895,107.177 16.425,107.535 14.956,107.894 C15.172,108.755 15.389,109.618 15.604,110.479 C17.07,110.121 18.537,109.764 20.006,109.411 C20.12,109.876 20.236,110.343 20.351,110.809 C18.884,111.163 17.418,111.518 15.954,111.876 C16.251,113.063 16.547,114.251 16.842,115.437 C18.301,115.08 19.762,114.725 21.224,114.374 C21.338,114.84 21.453,115.307 21.567,115.774 C19.636,116.238 17.707,116.708 15.78,117.181 C14.92,113.729 14.053,110.279 13.179,106.829" id="Fill-44" fill="#C8BA87"></path>
            <path d="M13.179,106.829 C15.122,106.35 17.068,105.876 19.016,105.409 C19.133,105.879 19.249,106.351 19.366,106.823 C17.895,107.177 16.425,107.535 14.956,107.894 C15.172,108.755 15.389,109.618 15.604,110.479 C17.07,110.121 18.537,109.764 20.006,109.411 C20.12,109.876 20.236,110.343 20.351,110.809 C18.884,111.163 17.418,111.518 15.954,111.876 C16.251,113.063 16.547,114.251 16.842,115.437 C18.301,115.08 19.762,114.725 21.224,114.374 C21.338,114.84 21.453,115.307 21.567,115.774 C19.636,116.238 17.707,116.708 15.78,117.181 C14.92,113.729 14.053,110.279 13.179,106.829 Z" id="Stroke-45" stroke="#1A1919" stroke-width="10.992"></path>
            <path d="M31.321,104.269 C31.046,104.697 30.772,105.124 30.497,105.551 C29.173,104.762 27.8,104.533 26.385,104.864 C25.147,105.155 24.211,105.788 23.58,106.763 C22.949,107.74 22.777,108.812 23.062,109.983 C23.313,111.008 23.934,111.837 24.927,112.47 C25.919,113.105 27.109,113.256 28.503,112.93 C30.596,112.441 31.702,111.239 31.817,109.315 C30.869,109.534 29.921,109.752 28.974,109.973 C28.862,109.501 28.749,109.027 28.636,108.554 C30.133,108.206 31.63,107.861 33.129,107.518 C33.295,108.23 33.381,108.808 33.385,109.253 C33.387,109.699 33.296,110.211 33.114,110.793 C32.931,111.373 32.635,111.922 32.227,112.443 C31.82,112.963 31.348,113.376 30.816,113.683 C30.284,113.989 29.619,114.236 28.825,114.421 C27.015,114.845 25.438,114.623 24.089,113.754 C22.738,112.884 21.884,111.729 21.53,110.281 C21.156,108.757 21.39,107.329 22.237,105.992 C23.083,104.658 24.298,103.802 25.881,103.433 C26.822,103.211 27.715,103.151 28.56,103.252 C29.406,103.35 30.327,103.69 31.321,104.269" id="Fill-47" fill="#C8BA87"></path>
            <path d="M31.321,104.269 C31.046,104.697 30.772,105.124 30.497,105.551 C29.173,104.762 27.8,104.533 26.385,104.864 C25.147,105.155 24.211,105.788 23.58,106.763 C22.949,107.74 22.777,108.812 23.062,109.983 C23.313,111.008 23.934,111.837 24.927,112.47 C25.919,113.105 27.109,113.256 28.503,112.93 C30.596,112.441 31.702,111.239 31.817,109.315 C30.869,109.534 29.921,109.752 28.974,109.973 C28.862,109.501 28.749,109.027 28.636,108.554 C30.133,108.206 31.63,107.861 33.129,107.518 C33.295,108.23 33.381,108.808 33.385,109.253 C33.387,109.699 33.296,110.211 33.114,110.793 C32.931,111.373 32.635,111.922 32.227,112.443 C31.82,112.963 31.348,113.376 30.816,113.683 C30.284,113.989 29.619,114.236 28.825,114.421 C27.015,114.845 25.438,114.623 24.089,113.754 C22.738,112.884 21.884,111.729 21.53,110.281 C21.156,108.757 21.39,107.329 22.237,105.992 C23.083,104.658 24.298,103.802 25.881,103.433 C26.822,103.211 27.715,103.151 28.56,103.252 C29.406,103.35 30.327,103.69 31.321,104.269 Z" id="Stroke-48" stroke="#1A1919" stroke-width="10.992"></path>
            <path d="M44.728,104.992 C44.47,103.844 43.83,102.968 42.806,102.365 C41.784,101.764 40.654,101.599 39.421,101.874 C38.249,102.133 37.338,102.758 36.69,103.745 C36.041,104.731 35.849,105.785 36.109,106.905 C36.374,108.042 37.024,108.906 38.057,109.499 C39.09,110.093 40.222,110.253 41.458,109.98 C42.595,109.727 43.486,109.11 44.132,108.127 C44.777,107.142 44.977,106.097 44.728,104.992 Z M34.586,107.181 C34.235,105.681 34.508,104.266 35.41,102.934 C36.314,101.602 37.578,100.754 39.202,100.393 C40.786,100.042 42.277,100.283 43.668,101.114 C45.06,101.944 45.92,103.105 46.253,104.592 C46.605,106.167 46.337,107.62 45.456,108.951 C44.575,110.284 43.32,111.129 41.689,111.491 C40.08,111.848 38.588,111.608 37.206,110.769 C35.824,109.932 34.95,108.736 34.586,107.181 Z" id="Fill-50" fill="#C8BA87"></path>
            <path d="M44.728,104.992 C44.47,103.844 43.83,102.968 42.806,102.365 C41.784,101.764 40.654,101.599 39.421,101.874 C38.249,102.133 37.338,102.758 36.69,103.745 C36.041,104.731 35.849,105.785 36.109,106.905 C36.374,108.042 37.024,108.906 38.057,109.499 C39.09,110.093 40.222,110.253 41.458,109.98 C42.595,109.727 43.486,109.11 44.132,108.127 C44.777,107.142 44.977,106.097 44.728,104.992 Z M34.586,107.181 C34.235,105.681 34.508,104.266 35.41,102.934 C36.314,101.602 37.578,100.754 39.202,100.393 C40.786,100.042 42.277,100.283 43.668,101.114 C45.06,101.944 45.92,103.105 46.253,104.592 C46.605,106.167 46.337,107.62 45.456,108.951 C44.575,110.284 43.32,111.129 41.689,111.491 C40.08,111.848 38.588,111.608 37.206,110.769 C35.824,109.932 34.95,108.736 34.586,107.181 Z" id="Stroke-51" stroke="#1A1919" stroke-width="10.992"></path>
            <path d="M55.704,96.746 C57.465,100.168 59.21,103.593 60.941,107.023 C60.468,107.12 59.995,107.216 59.522,107.314 C58.468,105.218 57.408,103.124 56.343,101.031 C55.837,103.588 55.335,106.147 54.836,108.706 C53.318,106.549 51.791,104.396 50.257,102.247 C50.155,104.604 50.054,106.962 49.953,109.32 C49.484,109.42 49.015,109.521 48.546,109.623 C48.71,105.796 48.875,101.969 49.042,98.143 C50.731,100.496 52.411,102.852 54.079,105.212 C54.617,102.389 55.159,99.567 55.704,96.746" id="Fill-53" fill="#C8BA87"></path>
            <path d="M55.704,96.746 C57.465,100.168 59.21,103.593 60.941,107.023 C60.468,107.12 59.995,107.216 59.522,107.314 C58.468,105.218 57.408,103.124 56.343,101.031 C55.837,103.588 55.335,106.147 54.836,108.706 C53.318,106.549 51.791,104.396 50.257,102.247 C50.155,104.604 50.054,106.962 49.953,109.32 C49.484,109.42 49.015,109.521 48.546,109.623 C48.71,105.796 48.875,101.969 49.042,98.143 C50.731,100.496 52.411,102.852 54.079,105.212 C54.617,102.389 55.159,99.567 55.704,96.746 Z" id="Stroke-54" stroke="#1A1919" stroke-width="10.992"></path>
            <path d="M67.01,96.129 C66.679,96.517 66.348,96.905 66.018,97.293 C65.638,97.036 65.306,96.856 65.019,96.751 C64.732,96.645 64.348,96.641 63.867,96.737 C63.342,96.842 62.94,97.043 62.662,97.34 C62.384,97.637 62.284,97.969 62.361,98.334 C62.428,98.651 62.629,98.901 62.965,99.086 C63.301,99.272 63.842,99.441 64.588,99.591 C65.335,99.743 65.925,99.906 66.358,100.079 C66.793,100.251 67.162,100.465 67.47,100.718 C67.777,100.97 68.024,101.251 68.213,101.561 C68.402,101.871 68.534,102.212 68.61,102.584 C68.788,103.454 68.617,104.258 68.099,104.998 C67.581,105.737 66.867,106.197 65.955,106.378 C65.066,106.556 64.232,106.475 63.451,106.133 C62.67,105.792 61.997,105.181 61.428,104.298 C61.884,104.066 62.34,103.834 62.796,103.602 C63.572,104.671 64.502,105.097 65.593,104.879 C66.122,104.774 66.53,104.53 66.817,104.15 C67.103,103.769 67.199,103.341 67.101,102.867 C67.042,102.584 66.892,102.316 66.648,102.067 C66.405,101.817 66.126,101.626 65.816,101.496 C65.503,101.364 65.023,101.237 64.375,101.117 C63.729,100.998 63.222,100.87 62.859,100.734 C62.495,100.6 62.166,100.418 61.873,100.191 C61.578,99.961 61.349,99.722 61.181,99.472 C61.015,99.22 60.897,98.939 60.833,98.628 C60.673,97.879 60.845,97.178 61.349,96.527 C61.853,95.876 62.546,95.461 63.426,95.286 C64.009,95.168 64.627,95.175 65.279,95.302 C65.931,95.428 66.508,95.706 67.01,96.129" id="Fill-56" fill="#C8BA87"></path>
            <path d="M67.01,96.129 C66.679,96.517 66.348,96.905 66.018,97.293 C65.638,97.036 65.306,96.856 65.019,96.751 C64.732,96.645 64.348,96.641 63.867,96.737 C63.342,96.842 62.94,97.043 62.662,97.34 C62.384,97.637 62.284,97.969 62.361,98.334 C62.428,98.651 62.629,98.901 62.965,99.086 C63.301,99.272 63.842,99.441 64.588,99.591 C65.335,99.743 65.925,99.906 66.358,100.079 C66.793,100.251 67.162,100.465 67.47,100.718 C67.777,100.97 68.024,101.251 68.213,101.561 C68.402,101.871 68.534,102.212 68.61,102.584 C68.788,103.454 68.617,104.258 68.099,104.998 C67.581,105.737 66.867,106.197 65.955,106.378 C65.066,106.556 64.232,106.475 63.451,106.133 C62.67,105.792 61.997,105.181 61.428,104.298 C61.884,104.066 62.34,103.834 62.796,103.602 C63.572,104.671 64.502,105.097 65.593,104.879 C66.122,104.774 66.53,104.53 66.817,104.15 C67.103,103.769 67.199,103.341 67.101,102.867 C67.042,102.584 66.892,102.316 66.648,102.067 C66.405,101.817 66.126,101.626 65.816,101.496 C65.503,101.364 65.023,101.237 64.375,101.117 C63.729,100.998 63.222,100.87 62.859,100.734 C62.495,100.6 62.166,100.418 61.873,100.191 C61.578,99.961 61.349,99.722 61.181,99.472 C61.015,99.22 60.897,98.939 60.833,98.628 C60.673,97.879 60.845,97.178 61.349,96.527 C61.853,95.876 62.546,95.461 63.426,95.286 C64.009,95.168 64.627,95.175 65.279,95.302 C65.931,95.428 66.508,95.706 67.01,96.129 Z" id="Stroke-57" stroke="#1A1919" stroke-width="10.992"></path>
            <path d="M68.84,94.559 C69.328,94.463 69.817,94.369 70.307,94.274 C70.596,95.691 70.885,97.108 71.173,98.525 C72.398,96.815 73.629,95.107 74.865,93.4 C75.548,93.271 76.23,93.142 76.914,93.014 C75.503,94.959 74.099,96.908 72.701,98.859 C74.813,100.395 76.918,101.937 79.015,103.484 C78.395,103.6 77.777,103.717 77.159,103.834 C75.245,102.429 73.325,101.029 71.398,99.634 C71.743,101.335 72.086,103.038 72.428,104.74 C71.943,104.834 71.459,104.928 70.975,105.022 C70.27,101.534 69.558,98.046 68.84,94.559" id="Fill-58" fill="#C8BA87"></path>
            <path d="M68.84,94.559 C69.328,94.463 69.817,94.369 70.307,94.274 C70.596,95.691 70.885,97.108 71.173,98.525 C72.398,96.815 73.629,95.107 74.865,93.4 C75.548,93.271 76.23,93.142 76.914,93.014 C75.503,94.959 74.099,96.908 72.701,98.859 C74.813,100.395 76.918,101.937 79.015,103.484 C78.395,103.6 77.777,103.717 77.159,103.834 C75.245,102.429 73.325,101.029 71.398,99.634 C71.743,101.335 72.086,103.038 72.428,104.74 C71.943,104.834 71.459,104.928 70.975,105.022 C70.27,101.534 69.558,98.046 68.84,94.559 Z" id="Stroke-59" stroke="#1A1919" stroke-width="10.992"></path>
            <path d="M78.35,92.745 C78.834,92.654 79.319,92.564 79.804,92.475 C80.492,95.968 81.172,99.462 81.847,102.958 C81.367,103.046 80.886,103.135 80.405,103.224 C79.727,99.73 79.042,96.237 78.35,92.745" id="Fill-60" fill="#C8BA87"></path>
            <path d="M78.35,92.745 C78.834,92.654 79.319,92.564 79.804,92.475 C80.492,95.968 81.172,99.462 81.847,102.958 C81.367,103.046 80.886,103.135 80.405,103.224 C79.727,99.73 79.042,96.237 78.35,92.745 Z" id="Stroke-61" stroke="#1A1919" stroke-width="10.992"></path>
            <path d="M88.984,92.021 C88.645,92.402 88.306,92.784 87.967,93.165 C87.591,92.901 87.26,92.715 86.974,92.604 C86.688,92.494 86.303,92.483 85.819,92.57 C85.29,92.666 84.882,92.859 84.598,93.152 C84.314,93.442 84.207,93.773 84.278,94.139 C84.339,94.458 84.537,94.711 84.87,94.903 C85.204,95.094 85.744,95.273 86.49,95.437 C87.238,95.602 87.826,95.776 88.258,95.957 C88.69,96.138 89.059,96.359 89.362,96.617 C89.666,96.875 89.909,97.16 90.093,97.473 C90.276,97.787 90.403,98.13 90.472,98.503 C90.635,99.376 90.449,100.177 89.915,100.907 C89.382,101.636 88.657,102.084 87.739,102.249 C86.843,102.411 86.007,102.314 85.23,101.958 C84.453,101.601 83.787,100.979 83.233,100.085 C83.694,99.862 84.156,99.638 84.619,99.415 C85.377,100.498 86.304,100.94 87.402,100.743 C87.936,100.647 88.349,100.411 88.645,100.036 C88.938,99.662 89.042,99.235 88.953,98.758 C88.899,98.474 88.752,98.205 88.513,97.951 C88.273,97.696 87.997,97.501 87.687,97.364 C87.375,97.227 86.897,97.091 86.249,96.959 C85.602,96.828 85.096,96.69 84.733,96.547 C84.371,96.408 84.043,96.219 83.754,95.986 C83.463,95.751 83.237,95.508 83.073,95.255 C82.911,95.001 82.798,94.717 82.737,94.405 C82.592,93.653 82.777,92.957 83.295,92.314 C83.812,91.671 84.515,91.271 85.403,91.111 C85.99,91.004 86.61,91.023 87.262,91.162 C87.914,91.299 88.488,91.587 88.984,92.021" id="Fill-62" fill="#C8BA87"></path>
            <path d="M88.984,92.021 C88.645,92.402 88.306,92.784 87.967,93.165 C87.591,92.901 87.26,92.715 86.974,92.604 C86.688,92.494 86.303,92.483 85.819,92.57 C85.29,92.666 84.882,92.859 84.598,93.152 C84.314,93.442 84.207,93.773 84.278,94.139 C84.339,94.458 84.537,94.711 84.87,94.903 C85.204,95.094 85.744,95.273 86.49,95.437 C87.238,95.602 87.826,95.776 88.258,95.957 C88.69,96.138 89.059,96.359 89.362,96.617 C89.666,96.875 89.909,97.16 90.093,97.473 C90.276,97.787 90.403,98.13 90.472,98.503 C90.635,99.376 90.449,100.177 89.915,100.907 C89.382,101.636 88.657,102.084 87.739,102.249 C86.843,102.411 86.007,102.314 85.23,101.958 C84.453,101.601 83.787,100.979 83.233,100.085 C83.694,99.862 84.156,99.638 84.619,99.415 C85.377,100.498 86.304,100.94 87.402,100.743 C87.936,100.647 88.349,100.411 88.645,100.036 C88.938,99.662 89.042,99.235 88.953,98.758 C88.899,98.474 88.752,98.205 88.513,97.951 C88.273,97.696 87.997,97.501 87.687,97.364 C87.375,97.227 86.897,97.091 86.249,96.959 C85.602,96.828 85.096,96.69 84.733,96.547 C84.371,96.408 84.043,96.219 83.754,95.986 C83.463,95.751 83.237,95.508 83.073,95.255 C82.911,95.001 82.798,94.717 82.737,94.405 C82.592,93.653 82.777,92.957 83.295,92.314 C83.812,91.671 84.515,91.271 85.403,91.111 C85.99,91.004 86.61,91.023 87.262,91.162 C87.914,91.299 88.488,91.587 88.984,92.021 Z" id="Stroke-63" stroke="#1A1919" stroke-width="10.992"></path>
            <path d="M5.71,106.888 C6.26,106.749 6.811,106.61 7.362,106.471 C8.259,109.941 9.149,113.411 10.033,116.882 C11.35,116.551 12.669,116.223 13.988,115.897 C14.124,116.439 14.26,116.981 14.396,117.523 C12.532,117.984 10.67,118.45 8.81,118.919 C7.785,114.908 6.752,110.897 5.71,106.888" id="Fill-64" fill="#1A1919"></path>
            <path d="M13.179,106.829 C15.122,106.35 17.068,105.876 19.016,105.409 C19.133,105.879 19.249,106.351 19.366,106.823 C17.895,107.177 16.425,107.535 14.956,107.894 C15.172,108.755 15.389,109.618 15.604,110.479 C17.07,110.121 18.537,109.764 20.006,109.411 C20.12,109.876 20.236,110.343 20.351,110.809 C18.884,111.163 17.418,111.518 15.954,111.876 C16.251,113.063 16.547,114.251 16.842,115.437 C18.301,115.08 19.762,114.725 21.224,114.374 C21.338,114.84 21.453,115.307 21.567,115.774 C19.636,116.238 17.707,116.708 15.78,117.181 C14.92,113.729 14.053,110.279 13.179,106.829" id="Fill-65" fill="#1A1919"></path>
            <path d="M31.321,104.269 C31.046,104.697 30.772,105.124 30.497,105.551 C29.173,104.762 27.8,104.533 26.385,104.864 C25.147,105.155 24.211,105.788 23.58,106.763 C22.949,107.74 22.777,108.812 23.062,109.983 C23.313,111.008 23.934,111.837 24.927,112.47 C25.919,113.105 27.109,113.256 28.503,112.93 C30.596,112.441 31.702,111.239 31.817,109.315 C30.869,109.534 29.921,109.752 28.974,109.973 C28.862,109.501 28.749,109.027 28.636,108.554 C30.133,108.206 31.63,107.861 33.129,107.518 C33.295,108.23 33.381,108.808 33.385,109.253 C33.387,109.699 33.296,110.211 33.114,110.793 C32.931,111.373 32.635,111.922 32.227,112.443 C31.82,112.963 31.348,113.376 30.816,113.683 C30.284,113.989 29.619,114.236 28.825,114.421 C27.015,114.845 25.438,114.623 24.089,113.754 C22.738,112.884 21.884,111.729 21.53,110.281 C21.156,108.757 21.39,107.329 22.237,105.992 C23.083,104.658 24.298,103.802 25.881,103.433 C26.822,103.211 27.715,103.151 28.56,103.252 C29.406,103.35 30.327,103.69 31.321,104.269" id="Fill-66" fill="#1A1919"></path>
            <path d="M44.728,104.992 C44.47,103.844 43.83,102.968 42.806,102.365 C41.784,101.764 40.654,101.599 39.421,101.874 C38.249,102.133 37.338,102.758 36.69,103.745 C36.041,104.731 35.849,105.785 36.109,106.905 C36.374,108.042 37.024,108.906 38.057,109.499 C39.09,110.093 40.222,110.253 41.458,109.98 C42.595,109.727 43.486,109.11 44.132,108.127 C44.777,107.142 44.977,106.097 44.728,104.992 Z M34.586,107.181 C34.235,105.681 34.508,104.266 35.41,102.934 C36.314,101.602 37.578,100.754 39.202,100.393 C40.786,100.042 42.277,100.283 43.668,101.114 C45.06,101.944 45.92,103.105 46.253,104.592 C46.605,106.167 46.337,107.62 45.456,108.951 C44.575,110.284 43.32,111.129 41.689,111.491 C40.08,111.848 38.588,111.608 37.206,110.769 C35.824,109.932 34.95,108.736 34.586,107.181 Z" id="Fill-67" fill="#1A1919"></path>
            <path d="M55.704,96.746 C57.465,100.168 59.21,103.593 60.941,107.023 C60.468,107.12 59.995,107.216 59.522,107.314 C58.468,105.218 57.408,103.124 56.343,101.031 C55.837,103.588 55.335,106.147 54.836,108.706 C53.318,106.549 51.791,104.396 50.257,102.247 C50.155,104.604 50.054,106.962 49.953,109.32 C49.484,109.42 49.015,109.521 48.546,109.623 C48.71,105.796 48.875,101.969 49.042,98.143 C50.731,100.496 52.411,102.852 54.079,105.212 C54.617,102.389 55.159,99.567 55.704,96.746" id="Fill-68" fill="#1A1919"></path>
            <path d="M67.01,96.129 C66.679,96.517 66.348,96.905 66.018,97.293 C65.638,97.036 65.306,96.856 65.019,96.751 C64.732,96.645 64.348,96.641 63.867,96.737 C63.342,96.842 62.94,97.043 62.662,97.34 C62.384,97.637 62.284,97.969 62.361,98.334 C62.428,98.651 62.629,98.901 62.965,99.086 C63.301,99.272 63.842,99.441 64.588,99.591 C65.335,99.743 65.925,99.906 66.358,100.079 C66.793,100.251 67.162,100.465 67.47,100.718 C67.777,100.97 68.024,101.251 68.213,101.561 C68.402,101.871 68.534,102.212 68.61,102.584 C68.788,103.454 68.617,104.258 68.099,104.998 C67.581,105.737 66.867,106.197 65.955,106.378 C65.066,106.556 64.232,106.475 63.451,106.133 C62.67,105.792 61.997,105.181 61.428,104.298 C61.884,104.066 62.34,103.834 62.796,103.602 C63.572,104.671 64.502,105.097 65.593,104.879 C66.122,104.774 66.53,104.53 66.817,104.15 C67.103,103.769 67.199,103.341 67.101,102.867 C67.042,102.584 66.892,102.316 66.648,102.067 C66.405,101.817 66.126,101.626 65.816,101.496 C65.503,101.364 65.023,101.237 64.375,101.117 C63.729,100.998 63.222,100.87 62.859,100.734 C62.495,100.6 62.166,100.418 61.873,100.191 C61.578,99.961 61.349,99.722 61.181,99.472 C61.015,99.22 60.897,98.939 60.833,98.628 C60.673,97.879 60.845,97.178 61.349,96.527 C61.853,95.876 62.546,95.461 63.426,95.286 C64.009,95.168 64.627,95.175 65.279,95.302 C65.931,95.428 66.508,95.706 67.01,96.129" id="Fill-69" fill="#1A1919"></path>
            <path d="M68.84,94.559 C69.328,94.463 69.817,94.369 70.307,94.274 C70.596,95.691 70.885,97.108 71.173,98.525 C72.398,96.815 73.629,95.107 74.865,93.4 C75.548,93.271 76.23,93.142 76.914,93.014 C75.503,94.959 74.099,96.908 72.701,98.859 C74.813,100.395 76.918,101.937 79.015,103.484 C78.395,103.6 77.777,103.717 77.159,103.834 C75.245,102.429 73.325,101.029 71.398,99.634 C71.743,101.335 72.086,103.038 72.428,104.74 C71.943,104.834 71.459,104.928 70.975,105.022 C70.27,101.534 69.558,98.046 68.84,94.559" id="Fill-70" fill="#1A1919"></path>
            <path d="M78.35,92.745 C78.834,92.654 79.319,92.564 79.804,92.475 C80.492,95.968 81.172,99.462 81.847,102.958 C81.367,103.046 80.886,103.135 80.405,103.224 C79.727,99.73 79.042,96.237 78.35,92.745" id="Fill-71" fill="#1A1919"></path>
            <path d="M88.984,92.021 C88.645,92.402 88.306,92.784 87.967,93.165 C87.591,92.901 87.26,92.715 86.974,92.604 C86.688,92.494 86.303,92.483 85.819,92.57 C85.29,92.666 84.882,92.859 84.598,93.152 C84.314,93.442 84.207,93.773 84.278,94.139 C84.339,94.458 84.537,94.711 84.87,94.903 C85.204,95.094 85.744,95.273 86.49,95.437 C87.238,95.602 87.826,95.776 88.258,95.957 C88.69,96.138 89.059,96.359 89.362,96.617 C89.666,96.875 89.909,97.16 90.093,97.473 C90.276,97.787 90.403,98.13 90.472,98.503 C90.635,99.376 90.449,100.177 89.915,100.907 C89.382,101.636 88.657,102.084 87.739,102.249 C86.843,102.411 86.007,102.314 85.23,101.958 C84.453,101.601 83.787,100.979 83.233,100.085 C83.694,99.862 84.156,99.638 84.619,99.415 C85.377,100.498 86.304,100.94 87.402,100.743 C87.936,100.647 88.349,100.411 88.645,100.036 C88.938,99.662 89.042,99.235 88.953,98.758 C88.899,98.474 88.752,98.205 88.513,97.951 C88.273,97.696 87.997,97.501 87.687,97.364 C87.375,97.227 86.897,97.091 86.249,96.959 C85.602,96.828 85.096,96.69 84.733,96.547 C84.371,96.408 84.043,96.219 83.754,95.986 C83.463,95.751 83.237,95.508 83.073,95.255 C82.911,95.001 82.798,94.717 82.737,94.405 C82.592,93.653 82.777,92.957 83.295,92.314 C83.812,91.671 84.515,91.271 85.403,91.111 C85.99,91.004 86.61,91.023 87.262,91.162 C87.914,91.299 88.488,91.587 88.984,92.021" id="Fill-72" fill="#1A1919"></path>
            <path d="M5.588,106.175 C6.265,106.004 6.942,105.834 7.62,105.664 C8.722,109.928 9.814,114.195 10.895,118.462 C12.513,118.057 14.132,117.655 15.753,117.256 C15.919,117.923 16.085,118.589 16.25,119.256 C13.961,119.82 11.676,120.389 9.394,120.965 C8.139,116.034 6.87,111.104 5.588,106.175" id="Fill-73" fill="#1A1919"></path>
            <path d="M14.775,106.109 C17.165,105.524 19.56,104.947 21.956,104.376 C22.099,104.957 22.241,105.537 22.383,106.117 C20.573,106.547 18.764,106.983 16.957,107.421 C17.222,108.481 17.486,109.541 17.749,110.6 C19.551,110.163 21.355,109.729 23.161,109.299 C23.301,109.873 23.44,110.446 23.58,111.019 C21.776,111.448 19.974,111.881 18.175,112.318 C18.536,113.778 18.897,115.237 19.256,116.697 C21.05,116.262 22.845,115.831 24.642,115.403 C24.781,115.977 24.919,116.551 25.058,117.126 C22.685,117.69 20.315,118.26 17.95,118.839 C16.901,114.594 15.843,110.351 14.775,106.109" id="Fill-74" fill="#1A1919"></path>
            <path d="M37.1,103.033 C36.76,103.556 36.419,104.081 36.078,104.604 C34.454,103.626 32.767,103.335 31.024,103.736 C29.499,104.086 28.346,104.863 27.566,106.059 C26.786,107.255 26.57,108.574 26.917,110.014 C27.219,111.275 27.98,112.296 29.195,113.079 C30.411,113.862 31.873,114.056 33.588,113.663 C36.16,113.074 37.524,111.602 37.679,109.237 C36.512,109.5 35.346,109.763 34.181,110.03 C34.045,109.448 33.91,108.866 33.773,108.285 C35.615,107.864 37.458,107.448 39.303,107.037 C39.503,107.912 39.605,108.625 39.605,109.172 C39.606,109.719 39.492,110.35 39.263,111.061 C39.034,111.773 38.668,112.447 38.163,113.084 C37.659,113.719 37.079,114.226 36.423,114.599 C35.768,114.974 34.951,115.272 33.973,115.497 C31.749,116.007 29.816,115.729 28.161,114.654 C26.506,113.58 25.462,112.155 25.031,110.374 C24.578,108.501 24.87,106.743 25.916,105.106 C26.961,103.469 28.461,102.422 30.411,101.975 C31.569,101.708 32.669,101.638 33.708,101.765 C34.746,101.892 35.879,102.315 37.1,103.033" id="Fill-75" fill="#1A1919"></path>
            <path d="M53.587,104.022 C53.28,102.609 52.5,101.525 51.246,100.777 C49.992,100.029 48.602,99.818 47.083,100.144 C45.638,100.454 44.512,101.215 43.709,102.422 C42.903,103.631 42.66,104.925 42.972,106.303 C43.288,107.702 44.082,108.769 45.346,109.507 C46.611,110.247 48.003,110.451 49.523,110.125 C50.922,109.824 52.021,109.073 52.824,107.87 C53.626,106.665 53.883,105.383 53.587,104.022 Z M41.096,106.633 C40.675,104.787 41.02,103.047 42.14,101.418 C43.261,99.787 44.824,98.754 46.826,98.323 C48.78,97.904 50.613,98.211 52.318,99.246 C54.023,100.28 55.07,101.715 55.466,103.546 C55.885,105.485 55.54,107.266 54.446,108.897 C53.349,110.525 51.8,111.552 49.793,111.983 C47.813,112.408 45.982,112.102 44.291,111.06 C42.6,110.021 41.533,108.546 41.096,106.633 Z" id="Fill-76" fill="#1A1919"></path>
            <path d="M67.185,94.001 C69.314,98.228 71.42,102.46 73.503,106.699 C72.92,106.812 72.336,106.924 71.753,107.038 C70.484,104.449 69.206,101.862 67.92,99.276 C67.268,102.414 66.62,105.552 65.978,108.691 C64.136,106.024 62.282,103.362 60.415,100.704 C60.265,103.6 60.116,106.497 59.968,109.394 C59.391,109.512 58.813,109.631 58.237,109.751 C58.475,105.049 58.718,100.347 58.962,95.646 C61.019,98.555 63.061,101.469 65.087,104.389 C65.781,100.926 66.48,97.463 67.185,94.001" id="Fill-77" fill="#1A1919"></path>
            <path d="M81.123,93.394 C80.709,93.865 80.296,94.336 79.883,94.808 C79.42,94.489 79.012,94.263 78.66,94.128 C78.308,93.996 77.835,93.984 77.242,94.095 C76.593,94.217 76.095,94.459 75.749,94.821 C75.403,95.182 75.275,95.588 75.365,96.039 C75.443,96.428 75.687,96.739 76.099,96.97 C76.51,97.205 77.174,97.418 78.091,97.615 C79.008,97.811 79.731,98.018 80.263,98.239 C80.794,98.457 81.248,98.725 81.622,99.039 C81.997,99.353 82.297,99.704 82.525,100.087 C82.752,100.47 82.91,100.891 82.998,101.35 C83.204,102.421 82.981,103.408 82.333,104.308 C81.686,105.209 80.801,105.765 79.678,105.976 C78.581,106.182 77.557,106.069 76.602,105.639 C75.646,105.209 74.826,104.448 74.138,103.356 C74.702,103.077 75.266,102.798 75.83,102.52 C76.77,103.844 77.91,104.378 79.253,104.127 C79.905,104.004 80.41,103.711 80.769,103.249 C81.127,102.786 81.25,102.261 81.137,101.676 C81.069,101.326 80.888,100.996 80.591,100.686 C80.296,100.375 79.956,100.137 79.574,99.971 C79.191,99.805 78.602,99.644 77.807,99.487 C77.012,99.329 76.392,99.167 75.945,98.997 C75.498,98.825 75.097,98.598 74.738,98.314 C74.38,98.028 74.1,97.731 73.897,97.42 C73.695,97.109 73.556,96.763 73.478,96.379 C73.291,95.457 73.512,94.598 74.142,93.805 C74.772,93.01 75.63,92.51 76.718,92.306 C77.438,92.17 78.2,92.186 79,92.351 C79.803,92.517 80.509,92.865 81.123,93.394" id="Fill-78" fill="#1A1919"></path>
            <path d="M83.401,91.49 C84.004,91.38 84.608,91.271 85.212,91.163 C85.548,92.908 85.882,94.654 86.215,96.4 C87.75,94.317 89.294,92.237 90.845,90.161 C91.689,90.012 92.534,89.866 93.378,89.72 C91.605,92.087 89.843,94.459 88.091,96.834 C90.668,98.756 93.234,100.687 95.787,102.626 C95.023,102.757 94.26,102.89 93.497,103.024 C91.167,101.264 88.826,99.512 86.475,97.766 C86.873,99.864 87.27,101.961 87.663,104.059 C87.065,104.167 86.468,104.275 85.871,104.383 C85.058,100.084 84.234,95.787 83.401,91.49" id="Fill-79" fill="#1A1919"></path>
            <path d="M95.153,89.414 C95.752,89.311 96.351,89.209 96.951,89.107 C97.738,93.413 98.515,97.719 99.282,102.027 C98.689,102.127 98.096,102.229 97.503,102.331 C96.73,98.024 95.947,93.718 95.153,89.414" id="Fill-80" fill="#1A1919"></path>
            <path d="M108.28,88.721 C107.853,89.183 107.427,89.645 107.002,90.107 C106.545,89.776 106.139,89.542 105.79,89.4 C105.439,89.259 104.963,89.236 104.365,89.334 C103.711,89.441 103.206,89.672 102.85,90.026 C102.494,90.38 102.356,90.782 102.437,91.235 C102.505,91.626 102.745,91.942 103.152,92.183 C103.561,92.426 104.223,92.655 105.139,92.872 C106.056,93.089 106.779,93.313 107.307,93.544 C107.837,93.775 108.286,94.053 108.655,94.376 C109.024,94.699 109.318,95.055 109.539,95.445 C109.758,95.833 109.908,96.257 109.985,96.717 C110.168,97.793 109.923,98.774 109.252,99.661 C108.581,100.546 107.68,101.083 106.546,101.267 C105.44,101.447 104.414,101.312 103.463,100.861 C102.514,100.409 101.707,99.629 101.041,98.523 C101.613,98.256 102.186,97.99 102.759,97.724 C103.673,99.071 104.805,99.63 106.162,99.41 C106.82,99.301 107.333,99.02 107.705,98.566 C108.075,98.11 108.209,97.588 108.109,97.001 C108.048,96.649 107.874,96.316 107.583,96 C107.292,95.681 106.957,95.436 106.577,95.262 C106.197,95.086 105.609,94.912 104.814,94.738 C104.017,94.562 103.398,94.384 102.954,94.206 C102.509,94.023 102.109,93.788 101.756,93.494 C101.403,93.202 101.127,92.898 100.931,92.584 C100.735,92.267 100.602,91.918 100.533,91.532 C100.367,90.605 100.607,89.752 101.258,88.973 C101.908,88.194 102.782,87.713 103.879,87.533 C104.605,87.414 105.371,87.447 106.171,87.63 C106.973,87.815 107.676,88.178 108.28,88.721" id="Fill-81" fill="#1A1919"></path>
            <path d="M2.917,106.057 C4.023,105.723 5.132,105.392 6.242,105.065 C7.469,108.999 8.675,112.938 9.861,116.879 C11.36,116.436 12.862,116 14.368,115.569 C14.686,116.654 15.001,117.741 15.316,118.826 C12.732,119.565 10.158,120.321 7.592,121.095 C6.066,116.077 4.508,111.064 2.917,106.057" id="Fill-82" fill="#C8BA87"></path>
            <path d="M13.655,105.236 C16.169,104.526 18.692,103.833 21.223,103.156 C21.467,104.015 21.71,104.876 21.952,105.735 C20.397,106.151 18.845,106.573 17.296,107.001 C17.55,107.875 17.802,108.75 18.054,109.625 C19.596,109.199 21.142,108.779 22.689,108.365 C22.926,109.212 23.162,110.06 23.396,110.908 C21.855,111.319 20.316,111.737 18.78,112.162 C19.037,113.059 19.292,113.958 19.546,114.857 C21.075,114.434 22.607,114.018 24.142,113.609 C24.378,114.469 24.614,115.331 24.848,116.192 C22.371,116.853 19.903,117.53 17.442,118.223 C16.203,113.89 14.941,109.561 13.655,105.236" id="Fill-83" fill="#C8BA87"></path>
            <path d="M35.971,102.442 C35.473,103.184 34.977,103.927 34.483,104.67 C33.902,104.089 33.268,103.706 32.583,103.518 C31.897,103.331 31.225,103.318 30.573,103.48 C29.515,103.746 28.701,104.368 28.134,105.343 C27.566,106.318 27.429,107.333 27.713,108.388 C28.015,109.509 28.657,110.361 29.633,110.944 C30.608,111.528 31.636,111.683 32.721,111.411 C33.311,111.263 33.841,110.976 34.312,110.547 C34.785,110.121 35.085,109.462 35.214,108.576 C34.153,108.835 33.093,109.097 32.036,109.363 C31.813,108.512 31.59,107.661 31.366,106.81 C33.437,106.291 35.512,105.783 37.592,105.286 C37.735,105.852 37.878,106.418 38.02,106.985 C38.239,107.86 38.166,108.871 37.803,110.02 C37.441,111.171 36.82,112.098 35.942,112.804 C35.063,113.512 34.12,113.991 33.108,114.245 C31.272,114.706 29.559,114.448 27.948,113.468 C26.338,112.489 25.265,111.044 24.737,109.123 C24.236,107.301 24.457,105.572 25.419,103.935 C26.382,102.3 27.803,101.243 29.673,100.773 C32.061,100.173 34.171,100.733 35.971,102.442" id="Fill-84" fill="#C8BA87"></path>
            <path d="M45.352,99.876 C44.199,100.112 43.367,100.703 42.859,101.642 C42.349,102.584 42.25,103.672 42.551,104.907 C42.835,106.076 43.422,106.963 44.312,107.571 C45.202,108.177 46.183,108.361 47.259,108.122 C48.39,107.87 49.217,107.289 49.742,106.377 C50.265,105.465 50.387,104.386 50.102,103.14 C49.82,101.915 49.245,101.004 48.38,100.413 C47.514,99.82 46.502,99.64 45.352,99.876 Z M39.488,105.536 C39.006,103.595 39.264,101.835 40.284,100.262 C41.303,98.688 42.739,97.691 44.583,97.28 C46.62,96.825 48.464,97.094 50.093,98.085 C51.724,99.078 52.755,100.553 53.193,102.503 C53.629,104.443 53.331,106.188 52.319,107.746 C51.307,109.303 49.824,110.295 47.866,110.732 C45.906,111.168 44.149,110.9 42.578,109.925 C41.006,108.951 39.974,107.49 39.488,105.536 Z" id="Fill-85" fill="#C8BA87"></path>
            <path d="M55.169,95.168 C56.352,94.926 57.536,94.689 58.721,94.455 C60.164,96.928 61.588,99.406 62.994,101.889 C63.303,99.076 63.617,96.263 63.935,93.451 C65.081,93.235 66.23,93.022 67.379,92.813 C68.877,97.128 70.339,101.45 71.768,105.776 C70.831,105.943 69.896,106.112 68.961,106.283 C67.953,103.241 66.928,100.202 65.886,97.166 C65.504,100.466 65.128,103.768 64.757,107.069 C64.313,107.154 63.869,107.24 63.425,107.326 C61.761,104.387 60.071,101.457 58.354,98.533 C58.65,101.741 58.941,104.948 59.227,108.155 C58.283,108.344 57.34,108.537 56.398,108.731 C55.998,104.209 55.589,99.688 55.169,95.168" id="Fill-86" fill="#C8BA87"></path>
            <path d="M79.472,91.987 C78.964,92.741 78.457,93.495 77.953,94.25 C76.864,93.858 76.101,93.7 75.668,93.772 C75.334,93.827 75.07,93.997 74.874,94.277 C74.678,94.557 74.612,94.864 74.674,95.194 C74.798,95.85 75.528,96.31 76.86,96.584 C77.84,96.804 78.59,97.028 79.11,97.253 C79.631,97.478 80.096,97.834 80.506,98.317 C80.914,98.801 81.173,99.355 81.282,99.978 C81.483,101.123 81.176,102.194 80.369,103.194 C79.562,104.197 78.514,104.802 77.217,105.021 C75.795,105.26 74.277,104.852 72.644,103.8 C73.154,102.954 73.665,102.108 74.18,101.262 C75.219,101.983 76.116,102.28 76.879,102.151 C77.237,102.09 77.553,101.88 77.827,101.518 C78.101,101.157 78.208,100.807 78.147,100.47 C78.022,99.776 77.147,99.288 75.521,99.017 C74.593,98.859 73.919,98.68 73.503,98.476 C73.087,98.272 72.704,97.937 72.356,97.472 C72.009,97.005 71.781,96.505 71.678,95.973 C71.449,94.793 71.665,93.762 72.332,92.887 C72.999,92.01 73.989,91.46 75.301,91.24 C76.854,90.979 78.249,91.229 79.472,91.987" id="Fill-87" fill="#C8BA87"></path>
            <path d="M81.869,90.365 C82.882,90.208 83.895,90.051 84.91,89.899 C85.235,91.778 85.557,93.657 85.874,95.536 C85.888,95.534 85.903,95.531 85.916,95.529 C87.143,93.418 88.381,91.31 89.632,89.207 C90.88,89.029 92.13,88.855 93.381,88.684 C91.923,91.058 90.482,93.436 89.058,95.82 C91.285,97.879 93.488,99.951 95.667,102.035 C94.469,102.197 93.271,102.363 92.075,102.532 C90.123,100.676 88.153,98.831 86.163,96.994 C86.149,96.996 86.135,96.999 86.121,97.001 C86.471,99.084 86.816,101.167 87.157,103.25 C86.165,103.399 85.174,103.55 84.184,103.705 C83.433,99.256 82.662,94.81 81.869,90.365" id="Fill-88" fill="#C8BA87"></path>
            <path d="M95.662,88.378 C96.683,88.244 97.704,88.112 98.726,87.982 C99.397,92.448 100.046,96.914 100.675,101.38 C99.675,101.507 98.675,101.635 97.677,101.767 C97.027,97.303 96.355,92.84 95.662,88.378" id="Fill-89" fill="#C8BA87"></path>
            <path d="M109.754,87.923 C109.202,88.65 108.652,89.377 108.104,90.106 C107.027,89.66 106.265,89.462 105.825,89.514 C105.486,89.552 105.209,89.707 104.999,89.978 C104.786,90.247 104.704,90.55 104.749,90.883 C104.84,91.544 105.553,92.041 106.884,92.381 C107.862,92.651 108.607,92.913 109.121,93.165 C109.634,93.416 110.085,93.793 110.473,94.296 C110.86,94.801 111.093,95.368 111.172,95.996 C111.317,97.149 110.953,98.203 110.087,99.161 C109.223,100.121 108.133,100.674 106.816,100.827 C105.37,100.994 103.857,100.508 102.264,99.376 C102.821,98.556 103.381,97.737 103.943,96.918 C104.955,97.691 105.844,98.033 106.621,97.943 C106.984,97.901 107.312,97.706 107.608,97.359 C107.903,97.011 108.028,96.668 107.984,96.329 C107.893,95.628 107.036,95.097 105.41,94.744 C104.481,94.539 103.811,94.327 103.401,94.102 C102.991,93.877 102.622,93.524 102.295,93.042 C101.967,92.558 101.765,92.047 101.688,91.51 C101.516,90.32 101.787,89.301 102.504,88.461 C103.223,87.62 104.249,87.12 105.584,86.966 C107.166,86.785 108.558,87.104 109.754,87.923" id="Fill-90" fill="#C8BA87"></path>
            <polyline id="Fill-91" fill="#C8BA87" points="16.635 154.233 16.635 125.135 18.823 121.488 8.717 124.295 10.677 126.676 11.015 159.075 9.55 162.817 20.705 159.36 22.35 150.092 18.951 153.718 16.635 154.233"></polyline>
            <path d="M59.34,146.283 L59.089,116.17 L60.791,113.619 L62.371,115.332 L62.538,145.587 L60.645,148.238 L59.34,146.283 Z M37.259,151.959 L36.922,120.763 L38.393,117.416 L40.63,119.933 L40.715,151.185 L38.957,154.024 L37.259,151.959 Z M30.408,120.702 L31.387,122.239 L31.387,150.521 L29.504,151.017 L29.22,122.198 L30.408,120.702 Z M71.384,140.241 C71.36,141.468 69.528,142.13 68.16,142.419 L68.16,129.111 L71.39,128.478 C71.402,131.257 71.428,137.978 71.384,140.241 Z M68.16,124.588 L68.16,116.834 C68.587,116.751 68.982,116.707 69.335,116.707 C70.978,116.707 71.235,117.629 71.271,117.91 C71.371,120.274 71.421,123.045 71.351,124.014 C70.783,124.211 69.474,124.432 68.16,124.588 Z M77.128,139.217 C77.156,138.504 77.392,132.151 77.118,130.031 C76.937,128.626 76.299,127.745 75.647,127.236 L76.948,124.362 L76.966,124.209 C76.981,124.093 77.318,121.315 76.972,116.143 C76.76,112.963 74.658,111.14 71.204,111.14 C70.312,111.14 69.666,111.267 69.608,111.279 L60.292,113.079 L60.309,113.097 L54.697,114.043 L49.994,131.582 L44.613,115.959 L38.396,117.404 L38.532,117.098 L29.601,119.433 L29.604,119.439 L21.431,121.216 L23.26,123.501 L23.608,157.448 L27.912,157.448 L38.664,154.5 L38.43,154.876 L48.121,152.383 L46.674,149.754 L46.645,144.454 L50.188,157.84 L53.373,142.268 L53.465,147.533 L51.989,151.516 L61.148,148.995 L61.056,148.856 L62.378,148.712 C62.543,148.694 66.481,148.252 71.661,146.527 C76.265,144.991 77.248,141.113 77.128,139.217 Z" id="Fill-92" fill="#C8BA87"></path>
            <polyline id="Fill-93" fill="#C8BA87" points="85.91 137.903 85.398 126.5 89.056 125.626 91.09 119.926 85.361 120.772 85.361 114.451 87.975 113.862 90.582 115.23 90.582 107.9 77.055 109.635 79.737 112.541 79.575 122.938 77.628 127.75 79.748 127.75 79.827 141.84 76.966 145.505 90.582 142.621 90.582 134.388 87.452 137.681 85.91 137.903"></polyline>
            <path d="M101.911,112.794 L101.911,118.903 C101.435,119.062 100.495,119.297 98.799,119.46 L98.799,111.691 C99.07,111.663 99.388,111.64 99.72,111.64 C101.911,111.64 101.911,112.478 101.911,112.794 Z M106.016,122.23 L107.581,118.463 L107.599,118.353 C107.624,118.207 108.22,114.719 107.603,110.667 C107.192,107.97 104.66,106.361 100.831,106.361 C100.399,106.361 100.124,106.383 100.094,106.386 L91.101,107.863 L92.923,110.454 L92.923,139.356 L90.729,142.664 L99.575,141.203 L99.489,125.726 C100.537,125.754 100.922,126.124 100.932,126.436 L100.928,126.442 L101.346,140.79 L107.868,139.561 L107.88,138.735 C107.887,138.303 108.041,128.139 107.879,125.645 C107.756,123.765 106.799,122.751 106.016,122.23 Z" id="Fill-94" fill="#C8BA87"></path>
            <path d="M110.551,107.759 C110.531,111.165 110.383,135.463 110.383,137.52 C110.383,139.481 109.791,140.866 109.786,140.876 L109.181,142.238 L110.669,142.298 C110.762,142.301 110.854,142.303 110.945,142.303 C114.762,142.303 116.415,138.964 116.754,137.199 L116.773,137.104 L116.773,104.299 L108.74,105.754 L110.551,107.759" id="Fill-95" fill="#C8BA87"></path>
            <path d="M126.108,119.245 L127.042,127.034 L125.134,127.227 L126.108,119.245 Z M121.281,103.795 L122.917,106.616 L117.514,138.177 L124.393,136.925 L124.816,132.712 L127.312,132.468 L127.578,136.671 L134.633,135.089 L129.27,103.047 L121.281,103.795 Z" id="Fill-96" fill="#C8BA87"></path>
            <path d="M142.766,128.394 L141.789,128.454 L141.622,107.259 C141.78,107.195 141.999,107.133 142.284,107.118 C142.485,107.107 142.677,107.099 142.862,107.095 L142.923,113.947 L148.982,113.223 L148.982,105.333 C149.017,105.02 149.022,104.297 148.484,103.534 C147.791,102.553 146.486,101.924 144.607,101.664 C144.036,101.584 143.453,101.544 142.875,101.544 C138.657,101.544 135.549,103.581 135.488,106.387 C135.428,109.125 135.485,129.963 135.488,131.139 C135.48,131.398 135.519,132.216 136.248,133 C137.125,133.942 138.628,134.421 140.716,134.421 C140.945,134.421 141.185,134.417 141.437,134.404 C147.451,134.118 149.01,130.729 148.995,128.977 C148.982,127.491 148.995,122.34 148.995,122.288 L148.998,121.144 L143.005,121.867 L142.766,128.394" id="Fill-97" fill="#C8BA87"></path>
            <path d="M159.727,131.928 L157.861,129.44 L157.947,122.765 L159.98,129.91 L159.727,131.928 Z M159.816,102.376 L157.85,107.692 L157.8,103.486 L159.816,101.351 L159.816,102.376 Z M165.495,128.51 L161.822,113.878 L165.527,103.061 L167.758,100.386 L159.816,100.386 L159.816,100.991 L149.892,100.991 L151.964,103.67 L151.85,113.18 L149.999,117.124 L151.912,117.481 L151.966,130.352 L149.434,133.182 L159.803,132.03 L159.752,131.963 L167.577,130.96 L165.495,128.51 Z" id="Fill-98" fill="#C8BA87"></path>
            <path d="M181.332,119.687 C181.314,119.552 180.892,116.333 178.177,113.816 C177.666,113.341 177.172,112.918 176.736,112.545 C175.046,111.1 174.029,110.229 173.786,108.163 C173.605,106.634 173.598,105.584 173.628,104.946 L175.281,104.946 L175.341,110.621 L181.097,110.621 L181.097,102.291 L180.966,102.058 C180.905,101.949 179.356,99.277 174.608,99.481 C169.946,99.684 167.916,102.095 167.732,103.567 C167.605,104.578 167.712,109.82 167.724,110.415 L167.726,110.535 L167.757,110.651 C167.786,110.756 168.467,113.275 170.619,115.09 L171.087,115.484 C172.777,116.894 175.089,118.827 175.089,120.415 L175.089,125.093 L173.309,125.234 L173.309,119.086 L167.422,119.823 L167.422,127.417 L167.423,127.464 C167.429,127.59 167.627,130.542 172.504,130.542 C172.923,130.542 173.374,130.52 173.841,130.477 C178.643,130.031 180.88,128.741 181.093,126.296 C181.216,124.893 181.333,120.041 181.338,119.834 L181.34,119.76 L181.332,119.687" id="Fill-99" fill="#C8BA87"></path>
            <polyline id="Fill-100" fill="#FFFFFE" points="10.488 124.854 11.686 126.309 12.029 159.26 11.259 161.229 19.818 158.576 20.758 153.269 19.475 154.639 15.624 155.495 15.624 124.854 16.65 123.142 10.488 124.854"></polyline>
            <polygon id="Stroke-101" stroke="#1A1919" stroke-width="0.607" points="10.488 124.854 11.686 126.309 12.029 159.26 11.259 161.229 19.818 158.576 20.758 153.269 19.475 154.639 15.624 155.495 15.624 124.854 16.65 123.142"></polygon>
            <polyline id="Fill-102" fill="#FFFFFE" points="24.268 123.142 23.24 121.858 29.232 120.556 28.205 121.849 28.505 152.328 32.398 151.3 32.398 121.945 31.2 120.061 36.763 118.606 35.907 120.556 36.25 152.328 37.449 153.783 27.777 156.435 24.61 156.435 24.268 123.142"></polyline>
            <polygon id="Stroke-103" stroke="#1A1919" stroke-width="0.607" points="24.268 123.142 23.24 121.858 29.232 120.556 28.205 121.849 28.505 152.328 32.398 151.3 32.398 121.945 31.2 120.061 36.763 118.606 35.907 120.556 36.25 152.328 37.449 153.783 27.777 156.435 24.61 156.435"></polygon>
            <polyline id="Fill-104" fill="#FFFFFE" points="41.642 119.547 40.272 118.007 43.953 117.151 50.115 135.04 55.507 114.934 59.102 114.327 58.075 115.868 58.332 146.593 59.53 148.391 53.624 150.017 54.48 147.706 54.223 132.985 49.901 154.296 45.579 135.126 45.665 150.017 46.606 151.729 40.615 153.269 41.727 151.472 41.642 119.547"></polyline>
            <polygon id="Stroke-105" stroke="#1A1919" stroke-width="0.607" points="41.642 119.547 40.272 118.007 43.953 117.151 50.115 135.04 55.507 114.934 59.102 114.327 58.075 115.868 58.332 146.593 59.53 148.391 53.624 150.017 54.48 147.706 54.223 132.985 49.901 154.296 45.579 135.126 45.665 150.017 46.606 151.729 40.615 153.269 41.727 151.472"></polygon>
            <path d="M72.396,140.26 C72.339,143.17 67.147,143.598 67.147,143.598 L67.147,128.278 L72.396,127.251 C72.396,127.251 72.453,137.35 72.396,140.26 Z M67.147,116.04 C72.025,114.668 72.283,117.836 72.283,117.836 C72.283,117.836 72.538,123.914 72.283,124.598 C72.025,125.283 67.147,125.709 67.147,125.709 L67.147,116.04 Z M76.114,130.162 C75.838,128.021 74.336,127.678 74.336,127.678 L75.962,124.084 C75.962,124.084 76.305,121.345 75.962,116.209 C75.62,111.075 69.799,112.273 69.799,112.273 L62.268,113.727 L63.381,114.934 L63.552,145.909 L62.268,147.706 C62.268,147.706 66.204,147.278 71.341,145.567 C76.476,143.854 76.114,139.233 76.114,139.233 C76.114,139.233 76.39,132.3 76.114,130.162 Z" id="Fill-106" fill="#FFFFFE"></path>
            <path d="M72.396,140.26 C72.339,143.17 67.147,143.598 67.147,143.598 L67.147,128.278 L72.396,127.251 C72.396,127.251 72.453,137.35 72.396,140.26 Z M67.147,116.04 C72.025,114.668 72.283,117.836 72.283,117.836 C72.283,117.836 72.538,123.914 72.283,124.598 C72.025,125.283 67.147,125.709 67.147,125.709 L67.147,116.04 Z M76.114,130.162 C75.838,128.021 74.336,127.678 74.336,127.678 L75.962,124.084 C75.962,124.084 76.305,121.345 75.962,116.209 C75.62,111.075 69.799,112.273 69.799,112.273 L62.268,113.727 L63.381,114.934 L63.552,145.909 L62.268,147.706 C62.268,147.706 66.204,147.278 71.341,145.567 C76.476,143.854 76.114,139.233 76.114,139.233 C76.114,139.233 76.39,132.3 76.114,130.162 Z" id="Stroke-107" stroke="#1A1919" stroke-width="0.607"></path>
            <polyline id="Fill-108" fill="#FFFFFE" points="89.571 109.05 79.129 110.389 80.755 112.152 80.583 123.142 79.129 126.737 80.755 126.737 80.841 142.186 79.471 143.94 89.571 141.799 89.571 136.921 87.943 138.634 84.949 139.062 84.35 125.709 88.287 124.768 89.571 121.173 84.35 121.945 84.35 113.642 88.116 112.794 89.571 113.556 89.571 109.05"></polyline>
            <polygon id="Stroke-109" stroke="#1A1919" stroke-width="0.607" points="89.571 109.05 79.129 110.389 80.755 112.152 80.583 123.142 79.129 126.737 80.755 126.737 80.841 142.186 79.471 143.94 89.571 141.799 89.571 136.921 87.943 138.634 84.949 139.062 84.35 125.709 88.287 124.768 89.571 121.173 84.35 121.945 84.35 113.642 88.116 112.794 89.571 113.556"></polygon>
            <path d="M102.922,119.547 C102.922,119.547 102.066,120.28 97.787,120.556 L97.787,110.818 C97.787,110.818 102.922,109.719 102.922,112.794 C102.922,115.868 102.922,119.547 102.922,119.547 Z M106.869,125.709 C106.707,123.228 104.719,122.714 104.719,122.714 L106.602,118.178 C106.602,118.178 107.202,114.755 106.602,110.818 C106.002,106.882 100.183,107.394 100.183,107.394 L92.857,108.599 L93.935,110.133 L93.935,139.661 L92.857,141.288 L98.556,140.345 L98.471,124.768 C102.066,124.34 101.942,126.496 101.942,126.496 L102.324,139.576 L106.869,138.719 C106.869,138.719 107.03,128.193 106.869,125.709 Z" id="Fill-110" fill="#FFFFFE"></path>
            <path d="M102.922,119.547 C102.922,119.547 102.066,120.28 97.787,120.556 L97.787,110.818 C97.787,110.818 102.922,109.719 102.922,112.794 C102.922,115.868 102.922,119.547 102.922,119.547 Z M106.869,125.709 C106.707,123.228 104.719,122.714 104.719,122.714 L106.602,118.178 C106.602,118.178 107.202,114.755 106.602,110.818 C106.002,106.882 100.183,107.394 100.183,107.394 L92.857,108.599 L93.935,110.133 L93.935,139.661 L92.857,141.288 L98.556,140.345 L98.471,124.768 C102.066,124.34 101.942,126.496 101.942,126.496 L102.324,139.576 L106.869,138.719 C106.869,138.719 107.03,128.193 106.869,125.709 Z" id="Stroke-111" stroke="#1A1919" stroke-width="0.607"></path>
            <path d="M111.567,107.373 L110.71,106.425 L115.76,105.511 L115.76,137.008 C115.76,137.008 114.904,141.458 110.71,141.288 C110.71,141.288 111.396,139.746 111.396,137.52 C111.396,135.295 111.567,107.373 111.567,107.373" id="Fill-112" fill="#FFFFFE"></path>
            <path d="M111.567,107.373 L110.71,106.425 L115.76,105.511 L115.76,137.008 C115.76,137.008 114.904,141.458 110.71,141.288 C110.71,141.288 111.396,139.746 111.396,137.52 C111.396,135.295 111.567,107.373 111.567,107.373 Z" id="Stroke-113" stroke="#1A1919" stroke-width="0.607"></path>
            <path d="M123.976,128.363 L126.117,110.818 L128.17,127.936 L123.976,128.363 Z M128.427,104.142 L122.95,104.656 L123.976,106.425 L118.756,136.921 L123.463,136.066 L123.891,131.787 L128.255,131.359 L128.513,135.424 L133.477,134.311 L128.427,104.142 Z" id="Fill-114" fill="#FFFFFE"></path>
            <path d="M123.976,128.363 L126.117,110.818 L128.17,127.936 L123.976,128.363 Z M128.427,104.142 L122.95,104.656 L123.976,106.425 L118.756,136.921 L123.463,136.066 L123.891,131.787 L128.255,131.359 L128.513,135.424 L133.477,134.311 L128.427,104.142 Z" id="Stroke-115" stroke="#1A1919" stroke-width="0.607"></path>
            <path d="M143.924,112.807 L147.97,112.325 L147.97,105.262 C147.97,105.262 148.393,103.209 144.469,102.666 C140.544,102.123 136.56,103.631 136.499,106.409 C136.439,109.185 136.499,131.159 136.499,131.159 C136.499,131.159 136.32,133.634 141.39,133.393 C146.46,133.151 147.997,130.496 147.983,128.986 C147.97,127.477 147.983,122.286 147.983,122.286 L143.985,122.768 L143.744,129.348 L140.787,129.53 L140.605,106.71 C140.605,106.71 141.135,106.168 142.228,106.108 C143.321,106.046 143.865,106.108 143.865,106.108 L143.924,112.807" id="Fill-116" fill="#FFFFFE"></path>
            <path d="M143.924,112.807 L147.97,112.325 L147.97,105.262 C147.97,105.262 148.393,103.209 144.469,102.666 C140.544,102.123 136.56,103.631 136.499,106.409 C136.439,109.185 136.499,131.159 136.499,131.159 C136.499,131.159 136.32,133.634 141.39,133.393 C146.46,133.151 147.997,130.496 147.983,128.986 C147.97,127.477 147.983,122.286 147.983,122.286 L143.985,122.768 L143.744,129.348 L140.787,129.53 L140.605,106.71 C140.605,106.71 141.135,106.168 142.228,106.108 C143.321,106.046 143.865,106.108 143.865,106.108 L143.924,112.807 Z" id="Stroke-117" stroke="#1A1919" stroke-width="0.607"></path>
            <polyline id="Fill-118" fill="#FFFFFE" points="152.98 103.331 151.955 102.002 157.81 102.002 156.784 103.088 156.905 113.169 160.828 102.556 160.828 101.398 165.597 101.398 164.63 102.556 160.767 113.834 164.57 128.986 165.597 130.193 160.888 130.796 161.009 129.832 157.024 115.826 156.844 129.771 157.931 131.219 151.955 131.884 152.98 130.736 152.919 116.641 151.471 116.37 152.86 113.412 152.98 103.331"></polyline>
            <polygon id="Stroke-119" stroke="#1A1919" stroke-width="0.607" points="152.98 103.331 151.955 102.002 157.81 102.002 156.784 103.088 156.905 113.169 160.828 102.556 160.828 101.398 165.597 101.398 164.63 102.556 160.767 113.834 164.57 128.986 165.597 130.193 160.888 130.796 161.009 129.832 157.024 115.826 156.844 129.771 157.931 131.219 151.955 131.884 152.98 130.736 152.919 116.641 151.471 116.37 152.86 113.412"></polygon>
            <path d="M176.342,109.608 L180.085,109.608 L180.085,102.556 C180.085,102.556 178.817,100.312 174.652,100.492 C170.487,100.674 168.857,102.726 168.736,103.692 C168.615,104.658 168.736,110.394 168.736,110.394 C168.736,110.394 169.339,112.687 171.272,114.317 C173.204,115.947 176.1,118.181 176.1,120.415 C176.1,122.648 176.1,126.028 176.1,126.028 L172.297,126.331 L172.297,120.233 L168.435,120.715 L168.435,127.417 C168.435,127.417 168.555,129.952 173.747,129.468 C178.938,128.986 179.964,127.597 180.085,126.209 C180.206,124.82 180.328,119.81 180.328,119.81 C180.328,119.81 179.964,116.852 177.489,114.558 C175.014,112.264 173.143,111.36 172.781,108.28 C172.418,105.202 172.72,103.934 172.72,103.934 L176.282,103.934 L176.342,109.608" id="Fill-120" fill="#FFFFFE"></path>
            <path d="M176.342,109.608 L180.085,109.608 L180.085,102.556 C180.085,102.556 178.817,100.312 174.652,100.492 C170.487,100.674 168.857,102.726 168.736,103.692 C168.615,104.658 168.736,110.394 168.736,110.394 C168.736,110.394 169.339,112.687 171.272,114.317 C173.204,115.947 176.1,118.181 176.1,120.415 C176.1,122.648 176.1,126.028 176.1,126.028 L172.297,126.331 L172.297,120.233 L168.435,120.715 L168.435,127.417 C168.435,127.417 168.555,129.952 173.747,129.468 C178.938,128.986 179.964,127.597 180.085,126.209 C180.206,124.82 180.328,119.81 180.328,119.81 C180.328,119.81 179.964,116.852 177.489,114.558 C175.014,112.264 173.143,111.36 172.781,108.28 C172.418,105.202 172.72,103.934 172.72,103.934 L176.282,103.934 L176.342,109.608 Z" id="Stroke-121" stroke="#1A1919" stroke-width="0.607"></path>
            <path d="M128.83,67.961 L175.715,56.677 L176.907,59.493 L128.83,70.112 C128.83,70.112 126.978,70.559 128.83,67.961" id="Fill-122" fill="#C8BA87"></path>
            <polyline id="Fill-123" fill="#614629" points="129.214 73.123 177.268 62.246 176.907 59.493 129.1 70.112 129.214 73.123"></polyline>
            <path d="M154.117,67.655 C155.687,73.11 156.385,80.886 151.471,88.086 C151.471,88.086 158.079,83.044 160.257,75.211 C162.436,67.378 151.434,58.493 151.434,58.493 L151.102,60.499 C151.102,60.499 151.571,61.252 152.195,62.568 L154.081,62.086 L156.368,67.161 L154.117,67.655" id="Fill-124" fill="#D2C0A7"></path>
            <path d="M162.28,88.885 C157.432,88.885 153.716,88.125 152.27,87.777 C153.01,86.618 153.671,85.428 154.242,84.232 C155.586,84.385 157.595,84.549 160.047,84.548 C167.596,84.548 178.493,83.033 187.737,75.859 C189.014,76.73 190.074,77.345 190.701,77.69 C181.219,86.927 170.044,88.885 162.281,88.885 C162.28,88.885 162.281,88.885 162.28,88.885" id="Fill-125" fill="#FFFFFE"></path>
            <path d="M187.718,75.239 C178.403,82.616 167.276,84.049 160.047,84.049 C157.391,84.049 155.263,83.855 153.942,83.693 C153.281,85.125 152.469,86.59 151.471,88.086 C151.471,88.086 155.881,89.385 162.28,89.385 C170.466,89.385 181.908,87.259 191.537,77.566 C191.537,77.566 189.898,76.756 187.718,75.239 Z M187.756,76.475 C188.582,77.028 189.307,77.469 189.87,77.794 C180.613,86.519 169.82,88.385 162.28,88.385 C158.121,88.385 154.799,87.818 153.067,87.445 C153.604,86.564 154.096,85.668 154.538,84.767 C155.884,84.91 157.778,85.049 160.047,85.049 C167.596,85.049 178.461,83.546 187.756,76.475 Z" id="Fill-126" fill="#1A1919"></path>
            <path d="M186.733,74.53 C181.592,70.702 173.185,68.128 174.381,54.237 L151.434,58.493 C151.434,58.493 160.303,68.935 154.242,83.006 C154.143,83.235 154.048,83.462 153.942,83.693 C158.857,84.298 174.979,85.328 187.718,75.239 C187.399,75.017 187.072,74.783 186.733,74.53" id="Fill-127" fill="#1A1919"></path>
            <path d="M156.518,60.499 C156.518,60.499 163.127,73.965 159.018,81.295 C159.018,81.295 165.799,82.096 174.381,78.628 C174.381,78.628 161.542,81.336 161.393,79.711 C161.244,78.086 162.893,70.142 156.518,60.499" id="Fill-128" fill="#FFFFFE"></path>
        </g>
    </g>
</svg>