<?xml version="1.0" encoding="UTF-8" standalone="no"?>
<svg width="681px" height="579px" viewBox="0 0 681 579" version="1.1" xmlns="http://www.w3.org/2000/svg" xmlns:xlink="http://www.w3.org/1999/xlink">
    <!-- Generator: Sketch 49.1 (51147) - http://www.bohemiancoding.com/sketch -->
    <title>Mackinnons_Mammoths-NEW</title>
    <desc>Created with Sketch.</desc>
    <defs>
        <polygon id="path-1" points="0.06 0.151 680.988 0.151 680.988 579 0.06 579"></polygon>
    </defs>
    <g id="Page-1" stroke="none" stroke-width="1" fill="none" fill-rule="evenodd">
        <g id="Mackinnons_Mammoths-NEW">
            <g id="Group-3">
                <mask id="mask-2" fill="white">
                    <use xlink:href="#path-1"></use>
                </mask>
                <g id="Clip-2"></g>
                <path d="M670.571,565.441 L657.319,548.196 L640.039,432.554 L653.47,402.009 L578.879,402.009 C595.887,384.823 606.367,368.293 608.735,364.402 C620.326,345.358 639.773,305.825 639.773,255.039 C639.773,235.733 637.453,207.718 626.409,183.888 C615.325,159.972 597.761,146.124 575.618,143.84 C574.208,143.694 572.785,143.621 571.39,143.621 C561.138,143.62 551.608,147.522 543.83,154.904 C536.861,161.518 531.65,170.595 528.759,181.153 C524.852,195.42 525.55,211.079 530.727,225.245 C535.998,239.68 545.63,251.926 558.743,260.948 C557.71,266.962 555.335,277.706 550.298,288.846 C542.424,306.261 531.28,318.041 517.079,323.996 L517.079,54.983 L514.611,52.516 L462.245,0.151 L214.633,0.151 L162.269,52.516 L159.8,54.983 L159.8,323.977 C129.4,311.105 120.429,274.326 118.132,260.949 C131.244,251.928 140.877,239.684 146.15,225.253 C151.325,211.089 152.025,195.432 148.119,181.166 C145.229,170.606 140.018,161.527 133.05,154.912 C125.272,147.527 115.743,143.622 105.491,143.621 C104.093,143.621 102.672,143.694 101.261,143.84 C79.118,146.124 61.556,159.972 50.47,183.888 C39.427,207.718 37.108,235.733 37.108,255.039 C37.108,305.825 56.553,345.358 68.146,364.402 C70.513,368.291 80.991,384.823 97.998,402.009 L30.139,402.009 L42.513,436.105 L24.709,548.078 L0,579 L680.988,579 L670.571,565.441" id="Fill-1" fill="#78838E" mask="url(#mask-2)"></path>
            </g>
            <polyline id="Fill-4" fill="#0F151D" points="42.158 410.434 51.174 435.276 32.68 551.599 17.517 570.575 663.892 570.575 649.311 551.599 631.348 431.391 640.564 410.434 42.158 410.434"></polyline>
            <path d="M421.865,400.478 L250.172,400.478 C250.172,400.478 251.389,421.174 235.189,431.391 L436.849,431.391 C420.649,421.174 421.865,400.478 421.865,400.478" id="Fill-5" fill="#DC3F2A"></path>
            <path d="M199.279,431.391 L235.189,431.391 C251.389,421.174 250.172,400.478 250.172,400.478 L199.279,431.391" id="Fill-6" fill="#A8262B"></path>
            <path d="M421.865,400.478 C421.865,400.478 420.649,421.174 436.849,431.391 L469.159,431.391 L421.865,400.478" id="Fill-7" fill="#A8262B"></path>
            <path d="M300.639,86.878 L309.279,93.466 L315.921,92.872 C311.061,88.66 300.639,86.878 300.639,86.878" id="Fill-8" fill="#78838E"></path>
            <path d="M242.101,379.029 C195.874,419.64 148.244,405.059 124.915,388.858 C120.343,385.685 115.911,381.948 111.736,377.997 C121.095,388.897 129.918,396.732 136.256,401.171 C152.456,412.512 199.072,433.471 244.259,397.174 C289.449,360.879 303.771,298.893 303.771,298.893 C299.665,282.798 300.746,274.158 300.746,274.158 L298.37,271.89 C298.37,271.89 288.325,338.421 242.101,379.029" id="Fill-9" fill="#78838E"></path>
            <path d="M75.772,245.969 C75.772,245.969 82.145,301.052 98.67,336.692 C98.67,336.692 70.372,303.643 75.772,245.969 Z M106.123,312.067 C105.693,311.086 105.276,310.111 104.863,309.14 C100.799,303.525 98.67,299.755 98.67,299.755 C98.67,299.755 100.799,303.525 104.863,309.14 C91.26,277.023 86.714,249.388 91.326,219.615 C96.077,188.942 114.223,187.321 114.223,187.321 C105.313,195.584 103.854,204.819 103.854,204.819 C107.256,202.552 110.173,207.896 110.011,217.78 C109.849,227.662 104.989,237.706 104.989,237.706 C104.989,237.706 120.055,227.176 122.647,207.411 C125.24,187.646 118.921,176.954 112.603,173.391 C106.285,169.826 94.296,167.882 83.28,181.977 C72.263,196.071 67.97,215.431 67.97,215.431 L74.937,218.509 L66.593,221.926 C66.593,221.926 57.521,262.494 71.453,305.913 C81.313,336.637 97.175,361.037 111.736,377.997 C115.911,381.948 120.343,385.685 124.915,388.858 C148.244,405.059 195.874,419.64 242.101,379.029 C288.325,338.421 298.37,271.89 298.37,271.89 C286.975,301.862 269.263,322.275 269.263,322.275 C277.85,304.291 287.246,262.061 287.246,262.061 L279.47,256.337 L270.397,263.465 C261.414,317.062 234.998,352.948 202.658,365.502 C196.36,369.188 191.987,370.391 191.987,370.391 C191.987,370.391 196.36,369.188 202.658,365.502 C200.002,366.532 197.307,367.409 194.578,368.12 C158.613,377.518 120.703,345.441 106.123,312.067 Z" id="Fill-10" fill="#FFFFFE"></path>
            <path d="M252.739,186.836 L259.543,184.07 C259.968,180.884 260.515,178.331 260.515,178.331 L237.267,186.107 C246.42,187.161 247.069,189.185 247.069,189.185 C230.868,195.342 224.873,199.311 224.873,199.311 C244.422,193.047 254.845,190.994 254.845,190.994 L252.739,186.836" id="Fill-11" fill="#FFFFFE"></path>
            <path d="M267.238,208.14 C267.238,208.14 259.057,193.803 259.057,190.401 C259.057,188.359 259.276,186.088 259.543,184.07 L252.739,186.836 L254.845,190.994 C254.845,190.994 244.422,193.047 224.873,199.311 C219.528,218.752 226.007,228.472 230.651,243.214 C235.295,257.957 230.651,267.893 230.651,267.893 C236.915,266.273 245.664,260.549 245.664,260.549 C247.176,267.353 249.012,272.43 249.012,272.43 C252.576,255.473 258.949,240.892 258.949,240.892 L247.5,246.294 C257.978,216.915 267.238,208.14 267.238,208.14" id="Fill-12" fill="#78838E"></path>
            <path d="M299.665,198.770138 C299.665,198.770138 292.106,198.878 288.542,193.046 C284.978,187.214 289.19,181.381 289.19,181.381 L293.078,186.351 C293.078,186.351 289.19,192.722 297.722,194.882 L299.665,198.770138 Z M276.77,165.829 L281.521,173.391 C281.521,173.391 278.714,186.026 283.682,192.938 C291.409,203.688 300.206,200.607 300.206,200.607 C285.733,208.924 280.765,194.234 280.765,194.234 C280.226,197.475 281.198,204.495 287.353,206.655 C293.51,208.814 298.262,206.439 298.262,206.439 L296.426,215.619 C304.851,208.924 306.038,194.234 306.038,194.234 C295.994,173.821 276.77,165.829 276.77,165.829 Z" id="Fill-13" fill="#0F151D"></path>
            <path d="M293.078,186.351 L289.19,181.381 C289.19,181.381 284.978,187.214 288.542,193.046 C292.106,198.878 299.665,198.770138 299.665,198.770138 L297.722,194.882 C289.19,192.722 293.078,186.351 293.078,186.351" id="Fill-14" fill="#DC3F2A"></path>
            <path d="M314.355,196.179 C314.355,196.179 327.532,206.763 338.44,206.763 L338.44,201.472 C338.44,201.472 327.532,202.442 314.355,196.179" id="Fill-15" fill="#0F151D"></path>
            <path d="M306.038,181.381 C325.587,196.284 338.44,195.422 338.44,195.422 L338.44,188.942 C322.131,188.942 306.038,181.381 306.038,181.381" id="Fill-16" fill="#0F151D"></path>
            <path d="M338.44,167.988 L334.012,174.902 C319.323,173.714 302.042,166.585 302.042,166.585 C322.419,181.82 338.44,182.057 338.44,182.057 L338.44,167.988" id="Fill-17" fill="#0F151D"></path>
            <path d="M98.67,336.692 C82.145,301.052 75.772,245.969 75.772,245.969 C70.372,303.643 98.67,336.692 98.67,336.692" id="Fill-18" fill="#0F151D"></path>
            <path d="M338.44,267.678 C338.44,267.678 321.105,266.382 308.307,261.197 C308.307,261.197 304.905,276.265 310.899,288.739 C310.899,288.739 325.642,294.895 338.44,294.895 C351.238,294.895 365.981,288.739 365.981,288.739 C371.975,276.265 368.574,261.197 368.574,261.197 C355.775,266.382 338.44,267.678 338.44,267.678" id="Fill-19" fill="#78838E"></path>
            <path d="M338.44,341.554 C338.44,341.554 326.614,340.742 313.977,333.291 C313.977,333.291 310.899,337.017 311.709,348.032 C311.709,348.032 324.669,358.727 338.44,358.727 C352.211,358.727 365.171,348.032 365.171,348.032 C365.981,337.017 362.903,333.291 362.903,333.291 C350.266,340.742 338.44,341.554 338.44,341.554" id="Fill-20" fill="#78838E"></path>
            <path d="M363.55,361.804 C346.865,372.819 338.44,372.171 338.44,372.171 C338.44,372.171 330.015,372.819 313.329,361.804 C313.329,361.804 311.871,362.453 313.491,365.53 C315.111,368.607 327.585,381.568 338.44,381.568 C349.295,381.568 361.769,368.607 363.388,365.53 C365.009,362.453 363.55,361.804 363.55,361.804" id="Fill-21" fill="#78838E"></path>
            <path d="M299.665,154.489 C308.306,143.149 305.174,131.485 305.174,131.485 C305.174,131.485 298.91,160.753 274.284,163.183 C274.284,163.183 291.027,165.83 299.665,154.489" id="Fill-22" fill="#FFFFFE"></path>
            <path d="M377.214,154.489 C385.854,165.83 402.595,163.183 402.595,163.183 C377.969,160.753 371.704,131.485 371.704,131.485 C371.704,131.485 368.574,143.149 377.214,154.489" id="Fill-23" fill="#FFFFFE"></path>
            <path d="M400.11,165.829 L395.358,173.391 C395.358,173.391 398.165,186.026 393.198,192.938 C385.47,203.688 376.674,200.607 376.674,200.607 C391.146,208.924 396.115,194.234 396.115,194.234 C396.655,197.475 395.683,204.495 389.527,206.655 C383.37,208.814 378.616,206.439 378.616,206.439 L380.454,215.619 C372.03,208.924 370.841,194.234 370.841,194.234 C380.886,173.821 400.11,165.829 400.11,165.829 Z M338.44,195.422 C338.44,195.422 325.587,196.284 306.038,181.381 C306.038,181.381 322.131,188.942 338.44,188.942 C354.748,188.942 370.841,181.381 370.841,181.381 C351.293,196.284 338.44,195.422 338.44,195.422 Z M338.44,206.763 C327.532,206.763 314.355,196.179 314.355,196.179 C327.532,202.442 338.44,201.472 338.44,201.472 C338.44,201.472 349.347,202.442 362.525,196.179 C362.525,196.179 349.348,206.763 338.44,206.763 Z M296.426,215.619 L298.262,206.439 C298.262,206.439 293.51,208.814 287.353,206.655 C281.198,204.495 280.226,197.475 280.765,194.234 C280.765,194.234 285.733,208.924 300.206,200.607 C300.206,200.607 291.409,203.688 283.682,192.938 C278.714,186.026 281.521,173.391 281.521,173.391 L276.77,165.829 C276.77,165.829 295.994,173.821 306.038,194.234 C306.038,194.234 304.851,208.924 296.426,215.619 Z M334.012,174.902 L338.44,167.988 L342.867,174.902 C357.556,173.714 374.837,166.585 374.837,166.585 C354.461,181.82 338.44,182.057 338.44,182.057 C338.44,182.057 322.419,181.82 302.042,166.585 C302.042,166.585 319.323,173.714 334.012,174.902 Z M377.726,236.896 C384.287,231.713 393.036,232.522 393.036,232.522 C384.668,237.264 380.238,243.376 380.238,243.376 C393.036,238.679 396.763,240.947 396.763,240.947 C376.674,251.801 374.567,267.678 374.567,267.678 C388.176,250.344 398.706,247.913 398.706,247.913 C406.807,251.639 417.014,263.951 417.014,263.951 C415.393,253.26 400.813,226.69 400.813,226.69 L414.421,233.818 C409.075,221.83 398.22,209.032 398.22,209.032 C405.673,200.445 410.695,188.295 410.695,188.295 C410.208,177.44 402.595,163.183 402.595,163.183 C402.595,163.183 385.854,165.83 377.214,154.489 C368.574,143.149 371.704,131.485 371.704,131.485 C382.614,140.989 394.386,140.989 394.386,140.989 C394.818,131.699 387.258,111.828 387.258,111.828 C379.266,109.991 370.949,110.1 370.949,110.1 C379.373,105.24 394.386,103.51 394.386,103.51 C394.386,103.51 373.434,99.353 360.959,101.458 L368.6,107.129 C368.6,107.129 350.914,102.107 338.44,102.107 C325.965,102.107 308.28,107.129 308.28,107.129 L315.921,101.458 C303.447,99.353 282.492,103.51 282.492,103.51 C282.492,103.51 297.506,105.24 305.931,110.1 C305.931,110.1 297.614,109.991 289.621,111.828 C289.621,111.828 282.062,131.699 282.492,140.989 C282.492,140.989 294.267,140.989 305.174,131.485 C305.174,131.485 308.306,143.149 299.665,154.489 C291.027,165.83 274.284,163.183 274.284,163.183 C274.284,163.183 266.671,177.44 266.185,188.295 C266.185,188.295 271.207,200.445 278.659,209.032 C278.659,209.032 267.805,221.83 262.458,233.818 L276.068,226.69 C276.068,226.69 261.487,253.26 259.866,263.951 C259.866,263.951 270.073,251.639 278.173,247.913 C278.173,247.913 288.703,250.344 302.313,267.678 C302.313,267.678 300.206,251.801 280.117,240.947 C280.117,240.947 283.843,238.679 296.643,243.376 C296.643,243.376 292.211,237.264 283.843,232.522 C283.843,232.522 292.592,231.713 299.154,236.896 C299.154,236.896 301.502,222.803 305.067,219.075 C305.067,219.075 303.447,234.953 306.686,252.448 C306.686,252.448 324.345,259.254 338.44,259.254 C352.535,259.254 370.194,252.448 370.194,252.448 C373.434,234.953 371.813,219.075 371.813,219.075 C375.376,222.803 377.726,236.896 377.726,236.896 Z" id="Fill-24" fill="#78838E"></path>
            <path d="M338.44,304.129 C338.44,304.129 321.753,302.974 312.033,298.042 C312.033,298.042 308.954,301.214 308.631,320.654 C308.631,320.654 326.127,329.24 338.44,329.24 C350.752,329.24 368.249,320.654 368.249,320.654 C367.925,301.214 364.847,298.042 364.847,298.042 C355.126,302.974 338.44,304.129 338.44,304.129" id="Fill-25" fill="#78838E"></path>
            <path d="M315.921,101.458 L308.28,107.129 C308.28,107.129 325.965,102.107 338.44,102.107 C350.914,102.107 368.6,107.129 368.6,107.129 L360.959,101.458 C373.434,99.353 394.386,103.51 394.386,103.51 C381.642,94.762 367.601,93.466 367.601,93.466 L360.959,92.872 C365.819,88.66 376.241,86.878 376.241,86.878 C376.241,86.878 369.436,83.638 356.476,84.718 C343.515,85.798 338.44,90.442 338.44,90.442 C338.44,90.442 333.363,85.798 320.403,84.718 C307.442,83.638 300.639,86.878 300.639,86.878 C300.639,86.878 311.061,88.66 315.921,92.872 L309.279,93.466 C309.279,93.466 295.238,94.762 282.492,103.51 C282.492,103.51 303.447,99.353 315.921,101.458" id="Fill-26" fill="#FFFFFE"></path>
            <path d="M367.601,93.466 L376.241,86.878 C376.241,86.878 365.819,88.66 360.959,92.872 L367.601,93.466" id="Fill-27" fill="#78838E"></path>
            <path d="M565.143,377.997 C555.784,388.897 546.963,396.732 540.623,401.171 C524.423,412.512 477.808,433.471 432.62,397.174 C387.432,360.879 373.11,298.893 373.11,298.893 C377.214,282.798 376.133,274.158 376.133,274.158 L378.509,271.89 C389.905,301.862 407.616,322.275 407.616,322.275 C399.03,304.291 389.634,262.061 389.634,262.061 L397.41,256.337 L406.483,263.465 C415.465,317.062 441.88,352.948 474.22,365.502 C466.869,361.199 456.897,353.51 448.172,340.365 C431.971,315.955 430.675,285.282 430.675,285.282 L434.348,275.777 C434.348,275.777 447.524,280.961 461.566,281.825 C461.566,281.825 454.034,273.618 454.019,257.416 C454.004,241.216 462.428,231.063 463.941,215.619 C465.453,200.174 461.566,192.614 461.566,192.614 L450.115,187.43 L457.784,183.326 C457.784,183.326 435.86,171.661 412.315,165.829 L412.315,110.747 C412.315,110.747 402.826,94.186 384.881,89.47 L398.706,87.85 C398.706,87.85 380.13,69.273 338.44,79.858 C296.75,69.273 278.173,87.85 278.173,87.85 L291.998,89.47 C274.053,94.186 264.565,110.747 264.565,110.747 L264.565,165.829 C241.02,171.661 219.095,183.326 219.095,183.326 L226.763,187.43 L215.315,192.614 C215.315,192.614 211.427,200.174 212.939,215.619 C214.45,231.063 222.874,241.216 222.86,257.416 C222.844,273.618 215.315,281.825 215.315,281.825 C229.356,280.961 242.533,275.777 242.533,275.777 L246.203,285.282 C246.203,285.282 244.908,315.955 228.707,340.365 C219.984,353.51 210.009,361.199 202.658,365.502 C234.998,352.948 261.414,317.062 270.397,263.465 L279.47,256.337 L287.246,262.061 C287.246,262.061 277.85,304.291 269.263,322.275 C269.263,322.275 286.975,301.862 298.37,271.89 L300.746,274.158 C300.746,274.158 299.665,282.798 303.771,298.893 C303.771,298.893 289.449,360.879 244.259,397.174 C199.072,433.471 152.456,412.512 136.256,401.171 C129.918,396.732 121.095,388.897 111.736,377.997 C97.175,361.037 81.313,336.637 71.453,305.913 C57.521,262.494 66.593,221.926 66.593,221.926 L74.937,218.509 L67.97,215.431 C67.97,215.431 72.263,196.071 83.28,181.977 C94.296,167.882 106.285,169.826 112.603,173.391 C118.921,176.954 125.24,187.646 122.647,207.411 C120.055,227.176 104.989,237.706 104.989,237.706 C104.989,237.706 109.849,227.662 110.011,217.78 C110.173,207.896 107.256,202.552 103.854,204.819 C103.854,204.819 105.313,195.584 114.223,187.321 C114.223,187.321 96.077,188.942 91.326,219.615 C86.714,249.388 91.26,277.023 104.863,309.14 C112.775,320.064 128.025,337.977 149.216,348.681 C181.293,364.881 212.075,336.692 212.075,336.692 L188.098,338.587 L188.098,112.476 L198.143,107.129 L187.936,102.268 L187.936,64.359 L225.198,27.098 L400.651,27.098 L400.11,39.14 L408.534,27.098 L451.682,27.098 L488.944,64.359 L488.824,268.018 L476.469,273.186 L488.817,278.135 L488.782,338.587 L464.805,336.692 C464.805,336.692 495.586,364.881 527.663,348.681 C548.855,337.977 564.105,320.064 572.015,309.14 C585.618,277.023 590.166,249.388 585.554,219.615 C580.802,188.942 562.658,187.321 562.658,187.321 C571.568,195.584 573.025,204.819 573.025,204.819 C569.623,202.552 566.707,207.896 566.869,217.78 C567.032,227.662 571.892,237.706 571.892,237.706 C571.892,237.706 556.825,227.176 554.233,207.411 C551.641,187.646 557.958,176.954 564.277,173.391 C570.595,169.826 582.583,167.882 593.6,181.977 C604.617,196.071 608.909,215.431 608.909,215.431 L601.944,218.509 L610.286,221.926 C610.286,221.926 619.36,262.494 605.426,305.913 C595.567,336.637 579.703,361.037 565.143,377.997 Z M417.336,184.07 C416.911,180.884 416.365,178.331 416.365,178.331 L439.614,186.107 C430.459,187.161 429.812,189.185 429.812,189.185 C446.012,195.342 452.006,199.311 452.006,199.311 C457.353,218.752 450.872,228.472 446.229,243.214 C441.583,257.957 446.229,267.893 446.229,267.893 C439.964,266.273 431.216,260.549 431.216,260.549 C429.702,267.353 427.867,272.43 427.867,272.43 C424.303,255.473 417.931,240.892 417.931,240.892 L429.378,246.294 C418.903,216.915 409.642,208.14 409.642,208.14 C409.642,208.14 417.824,193.803 417.824,190.401 C417.824,188.359 417.604,186.088 417.336,184.07 Z M258.949,240.892 C258.949,240.892 252.576,255.473 249.012,272.43 C249.012,272.43 247.176,267.353 245.664,260.549 C245.664,260.549 236.915,266.273 230.651,267.893 C230.651,267.893 235.295,257.957 230.651,243.214 C226.007,228.472 219.528,218.752 224.873,199.311 C224.873,199.311 230.868,195.342 247.069,189.185 C247.069,189.185 246.42,187.161 237.267,186.107 L260.515,178.331 C260.515,178.331 259.968,180.884 259.543,184.07 C259.276,186.088 259.057,188.359 259.057,190.401 C259.057,193.803 267.238,208.14 267.238,208.14 C267.238,208.14 257.978,216.915 247.5,246.294 L258.949,240.892 Z M370.194,252.448 C370.194,252.448 352.535,259.254 338.44,259.254 C324.345,259.254 306.686,252.448 306.686,252.448 C303.447,234.953 305.067,219.075 305.067,219.075 C301.502,222.803 299.154,236.896 299.154,236.896 C292.592,231.713 283.843,232.522 283.843,232.522 C292.211,237.264 296.643,243.376 296.643,243.376 C283.843,238.679 280.117,240.947 280.117,240.947 C300.206,251.801 302.313,267.678 302.313,267.678 C288.703,250.344 278.173,247.913 278.173,247.913 C270.073,251.639 259.866,263.951 259.866,263.951 C261.487,253.26 276.068,226.69 276.068,226.69 L262.458,233.818 C267.805,221.83 278.659,209.032 278.659,209.032 C271.207,200.445 266.185,188.295 266.185,188.295 C266.671,177.44 274.284,163.183 274.284,163.183 C298.91,160.753 305.174,131.485 305.174,131.485 C294.267,140.989 282.492,140.989 282.492,140.989 C282.062,131.699 289.621,111.828 289.621,111.828 C297.614,109.991 305.931,110.1 305.931,110.1 C297.506,105.24 282.492,103.51 282.492,103.51 C295.238,94.762 309.279,93.466 309.279,93.466 L300.639,86.878 C300.639,86.878 307.442,83.638 320.403,84.718 C333.363,85.798 338.44,90.442 338.44,90.442 C338.44,90.442 343.515,85.798 356.476,84.718 C369.436,83.638 376.241,86.878 376.241,86.878 L367.601,93.466 C367.601,93.466 381.642,94.762 394.386,103.51 C394.386,103.51 379.373,105.24 370.949,110.1 C370.949,110.1 379.266,109.991 387.258,111.828 C387.258,111.828 394.818,131.699 394.386,140.989 C394.386,140.989 382.614,140.989 371.704,131.485 C371.704,131.485 377.969,160.753 402.595,163.183 C402.595,163.183 410.208,177.44 410.695,188.295 C410.695,188.295 405.673,200.445 398.22,209.032 C398.22,209.032 409.075,221.83 414.421,233.818 L400.813,226.69 C400.813,226.69 415.393,253.26 417.014,263.951 C417.014,263.951 406.807,251.639 398.706,247.913 C398.706,247.913 388.176,250.344 374.567,267.678 C374.567,267.678 376.674,251.801 396.763,240.947 C396.763,240.947 393.036,238.679 380.238,243.376 C380.238,243.376 384.668,237.264 393.036,232.522 C393.036,232.522 384.287,231.713 377.726,236.896 C377.726,236.896 375.376,222.803 371.813,219.075 C371.813,219.075 373.434,234.953 370.194,252.448 Z M365.981,288.739 C365.981,288.739 351.238,294.895 338.44,294.895 C325.642,294.895 310.899,288.739 310.899,288.739 C304.905,276.265 308.307,261.197 308.307,261.197 C321.105,266.382 338.44,267.678 338.44,267.678 C338.44,267.678 355.775,266.382 368.574,261.197 C368.574,261.197 371.975,276.265 365.981,288.739 Z M338.44,329.24 C326.127,329.24 308.631,320.654 308.631,320.654 C308.954,301.214 312.033,298.042 312.033,298.042 C321.753,302.974 338.44,304.129 338.44,304.129 C338.44,304.129 355.126,302.974 364.847,298.042 C364.847,298.042 367.925,301.214 368.249,320.654 C368.249,320.654 350.752,329.24 338.44,329.24 Z M365.171,348.032 C365.171,348.032 352.211,358.727 338.44,358.727 C324.669,358.727 311.709,348.032 311.709,348.032 C310.899,337.017 313.977,333.291 313.977,333.291 C326.614,340.742 338.44,341.554 338.44,341.554 C338.44,341.554 350.266,340.742 362.903,333.291 C362.903,333.291 365.981,337.017 365.171,348.032 Z M363.388,365.53 C361.769,368.607 349.295,381.568 338.44,381.568 C327.585,381.568 315.111,368.607 313.491,365.53 C311.871,362.453 313.329,361.804 313.329,361.804 C330.015,372.819 338.44,372.171 338.44,372.171 C338.44,372.171 346.865,372.819 363.55,361.804 C363.55,361.804 365.009,362.453 363.388,365.53 Z M574.754,152.22 C532.848,147.899 513.84,224.798 567.841,256.768 C567.841,256.768 561.792,324.166 508.655,335.397 L508.655,58.473 L458.757,8.575 L218.122,8.575 L168.225,58.473 L168.225,335.397 C115.087,324.166 109.038,256.768 109.038,256.768 C163.039,224.798 144.031,147.899 102.125,152.22 C60.22,156.54 45.533,207.519 45.533,255.039 C45.533,302.562 63.245,340.149 75.341,360.02 C87.437,379.895 131.504,437.784 184.641,435.193 C237.779,432.601 271.369,389.831 271.369,389.831 L405.511,389.831 C405.511,389.831 439.1,432.601 492.238,435.193 C545.375,437.784 589.442,379.895 601.538,360.02 C613.634,340.149 631.348,302.562 631.348,255.039 C631.348,207.519 616.659,156.54 574.754,152.22 Z" id="Fill-28" fill="#0F151D"></path>
            <path d="M434.78,379.029 C388.553,338.421 378.509,271.89 378.509,271.89 L376.133,274.158 C376.133,274.158 377.214,282.798 373.11,298.893 C373.11,298.893 387.432,360.879 432.62,397.174 C477.808,433.471 524.423,412.512 540.623,401.171 C546.963,396.732 555.784,388.897 565.143,377.997 C560.967,381.948 556.534,385.685 551.964,388.858 C528.635,405.059 481.005,419.64 434.78,379.029" id="Fill-29" fill="#78838E"></path>
            <path d="M578.209,336.692 C594.734,301.052 601.107,245.969 601.107,245.969 C606.506,303.643 578.209,336.692 578.209,336.692 Z M610.286,221.926 L601.944,218.509 L608.909,215.431 C608.909,215.431 604.617,196.071 593.6,181.977 C582.583,167.882 570.595,169.826 564.277,173.391 C557.958,176.954 551.641,187.646 554.233,207.411 C556.825,227.176 571.892,237.706 571.892,237.706 C571.892,237.706 567.032,227.662 566.869,217.78 C566.707,207.896 569.623,202.552 573.025,204.819 C573.025,204.819 571.568,195.584 562.658,187.321 C562.658,187.321 580.802,188.942 585.554,219.615 C590.166,249.388 585.618,277.023 572.015,309.14 C576.079,303.525 578.209,299.755 578.209,299.755 C578.209,299.755 576.079,303.525 572.015,309.14 C571.604,310.111 571.185,311.086 570.757,312.067 C556.176,345.441 518.268,377.518 482.301,368.12 C479.572,367.409 476.877,366.532 474.22,365.502 C480.52,369.188 484.893,370.391 484.893,370.391 C484.893,370.391 480.52,369.188 474.22,365.502 C441.88,352.948 415.465,317.062 406.483,263.465 L397.41,256.337 L389.634,262.061 C389.634,262.061 399.03,304.291 407.616,322.275 C407.616,322.275 389.905,301.862 378.509,271.89 C378.509,271.89 388.553,338.421 434.78,379.029 C481.005,419.64 528.635,405.059 551.964,388.858 C556.534,385.685 560.967,381.948 565.143,377.997 C579.703,361.037 595.567,336.637 605.426,305.913 C619.36,262.494 610.286,221.926 610.286,221.926 Z" id="Fill-30" fill="#FFFFFE"></path>
            <path d="M422.035,190.994 C422.035,190.994 432.456,193.047 452.006,199.311 C452.006,199.311 446.012,195.342 429.812,189.185 C429.812,189.185 430.459,187.161 439.614,186.107 L416.365,178.331 C416.365,178.331 416.911,180.884 417.336,184.07 L424.141,186.836 L422.035,190.994" id="Fill-31" fill="#FFFFFE"></path>
            <path d="M429.378,246.294 L417.931,240.892 C417.931,240.892 424.303,255.473 427.867,272.43 C427.867,272.43 429.702,267.353 431.216,260.549 C431.216,260.549 439.964,266.273 446.229,267.893 C446.229,267.893 441.583,257.957 446.229,243.214 C450.872,228.472 457.353,218.752 452.006,199.311 C432.456,193.047 422.035,190.994 422.035,190.994 L424.141,186.836 L417.336,184.07 C417.604,186.088 417.824,188.359 417.824,190.401 C417.824,193.803 409.642,208.14 409.642,208.14 C409.642,208.14 418.903,216.915 429.378,246.294" id="Fill-32" fill="#78838E"></path>
            <path d="M379.158,194.882 C387.69,192.722 383.801,186.351 383.801,186.351 L387.69,181.381 C387.69,181.381 391.902,187.214 388.338,193.046 C384.775,198.878 377.214,198.770138 377.214,198.770138 L379.158,194.882 Z M380.454,215.619 L378.616,206.439 C378.616,206.439 383.37,208.814 389.527,206.655 C395.683,204.495 396.655,197.475 396.115,194.234 C396.115,194.234 391.146,208.924 376.674,200.607 C376.674,200.607 385.47,203.688 393.198,192.938 C398.165,186.026 395.358,173.391 395.358,173.391 L400.11,165.829 C400.11,165.829 380.886,173.821 370.841,194.234 C370.841,194.234 372.03,208.924 380.454,215.619 Z" id="Fill-33" fill="#0F151D"></path>
            <path d="M388.338,193.046 C391.902,187.214 387.69,181.381 387.69,181.381 L383.801,186.351 C383.801,186.351 387.69,192.722 379.158,194.882 L377.214,198.770138 C377.214,198.770138 384.775,198.878 388.338,193.046" id="Fill-34" fill="#DC3F2A"></path>
            <path d="M338.44,201.472 L338.44,206.763 C349.348,206.763 362.525,196.179 362.525,196.179 C349.347,202.442 338.44,201.472 338.44,201.472" id="Fill-35" fill="#0F151D"></path>
            <path d="M338.44,188.942 L338.44,195.422 C338.44,195.422 351.293,196.284 370.841,181.381 C370.841,181.381 354.748,188.942 338.44,188.942" id="Fill-36" fill="#0F151D"></path>
            <path d="M374.837,166.585 C374.837,166.585 357.556,173.714 342.867,174.902 L338.44,167.988 L338.44,182.057 C338.44,182.057 354.461,181.82 374.837,166.585" id="Fill-37" fill="#0F151D"></path>
            <path d="M578.209,336.692 C578.209,336.692 606.506,303.643 601.107,245.969 C601.107,245.969 594.734,301.052 578.209,336.692" id="Fill-38" fill="#0F151D"></path>
            <path d="M570.757,312.067 C571.185,311.086 571.604,310.111 572.015,309.14 C564.105,320.064 548.855,337.977 527.663,348.681 C495.586,364.881 464.805,336.692 464.805,336.692 L488.782,338.587 L488.817,278.135 L476.469,273.186 L488.824,268.018 L488.944,64.359 L451.682,27.098 L451.359,27.098 L436.697,61.687 L454.391,79.379 L454.391,181.607 C456.555,182.674 457.784,183.326 457.784,183.326 L454.391,185.143 L454.391,189.365 L461.566,192.614 C461.566,192.614 465.453,200.174 463.941,215.619 C462.62,229.108 456.029,238.56 454.391,251.53 L454.391,263.435 C455.903,275.645 461.566,281.825 461.566,281.825 C459.125,281.675 456.712,281.394 454.391,281.032 L454.391,348.637 C461.377,356.88 468.573,362.195 474.22,365.502 C476.877,366.532 479.572,367.409 482.301,368.12 C518.268,377.518 556.176,345.441 570.757,312.067" id="Fill-39" fill="#A8262B"></path>
            <path d="M433.699,70.029 L243.073,70.029 L230.868,82.235 L230.868,177.701 C239.447,173.893 251.762,169.001 264.565,165.829 L264.565,110.747 C264.565,110.747 274.053,94.186 291.998,89.47 L278.173,87.85 C278.173,87.85 296.75,69.273 338.44,79.858 C380.13,69.273 398.706,87.85 398.706,87.85 L384.881,89.47 C399.904,93.418 408.993,105.66 411.559,109.546 L446.607,82.935 L433.699,70.029" id="Fill-40" fill="#A8262B"></path>
            <path d="M436.697,61.687 L451.359,27.098 L408.534,27.098 L400.11,39.141 L400.651,27.098 L225.198,27.098 L187.936,64.359 L187.936,102.268 L198.143,107.129 L188.098,112.476 L188.098,338.587 L212.075,336.692 C212.075,336.692 181.293,364.881 149.216,348.681 C128.025,337.977 112.775,320.064 104.863,309.14 C105.276,310.111 105.693,311.086 106.123,312.067 C120.703,345.441 158.613,377.518 194.578,368.12 C197.307,367.409 200.002,366.532 202.658,365.502 C210.009,361.199 219.984,353.51 228.707,340.365 C229.459,339.231 230.179,338.087 230.868,336.93 L230.868,279.346 C226.334,280.457 220.894,281.481 215.315,281.825 C215.315,281.825 222.844,273.618 222.86,257.416 C222.874,241.216 214.45,231.063 212.939,215.619 C211.427,200.174 215.315,192.614 215.315,192.614 L226.763,187.43 L219.095,183.326 C219.095,183.326 223.668,180.895 230.868,177.701 L230.868,82.235 L243.073,70.029 L433.699,70.029 L446.607,82.935 L411.559,109.546 C412.058,110.301 412.315,110.747 412.315,110.747 L412.315,165.829 C430.315,170.287 447.356,178.149 454.391,181.607 L454.391,79.379 L436.697,61.687" id="Fill-41" fill="#DC3F2A"></path>
            <polyline id="Fill-42" fill="#FFFFFE" points="132.339 548.52 133.419 551.599 116.246 551.599 118.083 548.196 129.1 454.341 97.779 510.936 80.281 454.883 67.537 547.872 68.185 551.599 51.174 551.599 52.957 547.548 69.805 435.116 68.834 431.391 84.71 431.391 101.073 481.45 127.481 431.391 146.328 431.391 144.167 435.344 132.339 548.52"></polyline>
            <polygon id="Stroke-43" stroke="#78838E" stroke-width="1.28" points="132.339 548.52 133.419 551.599 116.246 551.599 118.083 548.196 129.1 454.341 97.779 510.936 80.281 454.883 67.537 547.872 68.185 551.599 51.174 551.599 52.957 547.548 69.805 435.116 68.834 431.391 84.71 431.391 101.073 481.45 127.481 431.391 146.328 431.391 144.167 435.344"></polygon>
            <path d="M182.579,523.23 L184.507,521.78 L180.306,495.416 L171.572,521.718 L172.896,523.23 L182.579,523.23 Z M187.312,552.195 L189.154,549.727 L186.409,537.778 C186.377,537.531 186.131,535.984 183.859,535.984 C183.859,535.984 168.736,535.984 168.735,535.984 C168.525,535.984 166.897,536.061 165.829,538.537 C164.686,541.19 162.151,548.145 161.62,549.605 L163.219,552.195 L143.829,552.195 L146.714,548.073 L173.408,479.699 L172.423,475.204 L192.062,475.204 L190.209,478.891 L204.408,547.411 L206.739,552.195 L187.312,552.195 Z" id="Fill-44" fill="#FFFFFE"></path>
            <path d="M172.246,521.581 L180.101,497.925 L183.861,521.518 L182.379,522.633 L173.167,522.633 L172.246,521.581 Z M193.031,474.606 L171.681,474.606 L171.998,476.056 L172.786,479.649 L146.184,547.789 L142.683,552.792 L164.29,552.792 L163.164,550.971 L162.28,549.538 C162.971,547.64 165.3,541.274 166.378,538.773 C167.303,536.626 168.658,536.582 168.716,536.581 L183.858,536.582 C185.668,536.582 185.797,537.71 185.802,537.758 L185.81,537.836 L185.827,537.911 L188.509,549.591 L187.544,550.884 L186.121,552.792 L207.693,552.792 L204.978,547.217 L190.836,478.973 L193.031,474.606 Z M172.625,523.826 L182.779,523.826 L185.154,522.041 L180.51,492.904 L170.898,521.852 L172.625,523.826 Z M191.094,475.8 L189.582,478.808 L203.839,547.605 L205.783,551.599 L188.501,551.599 L189.797,549.861 L186.991,537.643 C186.991,537.643 186.774,535.388 183.858,535.388 C180.942,535.388 168.737,535.388 168.737,535.388 C168.737,535.388 168.729,535.388 168.714,535.388 C168.483,535.388 166.5,535.472 165.282,538.301 C163.985,541.309 160.96,549.674 160.96,549.674 L162.149,551.599 L144.976,551.599 L147.244,548.356 L174.031,479.747 L173.165,475.8 L191.094,475.8 Z" id="Fill-45" fill="#78838E"></path>
            <polyline id="Fill-46" fill="#FFFFFE" points="266.809 552.195 268.914 548.015 270.96 501.754 250.132 538.547 232.59 502.531 229.718 548.243 231.56 552.195 212.805 552.195 214.915 548.009 219.437 479.824 217.919 475.204 234.678 475.204 250.985 510.401 271.103 475.204 287.438 475.204 285.652 479.866 283.714 547.87 285.523 552.195 266.809 552.195"></polyline>
            <path d="M288.306,474.606 L270.756,474.606 L270.412,475.207 L251.04,509.101 L235.38,475.298 L235.059,474.606 L217.095,474.606 L217.609,476.173 L218.833,479.899 L214.327,547.848 L211.835,552.792 L232.497,552.792 L230.323,548.128 L233.043,504.826 L250.092,539.828 L270.253,504.214 L268.324,547.86 L266.711,551.06 L265.839,552.792 L286.419,552.792 L285.728,551.138 L284.314,547.758 L286.245,479.984 L288.306,474.606 Z M286.57,475.8 L285.058,479.747 L283.113,547.981 L284.626,551.599 L267.778,551.599 L269.505,548.169 L271.665,499.294 L250.172,537.265 L232.136,500.235 L229.112,548.356 L230.623,551.599 L213.775,551.599 L215.503,548.169 L220.039,479.747 L218.743,475.8 L234.296,475.8 L250.929,511.702 L271.449,475.8 L286.57,475.8 Z" id="Fill-47" fill="#78838E"></path>
            <polyline id="Fill-48" fill="#FFFFFE" points="350.641 552.195 352.397 547.955 352.397 501.476 333.149 538.801 313.89 501.724 313.737 548.205 315.931 552.195 296.507 552.195 298.45 547.804 299.904 479.126 298.014 475.204 314.636 475.204 333.226 510.83 351.658 475.204 367.635 475.204 365.906 479.663 367.357 548.175 369.969 552.195 350.641 552.195"></polyline>
            <path d="M368.507,474.606 L351.294,474.606 L333.223,509.535 L315.331,475.248 L314.997,474.606 L297.063,474.606 L299.303,479.257 L297.856,547.671 L295.59,552.792 L316.94,552.792 L314.334,548.052 L314.479,504.152 L333.151,540.1 L351.799,503.935 L351.799,547.837 L349.748,552.792 L371.07,552.792 L369.87,550.947 L367.949,547.991 L366.504,479.768 L368.507,474.606 Z M366.763,475.8 L365.306,479.558 L366.763,548.356 L368.869,551.599 L351.534,551.599 L352.993,548.074 L352.993,499.016 L333.147,537.502 L313.301,499.294 L313.139,548.356 L314.921,551.599 L297.424,551.599 L299.044,547.935 L300.503,478.996 L298.963,475.8 L314.273,475.8 L333.228,512.125 L352.021,475.8 L366.763,475.8 Z" id="Fill-49" fill="#78838E"></path>
            <path d="M411.565,539.726 L413.3,538.1 L411.376,489.545 L409.449,487.628 L396.811,487.628 L395.235,489.113 L396.998,537.951 L398.765,539.726 L411.565,539.726 Z M390.531,552.195 L382.052,545.408 L380.091,481.113 L387.451,475.204 L418.172,475.204 L425.666,481.378 L429.587,545.367 L421.911,552.195 L390.531,552.195 Z" id="Fill-50" fill="#FFFFFE"></path>
            <path d="M397.047,488.225 L409.202,488.225 L410.788,489.803 L412.693,537.85 L411.328,539.128 L399.013,539.128 L397.587,537.695 L395.841,489.362 L397.047,488.225 Z M418.386,474.606 L387.241,474.606 L386.914,474.869 L379.949,480.462 L379.485,480.834 L381.463,545.701 L389.993,552.53 L390.321,552.792 L422.138,552.792 L422.477,552.49 L429.768,546.006 L430.201,545.62 L430.166,545.04 L426.246,481.082 L425.845,480.752 L418.717,474.879 L418.386,474.606 Z M398.517,540.321 L411.8,540.321 L413.908,538.348 L411.962,489.287 L409.696,487.031 L396.573,487.031 L394.628,488.864 L396.41,538.206 L398.517,540.321 Z M417.958,475.8 L425.086,481.674 L428.974,545.113 L421.684,551.599 L390.74,551.599 L382.64,545.113 L380.697,481.393 L387.661,475.8 L417.958,475.8 Z" id="Fill-51" fill="#78838E"></path>
            <polyline id="Fill-52" fill="#FFFFFE" points="456.435 552.195 458.339 547.556 453.836 489.189 451.627 487.628 438.611 487.628 433.623 488.963 435.248 475.204 484.168 475.204 488.502 488.82 483.02 487.628 470.497 487.628 468.478 489.268 473.622 547.752 476.178 552.195 456.435 552.195"></polyline>
            <path d="M484.605,474.606 L434.717,474.606 L434.592,475.66 L432.927,489.767 L434.628,489.311 L438.689,488.225 L451.437,488.225 L453.262,489.516 L457.733,547.46 L455.544,552.792 L477.209,552.792 L476.181,551.003 L474.205,547.568 L469.1,489.531 L470.709,488.225 L482.955,488.225 L487.366,489.185 L489.385,489.623 L484.869,475.437 L484.605,474.606 Z M483.732,475.8 L487.62,488.018 L483.084,487.031 L470.285,487.031 L467.855,489.005 L473.039,547.935 L475.146,551.599 L457.325,551.599 L458.945,547.651 L454.409,488.864 L451.817,487.031 L438.533,487.031 L434.32,488.158 L435.779,475.8 L483.732,475.8 Z" id="Fill-53" fill="#78838E"></path>
            <polyline id="Fill-54" fill="#FFFFFE" points="534.072 552.195 535.451 548.426 532.253 521.435 530.318 519.63 517.515 519.63 515.785 521.367 518.497 547.337 521.001 552.195 502.25 552.195 503.378 547.608 496.597 479.879 494.072 475.204 512.06 475.204 510.746 479.892 513.619 505.038 516.013 506.877 528.346 506.877 529.929 505.154 527.054 479.724 524.909 475.204 542.807 475.204 541.689 480.008 551.056 547.464 553.579 552.195 534.072 552.195"></polyline>
            <path d="M543.558,474.606 L523.966,474.606 L526.472,479.89 L529.305,504.95 L528.083,506.279 L516.215,506.279 L514.184,504.719 L511.353,479.939 L512.422,476.122 L512.848,474.606 L493.071,474.606 L496.014,480.057 L502.774,547.565 L501.488,552.792 L521.98,552.792 L519.079,547.163 L516.409,521.587 L517.763,520.227 L530.082,520.227 L531.686,521.722 L534.841,548.354 L533.218,552.792 L554.575,552.792 L551.632,547.276 L542.295,480.035 L543.558,474.606 Z M542.054,475.8 L541.082,479.98 L550.479,547.651 L552.584,551.599 L534.926,551.599 L536.06,548.497 L532.82,521.146 L530.552,519.032 L517.267,519.032 L515.161,521.146 L517.915,547.511 L520.022,551.599 L503.011,551.599 L503.983,547.651 L497.178,479.7 L495.073,475.8 L511.273,475.8 L510.14,479.843 L513.055,505.357 L515.809,507.474 L528.608,507.474 L530.552,505.357 L527.636,479.558 L525.854,475.8 L542.054,475.8 Z" id="Fill-55" fill="#78838E"></path>
            <polyline id="Fill-56" fill="#FFFFFE" points="575.368 552.238 564.188 543.462 561.575 523.207 559.706 518.937 579.09 518.937 577.755 522.675 579.004 533.29 583.814 537.298 604.497 537.298 608.607 533.384 604.153 503.471 599.529 499.048 568.881 499.048 557.708 489.885 550.02 430.807 599.811 430.807 609.669 439.545 612.927 460.186 615.534 465.136 596.894 465.136 597.624 459.533 596.162 449.926 591.125 445.694 571.787 445.694 568.052 450.217 571.872 480.144 577.329 484.592 608.024 484.592 618.309 493.979 626.389 543.331 617.99 552.238 575.368 552.238"></polyline>
            <path d="M600.053,430.166 L549.29,430.166 L549.479,431.611 L557.04,489.716 L557.106,490.219 L557.497,490.54 L568.297,499.397 L568.652,499.688 L599.272,499.688 L603.551,503.782 L607.925,533.149 L604.241,536.657 L584.045,536.657 L579.61,532.961 L578.408,522.748 L579.387,520.007 L579.997,518.297 L558.727,518.297 L560.951,523.379 L563.52,543.284 L563.586,543.804 L563.998,544.127 L574.799,552.605 L575.148,552.878 L618.266,552.878 L618.645,552.477 L627.071,543.54 L626.969,542.915 L618.976,494.096 L618.905,493.657 L618.576,493.357 L608.272,483.951 L577.557,483.951 L572.475,479.81 L568.722,450.409 L572.088,446.334 L590.892,446.334 L595.566,450.26 L596.978,459.54 L596.165,465.776 L616.593,465.776 L615.606,463.899 L613.542,459.981 L610.336,439.671 L610.265,439.218 L600.416,430.488 L600.053,430.166 Z M599.568,431.446 L609.072,439.871 L612.311,460.391 L614.473,464.496 L597.622,464.496 L598.27,459.526 L596.758,449.591 L591.359,445.054 L571.486,445.054 L567.382,450.021 L571.27,480.478 L577.102,485.231 L607.776,485.231 L617.713,494.303 L625.705,543.122 L617.713,551.599 L575.59,551.599 L564.789,543.12 L562.198,523.033 L560.685,519.576 L578.181,519.576 L577.102,522.601 L578.398,533.618 L583.582,537.936 L604.753,537.936 L609.288,533.618 L604.753,503.16 L599.785,498.408 L569.109,498.408 L558.309,489.551 L550.748,431.446 L599.568,431.446 Z" id="Fill-57" fill="#78838E"></path>
            <polyline id="Fill-58" fill="#0F151D" points="231.3 410.434 442.989 410.434 407.852 382.427 268.886 382.427 231.3 410.434"></polyline>
            <polyline id="Fill-59" fill="#DC402A" points="173.218 461.401 177.087 465.271 165.957 465.271 169.826 461.401 169.826 446.498 165.957 442.627 176.287 442.627 188.728 453.758 201.265 442.627 211.755 442.627 207.885 446.498 207.885 461.401 211.755 465.271 197.107 465.271 200.978 461.401 200.978 446.242 185.946 459.643 173.218 448.289 173.218 461.401"></polyline>
            <path d="M231.634,447.969 L225.43,456.924 L237.583,456.924 L231.634,447.969 Z M237.231,465.271 L240.781,461.753 L239.117,459.194 L223.895,459.194 L222.167,461.753 L225.717,465.271 L214.588,465.271 L218.81,461.369 L231.858,442.627 L235.76,442.627 L248.522,461.369 L252.711,465.271 L237.231,465.271 Z" id="Fill-60" fill="#DC402A"></path>
            <path d="M273.617,465.592 C261.912,465.592 254.172,460.505 254.172,453.949 C254.172,447.233 262.105,442.309 273.617,442.309 C279.502,442.309 282.636,443.363 285.067,443.973 L285.067,450.368 L278.863,445.794 C277.743,444.963 275.792,444.259 273.617,444.259 C264.983,444.259 262.68,449.535 262.68,453.949 C262.68,458.363 265.302,463.64 273.617,463.64 C275.792,463.64 277.679,462.969 278.863,462.104 L285.067,457.53 L285.067,463.96 C282.828,464.633 279.949,465.592 273.617,465.592" id="Fill-61" fill="#DC402A"></path>
            <polyline id="Fill-62" fill="#DC402A" points="313.233 465.271 313.233 462.777 300.312 454.43 300.312 461.401 304.182 465.271 289.535 465.271 293.405 461.401 293.405 446.498 289.535 442.627 304.182 442.627 300.312 446.498 300.312 452.99 314.704 445.794 311.89 442.627 325.962 442.627 306.773 452.223 327.625 465.271 313.233 465.271"></polyline>
            <polyline id="Fill-63" fill="#DC402A" points="329.789 465.271 333.659 461.401 333.659 446.498 329.789 442.627 344.438 442.627 340.568 446.498 340.568 461.401 344.438 465.271 329.789 465.271"></polyline>
            <polyline id="Fill-64" fill="#DC402A" points="356.681 461.401 360.551 465.271 349.581 465.271 353.449 461.401 353.449 446.498 349.581 442.627 359.719 442.627 379.26 456.987 379.26 446.498 375.39 442.627 386.36 442.627 382.491 446.498 382.491 466.966 356.681 448.289 356.681 461.401"></polyline>
            <polyline id="Fill-65" fill="#DC402A" points="397.64 461.401 401.51 465.271 390.54 465.271 394.41 461.401 394.41 446.498 390.54 442.627 400.677 442.627 420.218 456.987 420.218 446.498 416.348 442.627 427.318 442.627 423.449 446.498 423.449 466.966 397.64 448.289 397.64 461.401"></polyline>
            <path d="M450.206,444.067 C441.573,444.067 439.269,449.472 439.269,453.949 C439.269,458.427 441.573,463.831 450.206,463.831 C458.843,463.831 461.145,458.427 461.145,453.949 C461.145,449.472 458.843,444.067 450.206,444.067 Z M450.206,465.752 C438.246,465.752 430.763,460.186 430.763,453.949 C430.763,447.714 438.246,442.148 450.206,442.148 C462.167,442.148 469.653,447.714 469.653,453.949 C469.653,460.186 462.167,465.752 450.206,465.752 Z" id="Fill-66" fill="#DC402A"></path>
            <polyline id="Fill-67" fill="#DC402A" points="480.514 461.401 484.384 465.271 473.414 465.271 477.284 461.401 477.284 446.498 473.414 442.627 483.551 442.627 503.092 456.987 503.092 446.498 499.222 442.627 510.192 442.627 506.324 446.498 506.324 466.966 480.514 448.289 480.514 461.401"></polyline>
            <path d="M527.9,465.526 C526.557,465.526 523.775,465.303 522.815,465.208 L513.413,464.151 L517.954,459.259 L521.472,462.008 C523.073,463.256 526.013,463.896 527.933,463.896 C533.946,463.896 534.936,461.944 534.936,460.539 C534.936,459.002 533.913,458.267 530.524,457.275 L522.847,455.005 C517.602,453.437 515.492,451.551 515.492,448.481 C515.492,444.131 521.632,442.404 527.773,442.404 C529.82,442.404 532.858,442.692 534.04,442.819 L540.853,443.651 L536.599,448.224 L533.081,445.762 C531.993,444.994 529.308,444.164 527.676,444.164 C523.519,444.164 521.951,445.347 521.951,446.913 C521.951,448.258 523.038,449.057 527.9,450.496 L534.297,452.383 C539.479,453.918 541.268,455.709 541.268,458.492 C541.268,462.426 536.856,465.526 527.9,465.526" id="Fill-68" fill="#DC402A"></path>
        </g>
    </g>
</svg>