<?xml version="1.0" encoding="UTF-8" standalone="no"?>
<svg width="767px" height="629px" viewBox="0 0 767 629" version="1.1" xmlns="http://www.w3.org/2000/svg" xmlns:xlink="http://www.w3.org/1999/xlink">
    <!-- Generator: Sketch 49.1 (51147) - http://www.bohemiancoding.com/sketch -->
    <title>McColgansMarauders_Alternate</title>
    <desc>Created with Sketch.</desc>
    <defs>
        <polygon id="path-1" points="0 0.453 766.1 0.453 766.1 628.94 0 628.94"></polygon>
    </defs>
    <g id="Page-1" stroke="none" stroke-width="1" fill="none" fill-rule="evenodd">
        <g id="McColgansMarauders_Alternate">
            <g id="Group-3">
                <mask id="mask-2" fill="white">
                    <use xlink:href="#path-1"></use>
                </mask>
                <g id="Clip-2"></g>
                <path d="M141.971,49.399 C231.781,11.469 330.549,-5.113 427.807,2.102 C499.165,6.825 569.307,25.027 634.868,53.373 C641.648,56.537 649.827,59.482 653.069,66.868 C655.253,70.983 655.048,75.766 654.971,80.271 C660.97,85.086 667.158,89.683 672.548,95.2 C677.863,100.654 685.296,103.693 692.869,103.958 C705.805,105.142 717.757,99.454 729.631,95.325 C725.316,110.113 720.016,124.746 712.053,138.008 C710.324,140.455 709.061,144.413 712.74,145.862 C721.561,143.976 731.329,142.215 739.777,146.47 C759.63,155.291 768.249,181.44 759.38,200.857 C756.778,206.467 751.778,210.348 747.553,214.665 C759.537,233.224 768.406,255.275 765.568,277.748 C763.542,294.718 752.43,309.257 738.562,318.639 C731.893,317.596 724.395,316.317 718.41,320.337 C712.879,323.204 709.7,328.738 707.301,334.254 C695.036,340.285 680.7,339.428 667.889,335.734 C673.141,345.022 673.983,356.477 669.356,366.185 C655.485,394.578 631.578,417.391 603.7,431.916 C587.866,440.068 571.208,446.752 553.927,451.117 C565.068,470.455 574.357,493.302 568.667,515.882 C562.357,540.3 542.426,557.584 522.854,571.858 C523.196,568.679 523.508,565.484 523.851,562.321 C503.466,580.835 476.445,590.091 449.53,593.644 C434.228,609.353 413.595,618.251 393.461,626.011 C388.988,627.46 384.189,630.532 379.497,628.084 C361.7,621.447 343.748,614.34 328.352,603.009 C323.21,599.503 319.469,593.27 312.705,592.851 C287.399,589.062 262.697,579.402 243.203,562.525 C243.858,565.624 244.216,568.803 244.854,571.919 C226.964,559.624 209.776,544.338 201.251,523.893 C196.297,512.094 195.922,498.989 198.213,486.523 C188.832,473.104 184.031,456.946 182.504,440.752 C153.596,428.863 126.869,410.209 108.855,384.356 C101.703,374.536 94.378,363.443 94.83,350.788 C94.581,345.286 97.402,340.424 99.568,335.577 C86.773,338.882 72.499,341.017 60.141,335.127 C54.842,329.984 52.676,321.304 44.776,319.044 C39.149,315.974 32.807,318.794 26.979,317.906 C15.432,311.438 3.058,302.385 0.673,288.438 C-1.711,281.363 2.715,274.708 6.487,269.082 C11.13,262.07 17.846,256.834 24.61,252.003 C21.166,248.248 17.193,244.679 15.353,239.801 C12.158,231.075 13.374,221.319 17.567,213.138 C12.486,208.586 7.265,203.554 5.411,196.744 C-0.527,179.102 7.172,158.064 23.005,148.34 C32.153,142.637 43.84,142.917 53.752,146.376 C54.967,143.93 58.053,141.094 55.699,138.366 C47.409,125.058 41.799,110.315 37.42,95.308 C52.739,101.231 70.24,108.213 86.4,101.059 C95.5,96.073 101.75,87.3 110.539,81.783 C113.172,76.983 111.256,70.297 114.653,65.497 C121.057,56.459 132.419,53.778 141.971,49.399" id="Fill-1" fill="#F6BF36" mask="url(#mask-2)"></path>
            </g>
            <path d="M387.289,11.546 C470.115,11.532 552.539,29.966 628.463,62.786 C633.791,65.295 640.4,66.978 643.532,72.448 C644.53,77.403 643.922,82.531 644.047,87.548 C657.947,93.314 665.738,107.963 680.124,112.778 C690.456,116.752 701.846,115.146 712.286,112.467 C708.219,122.487 703.702,132.476 696.704,140.845 C699.633,148.916 705.336,155.775 712.694,160.2 C718.646,154.278 728.044,153.421 735.554,156.615 C749.361,163.518 755.719,181.845 749.439,195.855 C747.226,200.951 742.442,204.13 737.488,206.155 C737.488,210.565 736.924,214.96 736.988,219.371 C747.819,234.362 755.595,252.455 754.831,271.249 C754.989,285.134 747.646,298.941 735.991,306.437 C725.033,305.861 712.926,307.809 705.385,316.55 C701.831,320.103 700.412,326.664 694.553,327.024 C683.77,329.64 672.737,326.244 663.027,321.615 C660.954,327.88 657.48,333.57 652.868,338.288 C656.11,340.785 660.034,343.292 660.907,347.625 C663.137,357.753 656.981,366.887 651.589,374.834 C639.823,392.443 624.038,407.262 605.775,417.97 C584.453,430.42 560.924,438.82 536.908,444.274 C539.279,450.336 543.486,455.37 546.6,461.027 C553.693,473.493 559.537,487.271 559.49,501.856 C559.177,518.531 550.123,534.068 537.611,544.695 C537.842,540.177 538.17,535.672 538.156,531.17 C531.237,536.716 526.406,544.277 520.047,550.401 C502.858,568.335 478.517,577.578 454.393,581.396 C456.763,576.986 458.663,572.231 458.351,567.105 C449.546,572.716 445.619,582.986 437.811,589.64 C422.431,603.15 402.92,610.334 384.157,617.752 C365.16,611.052 345.805,603.461 330.316,590.247 C321.979,583.578 317.926,572.871 308.795,567.152 C308.545,572.357 310.431,577.219 313.236,581.52 C294.613,578.435 276.053,572.512 260.453,561.666 C247.816,553.812 240.087,540.707 228.99,531.185 C229.022,535.875 229.381,540.55 229.66,545.241 C219.64,535.581 210.897,523.657 208.607,509.632 C205.942,496.2 210.103,482.595 215.713,470.47 C218.066,466.371 214.746,462.025 213.937,457.927 C209.153,463.397 207.361,470.519 205.226,477.282 C197.323,463.988 193.225,448.638 193.646,433.179 C177.471,427.256 162.012,419.246 148.112,409.055 C133.244,398.069 120.917,383.873 111.287,368.148 C107.702,362.024 104.539,354.792 106.3,347.577 C107.39,343.431 110.975,340.876 114.139,338.367 C109.463,333.475 105.77,327.694 103.853,321.179 C92.274,326.696 78.873,330.497 66.344,325.698 C62.604,317.766 56.042,310.988 47.534,308.337 C41.799,306.032 35.566,306.905 29.582,306.297 C21.976,301.886 13.531,296.09 11.644,286.864 C10.366,282.859 13.265,279.274 15.136,276.016 C22.101,264.922 34.132,258.236 46.428,254.682 C46.396,250.367 46.38,246.05 46.303,241.749 C43.358,242.638 40.475,243.728 37.935,245.505 C31.7,243.853 25.514,239.349 24.766,232.507 C22.99,223.111 29.144,215.069 34.053,207.745 C27.135,206.077 20.091,202.509 16.911,195.777 C10.554,182.141 16.85,164.049 30.143,157.082 C37.841,153.249 47.737,154.308 54.11,160.215 C61.263,155.104 66.764,148.076 70.301,140.049 C64.037,131.603 58.707,122.455 55.154,112.529 C65.206,115.163 76.052,116.627 86.088,113.09 C100.908,108.492 108.872,93.501 123.005,87.564 C123.099,80.224 120.932,69.954 129.831,66.837 C210.29,30.153 298.774,10.549 387.289,11.546" id="Fill-4" fill="#1B1A19"></path>
            <path d="M295.953,31.822 C337.967,25.291 380.698,24.076 423.116,26.538 C472.158,29.686 520.656,39.441 567.483,54.293 C567.936,57.004 568.34,59.731 568.808,62.458 C570.304,60.433 571.753,58.375 573.233,56.349 C590.595,62.007 607.58,68.771 624.426,75.797 C626.701,76.827 629.771,78.151 629.742,81.113 C630.474,89.964 629.804,98.862 630.005,107.729 C631.501,104.55 632.997,101.371 634.697,98.285 C649.501,103.179 657.23,118.59 671.645,124.092 C677.24,126.445 683.365,126.866 689.349,127.256 C681.65,132.787 672.892,137.54 663.2,137.899 C650.045,138.788 638.125,132.413 626.501,127.24 C590.205,111.048 552.29,98.441 513.487,89.886 C512.224,89.652 511.039,89.231 509.935,88.639 C509.185,84.588 508.749,80.49 508.111,76.421 C506.506,80.114 504.807,83.762 503.061,87.392 C405.693,68.147 303.449,72.322 208.544,101.823 C204.025,103.256 199.507,104.69 194.924,105.89 C194.223,104.706 192.852,102.337 192.167,101.152 C191.434,103.412 190.718,105.688 190,107.948 C169.508,114.695 149.623,123.125 129.987,132.024 C119.936,136.699 108.45,139.613 97.433,136.918 C90.326,135.436 83.984,131.665 78.281,127.318 C87.88,126.944 97.776,124.7 105.334,118.435 C114.217,111.998 120.98,101.791 132.013,98.893 C135.02,100.748 135.567,104.878 137.156,107.885 C137.825,97.771 135.504,87.252 138.777,77.466 C186.727,56.817 236.985,40.953 288.676,33.083 C290.998,36.309 293.32,39.536 295.751,42.667 C295.845,39.053 295.922,35.436 295.953,31.822" id="Fill-5" fill="#F6BF37"></path>
            <path d="M317.693,44.054 C322.804,43.462 328.43,42.122 333.199,44.849 C338.046,47.825 337.921,55.337 334.429,59.326 C329.988,63.674 323.428,63.783 317.662,64.578 C317.756,57.737 317.756,50.895 317.693,44.054" id="Fill-6" fill="#F7C036"></path>
            <path d="M267.591,56.178 C269.539,58.937 271.472,61.726 273.451,64.469 C269.571,65.232 265.69,66.012 261.81,66.774 C263.774,63.269 265.69,59.731 267.591,56.178" id="Fill-7" fill="#F9C83D"></path>
            <path d="M529.942,61.633 C540.104,56.848 553.319,66.682 550.062,77.95 C548.004,84.213 539.512,82.406 535.086,79.866 C528.308,76.655 526.67,67.959 529.942,61.633" id="Fill-8" fill="#F6BE36"></path>
            <path d="M211.755,65.466 C215.588,64.266 219.64,63.299 223.489,64.983 C222.211,70.64 216.82,72.76 211.708,73.57 C211.708,70.858 211.724,68.161 211.755,65.466" id="Fill-9" fill="#F6BF33"></path>
            <path d="M161.717,82.935 C164.505,81.969 167.28,81.05 170.069,80.114 C174.229,86.223 165.97,89.216 161.654,91.226 C161.654,88.451 161.669,85.694 161.717,82.935" id="Fill-10" fill="#F8C434"></path>
            <path d="M366.048,89.419 C374.433,89.652 382.832,89.169 391.216,89.403 C391.139,119.931 391.216,150.444 391.172,180.973 C390.952,185.243 392.668,189.902 396.734,191.834 C400.597,193.891 405.227,191.258 406.645,187.424 C408.763,181.877 408.703,175.846 408.78,170.001 C408.795,143.26 408.78,116.519 408.78,89.777 C417.164,90.072 425.486,91.196 433.884,91.273 C430.986,93.937 427.915,97.132 428.322,101.402 C428.289,132.024 428.26,162.645 428.338,193.268 C428.182,197.507 431.281,200.64 433.838,203.615 C426.419,202.946 418.986,202.26 411.538,201.949 C411.116,199.766 410.666,197.601 410.243,195.434 C402.248,206.592 382.099,206.981 375.025,194.623 C372.22,189.481 371.8,183.466 371.566,177.731 C371.55,151.737 371.613,125.76 371.55,99.765 C371.939,95.464 368.994,92.13 366.048,89.419" id="Fill-11" fill="#FFFFFE"></path>
            <path d="M311.709,93.314 C323.241,92.769 334.695,91.07 346.242,90.571 C343.218,93.922 341.722,98.379 343.125,102.805 C349.156,131.946 355.031,161.119 361.077,190.261 C361.607,195.154 365.316,198.567 368.869,201.543 C358.6,201.87 348.315,202.073 338.108,203.272 C340.429,200.436 342.814,197.18 341.847,193.253 C340.133,182.78 337.656,172.449 335.629,162.022 C323.832,167.258 315.246,178.059 310.93,190.01 C309.449,193.999 309.059,198.333 310.135,202.477 C313.874,201.558 317.584,200.484 321.355,199.673 C313.781,208.011 302,213.043 290.764,210.207 C278.375,207.963 269.118,196.26 268.526,183.887 C268.121,178.027 268.884,171.202 264.475,166.573 C261.732,163.535 257.368,164.235 253.722,163.94 C253.675,177.965 253.613,191.991 253.722,206.015 C253.457,209.755 256.402,212.374 258.459,215.117 C238.933,218.778 219.874,224.576 200.955,230.56 C202.841,227.256 205.365,223.765 204.446,219.729 C202.779,210.316 200.409,201.044 198.805,191.631 C188.862,197.881 182.161,208.042 177.175,218.435 C174.542,224.264 172.421,230.622 173.559,237.088 C176.614,236.31 179.606,235.328 182.567,234.285 C180.057,239.427 177.034,244.897 171.455,247.187 C161.808,251.348 149.404,249.728 142.439,241.39 C138.293,244.039 133.681,245.879 128.787,246.627 C133.634,241.453 137.809,235.064 137.639,227.693 C137.764,209.522 137.841,191.335 137.608,173.165 C135.504,169.362 131.358,166.916 128.57,163.55 C125.172,165.856 121.728,168.084 118.159,170.141 C118.066,198.145 118.097,226.149 118.144,254.153 C117.941,258.969 120.169,263.442 123.8,266.512 C112.455,267.493 107.017,255.649 97.168,252.89 C99.615,249.057 101.142,244.601 101.017,240.02 C101.017,219.355 100.986,198.692 101.017,178.027 C96.435,175.675 92.228,172.682 87.864,169.954 C84.685,172.245 79.948,174.629 80.898,179.304 C80.976,211.423 80.82,243.556 80.976,275.675 C88.94,275.534 96.483,272.682 103.058,268.288 C101.936,273.617 100.612,279.102 97.199,283.497 C93.396,289.091 87.273,292.302 81.522,295.512 C74.337,289.341 66.499,283.482 57.134,281.16 C46.724,278.246 33.726,279.633 26.542,288.546 C25.374,280.1 33.073,274.631 39.57,271.17 C46.07,267.477 53.674,266.574 61.013,267.353 C60.749,255.712 61.169,244.055 60.842,232.43 C60.67,228.019 56.978,223.874 52.411,223.968 C47.145,223.422 42.812,226.897 38.527,229.375 C39.664,218.639 50.667,211.329 61.045,212.451 C60.842,203.818 60.952,195.185 60.967,186.536 C51.289,189.528 39.633,191.522 30.783,185.29 C23.769,180.879 24.408,168.319 32.776,165.778 C37.888,163.144 44.432,165.903 45.586,171.669 C43.794,174.569 41.207,176.781 38.231,178.417 C40.802,180.77 44.028,182.795 47.566,181.003 C63.382,175.205 74.556,160.714 80.572,145.426 C86.946,152.828 95.361,157.955 104.165,161.945 C114.466,157.02 124.236,150.522 131.592,141.686 C136.299,153.047 147.021,161.773 159.222,163.643 C156.962,166.355 154.749,169.425 154.952,173.15 C154.781,187.627 155,202.119 154.844,216.613 C154.735,223.422 155.685,231.199 161.341,235.749 C167.06,202.369 173.262,169.082 179.092,135.733 C180.12,132.336 177.829,129.64 175.741,127.318 C186.463,123.344 197.323,119.776 208.077,115.879 C206.082,120.164 204.244,124.808 205.74,129.593 C211.521,157.41 217.256,185.243 223.161,213.043 C223.754,216.955 226.792,219.574 230.066,221.412 C232.418,217.641 234.928,213.59 234.428,208.945 C234.366,178.729 234.554,148.512 234.335,118.294 C234.787,114.477 231.639,112.186 229.068,110.035 C240.71,107.058 252.319,103.428 264.319,102.259 C272.687,101.371 282.208,103.926 286.696,111.594 C294.972,126.678 290.39,150.008 272.842,156.147 C279.778,158.439 285.933,163.814 286.884,171.389 C288.193,181.222 286.822,193.471 296.546,199.532 C302.857,167.804 309.106,136.06 315.246,104.3 C316.43,100.17 314.669,96.182 311.709,93.314" id="Fill-12" fill="#FFFFFE"></path>
            <path d="M161.606,94.888 C165.455,93.906 172.827,89.34 174.401,95.231 C172.499,100.717 166.437,102.431 161.622,104.472 C161.606,101.277 161.606,98.083 161.606,94.888" id="Fill-13" fill="#F7C037"></path>
            <path d="M445.369,92.519 C460.111,94.795 476.834,93.922 488.911,104.13 C501.673,114.85 506.161,132.102 507.535,148.06 C508.609,163.254 507.892,179.289 501.081,193.206 C496.844,201.979 487.913,209.085 477.782,208.555 C466.907,207.823 456.216,205.252 445.308,204.738 C448.066,202.104 451.213,199.143 450.78,194.951 C450.84,164.298 450.84,133.644 450.78,102.976 C450.98,98.721 447.956,95.511 445.369,92.519" id="Fill-14" fill="#FFFFFE"></path>
            <path d="M470.459,105.89 C476.864,108.43 481.712,113.792 484.048,120.227 C489.455,134.564 489.114,150.241 488.817,165.327 C488.037,175.05 487.959,185.975 481.368,193.861 C478.643,197.18 474.246,197.569 470.273,197.491 C470.365,166.947 469.977,136.418 470.459,105.89" id="Fill-15" fill="#1B1A19"></path>
            <path d="M518.116,104.784 C533.372,108.773 548.519,113.09 563.651,117.547 C565.239,116.892 566.845,116.237 568.418,115.505 C571.581,128.487 575.492,141.281 578.596,154.278 C573.793,144.522 568.217,134.267 558.647,128.44 C553.677,125.806 548.129,124.559 542.689,123.297 C542.723,135.702 542.799,148.09 542.628,160.48 C550.685,157.441 560.376,156.287 567.983,161.135 C574.59,164.765 579.312,173.476 575.728,180.723 C571.519,188.935 557.136,188.78 554.316,179.523 C551.948,174.957 555.859,170.765 560.081,169.612 C554.065,166.059 548.052,170.329 542.723,173.041 C542.675,185.819 542.815,198.598 542.644,211.392 C549.548,213.167 556.248,216.737 563.542,216.364 C571.255,215.755 576.474,209.413 581.213,204.005 C577.724,213.292 574.823,222.799 571.737,232.227 C554.191,226.523 536.472,221.257 518.489,217.111 C521.073,214.976 523.974,212.482 523.802,208.79 C524.037,198.832 523.755,188.873 523.897,178.916 C519.673,177.357 515.808,175.05 512.255,172.308 C516.105,172.463 519.939,172.65 523.787,172.619 C523.959,154.075 523.865,135.53 523.851,116.985 C524.178,112.171 521.091,108.213 518.116,104.784" id="Fill-16" fill="#FFFFFE"></path>
            <path d="M253.644,114.289 C258.365,113.51 264.116,112.638 267.732,116.596 C272.719,122.19 271.752,130.544 270.598,137.37 C269.056,146.003 262.215,152.968 253.69,154.886 C253.628,141.358 253.722,127.832 253.644,114.289" id="Fill-17" fill="#1B1A19"></path>
            <path d="M315.87,164.173 C318.721,147.436 322.991,130.933 325.173,114.088 C328.898,126.43 330.581,139.27 333.573,151.799 C326.856,154.651 321.137,159.187 315.87,164.173" id="Fill-18" fill="#191817"></path>
            <path d="M583.987,124.403 C599.602,131.261 617.072,135.359 630.1,146.954 C641.304,156.615 645.465,172.963 641.693,187.066 C640.073,192.582 635.6,196.697 630.177,198.411 C634.976,203.008 639.526,208.416 640.463,215.225 C641.974,225.729 639.934,236.685 643.344,246.922 C644.859,251.848 649.204,254.949 653.49,257.348 C652.118,249.649 649.89,241.795 651.401,233.958 C653.085,225.62 660.831,218.857 669.417,218.778 C682.21,218.451 695.348,224.374 702.968,234.783 C706.599,239.879 709.031,246.455 707.331,252.72 C705.883,257.099 700.24,259.468 696.204,256.943 C689.971,253.577 685.093,245.629 687.915,238.57 C689.004,238.086 691.203,237.105 692.309,236.606 C688.195,232.819 683.207,229.547 677.396,229.593 C673.343,229.375 668.326,229.219 665.723,232.991 C662.248,238.164 663.979,244.803 666.098,250.164 C670.523,259.654 677.831,267.54 685.949,274.023 C695.348,269.394 705.976,267.135 716.356,269.425 C721.778,262.6 723.321,253.328 720.594,245.068 C715.639,229.656 704.465,216.364 690.456,208.369 C683.41,204.332 673.202,202.291 667.032,208.899 C666.751,203.959 668.792,199.549 670.773,195.201 C661.641,186.271 653.879,176.048 647.569,164.952 C662.045,163.862 675.401,156.101 685.016,145.472 C692.138,157.472 701.753,168.147 713.425,175.846 C717.241,178.37 722.557,180.77 726.717,177.591 C724.49,174.099 718.365,172.089 720.406,166.791 C725.986,158.703 739.293,165.997 739.092,174.614 C739.262,181.829 732.047,186.863 725.378,187.159 C710.682,187.986 697.637,179.102 688.288,168.536 C683.942,172.106 679.018,174.864 673.967,177.295 C682.476,186.256 690.768,196.697 703.031,200.484 C709.075,202.213 716.79,203.787 721.561,198.504 C724.847,203.943 722.759,211.173 716.761,213.512 C731.143,226.601 742.583,244.991 741.741,265.077 C742.131,273.431 740.213,281.97 735.15,288.749 C729.681,281.534 719.628,280.194 711.211,281.285 C701.129,282.921 693.135,290.042 686.761,297.585 C673.564,289.887 662.28,278.433 656.389,264.189 C646.947,263.068 637.299,259.374 631.532,251.458 C624.879,242.98 622.012,232.087 622.027,221.443 C622.073,215.35 621.81,208.899 618.488,203.583 C616.059,199.736 611.803,197.771 607.94,195.73 C607.722,208.446 607.846,221.178 607.846,233.895 C607.472,239.208 610.262,243.884 612.958,248.216 C603.452,244.055 593.835,240.049 583.94,236.871 C584.922,236.248 586.868,235.033 587.835,234.424 C588.865,231.76 589.644,228.971 589.473,226.103 C589.394,196.462 589.489,166.823 589.44,137.198 C589.52,132.336 586.637,128.206 583.987,124.403" id="Fill-19" fill="#FFFFFE"></path>
            <path d="M179.092,197.99 C182.739,180.287 184.935,162.272 189.314,144.724 C191.106,157.005 194.006,169.114 196.607,181.238 C189.829,185.756 184.172,191.662 179.092,197.99" id="Fill-20" fill="#1A1917"></path>
            <path d="M607.846,144.522 C614.624,147.156 621.138,151.955 623.368,159.187 C625.612,166.682 626.391,175.985 620.95,182.36 C617.665,186.069 612.505,186.614 607.877,186.801 C607.8,172.698 607.83,158.61 607.846,144.522" id="Fill-21" fill="#1B1A19"></path>
            <path d="M123.769,278.932 C185.777,248.653 252.537,227.661 321.137,219.371 C321.183,219.557 321.277,219.916 321.34,220.103 C313.594,223.329 307.377,230.061 298.759,230.996 C280.697,234.019 262.775,237.947 245.12,242.839 C252.023,246.549 259.55,251.738 260.516,260.231 C262.697,271.639 252.053,282.111 240.896,281.8 C235.13,282.657 228.773,278.823 227.9,272.869 C227.339,266.807 235.176,262.117 240.258,265.685 C243.545,267.291 243.53,271.28 244.31,274.334 C248.61,270.797 252.459,264.891 249.592,259.281 C245.089,249.245 231.561,246.143 222.258,251.239 C210.68,256.958 206.955,270.485 203.901,281.986 C200.223,294.655 196.015,308.368 185.528,317.159 C174.401,326.226 158.459,329.453 144.791,324.856 C135.083,321.195 126.528,313.325 123.52,303.212 C122.055,298.27 122.819,293.066 123.333,288.048 C117.395,291.18 111.365,294.111 105.428,297.242 C107.797,293.113 109.9,288.765 112.97,285.102 C116.134,282.391 120.108,280.848 123.769,278.932" id="Fill-22" fill="#F6BF36"></path>
            <path d="M445.09,219.401 C516.245,227.567 585.391,249.914 649.328,281.876 C655.843,284.542 658.431,291.554 661.655,297.227 C655.766,294.111 649.843,291.025 643.813,288.188 C646.68,298.769 642.799,310.286 634.541,317.346 C616.948,334.254 584.719,327.678 573.077,306.92 C567.25,296.899 564.272,285.601 561.25,274.491 C558.227,264.564 552.93,253.593 542.3,250.164 C533.323,246.58 521.434,250.304 517.506,259.468 C515.482,265.218 518.505,270.875 522.899,274.506 C522.805,269.862 525.501,264.548 530.707,264.485 C536.737,263.815 542.035,271.81 537.798,276.687 C532.983,284.073 522.229,282.594 515.573,278.729 C507.144,274.117 503.825,262.35 508.872,254.092 C511.257,248.887 516.603,246.424 521.108,243.432 C521.073,243.229 521.014,242.839 520.983,242.638 C503.995,237.728 486.637,234.128 469.228,231.121 C459.988,230.248 453.209,223.188 445.09,219.401" id="Fill-23" fill="#F6BF36"></path>
            <path d="M322.897,238.009 C337.764,229.407 354.719,224.732 371.8,223.595 C386.837,222.924 402.155,223.048 416.805,226.96 C433.293,230.98 448.534,239.224 461.655,249.899 C477.363,262.694 491.077,277.669 505.943,291.384 C536.987,319.108 576.024,337.075 616.698,345.177 C625.408,347.062 634.508,347.718 642.659,351.63 C642.691,360.309 636.115,366.73 632.312,373.961 C633.497,369.956 635.553,365.795 634.462,361.539 C629.63,357.521 623.086,356.911 617.15,355.757 C573.405,348.357 531.079,329.344 498.79,298.583 C478.968,280.848 461.67,259.468 437.547,247.297 C417.975,237.229 395.394,234.081 373.638,235.718 C357.477,236.513 341.489,240.861 327.245,248.559 C309.543,258.065 295.47,272.666 281.29,286.598 C271.721,295.248 262.713,304.535 252.397,312.312 C221.9,335.797 185.029,350.197 147.176,356.243 C141.971,357.036 136.953,358.721 132.371,361.291 C132.34,365.187 133.322,368.974 134.46,372.682 C130.112,366.326 125.405,359.888 124.191,352.081 C129.379,349.214 135.193,347.86 141.02,346.971 C181.024,340.315 219.967,324.748 251.79,299.331 C276.302,279.851 295.486,253.827 322.897,238.009" id="Fill-24" fill="#FFFFFE"></path>
            <path d="M161.03,271.654 C176.334,265.202 191.979,259.498 207.718,254.185 C204.758,259.032 201.812,263.909 199.896,269.269 C195.828,280.255 194.41,292.396 187.647,302.244 C181.912,311.579 170.646,316.41 159.923,316.006 C153.534,315.958 146.568,314.212 142.454,308.947 C137.047,302.79 134.615,292.677 139.82,285.694 C141.737,282.734 145.229,281.659 148.266,280.288 C149.295,284.728 150.324,290.292 155.373,291.82 C162.557,295.139 171.424,288.267 169.757,280.458 C169.134,275.784 164.754,273.539 161.03,271.654" id="Fill-25" fill="#1B1A19"></path>
            <path d="M560.034,254.294 C575.571,259.529 590.875,265.421 606.131,271.421 C601.955,273.664 597.109,276.719 597.342,282.158 C596.921,289.95 606.381,295.371 612.958,291.259 C617.257,289.294 617.851,284.292 618.988,280.255 C623.196,281.815 627.543,284.105 629.163,288.594 C632.718,298.801 626.638,311.736 616.059,314.697 C603.293,318.39 587.649,314.524 580.105,303.055 C571.49,290.978 571.178,275.425 564.291,262.554 C562.902,259.795 561.421,257.068 560.034,254.294" id="Fill-26" fill="#1B1A19"></path>
            <path d="M297.294,340.097 C351.026,317.362 413.687,317.267 467.732,339.038 C471.738,340.535 474.323,344.087 477.147,347.096 C467.53,344.536 457.914,341.78 447.988,340.704 C460.393,345.427 472.798,350.197 484.781,355.929 C486.449,358.767 488.147,361.602 489.83,364.44 C469.65,357.147 449.126,350.4 427.807,347.327 C377.597,338.803 325.406,345.616 278.204,364.299 C279.715,360.559 281.43,356.446 285.357,354.684 C296.218,349.324 307.657,345.225 318.924,340.785 C309.247,341.545 299.99,344.601 290.64,347.048 C292.619,344.523 294.364,341.593 297.294,340.097" id="Fill-27" fill="#DC3942"></path>
            <path d="M332.933,359.36 C365.114,352.487 398.526,353.374 431.017,357.521 C397.699,358.174 364.46,361.307 331.687,367.368 C333.089,364.533 334.538,361.728 335.956,358.908 C335.194,359.017 333.681,359.249 332.933,359.36" id="Fill-28" fill="#E5BB83"></path>
            <path d="M297.137,375.675 C306.254,365.655 320.186,362.195 332.933,359.36 C333.681,359.249 335.194,359.017 335.956,358.908 C334.538,361.728 333.089,364.533 331.687,367.368 L331.578,367.572 C320.03,369.987 308.639,373.104 297.137,375.675" id="Fill-29" fill="#FFFFFE"></path>
            <path d="M257.759,364.658 C261.077,361.183 266.048,360.902 270.536,360.683 C268.26,363.832 264.225,366.807 265.284,371.236 C266.688,375.489 271.627,376.485 274.994,378.666 C271.113,382.437 265.986,387.002 260.127,384.962 C251.991,381.956 251.929,369.924 257.759,364.658" id="Fill-30" fill="#DC3B41"></path>
            <path d="M383.659,368.773 C397.184,367.321 410.758,366.402 424.363,366.076 C417.943,373.697 407.424,374.07 398.415,376.018 C394.396,376.844 392.136,381.067 392.431,384.948 C392.774,395.032 395.892,404.739 397.699,414.604 C399.429,409.164 401.97,403.99 405.726,399.659 C408.717,407.591 412.925,415.506 412.909,424.172 C408.843,427.896 402.325,427.242 397.138,428.395 C396.625,430.311 396.126,432.228 395.657,434.161 C390.063,436.515 383.861,435.734 377.954,435.749 C375.414,435.937 373.046,435.004 371.004,433.568 C375.057,431.762 379.217,430.235 383.424,428.8 C383.97,408.79 383.394,388.781 383.659,368.773" id="Fill-31" fill="#DEB57F"></path>
            <path d="M444.247,369.022 C448.768,367.603 453.52,367.29 458.225,367.182 C458.927,371.312 459.534,376.004 456.714,379.523 C449.468,389.076 436.55,393.675 424.83,391.85 C419.392,390.98 415.138,387.066 412.753,382.25 C417.289,381.534 421.715,380.32 425.968,378.575 C428.478,385.011 436.847,388.08 442.691,384.091 C446.166,382.237 447.084,378.292 447.725,374.756 C445.105,374.522 440.275,376.752 439.759,372.713 C439.246,369.956 442.579,369.942 444.247,369.022" id="Fill-32" fill="#FFFFFE"></path>
            <path d="M368.869,414.775 C372.594,399.659 374.962,384.246 378.578,369.099 C379.856,369.022 382.397,368.85 383.659,368.773 C383.394,388.781 383.97,408.79 383.424,428.8 C379.217,430.235 375.057,431.762 371.004,433.568 C370.506,431.776 369.976,430.016 369.462,428.254 C364.428,427.194 358.366,427.786 354.283,424.234 C354.361,415.726 358.413,407.996 361.311,400.204 C365.021,404.349 367.42,409.414 368.869,414.775" id="Fill-33" fill="#FFFFFE"></path>
            <path d="M217.1,404.847 C224.284,394.795 234.289,386.709 245.587,381.706 C243.452,386.676 240.537,391.258 237.811,395.92 C243.545,393.58 248.252,389.528 252.973,385.617 C249.031,396.884 240.724,405.875 231.437,413.061 C221.603,420.79 210.897,429.112 207.515,441.813 C204.867,428.815 209.932,415.554 217.1,404.847" id="Fill-34" fill="#DC3941"></path>
            <path d="M461.28,395.123 C466.517,391.71 469.807,386.286 472.111,380.616 C476.521,391.664 485.56,400.968 486.808,413.138 C487.665,419.979 482.287,425.231 476.398,427.523 C473.92,424.794 471.254,422.239 468.761,419.544 C471.798,419.916 474.839,420.276 477.894,420.633 C473.016,416.27 467.373,412.033 460.563,411.782 C448.672,411.143 437.346,415.632 426.063,418.78 C423.896,411.347 420.311,404.427 415.885,398.117 C430.224,404.91 448.004,403.868 461.28,395.123" id="Fill-35" fill="#DEB57E"></path>
            <path d="M280.587,411.329 C282.255,402.698 287.351,395.247 291.809,387.845 C294.894,391.912 298.291,395.717 302.093,399.128 C299.725,403.678 295.237,408.37 297.185,413.855 C294.38,416.161 291.497,418.358 288.692,420.664 C291.948,420.243 295.19,419.839 298.447,419.45 C295.86,421.944 293.819,425.31 290.577,426.976 C283.674,425.605 279.107,418.125 280.587,411.329" id="Fill-36" fill="#FFFFFE"></path>
            <path d="M334.258,407.544 C341.691,405.315 347.846,400.298 353.099,394.735 C348.58,402.493 343.624,410.115 341.115,418.828 C327.043,414.681 311.801,408.573 297.185,413.855 C295.237,408.37 299.725,403.678 302.093,399.128 C311.226,405.891 322.867,410.194 334.258,407.544" id="Fill-37" fill="#E4B77C"></path>
            <path d="M243.92,416.052 C249.421,409.991 254.766,403.789 259.596,397.165 C258.927,407.388 251.758,415.21 247.55,424.095 C239.961,438.993 233.464,456.118 238.154,472.963 C228.445,467.089 225.843,454.81 225.951,444.258 C225.733,439.722 227.26,435.471 228.959,431.371 C230.394,434.206 232.264,436.778 234.304,439.209 C235.816,430.934 238.091,422.41 243.92,416.052" id="Fill-38" fill="#DC3A41"></path>
            <path d="M506.457,420.651 C514.763,427.131 519.487,438.43 516.885,448.84 C516.01,452.113 513.081,454.109 510.791,456.384 C495.113,455.759 487.103,435.781 492.76,422.614 C494.411,423.999 497.857,423.687 498.151,426.368 C500.036,435.501 502.905,447.205 513.159,450.057 C512.707,449.51 511.803,448.452 511.367,447.906 C511.648,443.854 512.083,439.661 510.728,435.734 C509.168,430.717 505.151,426.228 506.457,420.651" id="Fill-39" fill="#F7C035"></path>
            <path d="M317.286,455.013 C312.925,448.248 321.277,436.015 329.614,440.255 C350.044,447.578 372.048,448.42 393.539,447.672 C404.991,446.784 416.65,446.455 427.759,443.229 C432.654,441.671 437.61,440.285 442.565,438.914 C445.665,440.582 448.503,442.778 450.45,445.786 C450.668,448.981 450.716,452.191 450.761,455.402 C438.995,454.622 427.26,452.798 415.449,453.468 C420.139,454.702 424.878,455.79 429.661,456.663 C438.497,458.378 447.428,460.31 455.609,464.206 C452.257,469.084 448.3,473.477 443.794,477.313 C406.519,458.955 360.642,459.077 323.35,477.329 C319.079,473.308 314.996,469.068 311.599,464.268 C324.035,458.659 337.701,456.195 351.135,454.343 C345.884,451.973 339.931,454.032 334.429,454.076 C328.711,454.109 322.897,455.619 317.286,455.013" id="Fill-40" fill="#FFFFFE"></path>
            <path d="M450.45,445.786 C451.712,449.278 451.636,452.969 451.088,456.601 C443.969,456.928 436.159,452.453 429.661,456.663 C424.878,455.79 420.139,454.702 415.449,453.468 C427.26,452.798 438.995,454.622 450.761,455.402 C450.716,452.191 450.668,448.981 450.45,445.786" id="Fill-41" fill="#333331"></path>
            <path d="M290.219,498.661 C286.213,485.853 292.136,472.746 297.091,461.074 C300.146,466.109 303.932,470.659 308.249,474.678 C305.086,485.743 304.229,497.493 306.956,508.743 C308.326,509.398 309.714,510.037 311.116,510.677 C302.857,510.334 293.257,507.169 290.219,498.661" id="Fill-42" fill="#FFFFFE"></path>
            <path d="M453.239,478.947 C460.393,474.257 466.095,467.806 470.663,460.621 C475.322,471.625 480.357,483.453 478.502,495.656 C477.378,503.025 470.864,508.494 463.697,509.648 C449.063,512.499 434.571,516.038 419.92,518.827 C418.238,514.291 416.338,509.835 414.404,505.394 C424.349,506.842 435.022,508.743 444.606,504.599 C448.564,503.102 450.901,499.41 453.083,495.997 C446.383,497.353 439.355,499.019 432.669,496.666 C400.893,486.583 365.954,486.724 334.196,496.775 C327.526,499.067 320.591,497.104 313.905,495.997 C316.851,500.578 320.793,504.88 326.42,505.924 C335.085,508.353 344.06,506.468 352.788,505.424 C350.932,509.867 349.079,514.323 347.318,518.811 C335.287,515.975 322.991,514.042 311.116,510.677 C309.714,510.037 308.326,509.398 306.956,508.743 C304.229,497.493 305.086,485.743 308.249,474.678 C313.189,477.984 318.425,481.503 319.61,487.8 C359.52,469.41 407.657,469.457 447.614,487.752 C449.016,484.557 449.983,480.802 453.239,478.947" id="Fill-43" fill="#DDB47D"></path>
            <path d="M184.249,100.124 C184.575,100.025 184.833,99.846 185.021,99.586 C185.209,99.326 185.248,99.01 185.135,98.638 L176.606,70.347 C176.495,69.975 176.295,69.755 176.007,69.682 C175.718,69.613 175.41,69.625 175.084,69.724 L174.747,68.606 L186.187,65.158 L186.524,66.276 C186.319,66.337 186.123,66.464 185.938,66.655 C185.75,66.847 185.694,67.066 185.769,67.314 C185.831,67.521 185.993,67.766 186.257,68.047 C186.52,68.329 186.808,68.626 187.126,68.936 L200.737,82.429 L204.739,63.829 C204.862,63.206 204.948,62.717 204.998,62.364 C205.047,62.01 205.034,61.709 204.96,61.461 C204.822,61.007 204.488,60.859 203.958,61.018 L203.622,59.903 L214.939,56.49 L215.275,57.606 C214.948,57.705 214.685,57.864 214.485,58.082 C214.283,58.301 214.239,58.596 214.351,58.968 L222.88,87.259 C222.992,87.63 223.199,87.873 223.499,87.985 C223.801,88.097 224.113,88.105 224.44,88.006 L224.777,89.123 L215.173,92.018 L214.836,90.903 C215.937,90.57 216.376,90.032 216.151,89.287 L209.941,68.69 L209.819,68.726 L204.406,95.264 L204.223,95.32 L185.27,76.061 L185.147,76.097 L191.376,96.756 C191.6,97.501 192.283,97.701 193.425,97.356 L193.762,98.473 L184.585,101.241 L184.249,100.124" id="Fill-44" fill="#0A0B09"></path>
            <path d="M184.249,100.124 C184.575,100.025 184.833,99.846 185.021,99.586 C185.209,99.326 185.248,99.01 185.135,98.638 L176.606,70.347 C176.495,69.975 176.295,69.755 176.007,69.682 C175.718,69.613 175.41,69.625 175.084,69.724 L174.747,68.606 L186.187,65.158 L186.524,66.276 C186.319,66.337 186.123,66.464 185.938,66.655 C185.75,66.847 185.694,67.066 185.769,67.314 C185.831,67.521 185.993,67.766 186.257,68.047 C186.52,68.329 186.808,68.626 187.126,68.936 L200.737,82.429 L204.739,63.829 C204.862,63.206 204.948,62.717 204.998,62.364 C205.047,62.01 205.034,61.709 204.96,61.461 C204.822,61.007 204.488,60.859 203.958,61.018 L203.622,59.903 L214.939,56.49 L215.275,57.606 C214.948,57.705 214.685,57.864 214.485,58.082 C214.283,58.301 214.239,58.596 214.351,58.968 L222.88,87.259 C222.992,87.63 223.199,87.873 223.499,87.985 C223.801,88.097 224.113,88.105 224.44,88.006 L224.777,89.123 L215.173,92.018 L214.836,90.903 C215.937,90.57 216.376,90.032 216.151,89.287 L209.941,68.69 L209.819,68.726 L204.406,95.264 L204.223,95.32 L185.27,76.061 L185.147,76.097 L191.376,96.756 C191.6,97.501 192.283,97.701 193.425,97.356 L193.762,98.473 L184.585,101.241 L184.249,100.124 Z" id="Stroke-45" stroke="#0A0B09"></path>
            <path d="M254.878,61.255 C254.859,61.171 254.828,61.089 254.789,61.01 C254.749,60.93 254.715,60.826 254.686,60.7 C254.638,60.49 254.366,60.253 253.87,59.989 C253.372,59.726 252.701,59.513 251.857,59.35 C251.011,59.188 250.043,59.109 248.952,59.113 C247.861,59.117 246.693,59.261 245.447,59.544 C243.952,59.884 242.636,60.393 241.502,61.072 C240.368,61.751 239.435,62.595 238.703,63.602 C237.97,64.611 237.49,65.762 237.26,67.054 C237.029,68.347 237.086,69.751 237.431,71.267 C237.776,72.784 238.365,74.078 239.199,75.152 C240.032,76.225 241.004,77.09 242.114,77.744 C243.224,78.402 244.411,78.818 245.674,78.995 C246.937,79.174 248.171,79.126 249.377,78.852 C250.498,78.597 251.606,78.191 252.702,77.631 C253.798,77.073 254.779,76.484 255.643,75.866 C256.508,75.249 257.189,74.641 257.686,74.04 C258.182,73.44 258.387,72.95 258.301,72.57 L258.186,72.065 C258.129,71.813 258.06,71.606 257.981,71.447 L258.522,70.66 L264.655,76.309 L264.105,76.767 C263.558,76.67 263.18,76.645 262.973,76.692 C262.64,76.768 262.144,77.08 261.483,77.629 C260.821,78.179 259.974,78.825 258.942,79.569 C257.909,80.313 256.674,81.025 255.234,81.706 C253.794,82.388 252.14,82.942 250.272,83.366 C248.36,83.801 246.409,83.956 244.415,83.834 C242.422,83.711 240.561,83.215 238.835,82.345 C237.107,81.474 235.584,80.248 234.263,78.666 C232.944,77.083 232.015,75.113 231.479,72.754 C230.943,70.394 230.93,68.226 231.442,66.25 C231.953,64.273 232.821,62.514 234.043,60.973 C235.266,59.433 236.776,58.149 238.572,57.12 C240.37,56.092 242.286,55.346 244.322,54.883 C245.9,54.525 247.377,54.344 248.752,54.342 C250.128,54.339 251.357,54.413 252.44,54.566 C253.524,54.719 254.43,54.867 255.162,55.011 C255.893,55.155 256.405,55.194 256.696,55.128 C256.903,55.08 257.065,54.977 257.182,54.817 C257.299,54.658 257.43,54.518 257.578,54.395 L258.425,54.668 L255.678,61.605 L254.878,61.255" id="Fill-46" fill="#0A0B09"></path>
            <path d="M254.878,61.255 C254.859,61.171 254.828,61.089 254.789,61.01 C254.749,60.93 254.715,60.826 254.686,60.7 C254.638,60.49 254.366,60.253 253.87,59.989 C253.372,59.726 252.701,59.513 251.857,59.35 C251.011,59.188 250.043,59.109 248.952,59.113 C247.861,59.117 246.693,59.261 245.447,59.544 C243.952,59.884 242.636,60.393 241.502,61.072 C240.368,61.751 239.435,62.595 238.703,63.602 C237.97,64.611 237.49,65.762 237.26,67.054 C237.029,68.347 237.086,69.751 237.431,71.267 C237.776,72.784 238.365,74.078 239.199,75.152 C240.032,76.225 241.004,77.09 242.114,77.744 C243.224,78.402 244.411,78.818 245.674,78.995 C246.937,79.174 248.171,79.126 249.377,78.852 C250.498,78.597 251.606,78.191 252.702,77.631 C253.798,77.073 254.779,76.484 255.643,75.866 C256.508,75.249 257.189,74.641 257.686,74.04 C258.182,73.44 258.387,72.95 258.301,72.57 L258.186,72.065 C258.129,71.813 258.06,71.606 257.981,71.447 L258.522,70.66 L264.655,76.309 L264.105,76.767 C263.558,76.67 263.18,76.645 262.973,76.692 C262.64,76.768 262.144,77.08 261.483,77.629 C260.821,78.179 259.974,78.825 258.942,79.569 C257.909,80.313 256.674,81.025 255.234,81.706 C253.794,82.388 252.14,82.942 250.272,83.366 C248.36,83.801 246.409,83.956 244.415,83.834 C242.422,83.711 240.561,83.215 238.835,82.345 C237.107,81.474 235.584,80.248 234.263,78.666 C232.944,77.083 232.015,75.113 231.479,72.754 C230.943,70.394 230.93,68.226 231.442,66.25 C231.953,64.273 232.821,62.514 234.043,60.973 C235.266,59.433 236.776,58.149 238.572,57.12 C240.37,56.092 242.286,55.346 244.322,54.883 C245.9,54.525 247.377,54.344 248.752,54.342 C250.128,54.339 251.357,54.413 252.44,54.566 C253.524,54.719 254.43,54.867 255.162,55.011 C255.893,55.155 256.405,55.194 256.696,55.128 C256.903,55.08 257.065,54.977 257.182,54.817 C257.299,54.658 257.43,54.518 257.578,54.395 L258.425,54.668 L255.678,61.605 L254.878,61.255 Z" id="Stroke-47" stroke="#0A0B09"></path>
            <path d="M309.475,67.518 C309.349,67.538 309.231,67.547 309.123,67.542 C309.014,67.537 308.897,67.545 308.771,67.566 C308.519,67.607 307.961,67.959 307.097,68.622 C306.233,69.287 305.127,70.055 303.78,70.929 C302.432,71.803 300.87,72.623 299.096,73.391 C297.321,74.158 295.423,74.703 293.406,75.029 C290.756,75.456 288.157,75.525 285.609,75.235 C283.059,74.946 280.734,74.239 278.633,73.11 C276.53,71.983 274.761,70.442 273.324,68.485 C271.887,66.53 270.939,64.122 270.479,61.264 C270.026,58.449 270.172,55.877 270.918,53.547 C271.665,51.218 272.857,49.177 274.494,47.425 C276.132,45.674 278.112,44.239 280.435,43.121 C282.756,42.003 285.242,41.231 287.892,40.803 C290.036,40.458 292.009,40.316 293.809,40.376 C295.608,40.437 297.192,40.553 298.557,40.726 C299.923,40.9 301.012,41.097 301.824,41.316 C302.636,41.536 303.126,41.631 303.294,41.604 C303.504,41.57 303.666,41.436 303.779,41.198 C303.891,40.961 303.979,40.772 304.043,40.631 L305.113,41.245 L301.44,49.778 L300.737,49.432 C300.716,49.304 300.685,49.179 300.644,49.054 C300.602,48.929 300.546,48.785 300.476,48.621 C300.317,48.166 299.819,47.754 298.983,47.385 C298.147,47.018 297.14,46.73 295.964,46.525 C294.788,46.321 293.558,46.191 292.278,46.135 C290.996,46.079 289.829,46.136 288.778,46.304 C287.011,46.59 285.361,47.118 283.823,47.891 C282.288,48.663 280.999,49.637 279.959,50.811 C278.918,51.985 278.155,53.345 277.67,54.888 C277.186,56.433 277.092,58.121 277.387,59.953 C277.682,61.789 278.302,63.363 279.248,64.676 C280.192,65.99 281.344,67.041 282.7,67.828 C284.056,68.616 285.585,69.135 287.286,69.386 C288.988,69.636 290.721,69.62 292.488,69.335 C293.833,69.119 295.217,68.731 296.638,68.175 C298.058,67.617 299.337,66.996 300.479,66.309 C301.619,65.623 302.55,64.904 303.27,64.153 C303.991,63.403 304.306,62.75 304.217,62.196 C304.17,61.898 304.042,61.655 303.841,61.469 L304.641,60.814 L309.897,66.925 L309.475,67.518" id="Fill-48" fill="#0A0B09"></path>
            <path d="M309.475,67.518 C309.349,67.538 309.231,67.547 309.123,67.542 C309.014,67.537 308.897,67.545 308.771,67.566 C308.519,67.607 307.961,67.959 307.097,68.622 C306.233,69.287 305.127,70.055 303.78,70.929 C302.432,71.803 300.87,72.623 299.096,73.391 C297.321,74.158 295.423,74.703 293.406,75.029 C290.756,75.456 288.157,75.525 285.609,75.235 C283.059,74.946 280.734,74.239 278.633,73.11 C276.53,71.983 274.761,70.442 273.324,68.485 C271.887,66.53 270.939,64.122 270.479,61.264 C270.026,58.449 270.172,55.877 270.918,53.547 C271.665,51.218 272.857,49.177 274.494,47.425 C276.132,45.674 278.112,44.239 280.435,43.121 C282.756,42.003 285.242,41.231 287.892,40.803 C290.036,40.458 292.009,40.316 293.809,40.376 C295.608,40.437 297.192,40.553 298.557,40.726 C299.923,40.9 301.012,41.097 301.824,41.316 C302.636,41.536 303.126,41.631 303.294,41.604 C303.504,41.57 303.666,41.436 303.779,41.198 C303.891,40.961 303.979,40.772 304.043,40.631 L305.113,41.245 L301.44,49.778 L300.737,49.432 C300.716,49.304 300.685,49.179 300.644,49.054 C300.602,48.929 300.546,48.785 300.476,48.621 C300.317,48.166 299.819,47.754 298.983,47.385 C298.147,47.018 297.14,46.73 295.964,46.525 C294.788,46.321 293.558,46.191 292.278,46.135 C290.996,46.079 289.829,46.136 288.778,46.304 C287.011,46.59 285.361,47.118 283.823,47.891 C282.288,48.663 280.999,49.637 279.959,50.811 C278.918,51.985 278.155,53.345 277.67,54.888 C277.186,56.433 277.092,58.121 277.387,59.953 C277.682,61.789 278.302,63.363 279.248,64.676 C280.192,65.99 281.344,67.041 282.7,67.828 C284.056,68.616 285.585,69.135 287.286,69.386 C288.988,69.636 290.721,69.62 292.488,69.335 C293.833,69.119 295.217,68.731 296.638,68.175 C298.058,67.617 299.337,66.996 300.479,66.309 C301.619,65.623 302.55,64.904 303.27,64.153 C303.991,63.403 304.306,62.75 304.217,62.196 C304.17,61.898 304.042,61.655 303.841,61.469 L304.641,60.814 L309.897,66.925 L309.475,67.518 Z" id="Stroke-49" stroke="#0A0B09"></path>
            <path d="M340.181,40.456 C338.568,40.59 336.976,40.981 335.405,41.63 C333.834,42.28 332.441,43.143 331.228,44.218 C330.012,45.294 329.06,46.575 328.37,48.062 C327.681,49.55 327.411,51.198 327.561,53.006 C327.71,54.814 328.246,56.395 329.17,57.749 C330.092,59.103 331.241,60.211 332.617,61.073 C333.991,61.935 335.506,62.558 337.163,62.941 C338.819,63.325 340.452,63.45 342.065,63.318 C343.679,63.184 345.271,62.792 346.842,62.143 C348.412,61.493 349.804,60.63 351.02,59.555 C352.234,58.48 353.186,57.198 353.877,55.712 C354.565,54.224 354.836,52.576 354.687,50.768 C354.537,48.96 354.001,47.378 353.076,46.024 C352.154,44.67 351.004,43.562 349.629,42.7 C348.255,41.839 346.739,41.216 345.084,40.832 C343.427,40.449 341.792,40.324 340.181,40.456 Z M339.69,34.515 C342.025,34.323 344.432,34.481 346.91,34.992 C349.388,35.503 351.683,36.387 353.796,37.643 C355.909,38.899 357.691,40.562 359.145,42.631 C360.598,44.7 361.447,47.22 361.692,50.19 C361.937,53.161 361.512,55.787 360.417,58.064 C359.323,60.344 357.837,62.277 355.959,63.862 C354.08,65.447 351.958,66.662 349.592,67.508 C347.225,68.354 344.874,68.871 342.54,69.064 C340.204,69.256 337.802,69.13 335.329,68.684 C332.855,68.239 330.563,67.388 328.451,66.13 C326.337,64.874 324.555,63.212 323.101,61.143 C321.649,59.074 320.801,56.554 320.555,53.583 C320.31,50.612 320.735,47.988 321.829,45.708 C322.923,43.43 324.408,41.497 326.288,39.912 C328.165,38.326 330.285,37.078 332.647,36.168 C335.008,35.259 337.357,34.708 339.69,34.515 Z" id="Fill-50" fill="#0A0B09"></path>
            <path d="M340.181,40.456 C338.568,40.59 336.976,40.981 335.405,41.63 C333.834,42.28 332.441,43.143 331.228,44.218 C330.012,45.294 329.06,46.575 328.37,48.062 C327.681,49.55 327.411,51.198 327.561,53.006 C327.71,54.814 328.246,56.395 329.17,57.749 C330.092,59.103 331.241,60.211 332.617,61.073 C333.991,61.935 335.506,62.558 337.163,62.941 C338.819,63.325 340.452,63.45 342.065,63.318 C343.679,63.184 345.271,62.792 346.842,62.143 C348.412,61.493 349.804,60.63 351.02,59.555 C352.234,58.48 353.186,57.198 353.877,55.712 C354.565,54.224 354.836,52.576 354.687,50.768 C354.537,48.96 354.001,47.378 353.076,46.024 C352.154,44.67 351.004,43.562 349.629,42.7 C348.255,41.839 346.739,41.216 345.084,40.832 C343.427,40.449 341.792,40.324 340.181,40.456 Z M339.69,34.515 C342.025,34.323 344.432,34.481 346.91,34.992 C349.388,35.503 351.683,36.387 353.796,37.643 C355.909,38.899 357.691,40.562 359.145,42.631 C360.598,44.7 361.447,47.22 361.692,50.19 C361.937,53.161 361.512,55.787 360.417,58.064 C359.323,60.344 357.837,62.277 355.959,63.862 C354.08,65.447 351.958,66.662 349.592,67.508 C347.225,68.354 344.874,68.871 342.54,69.064 C340.204,69.256 337.802,69.13 335.329,68.684 C332.855,68.239 330.563,67.388 328.451,66.13 C326.337,64.874 324.555,63.212 323.101,61.143 C321.649,59.074 320.801,56.554 320.555,53.583 C320.31,50.612 320.735,47.988 321.829,45.708 C322.923,43.43 324.408,41.497 326.288,39.912 C328.165,38.326 330.285,37.078 332.647,36.168 C335.008,35.259 337.357,34.708 339.69,34.515 Z" id="Stroke-51" stroke="#0A0B09"></path>
            <path d="M406.442,67.947 C406.439,67.298 406.235,66.932 405.829,66.848 C405.424,66.762 404.902,66.723 404.263,66.727 L373.85,66.884 L373.844,65.717 C375.122,65.711 375.76,65.319 375.754,64.542 L375.604,35.123 C375.599,34.345 374.958,33.96 373.679,33.966 L373.674,32.8 L384.665,32.743 L384.669,33.91 C383.477,33.916 382.883,34.307 382.886,35.085 L383.02,60.874 L404.232,60.766 C404.871,60.762 405.392,60.608 405.796,60.303 C406.198,59.999 406.4,59.587 406.398,59.069 L407.547,59.063 L407.592,67.941 L406.442,67.947" id="Fill-52" fill="#0A0B09"></path>
            <path d="M406.442,67.947 C406.439,67.298 406.235,66.932 405.829,66.848 C405.424,66.762 404.902,66.723 404.263,66.727 L373.85,66.884 L373.844,65.717 C375.122,65.711 375.76,65.319 375.754,64.542 L375.604,35.123 C375.599,34.345 374.958,33.96 373.679,33.966 L373.674,32.8 L384.665,32.743 L384.669,33.91 C383.477,33.916 382.883,34.307 382.886,35.085 L383.02,60.874 L404.232,60.766 C404.871,60.762 405.392,60.608 405.796,60.303 C406.198,59.999 406.4,59.587 406.398,59.069 L407.547,59.063 L407.592,67.941 L406.442,67.947 Z" id="Stroke-53" stroke="#0A0B09"></path>
            <path d="M448.972,45.791 L447.727,45.308 C447.83,45.056 447.892,44.802 447.911,44.542 C447.96,43.897 447.61,43.286 446.863,42.709 C446.114,42.135 445.152,41.619 443.967,41.162 C442.784,40.706 441.488,40.338 440.078,40.059 C438.667,39.781 437.326,39.593 436.052,39.498 C434.479,39.38 432.902,39.49 431.319,39.827 C429.733,40.164 428.3,40.761 427.019,41.618 C425.738,42.475 424.669,43.63 423.813,45.082 C422.956,46.535 422.448,48.337 422.288,50.492 C422.129,52.602 422.365,54.451 422.995,56.036 C423.623,57.62 424.509,58.932 425.649,59.969 C426.788,61.008 428.116,61.811 429.634,62.379 C431.15,62.946 432.696,63.289 434.265,63.407 C436.688,63.588 438.877,63.547 440.841,63.281 C442.806,63.016 444.484,62.698 445.879,62.325 L446.294,56.768 L438.14,56.158 C437.544,56.115 437.088,56.211 436.773,56.447 C436.454,56.683 436.222,57.228 436.073,58.083 L434.927,57.997 L435.544,49.727 L436.69,49.813 C436.72,50.552 436.877,51.029 437.161,51.245 C437.443,51.461 437.881,51.591 438.477,51.636 L454.405,52.825 L454.319,53.988 C453.458,54.054 452.917,54.165 452.692,54.322 C452.465,54.478 452.332,54.838 452.291,55.396 L451.746,62.699 C451.714,63.129 451.821,63.418 452.065,63.567 C452.312,63.715 452.597,63.888 452.925,64.085 L452.847,65.119 C451.37,66.006 449.833,66.714 448.236,67.243 C446.636,67.775 445.027,68.164 443.407,68.41 C441.786,68.658 440.176,68.766 438.576,68.733 C436.979,68.699 435.413,68.626 433.885,68.512 C430.911,68.289 428.231,67.711 425.845,66.774 C423.458,65.838 421.45,64.562 419.819,62.945 C418.189,61.329 416.976,59.419 416.179,57.215 C415.382,55.012 415.085,52.553 415.287,49.838 C415.491,47.125 416.149,44.737 417.263,42.676 C418.38,40.615 419.863,38.896 421.719,37.518 C423.572,36.141 425.75,35.145 428.253,34.53 C430.755,33.915 433.493,33.719 436.466,33.941 C438.335,34.08 440.109,34.343 441.788,34.728 C443.468,35.114 444.954,35.516 446.248,35.939 C447.539,36.36 448.612,36.744 449.461,37.088 C450.31,37.434 450.842,37.614 451.055,37.63 C451.437,37.658 451.74,37.595 451.967,37.438 C452.191,37.282 452.414,37.147 452.637,37.033 L453.367,37.542 L448.972,45.791" id="Fill-54" fill="#0A0B09"></path>
            <path d="M448.972,45.791 L447.727,45.308 C447.83,45.056 447.892,44.802 447.911,44.542 C447.96,43.897 447.61,43.286 446.863,42.709 C446.114,42.135 445.152,41.619 443.967,41.162 C442.784,40.706 441.488,40.338 440.078,40.059 C438.667,39.781 437.326,39.593 436.052,39.498 C434.479,39.38 432.902,39.49 431.319,39.827 C429.733,40.164 428.3,40.761 427.019,41.618 C425.738,42.475 424.669,43.63 423.813,45.082 C422.956,46.535 422.448,48.337 422.288,50.492 C422.129,52.602 422.365,54.451 422.995,56.036 C423.623,57.62 424.509,58.932 425.649,59.969 C426.788,61.008 428.116,61.811 429.634,62.379 C431.15,62.946 432.696,63.289 434.265,63.407 C436.688,63.588 438.877,63.547 440.841,63.281 C442.806,63.016 444.484,62.698 445.879,62.325 L446.294,56.768 L438.14,56.158 C437.544,56.115 437.088,56.211 436.773,56.447 C436.454,56.683 436.222,57.228 436.073,58.083 L434.927,57.997 L435.544,49.727 L436.69,49.813 C436.72,50.552 436.877,51.029 437.161,51.245 C437.443,51.461 437.881,51.591 438.477,51.636 L454.405,52.825 L454.319,53.988 C453.458,54.054 452.917,54.165 452.692,54.322 C452.465,54.478 452.332,54.838 452.291,55.396 L451.746,62.699 C451.714,63.129 451.821,63.418 452.065,63.567 C452.312,63.715 452.597,63.888 452.925,64.085 L452.847,65.119 C451.37,66.006 449.833,66.714 448.236,67.243 C446.636,67.775 445.027,68.164 443.407,68.41 C441.786,68.658 440.176,68.766 438.576,68.733 C436.979,68.699 435.413,68.626 433.885,68.512 C430.911,68.289 428.231,67.711 425.845,66.774 C423.458,65.838 421.45,64.562 419.819,62.945 C418.189,61.329 416.976,59.419 416.179,57.215 C415.382,55.012 415.085,52.553 415.287,49.838 C415.491,47.125 416.149,44.737 417.263,42.676 C418.38,40.615 419.863,38.896 421.719,37.518 C423.572,36.141 425.75,35.145 428.253,34.53 C430.755,33.915 433.493,33.719 436.466,33.941 C438.335,34.08 440.109,34.343 441.788,34.728 C443.468,35.114 444.954,35.516 446.248,35.939 C447.539,36.36 448.612,36.744 449.461,37.088 C450.31,37.434 450.842,37.614 451.055,37.63 C451.437,37.658 451.74,37.595 451.967,37.438 C452.191,37.282 452.414,37.147 452.637,37.033 L453.367,37.542 L448.972,45.791 Z" id="Stroke-55" stroke="#0A0B09"></path>
            <path d="M486.779,61.485 L483.443,48.72 L475.556,59.634 L486.779,61.485 Z M461.051,69.458 C461.611,69.464 462.087,69.258 462.481,68.84 C462.873,68.423 463.263,67.941 463.655,67.392 L479.42,44.445 C479.806,43.94 480.154,43.471 480.461,43.04 C480.77,42.61 480.953,42.224 481.009,41.883 C481.079,41.457 480.98,41.135 480.715,40.914 C480.448,40.697 480.155,40.517 479.832,40.375 L480.023,39.224 L490.676,40.981 L490.486,42.132 C490.178,42.169 489.863,42.238 489.546,42.339 C489.227,42.44 489.03,42.724 488.952,43.192 C488.895,43.534 488.911,43.887 489.004,44.252 C489.094,44.617 489.24,45.101 489.445,45.703 L498.267,73.887 C498.4,74.391 498.627,74.779 498.949,75.05 C499.27,75.322 499.646,75.603 500.072,75.892 L499.883,77.043 L488.787,75.213 L488.977,74.062 C489.145,74.09 489.366,74.061 489.64,73.975 C489.911,73.888 490.071,73.717 490.113,73.462 C490.183,73.036 490.107,72.454 489.881,71.716 L488.266,66.59 L472.885,64.054 L469.866,68.219 C469.3,69.045 468.984,69.65 468.92,70.034 C468.843,70.502 469.202,70.802 470.002,70.933 L469.813,72.084 L460.862,70.609 L461.051,69.458 Z" id="Fill-56" fill="#0A0B09"></path>
            <path d="M486.779,61.485 L483.443,48.72 L475.556,59.634 L486.779,61.485 Z M461.051,69.458 C461.611,69.464 462.087,69.258 462.481,68.84 C462.873,68.423 463.263,67.941 463.655,67.392 L479.42,44.445 C479.806,43.94 480.154,43.471 480.461,43.04 C480.77,42.61 480.953,42.224 481.009,41.883 C481.079,41.457 480.98,41.135 480.715,40.914 C480.448,40.697 480.155,40.517 479.832,40.375 L480.023,39.224 L490.676,40.981 L490.486,42.132 C490.178,42.169 489.863,42.238 489.546,42.339 C489.227,42.44 489.03,42.724 488.952,43.192 C488.895,43.534 488.911,43.887 489.004,44.252 C489.094,44.617 489.24,45.101 489.445,45.703 L498.267,73.887 C498.4,74.391 498.627,74.779 498.949,75.05 C499.27,75.322 499.646,75.603 500.072,75.892 L499.883,77.043 L488.787,75.213 L488.977,74.062 C489.145,74.09 489.366,74.061 489.64,73.975 C489.911,73.888 490.071,73.717 490.113,73.462 C490.183,73.036 490.107,72.454 489.881,71.716 L488.266,66.59 L472.885,64.054 L469.866,68.219 C469.3,69.045 468.984,69.65 468.92,70.034 C468.843,70.502 469.202,70.802 470.002,70.933 L469.813,72.084 L460.862,70.609 L461.051,69.458 Z" id="Stroke-57" stroke="#0A0B09"></path>
            <path d="M509.762,77.987 C510.542,78.197 511.033,77.926 511.236,77.174 L518.849,48.759 C519.05,48.008 518.758,47.527 517.978,47.318 L518.28,46.191 L528.832,49.018 L528.531,50.145 C528.2,50.057 527.982,50.222 527.869,50.639 C527.781,50.974 528.035,51.667 528.634,52.721 L541.35,76.118 L546.682,56.216 C546.882,55.465 546.448,54.946 545.379,54.659 L545.681,53.532 L555.001,56.029 L554.699,57.156 C553.916,56.946 553.425,57.217 553.224,57.969 L545.612,86.384 C545.409,87.135 545.699,87.615 546.482,87.825 L546.18,88.952 L536.183,86.272 L536.485,85.147 C537.019,85.289 537.338,85.174 537.439,84.798 C537.516,84.507 537.314,83.938 536.835,83.094 L523.345,58.148 L517.777,78.928 C517.575,79.679 517.948,80.182 518.894,80.434 L518.594,81.561 L509.459,79.115 L509.762,77.987" id="Fill-58" fill="#0A0B09"></path>
            <path d="M509.762,77.987 C510.542,78.197 511.033,77.926 511.236,77.174 L518.849,48.759 C519.05,48.008 518.758,47.527 517.978,47.318 L518.28,46.191 L528.832,49.018 L528.531,50.145 C528.2,50.057 527.982,50.222 527.869,50.639 C527.781,50.974 528.035,51.667 528.634,52.721 L541.35,76.118 L546.682,56.216 C546.882,55.465 546.448,54.946 545.379,54.659 L545.681,53.532 L555.001,56.029 L554.699,57.156 C553.916,56.946 553.425,57.217 553.224,57.969 L545.612,86.384 C545.409,87.135 545.699,87.615 546.482,87.825 L546.18,88.952 L536.183,86.272 L536.485,85.147 C537.019,85.289 537.338,85.174 537.439,84.798 C537.516,84.507 537.314,83.938 536.835,83.094 L523.345,58.148 L517.777,78.928 C517.575,79.679 517.948,80.182 518.894,80.434 L518.594,81.561 L509.459,79.115 L509.762,77.987 Z" id="Stroke-59" stroke="#0A0B09"></path>
            <path d="M565.183,84.173 L565.663,84.703 C565.524,85.067 565.48,85.42 565.531,85.763 C565.625,86.354 565.99,87.038 566.629,87.813 C567.267,88.589 568.045,89.36 568.962,90.125 C569.877,90.892 570.868,91.606 571.939,92.269 C573.007,92.932 573.998,93.438 574.915,93.788 C575.591,94.047 576.487,94.331 577.599,94.64 C578.712,94.95 579.848,95.141 581.006,95.213 C582.162,95.285 583.227,95.184 584.2,94.907 C585.173,94.631 585.835,94.029 586.192,93.101 C586.545,92.173 586.457,91.354 585.933,90.643 C585.405,89.934 584.615,89.262 583.556,88.626 C582.499,87.992 581.257,87.366 579.827,86.75 C578.397,86.135 576.948,85.477 575.485,84.779 C574.018,84.08 572.613,83.313 571.268,82.475 C569.924,81.638 568.812,80.67 567.934,79.571 C567.052,78.471 566.484,77.213 566.227,75.798 C565.97,74.381 566.198,72.746 566.906,70.889 C567.384,69.639 568.142,68.517 569.182,67.527 C570.221,66.537 571.516,65.807 573.064,65.334 C574.612,64.862 576.413,64.683 578.467,64.797 C580.521,64.912 582.781,65.439 585.249,66.382 C587.358,67.188 589.125,68.049 590.553,68.964 C591.983,69.881 593.196,70.736 594.192,71.532 C595.185,72.328 596.009,73.037 596.661,73.656 C597.315,74.276 597.9,74.684 598.417,74.881 C598.974,75.094 599.418,75.125 599.749,74.974 L600.28,75.732 L593.272,81.725 L592.768,81.255 C592.903,80.659 592.92,80.135 592.822,79.679 C592.689,79.074 592.342,78.399 591.784,77.654 C591.223,76.908 590.517,76.164 589.661,75.421 C588.805,74.677 587.842,73.974 586.775,73.311 C585.704,72.649 584.593,72.096 583.44,71.656 C582.564,71.321 581.63,71.047 580.643,70.831 C579.654,70.615 578.726,70.504 577.862,70.497 C576.998,70.491 576.229,70.625 575.555,70.898 C574.879,71.172 574.411,71.653 574.151,72.338 C573.781,73.307 573.851,74.166 574.363,74.917 C574.872,75.667 575.649,76.379 576.691,77.055 C577.734,77.73 578.963,78.387 580.385,79.022 C581.807,79.658 583.251,80.324 584.718,81.023 C586.183,81.721 587.583,82.5 588.92,83.358 C590.257,84.215 591.365,85.193 592.244,86.292 C593.124,87.391 593.697,88.639 593.96,90.035 C594.225,91.431 594.012,93.036 593.319,94.852 C592.516,96.95 591.313,98.457 589.71,99.371 C588.106,100.283 586.343,100.813 584.42,100.956 C582.495,101.1 580.538,100.942 578.548,100.482 C576.558,100.022 574.747,99.48 573.115,98.857 C570.847,97.99 568.997,97.133 567.566,96.286 C566.134,95.439 564.983,94.63 564.115,93.858 C563.246,93.088 562.572,92.437 562.092,91.905 C561.611,91.375 561.152,91.026 560.714,90.859 C560.435,90.752 560.115,90.816 559.753,91.046 L559.102,90.243 L565.183,84.173" id="Fill-60" fill="#0A0B09"></path>
            <path d="M565.183,84.173 L565.663,84.703 C565.524,85.067 565.48,85.42 565.531,85.763 C565.625,86.354 565.99,87.038 566.629,87.813 C567.267,88.589 568.045,89.36 568.962,90.125 C569.877,90.892 570.868,91.606 571.939,92.269 C573.007,92.932 573.998,93.438 574.915,93.788 C575.591,94.047 576.487,94.331 577.599,94.64 C578.712,94.95 579.848,95.141 581.006,95.213 C582.162,95.285 583.227,95.184 584.2,94.907 C585.173,94.631 585.835,94.029 586.192,93.101 C586.545,92.173 586.457,91.354 585.933,90.643 C585.405,89.934 584.615,89.262 583.556,88.626 C582.499,87.992 581.257,87.366 579.827,86.75 C578.397,86.135 576.948,85.477 575.485,84.779 C574.018,84.08 572.613,83.313 571.268,82.475 C569.924,81.638 568.812,80.67 567.934,79.571 C567.052,78.471 566.484,77.213 566.227,75.798 C565.97,74.381 566.198,72.746 566.906,70.889 C567.384,69.639 568.142,68.517 569.182,67.527 C570.221,66.537 571.516,65.807 573.064,65.334 C574.612,64.862 576.413,64.683 578.467,64.797 C580.521,64.912 582.781,65.439 585.249,66.382 C587.358,67.188 589.125,68.049 590.553,68.964 C591.983,69.881 593.196,70.736 594.192,71.532 C595.185,72.328 596.009,73.037 596.661,73.656 C597.315,74.276 597.9,74.684 598.417,74.881 C598.974,75.094 599.418,75.125 599.749,74.974 L600.28,75.732 L593.272,81.725 L592.768,81.255 C592.903,80.659 592.92,80.135 592.822,79.679 C592.689,79.074 592.342,78.399 591.784,77.654 C591.223,76.908 590.517,76.164 589.661,75.421 C588.805,74.677 587.842,73.974 586.775,73.311 C585.704,72.649 584.593,72.096 583.44,71.656 C582.564,71.321 581.63,71.047 580.643,70.831 C579.654,70.615 578.726,70.504 577.862,70.497 C576.998,70.491 576.229,70.625 575.555,70.898 C574.879,71.172 574.411,71.653 574.151,72.338 C573.781,73.307 573.851,74.166 574.363,74.917 C574.872,75.667 575.649,76.379 576.691,77.055 C577.734,77.73 578.963,78.387 580.385,79.022 C581.807,79.658 583.251,80.324 584.718,81.023 C586.183,81.721 587.583,82.5 588.92,83.358 C590.257,84.215 591.365,85.193 592.244,86.292 C593.124,87.391 593.697,88.639 593.96,90.035 C594.225,91.431 594.012,93.036 593.319,94.852 C592.516,96.95 591.313,98.457 589.71,99.371 C588.106,100.283 586.343,100.813 584.42,100.956 C582.495,101.1 580.538,100.942 578.548,100.482 C576.558,100.022 574.747,99.48 573.115,98.857 C570.847,97.99 568.997,97.133 567.566,96.286 C566.134,95.439 564.983,94.63 564.115,93.858 C563.246,93.088 562.572,92.437 562.092,91.905 C561.611,91.375 561.152,91.026 560.714,90.859 C560.435,90.752 560.115,90.816 559.753,91.046 L559.102,90.243 L565.183,84.173 Z" id="Stroke-61" stroke="#0A0B09"></path>
        </g>
    </g>
</svg>