<?xml version="1.0" encoding="UTF-8" standalone="no"?>
<svg width="1204px" height="1181px" viewBox="0 0 1204 1181" version="1.1" xmlns="http://www.w3.org/2000/svg" xmlns:xlink="http://www.w3.org/1999/xlink">
    <!-- Generator: Sketch 49.1 (51147) - http://www.bohemiancoding.com/sketch -->
    <title>Philips Phoenix 2012_REV</title>
    <desc>Created with Sketch.</desc>
    <defs></defs>
    <g id="Page-1" stroke="none" stroke-width="1" fill="none" fill-rule="evenodd">
        <g id="Philips-Phoenix-2012_REV" transform="translate(4.000000, -16.000000)">
            <g id="Group-4" transform="translate(39.000000, 16.000000)">
                <path d="M1071.18,1.963 L950.94,74.164 L950.12,63.036 L851.052,120.578 L847.523,121.393 C847.523,121.393 696.064,63.036 563.877,39.421 C563.877,39.421 386.633,77.963 279.418,121.393 C279.418,121.393 181.431,65.75 177.902,63.307 L176.817,73.893 L174.103,73.622 C174.103,73.622 58.202,2.507 56.03,2.235 L54.673,2.777 L97.016,200.922 C97.016,200.922 4.729,250.594 1.744,253.851 C1.744,253.851 123.073,1010.6 562.791,1025.26 C562.791,1025.26 925.965,1077.37 1126.28,254.937 C1126.28,254.937 1056.25,214.222 1028.57,201.193 L1071.18,1.963" id="Fill-1" fill="#1B1C1B"></path>
                <path d="M2.62,254.162 C4.333,264.492 35.821,449.439 118.13,633.754 C195.858,807.814 336.103,1016.89 562.818,1024.44 C563.817,1024.59 654.804,1036.38 769.066,947.751 C874.548,865.934 1021.97,679.368 1125.35,255.335 C1118.84,251.56 1054.3,214.201 1028.22,201.931 L1027.63,201.654 L1069.99,3.627 L950.22,75.543 L949.41,64.394 L851.354,121.344 L847.463,122.242 L847.23,122.152 C845.716,121.569 694.45,63.601 563.893,40.251 C557.698,41.607 384.27,79.799 279.723,122.147 L279.358,122.295 L279.015,122.101 C275.209,119.939 189.917,71.5 178.58,64.685 L177.544,74.784 L173.677,74.315 C134.851,50.492 61.243,5.533 56.038,3.109 L55.613,3.278 L97.941,201.35 L97.402,201.64 C61.324,221.058 7.38,250.496 2.62,254.162 Z M575.125,1026.66 C567.243,1026.66 562.871,1026.09 562.674,1026.06 C462.253,1022.72 370.162,980.008 289.047,899.119 C224.204,834.456 166.194,745.389 116.63,634.39 C32.265,445.458 1.244,255.874 0.94,253.98 L0.878,253.591 L1.144,253.301 C4.085,250.091 84.407,206.787 96.092,200.495 L53.733,2.275 L55.923,1.4 L56.132,1.427 C58.305,1.699 146.959,56.011 174.369,72.829 L176.09,73.002 L177.233,61.853 L178.366,62.637 C181.72,64.96 273.098,116.867 279.477,120.49 C385.571,77.591 561.933,39.011 563.704,38.625 L563.861,38.591 L564.02,38.62 C692.378,61.55 840.757,117.934 847.582,120.543 L850.75,119.812 L950.84,61.677 L951.65,72.784 L1072.37,0.3 L1071.98,2.134 L1029.5,200.733 C1057.29,213.918 1125.99,253.828 1126.69,254.233 L1127.22,254.538 L1127.07,255.129 C1081.36,442.795 1023.28,600.096 954.44,722.664 C899.339,820.76 837.256,896.961 769.917,949.155 C679.777,1019.02 603.962,1026.66 575.125,1026.66 Z" id="Fill-3" fill="#8D908A"></path>
            </g>
            <path d="M1080.05,61.392 L969.307,126.536 L967.136,115.678 L888.964,161.278 C888.964,161.278 764.107,110.25 603.42,78.764 C603.42,78.764 501.361,93.964 315.702,160.193 C315.702,160.193 242.959,118.935 236.444,114.592 L235.359,126.536 L124.614,61.392 L159.358,226.422 L62.728,280.708 C62.728,280.708 201.159,1018.46 605.047,1018.46 C605.047,1018.46 948.679,1055.91 1140.85,277.451 C1140.85,277.451 1051.28,230.222 1044.77,228.593 L1080.05,61.392" id="Fill-5" fill="#1C2342"></path>
            <path d="M617.343,237.225 C613.272,240.075 600.651,238.039 600.651,238.039 C596.58,237.632 594.951,233.968 594.951,233.968 C590.065,232.339 591.694,229.896 591.694,229.896 L602.279,225.825 C606.351,225.825 615.308,231.932 615.308,231.932 L620.194,233.153 C618.158,233.153 617.343,237.225 617.343,237.225 Z M973.596,254.325 L1014.31,239.668 L1042,111.824 L942.654,172.082 L940.211,159.053 L822.138,228.268 L822.953,215.239 L737.452,268.168 L756.18,272.239 L773.281,309.697 L741.523,350.412 L702.437,350.412 C698.366,346.34 657.651,318.654 657.651,318.654 C657.651,312.14 647.88,257.582 647.88,257.582 L669.051,255.954 C669.051,252.696 660.094,245.368 660.094,245.368 L674.752,241.296 L636.48,232.339 L602.279,216.053 L574.593,229.896 L534.693,232.339 L521.665,263.282 L549.35,260.839 L570.522,276.311 L542.022,324.354 L500.493,347.968 L462.221,349.597 L430.464,307.254 L447.564,271.425 L466.293,267.353 L382.421,216.053 L381.606,229.082 L261.905,159.867 L261.091,171.267 L160.119,112.638 L189.433,239.668 L230.962,254.325 L231.777,239.668 L363.692,294.226 L266.791,275.497 L265.977,286.082 L200.833,277.939 L236.662,363.44 L274.119,356.926 L270.048,347.155 L375.091,342.269 L300.991,365.069 L305.877,375.655 L255.391,396.827 L300.991,462.784 L331.934,447.312 L327.048,436.726 L397.078,404.155 L351.477,446.498 L356.363,453.827 L322.163,482.327 L371.02,525.485 L411.735,496.984 L384.049,535.256 L434.535,561.313 L479.321,514.899 L528.178,581.67 L466.293,620.756 L523.293,694.043 L570.522,645.999 L537.136,711.957 L581.922,742.901 L544.464,799.086 L602.279,939.959 L658.465,798.272 L621.008,742.901 L664.98,711.957 L632.408,645.999 L678.008,693.229 L734.195,620.756 L676.38,580.856 L723.609,515.713 L769.21,562.942 L820.509,536.07 L792.009,497.798 L833.539,524.67 L882.396,483.141 L846.567,453.012 L851.453,445.684 L805.038,404.969 L877.51,436.726 L871.81,448.126 L901.939,462.784 L949.168,396.827 L897.868,374.84 L900.31,364.254 L828.653,342.269 L932.882,347.155 L929.625,357.74 L967.897,364.254 L1002.1,277.125 L936.954,286.897 L936.139,276.311 L838.424,295.04 L971.154,241.296 L973.596,254.325 Z" id="Fill-6" fill="#C2242B"></path>
            <polyline id="Fill-7" fill="#FFFFFE" points="602.279 155.389 609.201 168.824 605.537 179.003 613.679 179.41 613.272 186.739 625.894 193.66 636.886 181.853 656.023 177.782 635.666 207.096 634.851 217.275 601.465 204.246 568.893 217.682 568.486 206.282 548.129 179.817 566.044 181.039 576.63 192.846 590.472 188.367 590.472 179.817 599.022 179.41 594.544 169.639 602.279 155.389"></polyline>
            <path d="M820.917,185.517 C820.917,185.517 730.531,148.467 603.501,117.931 C603.501,117.931 476.879,145.617 383.235,186.332 L403.592,199.768 C403.592,199.768 528.586,146.431 601.873,126.074 C601.873,126.074 780.609,182.667 799.746,198.546 L820.917,185.517" id="Fill-8" fill="#1C2342"></path>
            <path d="M835.981,788.5 C835.981,788.5 679.637,931.816 603.908,959.502 C603.908,959.502 520.036,927.745 370.206,791.758 C370.206,791.758 512.708,955.431 602.279,988.002 C602.279,988.002 732.566,918.788 835.981,788.5" id="Fill-9" fill="#FFFFFE"></path>
            <polyline id="Fill-10" fill="#FFFFFE" points="865.296 576.243 799.61 606.643 720.352 727.701 758.353 728.244 676.38 855.273 814.81 699.473 780.067 698.929 865.296 576.243"></polyline>
            <polyline id="Fill-11" fill="#FFFFFE" points="340.349 576.243 406.035 606.643 485.294 726.615 445.664 729.33 529.265 855.817 390.293 700.557 425.036 700.015 340.349 576.243"></polyline>
            <path d="M174.565,404.554 L174.565,431.38 L192.832,431.38 C201.221,431.38 206.986,430.362 210.127,428.324 C213.267,426.286 214.838,422.749 214.838,417.715 C214.838,412.825 213.315,409.41 210.271,407.467 C207.226,405.526 201.413,404.554 192.832,404.554 L174.565,404.554 Z M145.295,489.706 L145.295,383.626 L200.095,383.626 C208.052,383.626 214.262,384.035 218.721,384.849 C223.18,385.665 227.039,386.983 230.3,388.804 C235.093,391.537 238.737,395.373 241.231,400.311 C243.723,405.25 244.971,411.099 244.971,417.859 C244.971,424.62 243.7,430.445 241.159,435.335 C238.617,440.226 234.878,443.965 229.94,446.554 C226.44,448.473 222.328,449.839 217.606,450.654 C212.883,451.469 205.273,451.876 194.774,451.876 L174.565,451.876 L174.565,489.706 L145.295,489.706 Z" id="Fill-12" fill="#1C2342"></path>
            <path d="M174.565,404.554 L174.565,431.38 L192.832,431.38 C201.221,431.38 206.986,430.362 210.127,428.324 C213.267,426.286 214.838,422.749 214.838,417.715 C214.838,412.825 213.315,409.41 210.271,407.467 C207.226,405.526 201.413,404.554 192.832,404.554 L174.565,404.554 Z M145.295,489.706 L145.295,383.626 L200.095,383.626 C208.052,383.626 214.262,384.035 218.721,384.849 C223.18,385.665 227.039,386.983 230.3,388.804 C235.093,391.537 238.737,395.373 241.231,400.311 C243.723,405.25 244.971,411.099 244.971,417.859 C244.971,424.62 243.7,430.445 241.159,435.335 C238.617,440.226 234.878,443.965 229.94,446.554 C226.44,448.473 222.328,449.839 217.606,450.654 C212.883,451.469 205.273,451.876 194.774,451.876 L174.565,451.876 L174.565,489.706 L145.295,489.706 Z" id="Stroke-13" stroke="#FFFFFE" stroke-width="5"></path>
            <polyline id="Fill-14" fill="#1C2342" points="282.237 383.626 312.298 383.626 312.298 424.62 365.445 424.62 365.445 383.626 395.507 383.626 395.507 489.706 365.445 489.706 365.445 446.842 312.298 446.842 312.298 489.706 282.237 489.706 282.237 383.626"></polyline>
            <polygon id="Stroke-15" stroke="#FFFFFE" stroke-width="5" points="282.237 383.626 312.298 383.626 312.298 424.62 365.445 424.62 365.445 383.626 395.507 383.626 395.507 489.706 365.445 489.706 365.445 446.842 312.298 446.842 312.298 489.706 282.237 489.706"></polygon>
            <polygon id="Fill-16" fill="#1C2342" points="441.906 489.706 472.256 489.706 472.256 383.626 441.906 383.626"></polygon>
            <polygon id="Stroke-17" stroke="#FFFFFE" stroke-width="5" points="441.906 489.706 472.256 489.706 472.256 383.626 441.906 383.626"></polygon>
            <polyline id="Fill-18" fill="#1C2342" points="518.799 489.706 518.799 383.626 548.86 383.626 548.86 466.548 604.523 466.548 604.523 489.706 518.799 489.706"></polyline>
            <polygon id="Stroke-19" stroke="#FFFFFE" stroke-width="5" points="518.799 489.706 518.799 383.626 548.86 383.626 548.86 466.548 604.523 466.548 604.523 489.706"></polygon>
            <polyline id="Fill-20" fill="#1C2342" points="640.281 489.706 640.281 383.626 670.342 383.626 670.342 466.548 726.006 466.548 726.006 489.706 640.281 489.706"></polyline>
            <polygon id="Stroke-21" stroke="#FFFFFE" stroke-width="5" points="640.281 489.706 640.281 383.626 670.342 383.626 670.342 466.548 726.006 466.548 726.006 489.706"></polygon>
            <polygon id="Fill-22" fill="#1C2342" points="762.194 489.706 792.542 489.706 792.542 383.626 762.194 383.626"></polygon>
            <polygon id="Stroke-23" stroke="#FFFFFE" stroke-width="5" points="762.194 489.706 792.542 489.706 792.542 383.626 762.194 383.626"></polygon>
            <path d="M868.355,404.554 L868.355,431.38 L886.623,431.38 C895.012,431.38 900.778,430.362 903.919,428.324 C907.058,426.286 908.63,422.749 908.63,417.715 C908.63,412.825 907.106,409.41 904.062,407.467 C901.018,405.526 895.205,404.554 886.623,404.554 L868.355,404.554 Z M839.086,489.706 L839.086,383.626 L893.886,383.626 C901.845,383.626 908.053,384.035 912.513,384.849 C916.971,385.665 920.83,386.983 924.091,388.804 C928.885,391.537 932.529,395.373 935.022,400.311 C937.514,405.25 938.761,411.099 938.761,417.859 C938.761,424.62 937.491,430.445 934.951,435.335 C932.41,440.226 928.669,443.965 923.732,446.554 C920.232,448.473 916.121,449.839 911.398,450.654 C906.675,451.469 899.065,451.876 888.565,451.876 L868.355,451.876 L868.355,489.706 L839.086,489.706 Z" id="Fill-24" fill="#1C2342"></path>
            <path d="M868.355,404.554 L868.355,431.38 L886.623,431.38 C895.012,431.38 900.778,430.362 903.919,428.324 C907.058,426.286 908.63,422.749 908.63,417.715 C908.63,412.825 907.106,409.41 904.062,407.467 C901.018,405.526 895.205,404.554 886.623,404.554 L868.355,404.554 Z M839.086,489.706 L839.086,383.626 L893.886,383.626 C901.845,383.626 908.053,384.035 912.513,384.849 C916.971,385.665 920.83,386.983 924.091,388.804 C928.885,391.537 932.529,395.373 935.022,400.311 C937.514,405.25 938.761,411.099 938.761,417.859 C938.761,424.62 937.491,430.445 934.951,435.335 C932.41,440.226 928.669,443.965 923.732,446.554 C920.232,448.473 916.121,449.839 911.398,450.654 C906.675,451.469 899.065,451.876 888.565,451.876 L868.355,451.876 L868.355,489.706 L839.086,489.706 Z" id="Stroke-25" stroke="#FFFFFE" stroke-width="5"></path>
            <path d="M971.283,454.322 L1001.34,454.322 L1001.34,455.4 C1001.34,460.627 1003.07,464.487 1006.52,466.979 C1009.97,469.473 1015.32,470.719 1022.56,470.719 C1028.98,470.719 1033.78,469.796 1036.94,467.95 C1040.11,466.105 1041.69,463.336 1041.69,459.643 C1041.69,454.275 1034.35,450.271 1019.68,447.633 C1016.71,447.106 1014.43,446.698 1012.85,446.411 C998.37,443.631 988.19,439.891 982.322,435.192 C976.448,430.494 973.512,423.973 973.512,415.63 C973.512,404.794 977.766,396.512 986.277,390.783 C994.79,385.053 1007.07,382.188 1023.13,382.188 C1038.48,382.188 1049.84,384.753 1057.22,389.883 C1064.61,395.014 1068.61,403.093 1069.23,414.12 L1040.68,414.12 L1040.68,413.832 C1040.68,409.949 1039.14,407.011 1036.04,405.022 C1032.95,403.034 1028.36,402.038 1022.27,402.038 C1016.37,402.038 1011.83,402.901 1008.64,404.626 C1005.45,406.352 1003.86,408.797 1003.86,411.961 C1003.86,416.997 1010.96,420.832 1025.15,423.468 C1027.64,423.949 1029.58,424.332 1030.97,424.62 C1031.26,424.667 1031.67,424.74 1032.19,424.835 C1047.82,427.856 1058.16,431.548 1063.19,435.911 C1066.12,438.453 1068.35,441.556 1069.88,445.224 C1071.41,448.892 1072.18,452.908 1072.18,457.27 C1072.18,468.249 1067.76,476.701 1058.91,482.622 C1050.07,488.543 1037.42,491.503 1020.98,491.503 C1004.39,491.503 991.96,488.603 983.687,482.801 C975.418,477 971.283,468.249 971.283,456.551 L971.283,454.322" id="Fill-26" fill="#1C2342"></path>
            <path d="M971.283,454.322 L1001.34,454.322 L1001.34,455.4 C1001.34,460.627 1003.07,464.487 1006.52,466.979 C1009.97,469.473 1015.32,470.719 1022.56,470.719 C1028.98,470.719 1033.78,469.796 1036.94,467.95 C1040.11,466.105 1041.69,463.336 1041.69,459.643 C1041.69,454.275 1034.35,450.271 1019.68,447.633 C1016.71,447.106 1014.43,446.698 1012.85,446.411 C998.37,443.631 988.19,439.891 982.322,435.192 C976.448,430.494 973.512,423.973 973.512,415.63 C973.512,404.794 977.766,396.512 986.277,390.783 C994.79,385.053 1007.07,382.188 1023.13,382.188 C1038.48,382.188 1049.84,384.753 1057.22,389.883 C1064.61,395.014 1068.61,403.093 1069.23,414.12 L1040.68,414.12 L1040.68,413.832 C1040.68,409.949 1039.14,407.011 1036.04,405.022 C1032.95,403.034 1028.36,402.038 1022.27,402.038 C1016.37,402.038 1011.83,402.901 1008.64,404.626 C1005.45,406.352 1003.86,408.797 1003.86,411.961 C1003.86,416.997 1010.96,420.832 1025.15,423.468 C1027.64,423.949 1029.58,424.332 1030.97,424.62 C1031.26,424.667 1031.67,424.74 1032.19,424.835 C1047.82,427.856 1058.16,431.548 1063.19,435.911 C1066.12,438.453 1068.35,441.556 1069.88,445.224 C1071.41,448.892 1072.18,452.908 1072.18,457.27 C1072.18,468.249 1067.76,476.701 1058.91,482.622 C1050.07,488.543 1037.42,491.503 1020.98,491.503 C1004.39,491.503 991.96,488.603 983.687,482.801 C975.418,477 971.283,468.249 971.283,456.551 L971.283,454.322 Z" id="Stroke-27" stroke="#FFFFFE" stroke-width="5"></path>
            <path d="M105.039,880.481 C110.645,884.054 116.092,889.417 121.36,897.097 C126.634,904.786 131.662,913.865 136.424,924.604 C141.194,935.36 145.631,947.31 149.728,960.153 C153.832,973.012 157.088,986.121 159.935,998.2 C164.007,1015.472 168.952,1033.28 172.177,1050.93 C174.123,1061.58 175.463,1067.53 176.105,1072.49 C176.167,1076.76 176.197,1079.41 176.259,1085.35 C135.51,1078.57 94.798,1071.59 54.089,1064.58 C53.993,1046.64 53.891,1047.55 53.66,1021.92 C76.452,1027.08 99.247,1032.23 122.048,1037.35 C121.348,1028.85 120.04,1019.78 118.105,1011.187 C116.175,1002.617 114.116,994.589 111.936,987.669 C109.756,980.746 107.515,974.385 105.218,968.738 C102.918,963.081 101.2,959.459 100.07,957.945 C78.561,950.15 57.061,942.329 35.557,934.52 C35.969,1018.05 36.457,1101.58 36.743,1185.11 C22.634,1184.79 15.581,1184.63 1.479,1184.32 C1.338,1065.31 1.17,946.3 0.926,827.288 C35.668,844.943 70.317,862.784 105.039,880.481" id="Fill-28" fill="#C2242B"></path>
            <path d="M105.039,880.481 C110.645,884.054 116.092,889.417 121.36,897.097 C126.634,904.786 131.662,913.865 136.424,924.604 C141.194,935.36 145.631,947.31 149.728,960.153 C153.832,973.012 157.088,986.121 159.935,998.2 C164.007,1015.472 168.952,1033.28 172.177,1050.93 C174.123,1061.58 175.463,1067.53 176.105,1072.49 C176.167,1076.76 176.197,1079.41 176.259,1085.35 C135.51,1078.57 94.798,1071.59 54.089,1064.58 C53.993,1046.64 53.891,1047.55 53.66,1021.92 C76.452,1027.08 99.247,1032.23 122.048,1037.35 C121.348,1028.85 120.04,1019.78 118.105,1011.187 C116.175,1002.617 114.116,994.589 111.936,987.669 C109.756,980.746 107.515,974.385 105.218,968.738 C102.918,963.081 101.2,959.459 100.07,957.945 C78.561,950.15 57.061,942.329 35.557,934.52 C35.969,1018.05 36.457,1101.58 36.743,1185.11 C22.634,1184.79 15.581,1184.63 1.479,1184.32 C1.338,1065.31 1.17,946.3 0.926,827.288 C35.668,844.943 70.317,862.784 105.039,880.481 Z" id="Stroke-29" stroke="#1C2342" stroke-width="9"></path>
            <path d="M328.531,1108.37 C301.309,1104.75 274.13,1100.8 246.984,1096.64 C246.828,1082.23 246.661,1081.78 246.287,1063.79 C273.165,1069.11 300.108,1074.1 327.132,1078.63 C326.545,1046.7 326.222,1014.766 325.594,982.838 C340.425,988.683 347.848,991.497 362.698,996.84 C363.734,1061.72 364.512,1126.58 364.961,1191.47 C350.643,1191.3 343.484,1191.2 329.168,1191 C328.937,1163.46 328.775,1135.91 328.531,1108.37 Z M226.765,940.17 C228.358,1023.22 229.57,1106.25 230.334,1189.31 C216.025,1189.04 208.871,1188.89 194.565,1188.59 C193.768,1100.12 192.532,1011.658 190.907,923.19 C205.217,930.09 212.391,933.498 226.765,940.17 Z" id="Fill-31" fill="#C2242B"></path>
            <path d="M328.531,1108.37 C301.309,1104.75 274.13,1100.8 246.984,1096.64 C246.828,1082.23 246.661,1081.78 246.287,1063.79 C273.165,1069.11 300.108,1074.1 327.132,1078.63 C326.545,1046.7 326.222,1014.766 325.594,982.838 C340.425,988.683 347.848,991.497 362.698,996.84 C363.734,1061.72 364.512,1126.58 364.961,1191.47 C350.643,1191.3 343.484,1191.2 329.168,1191 C328.937,1163.46 328.775,1135.91 328.531,1108.37 Z M226.765,940.17 C228.358,1023.22 229.57,1106.25 230.334,1189.31 C216.025,1189.04 208.871,1188.89 194.565,1188.59 C193.768,1100.12 192.532,1011.658 190.907,923.19 C205.217,930.09 212.391,933.498 226.765,940.17 Z" id="Stroke-32" stroke="#1C2342" stroke-width="9"></path>
            <path d="M518.083,1074.61 C489.279,1071.48 460.765,1067.37 432.226,1062.38 C427.953,1064.11 424.689,1066.85 422.444,1070.5 C420.192,1074.16 418.53,1078.93 417.457,1084.35 C417.787,1106.1 417.91,1127.85 418.016,1149.61 C445.748,1151.37 473.479,1152.87 501.238,1154.1 C507.208,1152.19 511.323,1149.82 513.598,1146.98 C515.866,1144.15 517.424,1139.4 518.268,1133.06 C518.267,1113.57 518.15,1094.09 518.083,1074.61 Z M381.119,1056.23 C381.058,1051.42 381.028,1048.96 380.966,1044.11 C381.473,1039.04 382.916,1034.26 385.292,1029.99 C387.666,1025.72 390.416,1022.22 393.528,1019.47 C396.636,1016.72 399.836,1014.873 403.115,1013.721 C406.385,1012.571 409.18,1012.454 411.488,1013.165 C457.736,1026.88 503.987,1037.38 551.849,1043.56 C551.911,1083.01 551.965,1122.46 551.989,1161.9 C551.138,1165.16 549.576,1168.51 547.308,1171.96 C545.033,1175.42 542.479,1178.67 539.645,1181.7 C536.808,1184.74 533.893,1187.26 530.918,1189.26 C527.938,1191.26 525.449,1192.26 523.466,1192.26 C523.125,1192.26 522.958,1192.26 522.616,1192.26 C475.885,1192.35 429.159,1192.12 382.431,1191.66 C382.145,1146.51 381.723,1101.37 381.119,1056.23 Z" id="Fill-34" fill="#C2242B"></path>
            <path d="M518.083,1074.61 C489.279,1071.48 460.765,1067.37 432.226,1062.38 C427.953,1064.11 424.689,1066.85 422.444,1070.5 C420.192,1074.16 418.53,1078.93 417.457,1084.35 C417.787,1106.1 417.91,1127.85 418.016,1149.61 C445.748,1151.37 473.479,1152.87 501.238,1154.1 C507.208,1152.19 511.323,1149.82 513.598,1146.98 C515.866,1144.15 517.424,1139.4 518.268,1133.06 C518.267,1113.57 518.15,1094.09 518.083,1074.61 Z M381.119,1056.23 C381.058,1051.42 381.028,1048.96 380.966,1044.11 C381.473,1039.04 382.916,1034.26 385.292,1029.99 C387.666,1025.72 390.416,1022.22 393.528,1019.47 C396.636,1016.72 399.836,1014.873 403.115,1013.721 C406.385,1012.571 409.18,1012.454 411.488,1013.165 C457.736,1026.88 503.987,1037.38 551.849,1043.56 C551.911,1083.01 551.965,1122.46 551.989,1161.9 C551.138,1165.16 549.576,1168.51 547.308,1171.96 C545.033,1175.42 542.479,1178.67 539.645,1181.7 C536.808,1184.74 533.893,1187.26 530.918,1189.26 C527.938,1191.26 525.449,1192.26 523.466,1192.26 C523.125,1192.26 522.958,1192.26 522.616,1192.26 C475.885,1192.35 429.159,1192.12 382.431,1191.66 C382.145,1146.51 381.723,1101.37 381.119,1056.23 Z" id="Stroke-35" stroke="#1C2342" stroke-width="9"></path>
            <path d="M592.034,1119 C582.152,1118.9 577.207,1118.81 567.315,1118.55 C567.88,1113.71 569.156,1108.79 571.143,1103.24 C573.128,1097.7 577.022,1090.58 582.652,1082.26 C585.215,1078.46 588.335,1074.5 592.029,1070.45 C595.72,1066.4 599.981,1062.98 604.809,1059.56 C609.632,1056.16 614.747,1053.12 620.144,1050.52 C625.533,1047.91 630.937,1046.21 636.338,1045.42 C672.02,1042.03 706.817,1036.28 741.795,1028.48 C741.718,1040.91 741.683,1048.96 741.607,1064.15 C708.575,1069.12 675.635,1072.71 642.289,1074.74 C640.586,1075.55 638.878,1076.53 637.174,1077.67 C635.471,1078.81 633.34,1081.03 630.784,1084.28 C628.228,1087.52 626.379,1090.36 625.246,1092.84 C624.111,1095.32 623.258,1098.33 622.692,1101.9 C658.114,1101.83 693.335,1100.46 728.668,1097.97 C728.609,1109.49 728.589,1112.76 728.604,1124.51 C699.27,1126.63 669.951,1128.26 640.562,1129.36 C637.437,1129.47 634.32,1132.36 631.201,1138.13 C628.076,1143.91 625.67,1150.98 623.967,1159.33 C664.417,1158.78 704.816,1157.53 745.227,1155.69 C745.248,1170.74 745.26,1178.71 745.281,1192.26 C685.966,1192.4 626.649,1191.48 567.338,1192.03 C567.337,1186.96 568.118,1181.19 569.678,1174.79 C571.235,1168.41 573.437,1161.89 576.274,1155.36 C579.111,1148.84 582.383,1142.39 586.072,1136.03 C589.76,1129.67 593.593,1124.05 597.573,1119.04 C595.358,1119.02 594.249,1119.02 592.034,1119" id="Fill-37" fill="#C2242B"></path>
            <path d="M592.034,1119 C582.152,1118.9 577.207,1118.81 567.315,1118.55 C567.88,1113.71 569.156,1108.79 571.143,1103.24 C573.128,1097.7 577.022,1090.58 582.652,1082.26 C585.215,1078.46 588.335,1074.5 592.029,1070.45 C595.72,1066.4 599.981,1062.98 604.809,1059.56 C609.632,1056.16 614.747,1053.12 620.144,1050.52 C625.533,1047.91 630.937,1046.21 636.338,1045.42 C672.02,1042.03 706.817,1036.28 741.795,1028.48 C741.718,1040.91 741.683,1048.96 741.607,1064.15 C708.575,1069.12 675.635,1072.71 642.289,1074.74 C640.586,1075.55 638.878,1076.53 637.174,1077.67 C635.471,1078.81 633.34,1081.03 630.784,1084.28 C628.228,1087.52 626.379,1090.36 625.246,1092.84 C624.111,1095.32 623.258,1098.33 622.692,1101.9 C658.114,1101.83 693.335,1100.46 728.668,1097.97 C728.609,1109.49 728.589,1112.76 728.604,1124.51 C699.27,1126.63 669.951,1128.26 640.562,1129.36 C637.437,1129.47 634.32,1132.36 631.201,1138.13 C628.076,1143.91 625.67,1150.98 623.967,1159.33 C664.417,1158.78 704.816,1157.53 745.227,1155.69 C745.248,1170.74 745.26,1178.71 745.281,1192.26 C685.966,1192.4 626.649,1191.48 567.338,1192.03 C567.337,1186.96 568.118,1181.19 569.678,1174.79 C571.235,1168.41 573.437,1161.89 576.274,1155.36 C579.111,1148.84 582.383,1142.39 586.072,1136.03 C589.76,1129.67 593.593,1124.05 597.573,1119.04 C595.358,1119.02 594.249,1119.02 592.034,1119 Z" id="Stroke-38" stroke="#1C2342" stroke-width="9"></path>
            <path d="M898.499,1190.76 C898.347,1149.42 897.967,1108.09 898.552,1066.75 C897.512,1058.74 895.889,1052.09 893.664,1048 C891.445,1043.92 887.359,1040.9 881.424,1039.14 C853.827,1046.16 826.172,1052.6 798.287,1058.37 C797.933,1102.9 797.95,1147.42 798.051,1191.96 C783.752,1192.07 776.604,1192.12 762.305,1192.19 C762.207,1135.87 762.356,1079.56 762.741,1023.24 C810.248,1010.144 856.369,994.03 902.109,975.719 C904.673,974.671 907.504,974.558 910.605,975.665 C913.702,976.769 916.72,978.878 919.651,982.348 C922.583,985.817 925.294,990.583 927.772,996.754 C930.257,1002.939 932.018,1009.837 933.081,1017.01 C932.464,1074.76 932.327,1132.45 932.547,1190.21 C918.926,1190.44 912.119,1190.55 898.499,1190.76" id="Fill-40" fill="#C2242B"></path>
            <path d="M898.499,1190.76 C898.347,1149.42 897.967,1108.09 898.552,1066.75 C897.512,1058.74 895.889,1052.09 893.664,1048 C891.445,1043.92 887.359,1040.9 881.424,1039.14 C853.827,1046.16 826.172,1052.6 798.287,1058.37 C797.933,1102.9 797.95,1147.42 798.051,1191.96 C783.752,1192.07 776.604,1192.12 762.305,1192.19 C762.207,1135.87 762.356,1079.56 762.741,1023.24 C810.248,1010.144 856.369,994.03 902.109,975.719 C904.673,974.671 907.504,974.558 910.605,975.665 C913.702,976.769 916.72,978.878 919.651,982.348 C922.583,985.817 925.294,990.583 927.772,996.754 C930.257,1002.939 932.018,1009.837 933.081,1017.01 C932.464,1074.76 932.327,1132.45 932.547,1190.21 C918.926,1190.44 912.119,1190.55 898.499,1190.76 Z" id="Stroke-41" stroke="#1C2342" stroke-width="9"></path>
            <path d="M988.74,937.535 C987.66,1021.44 987.12,1105.28 987.46,1189.19 C973.156,1189.47 966.004,1189.6 951.701,1189.87 C951.404,1111.2 951.903,1032.61 952.923,953.953 C967.26,947.547 974.425,944.253 988.74,937.535" id="Fill-43" fill="#C2242B"></path>
            <path d="M988.74,937.535 C987.66,1021.44 987.12,1105.28 987.46,1189.19 C973.156,1189.47 966.004,1189.6 951.701,1189.87 C951.404,1111.2 951.903,1032.61 952.923,953.953 C967.26,947.547 974.425,944.253 988.74,937.535 Z" id="Stroke-44" stroke="#1C2342" stroke-width="9"></path>
            <path d="M1007.49,928.646 C1026.44,919.564 1045.29,910.261 1064.06,900.809 C1081.49,931.383 1090.32,967.068 1101.37,1000.237 C1115.32,953.808 1126.28,906.285 1142.47,860.557 C1157.53,852.723 1172.57,844.857 1187.63,837.013 C1165.99,904.692 1157.22,980.855 1124.8,1044.53 C1159.08,1084.09 1172.37,1137.54 1193.17,1184.62 C1172.58,1185.09 1151.99,1185.56 1131.39,1186.05 C1117.29,1158.15 1104.88,1129.47 1091.11,1101.41 C1078.41,1130.41 1066.88,1160.22 1051.32,1187.85 C1033.27,1188.25 1024.24,1188.44 1006.19,1188.81 C1027.54,1148.6 1040.63,1102.24 1067.09,1065 C1034.8,1028.35 1032.27,970.314 1007.49,928.646" id="Fill-45" fill="#C2242B"></path>
            <path d="M1007.49,928.646 C1026.44,919.564 1045.29,910.261 1064.06,900.809 C1081.49,931.383 1090.32,967.068 1101.37,1000.237 C1115.32,953.808 1126.28,906.285 1142.47,860.557 C1157.53,852.723 1172.57,844.857 1187.63,837.013 C1165.99,904.692 1157.22,980.855 1124.8,1044.53 C1159.08,1084.09 1172.37,1137.54 1193.17,1184.62 C1172.58,1185.09 1151.99,1185.56 1131.39,1186.05 C1117.29,1158.15 1104.88,1129.47 1091.11,1101.41 C1078.41,1130.41 1066.88,1160.22 1051.32,1187.85 C1033.27,1188.25 1024.24,1188.44 1006.19,1188.81 C1027.54,1148.6 1040.63,1102.24 1067.09,1065 C1034.8,1028.35 1032.27,970.314 1007.49,928.646 Z" id="Stroke-46" stroke="#1C2342" stroke-width="9"></path>
        </g>
    </g>
</svg>