<?xml version="1.0" encoding="UTF-8" standalone="no"?>
<svg width="404px" height="325px" viewBox="0 0 404 325" version="1.1" xmlns="http://www.w3.org/2000/svg" xmlns:xlink="http://www.w3.org/1999/xlink">
    <!-- Generator: Sketch 49.1 (51147) - http://www.bohemiancoding.com/sketch -->
    <title>Reynolds_Rhinos_Alternate</title>
    <desc>Created with Sketch.</desc>
    <defs></defs>
    <g id="Page-1" stroke="none" stroke-width="1" fill="none" fill-rule="evenodd">
        <g id="Reynolds_Rhinos_Alternate" transform="translate(5.000000, -2.000000)">
            <polyline id="Fill-1" fill="#B8242A" points="300.806 37.38 311.597 46.091 312.658 54.414 310.713 58.865 303.813 54.607 304.344 51.897 298.859 46.091 294.084 51.51 304.168 59.639 304.875 66.026 297.975 78.8 289.132 79.575 280.106 73.961 276.569 63.317 279.046 57.897 285.238 63.317 284.706 67.187 290.015 70.672 295.853 65.058 296.207 62.736 286.121 54.994 284.531 48.22 290.544 38.542 300.806 37.38"></polyline>
            <polyline id="Fill-2" fill="#B8242A" points="69.759 59.639 51.006 81.705 55.783 87.704 57.729 85.575 74.536 102.607 73.297 104.544 78.428 110.93 97.357 88.479 90.458 80.736 84.974 85.188 87.45 88.285 80.728 95.446 75.243 89.253 81.436 81.511 76.305 76.478 70.113 84.22 65.159 77.445 69.935 70.672 72.413 72.607 77.366 66.607 69.759 59.639"></polyline>
            <polyline id="Fill-3" fill="#B8242A" points="90.634 41.832 81.081 48.993 84.442 55.768 86.388 55.187 103.195 63.51 106.202 69.704 104.257 72.414 108.326 78.607 120.709 70.09 117.171 63.704 114.341 65.058 110.802 58.478 108.68 39.315 110.626 36.8 106.733 30.412 96.296 37.38 100.011 43.768 101.248 44.736 102.488 54.607 93.465 50.155 93.818 47.638 90.634 41.832"></polyline>
            <polyline id="Fill-4" fill="#B8242A" points="121.595 22.283 131.147 17.831 149.723 35.638 146.008 21.509 143.354 21.509 141.409 15.897 152.908 10.863 155.031 17.058 153.615 19.187 162.814 49.768 154.853 52.865 134.154 34.284 139.462 50.929 142.647 50.348 145.3 58.091 133.624 61.962 131.147 55.961 133.093 53.639 125.663 30.219 122.125 30.025 121.595 22.283"></polyline>
            <polyline id="Fill-5" fill="#B8242A" points="212.173 5.831 225.972 6.799 225.619 15.702 222.08 16.089 218.72 41.058 226.857 40.671 228.095 34.672 236.057 35.833 233.05 50.929 207.219 46.865 207.75 39.703 210.404 39.315 213.058 14.347 210.934 13.573 212.173 5.831"></polyline>
            <path d="M44.46,123.125 L37.561,118.866 L41.276,112.479 L45.168,112.285 L48.175,116.544 L44.46,123.125 Z M68.874,128.544 L74.713,116.544 L67.813,112.091 L66.397,114.802 L55.605,114.221 L53.483,107.447 L43.399,102.415 L35.792,105.705 L26.416,124.673 L32.253,130.673 L33.845,128.156 L52.953,139.77 L53.306,143.06 L59.321,145.77 L64.982,133.189 L59.497,130.092 L58.259,131.835 L51.537,127.576 L53.837,122.351 L62.683,122.931 L62.505,125.061 L68.874,128.544 Z" id="Fill-6" fill="#B8242A"></path>
            <path d="M180.329,39.897 L178.736,14.541 L185.813,13.186 L189.35,38.542 L180.329,39.897 Z M196.251,12.412 L188.997,4.863 L174.668,6.412 L169.184,14.154 L171.129,41.638 L178.736,48.993 L192.713,47.058 L198.196,39.509 L196.251,12.412 Z" id="Fill-7" fill="#B8242A"></path>
            <path d="M262.061,52.091 L260.294,53.059 L253.925,49.575 L261.354,25.574 L262.061,25.767 L268.963,30.8 L262.061,52.091 Z M274.801,23.057 L252.863,13.961 L251.447,21.315 L253.394,22.67 L245.433,46.477 L242.778,45.704 L240.833,52.865 L261.002,61.381 L269.847,57.51 L277.983,31.38 L274.801,23.057 Z" id="Fill-8" fill="#B8242A"></path>
            <path d="M42.673,113.389 L40.225,118.264 L44.022,120.543 L46.469,115.668 L42.673,113.389 Z M43.41,109.211 L49.241,112.713 L50.282,116.628 L45.542,126.076 L35.366,119.965 L40.227,110.275 L43.41,109.211 Z M69.009,114.402 L67.83,116.751 L54.496,115.79 L52.724,109.008 L44.771,104.232 L37.9,106.35 L28.259,125.565 L31.561,127.548 L32.95,124.78 L56.659,139.018 L55.269,141.786 L58.571,143.768 L63.37,134.198 L60.071,132.217 L59.074,134.203 L48.897,128.092 L52.822,120.28 L65.566,121.266 L64.449,123.49 L67.75,125.473 L72.309,116.385 L69.009,114.402 Z M67.594,109.088 L77.222,114.871 L69.158,130.939 L60.081,125.488 L60.565,124.525 L54.711,124.064 L53.414,126.653 L58.088,129.461 L59.116,127.414 L68.193,132.865 L59.95,149.296 L50.322,143.514 L51.742,140.686 L34.247,130.18 L32.829,133.009 L23.258,127.261 L35.487,102.886 L45.224,99.884 L55.53,106.073 L57.047,111.915 L65.868,112.618 L67.594,109.088 Z" id="Fill-9" fill="#0A0B09"></path>
            <path d="M70.049,62.017 L53.27,81.79 L56.075,84.64 L58.038,82.325 L77.907,102.503 L75.943,104.819 L78.656,107.575 L95.434,87.801 L90.562,82.849 L87.998,85.869 L90.16,88.064 L81.323,98.479 L72.446,89.464 L79.278,81.414 L76.794,78.892 L69.962,86.941 L61.454,78.301 L70.293,67.885 L72.041,69.66 L74.601,66.64 L70.049,62.017 Z M69.946,56.386 L79.788,66.381 L72.146,75.388 L70.306,73.519 L66.635,77.847 L69.9,81.163 L76.644,73.214 L84.464,81.154 L77.718,89.104 L81.258,92.7 L84.931,88.374 L82.724,86.131 L90.366,77.124 L100.62,87.541 L78.804,113.253 L70.756,105.077 L72.721,102.764 L58.095,87.91 L56.131,90.223 L48.129,82.096 L69.946,56.386 Z" id="Fill-10" fill="#0A0B09"></path>
            <path d="M106.303,32.84 L98.684,38.409 L100.81,41.891 L102.543,40.665 L104.174,57.015 L90.693,49.286 L92.515,47.957 L90.388,44.475 L82.718,50.081 L84.846,53.564 L86.724,52.191 L104.365,62.415 L109.628,71.034 L107.125,72.865 L109.182,76.233 L118.26,69.596 L116.204,66.228 L113.75,68.021 L108.487,59.401 L106.498,37.733 L108.429,36.323 L106.303,32.84 Z M107.357,27.279 L113.425,37.211 L110.377,39.46 L112.145,58.061 L114.807,62.459 L117.259,60.666 L123.361,70.656 L108.124,81.794 L102.024,71.805 L104.476,70.012 L101.775,65.652 L86.728,56.776 L83.685,58.954 L77.618,49.021 L91.446,38.913 L97.162,48.276 L96.119,49.039 L101.004,51.825 L100.45,45.872 L99.407,46.635 L93.688,37.273 L107.357,27.279 Z" id="Fill-11" fill="#0A0B09"></path>
            <path d="M152.089,12.523 L143.325,15.88 L144.588,19.832 L147.017,18.903 L154.82,43.302 L131.195,20.522 L122.535,23.839 L123.798,27.791 L126.581,26.726 L135.515,54.655 L132.732,55.721 L133.952,59.544 L143.075,56.052 L141.852,52.229 L139.127,53.272 L130.61,26.638 L155.987,51.108 L160.785,49.272 L150.629,17.52 L153.353,16.477 L152.089,12.523 Z M154.382,7.428 L157.988,18.702 L155.263,19.746 L165.481,51.694 L155.111,55.663 L137.562,38.192 L140.911,48.662 L144.05,47.46 L147.594,58.541 L131.662,64.641 L128.034,53.3 L130.817,52.234 L124.227,31.628 L121.443,32.693 L117.836,21.418 L132.125,15.948 L147.876,31.778 L145.109,23.125 L142.324,24.19 L138.863,13.368 L154.382,7.428 Z" id="Fill-12" fill="#0A0B09"></path>
            <path d="M185.7,15.306 L180.136,15.842 L181.883,37.521 L187.446,36.985 L185.7,15.306 Z M189.293,13.781 L191.235,37.867 L189.016,40.831 L180.765,41.627 L178.295,39.114 L176.355,15.028 L178.64,12.126 L186.642,11.355 L189.293,13.781 Z M194.277,12.303 L188.533,7.038 L176.15,8.231 L171.267,14.443 L173.372,40.586 L178.872,45.945 L191.489,44.728 L196.388,38.495 L194.277,12.303 Z M197.831,10.276 L200.21,39.821 L193.479,48.533 L177.663,50.059 L169.824,42.681 L167.434,13 L174.177,4.425 L189.805,2.918 L197.831,10.276 Z" id="Fill-13" fill="#0A0B09"></path>
            <path d="M224.295,8.797 L213.04,7.104 L212.518,11.253 L215.38,11.684 L211.705,40.93 L208.845,40.5 L208.332,44.581 L231.831,48.114 L233.259,36.756 L229.528,36.195 L228.614,43.473 L216.678,41.677 L220.353,12.43 L223.773,12.945 L224.295,8.797 Z M228.456,5.403 L226.97,17.239 L223.551,16.724 L220.84,38.284 L225.442,38.977 L226.356,31.698 L237.423,33.362 L235.003,52.611 L204.168,47.974 L205.673,36.004 L208.531,36.433 L211.242,14.873 L208.382,14.442 L209.87,2.608 L228.456,5.403 Z" id="Fill-14" fill="#0A0B09"></path>
            <path d="M267.619,29.804 L262.802,27.826 L255.813,48.202 L260.632,50.18 L267.619,29.804 Z M271.418,30.257 L263.633,52.958 L260.643,54.439 L251.067,50.508 L260.569,22.803 L269.97,26.663 L271.418,30.257 Z M276.49,31.099 L273.534,23.727 L254.9,16.076 L253.579,19.934 L255.928,20.898 L246.427,48.602 L244.075,47.637 L242.754,51.494 L261.312,59.113 L267.996,55.865 L276.49,31.099 Z M280.486,30.98 L270.963,58.748 L261.625,63.495 L237.598,53.63 L241.477,42.317 L244.239,43.45 L251.227,23.075 L248.466,21.941 L252.302,10.757 L276.331,20.622 L280.486,30.98 Z" id="Fill-15" fill="#0A0B09"></path>
            <path d="M303.206,66.076 L302.235,60.444 L291.966,52.789 L291.586,50.595 L295.581,44.185 L298.856,43.554 L305.392,48.425 L305.898,51.878 L305.548,52.445 L309.748,55.576 L310.617,54.16 L309.342,46.385 L299.192,38.819 L292.044,40.231 L287.006,48.319 L287.968,54.211 L298.133,61.789 L298.41,63.9 L293.348,72.029 L289.904,72.685 L283.628,68.007 L283.015,64.358 L283.989,62.793 L279.893,59.739 L278.429,62.068 L279.753,70.103 L289.518,77.382 L297.05,75.962 L303.206,66.076 Z M307.065,66.953 L299.15,79.662 L288.846,81.7 L276.295,72.344 L274.532,61.642 L278.843,54.72 L288.852,62.181 L286.767,65.528 L290.968,68.661 L294.288,63.326 L284.435,55.98 L283.072,47.321 L289.82,36.484 L299.866,34.501 L312.725,44.089 L314.39,54.218 L310.501,60.46 L300.909,53.308 L302.428,50.868 L297.97,47.543 L295.704,51.174 L305.767,58.673 L307.065,66.953 Z" id="Fill-16" fill="#0A0B09"></path>
            <path d="M59.34,182.899 C59.34,257.612 119.907,318.178 194.62,318.178 C269.332,318.178 329.899,257.612 329.899,182.899 C329.899,108.186 269.332,47.619 194.62,47.619 C119.907,47.619 59.34,108.186 59.34,182.899" id="Fill-17" fill="#1F2E4F"></path>
            <path d="M59.34,182.899 C59.34,257.612 119.907,318.178 194.62,318.178 C269.332,318.178 329.899,257.612 329.899,182.899 C329.899,108.186 269.332,47.619 194.62,47.619 C119.907,47.619 59.34,108.186 59.34,182.899 Z" id="Stroke-18" stroke="#0A0B09" stroke-width="8"></path>
            <polyline id="Fill-20" fill="#1F2E4F" points="372.212 324.006 1.793 324.006 21.721 248.046 392.565 248.046 372.212 324.006"></polyline>
            <path d="M314.563,244.335 C316.372,244.335 314.777,244.335 314.777,244.335 L393.086,244.335 L372.62,323 L0.174,323 L20.639,244.335 L75.371,244.335" id="Stroke-21" stroke="#0A0B09" stroke-width="8"></path>
            <path d="M84.945,182.899 C84.945,243.47 134.048,292.574 194.62,292.574 C255.191,292.574 304.294,243.47 304.294,182.899 C304.294,122.327 255.191,73.224 194.62,73.224 C134.048,73.224 84.945,122.327 84.945,182.899" id="Fill-23" fill="#FFFFFE"></path>
            <path d="M84.945,182.899 C84.945,243.47 134.048,292.574 194.62,292.574 C255.191,292.574 304.294,243.47 304.294,182.899 C304.294,122.327 255.191,73.224 194.62,73.224 C134.048,73.224 84.945,122.327 84.945,182.899 Z" id="Stroke-24" stroke="#0A0B09" stroke-width="9"></path>
            <path d="M219.02,86.719 C219.02,86.719 211.074,82.944 206.703,79.369 C206.703,79.369 199.828,74.679 194.266,74.083 C194.266,74.083 181.749,73.76 146.906,84.137 C146.906,84.137 111.146,101.62 93.664,138.373 C93.664,138.373 69.247,199.044 110.533,245.901 C110.533,245.901 141.144,259.756 181.473,249.028 C181.473,249.028 191.407,245.848 196.969,239.493 C202.531,233.135 196.969,240.684 196.969,240.684 C196.969,240.684 198.558,233.335 205.312,240.684 C205.312,240.684 213.656,263.133 227.762,255.981 C227.762,255.981 253.19,248.233 258.355,247.241 C258.355,247.241 269.68,248.432 271.468,243.862 C271.468,243.862 287.361,224.991 291.931,224.592 C291.931,224.592 296.499,217.44 295.108,213.665 L293.917,210.487 C293.917,210.487 297.493,206.315 297.294,203.534 L296.896,200.952 C296.896,200.952 304.049,193.403 303.85,190.621 L304.248,189.23 C304.248,189.23 314.38,187.641 319.545,179.297 L322.556,163.523 L321.273,159.871 L295.504,148.677 L291.931,146.716 C291.931,146.716 285.772,148.305 284.977,150.292 C284.977,150.292 270.077,146.12 265.707,152.477 C265.707,152.477 260.344,150.49 258.555,150.689 C258.555,150.689 249.417,142.147 248.423,138.57 C248.423,138.57 244.45,101.221 237.695,98.837 L236.305,96.652 C236.305,96.652 252.396,93.275 254.582,84.732 C254.582,84.732 267.296,74.402 267.892,68.442 C267.892,68.442 271.395,62.175 268.488,59.502 C268.488,59.502 261.933,57.714 255.575,64.27 C255.575,64.27 243.655,74.601 235.709,73.806 C235.709,73.806 224.98,75.793 219.02,86.719" id="Fill-25" fill="#90918D"></path>
            <path d="M219.787,86.403 L220.935,89.441 C220.935,89.441 222.358,77.207 235.018,76.496 C235.018,76.496 248.96,73.224 252.231,68.814 C252.231,68.814 260.481,62.129 262.757,61.275 C262.757,61.275 270.012,58.572 267.451,64.974 C267.451,64.974 264.891,80.194 245.687,84.462 C245.687,84.462 236.299,84.32 233.169,87.307 C233.169,87.307 228.333,91.005 228.475,96.411 C228.475,96.411 235.445,98.829 242.131,96.411 C242.131,96.411 249.243,94.277 253.796,88.303 C253.796,88.303 260.339,78.914 264.749,76.354 C264.749,76.354 272.145,67.534 269.443,59.853 C269.443,59.853 262.615,55.87 254.792,63.125 C254.792,63.125 247.394,68.103 243.554,71.232 C243.554,71.232 236.157,73.508 233.027,73.366 C233.027,73.366 223.497,73.793 218.944,84.177 L219.787,86.403" id="Fill-26" fill="#0A0B09"></path>
            <path d="M181.391,80.906 C181.391,80.906 194.193,73.793 200.452,78.772 C200.452,78.772 205.815,81.239 210.836,85.6 C211.036,85.773 211.076,85.493 211.076,85.493 C211.076,85.493 214.903,89.721 220.935,89.441 L220.082,82.897 C220.082,82.897 218.233,83.893 218.517,84.889 C218.517,84.889 214.108,83.893 210.41,80.479 C210.41,80.479 200.452,70.948 192.202,75.358 C192.202,75.358 185.231,76.638 181.817,79.056 C181.817,79.056 186.084,61.418 182.528,54.021 C182.528,54.021 174.278,32.967 162.471,48.188 C162.471,48.188 163.325,56.012 161.333,60.564 C161.333,60.564 160.764,64.831 159.484,65.827 C159.484,65.827 150.38,78.487 152.94,86.596 C152.94,86.596 154.22,106.084 176.554,108.075 C176.554,108.075 185.551,104.164 181.817,97.762 C181.817,97.762 175.843,87.947 181.391,80.906" id="Fill-27" fill="#0A0B09"></path>
            <path d="M229.631,96.328 C229.631,96.328 238.66,95.703 243.041,102.944 C243.041,102.944 248.852,111.258 246.975,121.808 C246.975,121.808 247.6,132.268 248.584,134.682 C248.584,134.682 252.875,149.076 258.775,149.165 C258.775,149.165 261.011,149.88 261.815,150.863 C261.815,150.863 262.53,152.652 264.944,150.685 C264.944,150.685 273.437,143.085 281.931,149.522 C281.931,149.522 283.025,150.365 285.38,147.797 C285.451,147.72 285.522,147.64 285.597,147.556 C288.1,144.695 300.704,143.444 305.89,146.394 C305.89,146.394 326.452,160.161 326.005,165.794 C326.005,165.794 318.942,187.787 310.807,190.111 C310.807,190.111 305.979,190.915 305.265,190.826 C305.265,190.826 302.136,199.676 297.665,202.18 C297.665,202.18 298.291,206.74 296.235,210.047 C296.235,210.047 296.95,217.825 295.698,219.881 C295.698,219.881 293.821,225.693 287.921,229.001 C287.921,229.001 286.49,226.854 269.325,248.758 C269.325,248.758 267.268,250.724 263.425,248.579 C263.425,248.579 251.803,248.58 250.819,250.725 C250.819,250.725 240.486,251.706 233.654,255.91 C233.654,255.91 227.844,255.911 224.715,256.626 C224.715,256.626 214.881,260.202 211.841,253.764 C211.841,253.764 201.559,240.443 199.235,240.354 C199.235,240.354 197.715,237.584 194.586,243.484 C194.586,243.484 194.049,239.46 191.277,238.297 C188.506,237.135 191.635,238.029 191.635,238.029 C191.635,238.029 166.245,236.242 160.702,212.729 L160.433,207.991 C160.433,207.991 162.937,208.706 165.172,207.991 C167.407,207.275 165.53,207.991 165.53,207.991 C165.53,207.991 161.954,223.546 185.734,232.844 C185.734,232.844 204.777,233.113 208.8,246.254 C208.8,246.254 211.84,257.162 220.601,255.552 C220.601,255.552 224.982,256.446 239.912,251.976 C239.912,251.976 243.105,252.022 242.862,250.188 L243.756,248.669 C243.756,248.669 248.494,250.099 250.997,248.311 C250.997,248.311 255.462,247.427 264.586,246.612 C264.586,246.612 268.073,246.612 271.023,241.605 C271.023,241.605 277.996,232.218 279.874,231.861 C279.874,231.861 281.304,229 278.265,230.519 C278.265,230.519 275.582,230.966 277.013,229 C277.013,229 277.102,226.408 284.522,227.39 C284.522,227.39 290.601,227.569 291.406,217.735 C291.406,217.735 292.211,211.745 288.456,211.387 C288.456,211.387 282.556,211.835 275.225,208.08 C275.225,208.08 286.579,211.12 292.032,209.063 C292.032,209.063 295.519,207.454 295.072,203.789 C295.072,203.789 288.813,207.364 280.231,205.576 C280.231,205.576 275.492,204.861 274.152,203.878 C274.152,203.878 293.82,206.202 299.632,194.491 C299.632,194.491 303.119,191.182 299.096,186.624 C299.096,186.624 303.208,190.557 307.32,186.981 C307.32,186.981 315.903,184.298 316.529,179.292 C316.529,179.292 322.833,164.595 321.134,163.523 C321.134,163.523 317.993,150.275 298.616,150.038 C298.616,150.038 283.808,150.058 284.881,157.746 C285.954,165.435 284.612,157.389 284.612,157.389 C284.612,157.389 285.328,169.636 288.725,173.123 C288.725,173.123 282.019,168.027 282.109,155.153 C282.109,155.153 282.735,149.432 271.828,151.936 C271.828,151.936 260.563,151.398 259.133,173.481 C259.133,173.481 261.011,193.239 268.342,198.335 C268.342,198.335 270.577,203.43 264.587,196.546 C264.587,196.546 250.819,181.706 259.223,155.958 C259.223,155.958 261.726,152.83 257.703,152.114 C257.703,152.114 254.394,152.741 253.232,152.025 C253.232,152.025 246.349,144.784 244.113,134.771 C244.113,134.771 239.822,116.534 239.732,108.577 C239.732,108.577 237.69,98.103 228.475,96.411 C219.26,94.719 229.631,96.328 229.631,96.328" id="Fill-28" fill="#0A0B09"></path>
            <path d="M250.316,159.296 C250.316,159.296 242.648,175.897 257.115,199.376 C257.115,199.376 258.617,201.905 257.589,198.585 C257.589,198.585 246.838,176.608 251.028,164.039 C251.028,164.039 254.111,155.659 250.316,159.296" id="Fill-29" fill="#0A0B09"></path>
            <path d="M231.343,162.694 C231.343,162.694 228.181,161.351 225.968,154.631 C225.968,154.631 222.726,143.09 215.296,140.955 C215.296,140.955 212.528,141.113 214.505,141.825 C214.505,141.825 220.671,144.118 222.173,151.944 C222.173,151.944 223.597,162.615 230.157,165.224 C230.157,165.224 231.976,165.936 233.32,164.829 C233.32,164.829 234.506,163.011 231.265,162.378" id="Fill-30" fill="#0A0B09"></path>
            <path d="M226.204,176.608 C226.204,176.608 231.817,175.738 231.738,178.268 C231.738,178.268 232.552,180.931 228.813,181.034 C228.686,181.037 228.555,181.037 228.418,181.035 C224.228,180.956 223.912,180.402 222.489,177.952 C222.489,177.952 222.094,175.659 219.643,178.268 C219.643,178.268 217.982,179.771 216.401,179.928 C216.401,179.928 220.275,177.635 220.671,176.212 C220.671,176.212 221.776,172.339 219.959,172.339 C219.959,172.339 219.01,172.734 218.932,173.209 C218.932,173.209 216.243,181.825 210.868,176.687 C210.868,176.687 203.833,171.312 210.236,162.299 C210.236,162.299 211.975,160.402 208.496,160.561 C208.496,160.561 205.651,160.085 203.279,161.746 C203.279,161.746 201.777,162.774 202.646,160.718 C203.516,158.663 202.725,160.402 202.725,160.402 C202.725,160.402 206.148,156.756 209.601,157.405 C209.707,157.425 209.813,157.449 209.919,157.477 C209.919,157.477 211.105,159.533 211.659,158.189 C211.659,158.189 211.5,153.762 202.014,151.864 C202.014,151.864 200.354,151.39 201.066,150.837 C201.066,150.837 200.829,149.572 204.149,150.837 C204.149,150.837 215.849,155.026 218.378,162.694 C218.378,162.694 221.856,175.106 226.204,176.608" id="Fill-31" fill="#0A0B09"></path>
            <path d="M207.796,183.419 C207.796,183.419 198.464,177.921 193.473,166.998 C193.473,166.998 191.665,163.887 192.894,167.866 C192.894,167.866 196.149,178.789 208.085,186.963 C208.085,186.963 210.255,187.397 210.183,185.661 C210.183,185.661 210.544,184.287 207.796,183.419" id="Fill-32" fill="#0A0B09"></path>
            <path d="M201.647,186.384 C201.647,186.384 196.294,183.78 190.869,175.606 C190.869,175.606 188.481,172.134 190.362,176.185 C190.362,176.185 194.051,183.924 202.37,190.435 C202.37,190.435 206.276,191.592 205.264,189.278 C205.264,189.278 204.54,187.614 201.647,186.384" id="Fill-33" fill="#0A0B09"></path>
            <path d="M213.944,187.832 C213.944,187.832 217.271,189.422 219.658,188.844 C219.658,188.844 221.683,188.122 218.14,186.674 C218.14,186.674 213.878,184.431 213.878,185.878 C213.878,185.878 213.727,186.963 213.871,187.469" id="Fill-34" fill="#0A0B09"></path>
            <path d="M215.825,192.751 C215.825,192.751 212.136,190.363 210.544,191.448 C210.544,191.448 207.216,192.967 210.472,193.256 C210.472,193.256 216.766,194.704 215.825,192.751" id="Fill-35" fill="#0A0B09"></path>
            <path d="M258.948,215.513 C258.948,215.513 255.93,211.717 249.651,213.451 C249.651,213.451 241.641,215.423 238.622,223.913 C238.622,223.913 237.814,226.155 239.638,223.644 C239.638,223.644 244.808,215.065 251.714,215.962 C251.714,215.962 255.092,216.35 256.108,217.128 C256.108,217.128 257.394,218.294 258.799,217.755 C258.799,217.755 259.875,216.829 258.948,215.513" id="Fill-36" fill="#0A0B09"></path>
            <path d="M266.242,228.337 C266.242,228.337 259.517,220.266 254.614,219.997 C254.614,219.997 246.304,219.19 244.75,226.125 C244.75,226.125 244.451,228.128 246.454,225.347 C246.454,225.347 248.367,221.222 252.462,222.329 C252.462,222.329 254.225,222.358 252.402,223.943 C252.402,223.943 250.399,226.992 252.103,230.339 C252.103,230.339 254.075,234.794 258.649,234.674 C258.649,234.674 265.465,234.674 266.122,231.416 C266.122,231.416 266.422,230.908 267.199,230.908 C267.199,230.908 271.802,231.237 272.071,230.669 C272.071,230.669 273.147,228.786 271.623,228.666 C271.623,228.666 268.184,228.396 267.019,228.516 C267.019,228.516 266.511,228.635 266.242,228.337" id="Fill-37" fill="#0A0B09"></path>
            <path d="M244.016,249.152 C244.016,249.152 243.589,244.884 229.933,241.791 C229.933,241.791 215.024,240.956 209.221,228.571 C209.153,228.427 209.087,228.282 209.022,228.134 C203.368,215.332 203.048,212.452 203.048,210.637 C203.048,210.637 203.475,199.008 193.339,199.116 C193.339,199.116 184.698,199.222 172.215,206.05 C172.215,206.05 169.669,208.757 160.433,207.991 L160.373,211.171 C160.373,211.171 165.814,212.025 168.374,211.171 C168.374,211.171 172.429,223.334 184.484,228.455 C184.484,228.455 186.298,228.561 184.377,227.601 C184.377,227.601 173.922,219.919 171.682,211.918 C171.682,211.918 170.401,210.104 174.882,209.677 C174.882,209.677 179.043,208.93 178.936,209.784 C178.936,209.784 188.751,223.227 202.194,228.241 C202.194,228.241 205.288,228.774 206.675,232.722 C206.675,232.722 208.809,239.337 220.437,242.43 C220.437,242.43 228.76,243.284 235.48,247.231 C235.48,247.231 240.108,250.371 242.862,250.188 L244.016,249.152" id="Fill-38" fill="#0A0B09"></path>
            <path d="M190.869,237.941 C190.869,237.941 192.988,238.62 191.717,239.891 C191.717,239.891 184.85,247.606 178.407,247.266 C178.407,247.266 174.4,248.601 167.051,241.915 C166.994,241.863 166.935,241.809 166.877,241.755 C159.417,234.889 154.924,226.496 153.567,223.953 C153.567,223.953 145.174,208.947 133.729,205.386 C133.729,205.386 119.402,201.064 110.077,179.954 C110.077,179.954 98.716,146.213 110.077,126.714 C110.077,126.714 120.42,102.13 152.635,88.735 L153.822,88.565 L153.143,86.276 C153.143,86.276 109.483,100.183 101.175,140.873 C101.175,140.873 98.717,166.558 105.923,179.953 C105.923,179.953 115.672,201.231 130.678,210.132 C130.678,210.132 142.801,214.626 149.752,224.968 C149.752,224.968 160.18,243.704 176.033,251.25 C176.033,251.25 189.597,254.471 192.649,246.503 C195.701,238.533 192.734,246.163 192.734,246.163 C192.734,246.163 196.719,239.72 197.905,239.974 L190.869,237.941" id="Fill-39" fill="#0A0B09"></path>
            <path d="M154.544,92.886 C154.544,92.886 155.43,97.693 140.881,110.217 C140.881,110.217 115.075,129.192 116.34,152.343 C116.34,152.343 115.96,170.939 121.273,177.138 C121.273,177.138 133.798,209.397 160.363,211.673 L160.433,207.991 C160.433,207.991 134.809,208.258 120.514,165.879 C120.514,165.879 115.706,135.392 134.177,120.59 C134.177,120.59 155.303,105.283 156.315,99.337 C156.315,99.337 157.236,98.047 157.507,96.883 C157.553,96.683 157.58,96.487 157.58,96.301 C157.58,95.037 154.544,92.886 154.544,92.886" id="Fill-40" fill="#0A0B09"></path>
            <path d="M150.664,226.214 C150.664,226.214 152.158,227.067 149.171,228.774 C149.171,228.774 134.874,242.857 119.085,226.214 C119.085,226.214 106.069,211.705 101.801,209.784 C101.801,209.784 92.84,208.717 88.999,204.236 C88.999,204.236 68.515,124.647 152.371,83.04 L153.011,80.266 C153.011,80.266 68.302,110.352 86.865,210.21 L89.426,210.637 L89.639,209.571 C89.639,209.571 96.894,210.21 102.868,214.265 C102.868,214.265 112.897,230.695 119.938,234.322 C119.938,234.322 125.699,238.803 136.155,237.95 C136.155,237.95 148.317,238.803 153.651,231.548 L150.664,226.214" id="Fill-41" fill="#0A0B09"></path>
            <path d="M89.064,204.43 C89.064,204.43 99.645,238.28 106.894,245.998 C114.144,253.714 101.633,244.244 101.633,244.244 C101.633,244.244 88.362,223.43 85.439,205.073" id="Fill-42" fill="#0A0B09"></path>
            <path d="M336.688,73.224 C336.688,73.224 322.867,140.242 295.307,155.281 L321.154,166.018 C321.154,166.018 322.462,162.172 322.873,161.199 C326.408,152.83 349.891,115.172 336.688,73.224" id="Fill-43" fill="#90918D"></path>
            <path d="M335.885,66.182 C335.885,66.182 321.589,139.156 298.821,148.294 L304.294,147.532 C304.294,147.532 321.376,146.41 337.165,75.782 L335.885,66.182" id="Fill-44" fill="#0A0B09"></path>
            <path d="M335.937,66.351 C335.937,66.351 336.525,65.897 339.37,73.294 C339.37,73.294 357.89,116.182 321.154,166.018 C321.154,166.018 324.029,155.864 326.012,152.28 C335.893,134.418 345.556,97.486 337.005,75.313 L335.937,66.351" id="Fill-45" fill="#0A0B09"></path>
            <path d="M253.085,84.177 C253.085,84.177 247.11,88.16 236.725,88.018 C236.725,88.018 230.893,88.445 231.036,95.557 C231.036,95.557 245.261,99.967 253.085,84.177" id="Fill-46" fill="#DADAD5"></path>
            <path d="M179.577,53.594 C179.577,53.594 176.162,44.418 168.908,45.272 C168.908,45.272 164.64,47.406 164.747,51.887 L164.427,59.035 C164.427,59.035 163.68,62.982 161.866,65.756 C161.866,65.756 155.892,75.145 155.892,78.985 C155.892,78.985 151.731,99.149 174.136,106.404 C174.136,106.404 177.336,106.617 172.535,103.31 C172.535,103.31 160.266,95.095 161.44,83.253 C161.44,83.253 160.906,67.57 174.562,69.17 C174.562,69.17 177.016,62.769 173.709,57.541 C173.709,57.541 172.748,54.34 176.482,59.248 C176.482,59.248 177.976,64.689 176.056,73.118 C176.056,73.118 170.508,96.055 178.829,99.79 C178.829,99.79 182.03,101.176 177.549,93.281 C177.549,93.281 175.202,86.347 178.936,78.559 C178.936,78.559 182.564,68.423 181.71,62.235 C181.71,62.235 181.603,57.328 179.577,53.594" id="Fill-47" fill="#90918D"></path>
            <path d="M212.055,163.564 C212.055,163.564 208.892,164.907 208.655,168.307 C208.655,168.307 209.051,174.474 212.055,171.548 C212.055,171.548 215.217,162.853 212.055,163.564" id="Fill-48" fill="#FFFFFE"></path>
            <path d="M253.566,224.72 C253.566,224.72 252.012,229.952 255.181,231.028 C255.181,231.028 255.808,231.357 255.808,229.234 C255.808,229.234 255.808,226.484 256.795,226.215 C256.795,226.215 258.917,225.677 258.17,224.302 C258.17,224.302 257.811,223.136 256.257,223.196 C256.257,223.196 253.746,223.495 253.566,224.72" id="Fill-49" fill="#FAFBF9"></path>
            <path d="M181.71,209.464 C181.71,209.464 183.31,212.878 186.298,214.798 C186.298,214.798 187.578,216.399 188.751,214.372 C188.751,214.372 191.099,212.131 192.592,209.784 C192.592,209.784 194.726,208.291 193.232,210.21 C193.232,210.21 186.938,216.292 189.818,218.106 C189.818,218.106 195.153,224.827 196.86,222.374 C196.86,222.374 198.78,220.773 199.527,218.96 C200.274,217.145 200.167,209.784 196.967,205.516 C196.967,205.516 193.553,201.142 188.645,203.809 C188.645,203.809 179.15,206.796 181.71,209.464" id="Fill-50" fill="#FFFFFE"></path>
            <path d="M199.847,221.093 C199.847,221.093 196.22,222.8 198.994,224.72 C198.994,224.72 202.834,228.347 202.301,225.041 C202.301,225.041 201.234,219.919 199.847,221.093" id="Fill-51" fill="#FFFFFE"></path>
            <polyline id="Fill-52" fill="#B8242A" points="97.217 254.925 117.041 256.436 115.342 265.121 112.699 267.764 110.622 279.659 124.027 280.036 127.992 267.386 125.16 266.443 127.426 256.436 149.516 255.303 147.816 267.198 142.907 268.519 131.768 306.28 136.299 307.224 133.468 317.986 111.755 318.929 114.587 307.601 117.608 307.035 121.384 292.875 107.035 292.875 102.504 306.657 105.713 308.168 102.882 317.419 82.113 317.796 84.001 307.413 88.722 306.846 99.105 268.331 95.896 267.009 97.217 254.925"></polyline>
            <polyline id="Fill-53" fill="#B8242A" points="166.508 254.547 189.542 256.058 188.031 267.953 183.689 267.953 173.871 305.147 178.024 305.902 174.626 318.552 149.516 318.929 153.669 307.413 158.767 306.846 167.074 268.897 164.242 266.631 166.508 254.547"></polyline>
            <polyline id="Fill-54" fill="#B8242A" points="208.799 255.87 228.812 256.248 238.819 293.064 246.183 267.576 242.406 266.065 245.05 255.492 266.195 254.737 264.308 267.198 257.699 267.953 245.05 317.796 230.7 317.796 219.561 275.128 211.82 305.524 215.785 307.224 213.897 318.741 191.052 319.118 193.317 307.413 199.359 306.657 210.121 268.141 205.212 266.82 208.799 255.87"></polyline>
            <polyline id="Fill-55" fill="#B8242A" points="377.777 265.687 371.17 256.248 347.569 255.492 335.675 264.176 331.143 280.602 334.73 289.098 355.499 290.797 353.988 301.749 349.835 307.035 340.017 305.713 340.017 301.182 325.101 300.049 323.78 310.055 331.71 317.419 352.667 317.796 366.26 308.357 371.736 287.022 367.582 280.414 346.058 279.281 348.136 269.652 352.477 267.198 361.162 267.764 363.051 270.596 371.925 271.918 375.7 272.296 377.777 265.687"></polyline>
            <path d="M296.971,302.503 L291.684,306.09 L282.056,305.902 L283.755,298.539 L289.607,270.785 L293.006,268.141 L302.635,267.763 L303.956,278.336 L296.971,302.503 Z M312.452,255.303 L289.606,255.114 L278.468,265.499 L265.44,307.791 L272.804,317.986 L296.026,318.741 L311.13,307.601 L320.382,266.82 L312.452,255.303 Z" id="Fill-56" fill="#B8242A"></path>
            <path d="M56.921,280.34 L45.257,280.625 L47.818,268.391 L59.482,269.245 L59.767,275.219 L56.921,280.34 Z M73.617,265.121 L67.953,255.87 L30.759,255.68 L27.172,266.443 L31.325,268.331 L21.319,305.902 L16.41,307.601 L14.333,317.986 L36.045,319.307 L38.689,307.979 L35.479,306.09 L39.822,292.12 L47.751,293.441 L50.772,306.09 L48.129,307.413 L45.485,317.796 L67.765,319.118 L69.841,306.09 L66.254,305.147 L62.855,289.476 L71.729,281.547 L73.617,265.121 Z" id="Fill-57" fill="#B8242A"></path>
            <path d="M57.465,270.233 L49.1,270.233 L47.191,277.358 L55.556,277.358 L57.465,270.233 Z M64.084,268.27 L61.151,279.217 L55.651,283.555 L39.437,283.555 L44.556,264.45 L61.184,264.45 L64.084,268.27 Z M66.607,308.96 L62.579,308.96 L58.625,289.029 L68.165,281.562 L72.165,266.631 L66.178,258.253 L33.204,258.253 L31.544,264.45 L36.294,264.45 L24.368,308.96 L19.617,308.96 L17.957,315.157 L34.377,315.157 L36.038,308.96 L32.63,308.96 L37.749,289.855 L51.155,289.863 L54.83,308.962 L51.013,308.96 L49.352,315.157 L64.946,315.157 L66.607,308.96 Z M74.071,303.074 L69.228,321.146 L41.654,321.146 L46.22,304.107 L47.872,304.107 L46.197,295.328 L41.756,295.328 L39.404,304.107 L42.915,304.107 L38.349,321.146 L10.156,321.146 L14.999,303.074 L19.852,303.074 L28.652,270.233 L23.798,270.233 L28.613,252.263 L70.439,252.263 L78.926,264.139 L73.742,283.487 L65.521,289.901 L68.033,303.137 L74.071,303.074 Z" id="Fill-58" fill="#0A0B09"></path>
            <path d="M146.391,258.253 L130.589,258.253 L128.902,264.552 L131.587,264.552 L126.689,282.832 L106.241,282.832 L111.139,264.552 L113.721,264.552 L115.408,258.253 L100.537,258.253 L98.849,264.552 L102.774,264.552 L90.875,308.96 L86.95,308.96 L85.29,315.157 L100.161,315.157 L101.821,308.96 L99.24,308.96 L104.608,288.925 L125.056,288.925 L119.688,308.96 L117.003,308.96 L115.342,315.157 L131.143,315.157 L132.804,308.96 L127.95,308.96 L139.849,264.552 L144.703,264.552 L146.391,258.253 Z M154.088,252.263 L149.273,270.233 L144.42,270.233 L135.62,303.074 L140.474,303.074 L135.631,321.146 L107.644,321.146 L112.321,303.693 L115.729,303.693 L117.971,295.329 L108.366,295.329 L106.125,303.693 L109.326,303.693 L104.649,321.146 L76.766,321.146 L81.608,303.074 L86.359,303.074 L95.159,270.233 L90.408,270.233 L95.223,252.263 L123.106,252.263 L118.485,269.51 L115.284,269.51 L113.319,276.842 L122.924,276.842 L124.889,269.51 L121.48,269.51 L126.101,252.263 L154.088,252.263 Z" id="Fill-59" fill="#0A0B09"></path>
            <path d="M187.492,258.253 L169.625,258.253 L167.937,264.552 L172.688,264.552 L160.762,309.063 L156.011,309.063 L154.378,315.157 L172.245,315.157 L173.877,309.063 L169.127,309.063 L181.054,264.552 L185.804,264.552 L187.492,258.253 Z M195.19,252.263 L190.375,270.233 L185.625,270.233 L176.825,303.074 L181.576,303.074 L176.733,321.146 L146.681,321.146 L151.523,303.074 L156.274,303.074 L165.073,270.233 L160.323,270.233 L165.138,252.263 L195.19,252.263 Z" id="Fill-60" fill="#0A0B09"></path>
            <path d="M262.262,258.253 L246.976,258.253 L245.289,264.552 L249.523,264.552 L239.103,303.437 L225.83,258.253 L210.727,258.253 L209.039,264.552 L213.893,264.552 L201.967,309.063 L197.113,309.063 L195.48,315.157 L211.385,315.157 L213.017,309.063 L208.267,309.063 L219.64,266.618 L233.9,315.157 L242.264,315.157 L255.823,264.552 L260.573,264.552 L262.262,258.253 Z M269.959,252.263 L265.144,270.233 L260.393,270.233 L246.752,321.146 L228.671,321.146 L219.292,286.801 L214.821,303.487 L220.295,303.487 L215.563,321.146 L187.783,321.146 L192.625,303.074 L197.479,303.074 L206.279,270.233 L201.425,270.233 L206.24,252.263 L231.153,252.263 L239.439,283.301 L243.135,269.51 L238.281,269.51 L242.902,252.263 L269.959,252.263 Z" id="Fill-61" fill="#0A0B09"></path>
            <path d="M302.425,270.233 L293.233,270.233 L284.462,302.97 L293.653,302.97 L302.425,270.233 Z M308.991,268.467 L299.245,304.839 L294.113,308.96 L280.481,308.96 L277.868,304.839 L287.613,268.467 L292.821,264.45 L306.04,264.45 L308.991,268.467 Z M317.757,266.973 L311.373,258.253 L290.913,258.253 L279.784,266.854 L269.206,306.334 L275.149,315.157 L295.993,315.157 L307.159,306.525 L317.757,266.973 Z M324.526,264.45 L312.572,309.063 L297.147,321.146 L271.019,321.146 L262.408,308.96 L274.418,264.139 L289.786,252.263 L315.604,252.263 L324.526,264.45 Z" id="Fill-62" fill="#0A0B09"></path>
            <path d="M368.913,288.417 L364.455,282.316 L344.007,282.316 L342.267,279.941 L345.394,268.27 L350.343,264.45 L363.355,264.45 L365.946,268.27 L365.67,269.303 L374.034,269.303 L374.709,266.734 L368.658,258.253 L348.448,258.253 L337.675,266.632 L333.728,281.359 L338.306,287.79 L358.548,287.79 L360.083,290.153 L356.117,304.952 L350.913,308.96 L338.417,308.96 L335.555,304.992 L336.318,302.144 L328.159,302.144 L327.003,306.396 L333.259,315.157 L352.707,315.157 L364.092,306.411 L368.913,288.417 Z M375.569,285.93 L369.371,309.063 L353.846,321.146 L328.851,321.146 L320.515,309.477 L323.892,296.878 L343.823,296.878 L342.19,302.97 L350.555,302.97 L353.156,293.263 L333.535,293.263 L326.89,283.762 L332.175,264.037 L347.308,252.263 L372.921,252.263 L380.804,263.314 L377.76,274.673 L358.653,274.673 L359.844,270.233 L350.962,270.233 L349.191,276.842 L369.226,276.842 L375.569,285.93 Z" id="Fill-63" fill="#0A0B09"></path>
        </g>
    </g>
</svg>