<?xml version="1.0" encoding="UTF-8" standalone="no"?>
<svg height="150%" width="150%" viewBox="0 0 129 130" version="1.1" xmlns="http://www.w3.org/2000/svg" xmlns:xlink="http://www.w3.org/1999/xlink">
    <!-- Generator: Sketch 49.1 (51147) - http://www.bohemiancoding.com/sketch -->
    <title>smiths_samurai</title>
    <desc>Created with Sketch.</desc>
    <defs></defs>
    <g id="Page-1" stroke="none" stroke-width="1" fill="none" fill-rule="evenodd">
        <g id="smiths_samurai">
            <path d="M125.811,39.453 C124.522,38.361 122.538,37.683 120.633,37.683 C118.5,37.683 116.649,38.483 115.279,39.996 C113.023,42.49 112.943,45.189 113.072,46.492 L109.506,51.627 L107.229,51.775 L106.598,51.816 L106.168,52.279 L105.475,53.027 L102.336,50.406 L102.559,49.92 L103.075,48.797 L102.11,48.022 C98.981,45.509 92.905,42.702 89.911,41.393 C90.69,39.798 90.854,38.219 90.819,37.028 L91.532,37.028 L94.132,37.028 L92.943,34.715 L87.125,23.409 L86.754,22.69 L85.955,22.567 C85.211,22.452 84.449,22.394 83.693,22.394 C82.002,22.394 80.492,22.681 79.261,23.046 C80.238,21.169 80.384,19.772 80.593,17.796 C80.667,17.089 80.751,16.287 80.888,15.335 C81.439,11.478 83.613,9.337 83.636,9.316 L86.105,6.988 L82.728,6.593 C81.804,6.482 80.892,6.426 80.019,6.426 C76.29,6.426 73.56,7.418 71.64,8.584 L70.513,8.275 C67.376,7.411 65.964,4.259 65.951,4.227 L64.491,0.773 L63.032,4.221 C62.997,4.301 61.589,7.416 58.466,8.275 L57.34,8.584 C55.42,7.418 52.691,6.426 48.962,6.426 C48.089,6.426 47.177,6.482 46.252,6.593 L42.882,6.995 L45.353,9.323 C45.367,9.337 47.542,11.478 48.093,15.335 C48.229,16.287 48.314,17.089 48.388,17.796 C48.596,19.772 48.743,21.169 49.719,23.046 C48.488,22.681 46.98,22.394 45.288,22.394 C44.531,22.394 43.77,22.452 43.026,22.567 L42.226,22.69 L41.856,23.409 L36.038,34.715 L34.848,37.028 L37.449,37.028 L38.161,37.028 C38.126,38.219 38.29,39.798 39.071,41.393 C36.074,42.702 29.998,45.509 26.869,48.022 L25.905,48.797 L26.42,49.92 L26.643,50.406 L23.505,53.027 L22.811,52.279 L22.381,51.816 L21.751,51.775 L19.473,51.627 L15.906,46.492 C16.035,45.189 15.956,42.49 13.7,39.996 C12.331,38.483 10.48,37.683 8.346,37.683 C6.442,37.683 4.458,38.361 3.168,39.453 C0.729,41.517 -0.184,44.494 0.599,47.836 C1.279,50.743 3.475,51.828 4.787,52.476 C5.024,52.594 5.344,52.752 5.46,52.836 C5.787,53.227 6.197,53.816 6.525,54.308 C5.944,55.572 5.146,57.917 5.85,60.205 C6.806,63.315 8.884,66.372 11.858,69.051 C14.788,71.687 17.648,73.655 19.147,74.063 C19.605,74.188 20.09,74.251 20.589,74.251 C20.62,74.251 20.65,74.251 20.68,74.251 L20.789,74.491 C19.971,76.314 18.232,81.099 20.838,84.258 L11.53,82.084 L5.376,79.983 L11.236,88.143 L5.63,86.829 L11.631,93.824 L11.631,94.021 L5.835,92.37 L11.631,100.313 L11.631,110.549 L11.631,111.405 L12.347,111.875 L18.595,115.975 L18.992,116.235 L19.466,116.235 L35.45,116.235 C30.02,118.636 22.325,121.848 16.658,123.434 L11.473,124.886 L16.617,126.478 C16.966,126.585 25.267,129.131 32.043,129.131 C33.19,129.131 34.247,129.057 35.183,128.908 C41.749,127.88 44.264,126.524 50.338,123.251 C50.768,123.021 51.216,122.777 51.688,122.525 C57.298,119.511 62.515,116.385 64.491,115.185 C66.465,116.385 71.683,119.511 77.293,122.525 C77.764,122.777 78.213,123.02 78.643,123.251 C84.717,126.524 87.233,127.88 93.799,128.908 C94.735,129.056 95.791,129.131 96.938,129.131 C103.713,129.131 112.014,126.585 112.366,126.478 L117.509,124.886 L112.323,123.434 C106.657,121.848 98.962,118.636 93.532,116.235 L109.516,116.235 L109.991,116.235 L110.386,115.975 L116.636,111.875 L117.351,111.405 L117.351,110.549 L117.351,100.117 L123.005,92.369 L117.077,94.058 L117.071,93.985 L123.212,86.828 L117.605,88.142 L123.464,79.982 L115.859,82.578 C112.345,83.529 108.144,84.257 108.144,84.257 C110.751,81.099 109.011,76.314 108.193,74.49 L108.302,74.25 C108.333,74.25 108.363,74.25 108.394,74.25 C108.892,74.25 109.378,74.188 109.835,74.062 C111.335,73.654 114.194,71.686 117.124,69.05 C120.097,66.371 122.175,63.314 123.132,60.204 C123.837,57.917 123.038,55.571 122.458,54.307 C122.786,53.815 123.196,53.226 123.52,52.835 C123.637,52.751 123.959,52.593 124.196,52.475 C125.507,51.827 127.702,50.742 128.384,47.835 C129.164,44.493 128.25,41.517 125.811,39.453 M58.805,16.593 C58.967,16.258 59.184,15.906 59.47,15.544 C59.512,15.776 59.549,16.015 59.581,16.26 C59.342,16.357 59.079,16.468 58.805,16.593 M69.395,16.26 C69.426,16.014 69.463,15.774 69.506,15.542 C69.791,15.904 70.008,16.257 70.172,16.593 C69.896,16.467 69.635,16.356 69.395,16.26" id="Shape" fill="#DCAB38" fill-rule="nonzero"></path>
            <path d="M124.785,40.931 C123.066,39.476 118.969,38.551 116.455,41.328 C113.943,44.105 114.736,47.146 114.736,47.146 L110.373,53.427 L107.332,53.625 L105.613,55.477 L100.39,51.113 L101.117,49.526 C97.084,46.286 87.562,42.386 87.562,42.386 C90.074,39.344 89.017,35.708 89.017,35.708 L91.531,35.708 L85.713,24.402 C80.557,23.609 76.688,26.138 76.688,26.138 L76.588,24.6 C79.166,20.98 78.67,19.889 79.315,15.377 C79.96,10.865 82.54,8.435 82.54,8.435 C72.573,7.245 69.2,13.294 69.2,13.294 C73.216,16.468 72.077,19.989 72.077,19.989 C70.786,18.551 67.712,17.609 67.712,17.609 C67.911,13.047 70.095,10.071 70.095,10.071 C66.126,8.98 64.49,5.113 64.49,5.113 C64.49,5.113 62.853,8.98 58.887,10.071 C58.887,10.071 61.068,13.047 61.267,17.609 C61.267,17.609 58.192,18.551 56.903,19.989 C56.903,19.989 55.763,16.468 59.779,13.294 C59.779,13.294 56.407,7.245 46.44,8.435 C46.44,8.435 49.019,10.865 49.663,15.377 C50.308,19.889 49.812,20.98 52.391,24.6 L52.291,26.138 C52.291,26.138 48.424,23.609 43.266,24.402 L37.448,35.708 L39.961,35.708 C39.961,35.708 38.903,39.344 41.415,42.386 C41.415,42.386 31.895,46.286 27.862,49.526 L28.589,51.113 L23.366,55.477 L21.647,53.625 L18.605,53.427 L14.242,47.146 C14.242,47.146 15.036,44.105 12.523,41.328 C10.011,38.551 5.911,39.476 4.192,40.931 C2.473,42.386 1.415,44.634 2.142,47.741 C2.87,50.848 5.912,51.179 6.639,52.039 C7.366,52.898 8.357,54.485 8.357,54.485 C8.357,54.485 6.572,57.427 7.366,60.006 C8.159,62.584 9.944,65.46 12.919,68.138 C15.894,70.815 18.473,72.501 19.564,72.799 C20.655,73.097 21.646,72.799 21.646,72.799 L22.539,74.782 C22.539,74.782 19.167,81.031 22.539,84.006 C25.911,86.981 30.87,84.502 30.87,84.502 L32.655,88.369 L13.217,84.7 L13.217,110.814 L19.465,114.915 L42.738,114.915 C42.738,114.915 27.002,122.452 17.085,125.228 C17.085,125.228 28.192,128.666 34.936,127.608 C41.68,126.551 43.796,125.228 50.936,121.393 C58.077,117.558 64.49,113.592 64.49,113.592 C64.49,113.592 70.904,117.558 78.042,121.393 C85.183,125.228 87.3,126.551 94.042,127.608 C100.786,128.667 111.894,125.228 111.894,125.228 C101.978,122.452 86.242,114.915 86.242,114.915 L109.515,114.915 L115.765,110.814 L115.765,84.7 L96.326,88.369 L98.111,84.502 C98.111,84.502 103.07,86.981 106.441,84.006 C109.812,81.031 106.441,74.782 106.441,74.782 L107.334,72.799 C107.334,72.799 108.326,73.097 109.416,72.799 C110.508,72.501 113.086,70.815 116.061,68.138 C119.038,65.46 120.823,62.584 121.616,60.006 C122.409,57.427 120.624,54.485 120.624,54.485 C120.624,54.485 121.616,52.898 122.343,52.039 C123.07,51.179 126.111,50.848 126.839,47.741 C127.562,44.634 126.506,42.386 124.785,40.931" id="Shape" fill="#0F100B" fill-rule="nonzero"></path>
            <path d="M67.529,19.708 L67.529,23.344 L69.248,24.799 C69.248,24.799 71.1,23.146 71.432,21.956 C71.432,21.956 70.572,20.964 67.529,19.708" id="Shape" fill="#EFC31A" fill-rule="nonzero"></path>
            <path d="M75.066,26.451 C75.066,26.451 72.158,28.634 69.843,28.964 L69.48,29.691 C69.48,29.691 71.695,29.361 72.753,30.683 L75.331,27.707 L75.066,26.451 Z" id="Shape" fill="#EFC31A" fill-rule="nonzero"></path>
            <path d="M84.389,26.451 C84.389,26.451 79.959,26.055 77.448,27.972 C74.934,29.889 73.745,32.6 74.538,33.592 C74.538,33.592 75.067,34.187 76.059,31.807 C77.051,29.427 80.545,27.644 83,28.104 L84.918,31.741 C84.918,31.741 81.084,31.939 78.969,33.063 C76.852,34.187 75.399,36.501 76.059,37.162 C76.719,37.823 79.036,34.32 82.538,33.79 C86.042,33.261 88.226,33.658 88.226,33.658 L84.389,26.451 Z" id="Shape" fill="#EE2424" fill-rule="nonzero"></path>
            <path d="M85.314,35.179 L87.628,37.245 C87.628,37.245 87.501,37.992 87.054,39.056 L83.919,35.314 C84.355,35.253 84.818,35.206 85.314,35.179" id="Shape" fill="#FFFFFF" fill-rule="nonzero"></path>
            <path d="M81.977,44.682 C81.35,45.017 80.663,45.316 79.893,45.559 L77.448,39.939 C77.448,39.939 77.532,39.32 78.026,38.527 L81.977,44.682 Z" id="Shape" fill="#FFFFFF" fill-rule="nonzero"></path>
            <path d="M79.906,36.674 L84.404,42.927 C84.058,43.259 83.675,43.58 83.252,43.885 L78.941,37.42 C79.213,37.167 79.531,36.914 79.906,36.674" id="Shape" fill="#FFFFFF" fill-rule="nonzero"></path>
            <path d="M82.523,35.586 L86.357,40.451 C86.095,40.898 85.783,41.364 85.412,41.829 L81.027,36.086 C81.469,35.896 81.969,35.728 82.523,35.586" id="Shape" fill="#FFFFFF" fill-rule="nonzero"></path>
            <path d="M85.891,44.014 L84.059,45.558 L92.192,49.129 C92.192,49.129 84.919,55.608 85.051,62.352 C85.051,62.352 90.473,52.17 96.49,49.393 L85.891,44.014 Z" id="Shape" fill="#EFC31A" fill-rule="nonzero"></path>
            <path d="M103.498,56.865 C103.498,56.865 99.133,52.501 97.018,51.972 C97.018,51.972 91.2,55.279 88.489,61.096 L90.274,62.881 C90.274,62.881 94.309,56.336 99.463,55.08 C99.463,55.08 94.108,60.104 92.785,64.336 L95.166,65.592 C95.166,65.592 99.795,59.113 103.498,56.865" id="Shape" fill="#EE2424" fill-rule="nonzero"></path>
            <path d="M117.91,52.831 L116.191,55.211 L117.052,57.328 L115.001,56.401 L104.024,70.219 C104.024,70.219 108.19,71.211 109.446,70.55 C110.702,69.889 115.661,65.856 117.579,63.278 C119.497,60.699 120.091,58.782 119.628,57.328 C119.166,55.873 117.91,52.831 117.91,52.831" id="Shape" fill="#EFC31A" fill-rule="nonzero"></path>
            <path d="M108.521,55.741 L113.48,55.476 L111.556,57.965 L105.88,57.762 C106.787,56.894 107.689,56.177 108.521,55.741" id="Shape" fill="#EFC31A" fill-rule="nonzero"></path>
            <path d="M102.107,62.12 L108.013,62.547 L106.294,64.771 L100.708,64.097 C101.129,63.469 101.6,62.8 102.107,62.12" id="Shape" fill="#EFC31A" fill-rule="nonzero"></path>
            <path d="M104.396,59.305 L110.294,59.595 L108.98,61.296 L103.06,60.888 C103.492,60.348 103.939,59.815 104.396,59.305" id="Shape" fill="#EFC31A" fill-rule="nonzero"></path>
            <path d="M105.275,66.088 L102.439,69.757 C102.439,69.757 99.132,68.369 98.802,67.708 C98.706,67.518 99.126,66.631 99.864,65.413 L105.275,66.088 Z" id="Shape" fill="#EFC31A" fill-rule="nonzero"></path>
            <path d="M124.092,47.509 C124.092,47.509 125.58,44.633 123.547,42.897 C121.514,41.162 119.58,42.302 118.986,42.65 C118.388,42.996 117.447,44.434 117.595,45.873 C117.595,45.873 118.884,43.385 121.316,43.885 C123.746,44.385 124.291,46.864 124.092,47.509" id="Shape" fill="#EE2424" fill-rule="nonzero"></path>
            <path d="M113.844,53.394 L117.117,48.171 C117.117,48.171 117.58,47.113 118.506,47.807 C119.432,48.501 118.506,49.129 118.506,49.129 L113.844,53.394 Z" id="Shape" fill="#EE2424" fill-rule="nonzero"></path>
            <path d="M100.092,82.419 C100.092,82.419 103.369,83.925 104.754,81.725 C106.688,78.65 103.244,74.209 100.539,72.155 C97.383,69.758 93.496,69.179 92.158,70.778 C90.664,72.564 92.654,75.179 92.654,75.179 C92.654,75.179 92.258,72.799 94.291,72.502 C96.525,72.175 100.24,75.179 100.637,75.725 C101.033,76.27 103.504,78.967 102.869,81.229 C102.479,82.616 100.092,82.419 100.092,82.419" id="Shape" fill="#EE2424" fill-rule="nonzero"></path>
            <path d="M97.383,77.649 L98.789,78.847 L88.488,89.261 L85.976,89.261 C89.754,85.87 95.115,80.118 97.383,77.649" id="Shape" fill="#EFC31A" fill-rule="nonzero"></path>
            <path d="M95.992,76.463 L97.385,77.65 C95.115,80.119 89.754,85.871 85.977,89.262 L82.936,89.262 L95.992,76.463 Z" id="Shape" fill="#FFFFFF" fill-rule="nonzero"></path>
            <polygon id="Shape" fill="#EE2424" fill-rule="nonzero" points="111.002 110.882 108.125 112.767 82.043 112.767 78.67 110.882"></polygon>
            <path d="M70.508,110.882 L74.406,110.882 C74.406,110.882 81.744,115.741 89.183,119.41 C96.621,123.079 99.992,123.973 99.992,123.973 C99.992,123.973 93.945,123.973 86.306,120.005 C80.629,117.057 73.693,112.848 70.508,110.882" id="Shape" fill="#EFC31A" fill-rule="nonzero"></path>
            <path d="M70.508,110.882 C73.694,112.848 80.629,117.057 86.307,120.006 C93.946,123.974 99.993,123.974 99.993,123.974 C99.993,123.974 93.946,125.162 87.597,122.486 C81.251,119.808 64.49,110.882 64.49,110.882 L70.508,110.882 Z" id="Shape" fill="#FFFFFF" fill-rule="nonzero"></path>
            <path d="M56.753,25.889 C56.753,25.889 54.174,23.41 53.976,18.55 C53.778,13.691 54.571,11.608 54.571,11.608 C54.571,11.608 52.483,10.648 50.009,10.22 C50.009,10.22 51.398,13.294 52.191,18.649 C52.984,24.005 56.753,25.889 56.753,25.889" id="Shape" fill="#FFFFFF" fill-rule="nonzero"></path>
            <path d="M61.447,19.708 L61.447,23.344 L59.728,24.799 C59.728,24.799 57.877,23.146 57.546,21.956 C57.546,21.956 58.405,20.964 61.447,19.708" id="Shape" fill="#EFC31A" fill-rule="nonzero"></path>
            <path d="M53.91,26.451 C53.91,26.451 56.82,28.634 59.133,28.964 L59.496,29.691 C59.496,29.691 57.282,29.361 56.224,30.683 L53.645,27.707 L53.91,26.451 Z" id="Shape" fill="#EFC31A" fill-rule="nonzero"></path>
            <path d="M44.588,26.451 C44.588,26.451 49.018,26.055 51.53,27.972 C54.043,29.889 55.233,32.6 54.44,33.592 C54.44,33.592 53.91,34.187 52.919,31.807 C51.927,29.427 48.432,27.644 45.977,28.104 L44.059,31.741 C44.059,31.741 47.893,31.939 50.009,33.063 C52.125,34.187 53.58,36.501 52.919,37.162 C52.257,37.823 49.943,34.32 46.439,33.79 C42.936,33.261 40.754,33.658 40.754,33.658 L44.588,26.451 Z" id="Shape" fill="#EE2424" fill-rule="nonzero"></path>
            <path d="M43.662,35.179 L41.348,37.245 C41.348,37.245 41.476,37.992 41.922,39.056 L45.057,35.314 C44.62,35.253 44.159,35.206 43.662,35.179" id="Shape" fill="#FFFFFF" fill-rule="nonzero"></path>
            <path d="M47.001,44.682 C47.626,45.017 48.316,45.316 49.083,45.559 L51.53,39.939 C51.53,39.939 51.445,39.32 50.951,38.527 L47.001,44.682 Z" id="Shape" fill="#FFFFFF" fill-rule="nonzero"></path>
            <path d="M49.07,36.674 L44.572,42.927 C44.92,43.259 45.303,43.58 45.726,43.885 L50.036,37.42 C49.764,37.167 49.447,36.914 49.07,36.674" id="Shape" fill="#FFFFFF" fill-rule="nonzero"></path>
            <path d="M46.453,35.586 L42.62,40.451 C42.881,40.898 43.194,41.364 43.565,41.829 L47.951,36.086 C47.508,35.896 47.009,35.728 46.453,35.586" id="Shape" fill="#FFFFFF" fill-rule="nonzero"></path>
            <path d="M43.087,44.014 L44.918,45.558 L36.786,49.129 C36.786,49.129 44.058,55.608 43.926,62.352 C43.926,62.352 38.505,52.17 32.488,49.393 L43.087,44.014 Z" id="Shape" fill="#EFC31A" fill-rule="nonzero"></path>
            <path d="M25.48,56.865 C25.48,56.865 29.844,52.501 31.96,51.972 C31.96,51.972 37.778,55.279 40.489,61.096 L38.703,62.881 C38.703,62.881 34.67,56.336 29.513,55.08 C29.513,55.08 34.869,60.104 36.191,64.336 L33.811,65.592 C33.811,65.592 29.183,59.113 25.48,56.865" id="Shape" fill="#EE2424" fill-rule="nonzero"></path>
            <path d="M11.067,52.831 L12.786,55.211 L11.926,57.328 L13.976,56.401 L24.951,70.219 C24.951,70.219 20.786,71.211 19.529,70.55 C18.274,69.889 13.315,65.856 11.397,63.278 C9.48,60.699 8.885,58.782 9.348,57.328 C9.811,55.873 11.067,52.831 11.067,52.831" id="Shape" fill="#EFC31A" fill-rule="nonzero"></path>
            <path d="M20.456,55.741 L15.497,55.476 L17.422,57.965 L23.098,57.762 C22.19,56.894 21.289,56.177 20.456,55.741" id="Shape" fill="#EFC31A" fill-rule="nonzero"></path>
            <path d="M26.87,62.12 L20.963,62.547 L22.683,64.771 L28.269,64.097 C27.849,63.469 27.377,62.8 26.87,62.12" id="Shape" fill="#EFC31A" fill-rule="nonzero"></path>
            <path d="M24.581,59.305 L18.682,59.595 L19.997,61.296 L25.917,60.888 C25.485,60.348 25.038,59.815 24.581,59.305" id="Shape" fill="#EFC31A" fill-rule="nonzero"></path>
            <path d="M23.701,66.088 L26.538,69.757 C26.538,69.757 29.844,68.369 30.174,67.708 C30.269,67.518 29.851,66.631 29.111,65.413 L23.701,66.088 Z" id="Shape" fill="#EFC31A" fill-rule="nonzero"></path>
            <path d="M4.885,47.509 C4.885,47.509 3.398,44.633 5.43,42.897 C7.464,41.162 9.398,42.302 9.992,42.65 C10.588,42.996 11.53,44.434 11.381,45.873 C11.381,45.873 10.092,43.385 7.662,43.885 C5.232,44.385 4.687,46.864 4.885,47.509" id="Shape" fill="#EE2424" fill-rule="nonzero"></path>
            <path d="M15.133,53.394 L11.861,48.171 C11.861,48.171 11.397,47.113 10.472,47.807 C9.547,48.501 10.472,49.129 10.472,49.129 L15.133,53.394 Z" id="Shape" fill="#EE2424" fill-rule="nonzero"></path>
            <path d="M28.885,82.419 C28.885,82.419 25.607,83.925 24.224,81.725 C22.29,78.65 25.734,74.209 28.439,72.155 C31.594,69.758 35.48,69.179 36.819,70.778 C38.314,72.564 36.323,75.179 36.323,75.179 C36.323,75.179 36.72,72.799 34.687,72.502 C32.452,72.175 28.737,75.179 28.34,75.725 C27.943,76.27 25.472,78.967 26.108,81.229 C26.498,82.616 28.885,82.419 28.885,82.419" id="Shape" fill="#EE2424" fill-rule="nonzero"></path>
            <path d="M31.594,77.649 L30.187,78.847 L40.489,89.261 L43,89.261 C39.222,85.87 33.862,80.118 31.594,77.649" id="Shape" fill="#EFC31A" fill-rule="nonzero"></path>
            <path d="M32.984,76.463 L31.594,77.65 C33.861,80.119 39.222,85.871 43,89.262 L46.042,89.262 L32.984,76.463 Z" id="Shape" fill="#FFFFFF" fill-rule="nonzero"></path>
            <polygon id="Shape" fill="#EE2424" fill-rule="nonzero" points="17.976 110.882 20.852 112.767 46.935 112.767 50.307 110.882"></polygon>
            <path d="M58.47,110.882 L54.572,110.882 C54.572,110.882 47.232,115.741 39.794,119.41 C32.356,123.079 28.985,123.973 28.985,123.973 C28.985,123.973 35.034,123.973 42.671,120.005 C48.348,117.057 55.284,112.848 58.47,110.882" id="Shape" fill="#EFC31A" fill-rule="nonzero"></path>
            <path d="M58.47,110.882 C55.284,112.848 48.348,117.057 42.671,120.006 C35.034,123.974 28.985,123.974 28.985,123.974 C28.985,123.974 35.034,125.162 41.381,122.486 C47.728,119.808 64.489,110.882 64.489,110.882 L58.47,110.882 Z" id="Shape" fill="#FFFFFF" fill-rule="nonzero"></path>
            <path d="M38.306,66.462 C38.306,66.462 45.248,61.299 60.422,61.296 L54.683,58.781 C54.683,58.781 77.678,56.95 90.176,66.461 C90.176,66.461 84.125,63.445 64.489,63.445 C44.853,63.446 38.306,66.462 38.306,66.462" id="Shape" fill="#EE2424" fill-rule="nonzero"></path>
            <path d="M53.646,42.98 C53.646,42.98 52.588,52.831 64.489,55.674 L64.489,53.757 C64.489,53.757 66.34,54.022 68.258,52.832 C68.258,52.832 66.67,53.183 64.489,53.183 C62.308,53.183 59.134,52.368 58.737,51.311 C58.737,51.311 61.315,52.369 64.489,52.369 L64.489,51.642 C64.489,51.642 67.662,51.543 69.514,50.385 C69.514,50.385 68.098,50.881 64.46,50.881 C60.824,50.881 58.274,49.394 57.613,48.732 C57.613,48.732 60.423,50.055 64.489,50.055 L64.489,49.327 C64.489,49.327 68.918,49.129 70.903,48.005 C70.903,48.005 66.671,48.567 64.489,48.567 C62.307,48.567 59.233,48.303 57.216,46.617 C57.216,46.617 60.654,47.773 64.489,47.773 L64.489,46.584 C64.489,46.584 72.821,46.518 75.299,42.98 C75.299,42.98 71.58,44.584 68.854,44.683 C66.125,44.782 65.926,44.014 65.926,44.014 L64.489,42.043 L63.051,44.014 C63.051,44.014 62.704,44.683 60.671,44.683 C58.638,44.683 56.37,44.626 53.646,42.98" id="Shape" fill="#EFC31A" fill-rule="nonzero"></path>
            <path d="M55.629,38.526 C55.629,38.526 55.894,39.6510017 57.646,40.2790026 C59.399,40.9070036 62.274,40.8980071 62.274,40.8980071 C62.274,40.8980071 61.876,39.7000018 59.496,39.3930013 C57.117,39.0870008 55.629,38.526 55.629,38.526" id="Shape" fill="#EE2424" fill-rule="nonzero"></path>
            <path d="M64.489,36.897 C58.885,36.897 55.861,34.616 55.861,34.616 C57.051,38.335 64.489,38.707 64.489,38.707 C64.489,38.707 71.926,38.335 73.117,34.616 C73.117,34.617 70.094,36.897 64.489,36.897" id="Shape" fill="#EFC31A" fill-rule="nonzero"></path>
            <path d="M70.34,31.146 C68.803,31.344 69.1,32.782 69.1,32.782 C69.1,32.782 68.606,33.03 67.911,32.386 C67.218,31.741 66.622,30.684 64.489,30.684 C62.357,30.684 61.762,31.741 61.068,32.386 C60.373,33.03 59.878,32.782 59.878,32.782 C59.878,32.782 60.175,31.344 58.638,31.146 C56.763,30.904 56.01,33.377 58.142,34.319 C60.274,35.262 64.489,35.586 64.489,35.586 C64.489,35.586 68.704,35.262 70.837,34.319 C72.969,33.376 72.215,30.904 70.34,31.146" id="Shape" fill="#EE2424" fill-rule="nonzero"></path>
            <path d="M68.307,26.451 C67.168,24.583 64.49,24.798 64.49,24.798 C64.49,24.798 61.81,24.583 60.67,26.451 C59.531,28.319 61.25,30.055 62.275,29.608 C63.299,29.162 62.903,28.864 64.49,28.864 C66.077,28.864 65.68,29.162 66.704,29.608 C67.729,30.055 69.447,28.319 68.307,26.451" id="Shape" fill="#EE2424" fill-rule="nonzero"></path>
            <path d="M64.489,22.749 L63.431,22.749 C63.431,22.749 63.017,12.502 61.447,11.113 C61.447,11.113 64.026,9.129 64.489,8.336 L64.489,22.749 Z" id="Shape" fill="#EE2424" fill-rule="nonzero"></path>
            <path d="M71.828,13.228 L74.869,11.377 C74.869,11.377 76.918,16.732 75.299,20.897 C73.68,25.063 70.043,26.782 70.043,26.782 C70.043,26.782 74.473,23.278 74.273,18.518 C74.076,13.757 71.828,13.228 71.828,13.228" id="Shape" fill="#FFFFFF" fill-rule="nonzero"></path>
            <path d="M73.348,38.526 C73.348,38.526 73.082,39.6510017 71.33,40.2790026 C69.578,40.9070036 66.703,40.8980071 66.703,40.8980071 C66.703,40.8980071 67.099,39.7000018 69.48,39.3930013 C71.861,39.0870008 73.348,38.526 73.348,38.526" id="Shape" fill="#EE2424" fill-rule="nonzero"></path>
            <path d="M26.316,97.015 L19.133,97.015 L19.133,92.056 L26.316,93.345 C26.316,93.345 28.256,94.139 28.356,95.327 L28.356,89.973 L15.463,87.593 L15.463,98.501 C15.463,98.501 15.463,100.188 17.347,100.386 C19.232,100.584 25.083,100.386 25.083,100.386 L25.083,104.354 L17.347,104.354 L15.463,103.362 L15.463,108.023 L28.356,108.023 L28.356,99.097 C28.356,99.097 28.838,97.015 26.316,97.015" id="Shape" fill="#FFFFFF" fill-rule="nonzero"></path>
            <path d="M41.347,91.857 C39.265,91.659 30.966,90.766 30.966,90.766 L30.966,108.022 L34.306,108.022 L34.306,103.46 L39.761,103.46 L39.761,108.022 L43.099,108.022 L43.099,94.832 C43.1,94.832 43.43,92.056 41.347,91.857 Z M39.761,99.891 L34.306,99.891 L34.306,94.633 L39.761,95.328 L39.761,99.891 Z" id="Shape" fill="#FFFFFF" fill-rule="nonzero"></path>
            <path d="M59.827,92.882 L44.62,92.42 C45.679,93.015 45.744,95.131 45.744,95.131 L45.744,108.023 L49.315,108.023 L49.315,96.254 L51.959,96.254 L51.959,108.023 L55.661,108.023 L55.661,96.453 L58.175,96.453 L58.175,108.023 L61.877,108.023 L61.877,95.528 C61.745,92.485 59.827,92.882 59.827,92.882" id="Shape" fill="#FFFFFF" fill-rule="nonzero"></path>
            <path d="M72.984,104.255 L67.961,104.255 L67.961,92.882 L63.068,92.882 C64.059,93.478 63.861,95.263 63.861,95.263 L63.861,108.023 L76.885,108.023 L76.885,92.882 L72.985,92.882 L72.985,104.255 L72.984,104.255 Z" id="Shape" fill="#FFFFFF" fill-rule="nonzero"></path>
            <path d="M89.777,101.346 C91.629,100.487 91.564,98.965 91.564,98.965 L91.564,93.676 C91.166,91.295 89.777,91.561 89.777,91.561 L79,92.419 L79,108.023 L82.637,108.023 L82.637,103.395 L86.67,103.395 C88.258,103.858 87.926,105.445 87.926,105.445 L87.926,108.023 L91.565,108.023 C91.565,108.023 91.629,105.643 91.565,103.726 C91.498,101.809 89.777,101.346 89.777,101.346 Z M88.125,98.304 C88.125,98.304 87.529,99.485 86.605,99.786 L82.703,99.786 L82.703,95.857 L88.125,95.262 L88.125,98.304 Z" id="Shape" fill="#FFFFFF" fill-rule="nonzero"></path>
            <path d="M104.721,89.245 L93.084,91.228 C94.273,91.493 94.406,93.411 94.406,93.411 L94.406,108.021 L97.976,108.021 L97.976,103.328 L103.265,103.328 L103.265,108.021 L107.035,108.021 L107.035,91.957 C106.969,88.32 104.721,89.245 104.721,89.245 Z M103.398,99.787 L98.043,99.787 L98.043,93.939 L103.398,93.145 L103.398,99.787 Z" id="Shape" fill="#FFFFFF" fill-rule="nonzero"></path>
            <path d="M108.488,88.519 C109.613,88.784 109.679,90.899 109.679,90.899 L109.679,108.023 L113.513,108.023 L113.513,87.527 L108.488,88.519 Z" id="Shape" fill="#FFFFFF" fill-rule="nonzero"></path>
            <path d="M41.854,79.944 C41.508,79.237 41.158,78.532 40.804,77.828 C42.378,77.071 43.996,76.392 45.647,75.796 C45.553,75.55 45.459,75.305 45.365,75.06 C43.688,75.666 42.046,76.357 40.448,77.124 C39.615,75.484 38.761,73.85 37.886,72.225 C40.54,70.944 43.307,69.858 46.15,68.983 C46.407,69.728 46.661,70.474 46.913,71.221 C45.099,71.779 43.316,72.424 41.577,73.158 C41.687,73.397 41.796,73.636 41.905,73.875 C43.62,73.154 45.376,72.518 47.164,71.969 C47.746,73.713 48.314,75.461 48.867,77.211 C46.458,77.946 44.11,78.861 41.854,79.944" id="Shape" fill="#FFFFFF" fill-rule="nonzero"></path>
            <path d="M49.672,76.972 C48.775,73.954 47.837,70.948 46.856,67.949 C48.877,68.732 50.797,69.618 52.611,70.592 C53.863,69.002 55.241,67.453 56.746,65.959 C57.156,69.079 57.549,72.201 57.924,75.324 C57.086,75.42 56.25,75.537 55.418,75.676 C55.24,74.643 55.06,73.61 54.876,72.577 C54.378,73.191 53.898,73.812 53.438,74.439 C52.761,74.039 52.068,73.653 51.359,73.281 C51.614,74.298 51.865,75.317 52.113,76.336 C51.294,76.526 50.48,76.739 49.672,76.972" id="Shape" fill="#FFFFFF" fill-rule="nonzero"></path>
            <path d="M58.763,75.232 C58.468,72.364 58.16,69.497 57.841,66.63 C58.834,66.531 59.829,66.457 60.827,66.407 C60.988,69.286 61.141,72.165 61.289,75.044 C60.446,75.086 59.604,75.149 58.763,75.232" id="Shape" fill="#FFFFFF" fill-rule="nonzero"></path>
            <path d="M64.667,74.989 C64.703,72.893 64.739,70.798 64.777,68.7 C63.822,68.685 62.866,68.693 61.911,68.724 C61.883,67.939 61.854,67.153 61.825,66.367 C64.82,66.268 67.824,66.392 70.798,66.738 C70.694,67.517 70.595,68.299 70.495,69.078 C69.546,68.969 68.595,68.883 67.641,68.819 C67.489,70.91 67.34,73.001 67.198,75.093 C66.355,75.038 65.512,75.003 64.667,74.989" id="Shape" fill="#FFFFFF" fill-rule="nonzero"></path>
            <path d="M75.533,76.334 C75.779,75.315 76.031,74.296 76.287,73.278 C75.414,73.074 74.537,72.889 73.654,72.729 C73.453,73.757 73.256,74.788 73.058,75.818 C72.23,75.667 71.396,75.536 70.56,75.424 C70.953,72.569 71.361,69.713 71.787,66.861 C72.777,66.992 73.762,67.148 74.74,67.329 C74.529,68.356 74.32,69.385 74.113,70.414 C75.037,70.583 75.955,70.775 76.867,70.99 C77.131,69.972 77.394,68.957 77.662,67.941 C78.633,68.169 79.594,68.421 80.547,68.698 C79.41,72.198 78.332,75.71 77.309,79.235 C76.76,78.258 76.166,77.291 75.533,76.334" id="Shape" fill="#FFFFFF" fill-rule="nonzero"></path>
            <path d="M78.779,77.21 C79.017,76.46 79.258,75.71 79.498,74.961 C81.182,75.477 82.836,76.074 84.449,76.752 L84.769,76.031 C83.13,75.342 81.451,74.735 79.742,74.212 C80.312,72.465 80.896,70.722 81.496,68.983 C84.34,69.857 87.105,70.943 89.762,72.226 C89.387,72.922 89.016,73.621 88.647,74.32 C86.952,73.503 85.211,72.77 83.43,72.124 C83.332,72.368 83.237,72.612 83.139,72.857 C84.893,73.493 86.61,74.214 88.282,75.02 C87.43,76.654 86.602,78.295 85.794,79.945 C83.537,78.861 81.189,77.946 78.779,77.21" id="Shape" fill="#FFFFFF" fill-rule="nonzero"></path>
            <path d="M47.667,81.974 L80.67,81.974" id="Shape" stroke="#EE2624" stroke-width="2"></path>
            <path d="M52.135,87 L74.807,87" id="Shape" stroke="#EE2624" stroke-width="2"></path>
        </g>
    </g>
</svg>