<?xml version="1.0" encoding="UTF-8" standalone="no"?>
<svg width="673px" height="504px" viewBox="0 0 673 504" version="1.1" xmlns="http://www.w3.org/2000/svg" xmlns:xlink="http://www.w3.org/1999/xlink">
    <!-- Generator: Sketch 49.1 (51147) - http://www.bohemiancoding.com/sketch -->
    <title>Toerings_Tigers</title>
    <desc>Created with Sketch.</desc>
    <defs>
        <polygon id="path-1" points="0.00015289368 0.86 672.8 0.86 672.8 503.94 0.00015289368 503.94"></polygon>
    </defs>
    <g id="Page-1" stroke="none" stroke-width="1" fill="none" fill-rule="evenodd">
        <g id="Toerings_Tigers">
            <g id="Group-3">
                <mask id="mask-2" fill="white">
                    <use xlink:href="#path-1"></use>
                </mask>
                <g id="Clip-2"></g>
                <path d="M339.562,504 L535.073,317.219 C535.073,317.219 545.642,320.664 563.332,319.057 C581.022,317.447 599.286,307.913 599.286,307.913 L609.165,311.13 C609.165,311.13 605.26,318.941 598.138,326.753 C591.017,334.564 583.665,340.767 583.665,340.767 C583.665,340.767 616.404,340.882 633.174,328.131 C649.945,315.38 657.756,313.428 668.786,291.946 C673.77,282.234 673.71,275.105 670.805,270.277 C666.649,263.373 656.668,261.181 647.303,262.883 C644.777,263.343 646.845,264.148 650.865,257.6 C654.884,251.051 662.582,231.064 653.507,222.104 C644.431,213.144 624.674,217.049 624.674,215.901 C624.674,214.752 630.188,188.217 622.376,181.669 C614.566,175.121 607.444,175.351 607.444,175.351 L588.489,175.351 C588.489,175.351 592.164,152.262 583.894,147.552 C575.624,142.842 567.468,138.937 550.581,143.99 C533.695,149.045 516.004,162.715 512.904,165.356 C509.802,167.999 500.611,176.959 500.611,176.959 L484.53,167.654 L486.942,145.828 L528.181,149.964 L487.172,132.963 L482.693,120.212 L543.804,111.022 L479.935,109.299 L484.07,103.441 C484.07,103.441 470.055,96.548 470.285,95.744 C470.515,94.94 530.019,72.425 530.019,72.425 L462.246,86.439 L486.712,67.371 C486.712,67.371 458.684,53.701 451.216,49.221 C443.751,44.741 428.932,28.314 426.06,26.477 C423.188,24.638 372.07,1.09 370.575,1.09 C369.083,1.09 340.136,12.002 338.068,12.002 C336,12.002 307.283,0.86 306.479,0.86 C305.674,0.86 255.474,24.409 253.406,25.328 C251.339,26.247 227.79,48.072 225.034,49.565 C222.276,51.059 191.032,67.256 191.032,67.256 L214.695,86.21 L147.035,72.54 L205.849,95.285 L192.869,104.015 L197.35,109.874 L132.907,111.137 L193.788,121.016 L189.194,132.619 L148.299,149.39 L189.883,145.599 L191.261,168.114 L175.524,176.73 C175.524,176.73 153.583,153.41 128.656,144.794 C103.728,136.179 93.849,145.024 92.471,146.978 C91.093,148.93 82.362,155.019 87.762,175.696 C83.97,175.696 66.625,174.662 59.387,177.648 C52.151,180.635 48.704,186.839 49.738,199.014 C50.772,211.191 51.347,216.13 51.347,216.13 C51.347,216.13 30.785,211.996 22.054,223.482 C13.325,234.97 21.02,247.146 23.088,250.937 C25.156,254.728 27.683,261.16 27.683,261.16 C27.683,261.16 8.224,258.016 1.743,269.42 C-3.12,277.976 3.06,300.658 9.649,306.305 C10.453,306.994 15.162,313.542 15.162,313.542 C15.162,313.542 24.926,315.266 26.88,315.494 C28.831,315.725 32.967,325.948 54.448,333.645 C75.929,341.341 91.781,339.963 91.781,339.963 C91.781,339.963 79.26,329.279 75.814,324.455 C72.368,319.63 67.773,311.245 67.773,311.245 L77.997,308.488 C77.997,308.488 94.539,317.332 107.29,318.711 C120.04,320.09 142.67,317.678 142.67,317.678 L159.326,333.759 C159.326,333.759 173.686,351.68 175.753,353.747 C177.821,355.814 185.288,357.538 185.288,357.538 L214.235,385.337 L295.45,461.956 L339.562,504" id="Fill-1" fill="#0A0B09" mask="url(#mask-2)"></path>
            </g>
            <path d="M173.505,427.917 C173.505,427.917 170.059,440.094 167.877,447.905 C165.694,455.717 163.512,462.838 163.512,462.838 C163.512,462.838 195.139,456.671 231.768,453.951 C280.357,450.343 339.349,449.578 339.611,449.513 C340.071,449.398 231.458,448.996 231.458,448.996 C231.458,448.996 261.26,444.71 295.753,442.407 C346.622,439.011 410.142,437.222 410.142,437.222 L296.993,436.705 C296.993,436.705 343.988,433.197 391.66,431.322 C448.317,429.093 510.771,427.917 510.771,427.917 L173.505,427.917" id="Fill-4" fill="#0A0B09"></path>
            <path d="M169.341,424.47 C169.341,424.47 165.895,436.647 163.713,444.458 C161.529,452.269 159.347,459.392 159.347,459.392 C159.347,459.392 190.975,453.224 227.603,450.504 C276.193,446.897 335.184,446.132 335.447,446.066 C335.905,445.951 227.294,445.55 227.294,445.55 C227.294,445.55 257.096,441.262 291.589,438.96 C342.458,435.564 405.978,433.775 405.978,433.775 L292.828,433.258 C292.828,433.258 339.824,429.751 387.495,427.874 C444.151,425.646 506.605,424.47 506.605,424.47 L169.341,424.47" id="Fill-5" fill="#EC9542"></path>
            <path d="M593.004,337.052 C593.004,337.052 611.224,336.216 630.218,323.988 C638.671,318.546 649.44,309.144 654.95,298.295 C656.034,287.551 653.228,278.06 644.925,275.258 C635.863,272.198 624.637,277.63 618.046,288.461 C617.772,289.771 616.717,306.748 611.001,317.683 C604.392,330.324 593.004,337.052 593.004,337.052" id="Fill-6" fill="#FFFFFE"></path>
            <path d="M559.462,309.482 C559.462,309.482 580.952,306.962 598.98,296.848 C611.152,290.018 625.821,276.283 630.905,264.807 C632.925,253.963 629.304,240.353 619.131,237.333 C609.977,234.616 597.937,240.844 588.868,251.241 C587.758,256.517 587.591,273.553 580.668,286.529 C573.437,300.084 559.462,309.482 559.462,309.482" id="Fill-7" fill="#FFFFFE"></path>
            <path d="M530.974,269.966 C530.974,269.966 550.886,268.17 569.302,257.773 C582.956,250.065 594.199,237.155 601.548,226.575 C603.57,223.666 603.396,203.503 591.855,198.522 C583.071,194.732 566.053,201.584 559.462,212.415 C558.382,217.545 559.487,230.04 552.853,242.754 C545.779,256.314 530.974,269.966 530.974,269.966" id="Fill-8" fill="#FFFFFE"></path>
            <path d="M498.351,232.289 C498.351,232.289 519.745,229.863 537.741,219.495 C552.918,210.75 564.814,194.499 568.106,188.017 C569.953,169.719 562.796,161.179 553.519,159.93 C544.219,158.677 532.786,164.747 526.149,175.656 C525.145,180.428 524.844,194.776 518.65,206.828 C511.474,220.785 498.351,232.289 498.351,232.289" id="Fill-9" fill="#FFFFFE"></path>
            <path d="M501.361,306.143 C501.361,306.143 490.677,294.554 487.107,278.642 C483.495,262.546 487.449,245.324 486.545,242.095 C479.181,228.101 465.2,220.68 455.742,223.26 C445.379,226.088 442.713,242.481 443.452,250.321 C443.94,255.516 453.432,272.675 466.226,284.397 C481.787,298.653 501.361,306.143 501.361,306.143" id="Fill-10" fill="#FFFFFE"></path>
            <path d="M114.676,309.712 C114.676,309.712 101.925,300.32 95.422,288.146 C87.069,272.51 86.971,258.784 85.066,251.975 C79.675,241.72 64.54,234.157 53.506,238.743 C45.59,242.033 41.844,250.966 43.122,260.89 C44.701,273.153 55.817,285.046 70.933,294.318 C97.283,310.481 114.676,309.712 114.676,309.712" id="Fill-11" fill="#FFFFFE"></path>
            <path d="M81.365,337.511 C81.365,337.511 70.106,329.728 63.602,317.554 C55.249,301.918 58.252,296.463 56.349,289.653 C53.465,279.333 38.764,272.474 29.223,274.723 C21.616,276.517 18.375,285.442 19.114,293.285 C19.671,299.216 19.749,306.925 40.179,322.152 C57.62,335.153 81.365,337.511 81.365,337.511" id="Fill-12" fill="#FFFFFE"></path>
            <path d="M143.165,270.426 C143.165,270.426 128.921,257.818 122.417,245.644 C114.064,230.008 116.721,219.269 114.818,212.458 C106.535,199.152 92.325,195.867 82.868,198.447 C72.503,201.275 71.677,214.91 72.414,222.753 C72.973,228.684 75.693,236.623 96.121,251.851 C117.008,268.758 143.165,270.426 143.165,270.426" id="Fill-13" fill="#FFFFFE"></path>
            <path d="M176.018,232.748 C176.018,232.748 162.923,220.6 156.419,208.424 C148.067,192.789 149.805,182.279 147.902,175.469 C139.619,162.163 125.408,158.878 115.951,161.459 C105.586,164.286 104.76,177.921 105.498,185.764 C106.055,191.695 110.039,198.6 129.204,214.862 C148.597,229.701 176.018,232.748 176.018,232.748" id="Fill-14" fill="#FFFFFE"></path>
            <path d="M173.032,306.726 C173.032,306.726 205.311,292.826 219.211,272.724 C225.254,263.983 231.18,257.577 231.394,241.134 C230.923,239.725 227.692,222.842 214.164,222.856 C205.155,222.867 190.16,230.987 187.735,242.052 C185.897,250.438 192.215,261.811 185.897,279.961 C180.128,296.534 173.032,306.726 173.032,306.726" id="Fill-15" fill="#FFFFFE"></path>
            <path d="M459.152,231.37 C459.152,231.37 451.416,237.572 450.65,239.181 C450.333,239.845 450.114,243.018 450.554,245.296 C451.181,248.531 452.675,250.978 453.101,250.591 C454.142,249.648 454.769,247.157 456.746,245.049 C459.064,242.58 462.06,241.631 462.06,241.631 C462.06,241.631 461.174,239.6 460.286,237.166 C459.503,235.02 459.33,233.021 459.152,231.37" id="Fill-16" fill="#0A0B09"></path>
            <path d="M463.517,245.384 C463.975,246.226 466.61,257.18 472.285,268.952 C478.921,282.707 487.179,295.085 487.179,295.085 C487.179,295.085 469.489,283.291 464.204,272.494 C458.921,261.696 456.546,258.709 456.087,253.808 C455.62,248.805 463.057,244.542 463.517,245.384" id="Fill-17" fill="#0A0B09"></path>
            <path d="M561.081,167.653 C561.081,167.653 563.921,172.28 564.021,177.459 C564.099,181.665 561.231,186.725 560.008,187.641 C560.143,187.541 559.75,184.601 558.339,182.751 C556.784,180.714 554.572,179.523 554.572,179.523 C554.572,179.523 557.007,178.533 558.617,175.596 C560.261,172.598 561.081,167.653 561.081,167.653" id="Fill-18" fill="#0A0B09"></path>
            <path d="M553.728,182.434 C554.654,182.543 559.472,186.799 557.252,191.624 C555.032,196.448 552.043,200.277 547.527,204.413 C543.007,208.548 530.296,217.125 526.848,217.585 C529.759,214.216 534.736,209.621 542.394,199.895 C550.052,190.168 552.427,182.281 553.728,182.434" id="Fill-19" fill="#0A0B09"></path>
            <path d="M551.814,261.39 C551.814,261.39 568.74,256.794 578.847,246.149 C588.956,235.505 592.019,231.14 591.79,229.072 C591.561,227.004 588.803,220.113 587.425,219.653 C586.047,219.193 585.663,219.96 583.98,222.869 C582.293,225.779 577.929,233.438 571.189,241.019 C564.451,248.6 551.432,260.47 551.814,261.39" id="Fill-20" fill="#0A0B09"></path>
            <path d="M588.65,217.738 C588.65,217.738 590.665,219.224 591.902,221.083 C593.115,222.908 592.836,225.445 593.552,226.009 C594.24,226.553 596.541,224.218 597.749,218.028 C598.802,212.631 595.848,205.332 595.848,205.332 C595.848,205.332 594.865,210.295 593.015,213.482 C591.269,216.494 588.65,217.738 588.65,217.738" id="Fill-21" fill="#0A0B09"></path>
            <path d="M616.68,259.016 C616.68,259.016 620.583,256.642 622.117,253.425 C623.648,250.208 625.563,245.766 625.563,245.766 C625.563,245.766 629.315,253.502 627.247,259.093 C625.179,264.683 621.963,267.593 621.963,267.593 C621.963,267.593 622.04,263.917 620.203,262.003 C618.365,260.088 616.68,259.016 616.68,259.016" id="Fill-22" fill="#0A0B09"></path>
            <path d="M583.443,299.145 C583.443,299.145 598.376,293.859 607.718,285.206 C614.464,278.958 617.619,275.31 619.005,272.859 C620.597,270.052 619.867,268.818 619.573,267.047 C618.996,263.592 616.909,259.46 614.154,262.383 C610.663,266.085 606.724,273.812 601.439,279.922 C594.087,288.423 583.443,299.145 583.443,299.145" id="Fill-23" fill="#0A0B09"></path>
            <path d="M648.307,284.287 C648.307,284.287 648.92,299.833 648.384,300.599 C647.847,301.364 647.082,297.766 645.473,296.388 C643.865,295.009 642.257,294.243 642.257,294.243 C642.257,294.243 645.626,291.64 646.469,289.725 C647.313,287.811 648.307,284.287 648.307,284.287" id="Fill-24" fill="#0A0B09"></path>
            <path d="M612.391,327.249 C612.391,327.249 625.946,323.573 633.451,316.834 C640.955,310.095 643.711,307.108 644.018,304.581 C644.325,302.055 643.865,297.23 642.104,296.311 C640.342,295.392 640.036,296.234 638.658,298.531 C637.28,300.829 633.221,306.266 627.094,312.47 C620.967,318.672 612.391,327.249 612.391,327.249" id="Fill-25" fill="#0A0B09"></path>
            <path d="M25.853,282.296 C25.853,282.296 26.633,286.362 28.151,289.38 C29.618,292.296 31.826,294.166 31.826,294.166 C31.826,294.166 29.959,295.307 28.664,297.341 C27.562,299.072 27.001,301.748 27.001,301.748 C27.001,301.748 23.366,297.698 23.09,293.022 C22.792,287.986 25.853,282.296 25.853,282.296" id="Fill-26" fill="#0A0B09"></path>
            <path d="M29.759,304.274 C29.759,304.274 29.452,300.829 30.83,298.685 C32.209,296.54 33.894,295.621 33.894,295.621 C33.894,295.621 39.073,303.691 45.6,310.863 C53.33,319.356 62.613,327.173 62.613,327.173 C62.613,327.173 52.539,325.014 42.918,318.153 C35.525,312.881 29.759,304.274 29.759,304.274" id="Fill-27" fill="#0A0B09"></path>
            <path d="M48.981,245.843 C48.981,245.843 50.37,250.043 52.454,253.255 C54.544,256.477 57.71,258.402 57.71,258.402 C57.71,258.402 55.738,259.968 54.341,262.31 C53.021,264.521 51.89,267.821 51.89,267.821 C51.89,267.821 47.949,262.165 47.672,257.488 C47.375,252.452 48.981,245.843 48.981,245.843" id="Fill-28" fill="#0A0B09"></path>
            <path d="M54.954,270.962 C54.954,270.962 54.725,266.597 56.102,264.452 C57.48,262.308 59.855,260.7 59.855,260.7 C59.855,260.7 66.489,273.136 73.017,280.308 C80.745,288.8 91.101,298.914 91.101,298.914 C91.101,298.914 80.339,296.525 69.186,287.291 C62.192,281.499 54.954,270.962 54.954,270.962" id="Fill-29" fill="#0A0B09"></path>
            <path d="M78.847,206.251 C78.847,206.251 79.967,210.476 81.908,213.477 C83.673,216.206 86.275,217.738 86.275,217.738 C86.275,217.738 84.407,218.856 83.015,221.024 C81.651,223.145 80.762,226.315 80.762,226.315 C80.762,226.315 76.574,222.512 76.117,217.735 C75.618,212.501 78.847,206.251 78.847,206.251" id="Fill-30" fill="#0A0B09"></path>
            <path d="M83.902,231.446 C83.902,231.446 81.682,226.239 84.514,222.869 C86.857,220.085 88.573,219.423 88.573,219.423 C88.573,219.423 92.172,227.081 102.741,239.258 C113.308,251.435 123.418,261.466 123.418,261.466 C123.418,261.466 106.493,255.876 97.303,246.839 C88.113,237.802 83.902,231.446 83.902,231.446" id="Fill-31" fill="#0A0B09"></path>
            <path d="M113.615,167.731 C113.615,167.731 114.237,172.36 115.909,175.503 C117.405,178.315 119.895,180.366 119.895,180.366 C119.895,180.366 118.007,180.67 116.584,182.728 C115.173,184.768 114.305,187.871 114.305,187.871 C114.305,187.871 110.173,182.737 110.012,178.069 C109.829,172.714 113.615,167.731 113.615,167.731" id="Fill-32" fill="#0A0B09"></path>
            <path d="M121.35,182.127 C121.35,182.127 123.341,188.867 131.459,198.822 C139.576,208.778 147.54,217.202 147.54,217.202 C147.54,217.202 137.203,214.828 126.94,204.413 C118.44,195.07 117.597,192.466 116.602,190.475 C116.602,189.463 116.721,186.238 117.726,184.64 C119.05,182.535 121.35,182.127 121.35,182.127" id="Fill-33" fill="#0A0B09"></path>
            <path d="M212.406,241.784 C212.406,241.784 216.002,242.602 217.974,244.715 C220.266,247.17 220.983,250.974 220.983,250.974 C220.983,250.974 224.529,247.221 224.104,242.412 C223.723,238.112 219.613,232.797 215.852,231.293 C215.392,236.577 212.406,241.784 212.406,241.784" id="Fill-34" fill="#0A0B09"></path>
            <path d="M210.873,245.843 C210.873,245.843 216.694,246.149 217.537,250.132 C218.378,254.114 219.221,257.943 214.779,265.524 C210.338,273.106 205.666,282.219 188.359,294.702 C192.134,287.908 197.937,277.573 202.71,267.991 C207.462,258.449 210.196,249.959 210.873,245.843" id="Fill-35" fill="#0A0B09"></path>
            <path d="M246.772,118.527 C246.772,118.527 261.86,106.66 273.001,99.752 C279.295,95.85 284.564,95.093 284.564,95.093 L314.086,108.074 L293.984,82.343 L320.519,100.148 L350.845,100.837 L379.103,82.572 L358.427,108.304 C358.427,108.304 385.881,95.093 387.719,95.323 C388.306,95.397 394.012,96.271 399.32,99.46 C410.641,106.263 425.857,118.298 425.857,118.298 C425.857,118.298 423.905,96.702 421.263,88.661 C418.621,80.62 410.005,55.807 410.005,55.807 L392.888,76.254 L379.564,79.93 L359.46,67.294 L365.779,42.712 L345.791,29.961 L385.881,32.718 L401.504,43.171 C401.504,43.171 421.607,49.949 424.594,52.131 C427.58,54.314 436.425,58.449 439.411,64.422 C442.399,70.396 450.67,86.938 450.67,86.938 L470.198,67.639 C470.198,67.639 455.943,59.962 441.83,49.94 C428.21,40.268 414.715,28.238 414.715,28.238 L364.516,8.365 C364.516,8.365 339.932,15.372 336.142,15.257 C332.351,15.142 308.688,8.365 308.688,8.365 L258.029,28.353 C258.029,28.353 243.164,41.265 229.285,50.995 C215.308,60.793 202.316,67.409 202.316,67.409 L221.615,86.593 C221.615,86.593 234.481,61.436 236.089,60.172 C237.697,58.909 249.988,49.489 255.387,47.996 C260.786,46.502 270.435,43.516 270.435,43.516 L286.173,32.373 L327.066,30.306 L306.39,43.056 L313.512,66.95 L293.525,80.16 L280.429,76.024 L262.624,56.037 L249.873,93.6 L246.772,118.527" id="Fill-36" fill="#ED9F42"></path>
            <path d="M58.267,290.376 C58.267,290.376 64.469,297.613 82.045,304.62 C89.363,307.537 97.021,309.974 103.466,311.153 C112.498,312.808 119.148,312.546 119.148,312.546 L113.635,305.883 C113.635,305.883 126.73,309.674 139.365,306.572 C152.002,303.471 159.814,296.579 159.814,296.579 C159.814,296.579 145.355,292.689 132.662,286.901 C118.335,280.369 113.06,272.455 113.06,272.455 C113.06,272.455 126.615,280.803 142.467,285.78 C150.066,288.167 159.581,291.86 167.522,291.217 C168.151,291.166 181.799,284.252 181.601,268.856 C181.448,256.987 182.213,251.855 179.916,241.671 C178.577,235.736 174.438,226.607 175.184,218.461 C176.289,206.392 182.367,200.957 182.902,199.551 C182.794,199.837 179.533,198.401 176.929,200.545 C174.325,202.69 169.807,209.506 169.807,209.506 C169.807,209.506 166.667,203.916 163.603,201.619 C160.541,199.321 154.184,195.952 154.184,195.952 C154.184,195.952 151.963,185.766 151.81,184.465 C151.657,183.162 150.355,172.824 150.355,172.824 C150.355,172.824 142.774,163.252 136.647,160.035 C130.521,156.818 120.029,154.214 112.218,157.277 C104.406,160.341 98.127,168.765 99.276,179.409 C100.424,190.055 104.559,198.172 104.559,198.172 C104.559,198.172 86.486,188.064 74.999,198.401 C63.512,208.74 67.877,222.065 68.49,226.125 C69.102,230.184 71.706,235.237 71.706,235.237 C71.706,235.237 55.165,227.426 43.448,237.612 C31.73,247.796 40.078,270.617 40.078,270.617 C40.078,270.617 20.55,265.257 15.113,279.042 C9.675,292.827 19.86,308.526 20.78,309.827 C21.698,311.129 14.653,309.751 11.36,300.944 C8.067,292.137 4.39,284.785 4.62,284.325 C4.85,283.865 2.629,272.685 9.446,269.546 C16.261,266.406 36.019,266.56 36.019,266.56 C36.019,266.56 25.91,254.843 24.379,247.185 C22.848,239.526 23.077,234.624 26.6,229.417 C30.122,224.21 40.92,222.065 49.268,223.903 C57.615,225.741 61.521,227.502 61.521,227.502 C61.521,227.502 53.097,211.574 54.016,200.929 C54.935,190.284 58.611,181.17 73.238,182.933 C87.865,184.694 96.518,189.365 96.518,189.365 C96.518,189.365 91.771,166.467 96.748,157.354 C102.035,147.675 113.672,148.241 126.309,152.606 C131.835,154.516 140.777,159.386 148.659,164.953 C158.798,172.113 167.432,180.022 167.432,180.022 L159.468,185.23 L171.032,183.622 L177.465,191.203 C177.465,191.203 189.003,191.315 197.283,192.538 C203.052,193.391 206.49,195.492 206.49,195.492 L200.746,204.758 L235.438,224.67 C235.438,224.67 236.98,231.167 236.48,237.066 C236.025,242.438 233.523,247.261 233.523,247.261 C233.523,247.261 234.365,237.459 232.45,232.252 C230.535,227.043 224.715,220.688 217.824,218.85 C210.931,217.012 199.367,219.154 191.48,227.656 C183.592,236.157 181.831,239.91 181.831,239.91 C181.831,239.91 186.425,261.657 183.362,273.835 C180.299,286.01 177.082,293.592 173.406,297.497 C169.73,301.403 151.81,311.742 129.602,315.571 C93.67,316.254 84.152,308.68 75.228,304.391 C75.919,304.722 62.363,307.836 62.363,307.836 C62.363,307.836 60.774,304.65 59.917,301.001 C58.767,296.106 58.267,290.376 58.267,290.376" id="Fill-37" fill="#ED9F42"></path>
            <path d="M646.071,315.188 C646.071,315.188 657.631,309.827 663.374,294.281 C669.118,278.735 666.876,274.649 664.676,271.844 C662.454,269.009 654.873,266.635 646.681,266.711 C638.486,266.788 634.963,266.864 634.963,266.864 C634.963,266.864 644.689,257.062 646.604,250.094 C648.519,243.126 650.814,237.229 646.604,230.795 C644.549,227.658 639.095,223.604 630.829,223.488 C622.147,223.369 610.686,227.272 610.686,227.272 C610.686,227.272 619.111,211.65 617.962,200.315 C616.813,188.982 614.21,181.477 597.283,182.933 C580.36,184.388 575.919,189.365 575.919,189.365 C575.919,189.365 580.743,160.877 573.008,154.444 C565.274,148.011 552.868,149.083 538.7,156.129 C524.532,163.175 505.005,179.793 505.005,179.793 L513.658,185.23 L501.252,182.933 L494.129,191.51 C494.129,191.51 485.465,191.264 477.913,192.336 C471.893,193.192 466.637,195.415 466.637,195.415 L471.768,205.141 C471.768,205.141 462.601,209.897 453.529,214.906 C444.645,219.813 435.851,224.975 435.851,224.975 C435.851,224.975 435.176,231.528 435.788,237.373 C436.364,242.892 438.226,247.719 438.226,247.719 C438.226,247.719 436.402,228.185 448.027,221.529 C458.059,215.785 467.555,217.24 476.668,224.21 C485.783,231.178 490.147,239.22 490.147,239.22 C490.147,239.22 485.169,258.519 489.229,276.133 C493.287,293.745 497.347,296.962 497.347,296.962 C497.347,296.962 513.658,309.751 532.343,313.35 C540.646,314.95 553.399,316.941 566.029,314.747 C581.822,312.002 596.903,304.697 596.903,304.697 C596.903,304.697 608.159,308.526 609.001,307.989 C609.844,307.453 610.549,304.903 611.589,301.212 C612.894,296.585 613.75,291.142 613.75,291.142 C613.75,291.142 597.663,302.343 581.568,308.014 C567.468,312.98 553.098,312.509 553.098,312.509 L558.229,306.075 C558.229,306.075 543.694,308.993 531.227,306.451 C521.022,304.368 512.433,296.732 512.433,296.732 C512.433,296.732 528.982,292.791 540.433,286.724 C552.107,280.539 558.689,272.227 558.689,272.227 C558.689,272.227 542.285,281.044 527.408,286.308 C519.083,289.254 510.828,292.402 504.19,291.411 C497.378,290.397 492.572,278.808 490.519,269.614 C489.752,262.86 490.331,252.097 491.848,243.574 C493.643,233.493 496.503,226.125 496.503,226.125 C496.503,226.125 497.378,218.922 495.471,212.064 C493.667,205.568 489.076,199.397 489.076,199.397 C489.076,199.397 492.824,198.846 496.204,201.331 C499.323,203.624 502.094,208.97 502.094,208.97 C502.094,208.97 505.515,203.713 509.751,200.211 C513.658,196.984 518.407,195.492 518.407,195.492 C518.407,195.492 518.55,189.494 519.347,184.314 C520.232,178.571 521.776,173.589 521.776,173.589 C521.776,173.589 528.974,163.581 538.156,158.794 C546.124,154.64 555.776,155.384 561.167,158.064 C583.195,169.015 567.801,198.478 567.801,198.478 C567.801,198.478 586.027,186.914 598.663,199.704 C611.299,212.493 600.732,234.931 600.732,234.931 C600.732,234.931 614.825,230.188 624.132,233.831 C631.318,236.645 634.227,246.84 634.462,253.24 C634.777,261.786 631.823,270.082 631.823,270.082 C631.823,270.082 645.837,267.784 644.995,270.389 C644.153,272.991 638.332,273.758 638.332,273.758 C638.332,273.758 652.347,273.682 653.802,287.543 C654.644,296.426 654.415,296.579 654.415,296.579 C654.415,296.579 658.244,296.426 657.171,298.493 C656.1,300.562 646.071,315.188 646.071,315.188" id="Fill-38" fill="#ED9F42"></path>
            <polyline id="Fill-39" fill="#FFFFFE" points="241.767 232.633 251.799 232.48 241.996 226.354 241.767 232.633"></polyline>
            <polyline id="Fill-40" fill="#FFFFFE" points="430.081 227.043 430.618 232.25 422.194 232.097 430.081 227.043"></polyline>
            <path d="M341.246,134.762 L392.785,150.843 L406.954,144.717 L394.089,161.718 L384.286,212.951 L377.546,246.725 L370.348,283.713 L336.806,270.693 L302.267,283.483 L290.933,226.429 L279.063,160.493 L266.886,144.411 L281.591,150.92 L331.292,135.145 L331.445,126.721 L314.137,107.192 L285.036,94.403 C285.036,94.403 279.752,95.35 273.36,99.22 C261.903,106.157 246.899,117.99 246.899,117.99 C246.899,117.99 248.507,103.21 249.885,94.556 C251.263,85.902 262.904,55.347 262.904,55.347 L280.058,75.334 L293.384,79.546 L313.678,66.604 L306.938,41.868 L326.619,29.615 L287.258,32.295 C287.258,32.295 272.4,42.864 270.868,43.4 C269.337,43.936 252.566,46.693 246.439,52.819 C244.171,55.087 240.381,58.733 236.217,65.224 C229.131,76.268 221.397,91.34 221.397,91.34 L169.244,79.086 L214.199,94.326 L200.567,104.971 L204.089,112.783 L157.987,112.859 L202.021,117.684 L191.76,134.379 L161.204,145.253 L192.908,140.734 L197.044,167.385 L171.465,178.872 L197.428,173.358 L199.342,181.86 L217.874,187.679 L212.896,200.852 L268.983,236.615 L304.473,294.856 L369.594,294.856 L405.084,235.237 L460.213,201.119 L455.045,188.024 L473.306,182.166 L474.88,172.593 L501.991,179.792 L476.413,167.078 L480.013,140.811 L509.268,144.793 L480.855,133.766 L471.511,117.914 L512.1,113.396 L469.137,113.012 L472.355,105.201 L458.493,94.403 L505.973,78.627 L451.142,91.34 C451.142,91.34 443.572,75.257 436.794,64.806 C431.195,56.169 423.287,50.709 421.199,49.22 C419.135,47.75 412.352,47.118 403.788,42.837 C394.717,38.302 387.042,32.449 387.042,32.449 L346.072,29.462 L366.135,41.945 L359.397,66.451 L379.92,79.393 C379.92,79.393 391.408,76.483 392.632,75.793 C393.859,75.105 410.783,55.347 410.783,55.347 C410.783,55.347 417.74,73.815 422.079,91.542 C425.191,104.249 426.099,117.914 426.099,117.914 C426.099,117.914 410.394,105.476 399.055,98.558 C393.182,94.977 387.809,94.556 387.809,94.556 L358.324,107.269 L341.246,127.869" id="Fill-41" fill="#FFFFFE"></path>
            <polyline id="Fill-42" fill="#FFFFFE" points="452.735 81.583 465.691 67.477 437.938 50.338 452.091 65.042 441.064 61.044 452.735 81.583"></polyline>
            <polyline id="Fill-43" fill="#FFFFFE" points="208.102 66.788 221.29 81.308 232.731 60.539 222.025 64.398 235.81 50.063 208.102 66.788"></polyline>
            <polyline id="Fill-44" fill="#FFFFFE" points="481.787 184.849 491.263 186.844 494.256 181.355 482.286 177.363 481.787 184.849"></polyline>
            <polyline id="Fill-45" fill="#FFFFFE" points="191.033 186.346 180.559 186.346 178.565 181.355 190.035 178.361 191.033 186.346"></polyline>
            <polyline id="Fill-46" fill="#0A0B09" points="337.781 271.25 371.322 284.345 395.216 161.662 407.393 145.58 393.609 151.323 342.146 134.782 342.146 128.349 380.053 82.859 352.253 101.009 321.698 101.009 295.047 82.4 332.037 127.89 331.577 135.471 282.182 151.323 267.937 145.12 279.885 162.121 303.548 284.115 337.781 271.25"></polyline>
            <path d="M292.52,247.127 L271.384,189.461 L239.449,171.311 L220.381,140.296 L231.638,130.417 C231.638,130.417 227.732,119.619 227.962,115.943 C228.192,112.267 234.854,82.859 234.854,82.859 L257.37,53.912 L232.098,80.562 L210.271,134.322 L213.029,163.73 C213.029,163.73 230.838,189.165 245.122,207.338 C253.928,218.542 261.964,225.991 261.964,225.991 L272.533,220.477 L292.52,247.127" id="Fill-47" fill="#0A0B09"></path>
            <path d="M382.581,246.897 L402.797,220.477 L412.907,225.071 C412.907,225.071 424.647,213.829 436.159,199.425 C449.243,183.055 462.302,163.271 462.302,163.271 L465.058,132.714 L443.003,79.643 L418.88,53.223 L440.246,82.4 L447.827,115.253 L443.463,129.268 L454.491,140.525 L435.652,170.852 L403.946,188.542 L382.581,246.897" id="Fill-48" fill="#0A0B09"></path>
            <polyline id="Fill-49" fill="#0A0B09" points="431.976 90.67 441.855 124.213 428.53 141.903 439.557 151.783 400.04 184.407 423.245 152.702 412.677 147.188 435.881 123.524 431.976 90.67"></polyline>
            <path d="M412.217,68.386 L420.489,91.589 L422.786,110.199 C422.786,110.199 405.326,97.104 400.73,94.347 C396.134,91.589 385.107,85.846 385.107,84.467 C385.107,83.089 407.163,86.306 407.163,86.306 L412.217,68.386" id="Fill-50" fill="#0A0B09"></path>
            <path d="M355.929,73.44 C355.929,73.44 346.048,77.074 335.936,77.253 C326.671,77.418 317.103,74.129 317.103,74.129 L337.09,84.467 L355.929,73.44" id="Fill-51" fill="#0A0B09"></path>
            <path d="M357.309,71.143 L337.55,61.034 L316.184,71.373 C316.184,71.373 326.695,69.016 337.088,68.958 C347.253,68.901 357.309,71.143 357.309,71.143" id="Fill-52" fill="#0A0B09"></path>
            <path d="M310.44,82.629 C310.44,82.629 323.617,86.652 336.867,86.537 C350.265,86.422 363.741,82.17 363.741,82.17 L338.01,96.185 L310.44,82.629" id="Fill-53" fill="#0A0B09"></path>
            <path d="M359.147,123.524 C359.147,123.524 373.39,115.024 379.593,112.267 C385.797,109.51 397.284,104.456 397.284,104.456 L386.945,100.32 L359.147,123.524" id="Fill-54" fill="#0A0B09"></path>
            <polyline id="Fill-55" fill="#0A0B09" points="356.849 127.66 400.73 107.672 406.703 112.267 356.849 127.66"></polyline>
            <path d="M358.687,132.255 C358.687,132.255 371.368,129.213 384.142,124.994 C397.099,120.713 410.149,115.253 410.149,115.253 L417.5,119.848 L386.945,128.349 L358.687,132.255" id="Fill-56" fill="#0A0B09"></path>
            <polyline id="Fill-57" fill="#0A0B09" points="362.363 134.322 387.635 133.403 420.258 121.227 424.394 124.443 411.757 137.999 386.715 139.147 362.363 134.322"></polyline>
            <polyline id="Fill-58" fill="#0A0B09" points="312.738 134.782 287.696 139.147 260.816 137.999 248.868 125.132 253.234 120.997 284.709 133.863 312.738 134.782"></polyline>
            <polyline id="Fill-59" fill="#0A0B09" points="313.886 132.025 285.858 129.268 256.45 119.389 262.654 114.794 289.304 125.592 313.886 132.025"></polyline>
            <polyline id="Fill-60" fill="#0A0B09" points="317.103 129.268 265.64 112.726 272.303 107.212 317.103 129.268"></polyline>
            <path d="M313.427,123.524 L296.425,113.186 L275.519,105.145 C275.519,105.145 284.25,100.55 286.088,100.55 C287.926,100.55 313.427,123.524 313.427,123.524" id="Fill-61" fill="#0A0B09"></path>
            <polyline id="Fill-62" fill="#0A0B09" points="433.123 52.304 405.555 41.505 397.743 30.708 364.89 14.855 337.09 31.627 308.602 15.544 274.601 30.708 267.019 41.276 239.679 51.155 259.897 38.289 260.816 31.856 307.912 11.868 336.86 21.518 364.66 12.099 411.757 32.315 412.447 39.668 433.123 52.304"></polyline>
            <polyline id="Fill-63" fill="#0A0B09" points="376.608 50.925 395.676 43.114 383.499 34.153 376.608 50.925"></polyline>
            <polyline id="Fill-64" fill="#0A0B09" points="373.159 35.302 374.77 52.533 409.689 48.627 365.12 64.48 373.159 35.302"></polyline>
            <polyline id="Fill-65" fill="#0A0B09" points="365.35 67.237 412.677 50.006 393.378 72.291 379.133 75.967 365.35 67.237"></polyline>
            <polyline id="Fill-66" fill="#0A0B09" points="357.309 65.858 346.74 61.723 354.551 47.709 344.671 31.167 360.065 44.952 357.309 65.858"></polyline>
            <polyline id="Fill-67" fill="#0A0B09" points="328.131 62.412 317.562 64.71 313.886 45.871 329.279 31.397 320.32 46.79 328.131 62.412"></polyline>
            <polyline id="Fill-68" fill="#0A0B09" points="309.98 64.939 302.859 33.694 299.643 52.533 265.181 48.627 309.98 64.939"></polyline>
            <polyline id="Fill-69" fill="#0A0B09" points="308.142 67.237 260.816 50.465 281.492 72.062 294.359 76.427 308.142 67.237"></polyline>
            <polyline id="Fill-70" fill="#0A0B09" points="297.804 52.074 290.682 34.153 278.277 42.884 297.804 52.074"></polyline>
            <polyline id="Fill-71" fill="#0A0B09" points="273.681 183.947 234.165 151.093 246.342 141.674 232.786 124.443 242.895 89.292 239.449 123.065 261.735 146.729 250.936 152.472 273.681 183.947"></polyline>
            <path d="M251.971,111.692 C251.971,111.692 269.201,96.874 273.567,94.691 C275.494,93.728 279.387,92.196 282.366,90.144 C286.131,87.55 288.844,84.467 288.844,84.467 L266.789,87.225 L262.884,68.501 C262.884,68.501 258.169,81.132 255.227,92.776 C252.754,102.567 251.971,111.692 251.971,111.692" id="Fill-72" fill="#0A0B09"></path>
            <path d="M284.71,60.27 C285.744,60.5 298.839,64.521 298.724,65.555 C298.61,66.588 295.965,75.556 288.041,72.332 C278.255,68.349 283.676,60.041 284.71,60.27" id="Fill-73" fill="#FCE623"></path>
            <path d="M376.377,65.095 C376.207,64.379 387.75,60.27 389.245,60.27 C390.737,60.27 394.758,69.804 387.635,71.872 C380.513,73.94 377.641,70.378 376.377,65.095" id="Fill-74" fill="#FCE623"></path>
            <path d="M383.825,63.198 C386.352,63.198 387.5,67.333 383.825,67.333 C381.069,67.333 380.838,63.198 383.825,63.198" id="Fill-75" fill="#0A0B09"></path>
            <path d="M290.089,64.117 C292.617,64.117 293.765,68.252 290.089,68.252 C287.332,68.252 287.102,64.117 290.089,64.117" id="Fill-76" fill="#0A0B09"></path>
            <path d="M298.768,251.798 C298.768,251.798 300.724,231.895 303.212,220.589 C305.424,210.546 309.043,208.568 309.043,208.568 C309.043,208.568 310.261,223.745 312.837,236.527 C315.232,248.411 318.157,258.345 318.157,258.345 L322.139,252.908 L327.653,258.652 L332.553,252.524 L337.148,257.579 L342.279,251.913 L346.95,258.652 L351.851,252.831 L356.064,259.801 C356.064,259.801 358.141,247.389 360.306,234.01 C362.222,222.173 363.722,208.951 363.722,208.951 C363.722,208.951 368.607,211.647 371.243,223.634 C373.564,234.184 373.678,254.21 373.678,254.21 C373.678,254.21 375.521,242.53 375.073,231.315 C374.707,222.199 371.665,213.496 371.004,210.787 C368.108,198.953 369.026,196.267 366.227,194.246 C364.139,192.738 361.41,191.272 353.842,191.447 C347.775,191.589 340.365,193.481 340.365,193.481 L337.072,233.227 C337.072,233.227 331.865,195.779 331.175,194.171 C330.486,192.562 326.546,191.664 320.533,191.347 C315.745,191.094 311.856,190.803 308.744,193.572 C306.079,195.942 303.986,200.558 302.389,209.363 C301.134,216.287 299.538,224.186 298.994,231.464 C298.17,242.491 298.768,251.798 298.768,251.798" id="Fill-77" fill="#E05533"></path>
            <path d="M354.781,270.369 L370.174,276.571 C370.174,276.571 372.167,257.093 371.283,242.227 C370.387,227.17 366.614,216.724 366.614,216.724 C366.614,216.724 364.866,234.702 361.643,249.315 C359.01,261.251 354.781,270.369 354.781,270.369" id="Fill-78" fill="#FFFFFE"></path>
            <path d="M352.025,269.45 C352.025,269.45 340.736,267.142 338.24,266.808 C336.516,266.578 323.306,270.254 323.306,270.254 L319.401,261.294 L322.502,256.24 L327.671,262.213 L332.611,256.47 L337.55,262.213 L342.49,255.896 L347.429,262.558 L352.025,257.272 L354.781,262.098 L352.025,269.45" id="Fill-79" fill="#FFFFFE"></path>
            <path d="M320.09,271.403 C320.09,271.403 315.093,259.292 311.917,244.567 C309.286,232.363 308.372,217.069 308.372,217.069 C308.372,217.069 304.605,223.691 303.545,239.23 C302.601,253.056 304.353,275.998 304.353,275.998 L320.09,271.403" id="Fill-80" fill="#FFFFFE"></path>
            <polyline id="Fill-81" fill="#FFFFFE" points="309.407 155.612 311.014 172.958 320.55 157.336 324.225 166.181 328.591 157.565 332.726 165.836 336.746 157.68 338.24 157.565 341.226 165.721 344.902 158.484 346.855 158.484 350.532 165.492 352.829 157.565 354.667 157.45 363.512 172.614 365.35 156.072 358.802 152.166 353.403 155.153 349.611 152.741 345.132 155.153 341.8 152.856 337.32 154.923 332.726 152.166 328.016 155.038 324.111 152.281 320.205 154.923 316.07 151.362 309.407 155.612"></polyline>
            <polyline id="Fill-82" fill="#FFFFFE" points="309.062 147.916 309.521 152.052 316.184 148.146 320.55 152.052 324.111 149.524 328.361 151.707 332.841 149.869 337.665 152.396 341.8 149.639 345.705 151.937 349.841 148.95 353.863 152.396 357.998 148.835 365.234 153.085 366.038 147.571 351.795 142.402 337.32 147.227 323.076 143.091 309.062 147.916"></polyline>
            <path d="M369.256,148.95 L387.979,154.809 C387.979,154.809 385.873,178.596 382.334,195.513 C379.452,209.285 374.999,216.839 374.999,216.839 C374.999,216.839 375.467,194.915 373.814,175.383 C372.707,162.294 369.256,148.95 369.256,148.95" id="Fill-83" fill="#FFFFFE"></path>
            <path d="M306.65,148.031 L286.662,155.268 C286.662,155.268 287.842,173.736 291.158,189.012 C294.387,203.885 299.757,215.575 299.757,215.575 C299.757,215.575 299.729,191.41 301.692,172.164 C303.068,158.686 306.65,148.031 306.65,148.031" id="Fill-84" fill="#FFFFFE"></path>
            <path d="M316.758,104.839 C316.758,104.839 321.95,111.515 322.64,112.066 C323.328,112.617 328.705,113.34 328.705,113.34 L337.781,128.618 L346.165,113.363 C346.165,113.363 351.818,112.053 352.621,111.709 C353.425,111.364 357.883,104.839 357.883,104.839 L316.758,104.839" id="Fill-85" fill="#FFFFFE"></path>
            <polyline id="Fill-86" fill="#0A0B09" points="158.543 371.459 221.839 371.459 218.851 379.501 195.877 379.501 183.299 414.249 165.839 414.249 178.302 379.558 156.131 379.558 158.543 371.459"></polyline>
            <polyline id="Fill-87" fill="#0A0B09" points="230.338 372.665 246.938 372.665 232.636 414.307 215.979 414.307 230.338 372.665"></polyline>
            <path d="M314.597,372.896 L277.494,372.896 C277.494,372.896 255.324,376.686 249.178,388.633 C243.033,400.579 248.374,413.962 261.469,413.962 C274.565,413.962 300.296,414.364 300.296,414.364 L308.739,389.552 L291.738,389.552 L285.651,406.266 L270.258,406.783 C270.258,406.783 259.976,403.049 265.548,391.505 C271.118,379.96 280.883,380.821 280.883,380.821 L311.956,380.937 L314.597,372.896" id="Fill-88" fill="#0A0B09"></path>
            <path d="M376.628,380.764 L379.386,372.896 C379.386,372.896 350.916,372.766 345.863,373.376 C335.428,374.901 326.415,379.995 323.315,382.204 C317.084,386.642 314.148,394.977 314.028,399.493 C313.814,407.531 319.329,414.53 332.46,414.421 C356.181,414.224 365.141,414.364 365.141,414.364 L367.554,406.725 L337.628,406.553 C337.628,406.553 334.938,406.466 333.191,403.231 C332.476,401.907 331.921,400.061 331.771,397.478 L371.058,397.478 L373.872,389.609 L334.47,389.839 C334.47,389.839 339.294,380.993 346.36,380.879 C353.423,380.764 376.628,380.764 376.628,380.764" id="Fill-89" fill="#0A0B09"></path>
            <path d="M374.332,414.421 L389.093,373.01 L429.93,373.01 C429.93,373.01 445.379,374.848 444.461,385.358 C443.541,395.869 426.138,400.35 426.138,400.35 L433.432,414.767 L416.259,414.767 L410.688,402.417 L395.468,402.475 L390.873,414.767 L374.332,414.421" id="Fill-90" fill="#0A0B09"></path>
            <path d="M441.301,414.076 L443.484,406.553 L477.315,407.012 C477.315,407.012 485.298,405.002 485.527,402.073 C485.756,399.144 481.737,397.766 479.611,397.65 C477.487,397.535 459.164,396.903 459.164,396.903 C459.164,396.903 445.093,394.318 450.721,383.693 C456.351,373.067 473.811,373.297 473.811,373.297 L511.201,373.469 L509.421,380.592 L473.351,380.937 C473.351,380.937 467.952,382.717 468.068,386.106 C468.182,389.494 472.95,390.528 483.231,390.643 C493.512,390.758 504.137,392.998 504.137,398.339 C504.137,403.681 498.106,414.134 479.669,414.364 C461.232,414.593 441.301,414.076 441.301,414.076" id="Fill-91" fill="#0A0B09"></path>
            <polyline id="Fill-92" fill="#0A0B09" points="170.988 317.775 189.827 317.775 189.827 310.807 142.883 310.807 142.883 317.699 162.028 317.699 162.028 351.701 170.605 351.701 170.988 317.775"></polyline>
            <path d="M205.296,311.189 L233.632,311.42 C233.632,311.42 244.123,313.027 244.123,319.078 C244.123,325.127 243.97,344.272 243.97,344.272 C243.97,344.272 242.975,351.854 231.794,351.854 C220.613,351.854 209.585,351.701 206.523,351.701 C203.458,351.701 194.192,349.71 194.192,344.195 C194.192,338.682 194.346,322.754 194.346,318.772 C194.346,314.789 200.932,311.189 205.296,311.189" id="Fill-93" fill="#0A0B09"></path>
            <path d="M276.517,311.189 L276.517,317.163 L261.201,317.853 C261.201,317.853 257.142,318.541 256.913,320.686 C256.683,322.83 257.142,328.037 257.142,328.037 L295.739,328.497 L295.662,334.623 L256.99,335.083 L256.99,342.129 C256.99,342.129 257.679,345.651 260.742,345.651 C263.805,345.651 295.509,345.958 295.509,345.958 L295.509,351.701 C295.509,351.701 261.968,352.007 260.589,352.007 C259.21,352.007 249.178,350.553 248.566,344.043 C247.952,337.533 248.412,321.375 248.412,319.231 C248.412,317.087 253.696,311.036 260.053,311.036 C266.409,311.036 276.517,311.189 276.517,311.189" id="Fill-94" fill="#0A0B09"></path>
            <path d="M300.105,351.701 L308.222,351.701 L308.911,337.687 L341.076,352.084 L350.726,352.084 L350.879,348.024 L323.768,336.921 L341.23,336.231 C341.23,336.231 351.644,336.155 351.95,329.493 C352.257,322.83 351.797,318.848 351.797,318.848 C351.797,318.848 350.955,311.343 340.999,311.113 C330.858,310.879 300.105,311.189 300.105,311.189 L300.105,351.701" id="Fill-95" fill="#0A0B09"></path>
            <polyline id="Fill-96" fill="#0A0B09" points="357.694 351.778 365.582 351.778 365.582 311.036 357.847 311.036 357.694 351.778"></polyline>
            <path d="M371.785,351.548 L379.597,351.548 L380.591,322.064 L415.973,351.854 C415.973,351.854 417.811,352.85 420.567,352.772 C423.325,352.697 424.089,351.241 424.089,351.241 L424.166,311.113 L416.508,311.113 L416.508,341.516 C416.508,341.516 381.816,312.951 380.439,311.879 C380.362,310.577 372.015,310.117 371.785,312.108 C371.442,315.079 371.785,351.548 371.785,351.548" id="Fill-97" fill="#0A0B09"></path>
            <path d="M472.412,328.114 L480.608,328.114 L480.684,344.349 C480.684,344.349 476.088,352.16 469.043,352.16 C461.998,352.16 442.853,351.854 441.014,351.854 C439.176,351.854 429.222,348.943 429.222,344.195 C429.222,339.447 429.375,321.146 429.375,318.541 C429.375,315.938 434.812,311.036 441.933,311.036 C449.055,311.036 457.403,311.113 457.403,311.113 L457.403,317.622 C457.403,317.622 443.771,317.775 442.777,317.775 C441.781,317.775 437.874,319.613 437.874,320.686 C437.874,321.758 437.874,341.669 437.874,342.281 C437.874,342.895 440.785,345.114 442.623,345.345 C444.461,345.574 466.439,345.191 467.589,345.191 C468.737,345.191 472.412,342.971 472.412,341.898 C472.412,340.826 472.412,328.114 472.412,328.114" id="Fill-98" fill="#0A0B09"></path>
            <path d="M483.133,345.498 L483.133,351.778 L520.966,351.778 C520.966,351.778 531.227,350.858 531.534,345.421 C531.84,339.984 531.763,338.682 531.763,336.231 C531.763,333.78 526.249,329.033 519.816,328.497 C513.384,327.961 497.455,328.114 495.387,328.114 C494.542,328.114 491.635,326.89 491.482,325.97 C491.328,325.051 491.098,321.758 491.251,320.839 C491.405,319.92 493.013,317.929 496.765,317.853 C500.518,317.775 508.866,317.469 508.866,317.469 L508.866,311.343 C508.866,311.343 496.689,311.42 494.546,311.42 C492.402,311.42 482.906,313.946 482.906,318.925 C482.906,323.902 482.906,325.894 482.828,327.195 C482.752,328.497 486.428,333.934 491.942,333.934 C497.455,333.934 511.01,334.011 515.146,334.394 C519.282,334.776 523.111,335.159 522.957,337.993 C522.804,340.826 523.034,341.976 522.88,343.124 C522.727,344.272 519.358,345.114 517.748,345.268 C516.14,345.421 483.133,345.498 483.133,345.498" id="Fill-99" fill="#0A0B09"></path>
            <polyline id="Fill-100" fill="#EC9542" points="155.572 367.934 218.866 367.934 215.879 375.976 192.905 375.976 180.326 410.724 162.866 410.724 175.329 376.032 153.158 376.032 155.572 367.934"></polyline>
            <polyline id="Fill-101" fill="#EC9542" points="227.367 369.14 243.965 369.14 229.663 410.781 213.008 410.781 227.367 369.14"></polyline>
            <path d="M311.626,369.37 L274.521,369.37 C274.521,369.37 252.352,373.16 246.205,385.107 C240.06,397.054 245.401,410.437 258.497,410.437 C271.593,410.437 297.324,410.839 297.324,410.839 L305.766,386.026 L288.765,386.026 L282.678,402.74 L267.285,403.258 C267.285,403.258 257.003,399.523 262.575,387.98 C268.147,376.435 277.91,377.296 277.91,377.296 L308.983,377.411 L311.626,369.37" id="Fill-102" fill="#EC9542"></path>
            <path d="M373.658,377.238 L376.413,369.37 C376.413,369.37 347.946,369.241 342.89,369.851 C332.455,371.376 323.442,376.47 320.342,378.679 C314.112,383.116 311.175,391.451 311.055,395.968 C310.842,404.006 316.356,411.005 329.488,410.896 C353.208,410.699 362.17,410.839 362.17,410.839 L364.581,403.199 L334.657,403.027 C334.657,403.027 331.965,402.94 330.218,399.705 C329.504,398.383 328.948,396.535 328.799,393.952 L368.085,393.952 L370.9,386.084 L331.498,386.314 C331.498,386.314 336.324,377.468 343.387,377.354 C350.452,377.238 373.658,377.238 373.658,377.238" id="Fill-103" fill="#EC9542"></path>
            <path d="M371.359,410.896 L386.121,369.484 L426.957,369.484 C426.957,369.484 442.407,371.322 441.489,381.833 C440.569,392.345 423.165,396.824 423.165,396.824 L430.461,411.241 L413.286,411.241 L407.715,398.892 L392.496,398.95 L387.9,411.241 L371.359,410.896" id="Fill-104" fill="#EC9542"></path>
            <path d="M438.328,410.551 L440.513,403.027 L474.342,403.486 C474.342,403.486 482.326,401.477 482.556,398.548 C482.785,395.618 478.764,394.24 476.638,394.125 C474.514,394.01 456.192,393.378 456.192,393.378 C456.192,393.378 442.12,390.793 447.748,380.168 C453.377,369.542 470.838,369.772 470.838,369.772 L508.228,369.943 L506.449,377.066 L470.378,377.411 C470.378,377.411 464.979,379.191 465.095,382.58 C465.209,385.969 469.977,387.003 480.258,387.117 C490.539,387.232 501.164,389.473 501.164,394.814 C501.164,400.155 495.133,410.609 476.697,410.839 C458.259,411.068 438.328,410.551 438.328,410.551" id="Fill-105" fill="#EC9542"></path>
            <polyline id="Fill-106" fill="#EC9542" points="168.016 314.25 186.855 314.25 186.855 307.281 139.91 307.281 139.91 314.174 159.055 314.174 159.055 348.176 167.634 348.176 168.016 314.25"></polyline>
            <path d="M202.324,307.664 L230.66,307.895 C230.66,307.895 241.151,309.502 241.151,315.553 C241.151,321.602 240.997,340.747 240.997,340.747 C240.997,340.747 240.003,348.329 228.822,348.329 C217.64,348.329 206.612,348.176 203.55,348.176 C200.486,348.176 191.22,346.185 191.22,340.671 C191.22,335.157 191.372,319.229 191.372,315.246 C191.372,311.264 197.959,307.664 202.324,307.664" id="Fill-107" fill="#EC9542"></path>
            <path d="M273.544,307.664 L273.544,313.638 L258.228,314.327 C258.228,314.327 254.17,315.016 253.94,317.16 C253.711,319.305 254.17,324.512 254.17,324.512 L292.766,324.972 L292.69,331.098 L254.017,331.558 L254.017,338.604 C254.017,338.604 254.706,342.126 257.769,342.126 C260.832,342.126 292.537,342.433 292.537,342.433 L292.537,348.176 C292.537,348.176 258.994,348.481 257.617,348.481 C256.237,348.481 246.205,347.027 245.593,340.519 C244.98,334.008 245.44,317.85 245.44,315.706 C245.44,313.562 250.723,307.511 257.08,307.511 C263.436,307.511 273.544,307.664 273.544,307.664" id="Fill-108" fill="#EC9542"></path>
            <path d="M297.132,348.176 L305.25,348.176 L305.939,334.161 L338.103,348.559 L347.753,348.559 L347.906,344.5 L320.796,333.396 L338.257,332.707 C338.257,332.707 348.671,332.63 348.978,325.968 C349.284,319.305 348.824,315.322 348.824,315.322 C348.824,315.322 347.983,307.817 338.027,307.588 C327.885,307.354 297.132,307.664 297.132,307.664 L297.132,348.176" id="Fill-109" fill="#EC9542"></path>
            <polyline id="Fill-110" fill="#EC9542" points="354.721 348.253 362.609 348.253 362.609 307.511 354.874 307.511 354.721 348.253"></polyline>
            <path d="M368.813,348.022 L376.624,348.022 L377.618,318.539 L413,348.329 C413,348.329 414.838,349.324 417.594,349.248 C420.352,349.172 421.117,347.716 421.117,347.716 L421.193,307.588 L413.535,307.588 L413.535,337.99 C413.535,337.99 378.845,309.426 377.465,308.354 C377.389,307.052 369.042,306.592 368.813,308.583 C368.469,311.554 368.813,348.022 368.813,348.022" id="Fill-111" fill="#EC9542"></path>
            <path d="M469.44,324.589 L477.635,324.589 L477.711,340.824 C477.711,340.824 473.116,348.635 466.071,348.635 C459.026,348.635 439.88,348.329 438.042,348.329 C436.204,348.329 426.249,345.419 426.249,340.671 C426.249,335.923 426.402,317.62 426.402,315.016 C426.402,312.412 431.839,307.511 438.96,307.511 C446.082,307.511 454.43,307.588 454.43,307.588 L454.43,314.097 C454.43,314.097 440.798,314.25 439.804,314.25 C438.808,314.25 434.902,316.088 434.902,317.16 C434.902,318.232 434.902,338.144 434.902,338.756 C434.902,339.369 437.813,341.591 439.651,341.819 C441.489,342.05 463.466,341.666 464.617,341.666 C465.764,341.666 469.44,339.446 469.44,338.374 C469.44,337.302 469.44,324.589 469.44,324.589" id="Fill-112" fill="#EC9542"></path>
            <path d="M480.162,341.973 L480.162,348.253 L517.993,348.253 C517.993,348.253 528.256,347.334 528.561,341.897 C528.867,336.459 528.79,335.157 528.79,332.707 C528.79,330.256 523.277,325.508 516.843,324.972 C510.411,324.436 494.482,324.589 492.414,324.589 C491.572,324.589 488.661,323.364 488.509,322.445 C488.356,321.525 488.125,318.232 488.279,317.314 C488.432,316.395 490.04,314.403 493.794,314.327 C497.546,314.25 505.893,313.943 505.893,313.943 L505.893,307.817 C505.893,307.817 493.718,307.895 491.574,307.895 C489.429,307.895 479.933,310.421 479.933,315.399 C479.933,320.377 479.933,322.368 479.856,323.67 C479.78,324.972 483.455,330.409 488.968,330.409 C494.482,330.409 508.037,330.485 512.173,330.869 C516.309,331.251 520.138,331.635 519.985,334.468 C519.831,337.302 520.061,338.45 519.908,339.6 C519.754,340.747 516.385,341.591 514.778,341.743 C513.167,341.897 480.162,341.973 480.162,341.973" id="Fill-113" fill="#EC9542"></path>
            <path d="M197.916,317.296 C197.916,316.377 202.052,314.002 204.503,314.002 C206.952,314.002 224.95,314.232 225.868,314.232 C226.787,314.232 231.535,315.764 231.535,317.908 C231.535,320.053 231.535,337.667 231.535,338.738 C231.535,339.811 228.319,341.496 225.945,341.496 C223.572,341.496 205.037,341.802 203.583,341.802 C202.128,341.802 197.992,340.271 197.992,338.892 C197.992,337.514 197.916,318.215 197.916,317.296" id="Fill-114" fill="#0A0B09"></path>
            <path d="M304.365,326.408 L304.288,314.079 C304.288,314.079 332.852,314.155 334.767,314.155 C336.68,314.155 339.592,316.224 339.592,317.143 C339.592,318.062 339.438,323.729 339.438,324.189 C339.438,324.647 336.91,326.408 335.533,326.485 C334.155,326.562 304.365,326.408 304.365,326.408" id="Fill-115" fill="#0A0B09"></path>
            <path d="M394.002,391.159 L398.483,376.8 L414.106,377.259 C414.106,377.259 423.525,377.719 420.767,383.691 C418.011,389.665 413.875,391.159 409.74,391.159 C405.604,391.159 394.002,391.159 394.002,391.159" id="Fill-116" fill="#0A0B09"></path>
        </g>
    </g>
</svg>