<?xml version="1.0" encoding="UTF-8" standalone="no"?>
<svg width="1316px" height="1255px" viewBox="0 0 1316 1255" version="1.1" xmlns="http://www.w3.org/2000/svg" xmlns:xlink="http://www.w3.org/1999/xlink">
    <!-- Generator: Sketch 49.1 (51147) - http://www.bohemiancoding.com/sketch -->
    <title>Woods Wolfpack</title>
    <desc>Created with Sketch.</desc>
    <defs>
        <polygon id="path-1" points="0.06 0.4 1315.52 0.4 1315.52 1254.94 0.06 1254.94"></polygon>
        <polyline id="path-3" points="159.831 22.204 148.184 109.03 131.424 0.321 80.523 0.321 95.77 24.321 85.711 109.03 63.204 0.321 0.122 0.321 30.828 28.556 61.888 247.21 31.004 272.09 104.28 272.09 118.007 177.15 130.98 272.09 169.36 272.09 208.009 0.321 139.771 0.321 159.831 22.204"></polyline>
        <path d="M41.656,201.03 L67.068,201.03 L67.068,41.14 L41.656,41.14 L41.656,201.03 Z M22.598,0.733 L0.891,22.616 L0.891,219.74 L23.303,242.15 L86.128,242.15 L107.658,220.62 L107.658,22.616 L85.775,0.733 L22.598,0.733 Z" id="path-5"></path>
        <polyline id="path-7" points="124.631 156.56 82.894 130.09 82.894 199.97 63.836 199.97 63.836 0.733 0.658 0.733 21.746 21.821 21.746 242.15 143.249 242.15 124.631 223.53 124.631 156.56"></polyline>
        <polyline id="path-9" points="0.366 0.733 21.367 21.733 21.367 242.15 85.603 242.15 63.35 219.9 63.35 136.44 85.603 136.44 85.603 96.73 62.627 96.73 62.627 41.67 82.956 41.67 82.956 85.62 123.722 108.91 123.722 22.086 102.192 0.556 0.366 0.733"></polyline>
        <path d="M63.576,41.5 L85.017,41.5 L85.017,90.56 L63.576,105.03 L63.576,41.5 Z M63.135,149.68 L126.313,108.91 L126.313,22.616 L104.342,0.644 L0.84,0.733 L20.252,20.145 L20.252,242.15 L86.077,242.15 L63.135,219.21 L63.135,149.68 Z" id="path-11"></path>
        <path d="M62.196,166.09 L73.844,115.79 L84.432,166.09 L62.196,166.09 Z M90.785,0.733 L27.784,0.733 L51.167,24.116 L0.254,242.15 L68.55,242.15 L50.372,223.97 L56.902,200.5 L90.256,198.91 L98.726,242.15 L155.904,242.15 L135.257,220.62 L90.785,0.733 Z" id="path-13"></path>
        <polyline id="path-15" points="64.023 199.97 41.258 199.97 41.258 41.5 62.434 41.5 62.434 87.73 105.09 109.97 105.09 21.789 83.611 0.313 20.191 0.313 0.007 20.498 0.007 220.05 20.61 240.65 86.88 240.65 106.38 221.15 106.38 154.97 64.023 131.68 64.023 199.97"></polyline>
        <polyline id="path-17" points="82.44 192.91 124.26 276.56 190.44 276.56 163.17 249.3 105.73 138.65 179.32 0.732 95.67 0.732 111.56 27.204 69.73 106.62 69.73 0.732 0.91 0.732 24.47 24.291 24.47 276.56 91.97 276.56 70 254.59 70 216.21 82.44 192.91"></polyline>
        <polyline id="path-19" points="144.576 20.099 134.063 98.471 118.935 0.347 72.99 0.347 86.754 22.01 77.674 98.471 57.357 0.347 0.417 0.347 28.134 25.833 56.169 223.196 44.66 243.729 94.434 245.657 106.824 159.958 118.535 245.657 153.179 245.657 188.063 0.347 126.471 0.347 144.576 20.099"></polyline>
        <path d="M37.072,180.958 L60.011,180.958 L60.011,36.639 L37.072,36.639 L37.072,180.958 Z M19.869,0.161 L0.275,19.913 L0.275,197.842 L20.506,218.072 L77.214,218.072 L96.647,198.639 L96.647,19.913 L76.895,0.161 L19.869,0.161 Z" id="path-21"></path>
        <path d="M36.939,180.958 L59.878,180.958 L59.878,36.639 L36.939,36.639 L36.939,180.958 Z M19.736,0.161 L0.143,19.913 L0.143,197.842 L20.373,218.072 L77.081,218.072 L96.515,198.639 L96.515,19.913 L76.763,0.161 L19.736,0.161 Z" id="path-23"></path>
        <path d="M57.117,181.236 L76.471,181.236 L76.471,36.957 L57.117,36.957 L57.117,181.236 Z M93.913,0.081 L18.03,0.146 L18.011,0.121 L18.011,0.146 L0.488,0.161 L18.011,17.683 L18.011,200.51 L0.488,218.033 L18.011,218.047 L18.011,218.072 L47.338,218.072 L93.913,218.112 L113.745,198.28 L113.745,19.913 L93.913,0.081 Z" id="path-25"></path>
        <polyline id="path-27" points="147.468 246.073 126.144 224.75 126.144 128.56 75.047 98.6 64.109 92.582 64.109 42.693 84.751 42.693 84.751 87.311 126.144 110.964 126.144 22.803 104.283 0.942 60.919 0.942 60.994 1.017 0.891 1.121 22.214 22.445 22.214 117.259 84.25 153.632 84.25 204.501 63.607 204.501 63.607 159.883 22.214 136.229 22.214 224.391 44.075 246.252 87.439 246.252 87.364 246.177 147.468 246.073"></polyline>
    </defs>
    <g id="Page-1" stroke="none" stroke-width="1" fill="none" fill-rule="evenodd">
        <g id="Woods-Wolfpack">
            <g id="Group-3">
                <mask id="mask-2" fill="white">
                    <use xlink:href="#path-1"></use>
                </mask>
                <g id="Clip-2"></g>
                <path d="M773.312,0.4 L622.691,0.4 L622.691,19.327 L456.658,19.327 L454.9,21.084 L448.844,27.141 L440.74,19.038 L382.553,19.038 L382.553,0.4 L78.729,0.4 L157.213,83.507 L180.323,247.605 L162.881,261.236 L34.057,218.217 L270.078,406.472 C264.224,412.439 258.409,418.656 252.735,425.016 C245.621,432.992 238.788,441.12 232.4,449.204 C163.132,459.328 101.048,477.671 47.846,503.738 L28.334,513.298 L49.987,515.106 C50.569,515.154 106.935,519.936 178.62,532.379 C160.288,567.655 146.025,604.964 136.183,643.407 C125.338,685.767 119.839,729.622 119.839,773.752 C119.839,819.788 125.806,865.403 137.582,909.463 L0,909.463 L81.308,990.773 L110.745,1175.72 L31.723,1244.47 L19.626,1255 L293.668,1255 L293.668,1218.04 L311.97,1236.35 L313.727,1238.1 L1003.8,1238.1 L1003.8,1255 L1287.94,1255 L1202.64,1169.71 L1155.63,1079.08 L1246,908.052 L1150.72,908.052 C1160.57,870.754 1166.28,832.227 1167.71,793.352 L1315.52,690.316 L1303.83,686.671 L1150.59,638.927 C1144.95,617.707 1137.91,596.672 1129.61,576.273 L1138.92,571.779 L1125.9,567.365 C1111.01,532.647 1092.24,499.434 1070.06,468.522 C1088.87,455.62 1108.94,445.292 1129.81,437.79 C1157.57,427.808 1187.02,422.748 1217.33,422.748 L1237.26,422.748 L1220.65,411.745 C1220,411.313 1204.38,401.061 1177.33,390.745 C1152.46,381.259 1112.79,369.953 1065.03,369.95 C1045.45,369.949 1025.83,371.834 1006.46,375.568 C1031.35,355.499 1076.35,321.831 1110.06,311.295 L1124.36,306.827 L1110.93,300.19 C1110.4,299.926 1097.64,293.675 1074.93,287.406 C1054.12,281.66 1020.59,274.811 979.025,274.811 C938.544,274.81 897.621,281.191 857.321,293.784 L854.315,287.196 L853.866,286.209 L853.099,285.443 L819.994,252.337 L820.116,42.498 L773.312,0.4 Z M771.011,6.4 L814.114,45.17 L813.992,254.821 L848.856,289.686 L853.448,299.75 C854.134,300.054 854.826,300.346 855.511,300.653 C901.347,285.89 943.167,280.81 979.025,280.811 C1058.18,280.811 1108.27,305.569 1108.27,305.569 C1063.23,319.644 999.937,372.769 986.107,384.684 C986.606,385.124 987.101,385.567 987.599,386.007 C1015.05,378.798 1041.05,375.949 1065.03,375.95 C1155.73,375.956 1217.33,416.748 1217.33,416.748 C1149.82,416.748 1097.94,441.013 1061.62,467.116 C1085.43,499.483 1105.58,534.698 1121.43,572.185 L1123.1,572.75 L1121.9,573.33 C1131.42,596.001 1139.38,619.49 1145.63,643.666 L1302.04,692.4 L1161.82,790.147 C1160.49,832.96 1153.97,874.465 1142.86,914.052 L1236.04,914.052 L1148.86,1079.06 L1197.75,1173.29 L1273.45,1249 L1009.8,1249 L1009.8,1232.1 L316.213,1232.1 L287.668,1203.56 L287.668,1249 L35.662,1249 L117.193,1178.06 L86.928,987.907 L14.485,915.463 L145.458,915.463 C132.68,870.424 125.839,822.887 125.839,773.752 C125.839,684.781 148.276,601.054 187.782,527.902 C111.095,514.181 50.486,509.126 50.486,509.126 C114.381,477.82 182.494,462.402 235.633,454.798 L235.634,454.798 C242.545,445.962 249.753,437.373 257.213,429.01 C264.262,421.107 271.538,413.413 279.053,405.956 L64.251,234.625 L164.037,267.948 L186.748,250.199 L162.888,80.777 L92.648,6.4 L376.553,6.4 L376.553,25.038 L438.255,25.038 L448.844,35.626 L459.143,25.327 L628.691,25.327 L628.691,6.4 L771.011,6.4 Z" id="Fill-1" fill="#979A9B" mask="url(#mask-2)"></path>
            </g>
            <path d="M1008.3,1250.5 L1008.3,1233.6 L315.592,1233.6 L289.168,1207.18 L289.168,1250.5 L31.653,1250.5 L115.581,1177.47 L85.523,988.624 L10.864,913.964 L143.477,913.964 C130.776,868.532 124.339,821.373 124.339,773.752 C124.339,688.397 145.473,603.823 185.481,529.015 C110.697,515.736 50.962,510.671 50.362,510.622 L44.948,510.169 L49.826,507.78 C103.061,481.696 165.303,463.401 234.823,453.399 C241.468,444.927 248.622,436.388 256.094,428.011 C262.846,420.441 269.806,413.07 276.803,406.08 L56.703,230.523 L163.748,266.27 L185.142,249.551 L161.469,81.46 L89.168,4.9 L378.053,4.9 L378.053,23.538 L438.876,23.538 L448.844,33.505 L458.522,23.827 L627.191,23.827 L627.191,4.9 L771.586,4.9 L815.614,44.502 L815.492,254.2 L850.108,288.816 L854.575,298.606 C854.575,298.606 855.387,298.959 855.596,299.05 C896.449,285.951 937.971,279.311 979.025,279.311 C1057.62,279.311 1108.43,303.975 1108.94,304.224 L1112.3,305.883 L1108.72,307 C1065.79,320.416 1005.42,370.19 989.145,384.057 C1014.07,377.682 1039.59,374.451 1065.03,374.451 C1155.14,374.451 1217.54,415.086 1218.16,415.497 L1222.32,418.248 L1217.33,418.248 C1161.34,418.248 1109.67,434.8 1063.73,467.454 C1087.29,499.685 1107.07,534.503 1122.55,570.981 L1127.05,572.507 L1123.83,574.063 C1133.08,596.268 1140.83,619.275 1146.87,642.483 L1305.41,691.878 L1163.29,790.947 C1161.95,832.21 1155.74,873.109 1144.84,912.552 L1238.53,912.552 L1150.56,1079.06 L1198.97,1172.4 L1277.08,1250.5 L1008.3,1250.5" id="Fill-4" fill="#1B1816"></path>
            <path d="M772.161,3.4 L625.691,3.4 L625.691,22.327 L457.9,22.327 L448.844,31.383 L440.377,22.916 L439.498,22.038 L379.553,22.038 L379.553,3.4 L85.688,3.4 L160.051,82.142 L183.536,248.902 L163.459,264.592 L49.154,226.421 L274.558,406.207 C267.946,412.856 261.369,419.843 254.974,427.013 C247.625,435.251 240.579,443.653 234.016,452 C164.577,462.042 102.392,480.353 49.166,506.432 L39.41,511.212 L50.237,512.116 C50.831,512.166 109.436,517.136 183.187,530.133 C164.043,566.271 149.213,604.61 139.089,644.151 C128.306,686.268 122.839,729.873 122.839,773.752 C122.839,820.844 129.117,867.487 141.504,912.463 L7.243,912.463 L84.119,989.339 L113.969,1176.89 L33.693,1246.74 L27.644,1252 L290.668,1252 L290.668,1210.8 L314.091,1234.22 L314.97,1235.1 L1006.8,1235.1 L1006.8,1252 L1280.7,1252 L1200.2,1171.5 L1152.25,1079.07 L1238.69,915.454 L1241.02,911.052 L1146.8,911.052 C1157.35,872.326 1163.39,832.214 1164.77,791.748 L1303.76,694.861 L1308.78,691.358 L1302.93,689.536 L1148.11,641.298 C1142.2,618.752 1134.69,596.404 1125.76,574.798 L1131.01,572.265 L1124.06,569.909 L1123.67,569.776 C1108.38,533.883 1088.94,499.598 1065.84,467.8 C1085.58,453.934 1106.75,442.893 1128.8,434.966 C1156.89,424.868 1186.67,419.748 1217.33,419.748 L1227.3,419.748 L1218.99,414.246 C1218.35,413.822 1203,403.748 1176.26,393.547 C1151.63,384.153 1112.34,372.953 1065.03,372.95 C1041.59,372.949 1018.07,375.68 995.011,381.077 C1016.17,363.418 1070.03,320.662 1109.17,308.432 L1116.32,306.198 L1109.6,302.878 C1109.08,302.621 1096.57,296.492 1074.13,290.298 C1053.5,284.602 1020.25,277.811 979.025,277.811 C938.004,277.81 896.516,284.415 855.693,297.444 L851.361,287.948 L850.978,287.564 L816.993,253.58 L817.115,43.834 L816.121,42.939 L773.016,4.169 L772.161,3.4 Z M771.011,6.4 L814.114,45.17 L813.992,254.821 L848.856,289.686 L853.448,299.75 C854.134,300.054 854.826,300.346 855.511,300.653 C901.347,285.89 943.167,280.81 979.025,280.81 C1058.18,280.811 1108.27,305.569 1108.27,305.569 C1063.23,319.644 999.937,372.77 986.107,384.684 C986.606,385.124 987.101,385.566 987.599,386.007 C1015.05,378.798 1041.05,375.949 1065.03,375.95 C1155.73,375.956 1217.33,416.748 1217.33,416.748 C1149.82,416.748 1097.94,441.013 1061.62,467.116 C1085.43,499.483 1105.58,534.698 1121.43,572.185 L1123.1,572.75 L1121.9,573.33 C1131.42,596.001 1139.37,619.49 1145.63,643.666 L1302.04,692.4 L1161.82,790.147 C1160.49,832.96 1153.97,874.465 1142.86,914.052 L1236.04,914.052 L1148.86,1079.06 L1197.75,1173.29 L1273.45,1249 L1009.8,1249 L1009.8,1232.1 L316.213,1232.1 L287.668,1203.56 L287.668,1249 L35.662,1249 L117.193,1178.06 L86.928,987.907 L14.485,915.463 L145.458,915.463 C132.68,870.424 125.839,822.887 125.839,773.752 C125.839,684.781 148.276,601.054 187.783,527.902 C111.095,514.181 50.486,509.126 50.486,509.126 C114.381,477.82 182.493,462.402 235.633,454.798 L235.634,454.798 C242.545,445.962 249.753,437.373 257.212,429.01 C264.262,421.107 271.538,413.413 279.054,405.956 L64.251,234.625 L164.037,267.948 L186.748,250.199 L162.888,80.777 L92.648,6.4 L376.553,6.4 L376.553,25.038 L438.255,25.038 L448.844,35.626 L459.143,25.327 L628.691,25.327 L628.691,6.4 L771.011,6.4 Z" id="Fill-5" fill="#FFFFFE"></path>
            <path d="M64.251,234.625 L331.08,447.454 C331.08,447.454 330.248,447.439 328.656,447.439 C320.399,447.439 291.663,447.826 252.166,452.608 C246.846,453.251 241.322,453.985 235.633,454.798 C182.494,462.402 114.381,477.82 50.486,509.126 C50.486,509.126 111.095,514.181 187.782,527.902 C202.732,530.577 218.291,533.583 234.133,536.944 C290.825,548.969 351.118,565.55 399.905,587.927 C399.905,587.927 283.433,716.401 202.96,898.522 C202.96,898.522 365.316,805.344 555.732,778.873 L495.201,861.462 C495.201,861.462 653.669,790.407 800.149,787.343 C802.196,787.301 804.22,787.28 806.203,787.28 C946.103,787.28 927.388,892.169 927.388,892.169 C927.388,892.169 950.998,860.634 958.976,827.05 C958.976,827.05 988.624,855.11 965.329,927.111 L1302.04,692.4 L1042.62,611.575 L1121.9,573.33 C1121.74,572.95 1121.59,572.564 1121.43,572.185 L998.153,530.397 C998.153,530.397 1019.33,497.51 1061.62,467.116 C1097.94,441.013 1149.82,416.748 1217.33,416.748 C1217.33,416.748 1155.73,375.95 1065.03,375.95 C1041.05,375.95 1015.05,378.798 987.599,386.007 C986.172,386.381 984.764,386.702 983.33,387.099 C983.33,387.099 984.332,386.214 986.107,384.684 C999.937,372.769 1063.23,319.644 1108.27,305.569 C1108.27,305.569 1058.18,280.811 979.025,280.811 C943.167,280.81 901.347,285.89 855.511,300.653 C855.028,300.808 854.551,300.952 854.067,301.109 C791.098,321.633 720.626,360.447 647.676,429.454 L64.251,234.625 Z M74.316,240.095 L647.042,431.35 L648.179,431.73 L649.05,430.907 C714.195,369.282 783.382,326.251 854.687,303.01 C854.942,302.927 855.195,302.848 855.448,302.77 C855.673,302.7 855.897,302.629 856.123,302.556 C896.806,289.454 938.156,282.81 979.025,282.811 C1043.28,282.811 1088.68,299.422 1102.77,305.318 C1057.49,321.725 996.864,372.777 984.802,383.169 C983.015,384.709 982.005,385.601 982.005,385.601 L975.501,391.35 L983.865,389.027 C984.683,388.799 985.52,388.591 986.33,388.391 C986.921,388.245 987.512,388.097 988.106,387.942 C1013.35,381.312 1039.23,377.95 1065.03,377.95 C1111.52,377.95 1150.14,388.946 1174.36,398.17 C1191.11,404.551 1203.46,410.986 1210.25,414.837 C1181.51,415.567 1153.57,420.747 1127.11,430.261 C1103.7,438.676 1081.27,450.53 1060.46,465.492 C1018.35,495.757 996.686,528.982 996.472,529.314 L995.085,531.468 L997.512,532.291 L1117.82,573.075 L1041.76,609.774 L1037.19,611.977 L1297.55,693.095 L968.959,922.143 C979.171,887.511 976.784,863.669 972.813,849.54 C968.217,833.18 960.67,825.9 960.35,825.597 L957.832,823.213 L957.03,826.588 C951.312,850.658 937.268,873.928 930.119,884.716 C930.31,880.672 930.298,875.276 929.614,869.051 C927.137,846.498 917.782,831.213 910.371,822.363 C889.766,797.756 854.719,785.28 806.203,785.28 C804.202,785.28 802.151,785.301 800.107,785.344 C724.205,786.931 645.123,807.047 592.147,823.643 C548.492,837.319 514.902,850.918 501.158,856.719 L560.141,776.241 L555.457,776.892 C511.925,782.944 466.254,793.012 419.711,806.818 C382.488,817.86 344.626,831.303 307.177,846.776 C256.524,867.703 220.218,886.79 207.218,893.874 C248.265,802.361 298.211,725.166 333.196,676.149 C371.866,621.971 401.097,589.591 401.388,589.271 L403.221,587.248 L400.739,586.11 C358.025,566.518 302.11,549.318 234.548,534.987 C219.558,531.807 203.942,528.761 188.135,525.933 C127.372,515.062 76.177,509.581 57.86,507.8 C109.468,483.463 169.329,466.306 235.917,456.779 C241.606,455.964 247.154,455.229 252.406,454.593 C291.908,449.81 320.756,449.439 328.656,449.439 C330.216,449.439 331.035,449.454 331.046,449.454 L336.921,449.554 L74.316,240.095 Z" id="Fill-6" fill="#8B9BAA"></path>
            <g id="Group-9" transform="translate(87.000000, 945.000000)">
                <mask id="mask-4" fill="white">
                    <use xlink:href="#path-3"></use>
                </mask>
                <g id="Clip-8"></g>
                <polyline id="Fill-7" mask="url(#mask-4)" points="159.831 22.204 148.184 109.03 131.424 0.321 80.523 0.321 95.77 24.321 85.711 109.03 63.204 0.321 0.122 0.321 30.828 28.556 61.888 247.21 31.004 272.09 104.28 272.09 118.007 177.15 130.98 272.09 169.36 272.09 208.009 0.321 139.771 0.321 159.831 22.204"></polyline>
            </g>
            <polygon id="Stroke-10" stroke="#FFFFFE" fill="" points="246.831 967.204 235.184 1054.03 218.424 945.321 167.523 945.321 182.77 969.321 172.711 1054.03 150.204 945.321 87.122 945.321 117.828 973.556 148.888 1192.21 118.004 1217.09 191.28 1217.09 205.007 1122.15 217.98 1217.09 256.36 1217.09 295.009 945.321 226.771 945.321"></polygon>
            <g id="Group-13" transform="translate(301.000000, 961.000000)">
                <mask id="mask-6" fill="white">
                    <use xlink:href="#path-5"></use>
                </mask>
                <g id="Clip-12"></g>
                <path d="M41.656,201.03 L67.068,201.03 L67.068,41.14 L41.656,41.14 L41.656,201.03 Z M22.598,0.733 L0.891,22.616 L0.891,219.74 L23.303,242.15 L86.128,242.15 L107.658,220.62 L107.658,22.616 L85.775,0.733 L22.598,0.733 Z" id="Fill-11" mask="url(#mask-6)"></path>
            </g>
            <path d="M342.656,1162.03 L368.068,1162.03 L368.068,1002.14 L342.656,1002.14 L342.656,1162.03 Z M323.598,961.733 L301.891,983.616 L301.891,1180.74 L324.303,1203.15 L387.128,1203.15 L408.658,1181.62 L408.658,983.616 L386.775,961.733 L323.598,961.733 Z" id="Stroke-14" stroke="#FFFFFE" fill=""></path>
            <g id="Group-17" transform="translate(408.000000, 961.000000)">
                <mask id="mask-8" fill="white">
                    <use xlink:href="#path-7"></use>
                </mask>
                <g id="Clip-16"></g>
                <polyline id="Fill-15" mask="url(#mask-8)" points="124.631 156.56 82.894 130.09 82.894 199.97 63.836 199.97 63.836 0.733 0.658 0.733 21.746 21.821 21.746 242.15 143.249 242.15 124.631 223.53 124.631 156.56"></polyline>
            </g>
            <polygon id="Stroke-18" stroke="#FFFFFE" fill="" points="532.631 1117.56 490.894 1091.09 490.894 1160.97 471.836 1160.97 471.836 961.733 408.658 961.733 429.746 982.821 429.746 1203.15 551.249 1203.15 532.631 1184.53"></polygon>
            <g id="Group-21" transform="translate(535.000000, 961.000000)">
                <mask id="mask-10" fill="white">
                    <use xlink:href="#path-9"></use>
                </mask>
                <g id="Clip-20"></g>
                <polyline id="Fill-19" mask="url(#mask-10)" points="0.366 0.733 21.367 21.733 21.367 242.15 85.603 242.15 63.35 219.9 63.35 136.44 85.603 136.44 85.603 96.73 62.627 96.73 62.627 41.67 82.956 41.67 82.956 85.62 123.722 108.91 123.722 22.086 102.192 0.556 0.366 0.733"></polyline>
            </g>
            <polygon id="Stroke-22" stroke="#FFFFFE" fill="" points="535.366 961.733 556.367 982.733 556.367 1203.15 620.603 1203.15 598.35 1180.9 598.35 1097.44 620.603 1097.44 620.603 1057.73 597.627 1057.73 597.627 1002.67 617.956 1002.67 617.956 1046.62 658.722 1069.91 658.722 983.086 637.192 961.556"></polygon>
            <g id="Group-25" transform="translate(660.000000, 961.000000)">
                <mask id="mask-12" fill="white">
                    <use xlink:href="#path-11"></use>
                </mask>
                <g id="Clip-24"></g>
                <path d="M63.576,41.5 L85.017,41.5 L85.017,90.56 L63.576,105.03 L63.576,41.5 Z M63.135,149.68 L126.313,108.91 L126.313,22.616 L104.342,0.644 L0.84,0.733 L20.252,20.145 L20.252,242.15 L86.077,242.15 L63.135,219.21 L63.135,149.68 Z" id="Fill-23" mask="url(#mask-12)"></path>
            </g>
            <path d="M723.576,1002.5 L745.017,1002.5 L745.017,1051.56 L723.576,1066.03 L723.576,1002.5 Z M723.135,1110.68 L786.313,1069.91 L786.313,983.616 L764.342,961.644 L660.84,961.733 L680.252,981.145 L680.252,1203.15 L746.077,1203.15 L723.135,1180.21 L723.135,1110.68 Z" id="Stroke-26" stroke="#FFFFFE" fill=""></path>
            <g id="Group-29" transform="translate(767.000000, 961.000000)">
                <mask id="mask-14" fill="white">
                    <use xlink:href="#path-13"></use>
                </mask>
                <g id="Clip-28"></g>
                <path d="M62.196,166.09 L73.844,115.79 L84.432,166.09 L62.196,166.09 Z M90.785,0.733 L27.784,0.733 L51.167,24.116 L0.254,242.15 L68.55,242.15 L50.372,223.97 L56.902,200.5 L90.256,198.91 L98.726,242.15 L155.904,242.15 L135.257,220.62 L90.785,0.733 Z" id="Fill-27" mask="url(#mask-14)"></path>
            </g>
            <path d="M829.196,1127.09 L840.844,1076.79 L851.432,1127.09 L829.196,1127.09 Z M857.785,961.733 L794.784,961.733 L818.167,985.116 L767.254,1203.15 L835.55,1203.15 L817.372,1184.97 L823.902,1161.5 L857.256,1159.91 L865.726,1203.15 L922.904,1203.15 L902.257,1181.62 L857.785,961.733 Z" id="Stroke-30" stroke="#FFFFFE" fill=""></path>
            <g id="Group-33" transform="translate(915.000000, 961.000000)">
                <mask id="mask-16" fill="white">
                    <use xlink:href="#path-15"></use>
                </mask>
                <g id="Clip-32"></g>
                <polyline id="Fill-31" mask="url(#mask-16)" points="64.023 199.97 41.258 199.97 41.258 41.5 62.434 41.5 62.434 87.73 105.09 109.97 105.09 21.789 83.611 0.313 20.191 0.313 0.007 20.498 0.007 220.05 20.61 240.65 86.88 240.65 106.38 221.15 106.38 154.97 64.023 131.68 64.023 199.97"></polyline>
            </g>
            <polygon id="Stroke-34" stroke="#FFFFFE" fill="" points="979.023 1160.97 956.258 1160.97 956.258 1002.5 977.434 1002.5 977.434 1048.73 1020.09 1070.97 1020.09 982.789 998.611 961.313 935.191 961.313 915.007 981.498 915.007 1181.05 935.61 1201.65 1001.88 1201.65 1021.38 1182.15 1021.38 1115.97 979.023 1092.68"></polygon>
            <g id="Group-37" transform="translate(1012.000000, 940.000000)">
                <mask id="mask-18" fill="white">
                    <use xlink:href="#path-17"></use>
                </mask>
                <g id="Clip-36"></g>
                <polyline id="Fill-35" mask="url(#mask-18)" points="82.44 192.91 124.26 276.56 190.44 276.56 163.17 249.3 105.73 138.65 179.32 0.732 95.67 0.732 111.56 27.204 69.73 106.62 69.73 0.732 0.91 0.732 24.47 24.291 24.47 276.56 91.97 276.56 70 254.59 70 216.21 82.44 192.91"></polyline>
            </g>
            <polygon id="Stroke-38" stroke="#FFFFFE" fill="" points="1094.44 1132.91 1136.26 1216.56 1202.44 1216.56 1175.17 1189.3 1117.73 1078.65 1191.32 940.732 1107.67 940.732 1123.56 967.204 1081.73 1046.62 1081.73 940.732 1012.91 940.732 1036.47 964.291 1036.47 1216.56 1103.97 1216.56 1082 1194.59 1082 1156.21"></polygon>
            <path d="M804.137,366.22 C865.031,332.534 915.481,318.145 952.294,312.41 C700.968,331.451 610.721,529.988 610.721,529.988 C610.721,529.988 671.429,439.633 804.137,366.22" id="Fill-39" fill="#FFFFFE"></path>
            <path d="M439.893,485.516 C304.361,469.987 190.712,501.046 190.712,501.046 C212.124,502.545 233.414,505.242 254.141,508.717 C296.566,496.302 372.707,478.369 439.893,485.516" id="Fill-40" fill="#FFFFFE"></path>
            <path d="M349.539,751.64 C378.48,683.874 468.13,572.341 468.13,572.341 C363.657,671.874 288.832,811.641 288.832,811.641 C423.658,741.051 617.251,731.345 617.251,731.345 C485.424,708.933 349.539,751.64 349.539,751.64" id="Fill-41" fill="#FFFFFE"></path>
            <path d="M1135.56,681.05 L992.259,636.226 C987.885,637.661 983.193,638.705 978.471,639.467 L1127.69,686.947 L1135.56,681.05" id="Fill-42" fill="#FFFFFE"></path>
            <polyline id="Fill-43" fill="#FFFFFE" points="242.948 330.924 309.35 383.047 628.368 467.163 242.948 330.924"></polyline>
            <path d="M977.301,603.497 C999.448,597.384 1014.85,580.459 1014.85,580.459 L874.572,532.947 C912.873,551.492 969.058,581.795 977.301,603.497" id="Fill-44" fill="#FFFFFE"></path>
            <path d="M698.958,502.457 C698.958,502.457 728.959,432.221 801.49,387.749 C874.02,343.278 925.375,341.69 925.375,341.69 C925.375,341.69 898.021,368.69 855.314,409.28 C812.607,449.869 796.195,476.164 796.195,476.164 C796.195,476.164 788.254,475.81 786.843,468.399 C785.431,460.987 790.724,450.045 790.724,450.045 C790.724,450.045 778.548,448.986 769.195,456.222 C769.195,456.222 769.018,445.457 789.666,434.692 C789.666,434.692 748.724,437.515 698.958,502.457 Z M1069.91,730.287 L1127.69,686.947 L978.471,639.467 C958.806,642.642 938.61,640.814 938.61,640.814 L994.023,671.167 C925.904,653.52 928.375,656.697 883.197,663.755 C838.02,670.814 810.49,661.638 800.961,631.637 C791.431,601.636 819.313,568.783 819.313,568.783 C819.313,568.783 800.961,559.989 775.901,560.341 C750.842,560.695 731.782,581.166 731.782,581.166 C736.371,530.341 770.254,518.694 770.254,518.694 C827.079,514.458 898.374,581.872 938.963,600.578 C952.746,606.93 965.914,606.639 977.301,603.497 C969.058,581.795 912.873,551.492 874.572,532.947 L817.902,513.752 C853.902,418.457 1016.96,311.512 1016.96,311.512 C994.306,310.475 972.775,310.858 952.294,312.41 C915.481,318.145 865.031,332.534 804.137,366.22 C671.429,439.633 610.721,529.988 610.721,529.988 L628.368,467.163 L309.35,383.047 L439.893,485.516 C372.707,478.369 296.566,496.302 254.141,508.717 C370.074,528.158 468.13,572.341 468.13,572.341 C468.13,572.341 378.48,683.874 349.539,751.64 C349.539,751.64 485.424,708.933 617.251,731.345 L695.076,675.226 C653.251,647.166 572.25,655.108 572.25,655.108 C579.845,652.608 587.378,650.705 594.81,649.268 C612.696,643.537 674.718,628.818 748.548,669.932 C748.548,669.932 680.781,708.05 650.604,748.287 C650.604,748.287 802.942,691.499 946.382,783.872 C997.189,805.586 1025.44,826.641 1025.44,826.641 L1165.73,727.639 C1111.2,715.992 1069.91,730.287 1069.91,730.287 Z" id="Fill-45" fill="#8B9BAA"></path>
            <path d="M650.604,748.287 C680.781,708.05 748.548,669.932 748.548,669.932 C674.718,628.818 612.696,643.537 594.81,649.268 C670.793,634.583 735.665,671.167 735.665,671.167 C650.957,717.051 596.603,786.935 596.603,786.935 C596.603,786.935 695.429,723.404 822.49,746.699 C872.092,755.792 913.849,769.967 946.382,783.872 C802.942,691.499 650.604,748.287 650.604,748.287" id="Fill-46" fill="#FFFFFE"></path>
            <path d="M796.195,476.164 C796.195,476.164 812.607,449.869 855.314,409.28 C898.021,368.69 925.375,341.69 925.375,341.69 C925.375,341.69 827.432,408.397 796.195,476.164" id="Fill-47" fill="#FFFFFE"></path>
            <path d="M865.55,644.343 C892.374,653.167 923.433,636.049 923.433,636.049 C896.621,624.911 846.844,587.519 846.844,587.519 C846.844,587.519 838.725,635.52 865.55,644.343" id="Fill-48" fill="#FFFFFE"></path>
            <path d="M904.198,492.046 C1005.44,420.702 1061.97,411.574 1061.97,411.574 C1011.87,415.596 954.212,442.09 923.327,458.099 C912.621,475.205 904.198,492.046 904.198,492.046" id="Fill-49" fill="#8B9BAA"></path>
            <path d="M923.327,458.099 C954.212,442.09 1011.87,415.596 1061.97,411.574 C994.729,411.044 947.081,427.457 947.081,427.457 C939.447,433.999 930.827,446.114 923.327,458.099" id="Fill-50" fill="#FFFFFE"></path>
            <g id="Group-53" transform="translate(154.000000, 34.000000)">
                <mask id="mask-20" fill="white">
                    <use xlink:href="#path-19"></use>
                </mask>
                <g id="Clip-52"></g>
                <polyline id="Fill-51" mask="url(#mask-20)" points="144.576 20.099 134.063 98.471 118.935 0.347 72.99 0.347 86.754 22.01 77.674 98.471 57.357 0.347 0.417 0.347 28.134 25.833 56.169 223.196 44.66 243.729 94.434 245.657 106.824 159.958 118.535 245.657 153.179 245.657 188.063 0.347 126.471 0.347 144.576 20.099"></polyline>
            </g>
            <polygon id="Stroke-54" stroke="#FFFFFE" stroke-width="0.903" fill="" points="298.576 54.099 288.063 132.471 272.935 34.347 226.99 34.347 240.754 56.01 231.674 132.471 211.357 34.347 154.417 34.347 182.134 59.833 210.169 257.196 198.66 277.729 248.434 279.657 260.824 193.958 272.535 279.657 307.179 279.657 342.063 34.347 280.471 34.347"></polygon>
            <g id="Group-57" transform="translate(348.000000, 49.000000)">
                <mask id="mask-22" fill="white">
                    <use xlink:href="#path-21"></use>
                </mask>
                <g id="Clip-56"></g>
                <path d="M37.072,180.958 L60.011,180.958 L60.011,36.639 L37.072,36.639 L37.072,180.958 Z M19.869,0.161 L0.275,19.913 L0.275,197.842 L20.506,218.072 L77.214,218.072 L96.647,198.639 L96.647,19.913 L76.895,0.161 L19.869,0.161 Z" id="Fill-55" mask="url(#mask-22)"></path>
            </g>
            <path d="M385.072,229.958 L408.011,229.958 L408.011,85.639 L385.072,85.639 L385.072,229.958 Z M367.869,49.161 L348.275,68.913 L348.275,246.842 L368.506,267.072 L425.214,267.072 L444.647,247.639 L444.647,68.913 L424.895,49.161 L367.869,49.161 Z" id="Stroke-58" stroke="#FFFFFE" stroke-width="0.903" fill=""></path>
            <g id="Group-61" transform="translate(459.000000, 49.000000)">
                <mask id="mask-24" fill="white">
                    <use xlink:href="#path-23"></use>
                </mask>
                <g id="Clip-60"></g>
                <path d="M36.939,180.958 L59.878,180.958 L59.878,36.639 L36.939,36.639 L36.939,180.958 Z M19.736,0.161 L0.143,19.913 L0.143,197.842 L20.373,218.072 L77.081,218.072 L96.515,198.639 L96.515,19.913 L76.763,0.161 L19.736,0.161 Z" id="Fill-59" mask="url(#mask-24)"></path>
            </g>
            <path d="M495.939,229.958 L518.878,229.958 L518.878,85.639 L495.939,85.639 L495.939,229.958 Z M478.736,49.161 L459.143,68.913 L459.143,246.842 L479.373,267.072 L536.081,267.072 L555.515,247.639 L555.515,68.913 L535.763,49.161 L478.736,49.161 Z" id="Stroke-62" stroke="#FFFFFE" stroke-width="0.903" fill=""></path>
            <g id="Group-65" transform="translate(552.000000, 49.000000)">
                <mask id="mask-26" fill="white">
                    <use xlink:href="#path-25"></use>
                </mask>
                <g id="Clip-64"></g>
                <path d="M57.117,181.236 L76.471,181.236 L76.471,36.957 L57.117,36.957 L57.117,181.236 Z M93.913,0.081 L18.03,0.146 L18.011,0.121 L18.011,0.146 L0.488,0.161 L18.011,17.683 L18.011,200.51 L0.488,218.033 L18.011,218.047 L18.011,218.072 L47.338,218.072 L93.913,218.112 L113.745,198.28 L113.745,19.913 L93.913,0.081 Z" id="Fill-63" mask="url(#mask-26)"></path>
            </g>
            <path d="M609.117,230.236 L628.471,230.236 L628.471,85.957 L609.117,85.957 L609.117,230.236 Z M645.913,49.081 L570.03,49.146 L570.011,49.121 L570.011,49.146 L552.488,49.161 L570.011,66.683 L570.011,249.51 L552.488,267.033 L570.011,267.047 L570.011,267.072 L599.338,267.072 L645.913,267.112 L665.745,247.28 L665.745,68.913 L645.913,49.081 Z" id="Stroke-66" stroke="#FFFFFE" stroke-width="0.903" fill=""></path>
            <g id="Group-69" transform="translate(660.000000, 30.000000)">
                <mask id="mask-28" fill="white">
                    <use xlink:href="#path-27"></use>
                </mask>
                <g id="Clip-68"></g>
                <polyline id="Fill-67" mask="url(#mask-28)" points="147.468 246.073 126.144 224.75 126.144 128.56 75.047 98.6 64.109 92.582 64.109 42.693 84.751 42.693 84.751 87.311 126.144 110.964 126.144 22.803 104.283 0.942 60.919 0.942 60.994 1.017 0.891 1.121 22.214 22.445 22.214 117.259 84.25 153.632 84.25 204.501 63.607 204.501 63.607 159.883 22.214 136.229 22.214 224.391 44.075 246.252 87.439 246.252 87.364 246.177 147.468 246.073"></polyline>
            </g>
            <polygon id="Stroke-70" stroke="#FFFFFE" stroke-width="0.903" fill="" points="807.468 276.073 786.144 254.75 786.144 158.56 735.047 128.6 724.109 122.582 724.109 72.693 744.751 72.693 744.751 117.311 786.144 140.964 786.144 52.803 764.283 30.942 720.919 30.942 720.994 31.017 660.891 31.121 682.214 52.445 682.214 147.259 744.25 183.632 744.25 234.501 723.607 234.501 723.607 189.883 682.214 166.229 682.214 254.391 704.075 276.252 747.439 276.252 747.364 276.177"></polygon>
        </g>
    </g>
</svg>